<svg xmlns="http://www.w3.org/2000/svg" xmlns:xlink="http://www.w3.org/1999/xlink" viewBox="0 0 1427.34 1576.39"><defs><linearGradient id="linear-gradient" x1="1358.88" y1="386.37" x2="1281.43" y2="293.83" gradientUnits="userSpaceOnUse"><stop offset="0" stop-color="#fa5db1"/><stop offset="1" stop-color="#febfbf"/></linearGradient><linearGradient id="linear-gradient-2" x1="1368.72" y1="439.89" x2="1212.98" y2="322.7" xlink:href="#linear-gradient"/><linearGradient id="linear-gradient-3" x1="988.72" y1="19.45" x2="953.72" y2="150.91" xlink:href="#linear-gradient"/><linearGradient id="linear-gradient-4" x1="996.68" y1="469.08" x2="794.81" y2="1164.86" gradientUnits="userSpaceOnUse"><stop offset="0" stop-color="#d1e8ff"/><stop offset="1" stop-color="#eaefff"/></linearGradient><linearGradient id="linear-gradient-5" x1="784.87" y1="819.18" x2="1226.35" y2="483.98" gradientUnits="userSpaceOnUse"><stop offset="0" stop-color="#6d6afe"/><stop offset="1" stop-color="#3fb0f7"/></linearGradient><linearGradient id="linear-gradient-6" x1="980.81" y1="1070.54" x2="341.2" y2="508.41" xlink:href="#linear-gradient-5"/><linearGradient id="linear-gradient-7" x1="931.94" y1="1280.7" x2="903.62" y2="836.31" xlink:href="#linear-gradient-4"/><linearGradient id="linear-gradient-8" x1="941.46" y1="940.36" x2="860.89" y2="1084.47" xlink:href="#linear-gradient-4"/><linearGradient id="linear-gradient-9" x1="881.72" y1="1167.05" x2="899.84" y2="1126.88" xlink:href="#linear-gradient-5"/><linearGradient id="linear-gradient-10" x1="1027.07" y1="1077.43" x2="987.79" y2="1061.9" xlink:href="#linear-gradient-5"/><linearGradient id="linear-gradient-11" x1="1027.07" y1="1147.84" x2="987.79" y2="1132.31" xlink:href="#linear-gradient-5"/><linearGradient id="GradientFill_11" x1="1093.67" y1="473.03" x2="1117.81" y2="815.38" gradientUnits="userSpaceOnUse"><stop offset="0" stop-color="#d870ac"/><stop offset="1" stop-color="#58469c"/></linearGradient><linearGradient id="linear-gradient-12" x1="1171.38" y1="773.7" x2="1244.1" y2="522.94" gradientUnits="userSpaceOnUse"><stop offset="0" stop-color="#a77ef7"/><stop offset="1" stop-color="#5e65d6"/></linearGradient><linearGradient id="GradientFill_11-2" x1="706.27" y1="182.44" x2="728.07" y2="492.16" xlink:href="#GradientFill_11"/><linearGradient id="linear-gradient-13" x1="653.05" y1="94.53" x2="587.9" y2="386.59" gradientUnits="userSpaceOnUse"><stop offset="0" stop-color="#965cf2"/><stop offset="1" stop-color="#ff8adc"/></linearGradient><linearGradient id="linear-gradient-14" x1="203.96" y1="804.87" x2="246.89" y2="878.33" gradientUnits="userSpaceOnUse"><stop offset="0" stop-color="#ff8a78"/><stop offset="1" stop-color="#ffa799"/></linearGradient><linearGradient id="linear-gradient-15" x1="199.03" y1="870.14" x2="133.38" y2="834.42" gradientUnits="userSpaceOnUse"><stop offset="0" stop-color="#ffb89e"/><stop offset="1" stop-color="#ffa799"/></linearGradient><linearGradient id="linear-gradient-16" x1="251.13" y1="699.08" x2="163.78" y2="737.46" gradientUnits="userSpaceOnUse"><stop offset="0" stop-color="#3e4795"/><stop offset="1" stop-color="#273088"/></linearGradient><linearGradient id="linear-gradient-17" x1="150.62" y1="362.61" x2="127.43" y2="450.7" gradientUnits="userSpaceOnUse"><stop offset="0" stop-color="#5a2d68"/><stop offset="1" stop-color="#22043d"/></linearGradient><linearGradient id="linear-gradient-18" x1="206.96" y1="364.8" x2="185.45" y2="415.95" xlink:href="#linear-gradient-17"/><linearGradient id="linear-gradient-19" x1="412.76" y1="508.09" x2="410.62" y2="500.33" xlink:href="#linear-gradient-14"/><linearGradient id="linear-gradient-20" x1="243.79" y1="527.17" x2="314.14" y2="483.67" gradientUnits="userSpaceOnUse"><stop offset="0" stop-color="#fa79b6"/><stop offset="1" stop-color="#ffbfbf"/></linearGradient><linearGradient id="linear-gradient-21" x1="159.89" y1="593.92" x2="300.03" y2="476" xlink:href="#linear-gradient-20"/><linearGradient id="linear-gradient-22" x1="203.17" y1="436.72" x2="200.86" y2="448.25" xlink:href="#linear-gradient-14"/><linearGradient id="linear-gradient-23" x1="245.77" y1="391.25" x2="227.84" y2="420.29" xlink:href="#linear-gradient-15"/><linearGradient id="linear-gradient-24" x1="152.7" y1="657.02" x2="148.89" y2="662.3" xlink:href="#linear-gradient-15"/><linearGradient id="linear-gradient-25" x1="91.23" y1="576.53" x2="342.69" y2="481.54" xlink:href="#linear-gradient-20"/><linearGradient id="linear-gradient-26" x1="361.06" y1="1501.72" x2="484.98" y2="1387.33" xlink:href="#linear-gradient-13"/><linearGradient id="linear-gradient-27" x1="593.97" y1="1182.65" x2="520.07" y2="1298.71" gradientUnits="userSpaceOnUse"><stop offset="0" stop-color="#235da3"/><stop offset="1" stop-color="#123a76"/></linearGradient><linearGradient id="linear-gradient-28" x1="549.12" y1="1330.21" x2="529.37" y2="1349.98" xlink:href="#linear-gradient-27"/><linearGradient id="linear-gradient-29" x1="580.4" y1="1130.46" x2="359.58" y2="1191.05" xlink:href="#linear-gradient-27"/><linearGradient id="linear-gradient-30" x1="575.54" y1="1196.28" x2="576.38" y2="1340.9" xlink:href="#linear-gradient-27"/><linearGradient id="linear-gradient-31" x1="768.74" y1="1332.42" x2="760.99" y2="1364.51" xlink:href="#linear-gradient-27"/><linearGradient id="linear-gradient-32" x1="376.74" y1="979.26" x2="401.53" y2="1031.46" xlink:href="#linear-gradient-5"/><linearGradient id="linear-gradient-33" x1="491.18" y1="975.45" x2="544.15" y2="875.28" xlink:href="#linear-gradient-12"/><linearGradient id="linear-gradient-34" x1="352.63" y1="956.64" x2="427.89" y2="1151.24" xlink:href="#linear-gradient-5"/><linearGradient id="linear-gradient-35" x1="360.1" y1="896.68" x2="353.63" y2="920.92" xlink:href="#linear-gradient-14"/><linearGradient id="linear-gradient-36" x1="412.74" y1="873.06" x2="385.83" y2="888.79" xlink:href="#linear-gradient-15"/><linearGradient id="linear-gradient-37" x1="424.67" y1="821.34" x2="363.19" y2="818.78" gradientUnits="userSpaceOnUse"><stop offset="0" stop-color="#8a4791"/><stop offset="1" stop-color="#562e65"/></linearGradient><linearGradient id="linear-gradient-38" x1="461.22" y1="971.01" x2="507.81" y2="1071.9" xlink:href="#linear-gradient-5"/><linearGradient id="linear-gradient-39" x1="376.39" y1="1296.98" x2="462.27" y2="1090.87" xlink:href="#linear-gradient-13"/><linearGradient id="linear-gradient-40" x1="384.28" y1="1379.54" x2="405.88" y2="1263.77" xlink:href="#linear-gradient-13"/><style>.cls-10,.cls-11,.cls-15,.cls-27,.cls-3,.cls-34,.cls-4,.cls-41,.cls-43,.cls-5,.cls-51,.cls-55,.cls-56{fill-rule:evenodd}.cls-3{fill:#e23b93}.cls-4{fill:#f2f4ff}.cls-5{fill:#c5dbf1}.cls-10,.cls-27{fill:#fff}.cls-11{fill:#9e9bf5}.cls-11,.cls-27{opacity:.5}.cls-11,.cls-43{mix-blend-mode:multiply}.cls-15{fill:#6bb6ff}.cls-34{fill:#273087}.cls-41{fill:#ffa698}.cls-43{fill:#f969ac;opacity:.35}.cls-51{fill:#8141e7}.cls-55{fill:#ffa495}.cls-56{fill:#193161}</style></defs><g style="isolation:isolate"><g id="Layer_2" data-name="Layer 2"><g id="Layer_1-2" data-name="Layer 1"><path d="M1389.66 475.89l-141.1-78.18 32.76-148.22v-1.83h.05l.06-.05h.18a2.46 2.46 0 012.11-.1l141.08 78.18c-2.8-3.97-21.57 106.49-35.14 150.2z" fill="url(#linear-gradient)" fill-rule="evenodd"/><path class="cls-3" d="M1281.32 249.49c59.26 64.74 130 104.73 123 160.91l-14.69 65.49-141.1-78.18z"/><path class="cls-4" d="M1387.7 310.5l-3.19 150.33-147.98-81.44.44-149.03 150.73 80.14z"/><path class="cls-5" d="M1384.95 311.81l3.09-1.71-.44 149.03-3.09 1.7.44-149.02z"/><path fill="#dce8f8" fill-rule="evenodd" d="M1236.97 230.36l3.1-1.72 147.97 81.46-3.09 1.71-147.98-81.45z"/><path class="cls-5" d="M1379.31 428.59v9.4l-137-75.4v-9.39l137 75.39zm.31-108.06v9.4l-137-75.39v-9.4l136.95 75.39zm0 15.43l-137-75.39v9.4l137 75.38v-9.39zm0 15.44l-137-75.39v9.4l137 75.39v-9.4zm0 15.44l-137-75.39v9.4l137 75.39v-9.4zm0 15.43l-137-75.39v9.4l137 75.39v-9.4zm0 15.44l-137-75.39v9.4l137 75.39v-9.4zm0 15.45l-137-75.39v9.39l137 75.39z"/><path d="M1351.48 368.16l33.64 112.77a13.19 13.19 0 002.07 3.59l-141.09-78.16c-1.24-.67-1.9-2.5-2.08-3.59L1210.39 290l-6.3-21.14a5.35 5.35 0 011.21-3.83c5.86 5.09 37.15 23.35 42.92 26.58 9.66 7.22 10 16.13 24.62 30.93a25.36 25.36 0 007.24 5.53z" fill="url(#linear-gradient-2)" fill-rule="evenodd"/><path class="cls-3" d="M1353.23 363.82a3.67 3.67 0 01.69-.49c1.1-.6 2.09-.34 2.42.7l33.32 111.86 32.75-148.23a5.29 5.29 0 012.39-3.34 3.49 3.49 0 01.68-.28c1.35-.34 2.14.76 1.77 2.42l-33 149.22a21.88 21.88 0 01-2 5.84 6.84 6.84 0 01-2.65 2.85 2.4 2.4 0 01-2.61.06 6.65 6.65 0 01-1.91-3.49l-33.65-112.78a4.78 4.78 0 011.8-4.34z"/><path d="M1284.52 323.74l71.17 39.43c-1.85-.86-4.69 3.1-4.21 5l-71.87-39.82a44.41 44.41 0 01-6-3.7c-10.21-7.69-15-18.23-21.71-26.76a28.17 28.17 0 00-5.72-5.52c-1.78-.92-2.72-1.41-2.4-1.26l-39.67-22.26a5.4 5.4 0 011.22-3.8c.76-.76 1.93-1.7 3-1.16l39.73 22.3c-.31-.15.63.34 2.4 1.26a28 28 0 015.72 5.53c7.07 9 12.12 19.16 23.58 27.77a37.75 37.75 0 004.76 2.99z" fill="#fb84b6" fill-rule="evenodd"/><path d="M977.5 153.19c-37.74-20.8-70.65-69.86-73.5-109.61s25.35-55.11 63.09-34.31 70.65 69.88 73.54 109.62-25.41 55.11-63.13 34.3z" fill="url(#linear-gradient-3)" fill-rule="evenodd"/><path class="cls-10" d="M995.99 52.9l10 4.77-44.43 64.48-39.23-55.45 12.92 4.81 20.72 18.75 40.02-37.36z"/><path class="cls-11" d="M1198.92 1321.33l-432.33-235.41c-16.05-7-39.62-13.58-55.36-4.44L671 1104.87c-8.1 4.7-34.74 20.32-16.92 29.56 52.42 27.17 387.32 213.72 440.55 241.33 10.07 5.22 24.79 7.1 40.25 5.88s31.37-5.19 43.59-12.38l16.09-9.45c11.37-6.69 17.67-14 18.27-21 .55-6.81-4.06-13.19-13.91-17.48z"/><path d="M1186.87 1295.83c-.06 20-7.56 34.15-19.54 40.79l-19 10.9c-65.22-26.54-41-341.68-45-431.27l20-470.18c-16.84-28.06-81.63-52.54-66.51-109.83l-191.15-85.32c-8.49-5.5-231.59-128.68-191.54-151.78 6.7-3.86 13.33-7.75 19.94-11.42 14.79-8.33 33.63-3.18 47.47 4.43l380.41 208c37.34 20.51 66.62 70.14 66.51 109.82z" fill="url(#linear-gradient-4)" fill-rule="evenodd"/><path class="cls-10" d="M654.69 139.9c0-19.64 7.19-33.6 18.76-40.39 12.18-7.16 29.27-6.39 48.18 4l380.41 208c36.81 20.27 66.62 69.49 66.5 109.83l-1.54 885.87c-.11 40.34-30.12 56.64-66.94 36.38l-380.4-208c-36.87-20.29-66.63-69.49-66.51-109.83z"/><path d="M654.69 139.9c0-19.64 7.19-33.6 18.76-40.39 12.18-7.16 29.27-6.39 48.18 4l380.41 208c36.81 20.27 66.62 69.49 66.5 109.83l-1.54 885.87c-.11 40.34-30.12 56.64-66.94 36.38l-380.4-208c-36.87-20.29-66.63-69.49-66.51-109.83z" fill="url(#linear-gradient-5)" fill-rule="evenodd"/><path d="M1115.43 385.44c10 5.49 18.07 1.08 18.1-9.84s-8-24.22-18-29.71-18.07-1.08-18.1 9.84 8.03 24.27 18 29.71zM826.59 207.92c0-3 2.22-4.14 4.94-2.6 39.53 21.29 104.31 56.06 143.84 77.35a10.42 10.42 0 014.91 8.18v5.89c0 3-2.23 4.14-4.94 2.6C935.81 278 871 243.28 831.5 222a10.42 10.42 0 01-4.91-8.18z" fill="#485af4" fill-rule="evenodd"/><path class="cls-15" d="M823.8 571.12c0-8.09 6-11.27 13.43-7.08l167.18 90.05c7.39 4.19 13.38 14.17 13.35 22.26v16c0 8.1-6 11.27-13.44 7.09L837.14 609.4c-7.4-4.19-13.37-14.16-13.35-22.26z"/><path d="M736.53 597.2c0-7.13 5.32-9.93 11.84-6.24 94.78 51.04 250.11 134.41 344.89 185.47 6.52 3.69 11.79 12.48 11.77 19.61v14.11c0 7.14-5.32 9.93-11.83 6.25-94.8-51.06-250.13-134.4-344.91-185.47-6.52-3.69-11.78-12.48-11.76-19.61z" fill="#6bb6ff" opacity=".5" fill-rule="evenodd"/><path d="M755 735.73c0-10.5 7.83-14.75 17.43-9.47 101.68 55.6 203.14 113.15 304.82 168.74 9.58 5.28 17.34 18.09 17.31 28.59l.5 383.71c0 10.5-7.85 14.75-17.43 9.47C976 1261.18 874.48 1203.62 772.82 1148c-9.6-5.29-17.35-18.1-17.32-28.6z" style="mix-blend-mode:multiply" fill="url(#linear-gradient-6)" opacity=".5" fill-rule="evenodd"/><path d="M747.38 729.08l11.62-5.57c2.92-1.29 6.8-.93 11.05 1.41 96.08 52.54 192 106.93 288.06 159.47 9.06 5 16.4 17.1 16.37 27l.47 362.64c0 4.14-1.32 7.26-3.48 9.11s-10.67 5.35-13.69 6.8c-96.09-52.54-191.3-113.91-287.37-166.44-9.07-5-16.39-17.1-16.36-27z" fill="url(#linear-gradient-7)" fill-rule="evenodd"/><path d="M742.17 739.33c0-9.93 7.4-14 16.47-9 96.09 52.54 192 106.92 288.07 159.47 9 5 16.39 17.1 16.36 27l.47 362.63c0 9.93-7.42 13.94-16.48 9C951 1235.9 855.08 1181.51 759 1129c-9.07-5-16.39-17.1-16.36-27z" fill="url(#linear-gradient-8)" fill-rule="evenodd"/><path class="cls-10" d="M862.84 893.53c0-3.06 1.12-5.24 2.92-6.3s4.57-1 7.51.63l12.88 7a65.94 65.94 0 0019 16.61c7 3.88 13.35 5 18.28 3.79l9.12 5c5.73 3.16 10.38 10.83 10.36 17.12l-.06 37.12q-40.07-22.23-80.1-44.57l.07-36.42zm41.8 10.71c13.52 7.45 23.66 2 22.62-12.31s-12.85-31.85-26.37-39.31-23.66-1.94-22.63 12.3 12.84 31.86 26.38 39.32zm-145.9 5.89c0-4.12 3.07-5.78 6.83-3.71q137.23 75 274.42 150.09c3.75 2.07 6.79 7.09 6.78 11.2l.19 40.7c0 4.11-3.07 5.77-6.82 3.71q-137.24-75-274.42-150.1c-3.76-2.06-6.8-7.08-6.78-11.19z"/><path d="M805.8 1091c0-4.12 3.06-5.78 6.82-3.71q74.18 40.56 148.38 81c3.75 2.07 6.79 7.09 6.78 11.2l.19 40.7c0 4.12-3.07 5.78-6.82 3.71q-74.17-40.56-148.38-81c-3.76-2.07-6.79-7.09-6.78-11.2z" fill="url(#linear-gradient-9)" fill-rule="evenodd"/><path class="cls-10" d="M758.74 984.43c0-4.12 3.07-5.78 6.83-3.71q137.23 75 274.42 150.09c3.75 2.07 6.79 7.09 6.78 11.2l.19 40.7c0 4.11-3.07 5.77-6.82 3.71q-137.24-75-274.42-150.1c-3.76-2.06-6.8-7.08-6.78-11.19z"/><path d="M1015.19 1091.16c-10-5.48-18.63-18.42-19.39-28.9s6.68-14.53 16.63-9 18.63 18.42 19.39 28.9-6.69 14.48-16.63 9z" fill="url(#linear-gradient-10)" fill-rule="evenodd"/><path class="cls-10" d="M1020.06 1064.72l2.64 1.26-11.71 17-10.35-14.62 3.41 1.27 5.46 4.94 10.55-9.85z"/><path d="M1015.19 1161.57c-10-5.48-18.63-18.42-19.39-28.9s6.68-14.53 16.63-9 18.63 18.42 19.39 28.89-6.69 14.49-16.63 9.01z" fill="url(#linear-gradient-11)" fill-rule="evenodd"/><path class="cls-10" d="M1020.06 1135.13l2.64 1.26-11.71 17-10.35-14.62 3.41 1.27 5.46 4.94 10.55-9.85z"/><path d="M782.14 933.73a1.9 1.9 0 011.83-2 1.94 1.94 0 012.1 1.74l.66 9.11 5.61-3.08a2 2 0 012.68.69 1.83 1.83 0 01-.73 2.56l-5.38 3 8.07 4.45a1.82 1.82 0 01.72 2.56 2 2 0 01-2.69.69l-4.14-2.29 4.34 6.59a1.83 1.83 0 01-.62 2.58 2 2 0 01-2.71-.58l-4.39-6.75.33 4.65a1.91 1.91 0 01-1.83 2 1.94 1.94 0 01-2.1-1.75l-.66-9.11-4.86 2.67a2 2 0 01-2.68-.69 1.81 1.81 0 01.72-2.55l4.63-2.55-8.04-4.4a1.82 1.82 0 01-.72-2.57 2 2 0 012.72-.7l4.14 2.28-4.34-6.58a1.84 1.84 0 01.62-2.59 2 2 0 012.71.59l4.39 6.66zm41.38 22.56a1.91 1.91 0 011.83-2 1.94 1.94 0 012.1 1.75l.66 9.11 5.61-3.08a2 2 0 012.68.69 1.82 1.82 0 01-.73 2.55l-5.38 3 8.07 4.44a1.83 1.83 0 01.72 2.57 2 2 0 01-2.69.68l-4.14-2.28 4.33 6.58a1.82 1.82 0 01-.61 2.59 2 2 0 01-2.71-.59l-4.39-6.66.33 4.65a1.9 1.9 0 01-1.83 2 1.94 1.94 0 01-2.1-1.74l-.66-9.11-4.86 2.67a2 2 0 01-2.68-.69 1.83 1.83 0 01.72-2.56l4.63-2.54-8.07-4.45a1.83 1.83 0 01-.71-2.56 2 2 0 012.69-.69l4.14 2.29-4.34-6.59a1.83 1.83 0 01.62-2.58 2 2 0 012.71.58l4.39 6.67zM864 978.23a1.91 1.91 0 011.83-2 1.94 1.94 0 012.1 1.75l.66 9.1 5.61-3.08a2 2 0 012.68.69 1.83 1.83 0 01-.72 2.56l-5.38 3 8.07 4.45a1.82 1.82 0 01.71 2.56 2 2 0 01-2.69.69l-4.14-2.29 4.34 6.59a1.82 1.82 0 01-.62 2.58 2 2 0 01-2.71-.58l-4.39-6.67.33 4.65a1.9 1.9 0 01-1.83 2 1.94 1.94 0 01-2.1-1.75l-.66-9.11-4.89 2.63a2 2 0 01-2.68-.7 1.82 1.82 0 01.72-2.55l4.64-2.55-8.07-4.44a1.84 1.84 0 01-.72-2.57 2 2 0 012.69-.68l4.14 2.28-4.33-6.58a1.82 1.82 0 01.61-2.59 2 2 0 012.72.59l4.39 6.67zm40.42 21.93a1.92 1.92 0 011.84-2 1.94 1.94 0 012.09 1.75l.65 9.09 5.61-3.08a2 2 0 012.68.69 1.83 1.83 0 01-.72 2.56l-5.38 2.95 8.07 4.45a1.83 1.83 0 01.72 2.56 2 2 0 01-2.69.69l-4.15-2.29 4.34 6.58a1.83 1.83 0 01-.62 2.59 2 2 0 01-2.71-.59l-4.39-6.66.34 4.65a1.92 1.92 0 01-1.84 2 1.94 1.94 0 01-2.09-1.75l-.66-9.11-4.87 2.67a2 2 0 01-2.68-.69 1.82 1.82 0 01.73-2.56l4.63-2.54-8.07-4.45a1.83 1.83 0 01-.72-2.56 2 2 0 012.69-.68l4.15 2.28-4.34-6.58a1.83 1.83 0 01.62-2.59 2 2 0 012.71.59l4.39 6.66zm-122.28 7.17a1.91 1.91 0 011.83-2 1.94 1.94 0 012.1 1.75l.66 9.1 5.61-3.07a2 2 0 012.68.69 1.82 1.82 0 01-.73 2.55l-5.38 3 8.07 4.44a1.83 1.83 0 01.72 2.57 2 2 0 01-2.69.68l-4.14-2.28 4.34 6.58a1.84 1.84 0 01-.62 2.59 2 2 0 01-2.71-.59l-4.39-6.67.33 4.65a1.91 1.91 0 01-1.83 2 1.94 1.94 0 01-2.1-1.75l-.66-9.1-4.86 2.67a2 2 0 01-2.68-.69 1.82 1.82 0 01.72-2.56l4.63-2.54-8.06-4.45a1.82 1.82 0 01-.72-2.56 2 2 0 012.69-.69l4.14 2.28-4.34-6.58a1.84 1.84 0 01.62-2.59 2 2 0 012.71.59l4.39 6.67zm41.38 22.55a1.91 1.91 0 011.83-2 1.94 1.94 0 012.1 1.75l.66 9.11 5.61-3.08a2 2 0 012.68.69 1.83 1.83 0 01-.73 2.56l-5.38 2.95 8.07 4.45a1.82 1.82 0 01.72 2.56 2 2 0 01-2.69.68l-4.14-2.28 4.33 6.59a1.82 1.82 0 01-.61 2.58 2 2 0 01-2.71-.59l-4.39-6.66.33 4.65a1.92 1.92 0 01-1.83 2 1.94 1.94 0 01-2.1-1.75l-.66-9.11-4.86 2.67a2 2 0 01-2.68-.69 1.83 1.83 0 01.72-2.56l4.63-2.54-8.07-4.45a1.83 1.83 0 01-.71-2.56 2 2 0 012.69-.68l4.14 2.28-4.34-6.58a1.84 1.84 0 01.62-2.59 2 2 0 012.71.59l4.39 6.66zm40.48 21.94a1.91 1.91 0 011.83-2 1.94 1.94 0 012.1 1.75l.66 9.11 5.61-3.08a2 2 0 012.68.69 1.82 1.82 0 01-.72 2.55l-5.38 3 8.07 4.44a1.83 1.83 0 01.71 2.57 2 2 0 01-2.69.68l-4.14-2.28 4.34 6.58a1.83 1.83 0 01-.62 2.59 2 2 0 01-2.71-.59l-4.39-6.66.33 4.65a1.89 1.89 0 01-1.83 2 1.94 1.94 0 01-2.1-1.74l-.66-9.11-4.86 2.67a2 2 0 01-2.68-.69 1.83 1.83 0 01.72-2.56l4.64-2.54-8.07-4.45a1.83 1.83 0 01-.72-2.56 2 2 0 012.69-.69l4.14 2.28-4.33-6.58a1.82 1.82 0 01.61-2.58 2 2 0 012.72.58l4.39 6.67zm40.42 21.93a1.91 1.91 0 011.84-2 1.93 1.93 0 012.09 1.75l.66 9.1 5.61-3.08a2 2 0 012.68.69 1.83 1.83 0 01-.72 2.56l-5.38 3 8.07 4.45a1.83 1.83 0 01.72 2.56 2 2 0 01-2.69.69l-4.15-2.29 4.34 6.59a1.82 1.82 0 01-.62 2.58 2 2 0 01-2.71-.58l-4.39-6.67.34 4.65a1.91 1.91 0 01-1.84 2 1.93 1.93 0 01-2.09-1.75l-.66-9.11-4.87 2.67a2 2 0 01-2.68-.69 1.81 1.81 0 01.73-2.55l4.63-2.55-8.07-4.44a1.84 1.84 0 01-.72-2.57 2 2 0 012.69-.68l4.15 2.28-4.34-6.58a1.83 1.83 0 01.62-2.59 2 2 0 012.71.59l4.39 6.67z" fill="#9ed7fa" fill-rule="evenodd"/><path class="cls-15" d="M836.83 467.9a24 24 0 012-10.07 17.18 17.18 0 016.9-7.71 18.24 18.24 0 0110.88-2.35 27 27 0 0110.71 3.44l26 14.2.86 1.08a136.75 136.75 0 0016.72 17.6 102.25 102.25 0 0017.8 12.62 60.74 60.74 0 0016.75 6.51 29.67 29.67 0 0013.16.1l2.78-.69c3.72 2 18.5 9.51 20 11 6.58 3.63 12.47 9.73 16.67 16.66s6.76 14.82 6.75 22l-.1 49.65c.37 13.3-.09 20.33-7 23.2-5.87 2.44-13-.89-26.08-8.23-14.55-8.16-31.63-17.72-55.58-31.07-21.05-11.75-40-22.28-55.63-30.84l-2.53-1.39c-20-10.91-21.19-11.59-21.14-36.43l.09-49.26zm14.86-4.69a11.42 11.42 0 00-.89 4.69l-.09 49.26c0 17.09.8 17.54 14.12 24.84l2.55 1.4c21.58 11.87 39.75 21.93 55.78 30.87 13.14 7.32 33.12 18.51 55.58 31.12 9 5 13.4 7.51 13.44 7.49 1-.41-1.19-3.29-1.4-10.67l.09-50c0-4.86-1.85-10.4-4.88-15.4a32.87 32.87 0 00-11.54-11.73l-15.24-8.33a45.4 45.4 0 01-16.69-.55 75.16 75.16 0 01-20.81-8 116.77 116.77 0 01-20.2-14.35A148.43 148.43 0 01884 475.68l-23.59-12.91a12.8 12.8 0 00-4.93-1.68 4.05 4.05 0 00-2.34.37 3.86 3.86 0 00-1.42 1.75zm77 27.23c11.37 7.78 19.86 8.81 27.19 7.23a28.78 28.78 0 0012.79-3.79 26.36 26.36 0 009.33-9.18c3.73-6.16 5.5-14.31 4.79-24.15-1.08-14.82-7.67-31.25-17.45-45.83s-22.79-27.4-36.76-35.1c-9.9-5.46-19.19-7.76-27.19-7.23a28.78 28.78 0 00-12.79 3.79 26.17 26.17 0 00-9.23 9.18c-3.73 6.15-5.51 14.31-4.8 24.14 1.08 14.83 7.67 31.27 17.45 45.84s22.78 27.4 36.76 35.1zm-25-42.25c8.6 12.81 19.94 24.06 32 30.71 7.38 4.06 13.93 5.8 19.24 5.45a14.53 14.53 0 006.39-1.85 12.81 12.81 0 004.47-4.49c2.35-3.88 3.45-9.46 2.93-16.57-.91-12.57-6.68-26.78-15.26-39.56s-19.95-24.08-32-30.72c-7.38-4.07-13.93-5.8-19.24-5.45a14.4 14.4 0 00-6.39 1.85 12.81 12.81 0 00-4.47 4.49c-2.35 3.88-3.44 9.46-2.93 16.56.98 12.59 6.75 26.79 15.33 39.58z"/><path d="M1043.76 439.93l17.47-9.5 127.15 332.44-.65 141.79-20.1 7.25q-53-29.46-106-58.55c-9.63-5.29-17.4-18.14-17.36-28.67z" style="mix-blend-mode:multiply" fill="url(#GradientFill_11)" opacity=".5" fill-rule="evenodd"/><path class="cls-4" d="M1045.92 432.1l8-4c2.8-.88 6.34-.39 10.2 1.72 95.72 52.34 191.24 106.52 287 158.87 9 5 16.33 17 16.3 26.92l.47 361.25c0 4.49-1.54 7.77-4 9.54-3 2.13-9.22 6.73-14.15 4-95.72-52.35-189.47-111.18-285.18-163.51-9-5-16.33-17-16.3-26.92z"/><path class="cls-10" d="M1041.06 442.15c0-9.88 7.37-13.89 16.41-8.91 95.72 52.34 191.24 106.52 287 158.87 9 5 16.32 17 16.29 26.92l.47 361.25c0 9.88-7.38 13.88-16.41 8.91-95.72-52.34-191.25-106.53-287-158.87-9-5-16.33-17-16.3-26.92z"/><path d="M1041.06 442.15c0-9.88 7.37-13.89 16.41-8.91 95.72 52.34 191.24 106.52 287 158.87 9 5 16.32 17 16.29 26.92l.34 283.87-319.7-174.81z" fill="url(#linear-gradient-12)" fill-rule="evenodd"/><path d="M1064.8 766.26c0-4.27 3.19-6 7.09-3.74l88.16 47.48c3.89 2.21 7 7.47 7 11.74v8.45c0 4.27-3.19 5.95-7.09 3.74l-88.16-47.49c-3.9-2.21-7-7.47-7-11.74zm0 37.05c0-3.76 2.81-5.24 6.24-3.29 50 26.92 131.9 70.88 181.88 97.8 3.44 1.95 6.22 6.58 6.21 10.34v7.45c0 3.76-2.8 5.23-6.24 3.29C1202.9 892 1121 848 1071 821.09c-3.44-1.94-6.21-6.57-6.2-10.34z" fill="#a67ef6" opacity=".25" fill-rule="evenodd"/><path class="cls-27" d="M1315.44 607.52c12.75 3.21 24.15 17.59 25.47 32.12s-7.94 23.69-20.69 20.48-24.15-17.59-25.47-32.12 7.95-23.7 20.69-20.48z"/><path class="cls-10" d="M1316.62 620.49c6.46 1.63 12.24 8.91 12.91 16.28s-4 12-10.49 10.38-12.23-8.92-12.9-16.28 4.02-12.01 10.48-10.38zm-241.86 59.24c-5.21-15.26-18.42-45.91-19.87-61.88-1.48-16.28 8.89-26.55 23.17-23s27 19.71 28.53 36c1.58 17.39-20.2 35.35-31.83 48.85zm3.08-73.63c-8.59-2.17-14.84 4-13.95 13.82s8.58 19.49 17.18 21.66 14.84-4 14-13.81-8.63-19.5-17.23-21.67zm-5.66 91.99c-2 2.48 2 5.84 4.36 3 2.09-2.76 4.2-5.48 6.35-8.19s-2.06-5.83-4.29-3.1-4.31 5.5-6.42 8.29zm241.46-47.6c.34-3.56-5-3.79-5.33-.62a79.84 79.84 0 01-1.81 9.81c-.87 3.05 4.24 4.65 5.23 1.18a85.52 85.52 0 001.91-10.37zm-7.1 25.38c1.3-3.09-3.29-5.15-4.92-2a66.43 66.43 0 01-4.78 8.76c-1.88 3 2.8 5.51 4.56 2.71a71.67 71.67 0 005.14-9.42zm-15.78 21.84c2.76-2.62-1.33-6-3.59-3.81a39.49 39.49 0 01-8.19 5.55c-3.07 1.46-.79 6.1 2.48 4.54a45.07 45.07 0 009.3-6.28zm-26 10.3a2.56 2.56 0 100-5.12 33.82 33.82 0 01-9.77-1.45c-3.5-.91-5 3.72-1.67 4.87a39.53 39.53 0 0011.39 1.7zm-26.39-9.12c2.64 2 6.12-1.95 3.17-4.13a71.5 71.5 0 01-7.89-6.39c-2.46-2.34-6.31 1.23-3.77 3.66a79.05 79.05 0 008.49 6.86zM1219 680.21c2.23 2.73 6.41-.49 4.29-3.09s-4.16-5.41-6.1-8.22-6.43.05-4.51 2.8 4.11 5.75 6.32 8.51zm-14.69-21.77c1.84 2.92 6.43.26 4.62-2.62a71.51 71.51 0 00-6.21-8.76c-2.14-2.62-6.43.47-4.22 3.18 2 2.82 3.94 5.18 5.81 8.2zM1187.55 640c2.91 1.85 6-2 3.1-4.18a45.67 45.67 0 00-10-5.18c-3.37-1.17-5.15 3.66-1.87 4.8a39.78 39.78 0 018.81 4.56zm-23.55-6.7a2.57 2.57 0 10-.28-5.12 54 54 0 00-11.17 1.81c-3.34.87-2 5.84 1.47 4.93a48 48 0 0110-1.62zm-24.24 7.35c3-1.74.61-6-2.6-4.48a105.79 105.79 0 00-9.35 5.58c-2.88 2.14.19 6 3.09 4.19a94.15 94.15 0 018.86-5.29zm-21.27 14.65c2.54-2.42-.72-5.94-3.55-3.84-2.75 2.3-5.34 4.68-8 7.09s1.3 6 3.79 3.64 5.11-4.69 7.74-6.89zm-18.71 17.92c2.22-2.42-1.36-5.93-4-3.39-2.4 2.57-4.75 5.19-7.06 7.83-2.31 2.83 2.09 5.78 4.14 3.27q3.37-3.93 6.91-7.71z"/><path class="cls-27" d="M1070.18 688.38c6.23 1.57 11.8 8.6 12.45 15.7s-3.88 11.58-10.11 10-11.81-8.6-12.45-15.7 3.93-11.57 10.11-10z"/><path class="cls-10" d="M1070.76 694.72c3.15.8 6 4.36 6.31 8s-2 5.87-5.13 5.07-6-4.36-6.31-8 1.97-5.87 5.13-5.07z"/><path d="M682.23 143.57q43 23.88 86 47.48c8.78 4.83 15.88 16.57 15.85 26.18l.46 351.36c0 9.61-7.18 13.5-16 8.67L654.13 514l-.13-86.9z" style="mix-blend-mode:multiply" fill="url(#GradientFill_11-2)" opacity=".5" fill-rule="evenodd"/><path class="cls-4" d="M475.19 38.06l7.31-3.68c2.55-.81 5.78-.36 9.31 1.57C579.22 83.74 666.45 133.22 753.86 181c8.24 4.54 14.91 15.55 14.89 24.58l.42 329.89c0 4.1-1.4 7.09-3.69 8.71-2.75 1.94-8.43 6.15-12.92 3.67-87.41-47.8-173-101.53-260.42-149.32C483.89 394 477.23 383 477.25 374z"/><path class="cls-10" d="M470.75 47.24c0-9 6.73-12.69 15-8.15 87.41 47.8 174.64 97.28 262 145.08 8.24 4.54 14.92 15.55 14.89 24.58l.43 329.89c0 9-6.75 12.67-15 8.13C660.7 499 573.46 449.49 486.06 401.7c-8.25-4.54-14.91-15.55-14.89-24.58z"/><path d="M470.75 47.24c0-9 6.73-12.69 15-8.15 87.41 47.8 174.64 97.28 262 145.08 8.24 4.54 14.92 15.55 14.89 24.58L763 468 471.06 308.34z" fill="url(#linear-gradient-13)" fill-rule="evenodd"/><path d="M492.43 343.2c0-3.9 2.91-5.43 6.47-3.41l80.51 43.37c3.56 2 6.44 6.82 6.43 10.72v7.71c0 3.9-2.92 5.43-6.48 3.41l-80.5-43.37c-3.56-2-6.44-6.81-6.43-10.71zm0 33.8c0-3.43 2.56-4.78 5.7-3 45.64 24.58 120.44 64.72 166.09 89.31a12.06 12.06 0 015.66 9.44v6.8c0 3.44-2.57 4.78-5.7 3-45.64-24.55-120.44-64.69-166.09-89.28a12 12 0 01-5.66-9.44z" fill="#f786dc" opacity=".25" fill-rule="evenodd"/><path d="M699.83 259.56l-.31 163.92 48.26 26.82.31-163.93-48.26-26.81zm-144.91-130.4l-.48 219.43 48.26 26.81.48-219.4-48.26-26.82zm72.28 77.78l-.36 181.87 48.26 26.82.36-181.87-48.26-26.82zm-144.83-62.49l-.31 163.92 48.26 26.82.31-163.93z" fill="#f786dc" fill-rule="evenodd"/><path d="M481.8 208.66a2.6 2.6 0 01.25-4.2 4.28 4.28 0 015.16.2l45.72 40.82 22.14 9 47.48-9.23 28.82-30.1a4.25 4.25 0 015.14-.52 3.22 3.22 0 01.8.7l67.76 69.33 41.3 9.71c2-.06 3.7 1.22 3.77 2.86s-1.5 3-3.52 3.07l-43.06-9.66a4 4 0 01-3.12-1.15l-66.18-67.67-26.7 27.89a3.86 3.86 0 01-2 1.07l-50 9.73a4.41 4.41 0 01-2.48-.24l-23.72-9.63a3.68 3.68 0 01-1.32-.75z" style="mix-blend-mode:multiply" fill="#955cf1" opacity=".5" fill-rule="evenodd"/><path class="cls-10" d="M481.8 209.52a3.36 3.36 0 01.25-4.92 3.78 3.78 0 015.16.23l45.72 47.91 22.14 10.56 47.48-10.84 28.82-35.33a3.79 3.79 0 015.14-.62 3.49 3.49 0 01.8.83l64.24 79 45.34-1.61a3.48 3.48 0 11.26 6.95L700 303.37a3.72 3.72 0 01-3.12-1.35L634.26 225l-26.7 32.74a3.7 3.7 0 01-2 1.24l-50 11.43a3.83 3.83 0 01-2.48-.28l-23.72-11.3a3.73 3.73 0 01-1.32-.88z"/><path class="cls-11" d="M17.67 1108.91l186.86-101.46c20.38-8.87 49.53-15.94 70.29-5.64 18.91 9.39 50.06 28.59 63.83 36.08 10.46 5.69 46.78 26.43 24.16 38.16-66.54 34.49-132.4 73.29-200 108.34-12.78 6.62-31.47 9-51.1 7.46s-39.58-7-55.34-15.71l-33.14-18.39C8.61 1149.62.83 1140 .06 1131.1c-.75-8.69 5.11-16.74 17.61-22.19z"/><path d="M266.12 632.16c.86 7.78-.38 19.66.25 48.92.44 20.69-2.47 56.82-4.74 87.85-.94 12.84-2.82 24.2-4 34.2-.87 7.26-4.2 14.41-5.3 21.48-8.24 53.14-18.86 101.44-25.18 165.67-1.46 14.78-3.09 22.37-.36 37 .53 2.85 2 5.72 2.4 8.59 1.91 14.17 3.35 28.27 9.17 40 .84 1.71 2.15 6.23 3.2 8.1 0 0-13.31 4.41-14.94 4.63s-23.08-5.47-23.08-5.47-8-34.15-7.86-36.12c1.39-22.38-14.9-18.26-.44-35.21 1.36-2.12 1-2.31 1-4.82-.18-22.13-4.13-54.24-7.09-83-8.47-82.11 5.91-76.22 9.13-115.45-5.91-47.22-17.92-114.27-16.65-172.38z" fill="url(#linear-gradient-14)" fill-rule="evenodd"/><path class="cls-34" d="M235.51 1069.72c2.31 4 4.8 9.83 6.92 14.19a87.58 87.58 0 015.42 13.75c.68 2.22.48 4.29-.49 5.53-5.19 6.63-31.15-5.46-39.86-12.79-5.62-4.73-5.72-10.33-7.05-17.17-2-10.26-2.32-11.41-4.9-22l-2.92 28.63-2.48 1.42c-.53-11.65-1.81-27.07-3.71-37-.75-4-2-8.5-2.22-10.7-1.07-13 5.66-19.34 11.84-23-2.27 7.88 3.73 20.7 6.45 36.84 2.85 16.89 12.67 35.36 20.38 36.92 3.25.66 10.43-3.2 14.34-5.33 1.48-.79-.23-5.63-1.72-9.29z"/><path d="M161 607.43c-8.81 27.27-26.35 52.26-29.79 73.65-3.47 21.56-1.59 42 2.78 74.16 3 21.89 14.63 71.27 12.15 90-3.64 27.43-14.11 43.68-17.58 75.81-2.79 25.86 1.68 63.43 3 99.23.51 13.62-.71 13.82-4.12 26.15a92.77 92.77 0 00-2.42 12.78 182.05 182.05 0 00-.94 38.74c.45 5.47 2.58 8.09 3.12 15.57l31.95 9.7c-.74-6.47-1.7-16.37-2.13-27.28-.38-9.76-.28-20.32-.26-30 0-13.87-1.39-22.59 1.19-35.71 8.59-43.65 21.91-82.06 30.92-117.94 4.71-18.75 6.09-35.43 13-62.25 2.82-10.93 5.16-21.91 5.84-33.1 1.83-29.84 7.82-65.63 8-96.26 25.86-35.73 42.65-53.28 49.66-71.89 1.35-12.11-3.1-26.72-3.1-26.72z" fill="url(#linear-gradient-15)" fill-rule="evenodd"/><path class="cls-34" d="M130.48 1035.93c-2.75 6-5.38 9.12-6.83 17.65s.86 22.43-.93 33l-2.85 16.76c-1.66 9.76 0 16.89 10.6 26.44 9.59 8.66 19.49 13 25.46 11 4.39-1.41 8.64-7.94 4.8-27-3.19-15.91-3-31-3.88-47.89-1.13 16.4-1.57 22 .37 38.42.55 4.59.84 12-4.8 12.07-23.35.29-23.7-5.73-24.67-12.71-2.6-18.67-1.92-51.14 2.73-67.74z"/><path d="M161 607.43c-8.81 27.27-26.35 52.26-29.79 73.65-5.18 32.14.77 57.66 9.9 127.6 1.19 9.11-.21 17.79-2 25.69-5.44 24.35 19.68 31.17 49.54 22.17 36.47-11 70.07-37 72.24-49 4.07-34.14 14.23-99.08 13.6-128.34s-7.54-39.29-8.4-47.07l-.3-7.53c-.98-6.02-91.79-15.3-104.79-17.17z" fill="url(#linear-gradient-16)" fill-rule="evenodd"/><path d="M96.36 464.37c66.88 34.29 94.89-31.28 101.79-80.74 3-21.29 2.2-41.64-7.45-54.39-10.15-13.38-27.14-18.79-43.81-18.17-36.14 1.35-55.54 34.05-46.82 68.24 8.52 33.39 25.32 69.58-3.71 85.06z" fill="url(#linear-gradient-17)" fill-rule="evenodd"/><path d="M184.75 330.73c-18.26-9-44.44 11.17-35.9 38.55 2.82-14.46 11.67-30.47 35.9-38.55z" fill="#f58c7e" fill-rule="evenodd"/><path d="M182.57 328.37c64.15-20.26 110 74.24 36.57 103.52-70.26 28.04-107.81-81.01-36.57-103.52z" fill="url(#linear-gradient-18)" fill-rule="evenodd"/><path d="M434 498c3.81 5.26-3.36 8.9-6.58 9.07-5.14.64-12.47-1.86-14.29 1.41-2 3.68-26.11-3.9-25.85-4.13 9.88-6.78 19-8.42 20.56-8.32 15.4.97 10.9 4.26 26.16 1.97z" fill="url(#linear-gradient-19)" fill-rule="evenodd"/><path class="cls-41" d="M390.71 525.7c-22.08 5.95-52.24 26.51-73.25 31-6.63 1.43-17 4.2-22.22-1.17-27-27.83 10.54-18.68 13.71-29.2 19.22-13.63 49.3-7.2 73.91-19.83a47.31 47.31 0 014.79-2.69c9.66-4.59 15.05-4.21 31.81 3.82 4.88 2.34 7.39 2 11.65 1.91l16.89-2.03c5.17-.18 8.46 1 9.26 2.61.9 1.79-1 12-4 15.94-.65 1.87-4.47 3.3-10.47 3.37l-24.64 7.2L417 536c-14.69-7.91-20.95-10.55-26.29-10.3z"/><path d="M285.78 558c-19.9-17.7-48.14-43.42-58.24-63.74-6.56-13.21-7.79-50.3 13.39-55 7.07-4.26 17.85 23.4 25.07 34.55C279.15 494 288.87 506 304.26 524.6c16.36-10.11 38.92-11.11 60.16-16.13a21.9 21.9 0 019.77-.26 34.31 34.31 0 007.39-2.46c2.41.62 10.38 13.75 9 21.49-1.69.46-5.44 1.56-7.2 2.15-2.52.85-3.93 3.14-6.42 4.41-8.45 4.35-46.42 22.35-65.33 26.42-7.2 1.55-18.79 5.12-24.45-.72-.48-.5-.95-1-1.4-1.5z" fill="url(#linear-gradient-20)" fill-rule="evenodd"/><path class="cls-43" d="M285.78 558c-6.6-5.86-14.1-12.61-21.56-19.74 15.66-13.07 14.23-36.27 4.09-50.4-6.66-9.27-10.54-15.94-13.86-23.33a102.41 102.41 0 00-3.09-13.36 18.47 18.47 0 00-2.31-5.2c3.24 3.9 5.15 11.54 10.46 22.24 9.08 18.3 22.87 29 24 50.51.82 15.89 8.43 34.63 20.84 43.1-6.25 1.22-13.15 1.76-17.13-2.34-.52-.48-.99-.98-1.44-1.48z"/><path d="M147.75 579.25c12.26 27-8.59 42-1.08 60.65l-2.32 12.62c22.38 15.32 102.41 16.46 122.48-13.91l.41-15.15c3.46-7.25 1.19-25.58.17-30.41-3.22-15.38-1.71-23.53-3.48-41.32-.44-4.49-1.32-7.32-1.76-11.87 17.82-12.7 16.7-37.27 6.14-52-6.67-9.28-10.54-15.95-13.86-23.34a100.78 100.78 0 00-3.09-13.36 21.69 21.69 0 00-3.73-7.3c-5.09-6.93-13.31-7.76-30.11-4.08-33.29 7.28-67.57 23.76-82.87 39.29-11.13 11.3-10.69 23.84-4.3 50.94 4.1 17.45 11.17 35.5 17.4 49.24z" fill="url(#linear-gradient-21)" fill-rule="evenodd"/><path class="cls-43" d="M147.51 579.09c12.26 27-8.08 42.5-.57 61.13l-2.32 12.46C167 669.28 247 668.49 267.1 638.13l-.43-13.22c0-.53-39.29 33.23-84 14.46-9.72-4.08-18.51-24.35-5.93-63 1.19-3.69 15.45-3.94 35.64-18.12-14.91 6-43 14.28-44.4-21.87-.62-16.17-3.11-28.32-11.79-39.56-4.21-5.44-28.88 23.14-25.12 36.84a333.7 333.7 0 0016.44 45.43z"/><path d="M235.46 451.21c2.75 8.61 4.26 51-1 69.78-17.86-19.26-70-44.35-63.35-57.95 8.32-16.89 59.56-26.84 64.35-11.83z" fill="#ff7b7b" fill-rule="evenodd"/><path class="cls-41" d="M232.84 453.09c2.46 7.69 3.28 46-.19 62.61-13.72-15.62-64-39.45-57.93-52.87 6.94-15.28 53.83-23.14 58.12-9.74z"/><path class="cls-41" d="M186.9 417.27c2.57 14 1.22 27.21-3.33 40.77 12 10.59 33.34 6.09 38.3-3.51-1.05-6.2-2.26-11.91-3-18.28z"/><path d="M186.9 417.27A76.64 76.64 0 01188 437c3.52 13.57 30.14 22.72 32.91 11.94-.76-4.17-1.49-8.27-2-12.69z" fill="url(#linear-gradient-22)" fill-rule="evenodd"/><path class="cls-41" d="M236.47 358.14c6 9.06 9.17 18.15 7.79 31a12.74 12.74 0 001.12 7.42c5.59 12 5.09 15.77 2.32 25.42-2.7 9.38-2.52 14.29-5.87 17.51s-8.6 4.07-13 4.33c-8.95.54-24.33-5.09-33.27-9.75-6.62-3.46-6.37-5.82-9.17-11.81-9.35-7.76-3.29-13.42-.16-14 9-1.66 10.44 8.21 15.77 10.39-.86-17.3 33.81-46.58 34.47-60.51z"/><path d="M240.45 365.09c3.33 7 4.84 14.47 3.81 24.09a12.74 12.74 0 001.12 7.42c5.59 12 5.09 15.77 2.32 25.42-1.21 4.21-1.84 7.51-2.47 10.17a8.62 8.62 0 01-10.46 2.88c-3.74-1.58-7.41-5.8-8.34-12.83-.66-5-11.38-8.28-13.6-13.35C211 404.68 216 400 219 397.56c10.46-8.48 17-20 21.45-32.47z" fill="url(#linear-gradient-23)" fill-rule="evenodd"/><path d="M236.47 358.14c-5 21.3-34.21 37.42-34.45 60.55 7.98-24.04 36.28-40.49 34.45-60.55z" fill="#ff8f7f" fill-rule="evenodd"/><path d="M133.11 633.17c4 2.29 11.2 4.52 14.11 6.18 1.5.86 12.29 7.26 18.36 11.15 6.49 4.15 8.32 10.15 12.2 16.82 2.78 5.44 4 9.36 4.36 12.08s-7.07 8.22-10.25 7.55c-7.23-1.53-14.61-10-16.52-10.93-16.19-8-23.94-8.8-29.79-15.17-2.5-2.71-4-10.67-9.19-17.81l9.93-8.57z" fill="url(#linear-gradient-24)" fill-rule="evenodd"/><path d="M133.12 479c-26.22 10.45-48.65 59.38-72.46 88.56-4.66 5.75-4.82 11.44-2.33 15.71a43 43 0 004.68 8c11.32 15.87 20.56 29.37 44.75 49a14.79 14.79 0 006.22 2.78c1.52 1.2 3.64 3.36 5.27 4.61-2-2.47 10-14.83 15.48-14q-2.1-2.49-4.29-5.36c-.19-2.37-.31-3.1-1.63-4.92-10.09-13.94-19.89-32.51-32.39-45.56 21.2-16.33 33.9-27.5 51.36-47.78 24.55-28.49 5.33-59.04-14.66-51.04z" fill="url(#linear-gradient-25)" fill-rule="evenodd"/><path class="cls-11" d="M277 1393.86c75.82-41.74 198.45-41.74 273.78 0s75 109.5-.82 151.23-198.45 41.74-273.86 0-74.9-109.49.9-151.23z"/><path class="cls-11" d="M839.49 1416.64l-199.41-108.28c-21.74-9.47-52.85-17-75-6-20.18 10-53.42 30.51-68.12 38.5-11.17 6.07-49.92 28.21-25.78 40.72 71 36.82 141.28 78.22 213.39 115.61 13.64 7.08 33.59 9.63 54.53 8s42.24-7.44 59.06-16.76l35.36-19.63c15.64-8.68 23.94-19 24.76-28.44.8-9.36-5.45-17.92-18.79-23.72z"/><path class="cls-51" d="M564.92 1453.06l.29 14.26c.07 21.56-14.84 43.14-44.71 59.58-47.62 26.21-116.14 30.38-169.84 17-35.45-8.82-88.56-34.13-88.56-75.8l-.31-14.26z"/><path d="M306.52 1394.25c59.35-32.68 155.35-32.68 214.32 0s58.72 85.71-.64 118.39-155.35 32.67-214.38 0-58.66-85.72.7-118.39z" fill="url(#linear-gradient-26)" fill-rule="evenodd"/><path class="cls-51" d="M429.34 1102.49v340.39c0 2.65-1.82 5.3-5.49 7.32-5.85 3.22-14.26 3.74-20.86 2.09-4.35-1.08-10.88-4.19-10.88-9.31v-340.4z"/><path d="M607.69 1172.56c-18.28 44.81-28.33 108-39.43 157.28-1.7 5.81-4.8 13.14-13.09 17.22-12.92 6.36-27.42 5-30.93-4.19.31-46.1-2.67-80.12-1.15-105.41 1.69-28.32 12.85-71.47 24.22-88 8.42-38.16 79.86-23.54 60.38 23.1z" fill="url(#linear-gradient-27)" fill-rule="evenodd"/><path d="M609.55 1167.25c-.62 2-1.24 3.77-1.86 5.31l-.77 1.9-.16.41c-3.07 7.74-5.9 16-8.54 24.61l-.13.4-.62 2.06-.2.66-.44 1.47c-12 40.67-20.42 89-29.12 127.63-4.56-58 5.43-115.94 21.61-166.06a182 182 0 00-1-36.32c15.02 4.46 27 17.76 21.23 37.93z" style="mix-blend-mode:multiply" fill="#1e2353" opacity=".3" fill-rule="evenodd"/><path class="cls-10" d="M585.44 1372.82c-8.39 7.82-13.47 2.79-17 17-9.11 13.3-17.5 17.35-25.09 15.87-9.64-1.89-17.16-5.62-18.56-15.82-1.63-17.06-2-20.25 2.69-32.81l1.3-.81a3.73 3.73 0 013.85-1.11c8.39 1.91 11 6.85 14 9.62 6.54 6 12.84 1.18 15.63-5.71v-.08l.05-.19v-.06l.1-.34v-.12l.11-.46v-.06l.1-.43v-.26l.05-.23v-.23l.12-.67.11-.66v-.1c.06-.4.12-.81.17-1.22v-1.66l.06-.78v-2.1c0-.36-.1-.71-.17-1a18.06 18.06 0 01.4-6c0-.67.05-1.34.08-2 9.16-4.88 22.95-18.16 32.74-20.69 7-1.82 10.95 7.69 11.22 12.15 1.17 10.64-12.93 31.57-21.96 40.96z"/><path class="cls-55" d="M561.67 1337.24c-.42 9.68.37 20.3-7.1 26-6.52 4.92-17.79 6.81-24.64-3-2.88-4.15-2.57-11.3-3.61-20.12-.03 6.39 35.79 3.88 35.35-2.88z"/><path class="cls-56" d="M583.18 1368.71c-8.39 7.82-13.47 2.79-16.95 17-9.12 13.3-17.51 17.36-25.1 15.87-9.63-1.89-17.16-5.62-18.56-15.82-1.63-17.06-2-20.25 2.7-32.81l1.29-.81a3.73 3.73 0 013.85-1.11c8.39 1.91 11 6.85 14 9.62 6.54 5.95 12.83 1.18 15.62-5.71v-.08l.06-.19v-.06l.1-.34v-.12l.11-.46v-.06l.1-.43v-.26l.05-.23v-.23l.12-.67.11-.66v-.1c.06-.4.11-.81.16-1.22v-1.55l.07-.78v-2.1c0-.35-.1-.71-.17-1a18.06 18.06 0 01.4-6c0-.67 0-1.34.09-2 9.15-4.88 22.63-14.44 32.42-17 7-1.82 11.26 4 11.53 8.43 1.13 10.56-12.97 31.49-22 40.88z"/><path class="cls-10" d="M596.53 1321.7c2.47 2.65 8 .92 10.61 6.77.14-3.86-4-9.37-8.32-9.37-.82 0-3.51 1.55-2.29 2.6z"/><path d="M570.26 1320.8c-.67 3.06-1.33 6.08-2 9-1.7 5.81-4.8 13.14-13.09 17.22-12.92 6.36-27.42 5-30.93-4.19 0-4-.69-7.89-.7-11.7 7.16 8.48 31.58 13.54 46.72-10.33z" fill="url(#linear-gradient-28)" fill-rule="evenodd"/><path d="M427.77 1114.91c-40.64-10.79-118.29 30.47-191.66 105.32-66.24 67.6 186.83 138.7 237.1 120.35 47.79-17.46 169-75.25 158.79-99.64-19.91-47.59-130.7-106.49-204.23-126.03z" fill="#161d5c" fill-rule="evenodd"/><path d="M460.45 1121.58c-36.2 1.14-76.89-.11-109.2 11.21-30.17 10.58-25.38 52.1 2.07 76 24.07 20.94 64.81 27.08 124.88 3.57 18.67-7.31 36.52-14.06 64.48-17.12 26.91-3 44.41 2.28 59.21-21.89 10.48-17.13 7.22-37.37-17.6-45.06-36.38-11.29-86.58-7.88-123.84-6.71z" fill="url(#linear-gradient-29)" fill-rule="evenodd"/><path class="cls-55" d="M784.89 1327.54c10.08 17.26 15 24 17.57 27.65 5.86 8.21-6.51 21.67-14.79 26s-21.47 4.42-27.21-8c-2.23-4.8-3-11.27-5.37-17.32 4.17 6.46 22.57-12.57 29.8-28.33z"/><path class="cls-10" d="M772.44 1380.18c4.22-1 29.48 7.67 30.66-22.77 18.14 4.24 47.42-9.35 63.88-9.16 2.93 0 7.9-3.09 9.4-1.51 4.73 5 10 12.79 3.08 20.16-5.11 5.42-16.84 13.68-24.7 18.42-8.33 5-22.7 13.22-32.73 17-11.11 4.22-16.19 6.07-19.75 10.18-5.46 4.29-11.52 6.94-15.2 7.17-7.88.5-17.75-1.82-23.77-9.2-1.92-2.36-4.71-13.88-5-21.68-.24-6.16 1.54-13.61 2.74-20.47z"/><path class="cls-56" d="M807 1353.53c10 .56 35.39-6.77 52-9 7.15-1 13.43-2.4 18.16 3 4.36 4.94 3.92 10.07-1.82 16.16-5.11 5.43-14.31 12.34-22.16 17.08-8.34 5-22.7 13.22-32.74 17-11.11 4.22-16.19 6.06-19.75 10.17-5.46 4.3-11.52 6.95-15.2 7.18-7.88.49-18-2.69-24-10.06-1.93-2.36-4.51-13-4.8-20.83-.16-4.35-.78-10.81-.51-14.67.46-6.34 3.21-7.29 6.37-6.43 5.9 1.61 9 6.13 12 9.75a12.44 12.44 0 008.66 4.93c6.71.52 11.64-4 14.12-10a41.37 41.37 0 001.46-12.8c-.08-.41-.16-.81-.27-1.2-1.21-10.51 4.23-10.75 3.95-8.41-.21 2.11 1.19 6.65 4.53 8.13z"/><path class="cls-10" d="M872.3 1346.69c.82 4 6.44 0 8.29 10.07 3.56-4.78-2.15-11.17-6.2-12.31-.92-.26-2.94-.72-2.09 2.24z"/><path d="M670.13 1163.07c29 47.25 82.84 117.83 112.85 160.09 7.66 13.73-5.3 34.9-29.1 38-34-38.71-73.68-60.6-107.31-108.48-6.36-9.06-18.1-28.1-25.49-41.83-9.18 1.06-21.61 2.9-35.06 5-27.77 4.36-50.75 10.54-68.95 18.87-58.54 26.78-99.58 22.89-124.88 3.32-28.86-22.32-36.16-63.5-6.68-75.72 31.57-13.09 67.59-15.87 103.65-19 32.95-2.86 98.78-8.94 139-3.81 3.15.4 6.14.87 8.95 1.42 10.72 1.78 18 4.31 26 12.28a29.28 29.28 0 017.02 9.86z" fill="url(#linear-gradient-30)" fill-rule="evenodd"/><path d="M779.2 1314.87c1.72 2.73 8 11.47 9.63 14.09 4.48 11.4-11.56 31-35.5 32.7-1.81-2.32-8.47-9.09-10.34-11.32 21.62-5.82 35.28-17.34 36.21-35.47z" fill="url(#linear-gradient-31)" fill-rule="evenodd"/><path class="cls-41" d="M420.92 930.45c6.28-10.31 12.63-19 19.56-28.26 5.67-7.59 7.6-7.4 16.39-9.78 9.68-2.61 11.74-1.95 20.37.51 7.51 2.14 13.81 7.21 15.68 10.42 6 10.24-18.85 12.47-21 13.37-4 7.47-5.15 13.3-12.37 17.51-12 7-16.8 7.24-21.24 15.57z"/><path d="M447.43 916.86c7.7-8.58 8.16-10.56 18.21-18.44l1.2-.42 8.59.46c4.25 4.23 11.73 8.45 16.61 3.68.21.28.41.56.61.85 3.53 5.37 0 12.34-3.3 12.81-7.89 1.14-14.06-.51-17.42.91-4 7.47-5.15 13.3-12.37 17.51-12 7-16.8 7.24-21.24 15.57l-11-12.24z" fill="#ff9281" fill-rule="evenodd"/><path d="M372.37 1033.5c7.77-10.45 49.49-52.41 59.77-69.62 1.51-2.54 2.25-8.59 2.2-9.66l5.6-6.9c-1.06-8.26-10.51-17.78-18.95-18.86l-6.06 4.71c-4.11-.21-10.67 1.14-14.21 3.11-28.08 15.67-78.59 60-78.34 91.9.17 22.08 39.18 14.64 49.99 5.32z" fill="url(#linear-gradient-32)" fill-rule="evenodd"/><path fill="url(#linear-gradient-33)" fill-rule="evenodd" d="M493.11 858.97l-73.25 111.29 118.95 27.96 73.25-111.3-118.95-27.95z"/><path class="cls-41" d="M435.31 937.7c16.7 1.54 14-7.62 19.94-18.17 2.95-1.31 5.19-3.69 8-6 11.43-1.84 12.88-6.85 11.43-12.08-3.85.06-11.46.07-14.74.43-15.73 6.39-27.42 6.87-34.23 23.4-2.48 5.96 4.65 4.98 9.6 12.42z"/><path class="cls-10" d="M517.42 986.82a3 3 0 002.06 3.79 3.2 3.2 0 004-2c2.32-6.92 5.61-21.86 5.54-33.95-.06-8.78-2-16.3-7.31-19.15-8.93-4.75-14.71-1.2-20.54 2.39-1 .63-2.08 1.27-2.94 1.74a14.72 14.72 0 01-6 2.06 5.14 5.14 0 01-4.17-1.59 12.47 12.47 0 01-2.7-5.67 34.12 34.12 0 010-14.16c.49-2.33 1.07-4.66 1.65-7 3.18-12.73 6.22-24.92-5.75-29.69a3.24 3.24 0 00-4.14 1.64 3 3 0 001.71 4c7 2.78 4.56 12.53 2 22.7-.6 2.41-1.21 4.85-1.7 7.19a40.25 40.25 0 000 16.68 18.1 18.1 0 004.19 8.39 11.31 11.31 0 009.22 3.55 21 21 0 008.83-2.84c1.21-.67 2.21-1.28 3.21-1.9 4.22-2.61 8.4-5.19 14-2.2 3 1.59 4 7.17 4.09 13.94.07 11.39-3.05 25.52-5.25 32.08z"/><path d="M329.22 1142.46l2.32 9.56c19.2 29.39 91.49 48.93 142.82 6.59a69.09 69.09 0 01-2.27-12.16c1.18-3.34 1.07-8.62.28-16.25-2-18.78-9.26-51.63-9.34-53.2-2.28-41.44 7.23-82.59-12-112.07-4.13-6.33-9.67-8.76-16.05-12-13.85-7.07-76.21-25.38-108.58-29.84-19.46-2.68-40.83.85-47.8 22.25-9.51 29.23 10.3 72.51 26.59 113.4 21.28 53.46 11.47 61.64 24.03 83.72z" fill="url(#linear-gradient-34)" fill-rule="evenodd"/><path d="M472.67 1133.44c-.08-1-.19-2.11-.3-3.24-2-18.78-9.26-51.63-9.34-53.2-2.28-41.44 8.55-83.41-12-112.07-12.05-16.79-38.18-13.87-47.48 6.86-7 15.71-.65 38.19 7.9 75.34 6.05 26.33 16.93 87.91 33.3 94.38 5.53 2.2 15.01-.66 27.92-8.07z" style="mix-blend-mode:multiply" fill="#3469c0" opacity=".35" fill-rule="evenodd"/><path d="M377.94 896.11c1.18 10 4.48 24.12 8.37 33.78-21.4 3.15-52 3.14-58.21-11.39l-1.27-28.57c17.07-19.46 50.22 6.39 51.11 6.18z" fill="url(#linear-gradient-35)" fill-rule="evenodd"/><path d="M327.73 918c-5.93 3-10.59 10.2-8.66 14 11.08 23.3 59.58 21.94 87.61 10.83-3.85-6.12-14.23-13.93-20.16-14.66-18.03 4.97-50.28 3.24-58.79-10.17z" fill="#4a9ff8" fill-rule="evenodd"/><path class="cls-41" d="M375.07 915.39C368.68 914 365 906.56 362.71 894c-2-10.67-33.48 2.82-33 2.11-2.86-9.7-12.74-17-15-30.53-3.13-18.86 1.74-38.77 21.36-50 35.93-20.44 74.93 2.27 80.43 39.5 1.08 7.27-5.25 10.33-5.88 16.35-.12 1.18 1.34 2.61 2.3 5.37 1.32 3.83-2.53 27.79-9.72 37.12-3 3.88-23.32 3.31-28.13 1.47z"/><path d="M403.2 913.92c-1.23 1.67-10.44-.22-13.84-1.7 14.39-17.28-2.27-31.23 12.49-47.68 8.87-9.88-.28-20.87 9.59-26.08a57.73 57.73 0 015.06 16.62c1.08 7.27-5.25 10.33-5.88 16.35-.12 1.18 1.34 2.61 2.3 5.37 1.32 3.83-2.78 27.61-9.72 37.12z" fill="url(#linear-gradient-36)" fill-rule="evenodd"/><path d="M382.93 891.23c2.38-4.37 1.14-6.23-1-6-2.41.25-6.16 3-8.54 7.56-3.84 7.32-1.22 17.52 7.09 14.72-6.74-.48-5.05-8.08-2.38-12.57 1.77-3.05 4.19-5.06 4.83-3.71z" fill="#ffb49c" fill-rule="evenodd"/><path d="M379.57 892.92c1.4 3.55 1.78 5.61 1 6.67-.53.74-1.95 1.48-3.79-.73a11.31 11.31 0 012.79-5.94z" fill="#ff9d8e" fill-rule="evenodd"/><path d="M325.32 897.51c-2.2-10.84-11.38-20.9-13.42-33.2-2-12.13-1.94-28.85 11-38.3 8.27-30.41 50.42-33.17 77.76-23.14 19.57 7.18 18.23 31.22 2.71 38.72 1.93 10.88-4.36 19.94-6.38 22-6.16 6.39-6.57 7.42-7.72 14.3-.91 5.42-3 18.62-7.28 6.89-2.79-7.58-12.87-.58-15.25 7a34.28 34.28 0 01-7 13.21c-10.61 12.65-33.19-1.45-34.42-7.48z" fill="#562e65" fill-rule="evenodd"/><path d="M338.54 819.38c10.44-28 52.48-20.11 65.91-12.46 13.59 7.75 10.22 35.06-10.34 32.61-14.02-1.68-29.24-23.99-55.57-20.15z" fill="url(#linear-gradient-37)" fill-rule="evenodd"/><path d="M550.6 970.23l12.67-1.43 11.2-8.88.6-16.38-9.13-5.24c-9.59 1.1-15.2-1.44-17.21.31-2.23 1.94-1.12 12.46 1.87 31.62z" fill="#ff9584" fill-rule="evenodd"/><path class="cls-41" d="M523.24 998.88a43.3 43.3 0 005.57-7.66c-.44-9.84 2.34-16 6.85-21.9 7.38-9.58 8.42-10.84 10-18a46.28 46.28 0 011.6-6.59c1.61-3.7 6.06-2.66 7.59 1.12 1.2 3 .94 7 .38 9.56l-2 5 13.48-14.62c2.17-3.2-23.81.12-18-7.43 3.3-1.74 7.89-2 13.33-2.46a74.2 74.2 0 0111.77.11c5.38.43 7.48 21.49 7.56 27 0 2.29 0 6.22-1.32 8.78-3.18 6.39-7.37 12.48-11.92 16.35-8.75 7.45-16.59 6.52-23.3 20.56z"/><path class="cls-34" d="M591.25 928.13c-23.89 9.2-56.69 20.84-68.41 30.67 12.84-.12 47-14.74 70.94-24.23 5.93-2.35 3.04-8.57-2.53-6.44z"/><path class="cls-41" d="M535.66 969.32c7.38-9.58 8.42-10.84 10-18a46.28 46.28 0 011.6-6.59c1.61-3.7 6.06-2.66 7.59 1.12 1.2 3 .94 7 .38 9.56l-2.4 8z"/><path d="M477.28 1039.05c12.62-16 26.87-33.56 35.41-40.78 2.3-1.93 8.35-3.87 9.46-4l5.94-6.65c8.68-.71 20.41 6.14 23.25 13.8l-3.59 6.62c1.07 3.79 1 10.19-.26 13.9-10.16 29-44.48 84.16-76.87 91.73a27.44 27.44 0 01-12.53 0c-6-1.22-8.58-8.76-11-13.57-19.28-38.14-28.67-51.82-41.12-90.19-8.21-25.3-5.46-39.72 3.93-48.39 11.76-10.86 29.33-10.92 38.77.68 14.2 17.41 23.02 50.51 28.61 76.85z" fill="url(#linear-gradient-38)" fill-rule="evenodd"/><path d="M606.83 1285l-90.12 56.8c-53.29 31.66-127.73 33-182.49 3.53l-101.68-55c-37-20-46.46-50.72-42.32-92.58 3.11-31.53 30.19-113 46.58-145.31 41.55-81.79 174.17 2.46 196.35 60.12 13.75 35.72 30.42 58.85 53.46 81.34 57.68 56.31 72.12 6.35 112.48-7.19 37.58-12.62 39.89 28 38.1 59.28-1.05 18.49-11.34 27.19-30.36 39.01z" fill="url(#linear-gradient-39)" fill-rule="evenodd"/><path d="M606.83 1285l-90.12 56.8c-53.29 31.66-127.73 33-182.49 3.53l-101.68-55c-37-20-46.46-50.72-42.32-92.58.7-7.09 2.61-16.71 5.34-27.73 9.17 11 140.28 120.72 239.27 127.87 61.71 4.46 124.73-14.08 202.36-51.9-1.04 18.49-11.34 27.19-30.36 39.01z" style="mix-blend-mode:multiply" fill="url(#linear-gradient-40)" opacity=".5" fill-rule="evenodd"/></g></g></g></svg>