<svg xmlns="http://www.w3.org/2000/svg" xmlns:xlink="http://www.w3.org/1999/xlink" width="1226.492" height="974.682"><defs><linearGradient id="l" x1=".095" y1="-.018" x2="1.174" y2="2.023" gradientUnits="objectBoundingBox"><stop offset="0" stop-color="#e7f3fe"/><stop offset=".441" stop-color="#eff7fe"/><stop offset="1" stop-color="#fff"/></linearGradient><linearGradient id="a" x1=".376" y1=".61" x2=".826" y2=".213" gradientUnits="objectBoundingBox"><stop offset="0" stop-color="#fa5db1"/><stop offset="1" stop-color="#febfbf"/></linearGradient><linearGradient id="m" x1=".089" y1=".787" x2=".959" y2=".266" xlink:href="#a"/><linearGradient id="n" x1=".626" y1=".118" x2=".357" y2=".931" xlink:href="#a"/><linearGradient id="o" x1=".362" y1=".304" x2=".772" y2=".857" gradientUnits="objectBoundingBox"><stop offset="0" stop-color="#d1e8ff"/><stop offset="1" stop-color="#eaefff"/></linearGradient><linearGradient id="i" x1=".751" y1=".574" x2="-.129" y2=".313" gradientUnits="objectBoundingBox"><stop offset="0" stop-color="#6d6afe"/><stop offset="1" stop-color="#3fb0f7"/></linearGradient><linearGradient id="b" x1=".662" y1=".089" x2=".488" y2=".799" gradientUnits="objectBoundingBox"><stop offset="0" stop-color="#d870ac"/><stop offset="1" stop-color="#58469c"/></linearGradient><linearGradient id="j" x1=".599" y1=".729" x2=".358" y2=".192" gradientUnits="objectBoundingBox"><stop offset="0" stop-color="#a77ef7"/><stop offset="1" stop-color="#5e65d6"/></linearGradient><linearGradient id="p" x1=".604" y1=".089" x2=".429" y2=".8" xlink:href="#b"/><linearGradient id="g" x1=".369" y1=".13" x2=".605" y2=".814" gradientUnits="objectBoundingBox"><stop offset="0" stop-color="#965cf2"/><stop offset="1" stop-color="#ff8adc"/></linearGradient><linearGradient id="d" x1=".749" y1=".38" x2=".22" y2=".54" gradientUnits="objectBoundingBox"><stop offset="0" stop-color="#ff8a78"/><stop offset="1" stop-color="#ffa799"/></linearGradient><linearGradient id="f" x1=".458" y1=".511" x2=".942" y2=".441" gradientUnits="objectBoundingBox"><stop offset="0" stop-color="#ffb89e"/><stop offset="1" stop-color="#ffa799"/></linearGradient><linearGradient id="q" x1=".154" y1=".366" x2=".768" y2=".514" gradientUnits="objectBoundingBox"><stop offset="0" stop-color="#3e4795"/><stop offset="1" stop-color="#273088"/></linearGradient><linearGradient id="c" x1=".473" y1=".317" x2=".708" y2=".856" gradientUnits="objectBoundingBox"><stop offset="0" stop-color="#5a2d68"/><stop offset="1" stop-color="#22043d"/></linearGradient><linearGradient id="r" x1=".441" y1=".355" x2=".64" y2=".813" xlink:href="#c"/><linearGradient id="s" x1=".466" y1=".886" x2=".512" y2=".32" xlink:href="#d"/><linearGradient id="e" x1=".88" y1=".699" x2=".46" y2=".364" gradientUnits="objectBoundingBox"><stop offset="0" stop-color="#fa79b6"/><stop offset="1" stop-color="#ffbfbf"/></linearGradient><linearGradient id="t" x1=".78" y1=".69" x2="-.182" y2=".176" xlink:href="#e"/><linearGradient id="u" x1=".522" y1=".533" x2=".594" y2=".852" xlink:href="#d"/><linearGradient id="v" x1=".088" y1=".373" x2=".591" y2=".782" xlink:href="#f"/><linearGradient id="w" x1=".446" y1=".444" x2=".505" y2=".539" xlink:href="#f"/><linearGradient id="x" x1=".663" y1=".578" x2="-1.818" y2=".038" xlink:href="#e"/><linearGradient id="y" x1=".674" y1=".778" x2=".261" y2=".12" xlink:href="#g"/><linearGradient id="h" x1=".177" y1=".249" x2="1.047" y2=".764" gradientUnits="objectBoundingBox"><stop offset="0" stop-color="#235da3"/><stop offset="1" stop-color="#123a76"/></linearGradient><linearGradient id="z" x1=".45" y1=".319" x2=".88" y2=".954" xlink:href="#h"/><linearGradient id="A" x1=".097" y1=".109" x2=".896" y2=".648" xlink:href="#h"/><linearGradient id="B" x1=".501" y1=".263" x2=".499" y2=".909" xlink:href="#h"/><linearGradient id="C" x1=".445" y1=".376" x2=".618" y2="1.058" xlink:href="#h"/><linearGradient id="D" x1=".54" y1=".444" x2=".317" y2=".905" xlink:href="#i"/><linearGradient id="E" x1=".632" y1=".828" x2=".35" y2=".127" xlink:href="#j"/><linearGradient id="F" x1=".622" y1=".136" x2=".227" y2=".876" xlink:href="#i"/><linearGradient id="G" x1=".437" y1=".285" x2=".551" y2=".78" xlink:href="#d"/><linearGradient id="H" x1=".129" y1=".454" x2="1.148" y2=".657" xlink:href="#f"/><linearGradient id="I" x1="-.163" y1=".539" x2=".667" y2=".478" gradientUnits="objectBoundingBox"><stop offset="0" stop-color="#8a4791"/><stop offset="1" stop-color="#562e65"/></linearGradient><linearGradient id="J" x1=".605" y1=".116" x2=".282" y2=".738" xlink:href="#i"/><linearGradient id="K" x1=".587" y1=".796" x2=".386" y2=".204" xlink:href="#g"/><linearGradient id="L" x1=".568" y1="1.064" x2=".518" y2=".483" xlink:href="#g"/><linearGradient id="M" x1=".589" y1=".658" x2=".311" y2=".191" xlink:href="#g"/><linearGradient id="N" x1=".1" y1="-.178" x2=".755" y2=".933" xlink:href="#g"/><linearGradient id="k" x1=".538" y1="-.263" x2=".483" y2=".984" gradientUnits="objectBoundingBox"><stop offset="0" stop-color="#94e69a"/><stop offset="1" stop-color="#17adc9"/></linearGradient><linearGradient id="O" x1=".546" y1="-.267" x2=".492" y2=".986" xlink:href="#k"/><linearGradient id="P" x1=".579" y1="-.267" x2=".432" y2="1.781" xlink:href="#k"/><linearGradient id="Q" x1=".351" y1=".655" x2=".813" y2=".174" xlink:href="#g"/><linearGradient id="R" x1=".706" y1=".197" x2=".374" y2=".686" gradientUnits="objectBoundingBox"><stop offset="0" stop-color="#fd90da"/><stop offset="1" stop-color="#8e6dfd"/></linearGradient><linearGradient id="S" x1=".232" y1="-.119" x2=".537" y2=".687" gradientUnits="objectBoundingBox"><stop offset="0" stop-color="#fd70cb"/><stop offset="1" stop-color="#6e4dfd"/></linearGradient><linearGradient id="T" x1=".41" y1=".623" x2=".577" y2=".131" xlink:href="#i"/><linearGradient id="U" x1=".456" y1=".788" x2=".627" y2="-.023" xlink:href="#g"/><linearGradient id="V" x1=".506" y1=".622" x2=".472" y2=".237" xlink:href="#i"/><linearGradient id="W" x1=".609" y1=".875" x2=".361" y2=".023" xlink:href="#i"/><linearGradient id="X" x1=".584" y1=".617" x2=".365" y2=".249" xlink:href="#g"/><linearGradient id="Y" x1=".454" y1=".664" x2=".627" y2=".049" gradientUnits="objectBoundingBox"><stop offset="0" stop-color="#1c8ef4"/><stop offset=".995" stop-color="#00cfdd"/></linearGradient></defs><g data-name="Group 1539"><g data-name="Group 1538"><g data-name="Group 1476"><g data-name="Group 1475"><g data-name="Group 1472"><g data-name="Group 1412"><g data-name="Group 1195"><g data-name="Group 498"><path data-name="Path 1" d="M222.943 258.531c184.723-72.931 372.471-8.454 499.8 131.98s394.562-96.929 536.286 43.276c96.72 95.683 52.418 341.686-80.2 448.236C998.57 1026.85 327.017 1031.2 215.593 981.5c-190.4-84.924-1.216-242.188-90.094-392.944C20.643 410.7 141.311 290.76 222.943 258.531z" transform="translate(-84.653 -111.544)" fill="url(#l)"/></g></g><g data-name="Group 1411"><g data-name="Group 1409"><g data-name="Group 1330"><g data-name="Group 1302"><g data-name="Group 1279" fill-rule="evenodd"><g data-name="Group 1277"><g data-name="Group 1275"><path data-name="Path 7116" d="M4114.724 690.358l84.368-49.03-19.592-92.965v-.112l-.006-.021v-.029l-.007-.031-.007-.029v-.032l-.007-.03-.009-.034v-.011l-.006-.023-.008-.025v-.009l-.011-.035v-.005l-.01-.03-.007-.021v-.016l-.013-.036-.012-.037-.005-.015-.008-.022-.01-.031v-.006l-.014-.038v-.01l-.011-.029-.01-.026-.006-.013-.015-.039-.015-.035-.008-.019-.009-.02-.016-.036-.018-.04-.006-.013-.013-.026-.014-.03v-.009l-.02-.04v-.006l-.016-.033-.013-.023-.007-.017-.021-.04-.021-.039-.009-.017-.013-.022-.019-.033v-.006l-.023-.039v-.01l-.018-.029-.016-.026-.007-.012-.025-.038-.024-.035-.012-.018-.012-.018-.025-.034-.027-.037-.009-.011-.018-.023-.028-.035-.028-.035-.024-.029-.017-.02-.012-.013-.03-.033-.031-.031-.013-.014-.018-.018-.026-.026v-.005l-.033-.029-.007-.008-.026-.021-.022-.019-.011-.008-.034-.027-.032-.023-.018-.013-.018-.013-.033-.023-.035-.023-.013-.008-.025-.014a1.39 1.39 0 00-1.259-.059l-84.359 49.029c2.678-1.547 13.898 67.729 22.012 95.142z" transform="translate(-3931.873 -405.89)" fill="url(#a)"/><path data-name="Path 7117" d="M247.631 142.473c-35.433 40.607-77.7 65.685-73.565 100.925l8.785 41.069 84.368-49.03z" fill="#e23b93"/></g><g data-name="Group 1276"><path data-name="Path 7118" d="M184.02 180.74l1.906 94.285 88.485-51.08-.263-93.47z" fill="#f2f4ff"/><path data-name="Path 7119" d="M185.665 181.562l-1.849-1.076.263 93.473 1.848 1.068z" fill="#c5dbf1"/><path data-name="Path 7120" d="M274.15 130.476l-1.856-1.076-88.477 51.086 1.849 1.076z" fill="#dce8f8"/><path data-name="Path 7121" d="M189.036 254.801l.02 5.9 81.9-47.287-.019-5.893-81.9 47.283zm-.183-67.771l.009 5.894 81.9-47.283-.018-5.893-81.887 47.282zm.025 9.678l81.89-47.283.018 5.893-81.889 47.282-.02-5.892zm.026 9.684l81.9-47.281.009 5.893-81.89 47.281-.019-5.893zm.026 9.684l81.9-47.282.018 5.892-81.9 47.284-.019-5.894zm.026 9.679l81.9-47.283.018 5.893-81.9 47.283-.018-5.893zm.027 9.684l81.9-47.283.018 5.893-81.9 47.283-.017-5.893zm.026 9.685l81.9-47.283.018 5.892-81.9 47.282z" fill="#c5dbf1"/></g><path data-name="Path 7122" d="M4071.729 629.9l-20.113 70.726a8.5 8.5 0 01-1.238 2.251l84.361-49.023a3.357 3.357 0 001.243-2.25l20.112-70.731-.018.011 3.771-13.259a3.435 3.435 0 00-.727-2.4c-3.5 3.192-22.21 14.64-25.659 16.67-5.778 4.526-5.976 10.117-14.727 19.4a15.128 15.128 0 01-4.329 3.468z" transform="translate(-3866.052 -412.998)" fill="url(#m)"/><path data-name="Path 7123" d="M204.636 214.178a2.4 2.4 0 00-.413-.3c-.659-.378-1.251-.216-1.449.436l-19.922 70.152-19.583-92.965a3.315 3.315 0 00-1.431-2.1 1.865 1.865 0 00-.406-.174c-.808-.215-1.282.474-1.055 1.515l19.7 93.588a14.038 14.038 0 001.2 3.662 4.222 4.222 0 001.586 1.789 1.372 1.372 0 001.563.037 4.2 4.2 0 001.142-2.185l20.117-70.737a3.1 3.1 0 00-1.049-2.718z" fill="#e23b93"/><path data-name="Path 7124" d="M245.718 189.043l-42.554 24.729c1.106-.542 2.8 1.946 2.514 3.13l42.978-24.975a26.348 26.348 0 003.582-2.317c6.109-4.825 8.993-11.436 12.983-16.784a17.1 17.1 0 013.422-3.465c1.061-.578 1.622-.885 1.434-.793l23.719-13.961a3.448 3.448 0 00-.732-2.379c-.449-.477-1.15-1.066-1.788-.731l-23.76 13.986c.188-.093-.374.215-1.435.793a17.12 17.12 0 00-3.422 3.463c-4.223 5.659-7.245 12.021-14.1 17.418a22.405 22.405 0 01-2.841 1.886z" fill="#fb84b6"/></g><g data-name="Group 1278"><path data-name="Path 7125" d="M3809.316 397.327c-22.566-13.045-42.246-43.813-43.973-68.746-1.727-24.918 15.157-34.563 37.723-21.517 22.551 13.038 42.247 43.828 43.971 68.747s-15.169 34.554-37.721 21.516z" transform="translate(-3418.769 -301.248)" fill="url(#n)"/><path data-name="Path 7126" d="M401.6 33.176l5.984 2.993-26.569 40.443-23.455-34.781 7.723 3.019 12.387 11.759z" fill="#fff"/></g></g><g data-name="Group 1301"><g data-name="Group 1291"><path data-name="Path 7127" d="M326.342 808.715l241.222-147.646c8.954-4.383 22.108-8.519 30.889-2.786l22.466 14.669c4.52 2.951 19.383 12.744 9.442 18.537-29.246 17.042-216.11 134.046-245.806 151.358-5.617 3.274-13.834 4.457-22.458 3.689-8.586-.765-17.5-3.254-24.323-7.762l-8.975-5.932c-6.344-4.193-9.857-8.772-10.2-13.167-.326-4.293 2.248-8.272 7.743-10.96z" fill="#9e9bf5" fill-rule="evenodd" opacity=".16" style="mix-blend-mode:multiply;isolation:isolate"/><g data-name="Group 1290"><g data-name="Group 1282" fill-rule="evenodd"><g data-name="Group 1280"><path data-name="Path 7128" d="M3543.566 1144.745c.036 12.569 4.519 21.417 11.682 25.58l11.369 6.836c39-16.644 24.528-214.294 26.906-270.485l-11.977-294.888c10.069-17.595 48.808-32.949 39.767-68.883l114.311-53.51c5.074-3.451 138.473-80.7 114.526-95.191-4-2.422-7.967-4.862-11.923-7.161-8.84-5.23-20.108-2-28.384 2.776l-227.46 130.466c-22.326 12.863-39.837 43.989-39.769 68.879z" transform="translate(-3239.459 -341.024)" fill="url(#o)"/><path data-name="Path 7129" d="M622.317 78.745c-.034-12.322-4.3-21.072-11.217-25.334-7.284-4.491-17.5-4.005-28.809 2.524l-227.46 130.461c-22.013 12.713-39.837 43.583-39.767 68.883l.948 555.58c.072 25.3 18.014 35.524 40.03 22.811l227.457-130.464c22.04-12.725 39.839-43.584 39.768-68.88z" fill="#fff"/><path data-name="Path 7130" d="M3834.457 423.958c-.034-12.322-4.3-21.072-11.217-25.334-7.284-4.491-17.5-4.005-28.809 2.524l-227.46 130.461c-22.013 12.713-39.837 43.583-39.767 68.883l.948 555.58c.072 25.3 18.014 35.524 40.03 22.811l227.457-130.464c22.04-12.725 39.839-43.584 39.768-68.88z" transform="translate(-3212.14 -345.213)" fill="url(#i)"/></g><g data-name="Group 1281" fill="#485af4"><path data-name="Path 7131" d="M346.824 232.743c-5.961 3.441-10.808.677-10.826-6.171s4.8-15.191 10.757-18.634 10.808-.679 10.827 6.171-4.797 15.19-10.758 18.634z"/><path data-name="Path 7132" d="M519.527 121.405c0-1.866-1.325-2.6-2.951-1.633-23.637 13.355-62.373 35.158-86.009 48.513a6.6 6.6 0 00-2.934 5.13v3.692c.006 1.866 1.329 2.6 2.951 1.633 23.637-13.355 62.374-35.158 86.009-48.514a6.594 6.594 0 002.934-5.128z"/></g></g></g></g><g data-name="Group 1296" fill-rule="evenodd"><path data-name="Path 7155" d="M3969.493 734.867l-8.62-4.913-62.716 171.992.322 73.355 9.913 3.752q26.134-15.241 52.292-30.29c4.747-2.74 8.579-9.385 8.563-14.833z" transform="translate(-3607.747 -368.27)" opacity=".5" fill="url(#b)" style="mix-blend-mode:multiply;isolation:isolate"/><g data-name="Group 1295"><path data-name="Path 7156" d="M360.678 362.547l-3.946-2.086a6.27 6.27 0 00-5.03.89c-47.213 27.079-94.328 55.111-141.545 82.192-4.45 2.571-8.055 8.812-8.04 13.927l-.232 186.9c.006 2.323.761 4.019 2 4.935 1.485 1.1 4.549 3.481 6.977 2.079 47.215-27.081 93.456-57.519 140.663-84.6 4.456-2.573 8.055-8.812 8.041-13.927z" fill="#f2f4ff"/><path data-name="Path 7157" d="M363.074 367.747c-.015-5.115-3.638-7.186-8.094-4.612-47.212 27.079-94.327 55.111-141.544 82.192-4.45 2.571-8.054 8.811-8.039 13.927l-.232 186.9c.015 5.115 3.644 7.181 8.094 4.611 47.214-27.081 94.337-55.116 141.544-82.191 4.457-2.573 8.056-8.812 8.041-13.928z" fill="#fff"/><path data-name="Path 7158" d="M4053.439 736.336c-.014-5.116-3.637-7.186-8.093-4.612-47.213 27.079-94.328 55.111-141.545 82.193-4.449 2.571-8.053 8.811-8.039 13.927l-.168 146.864 157.677-90.438z" transform="translate(-3690.363 -368.589)" fill="url(#j)"/><g data-name="Group 1292" fill="#a67ef6"><path data-name="Path 7159" d="M351.365 535.428c-.006-2.209-1.57-3.077-3.495-1.933l-43.484 24.57a7.819 7.819 0 00-3.473 6.073v4.371c.008 2.209 1.573 3.076 3.5 1.933l43.484-24.57a7.812 7.812 0 003.473-6.073z" opacity=".25"/><path data-name="Path 7160" d="M351.365 554.597c0-1.946-1.383-2.711-3.078-1.7-24.654 13.93-65.057 36.671-89.71 50.6a6.889 6.889 0 00-3.06 5.351v3.85c.005 1.946 1.385 2.709 3.079 1.7 24.653-13.931 65.056-36.671 89.71-50.6a6.877 6.877 0 003.06-5.35z" opacity=".25"/></g><g data-name="Group 1293" fill="#fff"><path data-name="Path 7161" d="M227.744 453.3c-6.287 1.663-11.911 9.1-12.562 16.619s3.917 12.26 10.2 10.6 11.911-9.1 12.562-16.618-3.918-12.264-10.2-10.601z" opacity=".5"/><path data-name="Path 7162" d="M227.157 460.01c-3.187.843-6.037 4.614-6.367 8.423s1.986 6.214 5.171 5.37 6.038-4.613 6.367-8.422-1.985-6.213-5.171-5.371z"/></g><path data-name="Path 7163" d="M346.455 490.662c2.568-7.9 9.085-23.751 9.8-32.017.73-8.419-4.387-13.733-11.43-11.871s-13.341 10.2-14.07 18.614c-.78 9 9.96 18.288 15.7 25.274zm-1.522-38.093c4.241-1.122 7.322 2.079 6.883 7.146s-4.232 10.086-8.472 11.208-7.321-2.078-6.882-7.146 4.232-10.087 8.471-11.208z" fill="#fff"/><path data-name="Path 7164" d="M347.727 500.159a1.325 1.325 0 01-2.15 1.55 275.498 275.498 0 00-3.132-4.238 1.325 1.325 0 012.113-1.6q1.607 2.131 3.169 4.288zm-119.1-24.626a1.326 1.326 0 012.632-.32 42.713 42.713 0 00.893 5.074 1.326 1.326 0 01-2.581.609 46.457 46.457 0 01-.944-5.363zm3.5 13.132a1.325 1.325 0 012.429-1.061 34.35 34.35 0 002.356 4.529 1.326 1.326 0 01-2.25 1.4 37.584 37.584 0 01-2.535-4.871zm7.781 11.3a1.326 1.326 0 011.773-1.971 19.651 19.651 0 004.042 2.868 1.326 1.326 0 01-1.228 2.35 22.3 22.3 0 01-4.587-3.248zm12.846 5.329a1.325 1.325 0 01-.024-2.649 15.882 15.882 0 004.818-.754 1.326 1.326 0 01.822 2.521 18.658 18.658 0 01-5.616.882zm13.016-4.72a1.326 1.326 0 01-1.565-2.14 35.433 35.433 0 003.893-3.3 1.326 1.326 0 011.858 1.891 39.032 39.032 0 01-4.186 3.552zm9.56-9.666a1.326 1.326 0 01-2.115-1.6 78.952 78.952 0 003.009-4.25 1.326 1.326 0 012.222 1.446 75.44 75.44 0 01-3.115 4.4zm7.243-11.261a1.326 1.326 0 01-2.278-1.356 37.049 37.049 0 013.065-4.535 1.325 1.325 0 012.078 1.646c-.976 1.463-1.941 2.682-2.865 4.245zm8.244-9.54a1.326 1.326 0 01-1.529-2.166 22.126 22.126 0 014.953-2.681 1.326 1.326 0 01.919 2.487 19.055 19.055 0 00-4.343 2.359zm11.621-3.468a1.326 1.326 0 01.136-2.648 25.479 25.479 0 015.51.936 1.326 1.326 0 01-.727 2.549 22.761 22.761 0 00-4.92-.838zm11.955 3.8a1.325 1.325 0 011.284-2.319 51.408 51.408 0 014.61 2.888 1.326 1.326 0 01-1.525 2.17 45.819 45.819 0 00-4.37-2.739zm10.49 7.578a1.325 1.325 0 011.754-1.987c1.357 1.193 2.632 2.42 3.933 3.67a1.326 1.326 0 01-1.869 1.882 81.909 81.909 0 00-3.818-3.565zm9.229 9.274a1.326 1.326 0 011.986-1.757 169.824 169.824 0 013.482 4.055 1.326 1.326 0 01-2.041 1.692 153.519 153.519 0 00-3.423-3.988z" fill="#fff"/><g data-name="Group 1294" fill="#fff"><path data-name="Path 7165" d="M348.712 495.135c-3.073.812-5.823 4.449-6.14 8.124s1.915 5.992 4.988 5.179 5.822-4.45 6.14-8.123-1.915-5.995-4.988-5.18z" opacity=".5"/><path data-name="Path 7166" d="M348.428 498.412a4.833 4.833 0 00-3.113 4.117c-.162 1.862.97 3.037 2.528 2.625a4.829 4.829 0 003.112-4.117c.162-1.857-.97-3.032-2.527-2.625z"/></g></g></g><g data-name="Group 1300" fill-rule="evenodd"><path data-name="Path 7167" d="M3589.22 444.241q-25.714 14.982-51.45 29.779c-5.247 3.031-9.5 10.39-9.479 16.421l-.273 220.364c.017 6.03 4.295 8.467 9.543 5.436l68.465-39.7.1-54.471z" transform="translate(-2983.374 -363.197)" opacity=".5" fill="url(#p)" style="mix-blend-mode:multiply;isolation:isolate"/><g data-name="Group 1299"><path data-name="Path 7168" d="M729.645 14.869l-4.368-2.309a6.942 6.942 0 00-5.568.986c-52.265 29.977-104.422 61.007-156.69 90.988-4.926 2.846-8.916 9.754-8.9 15.416l-.256 206.9c.007 2.573.841 4.449 2.212 5.463 1.644 1.217 5.036 3.854 7.723 2.3 52.267-29.979 103.456-63.674 155.715-93.647 4.933-2.849 8.917-9.755 8.9-15.418z" fill="#f2f4ff"/><path data-name="Path 7169" d="M732.302 20.625c-.016-5.662-4.027-7.955-8.959-5.106-52.264 29.977-104.421 61.008-156.69 90.988-4.926 2.846-8.917 9.755-8.9 15.418l-.257 206.9c.017 5.661 4.033 7.949 8.961 5.1 52.265-29.979 104.431-61.013 156.689-90.987 4.934-2.848 8.917-9.755 8.9-15.417z" fill="#fff"/><path data-name="Path 7170" d="M3528.791 344.571c-.017-5.662-4.027-7.954-8.959-5.106-52.265 29.977-104.422 61.008-156.691 90.988-4.926 2.846-8.917 9.755-8.9 15.418l-.185 162.579L3528.6 508.333z" transform="translate(-2796.49 -323.945)" fill="url(#g)"/><g data-name="Group 1297" fill="#f786dc"><path data-name="Path 7171" d="M719.337 206.248c-.006-2.445-1.739-3.4-3.869-2.139l-48.137 27.2a8.655 8.655 0 00-3.844 6.723v4.838c.008 2.445 1.742 3.4 3.87 2.141l48.137-27.2a8.65 8.65 0 003.845-6.723z" opacity=".25"/><path data-name="Path 7172" d="M719.336 227.468c0-2.154-1.531-3-3.407-1.885-27.293 15.42-72.018 40.6-99.31 56.015a7.622 7.622 0 00-3.387 5.922v4.264c.006 2.154 1.534 3 3.408 1.885 27.293-15.421 72.018-40.6 99.31-56.016a7.616 7.616 0 003.387-5.922z" opacity=".25"/></g><path data-name="Path 7173" d="M595.327 153.79l.185 102.811-28.856 16.815-.185-102.811 28.856-16.817zm86.646-81.78l.287 137.617-28.854 16.817-.288-137.617 28.855-16.817zm-43.221 48.781l.218 114.066-28.855 16.818-.218-114.067 28.855-16.817zm86.6-39.2l.186 102.811-28.855 16.817-.185-102.811z" fill="#f786dc"/><g data-name="Group 1298"><path data-name="Path 7174" d="M725.689 121.868a1.676 1.676 0 00-.145-2.631 2.463 2.463 0 00-3.088.123l-27.337 25.6-13.241 5.639-28.39-5.791-17.232-18.878a2.453 2.453 0 00-3.072-.328 2.068 2.068 0 00-.48.439l-40.515 43.489-24.694 6.091a2.07 2.07 0 00-2.258 1.793 2.014 2.014 0 002.1 1.924l25.748-6.057a2.357 2.357 0 001.867-.72l39.569-42.443 15.969 17.493.006-.005a2.232 2.232 0 001.217.668l29.918 6.1a2.5 2.5 0 001.48-.146l14.183-6.041a2.2 2.2 0 00.787-.469z" fill="#955cf1" opacity=".5" style="mix-blend-mode:multiply;isolation:isolate"/><path data-name="Path 7175" d="M725.691 122.409a2.186 2.186 0 00-3.233-2.943l-27.337 30.05-13.241 6.62-28.39-6.8-17.234-22.157a2.191 2.191 0 00-3.551.13l-38.406 49.558-27.115-1.012a2.182 2.182 0 10-.154 4.362l28.17 1.051a2.179 2.179 0 001.867-.844l37.462-48.336 15.969 20.534.006-.005a2.177 2.177 0 001.217.783l29.918 7.164a2.16 2.16 0 001.48-.172l14.183-7.091a2.168 2.168 0 00.787-.55z" fill="#fff"/></g></g></g></g></g><g data-name="Group 1310" fill-rule="evenodd"><path data-name="Path 7176" d="M974.212 563.489L862.48 499.856c-12.18-5.565-29.614-10-42.024-3.537-11.307 5.885-29.934 17.929-38.17 22.625-6.255 3.568-27.971 16.578-14.446 23.933 39.789 21.635 79.165 45.969 119.568 67.948 7.642 4.157 18.82 5.659 30.555 4.684 11.683-.97 23.667-4.373 33.092-9.856q10.072-5.857 19.814-11.532c8.763-5.1 13.41-11.137 13.871-16.716.451-5.449-3.052-10.504-10.528-13.916z" fill="#9e9bf5" opacity=".5" style="mix-blend-mode:multiply;isolation:isolate"/><g data-name="Group 1305"><g data-name="Group 1303"><path data-name="Path 7177" d="M3079.605 930.87c-.516 4.878.227 12.333-.149 30.683-.266 12.977 1.474 35.638 2.834 55.1.563 8.054 1.685 15.178 2.4 21.447.519 4.557 2.508 9.039 3.164 13.475 4.929 33.328 11.278 63.617 15.061 103.905.871 9.265 1.846 14.026.214 23.226-.318 1.79-1.207 3.591-1.438 5.39-1.139 8.886-2 17.729-5.48 25.112-.5 1.072-1.288 3.907-1.915 5.079 0 0 7.962 2.77 8.932 2.908s13.8-3.432 13.8-3.432 4.775-21.419 4.7-22.655c-.829-14.037 8.91-11.454.265-22.083-.812-1.329-.6-1.447-.591-3.019.1-13.883 2.466-34.024 4.239-52.046 5.062-51.5-3.538-47.8-5.461-72.407 3.537-29.615 10.715-71.667 9.958-108.116z" transform="translate(-2253.948 -666.393)" fill="url(#d)"/><path data-name="Path 7178" d="M843.957 538.905c-1.38 2.532-2.868 6.165-4.137 8.9a55.694 55.694 0 00-3.238 8.623 4.054 4.054 0 00.292 3.467c3.1 4.159 18.627-3.427 23.832-8.022 3.362-2.969 3.424-6.48 4.214-10.768 1.187-6.436 1.388-7.159 2.93-13.773l1.748 17.954 1.48.9a199.912 199.912 0 012.219-23.236c.451-2.491 1.219-5.331 1.328-6.709.64-8.13-3.382-12.13-7.081-14.417 1.359 4.943-2.226 12.983-3.855 23.106-1.705 10.593-7.572 22.176-12.183 23.157-1.942.412-6.238-2.012-8.574-3.343-.888-.506.119-3.544 1.025-5.839z" fill="#273087"/></g><g data-name="Group 1304"><path data-name="Path 7179" d="M3086.89 906.237c5.266 17.1 15.755 32.776 17.814 46.194 2.075 13.519.95 26.317-1.662 46.513-1.776 13.728-8.749 44.7-7.264 56.458 2.174 17.205 8.432 27.4 10.507 47.545 1.669 16.219-1 39.783-1.8 62.238-.305 8.54.427 8.663 2.462 16.4a59.311 59.311 0 011.448 8.016 119.4 119.4 0 01.562 24.295c-.271 3.431-1.541 5.072-1.866 9.766l-19.1 6.081c.441-4.059 1.013-10.266 1.271-17.107.23-6.12.17-12.748.153-18.814-.024-8.7.833-14.172-.711-22.4-5.136-27.376-13.1-51.465-18.486-73.969-2.815-11.761-3.645-22.222-7.78-39.037a115.132 115.132 0 01-3.495-20.761c-1.089-18.713-4.671-41.163-4.788-60.372-15.459-22.413-25.5-33.42-29.7-45.091-.8-7.594 1.854-16.757 1.854-16.757z" transform="translate(-2198.378 -657.271)" fill="url(#f)"/><path data-name="Path 7180" d="M906.759 517.711c1.647 3.79 3.218 5.721 4.087 11.071s-.519 14.068.554 20.691l1.7 10.514c.992 6.123-.016 10.592-6.339 16.583-5.732 5.431-11.653 8.119-15.221 6.921-2.627-.883-5.166-4.979-2.874-16.952 1.909-9.975 1.821-19.418 2.324-30.035.676 10.286.936 13.789-.226 24.1-.323 2.882-.5 7.533 2.875 7.575 13.961.176 14.171-3.6 14.751-7.976 1.556-11.693 1.15-32.08-1.631-42.492z" fill="#273087"/></g><path data-name="Path 7181" d="M3097.717 906.237c5.266 17.1 15.755 32.776 17.814 46.194 3.094 20.158-.464 36.16-5.921 80.027a48.19 48.19 0 001.177 16.109c3.253 15.274-11.769 19.552-29.622 13.9-21.809-6.9-41.9-23.191-43.193-30.711-2.439-21.414-8.511-62.141-8.134-80.491s4.508-24.645 5.024-29.522l.18-4.723c.605-3.785 54.931-9.607 62.675-10.783z" transform="translate(-2209.205 -657.271)" fill="url(#q)"/></g><path data-name="Path 7182" d="M3060.341 707.2c-39.988 21.506-56.736-19.617-60.864-50.637-1.778-13.354-1.317-26.117 4.458-34.112 6.064-8.4 16.227-11.787 26.2-11.4 21.606.845 33.207 21.357 27.993 42.8-5.098 20.949-15.141 43.64 2.213 53.349z" transform="translate(-2133.18 -547.956)" fill="url(#c)"/><path data-name="Path 7183" d="M874.314 75.426c10.912-5.613 26.567 7.009 21.46 24.178-1.681-9.067-6.981-19.108-21.46-24.178z" fill="#f58c7e"/><path data-name="Path 7184" d="M3088.455 627.261c-38.363-12.711-65.759 46.558-21.871 64.927 42.016 17.583 64.465-50.813 21.871-64.927z" transform="translate(-2212.838 -553.313)" fill="url(#r)"/><g data-name="Group 1306"><path data-name="Path 7185" d="M3275.449 796.51c-2.279 3.3 2.011 5.586 3.936 5.689 3.074.4 7.457-1.167 8.545.887 1.22 2.305 15.608-2.447 15.455-2.591-5.909-4.254-11.354-5.281-12.291-5.218-9.208.607-6.523 2.678-15.645 1.233z" transform="translate(-2550.175 -616.183)" fill="url(#s)"/><path data-name="Path 7186" d="M751.16 197.709c13.2 3.731 31.238 16.625 43.8 19.462 3.966.9 10.163 2.634 13.283-.738 16.152-17.454-6.3-11.715-8.2-18.311-11.491-8.55-29.477-4.514-44.193-12.437a27.9 27.9 0 00-2.869-1.689c-5.771-2.877-9-2.638-19.017 2.4-2.921 1.467-4.421 1.276-6.968 1.2l-10.078-1.3c-3.091-.114-5.06.623-5.541 1.635-.535 1.126.57 7.494 2.375 10l.008.011c.386 1.174 2.669 2.067 6.261 2.115l14.732 4.513.688-.39c8.78-4.975 12.526-6.628 15.719-6.471z" fill="#ffa698"/></g><path data-name="Path 7187" d="M3181.865 813.078c11.9-11.1 28.783-27.231 34.82-39.978 3.926-8.285 4.657-31.545-8-34.485-4.237-2.67-10.678 14.653-15.018 21.647-7.838 12.63-13.648 20.19-22.854 31.858-9.779-6.344-23.268-6.971-35.968-10.119a12.543 12.543 0 00-5.843-.165 19.747 19.747 0 01-4.419-1.542c-1.44.392-6.205 8.628-5.388 13.482 1.011.285 3.251.974 4.307 1.347 1.5.531 2.347 1.967 3.834 2.768 5.055 2.723 27.759 14.012 39.066 16.566 4.305.972 11.232 3.212 14.62-.449.294-.317.573-.626.843-.93z" transform="translate(-2367.963 -595.099)" fill="url(#e)"/><path data-name="Path 7188" d="M813.903 217.978c3.942-3.677 8.431-7.907 12.892-12.383-9.367-8.2-8.51-22.747-2.445-31.6a81.213 81.213 0 008.287-14.635 66.168 66.168 0 011.844-8.381 12.106 12.106 0 011.38-3.261c-1.934 2.447-3.079 7.235-6.253 13.947-5.428 11.481-13.673 18.174-14.334 31.679-.489 9.967-5.036 21.722-12.458 27.033 3.737.767 7.864 1.108 10.243-1.465.294-.321.574-.63.844-.934z" fill="#f969ac" opacity=".35" style="mix-blend-mode:multiply;isolation:isolate"/><g data-name="Group 1307"><path data-name="Path 7189" d="M3103.227 825.951c-7.332 16.966 5.133 26.356.645 38.041l1.386 7.914c-13.38 9.607-61.235 10.323-73.232-8.723l-.25-9.5c-2.065-4.548-.706-16.042-.1-19.075 1.927-9.642 1.027-14.76 2.08-25.912.266-2.819.795-4.594 1.054-7.45-10.655-7.964-9.984-23.37-3.669-32.595a81.048 81.048 0 008.287-14.635 66.3 66.3 0 011.845-8.382 13.909 13.909 0 012.232-4.579c3.042-4.342 7.959-4.862 18-2.557 19.9 4.568 40.4 14.9 49.551 24.646 6.654 7.087 6.389 14.951 2.572 31.949a182.189 182.189 0 01-10.401 30.858z" transform="translate(-2206.792 -594.658)" fill="url(#t)"/><path data-name="Path 7190" d="M896.577 231.19c-7.331 16.965 4.831 26.658.343 38.344l1.386 7.812c-13.38 10.414-61.235 9.92-73.232-9.127l.254-8.288c.005-.33 23.5 20.838 50.24 9.068 5.81-2.557 11.068-15.269 3.548-39.546-.715-2.31-9.239-2.469-21.312-11.361 8.912 3.779 25.717 8.956 26.546-13.719.37-10.139 1.861-17.759 7.052-24.807 2.516-3.416 17.268 14.508 15.021 23.1a215.385 215.385 0 01-9.846 28.524z" fill="#f969ac" opacity=".35" style="mix-blend-mode:multiply;isolation:isolate"/></g><path data-name="Path 7191" d="M843.993 150.988c-1.646 5.4-2.549 32.006.589 43.766 10.675-12.078 41.875-27.816 37.878-36.343-4.967-10.593-35.604-16.835-38.467-7.423z" fill="#ff7b7b"/><path data-name="Path 7192" d="M845.559 152.169c-1.473 4.823-1.966 28.877.114 39.271 8.2-9.8 38.278-24.746 34.634-33.162-4.149-9.586-32.184-14.511-34.748-6.109z" fill="#ffa698"/><g data-name="Group 1308"><path data-name="Path 7193" d="M873.027 129.704a52.218 52.218 0 001.988 25.572c-7.175 6.642-19.936 3.82-22.9-2.2.627-3.894 1.356-7.47 1.777-11.468z" fill="#ffa698"/><path data-name="Path 7194" d="M3104.846 716.845a50.021 50.021 0 00-.642 12.373c-2.106 8.509-18.021 14.252-19.678 7.487.452-2.614.892-5.184 1.184-7.956z" transform="translate(-2231.82 -587.141)" fill="url(#u)"/><path data-name="Path 7195" d="M843.384 92.618a28.43 28.43 0 00-4.656 19.469 8.371 8.371 0 01-.668 4.651c-3.346 7.551-3.046 9.894-1.389 15.944 1.613 5.885 1.5 8.96 3.511 10.981 2.06 2.075 5.142 2.552 7.756 2.717 5.355.337 14.55-3.2 19.9-6.118 3.962-2.166 3.809-3.648 5.482-7.4 5.594-4.864 1.97-8.415.1-8.779-5.374-1.043-6.243 5.148-9.427 6.517.52-10.882-20.212-29.247-20.609-37.982z" fill="#ffa698"/><path data-name="Path 7196" d="M3114.315 664.87a27.955 27.955 0 00-2.278 15.112 8.369 8.369 0 01-.668 4.651c-3.346 7.551-3.046 9.894-1.389 15.944.724 2.639 1.1 4.713 1.477 6.38a5.02 5.02 0 006.252 1.807c2.236-.991 4.434-3.638 4.988-8.046.393-3.131 6.809-5.194 8.132-8.378 1.1-2.638-1.864-5.584-3.659-7.1-6.286-5.324-10.201-12.545-12.855-20.37z" transform="translate(-2273.308 -567.895)" fill="url(#v)"/><path data-name="Path 7197" d="M843.385 92.618c3.009 13.359 20.455 23.47 20.6 37.979-4.773-15.078-21.696-25.399-20.6-37.979z" fill="#ff8f7f"/></g><g data-name="Group 1309"><path data-name="Path 7198" d="M3046.907 931.881c-2.375 1.437-6.7 2.835-8.435 3.874-.9.536-7.351 4.551-10.979 6.99-3.88 2.608-4.976 6.37-7.292 10.551a26.275 26.275 0 00-2.611 7.58c-.248 1.763 4.23 5.151 6.133 4.73 4.322-.957 8.733-6.262 9.873-6.854 9.681-5.02 14.317-5.516 17.816-9.51 1.495-1.705 2.409-6.693 5.492-11.176l-5.937-5.373z" transform="translate(-2141.72 -666.767)" fill="url(#w)"/><path data-name="Path 7199" d="M2976.588 777.832c15.678 6.555 29.089 37.241 43.327 55.543 2.816 3.619 2.878 7.2 1.39 9.863a27.328 27.328 0 01-2.8 5.035c-6.767 9.949-12.292 18.419-26.756 30.72a8.656 8.656 0 01-3.72 1.747c-.907.751-2.177 2.105-3.147 2.891 1.2-1.548-5.995-9.3-9.258-8.784a84.92 84.92 0 002.564-3.358 4.8 4.8 0 01.972-3.085c6.039-8.742 11.9-20.389 19.37-28.577-12.678-10.239-20.273-17.246-30.713-29.964-14.676-17.879-3.184-37.029 8.771-32.031z" transform="translate(-2071.405 -609.425)" fill="url(#x)"/></g></g><g data-name="Group 1329" fill-rule="evenodd"><path data-name="Path 7200" d="M848.135 860.204c-45.338-26.178-118.661-26.178-163.706 0-45.089 26.2-44.851 68.673.492 94.849s118.659 26.176 163.75-.024c45.045-26.18 44.805-68.649-.536-94.825z" fill="#9e9bf5" opacity=".5" style="mix-blend-mode:multiply;isolation:isolate"/><g data-name="Group 1312"><g data-name="Group 1311"><path data-name="Path 7202" d="M675.993 897.328l-.175 8.949c-.042 13.519 8.878 27.057 26.734 37.367 28.476 16.437 69.448 19.054 101.556 10.658 21.2-5.528 52.955-21.406 52.955-47.536l.184-8.948z" fill="#8141e7"/><path data-name="Path 7203" d="M3310.148 1680.864c-35.491-20.493-92.89-20.493-128.151 0-35.3 20.51-35.111 53.759.384 74.25s92.889 20.491 128.187-.02c35.262-20.494 35.075-53.739-.42-74.23z" transform="translate(-2479.648 -820.419)" fill="url(#y)"/></g><path data-name="Path 7204" d="M757.061 677.459l-.021 213.49c-.005 1.661 1.09 3.324 3.283 4.59 3.5 2.019 8.53 2.341 12.474 1.309 2.6-.679 6.5-2.628 6.5-5.839l.023-213.49z" fill="#8141e7"/></g><g data-name="Group 1314"><path data-name="Path 7205" d="M3405.35 1452.546c10.929 28.1 16.938 67.742 23.573 98.645 1.019 3.642 2.869 8.239 7.829 10.8 7.728 3.99 16.392 3.139 18.491-2.627-.184-28.913 1.6-50.248.693-66.114-1.013-17.761-7.684-44.822-14.487-55.169-5.035-23.957-47.749-14.781-36.099 14.465z" transform="translate(-2754.928 -731.142)" fill="url(#h)"/><path data-name="Path 7206" d="M649.309 718.075a41.944 41.944 0 001.112 3.328l.457 1.191.1.258c1.834 4.854 3.526 10.033 5.107 15.434l.074.252.375 1.3.116.409.261.922c7.193 25.507 12.214 55.819 17.416 80.048 2.723-36.365-3.246-72.715-12.922-104.149a119.487 119.487 0 01.6-22.777c-8.986 2.789-16.149 11.134-12.696 23.784z" fill="#1e2353" opacity=".3" style="mix-blend-mode:multiply;isolation:isolate"/><g data-name="Group 1313"><path data-name="Path 7207" d="M663.721 847.003c5.021 4.909 8.053 1.752 10.14 10.653 5.45 8.339 10.467 10.883 15 9.949 5.762-1.185 10.259-3.523 11.1-9.923.974-10.695 1.191-12.7-1.609-20.572l-.772-.513a2.169 2.169 0 00-2.3-.691c-5.021 1.2-6.553 4.293-8.369 6.029-3.91 3.736-7.674.744-9.341-3.581l-.014-.048-.033-.118-.011-.041-.056-.212-.019-.077-.069-.283-.008-.042-.06-.268-.02-.09v-.024l-.013-.073-.03-.143v-.008l-.027-.146-.074-.419-.065-.413-.009-.062a36.231 36.231 0 01-.1-.765l-.01-.092-.032-.308-.006-.059-.006-.064-.016-.18-.008-.07-.017-.2-.038-.49-.008-.117-.008-.111-.025-.394-.016-.292-.02-.4c.03-.225.062-.446.105-.662a11.856 11.856 0 00-.24-3.768q-.021-.63-.052-1.252c-5.473-3.059-13.719-11.391-19.573-12.979-4.192-1.138-6.548 4.823-6.709 7.619-.391 6.684 8.043 19.813 13.438 25.7z" fill="#fff"/><path data-name="Path 7208" d="M677.936 824.69c.25 6.068-.221 12.733 4.246 16.272 3.9 3.087 10.636 4.276 14.732-1.9 1.724-2.6 1.535-7.089 2.157-12.619.02 4.062-21.4 2.461-21.135-1.753z" fill="#ffa495"/><path data-name="Path 7209" d="M665.071 844.425c5.021 4.909 8.054 1.752 10.14 10.653 5.451 8.339 10.467 10.882 15.006 9.949 5.761-1.184 10.258-3.522 11.095-9.922.974-10.695 1.191-12.7-1.609-20.572l-.771-.513a2.169 2.169 0 00-2.3-.691c-5.021 1.2-6.554 4.294-8.37 6.029-3.91 3.736-7.673.744-9.341-3.582l-.013-.047-.033-.118-.011-.041-.057-.212-.018-.077-.068-.283-.01-.042-.059-.267-.02-.091v-.023l-.014-.074-.03-.144v-.007l-.026-.146-.074-.419-.065-.413-.009-.062q-.055-.379-.1-.766l-.01-.092-.033-.307-.006-.058-.006-.064-.017-.18-.008-.07-.016-.2-.041-.49-.008-.118-.007-.11-.025-.394-.017-.292-.02-.4c.029-.225.063-.445.105-.662a11.847 11.847 0 00-.241-3.768q-.022-.63-.052-1.252c-5.472-3.059-13.535-9.058-19.388-10.647-4.193-1.138-6.733 2.49-6.893 5.287-.39 6.684 8.045 19.812 13.44 25.698z" fill="#193161"/><path data-name="Path 7210" d="M657.093 814.946c-1.48 1.66-4.77.576-6.344 4.242-.085-2.416 2.383-5.874 4.977-5.874.501-.001 2.094.97 1.367 1.632z" fill="#fff"/><path data-name="Path 7211" d="M3404.184 1616.751q.594 2.877 1.193 5.669c1.019 3.64 2.869 8.238 7.83 10.8 7.727 3.99 16.392 3.138 18.49-2.627-.016-2.5.413-4.949.422-7.339-4.285 5.291-18.886 8.466-27.935-6.503z" transform="translate(-2731.383 -802.371)" fill="url(#z)"/></g></g><path data-name="Path 7212" d="M757.998 685.251c24.3-6.771 70.731 19.106 114.6 66.054 39.612 42.394-111.713 86.989-141.771 75.476-28.572-10.946-101.045-47.2-94.947-62.487 11.906-29.848 78.153-66.792 122.118-79.043z" fill="#161d5c"/><g data-name="Group 1328"><path data-name="Path 7213" d="M3308.915 1417.809c21.641.713 45.972-.073 65.292 7.031 18.04 6.633 15.177 32.672-1.239 47.646-14.392 13.129-38.752 16.98-74.667 2.239-11.167-4.583-21.839-8.82-38.559-10.739-16.087-1.847-26.552 1.431-35.4-13.729-6.268-10.742-4.32-23.436 10.521-28.26 21.752-7.076 51.773-4.921 74.052-4.188z" transform="translate(-2570.454 -728.375)" fill="url(#A)"/><g data-name="Group 1317"><g data-name="Group 1316"><path data-name="Path 7214" d="M544.466 818.605a199.18 199.18 0 01-10.505 17.344c-3.507 5.15 3.892 13.589 8.844 16.3 5 2.732 12.837 2.775 16.269-4.994 1.331-3.013 1.788-7.067 3.207-10.862-2.489 4.035-13.489-7.903-17.815-17.788z" fill="#ffa495"/><g data-name="Group 1315"><path data-name="Path 7215" d="M551.911 851.621c-2.526-.633-17.628 4.814-18.336-14.282-10.846 2.664-28.353-5.863-38.192-5.744-1.753.02-4.725-1.94-5.626-.946-2.826 3.116-5.987 8.021-1.836 12.644 3.053 3.4 10.066 8.58 14.764 11.551 4.981 3.154 13.573 8.29 19.571 10.679 6.644 2.645 9.685 3.8 11.81 6.379 3.264 2.7 6.89 4.358 9.092 4.5 4.708.311 10.609-1.145 14.21-5.772 1.15-1.479 2.818-8.7 2.992-13.6.138-3.859-.922-8.534-1.641-12.838z" fill="#fff"/><path data-name="Path 7216" d="M531.247 834.905c-5.965.354-21.161-4.244-31.1-5.676-4.273-.615-8.03-1.5-10.859 1.861-2.6 3.095-2.339 6.314 1.091 10.135a70.919 70.919 0 0013.254 10.711c4.983 3.154 13.573 8.291 19.571 10.679 6.643 2.645 9.685 3.8 11.81 6.38 3.263 2.694 6.889 4.358 9.092 4.5a17.367 17.367 0 0014.333-6.312c1.152-1.48 2.7-8.164 2.87-13.06.1-2.732.465-6.78.3-9.206-.27-3.974-1.917-4.57-3.809-4.028-3.523 1.01-5.409 3.841-7.181 6.114a7.371 7.371 0 01-5.178 3.09c-4.012.329-6.955-2.536-8.439-6.253a27.2 27.2 0 01-.876-8.029q.07-.381.16-.751c.728-6.59-2.525-6.74-2.358-5.278.146 1.348-.688 4.2-2.681 5.123z" fill="#193161"/><path data-name="Path 7217" d="M492.2 830.616c-.49 2.5-3.853-.031-4.959 6.32-2.125-3 1.286-7.009 3.706-7.721.551-.164 1.76-.453 1.253 1.401z" fill="#fff"/></g></g><path data-name="Path 7218" d="M3324.014 1450.221c-17.367 29.635-49.531 73.9-67.477 100.408-4.579 8.6 3.173 21.887 17.4 23.8 20.356-24.276 44.059-38.008 64.168-68.036 3.805-5.683 10.823-17.624 15.24-26.236 5.492.666 12.92 1.819 20.967 3.147 16.6 2.738 30.343 6.613 41.225 11.835 35 16.8 59.543 14.361 74.671 2.086 17.255-14 21.62-39.828 3.994-47.494-18.875-8.209-40.418-9.953-61.978-11.916-19.7-1.792-59.062-5.606-83.137-2.389-1.88.253-3.669.547-5.348.889-6.414 1.121-10.774 2.709-15.549 7.706a18.469 18.469 0 00-4.176 6.2z" transform="translate(-2710.932 -734.766)" fill="url(#B)"/><path data-name="Path 7219" d="M3618.778 1610.845c-1.03 1.709-4.785 7.192-5.763 8.834-2.674 7.15 6.917 19.415 21.231 20.509 1.082-1.452 5.065-5.7 6.178-7.1-12.924-3.649-21.095-10.888-21.646-22.243z" transform="translate(-3070.909 -800.183)" fill="url(#C)"/></g><g data-name="Group 1327"><g data-name="Group 1321"><g data-name="Group 1320"><g data-name="Group 1319"><g data-name="Group 1318"><path data-name="Path 7220" d="M762.093 569.563c-3.754-6.47-7.547-11.912-11.691-17.728-3.392-4.761-4.547-4.642-9.8-6.131-5.788-1.638-7.018-1.226-12.181.317-4.489 1.342-8.255 4.52-9.373 6.537-3.562 6.42 11.271 7.818 12.549 8.386 2.416 4.681 3.079 8.339 7.4 10.983 7.15 4.379 10.044 4.536 12.7 9.764z" fill="#ffa698"/><path data-name="Path 7221" d="M746.245 561.035c-4.6-5.376-4.882-6.62-10.887-11.564q-.368-.142-.718-.263l-5.137.289c-2.544 2.656-7.012 5.3-9.93 2.308-.127.176-.25.355-.365.536-2.115 3.364.019 7.735 1.969 8.033 4.717.715 8.407-.321 10.416.571 2.416 4.682 3.079 8.339 7.4 10.983 7.15 4.379 10.044 4.536 12.7 9.764l6.584-7.675z" fill="#ff9281"/></g><path data-name="Path 7222" d="M3253.57 1291.863c-4.646-6.56-29.589-32.875-35.735-43.67a17.548 17.548 0 01-1.314-6.057l-3.352-4.329c.632-5.176 6.282-11.152 11.331-11.827l3.622 2.956a18.176 18.176 0 018.5 1.949c16.791 9.825 47 37.642 46.847 57.64-.107 13.847-23.432 9.175-29.899 3.338z" transform="translate(-2462.448 -657.67)" fill="url(#D)"/></g><path data-name="Path 7223" d="M3376.861 1156.766l43.8 69.8-71.124 17.535-43.8-69.8z" transform="translate(-2657.932 -632.04)" fill="url(#E)"/><path data-name="Path 7224" d="M753.489 574.109c-9.984.969-8.4-4.78-11.923-11.393-1.763-.825-3.1-2.319-4.783-3.8-6.834-1.154-7.7-4.294-6.832-7.573 2.3.038 6.853.043 8.811.271 9.409 4.005 16.4 4.307 20.47 14.678 1.481 3.763-2.782 3.148-5.743 7.817z" fill="#ffa698"/></g><path data-name="Path 7225" d="M704.394 604.913a1.894 1.894 0 01-3.61 1.149 80.35 80.35 0 01-3.313-21.29c.033-5.511 1.174-10.224 4.373-12.012 5.338-2.983 8.794-.753 12.282 1.5.618.39 1.238.792 1.756 1.089a8.535 8.535 0 003.618 1.292 2.983 2.983 0 002.492-1 7.957 7.957 0 001.616-3.555 22.432 22.432 0 000-8.881c-.293-1.463-.642-2.924-.986-4.37-1.9-7.983-3.722-15.632 3.437-18.619a1.9 1.9 0 011.454 3.5c-4.185 1.745-2.73 7.859-1.212 14.238.361 1.513.726 3.04 1.021 4.512a26.37 26.37 0 01-.024 10.461 11.619 11.619 0 01-2.508 5.259 6.606 6.606 0 01-5.514 2.227 12.153 12.153 0 01-5.276-1.785c-.722-.416-1.32-.8-1.917-1.189-2.524-1.638-5.028-3.254-8.383-1.379-1.779 1-2.42 4.493-2.446 8.739a75.94 75.94 0 003.14 20.114z" fill="#fff"/></g><path data-name="Path 7226" d="M3256.009 1357.929l-1.392 5.994c-11.479 18.435-54.7 30.687-85.394 4.137a45.571 45.571 0 001.36-7.631c-.71-2.093-.644-5.4-.168-10.187 1.174-11.781 5.533-32.383 5.585-33.365 1.361-25.994-4.326-51.8 7.191-70.293 2.472-3.969 5.785-5.494 9.594-7.532 8.285-4.431 45.569-15.916 64.926-18.712 11.636-1.681 24.416.532 28.581 13.956 5.688 18.333-6.155 45.477-15.9 71.122-12.739 33.532-6.874 38.66-14.383 52.511z" transform="translate(-2439.081 -655.401)" fill="url(#F)"/><path data-name="Path 7227" d="M731.151 696.871c.051-.645.114-1.321.183-2.03 1.174-11.781 5.533-32.383 5.585-33.365 1.361-25.994-5.112-52.318 7.191-70.293 7.206-10.528 22.83-8.7 28.388 4.307 4.209 9.852.39 23.95-4.719 47.249-3.623 16.517-10.124 55.138-19.913 59.195-3.327 1.377-8.994-.417-16.715-5.063z" fill="#3469c0" opacity=".35" style="mix-blend-mode:multiply;isolation:isolate"/><g data-name="Group 1325"><path data-name="Path 7228" d="M3222.4 1188.806a97.4 97.4 0 01-5 21.184c12.8 1.976 31.1 1.969 34.806-7.139l.761-17.924c-10.21-12.201-30.033 4.009-30.567 3.879z" transform="translate(-2434.609 -640.783)" fill="url(#G)"/><path data-name="Path 7229" d="M817.813 561.758c3.545 1.868 6.334 6.4 5.181 8.751-6.624 14.608-35.624 13.756-52.385 6.79 2.3-3.839 8.51-8.735 12.056-9.194 10.78 3.142 30.063 2.057 35.148-6.347z" fill="#4a9ff8"/><g data-name="Group 1324"><path data-name="Path 7230" d="M789.51 560.115c3.819-.9 6.014-5.54 7.393-13.435 1.169-6.69 20.015 1.766 19.7 1.325 1.708-6.084 7.619-10.686 8.957-19.147 1.87-11.833-1.038-24.318-12.771-31.339-21.427-12.823-44.763 1.419-48.057 24.767-.644 4.559 3.14 6.481 3.516 10.256.074.739-.8 1.635-1.372 3.371-.792 2.4 1.508 17.423 5.812 23.278 1.794 2.436 13.947 2.079 16.822.924z" fill="#ffa698"/><path data-name="Path 7231" d="M3284.8 1183.672c.731 1.05 6.241-.14 8.275-1.069-8.605-10.834 1.353-19.587-7.47-29.9-5.3-6.2.167-13.09-5.737-16.354a37.659 37.659 0 00-3.024 10.419c-.644 4.559 3.14 6.481 3.517 10.256.074.739-.8 1.635-1.373 3.371-.788 2.405 1.66 17.313 5.812 23.277z" transform="translate(-2512.108 -624.48)" fill="url(#H)"/><g data-name="Group 1322"><path data-name="Path 7232" d="M784.809 544.96c-1.424-2.741-.685-3.906.624-3.762 1.438.157 3.679 1.893 5.1 4.741 2.3 4.593.727 10.988-4.238 9.23 4.029-.3 3.015-5.069 1.422-7.883-1.075-1.907-2.525-3.173-2.908-2.326z" fill="#ffb49c"/><path data-name="Path 7233" d="M786.821 546.02c-.841 2.23-1.065 3.519-.611 4.186.317.464 1.164.929 2.262-.46a7.245 7.245 0 00-1.651-3.726z" fill="#ff9d8e"/></g><g data-name="Group 1323"><path data-name="Path 7234" d="M819.255 548.9c1.315-6.8 6.81-13.107 8.028-20.82 1.2-7.607 1.16-18.1-6.577-24.023-4.95-19.074-30.153-20.8-46.5-14.513-11.7 4.5-10.9 19.584-1.621 24.287a18 18 0 003.815 13.818c3.687 4.013 3.931 4.658 4.618 8.97.543 3.4 1.768 11.682 4.352 4.323 1.67-4.756 7.7-.365 9.117 4.4a21.891 21.891 0 004.205 8.289c6.329 7.893 19.829-.948 20.563-4.731z" fill="#562e65"/><path data-name="Path 7235" d="M3272.8 1110.09c-6.244-17.558-31.384-12.612-39.415-7.812-8.127 4.857-6.106 21.989 6.185 20.45 8.384-1.051 17.484-15.045 33.23-12.638z" transform="translate(-2461.447 -610.193)" fill="url(#I)"/></g></g></g><g data-name="Group 1326"><path data-name="Path 7236" d="M684.552 594.506l-7.575-.895-6.7-5.569-.358-10.274 5.457-3.286c5.737.693 9.093-.9 10.294.195 1.337 1.215.668 7.817-1.118 19.829z" fill="#ff9584"/><path data-name="Path 7237" d="M700.914 612.48a27.155 27.155 0 01-3.33-4.809 19.845 19.845 0 00-4.1-13.733c-4.412-6.01-5.034-6.8-5.973-11.264a30.675 30.675 0 00-.954-4.131c-.963-2.322-3.622-1.671-4.537.7a11.7 11.7 0 00-.229 6l1.174 3.12-8.062-9.172c-1.3-2.005 14.238.074 10.757-4.657-1.974-1.093-4.715-1.282-7.97-1.545a42.3 42.3 0 00-7.036.07c-3.217.271-4.476 13.479-4.526 16.922a13.856 13.856 0 00.793 5.505 33.256 33.256 0 007.127 10.257c5.233 4.671 9.921 4.084 13.934 12.9z" fill="#ffa698"/><path data-name="Path 7238" d="M660.247 568.106c14.283 5.766 33.9 13.067 40.908 19.233-7.681-.072-28.1-9.242-42.422-15.194-3.545-1.473-1.813-5.383 1.514-4.039z" fill="#273087"/><path data-name="Path 7239" d="M693.485 593.938c-4.412-6.01-5.034-6.8-5.973-11.264a30.677 30.677 0 00-.954-4.131c-.963-2.322-3.622-1.671-4.537.7a11.7 11.7 0 00-.229 6l1.435 5.016z" fill="#ffa698"/></g><path data-name="Path 7240" d="M3332.193 1304.523c-7.55-10.009-16.072-21.05-21.179-25.574a17.574 17.574 0 00-5.656-2.535l-3.547-4.17c-5.2-.448-12.206 3.851-13.906 8.652l2.146 4.153a18.157 18.157 0 00.158 8.715c6.074 18.206 26.593 52.789 45.963 57.532a15.638 15.638 0 007.492-.023c3.568-.767 5.131-5.492 6.588-8.514 11.53-23.921 17.141-32.5 24.587-56.564 4.91-15.865 3.264-24.908-2.349-30.346-7.03-6.81-17.536-6.853-23.181.425-8.509 10.972-13.775 31.726-17.116 48.249z" transform="translate(-2603.795 -666.853)" fill="url(#J)"/></g></g><path data-name="Path 7241" d="M3105.228 1482.793l53.885 35.621c31.865 19.856 76.376 20.693 109.117 2.213l60.8-34.471c22.147-12.556 27.784-31.811 25.308-58.066-1.864-19.778-18.056-70.9-27.857-91.135-24.843-51.3-104.137 1.543-117.4 37.7-8.22 22.406-18.19 36.915-31.966 51.021-34.489 35.314-43.124 3.983-67.254-4.513-22.474-7.912-23.851 17.577-22.786 37.18.625 11.582 6.781 17.041 18.153 24.45z" transform="translate(-2454.296 -690.871)" fill="url(#K)"/><path data-name="Path 7242" d="M3104.976 1538.691l53.885 35.621c31.865 19.855 76.376 20.693 109.117 2.213l60.8-34.471c22.147-12.556 27.784-31.811 25.308-58.066a137.541 137.541 0 00-3.195-17.391c-5.482 6.876-83.877 75.714-143.066 80.2-36.9 2.793-74.585-8.832-121-32.552.622 11.578 6.775 17.037 18.151 24.446z" transform="translate(-2454.043 -746.769)" opacity=".5" fill="url(#L)" style="mix-blend-mode:multiply;isolation:isolate"/></g></g><g data-name="Group 451" fill-rule="evenodd"><path data-name="Path 5989" d="M1757.469 842.615l130.5-72.318 18.28 124.776-131.769 73.021c-9.233 5.114-18.043.215-19.674-10.918l-11.1-85.112c-1.63-11.133 4.533-24.333 13.763-29.449z" transform="translate(-1212.675 -408.89)" opacity=".5" fill="url(#M)" style="mix-blend-mode:multiply;isolation:isolate"/><g data-name="Group 450"><g data-name="Group 447"><path data-name="Path 5990" d="M547.167 460.121l12.663 86.059-1.52.185-4.143-1.611c-4.547-1.791-6.934-6.526-7.6-11.128l-10.13-77.7a.34.34 0 01-.006-.045 28.51 28.51 0 014.758-19.311 22.473 22.473 0 017.812-7.533l166.218-92.134a12.144 12.144 0 0110.338-1.155l3.656 1.429c1.84.691 2.41 1.244 2.4 1.359-1.73 16.088-186.863 105.087-184.446 121.585z" fill="#e5edff"/><path data-name="Path 5991" d="M553.183 430.686l166.211-92.135c3.694-2.047 7.311-2.336 10.333-1.158 3.874 1.508 6.772 5.427 7.609 11.138l10.129 77.7c1.49 10.167-4.114 22.205-12.54 26.876l-166.214 92.137c-8.429 4.67-16.471.2-17.961-9.967l-10.129-77.7c-1.492-10.169 4.135-22.22 12.562-26.891z" fill="#d1e7ff"/></g><g data-name="Group 448" fill="#fff"><path data-name="Path 5992" d="M550.091 463.084l94.675-52.086a2.875 2.875 0 012.471-.276 3.166 3.166 0 011.819 2.662l.633 3.83a6.7 6.7 0 01-3 6.424l-94.677 52.086c-2.016 1.117-3.938.047-4.294-2.383l-.633-3.832a6.707 6.707 0 013.006-6.425z" opacity=".5"/><path data-name="Path 5993" d="M553.52 486.525l94.676-52.087a2.879 2.879 0 012.47-.275 3.165 3.165 0 011.819 2.662l.633 3.831a6.7 6.7 0 01-3 6.425l-94.677 52.086c-2.016 1.116-3.938.047-4.294-2.384l-.633-3.831a6.707 6.707 0 013.006-6.427z" opacity=".5"/><path data-name="Path 5994" d="M613.971 477.924l37.656-20.045a2.88 2.88 0 012.471-.276 3.165 3.165 0 011.819 2.664l.633 3.83a6.7 6.7 0 01-3 6.424l-37.657 20.045c-2.016 1.117-3.938.047-4.294-2.383l-.633-3.832a6.711 6.711 0 013.005-6.427z" opacity=".5"/></g><g data-name="Group 449"><path data-name="Path 5995" d="M734.688 386.971c2.92 26.218-11.618 58.244-32.513 71.484s-40.928-3.811-43.126-23.549 1.495-27.944 7.469-40.96c3.637 2.007 7.274 4.013 10.906 5.979-3.876 8.365-6.266 13.718-4.853 26.4s14.295 23.636 27.711 15.129 22.758-29.084 20.883-45.918c4.464-2.839 9.009-5.703 13.523-8.565z" fill="#22d2fb"/><path data-name="Path 5996" d="M719.843 360.405c7.809 4.234 13.386 13.436 14.848 26.566-4.516 2.863-9.062 5.726-13.523 8.571-.937-8.417-4.5-14.352-9.524-17.074q4.115-9.011 8.199-18.063z" fill="#12a3eb"/><path data-name="Path 5997" d="M691.561 363.409c10.456-6.619 20.494-7.278 28.276-3.043q-4.067 9.072-8.195 18.1c-5.025-2.722-11.479-2.308-18.159 1.937s-12.426 11.527-16.195 19.824a1465.532 1465.532 0 01-10.9-5.939c5.867-12.944 14.718-24.261 25.173-30.879z" fill="#1c8df3"/></g></g></g><g data-name="Group 1152"><g data-name="Group 1471"><path data-name="Path 6866" d="M1726.639 300.556h42.751a6.87 6.87 0 006.849-6.851v-58.876h-23.229a26.449 26.449 0 00-26.371 26.371z" transform="translate(-1176.967 383.731)" fill-rule="evenodd" opacity=".5" fill="url(#N)" style="mix-blend-mode:multiply;isolation:isolate"/><g data-name="Group 1151"><path data-name="Path 6867" d="M1814.682 137.311h-38.038l-24.167 24.168v53.931a6.87 6.87 0 006.851 6.851h55.355a6.87 6.87 0 006.851-6.851v-71.248a6.87 6.87 0 00-6.852-6.851z" transform="translate(-1230.135 451.526)" fill-rule="evenodd" fill="url(#k)"/><path data-name="Path 6868" d="M1880.613 167.941h22.105a7.917 7.917 0 007.895-7.894v-22.719l-5.85-.017-24.1 24.616z" transform="translate(-1358.271 451.526)" fill-rule="evenodd" opacity=".5" fill="url(#O)" style="mix-blend-mode:multiply;isolation:isolate"/><path data-name="Path 6869" d="M1893.627 163.892h19.183a6.87 6.87 0 006.85-6.851v-19.73h-1.866l-24.167 24.168z" transform="translate(-1371.285 451.526)" fill-rule="evenodd" fill="url(#P)"/><g data-name="Group 1150"><path data-name="Rectangle 451" d="M556.793 610.146h23.406a3.746 3.746 0 013.749 3.746 3.745 3.745 0 01-3.745 3.745h-23.41a3.745 3.745 0 01-3.745-3.746 3.745 3.745 0 013.745-3.745z" fill="#fff"/><path data-name="Rectangle 452" d="M532.411 623.411h48.918a2.616 2.616 0 012.616 2.616 2.615 2.615 0 01-2.615 2.614h-48.919a2.615 2.615 0 01-2.615-2.614 2.615 2.615 0 012.615-2.616z" fill="#93e599"/><path data-name="Rectangle 453" d="M532.411 635.03h48.919a2.615 2.615 0 012.615 2.615 2.615 2.615 0 01-2.615 2.615h-48.918a2.616 2.616 0 01-2.616-2.615 2.615 2.615 0 012.615-2.615z" fill="#93e599"/><path data-name="Rectangle 454" d="M532.411 646.649h48.919a2.615 2.615 0 012.615 2.615 2.615 2.615 0 01-2.615 2.615h-48.918a2.616 2.616 0 01-2.616-2.615 2.615 2.615 0 012.615-2.615z" fill="#93e599"/><path data-name="Rectangle 455" d="M532.411 658.267h48.917a2.616 2.616 0 012.616 2.616 2.615 2.615 0 01-2.615 2.615h-48.917a2.616 2.616 0 01-2.616-2.616 2.615 2.615 0 012.615-2.615z" fill="#93e599"/></g></g></g></g><g data-name="Group 454"><g data-name="Group 1408" fill-rule="evenodd"><path data-name="Path 5998" d="M2154.132 1148.432c-23.945-19.208-38.26-59.1-31.983-89.139 6.271-30.02 30.761-38.81 54.707-19.6 23.929 19.2 38.256 59.122 31.982 89.14-6.276 30.033-30.775 38.794-54.706 19.599z" transform="translate(-1719.414 -486.405)" opacity=".5" fill="url(#Q)" style="mix-blend-mode:multiply;isolation:isolate"/><g data-name="Group 453"><path data-name="Path 5999" d="M408.261 551.38c4.285-4.526 15.057-7.121 21.09-7.45 7.037-.382 14.892 2.51 22.68 9.008 20.438 17.059 32.675 52.536 27.317 79.211-1.591 7.925-4.459 14.261-8.467 18.618-3.742 4.065-15.781 9.194-21.339 9.645-33.319 4.697-53.89-95.717-41.281-109.032z" fill="#d0e7ff"/><g data-name="Group 452"><path data-name="Path 6000" d="M2139.576 1139.759c-20.466-17.04-32.7-52.435-27.336-79.082s26.292-34.431 46.758-17.39 32.7 52.452 27.335 79.083c-5.365 26.647-26.303 34.42-46.757 17.389z" transform="translate(-1715.977 -488.087)" fill="url(#R)"/><path data-name="Path 6001" d="M459.971 584.311l6.158 4.41-44.565 42.762-16.748-44.03 8.218 4.713 10.963 15.586z" fill="#fff"/></g></g></g></g><g data-name="Group 459" fill-rule="evenodd"><path data-name="Path 6006" d="M42.276 16.2L12.775 0 0 87.2l29.838 16.38c8.31 4.6 16.238.194 17.7-9.825l7.12-51.055c1.47-10.021-4.076-21.9-12.382-26.5z" transform="rotate(-25.97 1616.63 -333.51)" opacity=".5" fill="url(#S)" style="mix-blend-mode:multiply;isolation:isolate"/><g data-name="Group 458"><g data-name="Group 457"><path data-name="Path 6007" d="M363.006 692.45l15.872 52.68 1.307-.45 2.73-2.948c2.983-3.252 3.047-8.039 1.768-12.038l-14.62-44.892a.326.326 0 00-.013-.04 25.742 25.742 0 00-11.502-13.79 20.288 20.288 0 00-9.32-3.024l-65.52-3.197a10.968 10.968 0 00-8.847 3.152l-2.402 2.604c-1.224 1.292-1.465 1.965-1.41 2.052 7.761 12.375 87.397 5.54 91.957 19.89z" fill="#d0e7ff"/><path data-name="Path 6008" d="M346.486 670.935l-65.52-3.195c-3.806-.2-6.857.995-8.849 3.148-2.55 2.758-3.35 7.083-1.771 12.05l14.627 44.892c2.81 8.841 12.12 16.396 20.807 16.856l65.519 3.195c8.69.457 13.448-6.354 10.637-15.194l-14.624-44.896c-2.807-8.841-12.139-16.398-20.826-16.856z" fill="#fff"/></g><path data-name="Path 6009" d="M54.885 16.741c-.582 3.982-3.7 5.784-6.99 3.957-3.352-1.858-5.511-6.583-4.928-10.565.58-3.953 3.685-5.68 7.037-3.823 3.29 1.824 5.461 6.476 4.881 10.43zM36.817 52.11c.582-3.979 3.687-5.705 7.04-3.848 3.293 1.823 5.464 6.477 4.881 10.455s-3.7 5.781-6.993 3.957c-3.352-1.858-5.511-6.586-4.928-10.565zM16.249 18.07c-.58 3.958-3.746 5.65-7.037 3.825-3.271-1.813-5.462-6.475-4.882-10.43.583-3.982 3.719-5.771 6.989-3.957 3.292 1.824 5.513 6.583 4.93 10.561zm34.5-16.824c-5.6-3.108-10.979-.207-11.971 6.567l-.006.5L19.24 11.39a16.557 16.557 0 00-7.189-8.876C6.45-.59 1.15 2.38.158 9.15c-.983 6.7 2.709 14.707 8.312 17.812 3.23 1.793 6.31 1.576 8.523-.244l15.751 22.707-.119.364c-.991 6.77 2.792 14.75 8.393 17.855 5.539 3.071 10.9.161 11.89-6.613.98-6.7-2.767-14.764-8.309-17.837-3.985-2.208-7.8-1.356-10.059 1.671L19.621 23.12a8.9 8.9 0 00.759-2.76 12.1 12.1 0 00.117-3.221l18.569-3.177c1.093 4.907 4.11 9.522 8.1 11.73 5.539 3.07 10.9.135 11.894-6.639S56.286 4.316 50.747 1.245z" transform="rotate(-25.97 1660.748 -275.07)" fill="url(#T)"/></g></g></g></g></g></g><g data-name="Group 467" fill-rule="evenodd"><path data-name="Path 6019" d="M1842.913 491.452L1805 508.871c-9.048 5.239-11.758 22.169-10.275 33.473l7.7 56.749c1.483 11.3 10.037 16.23 19.088 10.992l34.357-20.854-1.362-9.4z" transform="translate(-1427.869 -258.59)" opacity=".5" fill="url(#U)" style="mix-blend-mode:multiply;isolation:isolate"/><g data-name="Group 466"><path data-name="Path 6020" d="M510.406 191.089c-.5-3.8.537-6.1-1.35-8.252-1.2-1.369-4.995-3.133-6.58-3.729-3.068-1.156-6.73-.794-10.481 1.378l-108.392 63.355c-8.728 5.054-14.658 18.014-13.228 28.919l7.431 54.747c.443 3.381 1.7 7.741 4.584 10.229a17.812 17.812 0 007.908 3.915c2.482.313 3.139-1.93 5.922-3.541l108.39-63.355c8.74-5.059 14.66-18.015 13.23-28.919z" fill="#d0e7ff"/><path data-name="Path 6021" d="M513.343 192.827c-1.43-10.9-9.673-15.663-18.412-10.6L386.54 245.581c-8.729 5.054-14.659 18.014-13.229 28.919l7.431 54.746c1.43 10.9 9.683 15.657 18.414 10.6l108.389-63.355c8.74-5.059 14.661-18.015 13.231-28.919z" fill="#fff"/><path data-name="Path 6022" d="M1762.637 398.764c-1.43-10.905-9.673-15.663-18.412-10.6l-108.391 63.355c-8.728 5.055-14.659 18.015-13.229 28.919l.7 5.139a28.213 28.213 0 012.924-1.954l137.055-80.11z" transform="translate(-1249.293 -205.937)" fill="url(#V)"/><g data-name="Group 464"><path data-name="Path 6023" d="M494.211 226.351c-11.039 2.526-19.518 15.671-18.938 29.361s10 22.739 21.039 20.213 19.518-15.67 18.938-29.359-10-22.74-21.039-20.215z" fill="#6d6afd" opacity=".2"/><path data-name="Path 6024" d="M1648.486 501.05c-5.952 1.361-10.523 8.449-10.211 15.829s5.391 12.261 11.344 10.9 10.524-8.449 10.211-15.83-5.391-12.259-11.344-10.9zm.266 6.266c3.162-.723 5.859 1.868 6.026 5.788s-2.262 7.684-5.424 8.408-5.859-1.869-6.025-5.789 2.261-7.684 5.422-8.407z" transform="translate(-1153.791 -263.275)" fill="url(#W)"/><path data-name="Path 6025" d="M468.653 252.702c-.381-2.91-2.577-4.146-4.9-2.753l-70.78 40.13a8.46 8.46 0 00-3.52 7.794l.74 5.756c.382 2.91 2.58 4.144 4.9 2.753l70.779-40.13a8.456 8.456 0 003.521-7.794z" fill="#6d6afd" opacity=".2"/><path data-name="Path 6026" d="M471.372 273.87c-.225-1.719-1.522-2.448-2.9-1.625l-41.8 23.7a5 5 0 00-2.079 4.6l.436 3.4c.225 1.718 1.524 2.447 2.9 1.626l41.8-23.7a4.994 4.994 0 002.079-4.6z" fill="#6d6afd" opacity=".2"/></g><g data-name="Group 465" fill="#fff"><path data-name="Path 6027" d="M501.518 188.023c-2.407.551-4.254 3.416-4.128 6.4s2.18 4.956 4.586 4.405 4.254-3.415 4.128-6.4-2.181-4.955-4.586-4.405z"/><path data-name="Path 6028" d="M490.561 194.317c-2.407.55-4.254 3.415-4.128 6.4s2.18 4.956 4.586 4.405 4.254-3.415 4.128-6.4-2.179-4.956-4.586-4.405z"/><path data-name="Path 6029" d="M478.702 201.231c-2.406.55-4.254 3.415-4.127 6.4s2.179 4.956 4.586 4.406 4.254-3.416 4.128-6.4-2.179-4.959-4.587-4.406z"/></g></g></g><g data-name="Group 456" fill-rule="evenodd"><path data-name="Path 6002" d="M1814.28 1198.652l121.42-67.219a7.2 7.2 0 016.18-.693c2.317.9 4.05 3.246 4.55 6.661l8.42 59.692c.891 6.08-2.46 13.279-7.5 16.072l-111.736 61.857c-1.219-.46-7.135-1.5-7.466-3.252z" transform="translate(-1417.909 -782.707)" opacity=".5" fill="url(#X)" style="mix-blend-mode:multiply;isolation:isolate"/><g data-name="Group 455"><path data-name="Path 6003" d="M388.38 433.647l9.48 61.73-.868.1-2.367-.919c-.119-.047-.235-.1-.349-.151l-.034-.013c-2.594-1.022-3.956-3.724-4.337-6.349l-8.035-56.958v-.026a16.271 16.271 0 012.714-11.02 12.821 12.821 0 014.458-4.3l122.638-67.888a6.934 6.934 0 015.9-.659l2.087.815c.219.082.406.161.566.235.905.361 1.191.643 1.185.7-.986 9.184-134.422 75.289-133.038 84.703z" fill="#d0e7ff"/><path data-name="Path 6004" d="M1836.089 1200.243l122.64-67.9a6.874 6.874 0 015.9-.661c2.21.861 3.864 3.1 4.342 6.356L1977 1195c.85 5.8-2.348 12.671-7.156 15.336l-122.644 67.897c-4.811 2.665-9.4.113-10.25-5.687l-8.033-56.961c-.847-5.8 2.363-12.677 7.172-15.342z" transform="translate(-1444.281 -783.392)" fill="url(#Y)"/><path data-name="Path 6005" d="M525.659 391.947c-1.382-8.041-4.509-10.761-8.508-9.64a8.438 8.438 0 00-1.9.808c-3.922 2.236-7.921 8.081-8.531 17.814-.39 6.161-1.567 11.807-6.73 14.751-13.571 7.265-8.677-35.731-21.527-28.4-11.064 6.316-4.443 29.153-8.75 43.619-1.5 5.017-4.191 7.377-6.05 8.437-7.814 4.167-8.68-9.006-9.7-14.549-4.709-25.615-7.7-27.026-12.461-24.309-4.979 2.891-7.193 4.853-6.272 31.6.381 10.94 0 20.737-7.7 25.352-8.6 4.9-9.351-5.146-13.167-10.042-2.268-2.907-5.212-3.5-7.9-1.97-2.906 1.657-5.514 5.8-6.647 12.2-1.9 10.73-1.025 25.569-.461 30.749l129.389-73.242c-1.117-7.852-1.891-16.226-3.085-23.178z" fill="#d0e7ff"/></g></g></g></g></g></g></svg>