<svg xmlns="http://www.w3.org/2000/svg" xmlns:xlink="http://www.w3.org/1999/xlink" viewBox="0 0 1120.21 1549.18"><defs><linearGradient id="linear-gradient" x1="209.91" y1="80.34" x2="352.85" y2="516.94" gradientUnits="userSpaceOnUse"><stop offset="0" stop-color="#fd90da"/><stop offset="1" stop-color="#8e6dfd"/></linearGradient><linearGradient id="linear-gradient-2" x1="654.31" y1="232.52" x2="713.97" y2="89.3" gradientUnits="userSpaceOnUse"><stop offset="0" stop-color="#6d6afe"/><stop offset="1" stop-color="#3fb0f7"/></linearGradient><linearGradient id="linear-gradient-3" x1="730.14" y1="591.9" x2="519.79" y2="1316.89" gradientUnits="userSpaceOnUse"><stop offset="0" stop-color="#d1e8ff"/><stop offset="1" stop-color="#eaefff"/></linearGradient><linearGradient id="linear-gradient-4" x1="509.43" y1="956.7" x2="969.45" y2="607.42" xlink:href="#linear-gradient-2"/><linearGradient id="linear-gradient-5" x1="575.91" y1="672.26" x2="439.57" y2="330.7" gradientUnits="userSpaceOnUse"><stop offset="0" stop-color="#965cf2"/><stop offset="1" stop-color="#ff8adc"/></linearGradient><linearGradient id="linear-gradient-6" x1="534.1" y1="464.21" x2="417.53" y2="596.96" gradientUnits="userSpaceOnUse"><stop offset="0" stop-color="#1c8ef4"/><stop offset="1" stop-color="#00cfdd"/></linearGradient><linearGradient id="linear-gradient-7" x1="877.13" y1="695.59" x2="812.29" y2="494.24" xlink:href="#linear-gradient-5"/><linearGradient id="linear-gradient-8" x1="914.25" y1="559.86" x2="855.77" y2="655.94" xlink:href="#linear-gradient"/><linearGradient id="linear-gradient-9" x1="786.97" y1="809.46" x2="815.12" y2="725.2" xlink:href="#linear-gradient-5"/><linearGradient id="linear-gradient-10" x1="716.74" y1="798.84" x2="776.52" y2="1128.15" xlink:href="#linear-gradient"/><linearGradient id="linear-gradient-11" x1="825.22" y1="912.87" x2="789.22" y2="1194.58" xlink:href="#linear-gradient-3"/><linearGradient id="linear-gradient-12" x1="653.54" y1="951.26" x2="684.47" y2="913.37" xlink:href="#linear-gradient-2"/><linearGradient id="linear-gradient-13" x1="440.52" y1="961.8" x2="340.77" y2="686.01" xlink:href="#linear-gradient-5"/><linearGradient id="linear-gradient-14" x1="408.91" y1="781.96" x2="343.6" y2="899.35" xlink:href="#linear-gradient"/><linearGradient id="linear-gradient-15" x1="672.16" y1="1273.94" x2="-5.59" y2="885.91" xlink:href="#linear-gradient-2"/><linearGradient id="linear-gradient-16" x1="640.85" y1="1419.2" x2="629.25" y2="1126.81" xlink:href="#linear-gradient-3"/><linearGradient id="linear-gradient-17" x1="639.92" y1="1189.69" x2="602.19" y2="1298.63" xlink:href="#linear-gradient-3"/><linearGradient id="linear-gradient-18" x1="627.2" y1="1202.97" x2="601.32" y2="1257.84" xlink:href="#linear-gradient-6"/><linearGradient id="linear-gradient-19" x1="908.71" y1="308.42" x2="1034.99" y2="572.82" xlink:href="#linear-gradient"/><linearGradient id="linear-gradient-20" x1="399.31" y1="722.03" x2="418.77" y2="622.54" xlink:href="#linear-gradient-5"/><linearGradient id="linear-gradient-21" x1="365.89" y1="652.94" x2="384.67" y2="713.04" xlink:href="#linear-gradient-2"/><linearGradient id="linear-gradient-22" x1="248.03" y1="567.38" x2="278.11" y2="524.38" gradientUnits="userSpaceOnUse"><stop offset="0" stop-color="#ff8a78"/><stop offset="1" stop-color="#ffa799"/></linearGradient><linearGradient id="linear-gradient-23" x1="169.68" y1="681.33" x2="296.85" y2="584.95" gradientUnits="userSpaceOnUse"><stop offset="0" stop-color="#ff66bc"/><stop offset=".56" stop-color="#ff8adc"/><stop offset="1" stop-color="#ffbba8"/></linearGradient><linearGradient id="linear-gradient-24" x1="99.71" y1="1394.14" x2="142.49" y2="1394.14" xlink:href="#linear-gradient-22"/><linearGradient id="linear-gradient-25" x1="162.65" y1="1018.06" x2="78.14" y2="1289.33" gradientUnits="userSpaceOnUse"><stop offset="0" stop-color="#3e4795"/><stop offset="1" stop-color="#273088"/></linearGradient><linearGradient id="linear-gradient-26" x1="140.33" y1="1373.11" x2="104.15" y2="1388.32" xlink:href="#linear-gradient-25"/><linearGradient id="linear-gradient-27" x1="134.02" y1="1350.96" x2="189.73" y2="1350.96" xlink:href="#linear-gradient-22"/><linearGradient id="linear-gradient-28" x1="220.33" y1="1046.61" x2="138.5" y2="1228.99" xlink:href="#linear-gradient-25"/><linearGradient id="linear-gradient-29" x1="174.9" y1="1331.77" x2="163.9" y2="1342.67" xlink:href="#linear-gradient-25"/><linearGradient id="linear-gradient-30" x1="164" y1="808.54" x2="202.87" y2="958.81" xlink:href="#linear-gradient-23"/><linearGradient id="linear-gradient-31" x1="404.35" y1="745.63" x2="432.35" y2="708.64" xlink:href="#linear-gradient-22"/><linearGradient id="linear-gradient-32" x1="281.54" y1="821.74" x2="423.63" y2="760.78" xlink:href="#linear-gradient-23"/><linearGradient id="linear-gradient-33" x1="168.06" y1="704.21" x2="178.17" y2="734.18" xlink:href="#linear-gradient-22"/><linearGradient id="linear-gradient-34" x1="167.7" y1="627.95" x2="104.01" y2="825.01" gradientUnits="userSpaceOnUse"><stop offset="0" stop-color="#5a2d68"/><stop offset="1" stop-color="#22043d"/></linearGradient><linearGradient id="linear-gradient-35" x1="146.52" y1="492.62" x2="130.96" y2="673.69" gradientUnits="userSpaceOnUse"><stop offset="0" stop-color="#8a4791"/><stop offset="1"/></linearGradient><linearGradient id="linear-gradient-36" x1="203.59" y1="497.41" x2="188.04" y2="678.37" xlink:href="#linear-gradient-35"/><style>.cls-11,.cls-37,.cls-38,.cls-5,.cls-6{fill-rule:evenodd}.cls-5{fill:#fff}.cls-6{fill:#9e9bf5;opacity:.5;mix-blend-mode:multiply}.cls-11{fill:#f2f4ff}.cls-37{fill:#1c236c}.cls-38{fill:#e5e5e5}</style></defs><g style="isolation:isolate"><g id="Layer_2" data-name="Layer 2"><g id="Layer_1-2" data-name="Layer 1"><path d="M137.61 623.26a4.8 4.8 0 00-9.59.41c.28 6.21.81 12.4 1.53 18.57.71 5 7.77 5.53 9.37.81a4.43 4.43 0 00.18-1.84c-.71-6-1.21-12-1.49-18zm355.87-478.5c4.24 2.47 9.57-2.49 6.12-6.88a5.13 5.13 0 00-1.28-1l-16.61-9.22c-4.23-2.46-9.57 2.49-6.11 6.89a4.79 4.79 0 001.28 1l16.6 9.21zm-41.51-23c4.24 2.47 9.57-2.49 6.11-6.88a4.61 4.61 0 00-1.28-1l-16.6-9.22c-4.24-2.47-9.57 2.49-6.11 6.88a4.83 4.83 0 001.28 1l16.6 9.21zm-41.51-23c4.23 2.47 9.57-2.49 6.11-6.88a4.61 4.61 0 00-1.28-1l-16.6-9.22c-4.24-2.47-9.57 2.49-6.12 6.88a4.92 4.92 0 001.28 1l16.61 9.22zM369 75.64c4.23 2.47 9.57-2.49 6.11-6.88a4.64 4.64 0 00-1.28-1l-16.6-9.21c-4.24-2.47-9.57 2.49-6.12 6.88a5.13 5.13 0 001.28 1L369 75.64zm-41.51-23c4.23 2.46 9.57-2.49 6.11-6.89a5.13 5.13 0 00-1.28-1l-16.6-9.21c-4.24-2.47-9.57 2.49-6.12 6.88a5.13 5.13 0 001.28 1l16.61 9.22zm-41.51-23c4.23 2.46 9.57-2.49 6.11-6.89a5.13 5.13 0 00-1.28-1l-3.52-1.95c-4.48-2.46-9.12-4.85-13.81-6.92s-9.31 3.68-5.34 7.47a5 5 0 001.27.82c4.48 2.05 8.79 4.21 13.1 6.57l3.45 1.92zM243.22 12c5.66 1.35 8.53-6.45 2.95-8.7-.21-.07-.4-.13-.61-.18A128.3 128.3 0 00225.77 0a4.57 4.57 0 00-1.68 9 5.24 5.24 0 001 .18A122.52 122.52 0 01243.22 12zm-45-.58c5.73-1.63 4-9.74-2.12-8.92a76 76 0 00-19.3 7.66c-4.84 2.82-1.54 9.94 4 8.26a4.93 4.93 0 00.91-.4 69.5 69.5 0 0116.5-6.6zm-36.47 23.64c3.36-4.18-2.41-9.76-6.93-6.25a4.84 4.84 0 00-.75.75 89.62 89.62 0 00-10.37 16.52c-2.32 4.67 4.31 9 8 4.88a5.22 5.22 0 00.69-1 82.15 82.15 0 019.33-14.86zM144.06 75c1.07-5.38-6.92-7.68-9.16-2.61a4.51 4.51 0 00-.27.86A142.69 142.69 0 00132.06 92a4.78 4.78 0 007 4.36 4.6 4.6 0 002.58-3.76 135.56 135.56 0 012.42-17.6zm-3 44.78c0-5.35-8-6.41-9.47-1.12a4.59 4.59 0 00-.13 1.06l-.1 18.28c0 5.35 8 6.41 9.47 1.13a4.75 4.75 0 00.13-1.07l.13-18.31zm-.31 45.79c0-5.35-8-6.4-9.47-1.12a4.67 4.67 0 00-.14 1.06l-.12 18.32c0 5.35 8 6.4 9.47 1.12a5.3 5.3 0 00.13-1.06l.13-18.32zm-.32 45.8c0-5.35-8-6.4-9.47-1.12a5.3 5.3 0 00-.13 1.06l-.13 18.32c0 5.34 8 6.4 9.47 1.12a4.75 4.75 0 00.14-1.07l.12-18.31zm-.31 45.79c0-5.35-8-6.4-9.47-1.12a5.3 5.3 0 00-.13 1.06l-.13 18.32c0 5.35 8 6.4 9.47 1.12a4.67 4.67 0 00.14-1.06l.12-18.32zm-.31 45.8c0-5.35-8-6.4-9.47-1.12a5.3 5.3 0 00-.13 1.06l-.13 18.32c0 5.34 8 6.4 9.47 1.12a4.75 4.75 0 00.14-1.07l.12-18.31zm-.31 45.79c0-5.35-8-6.4-9.47-1.12a5.3 5.3 0 00-.13 1.06l-.1 18.31c0 5.35 8 6.4 9.47 1.12a4.67 4.67 0 00.14-1.06l.12-18.32zm-.31 45.8c0-5.35-8-6.4-9.47-1.12a4.66 4.66 0 00-.13 1.06l-.13 18.32c0 5.34 8 6.4 9.47 1.12a4.74 4.74 0 00.14-1.06l.12-18.32zm-.31 45.79c0-5.35-8-6.4-9.47-1.12a4.66 4.66 0 00-.13 1.06l-.13 18.32c0 5.35 8 6.4 9.47 1.12a4.67 4.67 0 00.14-1.06l.12-18.32zm-.31 45.8c0-5.35-8-6.4-9.47-1.12a4.67 4.67 0 00-.14 1.06l-.12 18.31c0 5.35 8 6.41 9.47 1.12a4.59 4.59 0 00.14-1.06l.12-18.31zm-.31 45.79c0-5.35-8-6.4-9.47-1.12a4.67 4.67 0 00-.14 1.06l-.12 18.32c0 5.34 8 6.4 9.47 1.12a4.74 4.74 0 00.14-1.06l.12-18.32zm-.26 45.78c0-5.35-8-6.4-9.47-1.12a4.67 4.67 0 00-.14 1.06l-.14 18.35c0 5.35 8 6.4 9.47 1.12a4.66 4.66 0 00.13-1.06l.13-18.32zm4.49 90.29a4.78 4.78 0 00-5.12-3.64 4.62 4.62 0 00-4.29 5.48c1.3 6.08 2.83 12.12 4.55 18.1 1.51 4.8 8.58 4.32 9.39-.59a4.24 4.24 0 00-.13-1.84c-1.67-5.78-3.15-11.64-4.4-17.51zm13.18 43.23c-1.65-4.49-9-3.71-9.29 1.47a4.56 4.56 0 00.3 1.76c2.29 5.82 4.77 11.52 7.38 17.2 2.73 5.5 11.23 1.85 8.77-3.72s-5-11.13-7.16-16.71zm19.69 41a4.82 4.82 0 00-4-2.38 4.61 4.61 0 00-4.43 6.77q4.65 8.16 9.73 16.07a4.93 4.93 0 005.73 1.91 4.51 4.51 0 002.45-6.71q-5-7.69-9.48-15.66zm25.29 38.19c-3-4-9.9-1.14-8.5 3.94a4.71 4.71 0 00.75 1.46c3.82 5 7.81 9.92 11.92 14.7a5 5 0 005.85 1.19 4.47 4.47 0 001.57-7c-4-4.63-7.89-9.44-11.59-14.28zm30.54 34.42a5 5 0 00-6.43-.36 4.45 4.45 0 00-.42 6.79c4.65 4.51 9.41 8.52 14.16 12.85a5 5 0 006.59-.21 4.45 4.45 0 00-.23-6.66q-7.05-5.92-13.67-12.35z" fill="url(#linear-gradient)" fill-rule="evenodd"/><path d="M588.55 79.72C602 86.83 609.89 95.13 618.64 107c-.11-2.07-.21 5.52-.14-6.21s-7-30.67 2.63-40.17C625 56.84 643.52 49.93 648 48.84c8.56-2.1 18.49-.69 29.09 4.84 16.12 8.4 30.71 24.77 41.31 44.43s17.21 52.55 17.2 64.42-.07 4.1-.19 6.1c9-2.57 17-2.54 30.88 4.77s31.31 25.33 42.14 45.36 17.67 43.59 17.72 65.5c0 17.11-4 30.69-11 40.1s-20.57 15.08-30.18 18.12c-27.56 9.12-80.7-44.15-108.73-59.28l-88.8-47.89c-16-8.66-30.43-25.16-40.74-44.86s-16.48-42.55-16.27-63.9c.12-12.48-9.44-31.2 2.94-40.16 19.21-13.93 39.77-14.8 55.18-6.67z" fill="#d0e7ff" fill-rule="evenodd"/><path d="M573 86.17c13.47 7.11 21.35 15.42 30.09 27.26-.1-2.07-.21 5.52-.14-6.2s6.73-37.35 17.31-45.88 25.15-9.62 41.27-1.22 30.72 24.77 41.31 44.44S720 157.12 720 169s-.06 4.1-.18 6.09c9-2.57 17-2.54 30.88 4.77s31.31 25.34 42.13 45.36 17.67 43.5 17.72 65.51-6.67 38.39-17.53 47-25.83 9.41-42.33.51q-45.21-24.39-90.07-48.6l-88.8-47.89c-16.05-8.66-30.43-25.16-40.73-44.85s-16.48-42.55-16.28-63.9 6.78-37.22 17.27-45.68 27.41-8.25 40.92-1.15z" fill="url(#linear-gradient-2)" fill-rule="evenodd"/><path class="cls-5" d="M604.07 191.97l-27.62-15.19 43.43 71.71 43.71-23.74-27.6-15.21.08-67.52-31.92-17.57-.08 67.52z"/><path class="cls-5" d="M699.76 221.23l27.62 15.19-43.43-71.71-43.71 23.75 27.6 15.2-.08 67.52 31.92 17.57.08-67.52z"/><path class="cls-6" d="M932.41 1486l-450-245c-16.7-7.28-41.24-14.14-57.62-4.63l-41.9 24.35c-8.43 4.89-36.16 21.14-17.61 30.76 54.55 28.28 403.11 222.44 458.51 251.17 10.47 5.43 25.8 7.4 41.89 6.12s32.65-5.4 45.37-12.88l16.74-9.84c11.83-7 18.39-14.56 19-21.85.67-7.1-4.13-13.7-14.38-18.2z"/><path d="M928.31 1453.36c-.07 20.89-7.88 35.59-20.36 42.5l-19.81 11.36c-68-27.65-42.74-356-46.89-449.38l20.87-489.92c-17.54-29.23-85-54.74-69.29-114.44l-199.21-88.9c-8.84-5.73-241.3-134.08-199.62-158.15 7-4 13.89-8.08 20.78-11.9 15.41-8.69 35.05-3.31 49.47 4.62L860.66 415.9c38.91 21.37 69.43 73.1 69.34 114.43z" fill="url(#linear-gradient-3)" fill-rule="evenodd"/><path class="cls-5" d="M373.79 248.9c.06-20.47 7.49-35 19.54-42.09 12.7-7.46 30.51-6.65 50.21 4.2l396.38 216.74c38.36 21.12 69.42 72.41 69.29 114.44l-1.65 923c-.12 42-31.39 59-69.76 37.9l-396.37-216.72C403 1265.23 372 1214 372.13 1171.93z"/><path d="M373.79 248.9c.06-20.47 7.49-35 19.54-42.09 12.7-7.46 30.51-6.65 50.21 4.2l396.38 216.74c38.36 21.12 69.42 72.41 69.29 114.44l-1.65 923c-.12 42-31.39 59-69.76 37.9l-396.37-216.72C403 1265.23 372 1214 372.13 1171.93z" fill="url(#linear-gradient-4)" fill-rule="evenodd"/><path d="M853.87 504.75c10.39 5.72 18.83 1.13 18.87-10.25s-8.36-25.24-18.75-31-18.83-1.13-18.87 10.26 8.36 25.24 18.75 30.99zM552.91 319.78c0-3.1 2.31-4.32 5.14-2.71 41.19 22.18 108.69 58.41 149.88 80.59a10.93 10.93 0 015.12 8.53v6.13c0 3.1-2.31 4.32-5.14 2.71-41.19-22.18-108.69-58.41-149.88-80.6a10.83 10.83 0 01-5.11-8.52z" fill="#485af4" fill-rule="evenodd"/><path d="M375 353.41l293.54 149.85c26.37 14.52 39.61 58.36 39.52 87.25l-1.13 145c-.09 28.89-21.58 40.57-47.95 26.05l-285.1-158.25z" style="mix-blend-mode:multiply" fill="url(#linear-gradient-5)" opacity=".5" fill-rule="evenodd"/><path class="cls-11" d="M286.41 335.63c0-9.72-3.57-15.75.8-21.06 2.78-3.38 12.45-7.48 16.55-8.83 7.92-2.61 18-1.26 28.91 4.76L648.75 486c25.43 14 46 48 46 75.88l-1.1 139.9c0 8.64-1.92 19.71-8.87 25.77-5 4.33-13.63 8.66-20.09 9.16-6.62.51-9.18-5.33-17.3-9.79l-316.12-175.5c-25.47-14-46-48-46-75.89z"/><path d="M279.05 339.76c.08-27.87 20.79-39.15 46.25-25.13l316.08 175.45c25.44 14 46 48 46 75.88l-1.09 139.9C686.15 733.73 665.42 745 640 731L323.91 555.55c-25.47-14-46-48-46-75.89z" fill="url(#linear-gradient-6)" fill-rule="evenodd"/><path d="M425.43 468c0-7.44 5.55-10.36 12.34-6.51l206 111.38c6.79 3.84 12.29 13 12.26 20.44v14.72c0 7.44-5.55 10.36-12.34 6.51l-206-111.38c-6.79-3.85-12.28-13-12.26-20.44zm0 54.16c0-4.39 3.28-6.12 7.29-3.85l121.62 65.77c4 2.27 7.26 7.68 7.25 12.08v8.69c0 4.39-3.29 6.11-7.3 3.84l-121.62-65.77c-4-2.27-7.25-7.68-7.24-12.07z" opacity=".2" fill="#fff" fill-rule="evenodd"/><path class="cls-5" d="M353.88 478.5c-12.69-7-23.77-23.5-24.74-36.88s8.53-18.54 21.23-11.54 23.77 23.51 24.74 36.87-8.54 18.54-21.23 11.55zm47.19-4.16l-8.25-4.55a82.89 82.89 0 00-8.57-22.37l5.4-2.92a125.79 125.79 0 00-10.44-15.56l-5.39 2.93a93.69 93.69 0 00-18-17.23l-.63-8.7c-2.26-1.55-4.56-3-6.89-4.27a70.24 70.24 0 00-6.82-3.29l.63 8.71c-6.34-2.43-12.09-3-16.89-2l-6.29-9.38a20.76 20.76 0 00-8.95 4.87l6.29 9.37c-3.26 3.35-5.33 8.21-5.9 14.4l-8.25-4.55a50.63 50.63 0 00.05 6.95 66.42 66.42 0 001 7.49l8.25 4.55a83 83 0 008.58 22.36l-5.4 2.93a127.69 127.69 0 0010.4 15.56l5.4-2.93a93.35 93.35 0 0018 17.23l.63 8.69c2.27 1.56 4.56 3 6.9 4.28a66.69 66.69 0 006.81 3.28l-.63-8.7c6.35 2.43 12.09 3 16.89 2l6.29 9.38a20.7 20.7 0 008.95-4.87l-6.24-9.38c3.26-3.34 5.33-8.2 5.9-14.39l8.25 4.55a50.78 50.78 0 00-.05-7 64 64 0 00-1.03-7.44z"/><path d="M766.15 538.49c.09-32.2 24-45.23 53.42-29l107.84 58.35 2.08 181.41-20.69 6.29-90.8-49.2c-29.42-16.19-53.18-55.46-53.08-87.65z" style="mix-blend-mode:multiply" fill="url(#linear-gradient-7)" opacity=".5" fill-rule="evenodd"/><path class="cls-11" d="M784.69 535.49c0-9.72-2.34-15.78 2.07-21.06 3.36-4 11.18-7.48 15.27-8.83 7.93-2.61 18-1.26 28.92 4.76l101 54.64c25.44 14 46 48 46 75.88l-1.09 69.44c0 8.64-1.92 19.71-8.88 25.77-4.95 4.32-13.63 8.65-20.08 9.15-6.63.52-9.19-5.32-17.3-9.79l-101-54.64c-25.47-14-46-48-46-75.88z"/><path d="M777.33 539.62c.08-27.87 20.79-39.15 46.25-25.13l101 54.64c25.43 14 46 48 46 75.88l-1.1 69.44c-.08 27.87-20.81 39.14-46.26 25.13L822.18 685c-25.47-14-46-48-45.95-75.89z" fill="url(#linear-gradient-8)" fill-rule="evenodd"/><path class="cls-5" d="M894.06 605.92l58.37 59.89-.04 15.26-58.54-4.32.05-18.01 40.9 4.87-40.8-39.77.06-17.92zm-8.53-16.75a9 9 0 011.55 5.07 29.16 29.16 0 01-1.28 6.49l-16.51 64.45c-.52 2.15-1 3.79-1.42 5a3.42 3.42 0 01-1.93 2.25c-.8.36-2 .11-3.61-.78-3.91-2.15-5.89-5.19-5.88-8.89a40.11 40.11 0 011.19-6.71l16.44-64.49c.83-3.43 1.66-5.64 2.46-6.66s2.3-.92 4.5.29a11.85 11.85 0 014.49 3.98zM791 592.24l.05-15.44 58.56 4.42-.06 18.15-40.76-5.2 40.66 40.03-.05 18-58.4-59.96z"/><path d="M801.14 847.14c-34.51-19-64.61-63.88-67.25-100.24s23.18-50.39 57.69-31.37 64.62 63.91 67.25 100.24-23.19 50.38-57.69 31.37z" style="mix-blend-mode:multiply" fill="url(#linear-gradient-9)" opacity=".5" fill-rule="evenodd"/><path class="cls-11" d="M738.9 719.17c3.64-5.86 15.63-10.49 22.71-11.8 8.26-1.52 18.56.6 29.95 6.88 29.9 16.48 56 55.4 58.3 86.9.68 9.35-.68 17.08-4 22.71-3.13 5.24-15.81 13-22.29 14.36-38.21 10.51-95.36-101.8-84.67-119.05z"/><path d="M790.85 832c-29.91-16.49-56-55.38-58.3-86.89s20.1-43.69 50-27.2 56 55.4 58.29 86.89-20.09 43.66-49.99 27.2z" fill="#d1e7ff" fill-rule="evenodd"/><path class="cls-5" d="M805.51 752.47l7.93 3.78-35.22 51.12-31.1-43.96 10.24 3.82 16.42 14.86 31.73-29.62z"/><path d="M569.68 795.58c.08-26.31 19.62-37 43.66-23.72l315.15 172.27v276.23l-20.82 11.17L612 1070.44c-24-13.23-43.45-45.32-43.38-71.62z" style="mix-blend-mode:multiply" fill="url(#linear-gradient-10)" opacity=".5" fill-rule="evenodd"/><path d="M592.85 796.77c0-6.7-5.49-12.16-3.06-16.46 2.64-4.66 13.49-7.52 18.16-8.94 6.62-2 14.95-.81 24 4.16l368.12 202.55c21.5 11.84 38.9 40.57 38.83 64.12l-.93 180.86c0 11.54-4.25 19.71-11.08 23.65-4.18 2.41-15.92 6.82-21.68 5.87-4-.67-1.8-5.79-6.32-8.28l-368.14-202.55c-21.52-11.85-38.9-40.58-38.83-64.12z" fill="url(#linear-gradient-11)" fill-rule="evenodd"/><path class="cls-5" d="M583.2 800.09c.07-23.55 17.57-33.09 39.08-21.24L990.41 981.4c21.49 11.84 38.89 40.57 38.82 64.12l-.92 180.86c-.07 23.55-17.59 33.07-39.09 21.24L621.1 1045.07c-21.52-11.85-38.9-40.58-38.83-64.12z"/><path d="M662.85 871.87c-34.42-19-62.38-3.72-62.49 34s27.66 83.6 62.08 102.55 62.38 3.72 62.49-34-27.69-83.62-62.08-102.55z" fill="url(#linear-gradient-12)" fill-rule="evenodd"/><path class="cls-5" d="M636.07 888.76l.07 68.2 61.72 4.82-61.79-73.02z"/><path d="M735.88 923.84c0-4.83 3.6-6.73 8-4.23l250.78 137c4.42 2.5 8 8.46 8 13.29v9.57c0 4.84-3.62 6.73-8 4.24l-250.78-137c-4.43-2.51-8-8.46-8-13.3z" fill="#44a7f7" opacity=".5" fill-rule="evenodd"/><path d="M735.88 979.57c0-4.83 3.6-6.73 8-4.23l250.78 137c4.42 2.5 8 8.46 8 13.29v9.57c0 4.84-3.62 6.73-8 4.24l-250.78-137c-4.43-2.51-8-8.46-8-13.3zm0 53.9c0-4.84 3.6-6.73 8-4.23l250.78 137c4.42 2.51 8 8.46 8 13.3v9.57c0 4.83-3.62 6.73-8 4.23l-250.78-137c-4.43-2.5-8-8.46-8-13.29z" fill="#6d6afd" opacity=".5" fill-rule="evenodd"/><path d="M372.27 763.93l71.85 38.72c27.68 15.24 50.09 52.24 50 82.57l-1.19 136.27c-.09 30.33-22.65 42.59-50.34 27.35l-70.32-37.9z" style="mix-blend-mode:multiply" fill="url(#linear-gradient-13)" opacity=".5" fill-rule="evenodd"/><path class="cls-11" d="M252 749.24c0-9.72-2.35-15.79 2.06-21.06 3.36-4 11.19-7.48 15.28-8.83 7.92-2.61 18-1.26 28.91 4.76l134.6 72.53c25.44 14 46 48 45.95 75.89l-1.1 118.76c0 8.64-1.92 19.71-8.87 25.77-4.94 4.32-13.63 8.65-20.09 9.15-6.62.51-9.18-5.33-17.29-9.79l-134.6-72.54c-25.47-14-46-48-46-75.88z"/><path d="M244.63 753.37c.08-27.88 20.79-39.16 46.25-25.13l134.6 72.53c25.44 14 46 48 46 75.89l-1.1 118.76c-.08 27.87-20.82 39.13-46.26 25.13L289.49 948c-25.47-14-46-48-46-75.89z" fill="url(#linear-gradient-14)" fill-rule="evenodd"/><path class="cls-5" d="M386.41 856.64l-.07 24.21L399 887.8c7.64 4.21 12.21 6.56 14.12 7.28 3.31 1.5 5.83 1.66 7.74.63s2.88-3.27 2.88-6.57a19 19 0 00-2.38-9.31 21.15 21.15 0 00-7.22-7.61c-1.91-1.21-7.43-4.42-16.62-9.48l-11.1-6.1zm-91.54-4.43l26.27 14.45-13.34-46.19-12.93 31.74zm2.86-62l20.58 11.33 38.11 126.17-20.84-11.46-8.32-28.55-38.47-21.18-8 19.6-20.59-11.34 37.48-84.57zM424.54 942.7c1.71-1.32 2.67-3.76 2.68-7.56a20.26 20.26 0 00-2-9.11 27.33 27.33 0 00-6-8.13c-2.72-2.54-8.39-6.21-17.27-11.1l-15.67-8.62-.09 28.27 18 9.92c7 3.85 11.41 6.12 13.32 6.61 2.86 1.08 5.22 1 7-.28zm18.1-13.85a41.48 41.48 0 014.52 18.32 23.37 23.37 0 01-3.06 12.36c-2.07 3.38-4.74 5.54-8.27 6.19-3.62.82-7.89.18-13.12-2.15-3.17-1.41-10.9-5.34-23.25-12.14l-32.74-18 .3-105 38.43 21.15a166 166 0 0116.92 10.35 50.36 50.36 0 0110.13 9.93 58.24 58.24 0 017.25 12.87 33.9 33.9 0 013 13.76c0 5.06-1.34 8.8-3.7 11.52a11 11 0 01-9.83 3.79 56.61 56.61 0 0113.42 17.05z"/><path d="M466 1066.21c0-11.07 8.25-15.55 18.37-10 107.14 58.59 214.07 119.24 321.23 177.84 10.1 5.56 18.28 19.06 18.24 30.13l-.64 186c0 11.06-8.27 15.53-18.37 10-107.16-58.59-214.1-119.25-321.24-177.83-10.11-5.57-18.27-19.07-18.24-30.14z" style="mix-blend-mode:multiply" fill="url(#linear-gradient-15)" opacity=".5" fill-rule="evenodd"/><path d="M458 1059.19l12.29-5.86c3.08-1.36 7.17-1 11.64 1.48 101.26 55.38 202.32 112.69 303.59 168.07 9.54 5.26 17.27 18 17.24 28.48l.5 156.68c0 4.37-1.39 7.66-3.67 9.61s-11.24 5.63-14.43 7.17c-101.26-55.38-201.6-120-302.85-175.42-9.55-5.26-17.27-18-17.24-28.48z" fill="url(#linear-gradient-16)" fill-rule="evenodd"/><path d="M452.5 1070c0-10.46 7.8-14.7 17.36-9.43 101.26 55.37 202.31 112.68 303.58 168.06 9.55 5.26 17.28 18 17.25 28.48l.49 156.68c0 10.46-7.81 14.68-17.36 9.43-101.26-55.38-202.33-112.7-303.58-168.07-9.56-5.26-17.28-18-17.25-28.48z" fill="url(#linear-gradient-17)" fill-rule="evenodd"/><path d="M470 1088.72c0-4.33 3.24-6.09 7.2-3.91q144.63 79.08 289.2 158.18c4 2.18 7.16 7.47 7.15 11.81l.21 85.17c0 4.33-3.24 6.08-7.2 3.91-96.42-52.73-192.79-98.41-289.2-151.14-4-2.18-7.16-7.46-7.15-11.8z" fill="url(#linear-gradient-18)" fill-rule="evenodd"/><path d="M480.87 1218c0-4.84 3.6-6.74 8-4.24l250.79 137c4.41 2.5 8 8.46 8 13.3v9.56c0 4.84-3.61 6.74-8 4.24l-250.79-137c-4.42-2.5-8-8.46-8-13.3z" fill="#04c6df" opacity=".5" fill-rule="evenodd"/><path d="M822.47 294.68c3.74 2 8.1-1.24 7-5.18a4.62 4.62 0 00-2.27-2.79l-2.48-1.34c-5.45-.46-6.47 7.88-2.26 9.31zm29.82 5.57c-3.73-2-8.09 1.24-7 5.18a4.58 4.58 0 002.27 2.79l16.72 9c3.73 2 8.09-1.24 7-5.18a4.56 4.56 0 00-2.27-2.79l-16.72-9zm41.8 22.55c-3.73-2-8.09 1.25-7 5.19a4.57 4.57 0 002.27 2.78l16.72 9c3.74 2 8.09-1.24 7-5.18a4.56 4.56 0 00-2.27-2.79l-16.73-9zm41.81 22.56c-3.73-2-8.09 1.24-7 5.18a4.54 4.54 0 002.28 2.79l16.72 9c3.73 2 8.09-1.24 7-5.18a4.62 4.62 0 00-2.27-2.79l-16.72-9zm41.8 22.56c-3.73-2-8.09 1.24-7 5.18a4.62 4.62 0 002.27 2.79l16.72 9c3.73 2 8.09-1.24 7-5.18a4.55 4.55 0 00-2.27-2.79l-16.72-9zm41.81 22.55c-3.74-2-8.1 1.24-7 5.19a4.57 4.57 0 002.27 2.78l16.72 9c3.73 2 8.09-1.25 7-5.19a4.57 4.57 0 00-2.27-2.78l-16.72-9zm42 23a5 5 0 00-2.36-.78c-4.93-.24-7 5.66-3 8.36a103.25 103.25 0 0114.19 11.09c3.7 3.53 10.13-.59 7.59-5.44a4.77 4.77 0 00-.89-1.12 111.93 111.93 0 00-15.49-12.11zm34.48 34c-3.59-4.85-11.1-.23-8.16 4.82 3.46 5.31 6.58 10 9.55 15.59a4.85 4.85 0 003.74 2.5 4.62 4.62 0 004.85-6.61 150.63 150.63 0 00-10-16.3zm20.61 42.81c-1.3-4.93-9.15-4.37-9.45 1a4.64 4.64 0 00.16 1.34 97.21 97.21 0 013.18 17.22c.54 5.42 8.69 5.68 9.55.22a4.39 4.39 0 000-1 107.75 107.75 0 00-3.47-18.81zm3.63 46.69c0-5.36-8-6.4-9.47-1.13a4.67 4.67 0 00-.14 1.06l-.14 18.32c0 5.36 8 6.4 9.47 1.13a4.68 4.68 0 00.14-1.07l.14-18.31zm-.36 45.79c0-5.36-8-6.4-9.47-1.13a5.3 5.3 0 00-.14 1.06l-.16 18.31c0 5.36 8 6.4 9.47 1.13a4.67 4.67 0 00.14-1.06l.14-18.32zm-.36 45.8c0-5.36-8-6.4-9.47-1.13a5.3 5.3 0 00-.13 1.06l-.15 18.32c0 5.35 8 6.4 9.47 1.12a4.59 4.59 0 00.14-1.06l.14-18.31zm-.36 45.79c0-5.36-8-6.4-9.46-1.13a4.67 4.67 0 00-.14 1.06l-.14 18.32c0 5.36 8 6.4 9.46 1.13a4.67 4.67 0 00.14-1.06l.14-18.32zm-1.9 46.66c1.22-4.86-5.92-8-8.93-3.14a4.73 4.73 0 00-.44 1.13 36.1 36.1 0 01-6.89 14.77c-3.51 4.38 2.6 10.13 7.25 6l.32-.35a44.79 44.79 0 008.69-18.39zm-37.53 31.62a4.57 4.57 0 001.09-9 5.1 5.1 0 00-1.11-.12 47.08 47.08 0 01-16.88-3.38c-4.79-1.92-9.25 4.15-4.77 7.85a5.08 5.08 0 001.14.63 56.92 56.92 0 0020.53 4.06zm-46.38-17.53c4.23 2.47 9.57-2.49 6.11-6.88a4.61 4.61 0 00-1.28-1l-16.6-9.22c-4.24-2.47-9.57 2.49-6.12 6.88a4.92 4.92 0 001.28 1l16.61 9.22zm-41.51-23c4.23 2.47 9.57-2.49 6.11-6.88a4.64 4.64 0 00-1.28-1l-19.53-11c-4.23-1.79-7.3 6.86-1.91 9.68z" fill="url(#linear-gradient-19)" fill-rule="evenodd"/><path class="cls-6" d="M16.19 1443.63l171.21-93c18.66-8.13 45.38-14.6 64.39-5.16 17.33 8.59 45.87 26.19 58.49 33 9.59 5.21 42.87 24.22 22.14 35-61 31.61-121.31 67.16-183.22 99.27-11.71 6.07-28.84 8.26-46.82 6.84s-36.26-6.39-50.71-14.4l-30.36-16.85C7.88 1480.92.76 1472.1.06 1464c-.69-8 4.68-15.39 16.13-20.37z"/><path d="M372.9 737.15v-11.54l-.42-108.39 6.05-2.74c34.49 19 64.61 63.9 67.25 100.24 3.46 47.06-40.71 48.07-72.88 22.43z" style="mix-blend-mode:multiply" fill="url(#linear-gradient-20)" opacity=".5" fill-rule="evenodd"/><path class="cls-11" d="M325.89 618.12c3.63-5.86 15.62-10.5 22.7-11.8 8.26-1.52 18.56.6 30 6.88 29.89 16.48 56 55.4 58.29 86.9.68 9.35-.67 17.08-4 22.7-3.14 5.25-15.82 13-22.29 14.37-38.25 10.51-95.4-101.8-84.7-119.05z"/><path d="M377.84 730.93c-29.92-16.49-56-55.38-58.3-86.9s20.09-43.68 50-27.19 56 55.4 58.3 86.89-20.1 43.68-50 27.2z" fill="#a0d3fb" fill-rule="evenodd"/><path d="M399.35 676l-14.83-7.8a12.5 12.5 0 01-5.49-6.7l-5.69-17.18a12.27 12.27 0 00-5.54-6.74c-2.2-1.16-4.3-1-4.91 1.23l-3.41 12.38c-.55 2-2.51 2.49-4.93 1.21l-14.8-7.82c-5.31-2.8-7 3.19-2.42 8.75L350 668.72c2.05 2.48 3.06 5.52 2.51 7.54l-3.47 12.29c-.94 3.41 2.41 8.56 5.84 10.37a4.35 4.35 0 003.13.55l11.25-2.82a4.49 4.49 0 013.15.59 11 11 0 013.33 2.83l12.66 15.42a11.09 11.09 0 003.3 2.84c3.43 1.81 6.21-.12 4.64-4.82l-5.72-17.16c-.94-2.8-.33-5 1.49-5.44l11.27-2.75c4.08-1.01 1.31-9.35-4.03-12.16z" fill="url(#linear-gradient-21)" fill-rule="evenodd"/><path d="M287.82 498.39c-1.27 2.57-2.5 5.16-3.83 7.7l-5.49 10.47c-1.17-5.13-5.46-7.09-8.77-4.51a9 9 0 00-2.67 3.42c-.53-1.4-4.68-4.55-10.3 3.06-3.51-.36-5.36 1.05-6.83 3.76a39.44 39.44 0 00-2.36 5.48 21.17 21.17 0 00-1.64 7.44c0 5 .26 10.51.11 16.54-.16 6.55-7.94 14.83-12.17 19.6l25.48 7.7c3.89-4.66 6-8 9.91-11.82s9.05-4.32 12.87-7.3c2.13-1.67 3.36-3.88 7-8.78 3-4 4.64-8.44 7.51-12.87 2.78-4.6 2.62-3.58 2.9-8.74.22-4 1.57-7.9 1.91-10.32-5.23-2.48-9.36 3.68-9.32 9.68-3 1.61-5 5.55-5.64 7.3-4.16-5.18-1.69-7.35 0-14a66.1 66.1 0 006-13.37c.81-2.06 1.63-4.18 2.5-6.48 1.18-3.73-.33-6.38-1.51-7.12-1.01-.61-3.48-.34-5.66 3.16z" fill="url(#linear-gradient-22)" fill-rule="evenodd"/><path d="M298.44 518.7c-3.72.52-6.35 5.41-6.32 10.2-2.8 1.5-4.71 5.05-5.5 6.94 1.53-1.87 5.42-5.88 6.7-6.35.39-4.62 2.12-8.4 5.12-10.79zm-19.46-3l-.48.9a9.12 9.12 0 00-1.38-3.22c-.16 3.5-2.19 6-3.64 7.71 3.29-1.41 4.61-3.1 5.5-5.39zm-12-.27a3.13 3.13 0 00-1.35-1.3 20.14 20.14 0 01-2.86 7 11.67 11.67 0 004.21-5.66zm-10.16 3l-.11.15a9.11 9.11 0 00-1.64 0 15.37 15.37 0 01-3 7.78c2.77-2.59 4.14-4.3 4.8-7.98z" fill="#ff8978" fill-rule="evenodd"/><path d="M191.62 638.72c12.82-21.3 22.86-48 40.77-69.62 1.5-1.8 5-3.18 6.3-5.08q2.81-4.12 5.58-8.11c8.4.14 18.72 4.26 25.79 11.08q-1.5 4.28-3 8.52c-1.14 3.29 1 10.32.06 13.61-8.83 29.59-21.5 50.47-34.53 77.64-17.77 21.85-114.72 155.52-134.9 113.53-6.54-13.61-1.11-31.52 8.44-46.17 5.29-8.11 12.63-14.85 18-20.21 13.07-12.83 48-56.03 67.49-75.19z" fill="url(#linear-gradient-23)" fill-rule="evenodd"/><path class="cls-37" d="M140.69 1396.29c2.84-.52 15.53-3.93 16.73-4.33 8.1-2.68 18.61-6.71 31.91-8.61 9.34-1.33 22.36 1.28 18.18 14.79-5.59 18.1-21.94 31.31-38 37.69-5.69 2.27-12.84 2.8-19.66 6.06-5.29 2.52-6.45 6.69-10.38 9.49-8.58 6.12-18.49 5.52-25.53 3.21-8.46-2.76-11.55-6.16-13.57-15.91-1.86-9-2.11-25.14.2-31.48h.31c.35 6.17 3.93 10.15 11.85 11.6 10.79 2 30.14-8 28.35-18.84a36.5 36.5 0 01-.39-3.67z"/><path class="cls-38" d="M206.14 1387.27c4.43 5 1.54 13.43-1 18.71-7 14.41-21.87 25.32-35.59 30.79-5.69 2.27-12.74 3.54-19.56 6.8-5.29 2.52-6.35 6-10.28 8.84-8.59 6.12-19.08 5.7-26.13 3.4-8-2.61-10.84-6.88-12.83-15.56 2 4.38 5.1 7 10.68 8.83 7 2.3 17.53 2.72 26.12-3.4 3.93-2.8 5-6.32 10.28-8.84 6.82-3.26 14.85-4 20.54-6.24 16-6.39 33.36-17.82 39-35.92a8.36 8.36 0 00-1.23-7.41z"/><path d="M99.71 1378.56c1.29 9.62 2.4 15.38 1.32 25.07-.92 8.22 2.37 13.48 11.73 15.19 10.8 2 30.14-8 28.35-18.84-1.59-9.61.78-21.55 1.38-30.77z" fill="url(#linear-gradient-24)" fill-rule="evenodd"/><path class="cls-37" d="M146.55 1399.37a19.81 19.81 0 007.41 1c5.18 18.5-35.58 58.29-54.54 31.7-1.1-4.38-1.66-25.12.27-29.71 1.29-3.06 3.67-3.13 7.55-2.06 8.25 2.28 10.79 12.62 16.47 13.68 6.74 1.25 11-3.38 13.49-8.37 2.65-5.36 1.9-11.37 3.29-14 1.56-3 4.48-1.18 4 .22-.66 1.72-.41 5.73 2.06 7.54z"/><path class="cls-38" d="M202.68 1388c1.67.37 3.86 1.58 4.47 3.56.69 2.23 0 7.12 0 8.75 4.47-9.69-.08-14.77-4.38-16.37a8.46 8.46 0 00-3.79-.61c1 .56 1 1 .94 1.42a3.06 3.06 0 002.76 3.25z"/><path d="M118.29 911.15c40-5.2 54.51 27 59.44 67.19 6 49 18.49 90 4 147.55-8.35 33.19-19.34 53.57-22.2 72.5-2.78 18.44-4.7 45.6-6.31 67-1.68 22.44-13.8 97-14.14 112.63-.7 15.68-28.27 23.55-40 10.37-3.74-26.3-12.42-113.39-11-137.35 2.22-36.67 12.85-52.45 17-89.44 4.29-38-7.44-79.45-11.73-117.52-15.72-28.36-14-50.51-5.63-70.11 9.7-22.53 22.08-31.08 30.57-62.82z" fill="url(#linear-gradient-25)" fill-rule="evenodd"/><path d="M174.27 960.3a135.42 135.42 0 013.46 18c5.87 49 18.49 90 4 147.55-8.35 33.19-19.34 53.57-22.2 72.5-2.78 18.44-4.7 45.61-6.31 67-1.68 22.44-14.75 98.61-15.09 114.22-.36 8-4.95 12.83-13.3 14.82-3.33-51.09-6-96.46.52-144.12 4.25-31.23 13.51-64.13 15.51-88 4.41-52.75-8.31-94.46-31.19-111.36a38 38 0 0030.81-1.82c-3.67-30.72 15.08-63.04 33.79-88.79z" style="mix-blend-mode:multiply" fill="#1e2353" opacity=".3" fill-rule="evenodd"/><path d="M143 1368c-.37 4.46-1 8.69-1 11-.71 15.68-31.14 22.64-42.83 9.46-.42-3-1.74-8.06-2.27-12.39 10.1 7.25 29.43 12.8 46.1-8.07z" fill="url(#linear-gradient-26)" fill-rule="evenodd"/><path d="M168.7 1391.24c2-18 17.38-52.45 21-62.31l-37.23-18.26c-6.32 22.65-4.1 38.62-18.48 48.75z" fill="url(#linear-gradient-27)" fill-rule="evenodd"/><path d="M161.8 1379.4c-6.45-6.45-2.55-10.74-5-21.33-1.23-5.28-4.72-9-8-10.11-5.9-2-7.38 2.06-11.88 4.91-5.91 3.73-9.29 3.44-13.25 8.78-16.56 4-17.85 18.15-13.94 32.32 3.64 13.15 7.55 14.44 7.79 21.36.09 2.27-.73 4.78-2 9-3.37 10.91 4.11 24.07 9.31 30.76 8 10.32 27.81 17.84 42.34 16.57 2.8-.24 4.16-2.71 4.4-6 .73-9.8-3.54-26.56-4.77-37.46a83.71 83.71 0 011-20.4c1.78-10.85 4.93-22.28 4.4-27.78-.65-6.02-2.6 7.17-10.4-.62z" fill="#293288" fill-rule="evenodd"/><path class="cls-5" d="M128.87 1361c-22 1-23.33 17.78-19.19 32.94 3.6 13.16 7.54 14.44 7.79 21.36.09 2.27-.73 4.78-2 9-3.37 10.91 4.11 24.07 9.31 30.76 8 10.32 27.81 17.84 42.34 16.57a4.43 4.43 0 003.4-2.17c1.51-2.3-2.78-15.37-4.52-18.53-3.69-6.7-8.33-14.07-11.05-24.32-2-7.58-.49-19.25-2-28.1-4.02-22.19-7.24-35.14-24.08-37.51z"/><path d="M107.61 1381.65a53.82 53.82 0 002.07 12.32c3.6 13.16 7.55 14.44 7.79 21.36.09 2.27-.73 4.78-2 9-3.37 10.91 4.11 24.07 9.31 30.76 8 10.32 27.81 17.84 42.34 16.57a4.13 4.13 0 002-.7c.23-2.23-.44-4.82-2-8.36-6-13.22-20.81-32.08-22.4-44.56-.77-6 .42-10.82.15-16.25-.46-9.35-2.46-18.47-8.64-26.4-8.73-11.04-29.23-14.31-28.62 6.26z" fill="#eaeaed" fill-rule="evenodd"/><path d="M203.38 1176.12c-4.38-35.18-16.88-69.44-28.18-102.75C121.86 1042.5 130 992 152.48 957l56.72-18.11c5.76 8.74 10.06-17.72 14-11.85 8.74 13 25.85 51.68 32.54 74.66 13.81 47.4 17.92 92.66 12.54 152.3-.47 5.27-1.31 13.38-1.84 21.17 0 1.41-1 10.6-1.32 11.87-2 18.07-70.33 144.19-86.14 174.3-1.43-12.95-22.84-26-34.45-20.56 7.14-45.47 16.88-87.66 23.84-104 14.26-33.45 25.81-43.78 35.01-60.66z" fill="url(#linear-gradient-28)" fill-rule="evenodd"/><path d="M186.92 1348.51c-2.88 5.44-5.15 7.56-7.92 12.83-1.43-12.95-22.84-26-34.45-20.56.95-6.06 0-7.73 1.07-13.61 11.11-4.9 41.01 8.25 41.3 21.34z" fill="url(#linear-gradient-29)" fill-rule="evenodd"/><path d="M234.86 944c-1.78-4.12-2.18-8-3.59-12.46 10.7-33-13.89-42.77 5.85-83.74 13.58-28.17 17.29-45 10.89-58.92-14.08-30.62-102.53-68.17-136.73-71.86-23.63-2.54-37.08 21.18-36.89 45.47.52 65 23.08 71.48 25.94 139.48.23 5.36 3.25 13.35 6.93 21.13.19 4 .28 10.53.44 14.22 9.64 29.09 126.01 38.33 127.16 6.68z" fill="url(#linear-gradient-30)" fill-rule="evenodd"/><path d="M234.86 944c-1.47-3.41-2-6.68-2.94-10.22-22.28 19.28-67.76 12.93-93.35 3.44-2.57-23.94-6.71-33.92-1.43-48.73 27.26-12.2 49.87-23.67 64.74-36.7 26.35-23.08 28.47-51.08-10.76-96.74l3.59-8.43c-30-15.52-64.79-27.59-83.43-29.6-23.63-2.55-37.08 21.18-36.89 45.47.52 65 23.08 71.48 25.94 139.48.23 5.36 3.25 13.35 6.93 21.13.19 4 .28 10.53.44 14.22 9.64 29.09 126.01 38.33 127.16 6.68z" style="mix-blend-mode:multiply" fill="#ff8fd5" opacity=".5" fill-rule="evenodd"/><path d="M404.24 709.07a16.58 16.58 0 00-1.14 5.15 40.55 40.55 0 00-2.62 7.83c-.85 4.13-.53 7.38-.66 12.88-.08 3.18.46 4.82 1.18 7.91-3.38 6.3-8.7 10.18-13.67 15.38l16.09 11.69c6.79-4.26 12.09-8.75 17.93-12.45 4.75-1.79 6.41-2.8 7.83-4.22 3.73-3.7 14.7-14.7 15.33-19 .69-4.8-.65-15.89-1.79-22-2.9-15.54-9.11-31.87-10.18-24.66-1.55 1.72-.28 15.77-1.26 17.85-3.81 4.18-5.63 5.9-10.4 10.88-3 1.6-4.9 3.28-6.34 3.65a2 2 0 01-2.6-2.05c-.07-1.54 1-4.27 1.82-8.28 0-6.66-1.74-10.44-5.47-10.09a3.64 3.64 0 00-3.51 3.12 62.44 62.44 0 00-.54 6.41z" fill="url(#linear-gradient-31)" fill-rule="evenodd"/><path d="M239 771.68c22.14 3.25 68 29.09 97.49 41.68 16.45-22.34 38-49.12 51.33-58.13 1.54-1 5.43-3.13 6.62-4.53 1.94-2.26 3.82-4.57 5.64-7 8.32 1.1 20.37 11 20.21 15.68-1.34 2.34-2.71 4.78-4.09 7.3-.95 1.73-.6 5.51-1.16 7.45-4.52 15.64-29.41 51.78-41 67.9-6.7 9.32-9.06 14.78-13.6 17.57-7.29 4.46-17.07 2-35.9-2.49-15.85-3.8-67-12.3-90.59-24.15-16.6-8.35-29.34-23.78-22.75-41.1 4.19-11.07 13.54-22.28 27.8-20.18z" fill="url(#linear-gradient-32)" fill-rule="evenodd"/><path d="M131.58 734.21c-2.62 10.58 37.9 22 51.79 16.26l.29-2.56c3.58-15.79 7.1-29.21 9.57-40.29 6.46 2.62 22.31 3.39 23.71 1.27-42.72-32.52-92.68-56.57-99.1-40.15 4.23 11.9 15.17 20.35 20.64 28.1 1.45 2.06 2.58 6.35 2.86 10.65-1.57 8.38-4.91 16.42-9.76 26.72z" fill="url(#linear-gradient-33)" fill-rule="evenodd"/><path d="M216.7 709.08c-3.68 2.29-29.83-6-31.95-5.9-20.34 1-42.24-.62-46.27-6.34-5.47-7.75-16.41-16.2-20.64-28.1-6.77-19-5.45-40.45 12.79-55.38 31.7-26 81.44-6.94 88.56 22.46 2.92 12.06-.69 13.06-.1 21.14 1.11 14.88 2.88 9.27 1.44 32.81-.53 8.98-1.39 17.79-3.83 19.31z" fill="#ffa698" fill-rule="evenodd"/><path d="M137.43 720c1.11 9.63 29.54 16.41 46.78 12.58 1.85-.41 3-.74 3.66-1.86 2.53 1.33 9.44 10.83 10.22 15.56-14.9 13.7-62 5.67-67.71-10.37-1.38-3.81-2.63-11.05 7.05-15.91z" fill="#ff89db" fill-rule="evenodd"/><path d="M59 688.11c-27.1 21.61-42.37 60.53-30 82.61 11.18 20 38.44 31.78 30.05 44.44C52 825.63 35.7 836.13 55.12 853c10 8.7 34.41 32.05 84.24 20 48.57-11.79 99.55-51.79 58.62-95.53-43.06-46-17.87-56.21 6.83-92.4 13.06-19.14 24.74-57 13.55-71-19.19-24.13-31.94-6.74-50.41-15.27-35.22-16.26-64.11-4.63-80.67 20.8-14.83 22.71-6.78 51.33-28.28 68.51z" fill="url(#linear-gradient-34)" fill-rule="evenodd"/><g style="mix-blend-mode:screen" fill-rule="evenodd"><path d="M175.6 605.48c-22.8-14.66-49.87-17.88-71.78-.86C81.4 622 74.34 658 82.68 690c3.95 15.1 38.59 20.65 66.2 2 30.88-20.87 53.56-68 26.72-86.52z" fill="url(#linear-gradient-35)"/><path d="M182.52 602.06c22.83 39.62 1.58 69.86-22.93 101.11l4.78 24.13c26.76-28.7 95.76-120.01 18.15-125.24z" fill="url(#linear-gradient-36)"/></g></g></g></g></svg>