<svg width="389" height="258" fill="none" xmlns="http://www.w3.org/2000/svg"><path fill-rule="evenodd" clip-rule="evenodd" d="M85.837 45.205h225.465c6.882 0 12.511 4.787 12.511 10.638v165.329c0 5.851-5.629 10.638-12.511 10.638H85.837c-6.882 0-12.511-4.787-12.511-10.638V55.842c0-5.85 5.629-10.637 12.51-10.637z" fill="url(#paint0_linear_2503_25237)"/><path fill-rule="evenodd" clip-rule="evenodd" d="M85.837 45.205h225.465c6.882 0 12.511 4.875 12.511 10.833v3.457H73.326v-3.457c0-5.958 5.629-10.833 12.51-10.833z" fill="#3E4992"/><path fill-rule="evenodd" clip-rule="evenodd" d="M85.125 49.791a2.553 2.553 0 110 5.107 2.553 2.553 0 010-5.107zm8.795 0a2.553 2.553 0 110 5.106 2.553 2.553 0 010-5.106zm8.794 0a2.553 2.553 0 110 5.106 2.553 2.553 0 010-5.106z" fill="#5462BE"/><path style="mix-blend-mode:multiply" opacity=".35" fill-rule="evenodd" clip-rule="evenodd" d="M323.813 165.561l-114.892-.155c-2.921 0-5.308 2.56-5.308 5.66v36.283c0 3.101 2.4 5.654 5.308 5.66l114.695.309.197-47.757z" fill="#CDE7FF"/><path fill-rule="evenodd" clip-rule="evenodd" d="M316.201 207.289H201.153c-2.847 0-5.182-2.463-5.182-5.453v-34.97c0-2.99 2.342-5.453 5.182-5.453h105.652c5.581-.05 9.481-.185 14.272-4.413.284 5.388.306 10.905.306 16.314.028 3.282.036 6.022.007 7.054v-.021l-.007 21.489c0 2.997-2.335 5.453-5.182 5.453z" fill="url(#paint1_linear_2503_25237)"/><path d="M238.622 165.357h-36.365a2.655 2.655 0 00-2.655 2.655v34.281a2.655 2.655 0 002.655 2.655h36.365a2.655 2.655 0 002.655-2.655v-34.281a2.655 2.655 0 00-2.655-2.655z" fill="#fff"/><path opacity=".3" fill-rule="evenodd" clip-rule="evenodd" d="M205.282 168.012a3.691 3.691 0 013.694 3.694 3.691 3.691 0 01-3.694 3.694 3.691 3.691 0 01-3.695-3.694 3.691 3.691 0 013.695-3.694z" fill="#FF84D6"/><path fill-rule="evenodd" clip-rule="evenodd" d="M205.282 169.721a1.986 1.986 0 110 3.973 1.986 1.986 0 010-3.973z" fill="url(#paint2_linear_2503_25237)"/><path opacity=".3" d="M221.817 168.889h-10.62a.683.683 0 00-.683.683v.719c0 .377.306.683.683.683h10.62a.683.683 0 00.683-.683v-.719a.683.683 0 00-.683-.683zm-10.613 3.552h19.204c.377 0 .684.306.684.683v.712a.684.684 0 01-.684.683h-19.204a.69.69 0 01-.69-.69v-.712c0-.377.306-.683.683-.683l.007.007z" fill="#FF84D6"/><path opacity=".2" d="M204.122 177.422h32.628a2.382 2.382 0 012.378 2.377v20.735a2.381 2.381 0 01-2.378 2.377h-32.628a2.381 2.381 0 01-2.378-2.377v-20.735a2.382 2.382 0 012.378-2.377z" fill="url(#paint3_linear_2503_25237)"/><path fill-rule="evenodd" clip-rule="evenodd" d="M212.435 180.846l10.706 14.307 6.612-5.68 7.873 11.837h-34.38l9.189-20.464z" fill="url(#paint4_linear_2503_25237)"/><path fill-rule="evenodd" clip-rule="evenodd" d="M224.365 180.846c1.31 0 2.37 1.06 2.37 2.37s-1.06 2.37-2.37 2.37-2.37-1.06-2.37-2.37 1.06-2.37 2.37-2.37z" fill="#FFC770"/><path d="M284.925 165.357h-36.366a2.655 2.655 0 00-2.655 2.655v34.281a2.655 2.655 0 002.655 2.655h36.366a2.655 2.655 0 002.655-2.655v-34.281a2.655 2.655 0 00-2.655-2.655z" fill="#fff"/><path opacity=".3" fill-rule="evenodd" clip-rule="evenodd" d="M251.591 168.012a3.69 3.69 0 013.694 3.694 3.69 3.69 0 01-3.694 3.694 3.69 3.69 0 01-3.694-3.694 3.69 3.69 0 013.694-3.694z" fill="#EA80DF"/><path fill-rule="evenodd" clip-rule="evenodd" d="M251.591 169.721a1.986 1.986 0 110 3.972 1.986 1.986 0 010-3.972z" fill="url(#paint5_linear_2503_25237)"/><path opacity=".3" d="M268.126 168.889h-10.62a.683.683 0 00-.683.683v.719c0 .377.306.683.683.683h10.62a.683.683 0 00.683-.683v-.719a.683.683 0 00-.683-.683zm-10.62 3.55h19.204c.378 0 .684.306.684.684v.712a.683.683 0 01-.684.683h-19.204a.683.683 0 01-.683-.683v-.712c0-.378.306-.684.683-.684z" fill="#EA80DF"/><path opacity=".2" d="M283.06 177.422h-32.636a2.378 2.378 0 00-2.378 2.377v20.742a2.378 2.378 0 002.378 2.377h32.636a2.377 2.377 0 002.377-2.377v-20.742a2.377 2.377 0 00-2.377-2.377z" fill="url(#paint6_linear_2503_25237)"/><path fill-rule="evenodd" clip-rule="evenodd" d="M258.738 180.846l10.705 14.307 6.613-5.68 7.879 11.837h-34.387l9.19-20.464z" fill="url(#paint7_linear_2503_25237)"/><path fill-rule="evenodd" clip-rule="evenodd" d="M270.675 180.846a2.37 2.37 0 110 4.74 2.37 2.37 0 110-4.74z" fill="#FFC770"/><path fill-rule="evenodd" clip-rule="evenodd" d="M291.957 168.732h21.411c.442 0 .797 1.132.797 2.513v1.025c0 1.381-.362 2.513-.797 2.513h-21.411c-.434 0-.797-1.132-.797-2.513v-1.025c0-1.381.356-2.513.797-2.513zm.05 13.397h21.411c.442 0 .797 1.132.797 2.512v1.026c0 1.38-.363 2.512-.797 2.512h-21.411c-.434 0-.797-1.132-.797-2.512v-1.026c0-1.38.356-2.512.797-2.512zm.05 13.402h21.418c.441 0 .797 1.132.797 2.513v1.025c0 1.381-.363 2.513-.797 2.513h-21.418c-.434 0-.797-1.132-.797-2.513v-1.025c0-1.381.356-2.513.797-2.513z" fill="#fff"/><path fill-rule="evenodd" clip-rule="evenodd" d="M198.149 257.345c-86.114 0-155.924-4.21-155.924-9.405 0-5.195 69.81-9.405 155.924-9.405 86.113 0 155.924 4.21 155.924 9.405 0 5.195-69.811 9.405-155.924 9.405z" fill="#9871D0" opacity=".35"/><path d="M245.104 253.927c58.644 0 106.184-2.68 106.184-5.985s-47.54-5.985-106.184-5.985-106.184 2.68-106.184 5.985 47.54 5.985 106.184 5.985z" fill="#9871D0" opacity=".35"/><path fill-rule="evenodd" clip-rule="evenodd" d="M178.709 72.81a9 9 0 019 9v56.058a9 9 0 01-9 9H99.115a9 9 0 01-9-9V81.811a9 9 0 019-9h79.595z" fill="#CDE7FF" opacity=".5"/><rect x="85.934" y="70.422" width="97.35" height="70.474" rx="9" fill="#fff"/><path fill-rule="evenodd" clip-rule="evenodd" d="M90.257 70.422h88.704c2.377 0 4.323 2.446 4.323 5.434v1.733h-97.35v-1.733c0-2.988 1.944-5.434 4.323-5.434z" fill="#4A9FF8"/><path fill-rule="evenodd" clip-rule="evenodd" d="M91.465 72.58a1.453 1.453 0 010 2.907 1.453 1.453 0 010-2.907zm5.003 0a1.452 1.452 0 110 2.905 1.452 1.452 0 010-2.905zm5.004 0a1.454 1.454 0 010 2.907 1.453 1.453 0 010-2.907z" fill="#fff"/><g clip-path="url(#clip0_2503_25237)" fill-rule="evenodd" clip-rule="evenodd"><path d="M186.316 163.185c-6.012-6.265-14.59-9.217-28.672-19.596-4.991-3.679-9.479-8.013-13.294-13.352-8.848-12.389-18.131-16.524-27.157-15.117-8.806 1.374-17.363 8.026-25.027 17.45-28.655 35.228-24.01 76.438 9.761 92.958 21.336 10.438 70.912 4.106 85.385-17.525 5.987-8.947 11.285-32.022-1-44.822l.004.004z" fill="url(#paint8_linear_2503_25237)"/><path style="mix-blend-mode:multiply" opacity=".25" d="M112.946 116.191c-7.303 2.529-14.357 8.478-20.78 16.379-28.655 35.228-24.01 76.438 9.761 92.958 15.125 7.403 44.449 6.369 65.394-2.566l.229-.095c8.494-3.658 15.594-8.619 19.766-14.859 1.977-2.952 3.874-7.444 5.095-12.593-9.749 10.338-42.431 22.495-80.3-6.115-8.519-6.44-13.896-16.678-11.894-26.7 1.361-6.826 5.389-12.265 6.925-29.573.369-4.144 0-11.33 5.812-16.831l-.008-.005z" fill="url(#paint9_linear_2503_25237)"/><path d="M87.483 188.23c1.486-.113 2.728-.167 3.965-.341-2.13-8.079-2.956-16.055-2.59-23.677.157-3.26.526-6.456 1.108-9.57-2.38-.349-5.007-.623-7.988-.835 2.827-.373 5.58-.56 8.254-.515 2.71-13.073 9.117-24.615 18.512-33.185a59.621 59.621 0 015.223-4.247l.868-.245c-1.781 1.283-4.052 3.488-5.663 4.962-9.267 8.457-15.599 19.837-18.297 32.732 9.781.307 18.446 3.845 25.575 13.157-9.786-6.875-15.424-10.105-25.857-11.729a69.882 69.882 0 00-1.105 9.508c-.36 7.581.461 15.511 2.587 23.549.98-.175 1.98-.44 3.126-.885l.229.59a17.368 17.368 0 01-3.19.909c.105.374.204.743.312 1.117a16.144 16.144 0 003.218-.901l.228.59a16.86 16.86 0 01-3.267.921c.137.457.274.914.415 1.37 1-.174 2.022-.44 3.193-.896l.228.589a17.183 17.183 0 01-3.23.918c2.89 8.98 7.423 18.039 13.763 26.837 2.504 3.47 5.609 7.19 8.69 10.566 19.442-1.362 29.909-5.41 39.944-9.284 7.722-2.98 15.511-5.986 27.729-7.925l.1.627c-12.152 1.926-19.908 4.92-27.601 7.888-9.815 3.791-19.48 7.552-38.018 9.009a58.092 58.092 0 01-2.15-.315l.008.012a8.561 8.561 0 01-1.063-.153 116.258 116.258 0 01-8.154-10.06c-6.402-8.885-10.973-18.035-13.883-27.107-1.263.179-2.525.237-4.04.353l-.046-.635c1.458-.108 2.678-.162 3.89-.332-.14-.457-.278-.914-.415-1.366-1.25.174-2.499.232-4.002.344l-.046-.635c1.445-.108 2.662-.162 3.87-.328-.108-.369-.208-.743-.312-1.113-1.274.183-2.549.241-4.085.357l-.045-.635.012.009zm65.266-17.525c12.139-1.403 11.849-13.016 21.344-16.092-9.308-.05-12.958 13.543-21.344 16.092zm13.634 5.779c5.837-1.2 8.976-1.179 14.697-.05-5.127-2.823-10.383-2.25-14.697.05zm-.058-.05c6.389-4.239 9.316-4.799 16.183-5.11-6.779-1.802-11.762.66-16.183 5.11zm.56-.581c5.36-5.484 8.105-6.647 14.752-8.391-7.005-.34-11.364 3.114-14.752 8.391z" fill="#DA8D00"/><path style="mix-blend-mode:multiply" opacity=".5" d="M106.901 120.912c-4.737 1.98-10.658 6.352-12.588 9.067 4.152 4.85 18.596 10.629 20.725 14.253 9.466 16.118-1.503 20.435 4.883 33.007 1.976 3.89 9.947 6.618 21.049 8.847 11.546 2.321 17.629 2.234 22.025 8.142 3.783 5.086 5.468 13.605 6.054 27.962 9.486-4.334 15.714-9.678 19.82-16.823 2.051-3.57 3.371-8.565 4.505-12.418.124-24.462-2.653-35.356-38.288-42.593-1.054-4.143-1.2-7.336-.793-9.603l-13.547-9.956c-17.583-15.087-11.247-19.33-33.841-9.885h-.004z" fill="url(#paint10_linear_2503_25237)"/><path d="M124.795 91.938c-1.852 4.36-1.773 5.302-3.637 6.501-1.864 1.2-6.016 4.152-13.344 3.297-1.748-.204-3.105-.332-5.007-.071-5.488.756-8.332 7.482-8.785 12.987-.573 6.992 1.486 14.315 7.809 18.085 2.002 1.196 19.543 5.962 19.692 21.029 13.087-.287 23.541-9.919 28.519-36.855 1.179-6.373-4.837-7.922-5.713-9.707-1.15-2.346-.706-5.202.822-10.434a8.165 8.165 0 00.32-2.067c.041-1.756-.478-3.38-1.13-4.667-3.362-6.626-15.664-7.245-19.554 1.902h.008zm-3.309 8.561c-6.402 4.11-17.973.884-22.428 5.567-2.092 2.201-3.778 5.85-3.106 12.767-2.038-6.253 1.288-14.855 6.992-16.18 1.732-.402 2.923-.348 4.629-.211 5.456.44 9.288-.652 13.913-1.939v-.004z" fill="url(#paint11_linear_2503_25237)"/><path d="M142.39 92.033c-.826 5.68-6.759 5.19-8.349 10.546-2.562-2.317-3.263-1.316-4.355.423-.154.245-.245 1.042-.39 1.906-2.039 1.777-7.49.781-13.539 2.445-8.64 2.375-17.446 8.819-10.99 23.566-5.373-17.035 6.776-21.556 15.615-22.602a75.686 75.686 0 015.43-.445c-5.468.677-9.478 1.719-12.351 2.981-5.352 2.35-9.902 7.486-7.407 17.081 2.441 9.395 16.358 9.017 16.777 24.881 18.679-1.835 26.792-21.659 24.284-38.329-.494-3.288-3.608-3.338-3.894-5.119-.602-3.766.39-7.436.344-8.029-.187-2.375 2.819-5.012-1.179-9.309l.004.004z" fill="#22043D"/><path d="M145.023 96.6c-2.981 9.109.818 9.644 3.4 12.127 6.942 6.68 2.475 13.605-3.375 20.319 3.284-5.825 9.619-13.772 2.686-19.999-2.545-2.288-7.071-1.636-2.711-12.447z" fill="#25063F"/><path d="M145.089 96.87c-3.388 9.893.133 9.299 2.711 11.786 6.942 6.68 2.616 12.202-2.757 20.389 3.285-5.825 9.62-13.771 2.687-19.999-2.545-2.287-7.004-1.366-2.645-12.173l.004-.004z" fill="#150226"/><path d="M120.27 101.342c-3.098 1.204-8.125 1.498-12.618 1.893-8.818.768-12.318 4.446-11.583 15.615.116-11.497 4.334-14.399 13.36-14.469 14.677-.112 14.955 2.084 27.8-10.521-4.948-2.163-12.899 5.904-16.955 7.482h-.004z" fill="#22043D"/><path d="M159.255 115.026c2.175-1.677 2.362-1.656 2.553-4.429.087-1.225.249-2.458.619-3.314.527-1.216 1.262-1.415 1.262.91.183 2.171-.15 2.051 2.126 1.112 1.324-.548 2.262-.224 3.74.179.768.207 2.828 1.05 3.106 1.333.747.747.34 1.926-1.175 1.199a15.589 15.589 0 00-2.753-.979c.943.664 1.292.465 1.366.842.233 1.184.096 3.314-.706 4.646-1.461 2.433-4.052.698-5.447.993-.959.203-1.548.772-3.981 2.374l-.71-4.87v.004z" fill="url(#paint12_linear_2503_25237)"/><path d="M168.351 111.228c-1.955-.016-2.748-.108-3.255.511-1.108 1.345-.768 3.371-.614 4.957-.943-2.304-.635-2.777-3.023-1.511.436-.689 2.525-3.724 2.969-3.919.909-.386 2.665-.611 3.923-.038z" fill="#FF8C7B"/><path d="M131.301 122.376c10.5 21.535 23.283 6.315 31.906-4.069-.423-2.549-1.578-4.031-3.4-4.562-6.784 6.68-15.2 13.306-19.941 2.441-3.928-6.904-10.982 1.233-8.565 6.19z" fill="url(#paint13_linear_2503_25237)"/><path style="mix-blend-mode:multiply" opacity=".5" d="M131.301 122.376c10.5 21.531 23.283 6.381 31.906-4.002-5.007 4.309-8.266 6.19-10.359 6.95-.606-1.744-.884-2.807-2.898-4.098-4.18 1.686-7.332 1.262-10.084-5.04-3.928-6.904-10.982 1.233-8.565 6.19z" fill="url(#paint14_linear_2503_25237)"/><path d="M138.874 110.84c5.252 3.089 7.88 7.369 10.271 10.487 2.52 3.284 2.994 6.535 1.636 10.898-.108 6.651-.361 14.536 1.416 20.56-6.93 8.922-20.855 9.495-26.414 5.024 1.466-14.656-9.914-29.104-6.016-38.911 2.168-5.451 12.9-11.712 19.107-8.063v.005z" fill="url(#paint15_linear_2503_25237)"/><path style="mix-blend-mode:multiply" opacity=".5" d="M151.528 127.475c.096 3.442-.822 7.83-.797 12.14.008 1.553.012 3.106.125 4.608-2.508 2.168-20.311 14.905-29.486-13.597-1.37-4.255-.366-11.184 6.464-10.636 5.688.456 9.487 16.656 23.686 7.481l.008.004z" fill="url(#paint16_linear_2503_25237)"/><path d="M163.631 119c.589-.395 1.502-.54 2.756-1.063 3.832-2.894 5.115-5.572 8.42-5.601-.789 1.955-1.922 3.483-3.101 5.144-1.765 2.491-1.956 4.289-3.176 5.663-1.516 1.71-4.451 1.528-7.544 4.916l-2.039-3.6c1.47-1.532 2.367-3.911 4.679-5.459h.005z" fill="url(#paint17_linear_2503_25237)"/><path d="M164.851 119.033c.656-.274.585-.536 1.839-1.063 3.832-2.894 4.708-4.962 7.096-5.468-.656 1.549-3.114 4.505-4.289 6.161-1.765 2.491-2.197 1.673-3.413 3.048-.012.012-2.906.485-3.741.942.486-1.262.536-2.794 2.504-3.624l.004.004z" fill="#FF8C7B"/><path d="M173.67 109.367c.801 1.399.303 2.201-1.42 4.463-1.379 1.806-3.463 4.268-4.966 6.07-1.665 1.993-2.653 2.309-3.545 1.536 3.329-4.006 6.705-7.979 9.931-12.069z" fill="url(#paint18_linear_2503_25237)"/><path d="M162.347 122.66c1.433-2.03 1.811-2.748 4.007-3.902 2.354-2.969 3.031-3.417 5.023-3.699-1.573 1.594-2.611 3.981-3.906 5.638l-1.968 1.968-2.512 2.038-.644-2.038v-.005z" fill="url(#paint19_linear_2503_25237)"/><path d="M130.566 122.533c3.093 5.53 5.144 9.877 8.403 10.885 4.501 1.391 9.599-1.623 20.763-10.557 2.08.925 3.376 2.54 3.529 4.413-4.156 4.837-12.542 14.261-19.874 17.122-3.837 1.494-7.498 1.382-11.231-1.242-3.836-2.694-8.278-7.298-11.064-12.488-2.408-4.48-3.762-9.225 1.005-12.829 2.441-1.843 5.451-.689 8.469 4.696z" fill="url(#paint20_linear_2503_25237)"/><path d="M131.612 104.152c.075 2.794-.556 5.335-1.793 7.855 1.926 2.396 6.02 2.101 7.22.366-.017-1.237-.079-2.383-.025-3.645l-5.402-4.576z" fill="#FFA698"/><path d="M131.612 104.152a15.677 15.677 0 01-.369 3.874c.265 2.74 4.944 5.256 5.771 3.23a36.112 36.112 0 010-2.528l-5.402-4.576z" fill="url(#paint21_linear_2503_25237)"/><path d="M142.528 93.988c.851 1.93 1.183 3.79.552 6.265-.162.627-.125 1.042-.004 1.478.693 2.5.494 3.214-.299 5.02-.772 1.756-.881 2.715-1.595 3.251-.735.552-1.714.556-2.536.49-1.682-.142-4.376-1.661-5.904-2.815-1.133-.856-1.017-1.308-1.366-2.554-1.515-1.768-.224-2.707.374-2.732 1.718-.078 1.702 1.885 2.632 2.458.336-3.404 7.623-8.162 8.146-10.857v-.004z" fill="#FFA698"/><path d="M143.067 95.453c.419 1.45.486 2.952.017 4.8-.162.626-.125 1.042-.004 1.478.693 2.499.494 3.213-.299 5.019-.345.789-.557 1.416-.752 1.914a1.58 1.58 0 01-2.026.274c-.648-.411-1.212-1.333-1.179-2.728.021-.992-1.877-1.926-2.142-2.976-.22-.872.834-1.649 1.461-2.039 2.196-1.366 3.745-3.43 4.928-5.738l-.004-.004z" fill="url(#paint22_linear_2503_25237)"/><path d="M142.527 93.988c-1.548 4.015-7.431 6.357-8.145 10.857 2.175-4.467 7.909-6.896 8.145-10.857z" fill="#FF8F7F"/><path d="M131.364 105.074c3.055 9.284-3.7 12.422-6.805 12.539-3.629.132-7.498-3.791-11.33.419 5.634-12.04 7.618-3.214 18.135-12.958z" fill="#22043D"/><path d="M127.864 97.966c-8.993 4.45-12.174 4.832-11.181 3.387.552-.797 2.129-3.138 4.969-4.67 2.035-1.096 5.153-2.462 8.644-3.388l-2.432 4.67z" fill="#1C8DF3"/><path d="M123.147 99.884c-1.362-7.012 3.102-13.148 8.561-15.191 6.307-2.362 15.524.257 14.54 9.142-.229-.266-.528-.764-1.254-.91.676-6.987-9.18-6.937-7.926 1.188l.17-.033c-4.911 1.76-10.354 4.903-14.095 5.804h.004z" fill="#1C8DF3"/><path d="M123.147 99.885c-1.362-7.013 3.101-13.149 8.561-15.192-5.414 2.986-4.87 11.46-2.877 13.033-2.097.946-4.052 1.768-5.684 2.159z" fill="#0F6EEE"/><path d="M128.901 97.676c-8.963 4.422-13.19 5.086-12.227 3.666.885.308 5.261-1.191 12.028-4.533l.199.867z" fill="#329CF9"/><path d="M145.272 92.97c-.199-.673.212-1.341-.096-1.84-1.835-.672-8.091.4-8.519 1.147-.12.519.112 1.154.419 1.835 2.263-.719 5.41-1.715 8.2-1.142h-.004z" fill="#1C8DF3"/><path d="M142.76 90.911c.312-.029.81-.058 1.109-.004.693.12.926.382.967.934.046.644-.265.984-.639.976a18.136 18.136 0 00-1.578.02l.141-1.93v.004z" fill="#0F6EEE"/><path d="M142.146 90.969c.324-.03.942-.108 1.241-.054 1.499.266 1.208 1.806.511 1.847l-1.582.1-.17-1.893z" fill="#1C8DF3"/><path d="M142.358 91.637c-.121.013-.208.129-.195.262.012.133.12.232.24.224.121-.013.208-.129.195-.262-.012-.133-.12-.232-.24-.224zm-1.752.276c-.121.012-.208.128-.195.261.012.133.12.233.24.224.121-.012.208-.128.195-.261-.012-.133-.12-.233-.24-.224zm-1.807.394c-.12.013-.207.129-.195.262.013.132.121.232.241.224.12-.013.208-.129.195-.262-.012-.133-.12-.232-.241-.224z" fill="#0F6EEE"/><path d="M145.255 86.312c2.113.56 2.865 2.782 1.748 10.347-2.325-8.159-7.037-5.016-10.176-4.443 2.375-8.934 12.617-8.88 10.952-2.163.1-2.134-.942-3.903-2.528-3.745l.004.004z" fill="#441D57"/><path d="M147.406 93.371a54.573 54.573 0 01-.399 3.288c-2.325-8.158-7.037-5.02-10.176-4.442.561-2.11 1.561-3.72 2.74-4.858-.236.623-.386 1.275-.274 2.126 3.944-.897 7.519.797 8.034 4.592a4.63 4.63 0 01.075-.702v-.004z" fill="#22043D"/></g><path fill-rule="evenodd" clip-rule="evenodd" d="M285.46 72.81a9 9 0 019 9v56.058a9 9 0 01-9 9h-79.593a9 9 0 01-9-9V81.811a9 9 0 019-9h79.593z" fill="#CDE7FF" opacity=".5"/><rect x="192.686" y="70.422" width="97.35" height="70.474" rx="9" fill="#fff"/><path fill-rule="evenodd" clip-rule="evenodd" d="M197.008 70.422h88.705c2.377 0 4.323 2.446 4.323 5.434v1.733h-97.35v-1.733c0-2.988 1.944-5.434 4.322-5.434z" fill="#4A9FF8"/><path fill-rule="evenodd" clip-rule="evenodd" d="M198.217 72.58a1.454 1.454 0 010 2.907 1.453 1.453 0 010-2.907zm5.002 0a1.452 1.452 0 110 2.905 1.452 1.452 0 010-2.905zm5.004 0a1.453 1.453 0 11-.002 2.906 1.453 1.453 0 01.002-2.906z" fill="#fff"/><g clip-path="url(#clip1_2503_25237)" fill-rule="evenodd" clip-rule="evenodd"><path d="M296.727 119.963c1.43.205 3.753.424 4.935 3.396-2.94 10.192-6.106 19.033-12.099 24.077-6.502 5.47-22.389 1.411-31.062-2.908-13.155-6.557-19.572-17.965-10.435-18.431 1.388-.07-.638-1.54 1.114-1.234 4.459.786 13.274 4.204 16.526 5.938 6.275 3.34 12.415 7.061 16.896 5.571 5.954-1.977 11.726-12.86 14.126-16.415l-.001.006z" fill="url(#paint23_linear_2503_25237)"/><path style="mix-blend-mode:multiply" opacity=".35" d="M301.638 123.293l.026.059c-2.941 10.193-6.106 19.034-12.099 24.078-6.503 5.47-22.389 1.411-31.062-2.909-13.155-6.556-17.453-16.864-8.404-18.239.24-.037.498.109.814.089 10.021.787 13.684 9.112 22.8 14.555 14.841 8.869 21.777-6.445 27.926-17.639l-.001.006z" fill="url(#paint24_linear_2503_25237)"/><path d="M268.235 174.126c-3.2-7.575-3.843-24.43-5.857-33.521-1.246-5.619-3.169-10.406-6.856-13.095-4.135-3.018-11.573-4.308-16.616-3.571-7.699 1.129-12.792 7.641-11.882 16.921 1.502 15.257 6.907 20.697 7.196 39.539 10.983 2.646 21.205 2.849 34.015-6.273z" fill="url(#paint25_linear_2503_25237)"/><path d="M237.562 119.087c-.321 2.16-.6 3.826-1.191 5.923.624 3.38 3.272 6.319 6.363 6.199 2.663-.107 3.909-4.088 3.217-6.37a31.32 31.32 0 01.079-3.064l-6.454-2.567-2.014-.121z" fill="#FFA698"/><path d="M237.562 119.087c-.092.628-.394 2.508-.492 3.075 1.22 3.895 6.469 4.42 8.887 4.084-.029-1.081.002-3.394.073-4.471l-6.454-2.567-2.014-.121z" fill="url(#paint26_linear_2503_25237)"/><path d="M236.206 118.216c-1.676.481-2.162-.056-2.662-1.159-.514-1.133-.455-.815-1.256-1.65a4.751 4.751 0 01-.87-1.229c-.686-1.391-.449-2.298-.577-3.408-.151-1.381-.799-1.849-1.129-2.714-1.591-4.213 1.781-8.332 6.021-6.715 1.225-2.773 3.547-3.038 5.784-2.017 2.335-1.727 4.727-1.777 6.585-.008 3.601 3.431.893 7.432-1.256 8.639l-6.661 5.725-3.979 4.536z" fill="url(#paint27_linear_2503_25237)"/><path d="M236.206 118.216c-1.676.481-2.162-.055-2.663-1.159-.513-1.133-.454-.814-1.255-1.65a4.764 4.764 0 01-.87-1.228c-.686-1.392-.449-2.298-.577-3.409l-.002-.047c1.226 1.723 3.506 1.865 3.485-.712 1.036-.98 1.656-2.142 1.691-3.44.048-1.64.648-2.602 2.51-2.251 4.315.806 7.956 2.689 11.326-1.159-.072 2.145-1.654 4.026-3.01 4.787l-6.661 5.725-3.979 4.536.005.007z" fill="#22043D"/><path d="M247.643 107.377c.717 4.382 1.834 8.837.503 13.189-.485 1.579-1.387 2.616-3.807 2.328-1.677-.202-3.467-.802-5.049-1.273-2.403-.729-2.156-1.686-2.619-2.463-.187-.308-.467-.645-.856-1.026-1.011-.99-2.598-1.496-2.792-3.006-.183-1.388.802-2.234 1.427-1.327.873 1.269 2.789 3.363.849-3.556 1.311-1.196 1.54-1.64 1.807-2.824.261-1.16.566-2.077 1.974-1.486 2.887 1.218 5.406 2.424 8.562 1.45l.001-.006z" fill="url(#paint28_linear_2503_25237)"/><path d="M247.643 107.377c.067.427.147.856.22 1.284-4.22 1.132-6.534-.556-9.426-2.041-.827 1.771-1.031 2.281-2.304 3.77.081.483.836 3.15.614 4.511-.184 1.111-.776 1.007-1.459.405-.463-.406-1.568-2.305-2.241-.976.19-.878.909-1.262 1.406-.543.873 1.269 2.788 3.363.848-3.556 1.311-1.195 1.54-1.64 1.807-2.824.262-1.16.567-2.077 1.975-1.486 2.887 1.218 5.406 2.424 8.561 1.45l-.001.006z" fill="#FFA698"/><path d="M213.089 95.746c1.019-2.49.986-3.206 2.9-5.09 1.745-1.725 2.11-2.53 2.515-4.855.106-.599.281-1.5.67-2.464.61-1.178 1.483-2.687 1.825-3.535 1.015-2.497-.846-2.503-2.073-.553l-2.167 3.437c-3.582-.106-4.293-1.616-5.772.25-.909 1.148-1.811 3.326-1.994 4.55-.466 3.16 1.118 1.697-.743 6.477 2.12 1.439 2.296 1.54 4.837 1.789l.002-.006z" fill="url(#paint29_linear_2503_25237)"/><path d="M216.56 84.894c-.114-.855 1.161-5.021 1.264-6.21.23-2.685-1.546-2.142-2.148.086l-1.052 3.92 1.93 2.203.006.001z" fill="#FFA698"/><path d="M215.115 91.456c-.292-1.202.646-4.194.018-4.89-.064-.126-.465.033-1.815.682a.965.965 0 01-1.288-.45.971.971 0 01.45-1.289c2.694-1.3 3.463-1.731 4.216-.171.767 1.211 1.407 2.115 1.374 2.83-.055 1.326-2.05 2.502-2.955 3.287z" fill="#FFA698"/><path d="M213.707 85.906a.966.966 0 01-1.198.651.968.968 0 01-.651-1.198l.928-3.067a.967.967 0 011.198-.65c.509.15.802.689.651 1.197l-.928 3.067zm-1.84-.871a.84.84 0 11-1.613-.479l.811-2.676a.84.84 0 011.046-.567.84.84 0 01.567 1.046l-.811 2.676z" fill="#FFA698"/><path d="M215.721 122.713c3.594.885 11.782 3.375 18.617 3.06 7.15-.329-.211 17.652-3.87 17.535-8.668-.275-24.289-9.006-28.007-12.537-10.923-10.416.269-29.367 5.183-39.09 1.657-1.174 5.546-.102 7.186 2.094-1.883 7.513-10.276 26.17.894 28.926l-.003.012z" fill="url(#paint30_linear_2503_25237)"/><path style="mix-blend-mode:multiply" opacity=".35" d="M234.216 180.332c5.255-12.488.808-31.297-2.963-43.625-31.808-5.448-36.18-16.874-23.609-45.025-4.914 9.722-16.105 28.673-5.182 39.088 3.692 3.499 16.45 10.74 24.9 12.011.123 3.768 1.4 8.047 2.683 12.819 2.132 7.925 4.389 16.508 4.171 24.732z" fill="url(#paint31_linear_2503_25237)"/></g><path fill-rule="evenodd" clip-rule="evenodd" d="M325.752 239.076c.343 1.7 1.379 3.002 1.545 4.249.283 2.155-.958 4.315-3.506 4.337l-16.658.15c.881-5.689 9.789-2.537 12.78-8.847l3.878.216 1.966-.111-.005.006z" fill="url(#paint32_linear_2503_25237)"/><path fill-rule="evenodd" clip-rule="evenodd" d="M314.395 156.379c-.964 4.643-1.773 5.878-1.257 11.628l6.42 71.728c.044.527 1.357 1.408 2.77 1.541 1.656.155 3.451-.56 3.485-1.734.382-12.432 1.855-27.599 2.509-37.432.665-9.994 2.554-20.342 4.099-30.674.809-5.412.466-10.054 1.607-16.752l-13.722-.498-5.911 2.188v.005z" fill="url(#paint33_linear_2503_25237)"/><path fill-rule="evenodd" clip-rule="evenodd" d="M314.395 156.379c-.964 4.642-1.772 5.878-1.257 11.628l3.097 34.446c2.67 1.839 3.706 2.393 6.686 3.567.814 15.711 2.842 35.383 2.897 33.516.377-12.431 1.856-27.599 2.51-37.432.665-9.994 2.554-20.342 4.099-30.674.809-5.412.466-10.054 1.607-16.752l-13.722-.498-5.911 2.188-.006.011z" fill="url(#paint34_linear_2503_25237)"/><path fill-rule="evenodd" clip-rule="evenodd" d="M358.552 247.95c-1.722 1.739-2.31 2.465-4.498 2.52-1.789.05-2.387-.515-3.401-1.523-1.119-1.113-1.468-1.811-1.446-2.798.044-1.883.859-3.589.986-5.949l3.59.271 1.562-.836c.676 1.102 2.122 3.141 3.135 4.936.499.88.316 2.454.078 3.379h-.006z" fill="url(#paint35_linear_2503_25237)"/><path fill-rule="evenodd" clip-rule="evenodd" d="M339.269 156.6c1.357 2.87 3.861 5.224 5.357 12.32.31 1.485.515 2.737.659 3.9.87 6.92 1.23 13.512 2.349 20.481 2.476 15.372 5.052 31.332 7.794 46.412.432 2.376-4.576 2.21-5.058 1.052-5.074-12.232-8.736-24.751-13.217-37.149-6.199-17.157-14.044-33.621-19.412-49.919l21.522 2.903h.006z" fill="url(#paint36_linear_2503_25237)"/><path fill-rule="evenodd" clip-rule="evenodd" d="M339.269 156.6c1.357 2.87 3.861 5.224 5.357 12.32.31 1.485.515 2.737.659 3.9.87 6.92 1.23 13.512 2.349 20.481 2.476 15.372 5.052 31.332 7.794 46.412.432 2.376-10.631-34.286-11.113-35.444-4.01.316-5.24.399-7.029-.288-5.928-17.034-13.922-33.216-19.539-50.284l21.522 2.903z" fill="url(#paint37_linear_2503_25237)"/><path fill-rule="evenodd" clip-rule="evenodd" d="M312.695 152.738c-1.003 4.82-1.756 6.094-1.308 12.071l2.776 37.127c4.504 2.532 24.264 4.859 35.027-1.479-1.412-7.484-3.196-23.411-4.094-30.59a47.058 47.058 0 00-.686-4.05c-1.552-7.368-4.488-9.866-5.895-12.846l-5.639-.759c.061-.405.127-.815.199-1.23l-12.724-.46-4.172-.565c.144.443.294.886.443 1.33l-3.922 1.451h-.005z" fill="url(#paint38_linear_2503_25237)"/><path fill-rule="evenodd" clip-rule="evenodd" d="M290.696 109.318c-.138-1.85-.703-1.966-3.113-3.512-.499-.321-.981-.753-2.083-2.027-.77.637-.194 1.312.332 2.254.255.454.527 1.08.637 1.562-2.166-.133-2.903-.537-3.407-1.108-2.531-2.825-2.991-3.346-6.32-3.334 1.556 2.022 2.725 3.323 3.539 5.445.499 1.302.394 1.202 1.297 1.612 1.224.56 2.26 1.141 3.412 1.706 2.565 1.252 2.499 1.889 4.16 4.244l3.175-1.812c-1.119-2.376-1.43-2.398-1.623-5.03h-.006z" fill="url(#paint39_linear_2503_25237)"/><path fill-rule="evenodd" clip-rule="evenodd" d="M289.272 111.241c-1.218-2.891-2.249-3.074-5.866-4.11l-2 1.208 1.701-.643c2.487 1.185 4.891 1.041 6.16 3.551l.005-.006z" fill="#FF8F7F"/><path fill-rule="evenodd" clip-rule="evenodd" d="M322.549 111.994c-5.401 1.745-9.29 8.36-12.769 12.88-4.337 6.426-5.905 2.543-9.179-1.324-3.241-3.828-6.055-7.024-8.764-10.924-1.185-.05-3.108.72-4.061 2.603 3.291 5.756 9.95 22.292 17.379 22.541 3.844.128 9.251-2.72 12.824-7.367 6.077-7.906 7.512-10.409 4.565-18.409h.005z" fill="url(#paint40_linear_2503_25237)"/><path style="mix-blend-mode:multiply" opacity=".5" fill-rule="evenodd" clip-rule="evenodd" d="M322.616 111.943c-5.689 1.734-6.642 8.194-9.335 14.736-1.335 3.246-3.213 7.501-6.908 8.537-4.01 1.124-7.822-2.754-10.747-5.529 2.842 4.388 6.105 7.966 9.534 8.083 3.845.127 9.252-2.72 12.825-7.368 6.077-7.905 7.573-10.459 4.631-18.453v-.006z" fill="url(#paint41_linear_2503_25237)"/><path fill-rule="evenodd" clip-rule="evenodd" d="M333.103 88.738c5.174-2.2 7.816.067 9.844 3.756 2.122 3.872 2.354 5.844 3.795 7.29 2.443 2.449 5.633 1.95 12.159 2.382 11.501.759 12.11 11.589 8.797 19.317-3.927 9.169-15.173 15.318-24.081 16.536-11.018 1.502-14.353-3.744-14.636-10.093-.188-4.188 1.213-6.941.881-8.581-1.363-6.648-7.335-4.631-7.739-12.132-.227-4.177 3.723-7.107 3.28-12.376-4.765-9.528 4.287-9.434 7.711-6.093l-.011-.006z" fill="url(#paint42_linear_2503_25237)"/><path fill-rule="evenodd" clip-rule="evenodd" d="M368.164 120.304a21.89 21.89 0 01-.465 1.18c-3.928 9.168-15.174 15.317-24.082 16.536-11.018 1.501-14.353-3.745-14.636-10.094-.188-4.188 1.214-6.941.881-8.581-1.363-6.647-7.334-4.631-7.739-12.132-.227-4.177 3.723-7.107 3.28-12.375a23.689 23.689 0 01-.261-.543c2.543.698 5.933.144 9.678-1.695.909 2.221.848 4.67 1.058 7.085 2.427-1.396 3.136.388 3.308 2.986.249 3.767.382 4.642 1.628 5.252 7.789 3.794 8.448 4.536 14.692 11.86 4.487 5.263 7.113 4.099 12.663.521h-.005z" fill="#22043D"/><path fill-rule="evenodd" clip-rule="evenodd" d="M341.368 127.738c-.532 9.434-.731 19.505-.188 28.724-10.26 2.199-19.245 2.443-29.162-.937.499-9.838 1.923-22.74 3.784-32.939.831-4.565 2.931-9.528 6.565-10.586 2.598-.754 5.462-1.069 8.365-.953 6.365.255 12.608 2.138 17.156 7.672l-6.526 9.014.006.005z" fill="url(#paint43_linear_2503_25237)"/><path fill-rule="evenodd" clip-rule="evenodd" d="M334.249 105.711c0 2.731.028 3.484.715 6.127-.72 2.698-5.507 4.293-6.687.033.399-1.285.388-2.177.344-3.235l2.205-1.989 3.418-.931.005-.005z" fill="#FFA698"/><path fill-rule="evenodd" clip-rule="evenodd" d="M334.249 105.711c0 .798 0 1.429.022 1.989-.803 1.523-3.578 3.556-5.75 3.191.144-.804.128-1.485.1-2.255l2.205-1.989 3.418-.931.005-.005z" fill="url(#paint44_linear_2503_25237)"/><path fill-rule="evenodd" clip-rule="evenodd" d="M324.505 95.752c-.316 4.332-.92 7.866.637 11.185 1.335 2.841 3.368 2.548 5.462 1.512 2.139-1.058 3.269-1.729 4.72-3.557.526-.288 1.125-.321 1.717-.93.876-.903 1.446-2.515.726-3.557-.321-.465-1.086-.127-1.595.754-.637 1.096-1.014.027-1.025-.759-.045-2.166-.632-3.518-1.064-5.767-2.875 1.462-6.692 3.346-9.572 1.119h-.006z" fill="url(#paint45_linear_2503_25237)"/><path fill-rule="evenodd" clip-rule="evenodd" d="M324.505 95.751c-.05.676-.105 1.341-.16 1.978 2.952 1.086 6.066.454 9.284-1.983.698 1.983.322 3.556.748 4.969.344 1.152.842 1.668 1.535 1.418.98-.349.836-1.013 2.055-1.346a1.74 1.74 0 00-.2-.388c-.321-.465-1.085-.127-1.595.754-.637 1.097-1.014.027-1.025-.759-.044-2.166-.631-3.518-1.064-5.767-2.875 1.462-6.692 3.346-9.572 1.119l-.006.005z" fill="#FFA698"/><path fill-rule="evenodd" clip-rule="evenodd" d="M326.411 96.776c3.301.543 8.47-1.55 8.586-4.775.111-2.958-3.274-4.947-6.16-5.473-7.922-1.44-9.667 9.057-2.426 10.243v.005z" fill="#5A2D68"/><path fill-rule="evenodd" clip-rule="evenodd" d="M326.411 96.776c3.036.499 7.65-1.235 8.464-4.022l-.066-.166c-5.756 2.82-10.658 2.626-12.963-.504.144 2.15 1.595 4.205 4.565 4.692z" fill="#22043D"/><path fill-rule="evenodd" clip-rule="evenodd" d="M344.216 160.477c-.947 2.67-1.014 5.34-2.355 7.85-.952-1.679-2.077-3.906-3.174-5.501L336.521 164c-2.183 1.285-3.274.914-.642-1.512 1.612-1.485 3.844-2.681 5.584-4.138l2.747 2.127h.006z" fill="url(#paint46_linear_2503_25237)"/><path fill-rule="evenodd" clip-rule="evenodd" d="M344.022 161.165c-.454 1.279-.781 3.418-1.108 4.387-1.213-1.623-2.144-5.384-2.238-6.553.233-.2.853-.704 1.091-.903l2.255 3.063v.006z" fill="url(#paint47_linear_2503_25237)"/><path fill-rule="evenodd" clip-rule="evenodd" d="M338.709 162.832c1.158 1.911 3.041 4.249 4.615 5.346l.243 2.897c-2.498-1.468-5.345-4.759-6.47-7.34l1.618-.909-.006.006z" fill="#2E378B"/><path fill-rule="evenodd" clip-rule="evenodd" d="M343.723 163.912c-1.02-1.429-2.045-3.756-2.272-5.711 3.346-5.795 7.612-12.581 7.235-15.96-.404-3.673-3.59-10.62-9.29-15.229-.166-1.717-1.634-14.891 1.629-13.606 2.753 1.086 5.728 3.646 7.877 6.26 4.393 5.346 8.094 15.401 8.066 22.896-.011 3.518-2.365 8.947-13.251 21.35h.006z" fill="url(#paint48_linear_2503_25237)"/><path style="mix-blend-mode:multiply" opacity=".5" fill-rule="evenodd" clip-rule="evenodd" d="M343.723 163.912c-1.02-1.43-2.045-3.756-2.272-5.712 3.346-5.794 7.612-12.581 7.235-15.96 1.235 6.194-4.044 14.11-2.709 19.057-.709.836-1.457 1.706-2.254 2.615z" fill="url(#paint49_linear_2503_25237)"/><path d="M85.961 2.338H57.847a3.335 3.335 0 00-3.336 3.335v28.986a3.335 3.335 0 003.335 3.336h28.115a3.335 3.335 0 003.335-3.335V5.673a3.335 3.335 0 00-3.335-3.335z" fill="url(#paint50_linear_2503_25237)"/><path d="M76.385 11.928H60.35a2.431 2.431 0 00-2.431 2.43v11.616a2.43 2.43 0 002.43 2.43h16.035a2.43 2.43 0 002.43-2.43V14.359a2.431 2.431 0 00-2.43-2.431z" fill="url(#paint51_linear_2503_25237)"/><path fill-rule="evenodd" clip-rule="evenodd" d="M79.25 20.166l6.642-6.643v13.285l-6.642-6.642z" fill="url(#paint52_linear_2503_25237)"/><path fill-rule="evenodd" clip-rule="evenodd" d="M68.368 14.715a5.451 5.451 0 015.452 5.452 5.451 5.451 0 01-5.452 5.452 5.451 5.451 0 01-5.452-5.452 5.451 5.451 0 015.452-5.452z" fill="#fff"/><path style="mix-blend-mode:multiply" opacity=".5" fill-rule="evenodd" clip-rule="evenodd" d="M66.02 37.995h-8.173a3.346 3.346 0 01-3.336-3.335V24.166h7.044a4.48 4.48 0 014.465 4.465v9.364z" fill="url(#paint53_linear_2503_25237)"/><path d="M59.156 27.326H32.748a3.132 3.132 0 00-3.132 3.132v27.225a3.132 3.132 0 003.132 3.132h26.408a3.132 3.132 0 003.132-3.132V30.458a3.132 3.132 0 00-3.132-3.132z" fill="url(#paint54_linear_2503_25237)"/><path fill-rule="evenodd" clip-rule="evenodd" d="M40.11 33.475c2.413.023 4.793 1.213 5.85 3.847 1.079-2.61 3.463-3.75 5.876-3.727 3.386.037 6.822 2.366 6.767 6.163.027 2.878-1.956 6.748-7.551 11.351-1.896 1.56-4.498 3.543-5.042 3.557h-.217c-.655-.005-3.132-2.066-5.018-3.663-5.563-4.718-7.524-8.63-7.473-11.504-.033-3.796 3.418-6.056 6.804-6.024h.004z" fill="url(#paint55_linear_2503_25237)"/><path d="M366.982 33.438h-25.817a3.061 3.061 0 00-3.062 3.061v26.616a3.061 3.061 0 003.062 3.062h25.817a3.062 3.062 0 003.062-3.062V36.499a3.062 3.062 0 00-3.062-3.062z" fill="url(#paint56_linear_2503_25237)"/><path fill-rule="evenodd" clip-rule="evenodd" d="M362.544 39.972l-11.044-.099c-.577-.004-1.041.438-1.046 1.001l-.081 12.014c-.009.825-.708 1.402-1.556 1.28-.383-.054-.654-.117-1.091-.112-1.89.072-3.306 1.375-3.148 2.949.135 1.362 1.421 2.467 2.999 2.697.234.031.478.05.721.04 1.358-.05 2.472-.73 2.936-1.695.334-.713.19-2.76.19-3.572l.063-9.285c.009-.749.591-1.299 1.362-1.294l7.851.08c.996.01 1.799.885 1.794 1.769l-.04 5.632c-.009.825-.703 1.402-1.556 1.276-.379-.054-.658-.122-1.091-.103-1.894.058-3.306 1.375-3.148 2.935.135 1.362 1.421 2.467 2.999 2.697.235.036.473.05.721.04 1.358-.04 2.467-.735 2.936-1.69.348-.709.185-2.76.19-3.572.031-3.982.067-7.969.081-11.946a1.04 1.04 0 00-1.037-1.033l-.005-.009z" fill="#fff"/><path fill-rule="evenodd" clip-rule="evenodd" d="M316.308 14.105a8.464 8.464 0 018.466 8.466 8.464 8.464 0 01-8.466 8.466 8.464 8.464 0 01-8.466-8.466 8.464 8.464 0 018.466-8.466zm0 2.927a5.542 5.542 0 00-5.54 5.54 5.542 5.542 0 005.54 5.54 5.542 5.542 0 005.54-5.54 5.542 5.542 0 00-5.54-5.54z" fill="url(#paint57_linear_2503_25237)"/><path fill-rule="evenodd" clip-rule="evenodd" d="M35.706 120.857c5.227 0 9.465 4.239 9.465 9.466a9.466 9.466 0 11-18.931 0c0-5.227 4.238-9.466 9.466-9.466zm0 3.27a6.194 6.194 0 00-6.196 6.196 6.194 6.194 0 006.196 6.196 6.194 6.194 0 006.196-6.196 6.194 6.194 0 00-6.196-6.196z" fill="url(#paint58_linear_2503_25237)"/><path fill-rule="evenodd" clip-rule="evenodd" d="M114.393 7.38c4.577 0 7.969 3.71 7.969 8.287 0 4.577-3.392 8.286-7.969 8.286a8.286 8.286 0 110-16.572zm0 2.863a5.424 5.424 0 10.002 10.849 5.424 5.424 0 00-.002-10.849z" fill="url(#paint59_linear_2503_25237)"/><path fill-rule="evenodd" clip-rule="evenodd" d="M316.659.656a1.815 1.815 0 110 3.63 1.815 1.815 0 010-3.63z" fill="#FC8FD9"/><path fill-rule="evenodd" clip-rule="evenodd" d="M331.723 76.213a1.815 1.815 0 110 3.63 1.811 1.811 0 01-1.815-1.815c0-1.006.81-1.815 1.815-1.815z" fill="#6970FC"/><path fill-rule="evenodd" clip-rule="evenodd" d="M140.704 28.395a1.815 1.815 0 110 3.629 1.815 1.815 0 010-3.63z" fill="#EA89DF"/><path fill-rule="evenodd" clip-rule="evenodd" d="M386.989 215.84c1 0 1.814.809 1.814 1.815a1.81 1.81 0 01-1.814 1.815 1.811 1.811 0 01-1.815-1.815 1.81 1.81 0 011.815-1.815z" fill="#F97BB5"/><path d="M31.431 204.339a1.815 1.815 0 100-3.63 1.815 1.815 0 000 3.63z" fill="#93E599"/><path fill-rule="evenodd" clip-rule="evenodd" d="M8.451 215.938a8.254 8.254 0 018.254 8.254 8.251 8.251 0 01-8.254 8.254 8.251 8.251 0 01-8.254-8.254 8.251 8.251 0 018.254-8.254zm0 2.851a5.402 5.402 0 00-5.402 5.403 5.401 5.401 0 005.402 5.402 5.401 5.401 0 005.402-5.402 5.402 5.402 0 00-5.402-5.403z" fill="url(#paint60_linear_2503_25237)"/><path fill-rule="evenodd" clip-rule="evenodd" d="M247.678 12.541a1.815 1.815 0 110 3.63 1.815 1.815 0 010-3.63z" fill="#F97BB5"/><path fill-rule="evenodd" clip-rule="evenodd" d="M84.821 223.569c-.61-.008-26.264-.088-28.614-.08.004.53.08 1.093.128 1.624.211 2.366.554 4.743 1.093 7.049l.012.052c1.07 4.545 2.944 8.877 5.945 12.476.778.946 2.37 2.705 3.419 3.336 1.95 1.169 5.166 1.197 7.173.071a4.03 4.03 0 00.69-.478 25.95 25.95 0 004.058-4.461c2.394-3.343 3.966-7.225 4.88-11.219.654-2.773.953-5.546 1.212-8.37h.004z" fill="url(#paint61_linear_2503_25237)"/><path fill-rule="evenodd" clip-rule="evenodd" d="M70.51 215.463c7.58 0 13.725 3.467 13.725 7.74s-6.144 7.74-13.725 7.74c-7.58 0-13.724-3.467-13.724-7.74s6.144-7.74 13.724-7.74z" fill="#955CF1"/><path fill-rule="evenodd" clip-rule="evenodd" d="M70.51 217.578c7.358 0 13.318 3.363 13.318 7.513 0 2.027-4.823 5.585-13.357 5.98-8.538.395-13.003-4.189-13.278-5.98 0-4.15 5.965-7.513 13.317-7.513z" fill="#071A3B"/><path fill-rule="evenodd" clip-rule="evenodd" d="M70.51 215.111c7.908 0 14.316 3.715 14.316 8.295s-6.412 8.295-14.316 8.295c-7.903 0-14.315-3.715-14.315-8.295s6.412-8.295 14.315-8.295zm0 .579c-7.357 0-13.317 3.363-13.317 7.512 0 4.15 5.964 7.513 13.317 7.513s13.318-3.363 13.318-7.513c0-4.149-5.965-7.512-13.318-7.512z" fill="#E67FE0"/><path fill-rule="evenodd" clip-rule="evenodd" d="M84.53 225.098c-1.348 3.767-7.113 6.599-14.015 6.599-6.903 0-12.377-2.689-13.909-6.316l-.012-.027.26-.024.786-.14h.028c1.548 3.188 6.71 5.526 12.847 5.526 6.136 0 11.53-2.446 12.942-5.737l.75.035.324.084zm-27.98.152l.24-.112-.251.088.012.028v-.004z" fill="#E67FE0"/><path fill-rule="evenodd" clip-rule="evenodd" d="M86.956 163.662c2.067 2.426 3.73 4.788 5.027 7.086-.427.762-.802 1.54-1.233 2.31.822-.363 1.425-.626 2.023-.826 3.639 7.253 3.59 13.832 1.081 19.685-1.97.846-2.493.962-4.955 1.233 1.193.503 2.386 1.002 3.575 1.504-3.136 5.342-8.722 8.087-7.018 16.581.068.332.132.663.188.998-1.46.945-2.917 1.887-4.377 2.829 2.286-.152 3.168-.164 4.624.111-.128 3.954-2.55 8.119-13.182 11.954-1.037-.084-3.595-1.333-4.134-2.067.471-3.683-.638-10.134-1.583-15.201-.77-4.125-.511-7.014.402-9.236 1.321.654 2.686 1.129 4.046 1.723-1.093-1.951-1.628-2.9-2.055-4.807 3.336-3.663 8.89-5.546 12.72-11.634.231-.367.466-.754.706-1.157.746.319 1.504.602 2.262.933-.618-1.101-1.005-1.791-1.297-2.657 2.49-4.72 4.784-11.39 3.188-19.362h-.008z" fill="url(#paint62_linear_2503_25237)"/><path style="mix-blend-mode:multiply" opacity=".5" fill-rule="evenodd" clip-rule="evenodd" d="M85.879 204.189c-.738 1.899-1.013 4.137-.427 7.05.068.331.132.662.188.997-1.46.946-2.917 1.887-4.381 2.829 2.286-.152 3.168-.164 4.624.112-.127 3.953-2.55 8.119-13.182 11.953-1.037-.084-3.595-1.333-4.133-2.067.47-3.682-.639-10.134-1.584-15.201-.77-4.125-.511-7.014.403-9.236 1.32.654 2.685 1.129 4.045 1.724-1.093-1.951-1.627-2.901-2.054-4.808 2.102-2.31 5.09-3.914 7.971-6.308 1.488 4.948 5.79 8 8.526 12.963l.004-.008z" fill="url(#paint63_linear_2503_25237)"/><path style="mix-blend-mode:multiply" opacity=".5" fill-rule="evenodd" clip-rule="evenodd" d="M88.217 190.64c1.696-.698 4.133-2.505 5.594-4.245-1.736 1.105-3.18 2.238-4.816 2.829.295-.599.567-1.221.802-1.875 2.143-5.925.794-11.176-.878-16.849 1.11 4.508 2.067 8.793 1.177 13.254-.423-1.393-1.284-2.442-2.417-4.102.87 2.023 1.819 3.783 1.958 5.897a17.37 17.37 0 01-.55 1.52c-1.077 2.594-2.697 4.656-4.465 6.543.184-1.811-.355-3.335-1.133-5.43.323 1.959.663 4.345.216 6.388-2.454 2.502-5.047 4.804-6.775 7.812-.897-3.858-.678-3.16-1.552-6.974-.295 4.173-.163 5.765.698 8.701a14.854 14.854 0 00-1.06 4.178c-.416 3.886-.392 6.307-.635 8.402-2.183-4.413-1.177-2.338-4.102-8.606.272 3.655.156 4.058 3.599 11.167-.555 1.88-1.592 3.89-3.69 6.95.678.356 1.436.675 2.01.826 3.827-5.709 3.835-7.923 3.898-12.212 1.66-2.909 3.775-6.2 6.04-8.407-2.066.786-3.698 1.959-5.956 5.426.048-1.021.128-2.162.267-3.455.368-3.459 2.007-6.084 4.058-8.53 3.986-1.643 4.816-1.623 6.615-2.086-2.29-.24-3.695-.076-5.071.343 2.126-2.318 4.445-4.612 6.172-7.473l-.004.008z" fill="url(#paint64_linear_2503_25237)"/><path fill-rule="evenodd" clip-rule="evenodd" d="M56.307 136.836c3.93 2.095 7.297 4.313 10.154 6.635-.164 1.205-.255 2.41-.419 3.635.886-.89 1.532-1.544 2.21-2.107 8.435 7.569 11.738 16.138 11.47 25.028-2.13 2.106-2.744 2.525-5.808 4.133 1.807.04 3.61.084 5.414.128-1.349 8.546-7.202 14.969-.642 25.135.255.395.506.794.754 1.201a4707.205 4707.205 0 01-4.245 5.912c2.892-1.364 4.03-1.835 6.068-2.218 1.855 5.203.834 11.854-11.016 22.271-1.388.423-5.354.108-6.427-.575-1.273-5.027-6.009-12.843-9.83-18.943-3.109-4.967-4.254-8.853-4.198-12.212 2.055.175 4.07.091 6.136.171-2.422-1.979-3.599-2.936-5.13-5.198 2.461-6.464 8.717-11.75 10.576-21.617.112-.594.223-1.217.323-1.867 1.133.036 2.266.012 3.415.056-1.368-1.117-2.222-1.811-3.044-2.789.826-7.405.391-17.247-5.761-26.787v.008z" fill="url(#paint65_linear_2503_25237)"/><path style="mix-blend-mode:multiply" opacity=".5" fill-rule="evenodd" clip-rule="evenodd" d="M71.743 171.248c1.848-1.771 4.09-5.37 5.095-8.378-1.687 2.322-2.984 4.536-4.807 6.14.08-.93.111-1.875.083-2.845-.247-8.793-4.684-14.929-9.754-21.444 3.746 5.29 7.181 10.373 8.306 16.621-1.26-1.592-2.916-2.514-5.234-4.094 2.166 2.183 4.3 3.986 5.557 6.663.052.734.076 1.484.06 2.258-.072 3.922-1.125 7.429-2.454 10.785-.69-2.446-2.166-4.154-4.249-6.48 1.425 2.382 3.08 5.307 3.547 8.191-1.907 4.505-4.101 8.821-4.811 13.617-3.14-4.552-2.494-3.758-5.582-8.267 1.752 5.578 2.737 7.577 5.354 10.948-.04 1.891.18 3.87.758 5.973 1.449 5.262 2.717 8.394 3.475 11.243-5.09-4.616-2.725-2.434-9.73-9.085 2.222 4.608 2.278 5.191 10.385 12.672.243 2.721-.08 5.872-1.241 10.919 1.065.116 2.206.14 3.036.048 2.05-9.372.93-12.256-1.177-17.862.67-4.632 1.736-9.99 3.55-14.012-2.285 2.079-3.801 4.433-4.966 10.098a86.731 86.731 0 01-1.425-4.628c-1.292-4.684-.502-8.933.91-13.158 4.337-4.173 5.426-4.572 7.529-6.092-3.1.862-4.84 1.787-6.416 3.04 1.58-4.101 3.42-8.267 4.197-12.863l.004-.008z" fill="url(#paint66_linear_2503_25237)"/><path style="mix-blend-mode:multiply" opacity=".5" fill-rule="evenodd" clip-rule="evenodd" d="M138.09 164.414h38.632c3.723 0 6.766 3.047 6.766 6.766v32.148c0 3.724-3.048 6.766-6.766 6.766H138.09c-3.718 0-6.766-3.042-6.766-6.766V171.18c0-3.719 3.042-6.766 6.766-6.766z" fill="#CDE7FF"/><path d="M129.977 161.203h42.202a6.22 6.22 0 016.218 6.218v29.541a6.22 6.22 0 01-6.218 6.218h-42.202a6.221 6.221 0 01-6.218-6.218v-29.541a6.221 6.221 0 016.218-6.218z" fill="#fff"/><path fill-rule="evenodd" clip-rule="evenodd" d="M138.93 168.312h24.338c1.905 0 3.559 1.23 4.317 2.992v4.332c-.758 1.762-2.412 2.991-4.317 2.991H138.93c-2.618 0-4.763-2.32-4.763-5.157s2.14-5.158 4.763-5.158z" fill="url(#paint67_linear_2503_25237)"/><path fill-rule="evenodd" clip-rule="evenodd" d="M159.785 168.312h7.8v10.31h-7.8c-2.617 0-4.764-2.32-4.764-5.158 0-2.837 2.141-5.157 4.764-5.157v.005z" fill="#93E599"/><path fill-rule="evenodd" clip-rule="evenodd" d="M159.836 169.146h7.749v8.641h-7.749c-2.192 0-3.989-1.947-3.989-4.318 0-2.376 1.797-4.317 3.989-4.317v-.006z" fill="#fff"/><path fill-rule="evenodd" clip-rule="evenodd" d="M142.151 168.312h4.584c-2.617 0-4.763 2.321-4.763 5.158s2.141 5.157 4.763 5.157h-4.584c-2.617 0-4.763-2.32-4.763-5.157s2.141-5.158 4.763-5.158z" fill="#93E599"/><path fill-rule="evenodd" clip-rule="evenodd" d="M158.157 169.551h9.47v.143h-9.731c.087-.051.168-.097.261-.143zm-.815.553h10.284v.143h-10.443a2.16 2.16 0 01.159-.143zm-.523.548h10.812v.144h-10.919c.036-.052.071-.098.112-.144h-.005zm-.373.547h11.18v.144h-11.262c.025-.052.051-.098.077-.144h.005zm-.266.549h11.452v.143h-11.504c.016-.046.036-.097.057-.143h-.005zm-.185.547h11.631v.143h-11.667c.01-.046.02-.097.036-.143zm-.108.555h11.739v.143h-11.759c0-.046.01-.097.015-.143h.005zm-.04.546h11.779v.144h-11.779v-.144zm.025.549h11.759v.144h-11.738l-.016-.144h-.005zm.087.547h11.667v.144h-11.631c-.01-.047-.026-.098-.036-.144zm.164.549h11.504v.143h-11.453c-.02-.046-.035-.097-.056-.143h.005zm.241.553h11.262v.143h-11.18c-.026-.046-.052-.097-.077-.143h-.005zm.343.549h10.919v.143h-10.812l-.112-.143h.005zm.476.546h10.443v.144h-10.284l-.159-.144zm.713.549h9.731v.144h-9.47a6.766 6.766 0 01-.261-.144z" fill="#42C0B8"/><path fill-rule="evenodd" clip-rule="evenodd" d="M150.792 168.312h4.583c-2.617 0-4.763 2.321-4.763 5.158s2.141 5.157 4.763 5.157h-4.583c-2.618 0-4.764-2.32-4.764-5.157s2.141-5.158 4.764-5.158z" fill="#93E599"/><path fill-rule="evenodd" clip-rule="evenodd" d="M166.863 178.648H134.53c-1.905 0-3.56 1.23-4.318 2.991v4.333c.758 1.762 2.413 2.991 4.318 2.991h32.333c2.617 0 4.763-2.32 4.763-5.157s-2.141-5.158-4.763-5.158z" fill="url(#paint68_linear_2503_25237)"/><path fill-rule="evenodd" clip-rule="evenodd" d="M138.013 178.648h-7.801v10.31h7.801c2.617 0 4.763-2.321 4.763-5.158s-2.141-5.157-4.763-5.157v.005z" fill="#3FAFF6"/><path fill-rule="evenodd" clip-rule="evenodd" d="M137.961 179.488h-7.749v8.64h7.749c2.192 0 3.99-1.946 3.99-4.317 0-2.377-1.792-4.318-3.99-4.318v-.005z" fill="#fff"/><path fill-rule="evenodd" clip-rule="evenodd" d="M162.422 178.648h-1.654c2.617 0 4.763 2.321 4.763 5.158s-2.141 5.157-4.763 5.157h1.654c2.617 0 4.763-2.32 4.763-5.157s-2.14-5.158-4.763-5.158z" fill="#3FAFF6"/><path fill-rule="evenodd" clip-rule="evenodd" d="M139.641 179.887h-9.47v.143h9.731a2.91 2.91 0 00-.261-.143zm.815.552h-10.285v.144h10.443a2.41 2.41 0 00-.158-.144zm.522.549h-10.811v.144h10.919a1.464 1.464 0 00-.113-.144h.005zm.374.547h-11.181v.144h11.263a3.14 3.14 0 00-.077-.144h-.005zm.266.549h-11.447v.143h11.504a1.701 1.701 0 00-.057-.143zm.185.547h-11.632v.143h11.668c-.011-.046-.021-.097-.036-.143zm.107.555h-11.739v.143h11.76l-.016-.143h-.005zm.041.546h-11.78v.144h11.78v-.144zm-.025.549h-11.759v.144h11.738l.015-.144h.006zm-.087.547h-11.668v.144h11.632c.01-.047.025-.098.036-.144zm-.164.549h-11.504v.143h11.447c.021-.046.036-.097.057-.143zm-.241.553h-11.263v.143h11.181c.026-.046.056-.097.077-.143h.005zm-.343.549h-10.92v.143h10.812l.113-.143h-.005zm-.477.546h-10.443v.144h10.285l.158-.144zm-.712.549h-9.731v.144h9.47c.087-.046.174-.093.261-.144z" fill="#568CF9"/><path fill-rule="evenodd" clip-rule="evenodd" d="M145.511 178.648h-1.655c2.618 0 4.763 2.321 4.763 5.158s-2.14 5.157-4.763 5.157h1.655c2.617 0 4.763-2.32 4.763-5.157s-2.141-5.158-4.763-5.158z" fill="#3FAFF6"/><path fill-rule="evenodd" clip-rule="evenodd" d="M130.935 188.865h40.332c1.906 0 3.56 1.229 4.318 2.991v4.333c-.758 1.762-2.412 2.991-4.318 2.991h-40.332c-2.618 0-4.764-2.32-4.764-5.157 0-2.838 2.141-5.158 4.764-5.158z" fill="url(#paint69_linear_2503_25237)"/><path fill-rule="evenodd" clip-rule="evenodd" d="M167.78 188.865h7.8v10.309h-7.8c-2.618 0-4.763-2.32-4.763-5.157s2.14-5.158 4.763-5.158v.006z" fill="#955CF1"/><path fill-rule="evenodd" clip-rule="evenodd" d="M167.831 189.699h7.749v8.64h-7.749c-2.192 0-3.99-1.946-3.99-4.317 0-2.377 1.792-4.318 3.99-4.318v-.005z" fill="#fff"/><path fill-rule="evenodd" clip-rule="evenodd" d="M143.37 188.865h1.654c-2.617 0-4.763 2.32-4.763 5.158 0 2.837 2.141 5.157 4.763 5.157h-1.654c-2.617 0-4.763-2.32-4.763-5.157 0-2.838 2.141-5.158 4.763-5.158z" fill="#E57FE0"/><path fill-rule="evenodd" clip-rule="evenodd" d="M166.151 190.104h9.47v.143h-9.731a4.35 4.35 0 01.261-.143zm-.81.548h10.284v.144h-10.442c.051-.051.102-.098.158-.144zm-.527.553h10.812v.143h-10.919a1.41 1.41 0 01.112-.143h-.005zm-.374.547h11.18v.143h-11.262c.026-.051.051-.097.077-.143h.005zm-.266.549h11.447v.143h-11.503c.015-.046.035-.097.056-.143zm-.18.549h11.631v.143h-11.667c.011-.046.021-.097.036-.143zm-.107.546h11.738v.144h-11.759l.016-.144h.005zm-.046.553h11.785v.144h-11.785v-.144zm.025.549h11.759v.143h-11.738l-.016-.143h-.005zm.092.547h11.667v.143h-11.631c-.01-.046-.025-.097-.036-.143zm.16.549h11.503v.143h-11.447c-.021-.046-.036-.097-.056-.143zm.245.549h11.263v.143h-11.181c-.026-.046-.051-.097-.077-.143h-.005zm.343.552h10.92v.144h-10.812l-.113-.144h.005zm.477.547h10.442v.144h-10.284l-.158-.144zm.712.549h9.731v.143h-9.47a6.733 6.733 0 01-.261-.143z" fill="#AF67EC"/><path fill-rule="evenodd" clip-rule="evenodd" d="M254.676 84.817c-1.722.008-3.124 1.367-3.131 3.037l-.021 5.984c-.007 1.628 1.311 2.942 2.97 3.012 14.633-.049 42.843-.049 57.479-.097 1.722-.007 3.124-1.367 3.127-3.04l.021-5.985c.007-1.673-1.384-3.022-3.106-3.015-14.587.052-42.745.052-57.336.105h-.003z" fill="#B068EB"/><path fill-rule="evenodd" clip-rule="evenodd" d="M254.177 88.787c-.143 0-.247.091-.247.21l-.014 4.116c0 .119.104.21.247.21.143 0 .255-.091.255-.21l.014-4.116c0-.122-.112-.21-.255-.21zm59.407 1.726c-.143 0-.254.09-.254.209v.234c0 .122.108.209.254.209.143 0 .279-.09.279-.21v-.233c0-.118-.136-.21-.279-.21zm-.718 0c-.143 0-.286.09-.286.209v.234c0 .122.143.209.286.209s.254-.09.254-.21v-.233c0-.118-.108-.21-.254-.21zm-.749 0c-.143 0-.248.09-.248.209v.234c0 .118.105.209.248.205.142 0 .254-.09.254-.209v-.233c0-.122-.108-.21-.254-.21v.004zm-.743-1.401c-.143 0-.247.09-.247.209l-.011 3.043c0 .118.105.206.248.209.143 0 .254-.09.254-.21l.011-3.042c0-.119-.112-.21-.255-.206v-.003zm-.753 1.404c-.143 0-.247.091-.247.21v.233c0 .119.104.21.247.21.143 0 .255-.091.255-.21v-.234c0-.118-.108-.209-.251-.209h-.004zm-.749 0c-.136 0-.248.091-.248.21v.233c0 .119.108.21.248.21.143 0 .289-.091.289-.21v-.234c0-.121-.143-.209-.286-.209h-.003zm-.75 0c-.136 0-.247.091-.247.21v.233c0 .119.108.21.247.21.143 0 .286-.091.29-.21v-.234c0-.121-.143-.209-.286-.209h-.004zm-.711 0c-.143 0-.286.091-.286.21v.233c0 .119.143.21.286.206.143 0 .248-.09.248-.21v-.233c0-.118-.101-.21-.248-.21v.004zm-.746-.718c-.143 0-.289.098-.289.21l-.007 1.676c0 .115.143.234.286.234a.248.248 0 00.247-.234v-1.677c.007-.115-.097-.209-.24-.209h.003zm-.746-.92c-.143 0-.247.09-.247.21l-.011 3.523c0 .119.105.21.248.21.143 0 .247-.091.247-.21l.011-3.52c0-.122-.105-.21-.248-.21v-.003zm-.753 1.551c-.143 0-.247.098-.247.21v.418c0 .122.104.209.247.209.143 0 .255-.09.255-.21v-.418c0-.115-.108-.209-.251-.209h-.004zm-3.74.046c-.143 0-.254.09-.254.209v.359c0 .122.108.209.251.209.136 0 .279-.09.279-.21v-.362c0-.118-.14-.209-.279-.205h.003zm-.749 0c-.143 0-.255.09-.255.209v.359c0 .122.108.209.251.209.136 0 .279-.09.283-.21v-.362c0-.118-.143-.209-.279-.205zm-.718 0c-.143 0-.286.09-.286.209v.359c0 .122.139.209.286.209.143 0 .247-.09.247-.21v-.358c0-.122-.101-.21-.244-.21h-.003zm-.75 0c-.143 0-.285.09-.285.209v.362c0 .119.142.21.285.21s.248-.091.248-.21v-.359c0-.122-.101-.209-.244-.209l-.004-.003zm-.749.003c-.143 0-.248.087-.248.21v.358c0 .119.102.21.244.21.143 0 .255-.091.255-.21v-.362c0-.119-.108-.21-.251-.206zm-.75 0c-.142 0-.247.087-.247.21v.358c0 .119.101.21.244.21s.254-.091.254-.21v-.362c0-.119-.108-.21-.251-.206zm-.749 0c-.143 0-.247.09-.247.21v.358c0 .119.101.21.247.206.143 0 .255-.09.255-.21v-.358c0-.122-.109-.21-.251-.21l-.004.004zm7.208-.38l-.006 1.485c0 .118.104.24.247.24.143 0 .289-.121.289-.24v-1.485c.004-.118-.139-.24-.282-.24a.25.25 0 00-.248.24zm-.501-.272c-.143 0-.248.09-.248.21v1.61c-.007.122.098.209.241.209s.285-.09.285-.21l.007-1.613c0-.122-.143-.21-.285-.21v.004zm-.997-.293l-.007 2.625c0 .122.143.24.285.24a.25.25 0 00.248-.24l.01-2.625a.249.249 0 00-.247-.24c-.143 0-.286.122-.289.24zm-.746-.686l-.014 3.998c0 .118.143.24.286.24a.25.25 0 00.247-.24l.014-3.998a.246.246 0 00-.247-.234c-.143 0-.286.122-.286.234zm-50.323 1.826h-.032c-.143 0-.247.09-.247.21v.296c0 .118.101.209.247.209h.032c.143 0 .254-.09.254-.21v-.296c0-.118-.108-.209-.254-.205v-.004zm.502.032v.651c0 .122.101.241.244.241.142 0 .285-.122.285-.24v-.652c0-.119-.139-.24-.282-.24a.249.249 0 00-.247.24zm44.108-.224c-.136 0-.248.091-.248.21v.359c0 .118.108.209.244.205.143 0 .286-.09.286-.209v-.359c0-.122-.143-.209-.286-.209l.004.004zm-.677-.92c-.136 0-.247.09-.247.21l-.007 2.206c0 .118.111.209.247.209.143 0 .255-.09.255-.21l.007-2.206c0-.118-.112-.209-.255-.209zm-.746-.568c-.135 0-.247.098-.247.21l-.01 3.346c0 .115.111.209.247.209.143 0 .254-.094.254-.21l.011-3.346c0-.115-.112-.209-.255-.209zm-.742-.592c-.143 0-.254.09-.254.209l-.014 4.535c0 .118.111.24.254.24a.255.255 0 00.248-.24l.013-4.535c0-.119-.111-.21-.247-.21zm-.756 2.091c-.143 0-.255.09-.255.21v.358c0 .119.108.21.251.21.143 0 .248-.091.248-.21v-.359c0-.122-.101-.209-.244-.209zm-.75 0c-.143 0-.254.09-.254.21v.358c0 .119.108.21.251.21.143 0 .279-.091.279-.21v-.359c0-.118-.136-.209-.279-.209h.003zm-.718 0h-.031c-.143 0-.255.09-.255.21v.358c0 .119.108.21.251.21h.032c.143 0 .254-.091.254-.21v-.359c0-.122-.108-.209-.251-.209zm-.749 0c-.143 0-.286.09-.286.21v.358c0 .122.139.21.286.21.143 0 .254-.088.254-.21v-.359c0-.118-.108-.209-.251-.209h-.003zm-.75 0c-.143 0-.247.09-.247.21v.358c0 .122.101.21.247.21.143 0 .255-.091.255-.21v-.359c0-.118-.108-.209-.251-.209h-.004zm-.749 0c-.136 0-.248.09-.248.21v.362c0 .118.108.209.244.209.143 0 .255-.09.255-.21v-.358c0-.119-.108-.21-.251-.21v-.003zm-.75 0c-.136 0-.247.09-.247.21v.362c0 .118.108.209.244.209.143 0 .254-.09.254-.21v-.358c0-.119-.108-.21-.251-.21v-.003zm-.996.09v.6c0 .115.108.234.25.234.136 0 .279-.122.283-.234v-.6c0-.118-.14-.233-.279-.233-.143 0-.254.115-.254.234zm-.75-.174v.955c-.003.119.108.24.251.24.143 0 .282-.121.282-.24v-.955c0-.118-.132-.24-.275-.24-.143 0-.254.122-.254.24h-.004zm-.457-1.338c-.142 0-.285.09-.285.209l-.011 3.217c0 .119.143.21.286.21s.247-.091.247-.21l.011-3.22c0-.119-.105-.21-.248-.21v.004zm-.745-.743c-.143 0-.248.091-.248.21l-.017 4.712c0 .119.104.24.247.24a.25.25 0 00.248-.24l.017-4.712c0-.119-.105-.21-.247-.21zm-.75.3c-.143 0-.247.09-.247.21l-.014 4.116c0 .122.104.209.247.209.143 0 .255-.09.255-.21l.014-4.116c0-.122-.112-.209-.255-.209zm-1.004 1.97v.6c0 .114.101.233.244.233s.255-.122.255-.237v-.6c0-.122-.108-.234-.251-.234a.245.245 0 00-.248.238zm-.498-1.067c-.143 0-.248.09-.248.21l-.007 2.32c0 .12.105.21.248.21.143 0 .286-.09.289-.21l.007-2.32c0-.12-.143-.21-.286-.21h-.003zm-.746-.805c-.136 0-.248.09-.248.209l-.014 3.939c0 .118.108.209.248.209.143 0 .286-.09.286-.21l.014-3.942c0-.118-.143-.209-.286-.205zm-.708-.746c-.143 0-.286.09-.289.209l-.018 5.434c0 .115.143.21.286.21s.248-.098.248-.21l.017-5.434c0-.122-.104-.21-.247-.21h.003zm-1.045 2.54v.778c0 .119.139.24.282.24a.249.249 0 00.247-.24v-.777a.244.244 0 00-.244-.24c-.143 0-.285.121-.289.24h.004zm-.708-.532l-.007 1.878c0 .119.105.21.247.21.143 0 .248-.091.248-.21l.007-1.878a.244.244 0 00-.248-.234.243.243 0 00-.247.234zm-.499-.89c-.142 0-.247.088-.247.21l-.01 3.217c0 .119.104.21.247.21.143 0 .247-.091.247-.21l.011-3.22c0-.123-.105-.21-.248-.206zm-.745-.71c-.143 0-.248.087-.248.209l-.014 4.646c0 .119.105.21.248.21.142 0 .254-.091.254-.21l.014-4.65c0-.118-.108-.209-.254-.205zm-.75.268c-.143 0-.247.09-.247.21l-.014 4.116c0 .118.104.209.247.209.143 0 .286-.09.286-.21l.014-4.116c0-.118-.143-.209-.286-.209zm-.708-.68c-.142 0-.285.087-.285.21l-.018 5.483c0 .121.143.209.286.209s.248-.091.248-.21l.017-5.483c0-.118-.105-.209-.248-.205v-.004zm-.749.684c-.143 0-.286.09-.286.209l-.014 4.116c0 .122.143.21.286.21s.248-.091.248-.21l.014-4.116c0-.119-.105-.21-.248-.21zm-.753.571c-.143 0-.247.09-.247.21l-.011 2.98c0 .122.105.209.248.209.143 0 .247-.09.247-.21l.011-2.976c0-.122-.105-.21-.248-.21v-.003zm-.749.51c-.143 0-.248.09-.248.208l-.007 1.966c0 .122.105.21.248.21.143 0 .247-.091.247-.21l.007-1.966c0-.122-.104-.209-.247-.209zm-.75.267c-.143 0-.247.088-.247.21v1.436c-.007.122.097.209.244.205.143 0 .247-.09.247-.209v-1.436c.004-.118-.097-.209-.244-.209v.003zm-1 .663v.537c0 .122.101.24.244.24s.286-.122.286-.24v-.537c0-.119-.14-.24-.283-.24a.249.249 0 00-.247.24zm-.453-2.534h-.039c-.142 0-.247.09-.247.209l-.017 5.194c0 .121.104.209.247.209h.038c.143 0 .248-.091.248-.21l.017-5.193c0-.119-.104-.21-.247-.21zm-.75.54c-.143 0-.285.09-.285.21l-.014 4.116c0 .118.142.209.285.209s.248-.087.248-.21l.014-4.116c0-.118-.105-.21-.248-.21zm-.746-.711c-.143 0-.254.09-.254.209l-.017 5.546c0 .122.111.209.254.209.143 0 .247-.087.247-.21l.018-5.545c0-.119-.105-.21-.248-.21zm-.753.718c-.142 0-.247.09-.247.209l-.014 4.117c0 .118.105.209.248.209.142 0 .247-.09.247-.21l.014-4.116c0-.118-.105-.21-.248-.21zm-1 1.112l-.007 2.353c0 .122.105.209.248.209.143 0 .247-.09.247-.21l.007-2.352a.25.25 0 00-.247-.24.25.25 0 00-.248.24zm-.498-.537c-.143 0-.248.09-.248.21l-.01 2.98c0 .118.104.209.247.209.143 0 .286-.091.286-.21l.01-2.976c0-.122-.142-.21-.285-.21v-.003zm-.746-.565c-.143 0-.248.091-.248.21l-.014 4.116c0 .122.105.21.248.21.143 0 .286-.091.286-.21l.014-4.117c0-.121-.143-.209-.286-.209zm-.708-.359c-.143 0-.286.098-.286.21l-.017 4.83c0 .123.143.21.286.21.136 0 .247-.09.247-.21l.018-4.83c0-.116-.112-.21-.248-.21zm-1.011 2.308v.652c0 .118.108.24.251.24a.255.255 0 00.248-.24v-.652a.251.251 0 00-.244-.24c-.143 0-.255.121-.255.24zm-.495-.568c-.143 0-.254.09-.254.209v1.373c-.004.119.104.21.247.21.143 0 .248-.091.248-.21v-1.373c.003-.122-.098-.21-.244-.21h.003zm-.749-.447c-.143 0-.255.091-.255.21l-.007 2.269c0 .118.112.209.255.209.143 0 .247-.09.247-.21l.007-2.268c0-.119-.104-.21-.247-.21zm-1.004-.383l-.01 3.458c0 .118.108.24.254.24.143 0 .286-.122.286-.24l.01-3.458c0-.122-.143-.24-.286-.24-.142 0-.254.122-.254.24zm-.739-.537l-.017 4.567c0 .115.104.209.247.209.143 0 .286-.098.289-.21l.014-4.566c0-.118-.143-.24-.286-.24a.25.25 0 00-.247.24zm-.753.903l-.007 2.736c0 .122.136.24.279.24.143 0 .254-.121.254-.24l.011-2.74c0-.118-.112-.24-.255-.24-.142 0-.278.122-.282.24v.004zm-.467-.896c-.136 0-.279.09-.282.21l-.014 4.116c0 .122.143.21.279.21.142 0 .254-.091.254-.21l.014-4.117c0-.118-.108-.209-.251-.209zm-.746.805c-.143 0-.254.095-.254.21l-.007 2.51c0 .114.111.209.254.209.136 0 .248-.095.248-.21l.007-2.51c0-.114-.112-.209-.248-.209zm-.753.75c-.143 0-.254.09-.254.209v1.018c-.004.122.108.209.251.209.136 0 .247-.087.247-.21v-1.017c0-.118-.108-.21-.244-.206v-.003zm-.742-1.548c-.143 0-.255.09-.255.21l-.014 4.116c0 .118.112.21.255.21.143 0 .247-.092.247-.21l.014-4.117c0-.122-.104-.209-.247-.209zm-.746-.415c-.143 0-.255.091-.255.21l-.017 4.953c0 .122.111.209.254.209.143 0 .283-.09.283-.21l.017-4.952c0-.119-.136-.21-.279-.21h-.003zm-.722 1.496c-.143 0-.286.09-.286.209l-.007 1.966c0 .118.143.209.286.209s.255-.09.255-.21l.007-1.965c0-.119-.112-.21-.255-.21zm-.746-1.074c-.143 0-.286.09-.286.21l-.014 4.116c0 .122.143.21.286.206.143 0 .255-.091.255-.21l.014-4.116c0-.119-.112-.21-.255-.21v.004zm-.746-.446c-.143 0-.247.09-.247.21l-.018 5.015c0 .115.105.21.248.21.143 0 .254-.095.254-.21l.018-5.016c0-.118-.112-.209-.255-.209zm-.753.78c-.136 0-.247.091-.247.21l-.011 3.461c0 .119.112.24.248.24.143 0 .254-.121.254-.24l.011-3.458c0-.122-.112-.209-.255-.209v-.003zm-.752 1.047c-.136 0-.248.09-.248.209v1.37c-.007.122.105.209.244.209.143 0 .254-.09.254-.21v-1.373c.004-.118-.104-.209-.247-.205h-.003zm-.739-.593c-.143 0-.255.09-.255.21l-.007 2.561c0 .122.112.21.255.21.136 0 .278-.091.282-.21l.007-2.562c0-.118-.143-.209-.279-.209h-.003zm-.715-.478h-.031c-.143 0-.255.091-.255.21l-.01 3.524c0 .118.111.209.254.209h.032c.142 0 .247-.09.247-.21l.01-3.52c0-.122-.104-.21-.247-.21v-.003zm-1.035-.352l-.014 4.682c0 .118.143.209.286.209s.247-.09.247-.21l.014-4.68a.25.25 0 00-.247-.241c-.143 0-.286.122-.286.24z" fill="#fff"/><defs><linearGradient id="paint0_linear_2503_25237" x1="184.383" y1="205.904" x2="203.921" y2="65.684" gradientUnits="userSpaceOnUse"><stop stop-color="#D1E8FF"/><stop offset="1" stop-color="#EAEFFF"/></linearGradient><linearGradient id="paint1_linear_2503_25237" x1="259.214" y1="201.836" x2="258.246" y2="169.186" gradientUnits="userSpaceOnUse"><stop stop-color="#6D6AFE"/><stop offset="1" stop-color="#3FB0F7"/></linearGradient><linearGradient id="paint2_linear_2503_25237" x1="205.004" y1="170.276" x2="205.609" y2="173.372" gradientUnits="userSpaceOnUse"><stop stop-color="#FF66BC"/><stop offset=".56" stop-color="#FF8ADC"/><stop offset="1" stop-color="#FFBBA8"/></linearGradient><linearGradient id="paint3_linear_2503_25237" x1="211.154" y1="186.682" x2="232.971" y2="194.875" gradientUnits="userSpaceOnUse"><stop stop-color="#FF66BC"/><stop offset=".56" stop-color="#FF8ADC"/><stop offset="1" stop-color="#FFBBA8"/></linearGradient><linearGradient id="paint4_linear_2503_25237" x1="218.329" y1="183.273" x2="220.472" y2="201.587" gradientUnits="userSpaceOnUse"><stop stop-color="#FF66BC"/><stop offset=".56" stop-color="#FF8ADC"/><stop offset="1" stop-color="#FFBBA8"/></linearGradient><linearGradient id="paint5_linear_2503_25237" x1="251.584" y1="173.536" x2="251.591" y2="169.18" gradientUnits="userSpaceOnUse"><stop stop-color="#965CF2"/><stop offset="1" stop-color="#FF8ADC"/></linearGradient><linearGradient id="paint6_linear_2503_25237" x1="266.703" y1="201.893" x2="266.802" y2="173.941" gradientUnits="userSpaceOnUse"><stop stop-color="#965CF2"/><stop offset="1" stop-color="#FF8ADC"/></linearGradient><linearGradient id="paint7_linear_2503_25237" x1="266.745" y1="200.491" x2="266.838" y2="178.155" gradientUnits="userSpaceOnUse"><stop stop-color="#965CF2"/><stop offset="1" stop-color="#FF8ADC"/></linearGradient><linearGradient id="paint8_linear_2503_25237" x1="153.953" y1="160.217" x2="112.165" y2="188.789" gradientUnits="userSpaceOnUse"><stop stop-color="#FDD248"/><stop offset="1" stop-color="#FABD23"/></linearGradient><linearGradient id="paint9_linear_2503_25237" x1="152.774" y1="160.341" x2="96.331" y2="202.328" gradientUnits="userSpaceOnUse"><stop stop-color="#FDD248"/><stop offset="1" stop-color="#F2A22F"/></linearGradient><linearGradient id="paint10_linear_2503_25237" x1="165.117" y1="149.269" x2="132.036" y2="176.791" gradientUnits="userSpaceOnUse"><stop stop-color="#FDD248"/><stop offset="1" stop-color="#F2A22F"/></linearGradient><linearGradient id="paint11_linear_2503_25237" x1="117.496" y1="100.785" x2="132.725" y2="143.254" gradientUnits="userSpaceOnUse"><stop stop-color="#5A2D68"/><stop offset="1" stop-color="#22043D"/></linearGradient><linearGradient id="paint12_linear_2503_25237" x1="160.488" y1="114.462" x2="166.321" y2="111.701" gradientUnits="userSpaceOnUse"><stop stop-color="#FF8A78"/><stop offset="1" stop-color="#FFA799"/></linearGradient><linearGradient id="paint13_linear_2503_25237" x1="148.315" y1="124.303" x2="145.354" y2="113.413" gradientUnits="userSpaceOnUse"><stop stop-color="#1C8EF4"/><stop offset="1" stop-color="#00CFDD"/></linearGradient><linearGradient id="paint14_linear_2503_25237" x1="141.83" y1="125.727" x2="147.654" y2="117.253" gradientUnits="userSpaceOnUse"><stop stop-color="#1C8EF4"/><stop offset="1" stop-color="#00CFDD"/></linearGradient><linearGradient id="paint15_linear_2503_25237" x1="133.024" y1="152.204" x2="138.72" y2="119.446" gradientUnits="userSpaceOnUse"><stop stop-color="#1C8EF4"/><stop offset="1" stop-color="#00CFDD"/></linearGradient><linearGradient id="paint16_linear_2503_25237" x1="133.078" y1="140.873" x2="138.168" y2="129.435" gradientUnits="userSpaceOnUse"><stop stop-color="#1C8EF4"/><stop offset="1" stop-color="#00CFDD"/></linearGradient><linearGradient id="paint17_linear_2503_25237" x1="170.942" y1="115.396" x2="162.103" y2="125.348" gradientUnits="userSpaceOnUse"><stop stop-color="#FFB89E"/><stop offset="1" stop-color="#FFA799"/></linearGradient><linearGradient id="paint18_linear_2503_25237" x1="169.036" y1="117.945" x2="168.634" y2="112.423" gradientUnits="userSpaceOnUse"><stop stop-color="#6D6AFE"/><stop offset="1" stop-color="#3FB0F7"/></linearGradient><linearGradient id="paint19_linear_2503_25237" x1="168.874" y1="116.777" x2="164.216" y2="122.395" gradientUnits="userSpaceOnUse"><stop stop-color="#FFB89E"/><stop offset="1" stop-color="#FFA799"/></linearGradient><linearGradient id="paint20_linear_2503_25237" x1="135.062" y1="139.293" x2="140.833" y2="125.414" gradientUnits="userSpaceOnUse"><stop stop-color="#1C8EF4"/><stop offset="1" stop-color="#00CFDD"/></linearGradient><linearGradient id="paint21_linear_2503_25237" x1="134.066" y1="108.404" x2="133.368" y2="110.355" gradientUnits="userSpaceOnUse"><stop stop-color="#FF8A78"/><stop offset="1" stop-color="#FFA799"/></linearGradient><linearGradient id="paint22_linear_2503_25237" x1="143.661" y1="100.468" x2="139.164" y2="105.808" gradientUnits="userSpaceOnUse"><stop stop-color="#FFB89E"/><stop offset="1" stop-color="#FFA799"/></linearGradient><linearGradient id="paint23_linear_2503_25237" x1="273.764" y1="130.244" x2="278.563" y2="146.271" gradientUnits="userSpaceOnUse"><stop stop-color="#6D6AFE"/><stop offset="1" stop-color="#3FB0F7"/></linearGradient><linearGradient id="paint24_linear_2503_25237" x1="269.974" y1="125.45" x2="299.389" y2="153.541" gradientUnits="userSpaceOnUse"><stop stop-color="#6D6AFE"/><stop offset="1" stop-color="#3FB0F7"/></linearGradient><linearGradient id="paint25_linear_2503_25237" x1="250.442" y1="129.497" x2="245.243" y2="177.34" gradientUnits="userSpaceOnUse"><stop stop-color="#6D6AFE"/><stop offset="1" stop-color="#3FB0F7"/></linearGradient><linearGradient id="paint26_linear_2503_25237" x1="241.782" y1="122.284" x2="241.307" y2="125.741" gradientUnits="userSpaceOnUse"><stop stop-color="#FF8A78"/><stop offset="1" stop-color="#FFA799"/></linearGradient><linearGradient id="paint27_linear_2503_25237" x1="237.933" y1="103.812" x2="240.149" y2="107.215" gradientUnits="userSpaceOnUse"><stop stop-color="#5A2D68"/><stop offset="1" stop-color="#22043D"/></linearGradient><linearGradient id="paint28_linear_2503_25237" x1="242.35" y1="110.514" x2="239.479" y2="121.923" gradientUnits="userSpaceOnUse"><stop stop-color="#FFB89E"/><stop offset="1" stop-color="#FFA799"/></linearGradient><linearGradient id="paint29_linear_2503_25237" x1="214.306" y1="86.554" x2="216.533" y2="83.834" gradientUnits="userSpaceOnUse"><stop stop-color="#FF8A78"/><stop offset="1" stop-color="#FFA799"/></linearGradient><linearGradient id="paint30_linear_2503_25237" x1="217.507" y1="124.107" x2="225.108" y2="185.054" gradientUnits="userSpaceOnUse"><stop stop-color="#6D6AFE"/><stop offset="1" stop-color="#3FB0F7"/></linearGradient><linearGradient id="paint31_linear_2503_25237" x1="217.852" y1="141.589" x2="202.518" y2="169.42" gradientUnits="userSpaceOnUse"><stop stop-color="#A77EF7"/><stop offset="1" stop-color="#5E65D6"/></linearGradient><linearGradient id="paint32_linear_2503_25237" x1="316.157" y1="242.809" x2="318.295" y2="247.612" gradientUnits="userSpaceOnUse"><stop stop-color="#3E4795"/><stop offset="1" stop-color="#273088"/></linearGradient><linearGradient id="paint33_linear_2503_25237" x1="304.512" y1="214.618" x2="324.289" y2="193.767" gradientUnits="userSpaceOnUse"><stop stop-color="#FFB89E"/><stop offset="1" stop-color="#FFA799"/></linearGradient><linearGradient id="paint34_linear_2503_25237" x1="333.879" y1="172.56" x2="308.141" y2="220.108" gradientUnits="userSpaceOnUse"><stop stop-color="#FF8A78"/><stop offset="1" stop-color="#FFA799"/></linearGradient><linearGradient id="paint35_linear_2503_25237" x1="352.653" y1="241.684" x2="354.47" y2="247.612" gradientUnits="userSpaceOnUse"><stop stop-color="#3E4795"/><stop offset="1" stop-color="#273088"/></linearGradient><linearGradient id="paint36_linear_2503_25237" x1="325.032" y1="218.662" x2="338.072" y2="194.248" gradientUnits="userSpaceOnUse"><stop stop-color="#FFB89E"/><stop offset="1" stop-color="#FFA799"/></linearGradient><linearGradient id="paint37_linear_2503_25237" x1="343.634" y1="173.651" x2="328.632" y2="222.905" gradientUnits="userSpaceOnUse"><stop stop-color="#FF8A78"/><stop offset="1" stop-color="#FFA799"/></linearGradient><linearGradient id="paint38_linear_2503_25237" x1="312.335" y1="164.033" x2="341.462" y2="191.943" gradientUnits="userSpaceOnUse"><stop stop-color="#3E4795"/><stop offset="1" stop-color="#273088"/></linearGradient><linearGradient id="paint39_linear_2503_25237" x1="284.259" y1="104.128" x2="284.73" y2="112.155" gradientUnits="userSpaceOnUse"><stop stop-color="#FFB89E"/><stop offset="1" stop-color="#FFA799"/></linearGradient><linearGradient id="paint40_linear_2503_25237" x1="308.628" y1="114.343" x2="296.601" y2="132.547" gradientUnits="userSpaceOnUse"><stop stop-color="#FA5DB1"/><stop offset="1" stop-color="#FEBFBF"/></linearGradient><linearGradient id="paint41_linear_2503_25237" x1="316.018" y1="119.139" x2="301.775" y2="136.019" gradientUnits="userSpaceOnUse"><stop stop-color="#FA5DB1"/><stop offset="1" stop-color="#FEBFBF"/></linearGradient><linearGradient id="paint42_linear_2503_25237" x1="346.891" y1="102.842" x2="340.903" y2="118.082" gradientUnits="userSpaceOnUse"><stop stop-color="#5A2D68"/><stop offset="1" stop-color="#22043D"/></linearGradient><linearGradient id="paint43_linear_2503_25237" x1="336.975" y1="129.688" x2="310.019" y2="151.797" gradientUnits="userSpaceOnUse"><stop stop-color="#FA5DB1"/><stop offset="1" stop-color="#FEBFBF"/></linearGradient><linearGradient id="paint44_linear_2503_25237" x1="331.291" y1="108.11" x2="331.79" y2="109.096" gradientUnits="userSpaceOnUse"><stop stop-color="#FF8A78"/><stop offset="1" stop-color="#FFA799"/></linearGradient><linearGradient id="paint45_linear_2503_25237" x1="330.926" y1="99.414" x2="331.524" y2="107.651" gradientUnits="userSpaceOnUse"><stop stop-color="#FFB89E"/><stop offset="1" stop-color="#FFA799"/></linearGradient><linearGradient id="paint46_linear_2503_25237" x1="338.77" y1="165.485" x2="342.066" y2="161.956" gradientUnits="userSpaceOnUse"><stop stop-color="#FFB89E"/><stop offset="1" stop-color="#FFA799"/></linearGradient><linearGradient id="paint47_linear_2503_25237" x1="341.596" y1="169.724" x2="342.593" y2="156.949" gradientUnits="userSpaceOnUse"><stop stop-color="#FF8A78"/><stop offset="1" stop-color="#FFA799"/></linearGradient><linearGradient id="paint48_linear_2503_25237" x1="344.892" y1="136.43" x2="328.887" y2="148.617" gradientUnits="userSpaceOnUse"><stop stop-color="#FA5DB1"/><stop offset="1" stop-color="#FEBFBF"/></linearGradient><linearGradient id="paint49_linear_2503_25237" x1="348.348" y1="152.289" x2="340.282" y2="155.264" gradientUnits="userSpaceOnUse"><stop stop-color="#FA5DB1"/><stop offset="1" stop-color="#FEBFBF"/></linearGradient><linearGradient id="paint50_linear_2503_25237" x1="72.805" y1="7.117" x2="71.057" y2="32.473" gradientUnits="userSpaceOnUse"><stop stop-color="#6D6AFE"/><stop offset="1" stop-color="#3FB0F7"/></linearGradient><linearGradient id="paint51_linear_2503_25237" x1="68.068" y1="27.98" x2="68.723" y2="10.913" gradientUnits="userSpaceOnUse"><stop stop-color="#965CF2"/><stop offset="1" stop-color="#FF8ADC"/></linearGradient><linearGradient id="paint52_linear_2503_25237" x1="82.529" y1="26.444" x2="82.737" y2="12.638" gradientUnits="userSpaceOnUse"><stop stop-color="#965CF2"/><stop offset="1" stop-color="#FF8ADC"/></linearGradient><linearGradient id="paint53_linear_2503_25237" x1="61.919" y1="7.136" x2="60.213" y2="31.883" gradientUnits="userSpaceOnUse"><stop stop-color="#6D6AFE"/><stop offset="1" stop-color="#3FB0F7"/></linearGradient><linearGradient id="paint54_linear_2503_25237" x1="42.38" y1="53.684" x2="52.223" y2="27.202" gradientUnits="userSpaceOnUse"><stop stop-color="#1C8EF4"/><stop offset="1" stop-color="#00CFDD"/></linearGradient><linearGradient id="paint55_linear_2503_25237" x1="43.879" y1="47.608" x2="49.755" y2="25.19" gradientUnits="userSpaceOnUse"><stop stop-color="#FA5DB1"/><stop offset="1" stop-color="#FEBFBF"/></linearGradient><linearGradient id="paint56_linear_2503_25237" x1="361.426" y1="61.879" x2="346.057" y2="36.635" gradientUnits="userSpaceOnUse"><stop stop-color="#FA5DB1"/><stop offset="1" stop-color="#FEBFBF"/></linearGradient><linearGradient id="paint57_linear_2503_25237" x1="314.483" y1="18.307" x2="317.806" y2="26.069" gradientUnits="userSpaceOnUse"><stop stop-color="#6D6AFE"/><stop offset="1" stop-color="#3FB0F7"/></linearGradient><linearGradient id="paint58_linear_2503_25237" x1="42.965" y1="124.424" x2="27.605" y2="136.911" gradientUnits="userSpaceOnUse"><stop stop-color="#1C8EF4"/><stop offset="1" stop-color="#00CFDD"/></linearGradient><linearGradient id="paint59_linear_2503_25237" x1="114.42" y1="10.899" x2="113.975" y2="22.413" gradientUnits="userSpaceOnUse"><stop stop-color="#94E69A"/><stop offset="1" stop-color="#17ADC9"/></linearGradient><linearGradient id="paint60_linear_2503_25237" x1="6.578" y1="218.112" x2="9.599" y2="227.917" gradientUnits="userSpaceOnUse"><stop stop-color="#FD90DA"/><stop offset="1" stop-color="#8E6DFD"/></linearGradient><linearGradient id="paint61_linear_2503_25237" x1="73.115" y1="234.429" x2="62.515" y2="229.035" gradientUnits="userSpaceOnUse"><stop stop-color="#965CF2"/><stop offset="1" stop-color="#FF8ADC"/></linearGradient><linearGradient id="paint62_linear_2503_25237" x1="88.185" y1="180.479" x2="71.959" y2="220.065" gradientUnits="userSpaceOnUse"><stop stop-color="#94E69A"/><stop offset="1" stop-color="#17ADC9"/></linearGradient><linearGradient id="paint63_linear_2503_25237" x1="89.243" y1="199.924" x2="74.8" y2="210.297" gradientUnits="userSpaceOnUse"><stop stop-color="#94E69A"/><stop offset="1" stop-color="#17ADC9"/></linearGradient><linearGradient id="paint64_linear_2503_25237" x1="87.315" y1="184.169" x2="72.103" y2="221.804" gradientUnits="userSpaceOnUse"><stop stop-color="#94E69A"/><stop offset="1" stop-color="#17ADC9"/></linearGradient><linearGradient id="paint65_linear_2503_25237" x1="66.541" y1="155.492" x2="65.635" y2="219.854" gradientUnits="userSpaceOnUse"><stop stop-color="#94E69A"/><stop offset="1" stop-color="#17ADC9"/></linearGradient><linearGradient id="paint66_linear_2503_25237" x1="67.279" y1="161.629" x2="66.732" y2="220.589" gradientUnits="userSpaceOnUse"><stop stop-color="#94E69A"/><stop offset="1" stop-color="#17ADC9"/></linearGradient><linearGradient id="paint67_linear_2503_25237" x1="151.437" y1="167.918" x2="150.643" y2="177.152" gradientUnits="userSpaceOnUse"><stop stop-color="#94E69A"/><stop offset="1" stop-color="#17ADC9"/></linearGradient><linearGradient id="paint68_linear_2503_25237" x1="150.827" y1="188.615" x2="150.991" y2="178.275" gradientUnits="userSpaceOnUse"><stop stop-color="#6D6AFE"/><stop offset="1" stop-color="#3FB0F7"/></linearGradient><linearGradient id="paint69_linear_2503_25237" x1="150.878" y1="196.133" x2="150.878" y2="189.096" gradientUnits="userSpaceOnUse"><stop stop-color="#965CF2"/><stop offset="1" stop-color="#FF8ADC"/></linearGradient><clipPath id="clip0_2503_25237"><rect x="85.935" y="77.588" width="97.35" height="63.307" rx="9" fill="#fff"/></clipPath><clipPath id="clip1_2503_25237"><rect x="192.686" y="77.588" width="97.35" height="63.307" rx="9" fill="#fff"/></clipPath></defs></svg>