<svg width="648" height="595" fill="none" xmlns="http://www.w3.org/2000/svg"><path opacity=".5" fill-rule="evenodd" clip-rule="evenodd" d="M394.754 594c96.398 0 184.703-31.817 253.246-84.633h-.008V0H89.782C33.69 62.74 0 143.088 0 230.685 0 431.341 176.735 594 394.754 594z" fill="url(#paint0_linear_2566_24848)"/><path opacity=".3" fill-rule="evenodd" clip-rule="evenodd" d="M544.721 497.229L248.962 339.574c-4.443-1.935-10.883-3.765-14.85-1.215l-10.145 6.518c-2.036 1.313-8.747 5.666-3.771 8.23 14.627 7.538 283.237 151.639 298.092 159.296 2.808 1.446 6.775 1.97 10.861 1.621 4.066-.342 8.224-1.453 11.301-3.458l4.051-2.634c2.864-1.865 4.359-3.898 4.347-5.847-.008-1.907-1.399-3.668-4.127-4.856z" fill="#D851D7"/><path fill-rule="evenodd" clip-rule="evenodd" d="M249.228 71.358c-2.115-1.139-4.501-1.558-6.637-.734l-4.76 1.921c-.968 9.236 292.472 432.823 294.967 435.171l4.257-1.656c2.789-1.132 4.038-4.129 4.206-7.042l14.708-252.729-.003-.028c.226-4.247-1.451-8.676-4.109-12.225-1.433-1.914-3.251-3.668-5.39-4.772L249.228 71.358z" fill="#1C2457"/><path fill-rule="evenodd" clip-rule="evenodd" d="M541.766 231.137L244.526 73.23c-5.621-2.955-10.468-.119-10.843 6.316l-14.707 252.728c-.375 6.434 3.865 14.056 9.487 17.018l297.24 157.907c5.621 2.955 10.482.125 10.857-6.309l14.708-252.728c.375-6.435-3.881-14.063-9.495-17.018l-.007-.007z" fill="url(#paint1_linear_2566_24848)"/><path fill-rule="evenodd" clip-rule="evenodd" d="M541.766 231.137L244.526 73.23c-5.621-2.955-10.468-.119-10.842 6.316l-.498 8.522 317.572 168.714.503-8.62c.375-6.435-3.88-14.063-9.494-17.018l-.001-.007z" fill="#3E4992"/><path fill-rule="evenodd" clip-rule="evenodd" d="M243.325 79.524c2.19.49 4.065 3.04 4.188 5.687.124 2.655-1.551 4.408-3.748 3.92-2.189-.49-4.064-3.04-4.187-5.687-.124-2.655 1.551-4.409 3.747-3.92zm10.282 5.596c2.189.49 4.064 3.04 4.187 5.687.124 2.655-1.551 4.408-3.747 3.92-2.19-.49-4.065-3.04-4.188-5.687-.124-2.655 1.551-4.409 3.748-3.92zm11.13 6.141c2.189.489 4.064 3.039 4.187 5.687.124 2.654-1.551 4.408-3.747 3.919-2.19-.489-4.065-3.04-4.188-5.687-.124-2.655 1.551-4.408 3.748-3.919z" fill="#5462BE"/><path fill-rule="evenodd" clip-rule="evenodd" d="M409.088 137.535c.217-3.119 2.508-4.429 5.118-2.921 27.654 15.866 39.145 45.958 66.799 61.824 2.606 1.508 20.607 9.856 20.395 12.975l-7.455 95.681c-.217 3.119-2.512 4.424-5.118 2.92-27.654-15.866-55.212-32.321-82.862-48.182-2.61-1.508-4.549-5.26-4.332-8.379l7.455-113.918z" fill="#C5DBF1" opacity=".5"/><path fill-rule="evenodd" clip-rule="evenodd" d="M400.239 117.929l2.487-1.323c.858-.299 1.911-.164 3.028.473 27.654 15.866 55.208 32.316 82.861 48.187 2.606 1.508 4.545 5.26 4.333 8.379l-7.455 113.918c-.094 1.415-.625 2.462-1.418 3.034-.95.693-2.913 2.186-4.334 1.36-27.654-15.866-54.578-33.794-82.227-49.66-2.611-1.508-4.55-5.26-4.333-8.379l7.058-115.989z" fill="#F2F4FF"/><path fill-rule="evenodd" clip-rule="evenodd" d="M398.567 121.132c.218-3.119 2.508-4.429 5.119-2.92 27.653 15.865 55.207 32.316 82.861 48.181 2.606 1.509 4.545 5.261 4.332 8.38l-7.455 113.918c-.217 3.119-2.512 4.424-5.118 2.92-27.653-15.865-55.212-32.321-82.861-48.182-2.61-1.508-4.55-5.26-4.332-8.379l7.454-113.918z" fill="#fff"/><path fill-rule="evenodd" clip-rule="evenodd" d="M398.567 121.132c.218-3.119 2.508-4.429 5.119-2.92 27.653 15.865 55.207 32.316 82.861 48.186 2.605 1.509 4.544 5.26 4.332 8.379l-5.866 89.52-92.35-52.992 5.909-90.169-.005-.004z" fill="url(#paint2_linear_2566_24848)"/><path fill-rule="evenodd" clip-rule="evenodd" d="M411.495 122.709a4900.974 4900.974 0 0118.663 10.844l-6.373 95.606-18.672-10.714 6.382-95.736z" fill="url(#paint3_linear_2566_24848)"/><path opacity=".25" fill-rule="evenodd" clip-rule="evenodd" d="M398.886 223.18c.09-1.344 1.082-1.898 2.206-1.223l25.484 14.389c1.124.67 1.961 2.306 1.866 3.656l-.178 2.665c-.089 1.345-1.081 1.899-2.205 1.224l-25.484-14.389c-1.125-.67-1.961-2.306-1.866-3.656l.177-2.666zm-.779 11.682c.079-1.186.955-1.672 1.944-1.078 14.45 8.159 38.128 21.474 52.579 29.629.99.588 1.727 2.031 1.643 3.222l-.156 2.348c-.079 1.186-.955 1.672-1.945 1.078-14.449-8.159-38.128-21.474-52.578-29.628-.99-.589-1.727-2.032-1.644-3.218l.157-2.348v-.005z" fill="#40AEF6"/><path opacity=".5" fill-rule="evenodd" clip-rule="evenodd" d="M440.146 200.678c2.111 3.697 3.669 10.716 4.31 13.126.989 3.745 1.975 7.607 3.362 11.193 1.104 2.852 2.754 6.27 5.467 7.837 2.001 1.154 4.257 1.551 6.606.613 2.417-.967 4.137-3.01 5.754-4.981.73-.888 1.175-1.21 1.527-1.181.672.06 1.875 2.415 2.18 3.005a26.53 26.53 0 011.513 3.44c.762 2.193 2.19 7.816 2.794 10.068l.191.709 5.183 2.883c.148.085 1.309.558 1.651.448l-.675-2.731c-.879-3.719-2.621-10.422-3.902-13.983-.999-2.77-2.768-7.323-5.199-9.497-1.143-1.024-2.61-1.588-4.282-1.243-2.309.475-3.933 2.483-5.378 4.24-.289.352-.583.708-.881 1.055-.606.703-1.617 1.831-2.5 2.144-.625.224-1.219-.02-1.726-.311-2.714-1.562-5.279-12.27-6.097-15.361-.994-3.759-1.984-7.634-3.379-11.23-1.113-2.866-2.771-6.298-5.493-7.874-1.278-.741-2.744-1.044-4.279-.581-2.153.65-3.608 2.551-4.665 4.444-1.053 1.889-1.858 3.967-2.652 5.957-.677 1.707-1.371 3.513-2.243 5.14-.218.406-.966 1.71-1.433 1.995a1.68 1.68 0 01-.23-.107c-1.804-1.032-3.675-5.732-4.382-7.627-1.801-4.855-3.134-10.084-4.342-15.163-.902-3.784-1.73-7.583-2.561-11.388-.486-2.222-.966-4.445-1.475-6.662a127.617 127.617 0 00-.962-3.95l6.943 1.631-10.904-21.45-8.146 16.974 5.599 1.316.599 2.066c.465 1.607.854 3.258 1.229 4.895.502 2.18.98 4.375 1.453 6.565.871 3.99 1.741 7.984 2.697 11.949 1.292 5.365 2.727 10.872 4.678 15.98 1.297 3.388 3.464 8.333 6.695 10.182 1.377.79 2.953 1.109 4.6.588 2.208-.702 3.708-2.656 4.806-4.606 1.089-1.94 1.921-4.08 2.738-6.13.638-1.604 1.281-3.283 2.082-4.825 1.203-2.386 1.851-1.766 3.115.443l.014-.005z" fill="#fff"/><path style="mix-blend-mode:multiply" opacity=".5" fill-rule="evenodd" clip-rule="evenodd" d="M326.06 277.407l-55.112-32.414c-1.979-1.139-3.926-1.705-5.747-1.746l-.117.025-15.929-9.258c-.466-.175-.848-.125-1.164.058l-.025.016h-.009l-.033.025-.033.017-.017.025h-.016l-.034.025-.033.033h-.008l-.017.017-.025.025-.033.033-.025.025-.017.025h-.008l-.033.033-.042.034v.016l-.017.017-.024.033-.025.033-.025.034-.017.033-.025.033-.025.033-.025.017v.017l-.025.033-.025.042-.016.025-.017.033-.017.041-.016.034-.017.016v.017l-.017.033-.016.033-.017.017v.025l-.017.033-.016.05-.017.025-.008.033-.017.042-.016.033-.017.017v.017l-.017.033-.016.033-.017.008v.025l-.008.034-.017.041-.016.025v.017l-.017.016v.034l-.017.033v.017l-.016.016v.025h-.009v.034h-.008v.091l-.008.025v.017l-.009.016v.208l-7.295 34.603c-1.279-1.675-2.41-3.374-3.527-5.051-.995-1.495-1.978-2.971-3.044-4.398a15.948 15.948 0 00-3.161-3.194c-.981-.533-1.497-.815-1.322-.732l-21.918-12.901c-.582-.308-1.231.232-1.647.673-.058.059-.15.2-.258.383l-.017.033-.075.142-.016.033-.025.058a5.379 5.379 0 00-.125.3l-.017.033v.025l-.016.025v.033l-.042.108v.042l-.016.066c-.075.308-.109.632-.05.94l3.477 12.228h-.017l18.557 65.255c.1.623.466 1.68 1.148 2.071l71.885 41.773c4.73 2.753 6.661 2.325 7.714-.993l18.933-90.166z" fill="#C5DBF1"/><path fill-rule="evenodd" clip-rule="evenodd" d="M296.123 350.716l-73.258-42.569 17.006-80.717v-.191l.007-.014v-.013l.007-.028.007-.034v-.048l.006-.006v-.028h.007v-.027l.014-.02v-.014l.014-.034.013-.034v-.014l.014-.02v-.028h.014l.013-.034.007-.034v-.02l.014-.014.013-.034.014-.034v-.021l.014-.013.013-.035.014-.034v-.013l.014-.021.013-.027.014-.041.014-.034v-.021l.02-.013.021-.034.02-.035v-.013l.02-.021.014-.027.02-.041.014-.034.014-.021v-.013l.027-.034.021-.034.013-.014.014-.014.02-.027.021-.034v-.014l.027-.02.027-.028.028-.027.02-.027.014-.014.014-.013.027-.028.027-.027.014-.014.013-.013.021-.021.027-.027h.007l.021-.027.02-.014h.007l.027-.034.027-.021.014-.013.014-.014.027-.02.034-.021h.014l.02-.02c.294-.171.662-.219 1.092-.055l73.251 42.569c-2.395-1.317-12.14 58.839-19.183 82.635l.082-.014z" fill="url(#paint4_linear_2566_24848)"/><path fill-rule="evenodd" clip-rule="evenodd" d="M239.871 227.43c30.764 35.261 67.464 57.03 63.875 87.63l-7.63 35.664-73.258-42.57 17.006-80.717.007-.007z" fill="#E23B93"/><path fill-rule="evenodd" clip-rule="evenodd" d="M295.104 260.651l-1.658 81.87-76.827-44.35.225-81.161 78.26 43.641z" fill="#F2F4FF"/><path fill-rule="evenodd" clip-rule="evenodd" d="M293.678 261.367l1.604-.935-.232 81.16-1.604.928.232-81.153z" fill="#C5DBF1"/><path fill-rule="evenodd" clip-rule="evenodd" d="M216.845 217.01l1.617-.935 76.82 44.357-1.603.935-76.834-44.357z" fill="#DCE8F8"/><path fill-rule="evenodd" clip-rule="evenodd" d="M290.751 324.962l-.014 5.118-71.108-41.054.014-5.118 71.108 41.054zm.157-58.845v5.118l-71.122-41.054.014-5.119 71.101 41.055h.007zm-.021 8.401l-71.101-41.055-.014 5.118 71.102 41.055.013-5.118zm-.02 8.407l-71.108-41.054v5.118l71.094 41.054.014-5.118zm-.021 8.407l-71.115-41.054-.013 5.118 71.115 41.055.013-5.119zm-.02 8.408l-71.115-41.055-.014 5.119 71.109 41.054.013-5.118h.007zm-.02 8.407l-71.116-41.054-.013 5.118 71.108 41.054.014-5.118h.007zm-.021 8.408L219.67 275.5l-.014 5.118 71.109 41.055.013-5.118h.007z" fill="#C5DBF1"/><path fill-rule="evenodd" clip-rule="evenodd" d="M276.297 292.056l17.463 61.412c.233.634.731 1.583 1.079 1.958l-73.251-42.563c-.642-.361-.99-1.358-1.079-1.951l-17.463-61.411h.014l-3.276-11.506c-.164-.88.457-1.897.628-2.081 3.044 2.77 19.285 12.713 22.281 14.474 5.016 3.93 5.186 8.783 12.789 16.842 1.453 1.542 1.958 1.945 3.76 3.009l37.055 21.824v-.007z" fill="url(#paint5_linear_2566_24848)"/><path fill-rule="evenodd" clip-rule="evenodd" d="M277.204 289.688c.116-.109.246-.198.362-.266.573-.328 1.085-.191 1.256.382l17.299 60.913L313.127 270c.15-.751.675-1.495 1.242-1.822.123-.068.239-.116.355-.15.703-.185 1.112.409.914 1.317l-17.101 81.263c-.294 1.405-.655 2.47-1.038 3.18-.382.743-.853 1.248-1.378 1.556-.519.3-.969.293-1.358.034-.382-.294-.717-.928-.99-1.898l-17.463-61.417c-.184-.683.219-1.754.908-2.368l-.014-.007z" fill="#E23B93"/><path fill-rule="evenodd" clip-rule="evenodd" d="M241.535 267.864l36.946 21.469c-.962-.471-2.436 1.693-2.184 2.716l-37.314-21.687c-1.242-.723-2.014-1.147-3.112-2.013-5.303-4.19-7.807-9.93-11.274-14.57a14.953 14.953 0 00-2.968-3.009c-.922-.505-1.406-.772-1.242-.69l-20.596-12.119c-.157-.874.457-1.877.635-2.068.389-.417.996-.928 1.556-.635l20.629 12.14c-.163-.081.328.185 1.242.69.99.757 1.986 1.685 2.969 3.009 3.664 4.914 6.292 10.434 12.242 15.123.847.668 1.543 1.098 2.471 1.637v.007z" fill="#FB84B6"/><path opacity=".3" fill-rule="evenodd" clip-rule="evenodd" d="M84.643 383.57l51.001-29.171c5.559-2.55 13.517-4.581 19.182-1.623 5.16 2.697 13.664 8.216 17.419 10.371 2.857 1.635 12.765 7.602 6.594 10.973-18.159 9.916-36.131 21.072-54.573 31.148-3.485 1.907-8.592 2.597-13.946 2.149-5.331-.443-10.802-2.007-15.104-4.516-3.062-1.788-6.077-3.553-9.045-5.289-4.002-2.337-6.124-5.105-6.33-7.661-.205-2.497 1.394-4.817 4.808-6.381h-.006z" fill="#EA6E85"/><path fill-rule="evenodd" clip-rule="evenodd" d="M140.34 159.222c3.908-.608 6.999 2.095 8.568 5.701 1.828 4.221 1.74 9.681.958 12.55-2.55 9.314 1.94 13.375 3.591 17.713.729 1.913 1.046 4.422.952 7.178-.112 3.335-2.027 5.053-3.632 8.039-.405 3.052-1.152 5.88-2.339 8.258-4.402 8.837-19.2 13.104-33.405 12.455-11.366-.52-22.356-4.563-27.333-9.208-5.46-5.094-6.165-18.039 3.003-19.355 2.133-.307 4.625-.773 6.447-2.993 1.252-1.528.041-5.548-.259-10.908-.294-5.188.888-10.648 8.393-12.466 2.873-.697 5.677-.986 8.08-2.568 5.243-3.459 3.327-9.881 9.01-13.659 3.432-2.284 8.962-2.78 14.998-1.098.975.113 1.963.237 2.962.349l.006.012z" fill="url(#paint6_linear_2566_24848)"/><path fill-rule="evenodd" clip-rule="evenodd" d="M143.731 164.103c.323 2.532-.599 4.74-2.098 6.859-3.497 4.952-5.33 4.569-7.246 10.879-3.144-2.108-5.301-2.432-6.212-.36-1.458 3.329-.541 5.294-.876 8.741-.552 5.596-7.211-2.071-12.436 2.214-5.136 4.214-1.61 7.177-3.596 13.145-.741 2.237-1.317 5.171-3.397 6.162-6.459 3.07-8.933 10.802 2.568 14.639 7.123 2.379 17.466 1.783 26.111-1.175 11.414-3.907 18.448-20.812 15.539-28.846-1.205-3.323-4.46-5.808-4.478-8.405-.059-8.925 1.657-14.645-3.885-23.859l.006.006z" fill="#22043D"/><path fill-rule="evenodd" clip-rule="evenodd" d="M198.269 207.918c1.04 1.512-.917 2.562-1.798 2.609-1.405.183-3.403-.537-3.902.408-.559 1.056-7.123-1.122-7.053-1.187 2.698-1.948 5.184-2.42 5.613-2.39 4.202.277 2.979 1.227 7.14.566v-.006z" fill="url(#paint7_linear_2566_24848)"/><path fill-rule="evenodd" clip-rule="evenodd" d="M186.456 215.887c-6.023 1.712-14.257 7.62-19.993 8.925-1.81.413-4.637 1.21-6.065-.337-7.37-8.004 2.874-5.371 3.738-8.393 5.248-3.919 13.452-2.066 20.17-5.702.446-.295.887-.561 1.31-.773 2.633-1.317 4.108-1.21 8.68 1.098 1.334.672 2.016.584 3.18.548l4.601-.596c1.411-.053 2.31.284 2.528.75.246.513-.259 3.435-1.082 4.586-.176.543-1.216.951-2.856.974l-6.723 2.072-.312-.177c-4.002-2.284-5.712-3.04-7.17-2.969l-.006-.006z" fill="#A04F4B"/><path fill-rule="evenodd" clip-rule="evenodd" d="M157.818 225.178c-5.43-5.088-13.135-12.484-15.891-18.328-1.793-3.801-2.128-14.461 3.655-15.807 1.934-1.222 4.872 6.717 6.853 9.922 3.579 5.791 6.229 9.255 10.431 14.603 4.461-2.91 10.62-3.193 16.421-4.639.946-.236 1.804-.266 2.668-.077.699-.13 1.375-.413 2.016-.708.658.177 2.832 3.955 2.456 6.18a40.99 40.99 0 00-1.969.62c-.687.242-1.069.903-1.751 1.269-2.304 1.245-12.671 6.422-17.831 7.596-1.962.449-5.124 1.47-6.676-.206l-.388-.425h.006z" fill="url(#paint8_linear_2566_24848)"/><path opacity=".5" fill-rule="evenodd" clip-rule="evenodd" d="M157.818 225.178c-5.43-5.088-13.135-12.484-15.891-18.328-1.546-3.282-2.004-11.687 1.622-14.78 1.892-.195 2.98-.248 3.885.513 1.128.951 1.581 3.3 3.22 6.777 2.48 5.265 6.242 8.334 6.541 14.52.224 4.569 2.298 9.958 5.683 12.396-1.704.354-3.591.507-4.678-.673l-.388-.425h.006z" fill="#7E41DF"/><path fill-rule="evenodd" clip-rule="evenodd" d="M133.369 355.219c-3.908 4.829.464 4.073.088 10.448-.035.561 2.128 10.282 2.128 10.282s5.8 1.624 6.235 1.559c.441-.065 4.038-1.322 4.038-1.322-.283-.532-.635-1.818-.864-2.308-1.575-3.353-1.963-7.367-2.48-11.398-.341-2.668-1.058-5.342-1.058-7.839l-8.087.578z" fill="#A04F4B"/><path fill-rule="evenodd" clip-rule="evenodd" d="M144.224 372.107c.623 1.151 1.299 2.798 1.869 4.043a24.816 24.816 0 011.463 3.914c.183.631.13 1.221-.135 1.576-1.398 1.888-8.421-1.559-10.772-3.642-1.522-1.346-1.546-2.94-1.904-4.888-.535-2.922-.629-3.252-1.323-6.251l-.787 8.152-.67.407c-.147-3.317-.494-7.709-1.005-10.548-.206-1.133-.553-2.42-.6-3.046-.288-3.689 1.528-5.507 3.203-6.546-.617 2.243 1.005 5.897 1.746 10.489.77 4.811 3.42 10.07 5.507 10.513.875.189 2.82-.915 3.878-1.517.4-.23-.053-1.606-.464-2.65l-.006-.006z" fill="#161F69"/><path fill-rule="evenodd" clip-rule="evenodd" d="M152.493 247.525c.235 2.214.529 7.709.7 16.038.17 8.329-.635 24.183-1.734 33.905-2.216 19.561-5.472 38.851-9.039 58.194-1.675 1.948-6.147 2.314-10.079-.112.106-6.298-1.122-14.225-.652-23.009.652-12.1 3.696-22.754 4.566-33.928-1.598-13.446-3.162-33.167-2.821-49.718l19.065-1.375-.006.005z" fill="url(#paint9_linear_2566_24848)"/><path fill-rule="evenodd" clip-rule="evenodd" d="M131.63 339.861c-.07-2.355-.076-4.805.059-7.32.652-12.1 3.696-22.754 4.566-33.928-1.598-13.446-3.162-33.167-2.821-49.718l18.566-1.34.07 4.728c-3.379 9.013-4.084 15.689-9.209 24.047.047 12.744-.27 21.569-1.505 29.797-1.516 10.088-5.677 18.021-9.726 33.734z" fill="#1E2353" opacity=".3"/><path fill-rule="evenodd" clip-rule="evenodd" d="M116.344 359.64a31.264 31.264 0 01-.729 3.512c-.447 1.671-.97 3.583-1.252 5.968-.358 3.005-.605 6.587-.253 11.032.124 1.558.694 2.302.847 4.433l8.633 2.762a113.77 113.77 0 01-.576-7.767c-.106-2.781-.076-5.785-.071-8.542.012-3.163-.252-6.038-.035-7.779l-6.558-3.619h-.006z" fill="#A04F4B"/><path fill-rule="evenodd" clip-rule="evenodd" d="M115.839 362.485c-.747 1.718-1.452 2.598-1.846 5.029-.393 2.426.235 6.387-.252 9.392l-.77 4.775c-.447 2.78.006 4.81 2.868 7.526 2.591 2.467 5.265 3.683 6.882 3.14 1.187-.401 2.333-2.261 1.298-7.697-.863-4.527-.822-8.813-1.052-13.635-.305 4.669-.423 6.257.1 10.937.147 1.311.224 3.418-1.298 3.442-6.312.082-6.406-1.635-6.671-3.619-.699-5.306-.517-14.562.741-19.29z" fill="#161F69"/><path fill-rule="evenodd" clip-rule="evenodd" d="M124.084 240.483c-2.38 7.762-7.123 14.881-8.051 20.973-1.399 9.149.417 17.578 2.885 37.493.553 4.445.523 7.249.312 10.519-.564 8.653-2.974 14.756-3.908 22.217-1.129 8.984-1.099 20.996-1.129 32.937 2.598 1.854 8.281 2.656 9.85 1.275 2.192-14.562 5.248-27.441 8.01-39.028 1.27-5.342 2.698-10.932 4.355-17.301.811-3.099 1.393-6.239 1.581-9.426.494-8.494.852-18.688.905-27.406 6.988-10.177 11.525-15.17 13.423-20.471.365-3.447-.84-7.608-.84-7.608l-27.381-4.174h-.012z" fill="url(#paint10_linear_2566_24848)"/><path fill-rule="evenodd" clip-rule="evenodd" d="M120.146 231.281c3.344 7.78-2.344 12.083-.293 17.437l-.635 3.63c6.106 4.403 27.951 4.734 33.428-3.996l.112-4.356c.94-2.084.323-7.355.047-8.742-.882-4.421-.47-6.765-.946-11.882-.124-1.293-.365-2.108-.482-3.418 4.86-3.654 4.554-10.713 1.675-14.94-1.816-2.668-2.874-4.586-3.785-6.711-.276-1.623-.553-2.945-.841-3.843-.182-.761-.581-1.475-1.016-2.101-1.387-1.989-3.632-2.231-8.216-1.175-9.086 2.096-18.442 6.83-22.615 11.298-3.038 3.247-2.915 6.853-1.175 14.645 1.116 5.005 3.05 10.194 4.748 14.148l-.006.006z" fill="url(#paint11_linear_2566_24848)"/><path opacity=".5" fill-rule="evenodd" clip-rule="evenodd" d="M120.082 231.234c3.344 7.78-2.204 12.219-.159 17.578l-.635 3.583c6.106 4.775 27.951 4.545 33.429-4.185l-.118-3.801c0-.154-10.726 9.55-22.932 4.155-2.65-1.174-5.054-7-1.622-18.127.329-1.056 4.22-1.133 9.726-5.206-4.066 1.73-11.736 4.108-12.118-6.286-.17-4.646-.852-8.14-3.221-11.375-1.146-1.564-7.881 6.653-6.858 10.59 1.311 5.023 3.227 10.135 4.496 13.074h.012z" fill="#7E41DF"/><path fill-rule="evenodd" clip-rule="evenodd" d="M156.683 223.012l-21.944-4.256a1.794 1.794 0 00-2.093 1.422l-5.677 29.531a1.801 1.801 0 001.417 2.102l21.944 4.256a1.794 1.794 0 002.092-1.423l5.678-29.531a1.8 1.8 0 00-1.417-2.101z" fill="url(#paint12_linear_2566_24848)"/><path fill-rule="evenodd" clip-rule="evenodd" d="M129.609 235.974l-2.651 13.8c4.378.52 7.552 1.258 11.607 1.175.741-.012 1.599-.726 2.41-.75 4.331 2.674 3.649 2.716 12.1 1.075l2.198-11.422c-6.259-.195-7.181.927-12.5 1.659-1.91-1.919-7.575-4.357-13.153-5.537h-.011z" fill="#9FD3FB" opacity=".35"/><path fill-rule="evenodd" clip-rule="evenodd" d="M155.414 241.451c.876.544.259 2.934-.035 4.304-.353 1.623-.658 3.335-1.222 3.943-1.076 1.174-5.061 1.009-7.658 1.074-2.31.059-3.738-1.995-5.378-1.83-1.304-2.042.23-4.521 1.146-6.463 3.967.767 10.503-2.167 13.153-1.028h-.006z" fill="url(#paint13_linear_2566_24848)"/><path fill-rule="evenodd" clip-rule="evenodd" d="M112.859 207.541c-2.833 8.204-.893 20.783-.729 32.636.03 2.343 1.146 3.789 2.586 4.379.694.396 1.581.768 2.715 1.116 5.854 1.812 10.738 3.424 20.393 3.719.723.023 1.252-.154 2.034-.49.599.012 1.534.147 2.169.147-.97-.236-.576-5.625.887-6.463a48.77 48.77 0 01-2.086-.52c-.518-.554-.694-.714-1.37-.92-5.177-1.559-12.012-4.616-17.584-5.502 1.358-6.192 3.098-11.681 3.327-17.59.252-6.451-1.575-14.048-6.059-15.016-3.268-.708-5.219 1.429-6.283 4.504z" fill="url(#paint14_linear_2566_24848)"/><path fill-rule="evenodd" clip-rule="evenodd" d="M130.831 184.709c.705 4.02.335 7.821-.905 11.723 3.273 3.046 9.097 1.753 10.455-1.009-.288-1.783-.617-3.424-.811-5.26l-8.733-5.454h-.006z" fill="#A04F4B"/><path fill-rule="evenodd" clip-rule="evenodd" d="M130.831 184.709c.335 1.93.429 3.807.294 5.673.964 3.901 8.228 6.534 8.98 3.429-.206-1.198-.406-2.379-.541-3.648l-8.733-5.454z" fill="url(#paint15_linear_2566_24848)"/><path fill-rule="evenodd" clip-rule="evenodd" d="M144.359 167.71c1.634 2.603 2.504 5.217 2.128 8.924-.094.939.041 1.535.306 2.131 1.528 3.459 1.392 4.533.634 7.308-.734 2.697-.687 4.108-1.604 5.035-.94.95-2.345 1.168-3.538 1.245-2.445.154-6.641-1.464-9.08-2.804-1.81-.991-1.74-1.67-2.504-3.394-2.55-2.231-.899-3.86-.041-4.025 2.451-.478 2.851 2.361 4.302 2.986-.241-4.987 9.221-13.404 9.403-17.412l-.006.006z" fill="#A04F4B"/><path fill-rule="evenodd" clip-rule="evenodd" d="M145.447 169.705c.911 2.001 1.322 4.161 1.04 6.929-.094.939.041 1.529.306 2.131 1.528 3.459 1.393 4.533.634 7.308-.329 1.21-.499 2.16-.675 2.927a2.281 2.281 0 01-2.857.827c-1.022-.455-2.021-1.671-2.274-3.689-.182-1.435-3.109-2.379-3.714-3.843-.5-1.21.852-2.562 1.669-3.258 2.868-2.438 4.654-5.749 5.865-9.338l.006.006z" fill="url(#paint16_linear_2566_24848)"/><path fill-rule="evenodd" clip-rule="evenodd" d="M144.359 167.709c-1.375 6.127-9.338 10.761-9.403 17.413 2.18-6.912 9.903-11.646 9.403-17.413z" fill="#8B3E3B"/><path opacity=".3" fill-rule="evenodd" clip-rule="evenodd" d="M412.739 471.887l-46.996-26.679c-5.121-2.331-12.458-4.191-17.674-1.485-4.756 2.466-12.593 7.515-16.056 9.487-2.631 1.496-11.766 6.948-6.077 10.036 16.736 9.072 33.297 19.271 50.291 28.488 3.216 1.743 7.915 2.371 12.851 1.962 4.913-.409 9.956-1.833 13.919-4.13 2.822-1.636 5.599-3.25 8.331-4.836 3.688-2.141 5.638-4.668 5.835-7.01.191-2.286-1.281-4.404-4.43-5.833h.006z" fill="#EA6E85"/><path fill-rule="evenodd" clip-rule="evenodd" d="M300.82 302.547a8.59 8.59 0 001.107-.257 14.316 14.316 0 01-.967-.157c-1.675-.958-2.586-1.407-4.503-2.852 1.355-2.729 4.711.106 5.363.156.259.023 2.007-.291 3.711-.369 2.417-.112 3.952.403 5.61 2.23.77.538 1.641 1.199 2.524 1.894-.208 2.28-.5 4.191-1.894 6.169a4.473 4.473 0 00-1.31-.364c-1.72-.179-3.368.213-7.156 1.468-3.846 1.272-4.526 1.233-10.468-3.026-4.351-3.121-6.718-4.869-5.976-7.155 1.738-5.363 8.601 1.518 13.964 2.269l-.005-.006z" fill="#FFC9C0"/><path fill-rule="evenodd" clip-rule="evenodd" d="M301.308 308.145c3.699-.582 6.28-3.636 9.31-1.854.764.448 1.456.896 2.113 1.344a9.335 9.335 0 01-.967 1.732 4.428 4.428 0 00-1.309-.364c-1.721-.18-3.368.213-7.157 1.468-3.845 1.272-4.525 1.233-10.467-3.026-2.923-2.096-4.947-3.57-5.74-5.01-.387-.7.748-1.496 1.681-.835 4.784 3.413 7.179 5.8 12.542 6.545h-.006z" fill="url(#paint17_linear_2566_24848)"/><path fill-rule="evenodd" clip-rule="evenodd" d="M288.131 300.306c1.625 1.233 10.147 5.15 12.143 4.752.534-.107.449-1.143.506-2.415.41.846-.096 2.751.719 2.336 4.57-2.32 6.544-2.745 9.191-1.076-1.832-.409-3.53-.196-5.228.376-1.591.532-3.069 1.468-4.755 1.927-4.425-1.3-7.112-1.748-12.582-5.894l.006-.006z" fill="url(#paint18_linear_2566_24848)"/><path fill-rule="evenodd" clip-rule="evenodd" d="M349.21 323.886c.922-.897 1.799-1.855 2.4-2.41 4.638-4.292 12.278-18.228 16.578-38.978-1.557-1.261-6.155-2.449-6.981-2.611-3.615-.712-6.679 1.193-7.73 2.432-1.923 2.263-3.89 6.399-5.093 13.005-.815 4.455-4.143 10.406-6.392 15.909-.101.241-.197.482-.292.723-3.778-1.995-7.809-3.631-9.894-4.466-4.481-1.788-9.585-3.463-15.117-5.066-.657-.19-1.27.241-1.922.056-.36-.157-1.985-.728-2.277-.863.023 3.289-.899 5.895-2.71 7.991.338.112 2.114.93 2.48 1.065.545.263 1.169 1.087 1.585 1.518 4.16 4.281 16.156 10.692 27.197 14.054 3.75 1.143 6.577.521 8.163-2.354l.005-.005z" fill="url(#paint19_linear_2566_24848)"/><path fill-rule="evenodd" clip-rule="evenodd" d="M349.21 323.886c.922-.897 1.799-1.855 2.4-2.41 4.638-4.292 12.278-18.228 16.578-38.978-9.247-7.503-18.101 4.886-19.619 13.196-1.962 10.765-3.884 19.954-3.985 31.077 2.012-.089 3.586-1.003 4.621-2.885h.005z" fill="#3469C0" opacity=".35"/><path fill-rule="evenodd" clip-rule="evenodd" d="M391.901 458.321c.253.924.112 1.692.567 2.908.456 1.21 1.001 2.566 1.501 4.673.771 3.256-.286 7.615.748 12.221.534 1.844.495 3.318-.731 4.943-1.203 1.591-3.468 4.146-6.42 4.051a4.432 4.432 0 01-3.114-1.507c-1.119-1.278-2.029-3.144-1.861-5.458.062-.88.574-3.704.489-6.282-.078-2.252-.489-3.496-.438-5.967.056-2.612.258-6.215.298-7.901l8.961-1.681zm-26.068-13.393c.855 2.314 1.417 3.306 1.456 6.539-.523 1.71-1.731 2.399-3.075 3.581l-.944.207c-2.35 1.267-3.21 5.71-5.386 7.733-1.54 1.429-4.598 2.203-7.634 2.791-3.249.627-6.33-.297-5.487-2.847 2.097-6.321 11.176-13.465 11.384-20.531l9.692 2.527h-.006z" fill="#193161"/><path fill-rule="evenodd" clip-rule="evenodd" d="M352.212 399.864c.231 12.115 2.879 34.782 2.479 46.717 3.104 3.105 9.321 2.141 11.339-1.031 1.259-10.983 2.732-26.589 2.878-32.613.118-5.015-.331-9.626-1.613-14.132 1.805-13.252 9.484-31.34 7.657-43.808-.804-5.475-4.402-11.376-5.453-15.892-9.057 11.123-15.96 5.794-19.71 4.825.023 3.844-.269 3.328-.146 7.368.422 13.656 1.063 28.242 1.81 42.414-.028 2.118.163 4.443.759 6.152z" fill="url(#paint20_linear_2566_24848)"/><path fill-rule="evenodd" clip-rule="evenodd" d="M368.115 424.425c.422-4.769.726-8.921.788-11.488.118-5.015-.332-9.626-1.614-14.132 1.805-13.252 9.484-31.34 7.657-43.808-.804-5.475-4.402-11.376-5.453-15.892-9.057 11.123-15.96 5.794-19.709 4.825v1.132l11.867 8.741-2.923-.656c.112 15.741 2.063 30.086 2.361 45.608 3.063 8.803 4.862 16.317 6.982 25.39l.05.274-.006.006z" fill="#1E2353" opacity=".3"/><path fill-rule="evenodd" clip-rule="evenodd" d="M372.383 408.673c2.181 12.115 8.55 41.506 10.068 53.447 3.924 2.168 8.927 1.036 10.315-2.141.045-10.983 0-30.735-.826-36.765-.686-5.015-2.468-12.753-4.48-17.259.804-28.298 3.974-35.846.14-48.314-1.686-5.474-6.094-10.758-7.87-15.28-2.434 3.72-6.184 9.005-14.217 8.349-.787-.062-7.488-4.836-9.697-5.385 2.805 16.839 10.883 38.827 14.813 57.195.315 2.119.877 4.444 1.748 6.153h.006z" fill="url(#paint21_linear_2566_24848)"/><path fill-rule="evenodd" clip-rule="evenodd" d="M359.857 279.601c-.888.106-1.68.386-2.507.84-5.975 3.306-8.061 13.045-9.022 21.574-.832 7.397-.203 13.538.033 20.313.186 5.402-.511 10.4-.27 15.511.074 1.513.647 3.154.804 4.768 0 1.155.405 2.298.394 3.189 2.991 11.375 31.278 12.316 35.393 4.617-.286-1.143-.618-2.281-.725-3.446 2.665-2.415 1.124-8.31 1.546-12.423.315-3.093.759-6.243 1.675-8.495 3.845-9.448 9.22-16.716 10.288-23.967.736-4.992-5.667-11.212-14.11-16.25-8.124-4.847-19.147-7.492-23.499-6.226v-.005z" fill="url(#paint22_linear_2566_24848)"/><path fill-rule="evenodd" clip-rule="evenodd" d="M348.299 302.273c3.008 3.037 21.514 20.666 42.005 16.132l-.214-1.389c-21.598 4.774-41.099-16.138-41.155-16.2l-.529.504c-.028.23-.056.465-.079.695-.011.09-.016.174-.028.258zm-.331 10.944c5.065 4.757 20.822 17.853 38.451 15.314.124-.521.259-1.02.405-1.49-18.776 3.042-35.601-12.62-38.907-15.915.012.701.028 1.396.051 2.091z" fill="#70B4F5"/><path fill-rule="evenodd" clip-rule="evenodd" d="M387.291 325.78l-3.643-7.554-4.879 8.209-4.205-9.991-5.779 7.705-2.991-10.731-6.105 6.568-2.777-12.216-4.553 6.853-3.817-14.334c-.074.583-.147 1.16-.208 1.732l-.068.61 3.738 14.026 4.503-6.775 2.693 11.846 6.161-6.629 3.047 10.933 5.92-7.896 4.283 10.182 4.93-8.293 3.323 6.892c.101-.302.208-.599.32-.874.034-.09.073-.174.107-.258v-.005z" fill="#70B4F5"/><path fill-rule="evenodd" clip-rule="evenodd" d="M383.31 324.463c-.399.028-.72.387-.72.796 0 .409.321.723.72.694.399-.028.719-.386.719-.795 0-.409-.32-.723-.719-.695zm-4.34-4.393c-.399.028-.72.386-.72.796 0 .409.321.722.72.694.399-.028.719-.386.719-.795 0-.409-.32-.723-.719-.695zm-5.07 3.25c-.4.028-.72.387-.72.796 0 .409.32.722.72.694.399-.028.719-.386.719-.795 0-.409-.32-.723-.719-.695zm-4.295-5.665c-.399.028-.72.386-.72.795 0 .409.321.723.72.695.399-.028.719-.387.719-.796 0-.409-.32-.722-.719-.694zm-5.374 2.123c-.399.028-.72.387-.72.796 0 .409.321.723.72.695.399-.028.719-.387.719-.796 0-.409-.32-.723-.719-.695zm-3.21-6.259c-.399.028-.72.387-.72.796 0 .409.321.723.72.695.399-.028.719-.387.719-.796 0-.409-.32-.723-.719-.695zm-5.425 1.328c-.399.028-.72.387-.72.796 0 .409.321.723.72.695.399-.028.719-.387.719-.796 0-.409-.32-.723-.719-.695zm-2.878-6.797c-.399.028-.72.387-.72.796 0 .409.321.723.72.695.399-.028.72-.387.72-.796 0-.409-.321-.723-.72-.695zm-4.621.717a.482.482 0 00-.18.04c-.006.482-.006.963-.006 1.445a.728.728 0 00.186.012c.399-.029.719-.387.719-.796 0-.409-.32-.723-.719-.695v-.006zm40.025 11.448c-.399.028-.719.387-.719.796 0 .409.32.723.719.695.399-.028.72-.387.72-.796 0-.409-.321-.723-.72-.695z" fill="#70B4F5"/><path fill-rule="evenodd" clip-rule="evenodd" d="M383.704 305.988c-1.079 5.828.287 15.69 3.165 20.907 1.406-3.57 2.609-6.254 4.526-9.577-.163-.448-6.353-18.536-7.691-11.336v.006z" fill="#3469C0" opacity=".35"/><path fill-rule="evenodd" clip-rule="evenodd" d="M385.61 349.92c-1.31.678-3.648 1.272-4.604 1.759-.495.252-4.053 2.158-6.06 3.323-2.148 1.244-2.856 3.2-4.228 5.329-1 1.748-1.461 3.026-1.647 3.917-.191.925 2.069 2.869 3.092 2.712 2.328-.359 4.846-3.015 5.47-3.284 5.307-2.325 7.78-2.426 9.776-4.421.849-.852 1.506-3.457 3.294-5.721l-2.962-3.043-2.125-.566-.006-.005z" fill="url(#paint23_linear_2566_24848)"/><path fill-rule="evenodd" clip-rule="evenodd" d="M397.904 298.614c4.728 7.548 8.135 21.276 12.334 30.578.32.712.494 1.367.545 1.978.776 2.309-.438 4.236-2.041 6.293-3.929 5.026-7.071 9.56-15.161 15.572-.607.449-1.248.443-2.119.622-.506.364-1.226 1.037-1.771 1.424.691-.779-2.856-5.195-4.604-5.032a44.28 44.28 0 001.473-1.687c.112-.785.157-1.289.5-1.939 1.417-2.706 6.167-9.38 10.709-14.138-1.877-2.437-3.468-5.278-4.784-7.284-2.338-3.564-4.413-7.223-6.251-10.776-.736-1.423-1.147-2.124-1.849-3.586-5.251-10.86 7.285-21.17 13.019-12.014v-.011z" fill="url(#paint24_linear_2566_24848)"/><path fill-rule="evenodd" clip-rule="evenodd" d="M363.944 285.12c-.084-.454-.196-.908-.292-1.395-.281-1.395.084-4.096-.287-7.285l12.115-5.099c.202 6.78 1.315 8.176 2.569 13.701-.135 5.43-13.672 7.862-13.953 1.485a9.615 9.615 0 00-.146-1.401l-.006-.006z" fill="#FFC9C0"/><path fill-rule="evenodd" clip-rule="evenodd" d="M363.944 285.12c-.084-.454-.196-.908-.292-1.395-.281-1.395.084-4.096-.287-7.285l12.115-5.099a44.28 44.28 0 00.27 3.911c.432 4.489-3.885 12.311-11.654 11.275a9.615 9.615 0 00-.146-1.401l-.006-.006z" fill="url(#paint25_linear_2566_24848)"/><path fill-rule="evenodd" clip-rule="evenodd" d="M363.248 284.818c1.484-.981 5.548-3.435 6.881-4.41 2.912-2.13 2.558-4.847 3.401-9.106 2.721-1.939 3.637-3.48 3.884-5.223.579-4.129-1.782-8.579-4.947-11.016-2.765-2.124-5.947-2.723-9.523-1.939-6.948 1.519-9.815 6.758-10.18 12.754-.034.515.039.98.196 1.49.377 1.205.467 1.384.641 2.225.366 1.776-.837 2.421-.359 4.628.652 3.004 3.153 8.865 4.176 9.846.787.751 4.301.997 5.836.745l-.006.006z" fill="#FFC9C0"/><path fill-rule="evenodd" clip-rule="evenodd" d="M353.095 263.272c-.169.846-.281 1.72-.338 2.611-.033.516.04.981.197 1.491.377 1.205.467 1.384.641 2.224.365 1.777-.838 2.421-.36 4.629.321 1.462 1.074 3.597 1.884 5.519 4.474 3.391 8.387-.75 8.983-1.518 2.805-3.603 3.019-8.994.899-14.031-3.227 1.081-8.505.868-11.912-.925h.006z" fill="url(#paint26_linear_2566_24848)"/><path fill-rule="evenodd" clip-rule="evenodd" d="M379.359 264.129c-.186 2.292-1.984 8.176-3.345 10.356-1.411 2.264-.798-.51-1.54-2.057-.574-1.188-2.423-1.328-2.98-2.555-.275 1.042-.641 2.057-1.315 2.426-.427.236-1.299.555-1.332-.678-.118-4.253-2.137-4.544-1.501-7.094.477-1.911.359-2.729-.107-3.418-1.394.196-2.59 1.378-4.22 2.078-1.135.488-5.837 1.256-9.39-.683-3.435-1.871-3.755-6.046-.871-8.724 1.607-1.491 4.645.162 7.169-1.519 4.812-3.211 8.324-4.394 11.567-.841 6.325 1.278 8.275 7.588 7.865 12.704v.005z" fill="#18004D"/><path fill-rule="evenodd" clip-rule="evenodd" d="M372.635 267.716c2.62-1.183 2.946 1.933 2.71 3.866-.163 1.328-1.248 1.34-1.535 2.404-.343 1.267-1.242 1.933-2.057 1.989-1.653.118-.872-2.426-.77-3.418-.349-1.569-.006-4.09 1.658-4.841h-.006z" fill="#FFC9C0"/><path d="M372.111 255.367s-5.577 11.774-19.211 7.54c-3.978-1.234-6.955-12.713-3.311-10.677 7.456 4.166 11.248-6.448 18.167-4.084 2.221.76 4.639 3.051 4.357 7.229l-.002-.008z" fill="#18004D"/><path fill-rule="evenodd" clip-rule="evenodd" d="M286.791 86.211c.495-7.123 5.738-10.23 11.711-6.924l61.671 33.882c5.967 3.304-9.273 13.482 10.716 22.95l-6.135 71.976c-.494 7.124-5.746 10.228-11.714 6.924l-61.67-33.882c-5.976-3.306-10.412-11.771-9.918-18.894l5.337-76.03.002-.002z" fill="#C5DBF1" opacity=".5"/><path fill-rule="evenodd" clip-rule="evenodd" d="M282.63 70.782c.14-2.025-1.339-3.605-.549-4.94.853-1.44 4.045-2.446 5.423-2.937 1.951-.694 4.331-.436 6.837.95l61.67 33.883c5.968 3.303 10.412 11.771 9.918 18.897l-5.337 76.029c-.243 3.491-1.627 6.015-3.678 7.295-1.253.781-4.732 2.265-6.377 2.051-1.155-.15-.401-1.728-1.658-2.422l-61.671-33.882c-5.975-3.306-10.412-11.771-9.917-18.894l5.336-76.03h.003z" fill="#F454AE"/><path fill-rule="evenodd" clip-rule="evenodd" d="M279.778 71.914c.494-7.123 5.738-10.23 11.71-6.924l61.671 33.882c5.968 3.304 10.412 11.771 9.918 18.897l-5.337 76.029c-.494 7.124-5.746 10.228-11.713 6.925l-61.671-33.883c-5.976-3.306-10.412-11.771-9.918-18.894l5.337-76.029.003-.003z" fill="url(#paint27_linear_2566_24848)"/><path opacity=".5" fill-rule="evenodd" clip-rule="evenodd" d="M289.254 88.318c.356-5.135 4.136-7.376 8.442-4.992l44.453 24.424c4.3 2.382 7.505 8.486 7.149 13.62l-3.847 54.803c-.356 5.134-4.141 7.371-8.442 4.992l-44.453-24.422c-4.306-2.384-7.505-8.486-7.149-13.62l3.846-54.803.001-.002z" fill="#fff"/><path opacity=".2" fill-rule="evenodd" clip-rule="evenodd" d="M325.192 168.563c.033-.509.41-.733.839-.495l7.447 3.805c.426.238.744.844.711 1.353l-.127 1.897c-.034.509-.41.733-.839.496l-7.447-3.806c-.429-.238-.745-.844-.711-1.353l.127-1.897z" fill="#8D6DFC"/><path opacity=".2" fill-rule="evenodd" clip-rule="evenodd" d="M297.689 88.376c2.432.542 4.449 3.37 4.507 6.313.061 2.943-1.864 4.89-4.293 4.344-2.432-.543-4.45-3.37-4.508-6.313-.06-2.943 1.864-4.89 4.294-4.344z" fill="#fff"/><path fill-rule="evenodd" clip-rule="evenodd" d="M297.74 90.83c1.312.292 2.4 1.818 2.432 3.403.033 1.587-1.004 2.636-2.315 2.342-1.311-.292-2.4-1.819-2.432-3.406-.032-1.587 1.004-2.634 2.316-2.342l-.001.003z" fill="#fff"/><path opacity=".2" fill-rule="evenodd" clip-rule="evenodd" d="M303.595 94.043c.041-.625.504-.891 1.028-.592l15.911 8.631c.524.299.913 1.051.869 1.677l-.083 1.239c-.042.625-.504.891-1.028.592l-15.911-8.634c-.524-.3-.913-1.051-.869-1.677l.083-1.236zm-.303 4.552c.025-.37.297-.526.606-.35l9.396 5.098c.309.177.539.622.514.99l-.049.73c-.024.37-.297.526-.606.349l-9.396-5.098c-.308-.176-.538-.621-.514-.989l.049-.73z" fill="#fff"/><path fill-rule="evenodd" clip-rule="evenodd" d="M296.915 142.032l14.823-22.624 5.112 24.165 7.407-8.635 6.79 25.847-34.132-18.753z" fill="url(#paint28_linear_2566_24848)"/><path fill-rule="evenodd" clip-rule="evenodd" d="M322.568 120.506c1.803.373 3.302 2.44 3.345 4.62.045 2.179-1.383 3.641-3.186 3.269-1.804-.372-3.303-2.44-3.346-4.62-.045-2.179 1.384-3.644 3.187-3.269z" fill="#FFDB59"/><path opacity=".2" fill-rule="evenodd" clip-rule="evenodd" d="M292.06 104.654c.229-3.317 2.67-4.763 5.45-3.223l41.289 22.394c2.777 1.537 4.845 5.48 4.616 8.794l-2.484 35.388c-.229 3.314-2.673 4.76-5.453 3.223l-41.288-22.394c-2.78-1.54-4.848-5.48-4.616-8.794l2.483-35.388h.003z" fill="url(#paint29_linear_2566_24848)"/><path fill-rule="evenodd" clip-rule="evenodd" d="M467.005 284c-.141-7.35 4.998-10.443 11.482-6.886l80.509 44.511c6.479 3.552-9.813 10.137-9.672 17.487l.283 12.701c.141 7.35-2.213 10.923-1.847 27.401l-68.215-38.551c-6.488-3.557-11.858-12.408-12.003-19.758L466.996 284h.009z" fill="#C5DBF1" opacity=".5"/><path fill-rule="evenodd" clip-rule="evenodd" d="M462.982 272.166c-.048-2.565-.992-4.135.076-5.56.68-.906 3.088-2.041 4.108-2.422 1.978-.736 4.511-.433 7.298 1.092l80.508 44.51c6.48 3.553 11.858 12.409 11.999 19.759l.545 36.904c.046 2.278-.367 5.208-2.082 6.846-1.219 1.166-3.378 2.357-4.996 2.526-1.663.175-2.34-1.353-4.408-2.486l-80.509-44.51c-6.488-3.557-11.857-12.409-12.003-19.759l-.545-36.904.009.004z" fill="#D0E7FF"/><path fill-rule="evenodd" clip-rule="evenodd" d="M461.156 273.297c-.142-7.35 4.998-10.443 11.481-6.886l80.509 44.511c6.479 3.552 11.857 12.408 11.999 19.758l.545 36.905c.141 7.35-5.007 10.438-11.486 6.885l-80.509-44.51c-6.488-3.557-11.857-12.409-12.003-19.758l-.545-36.905h.009z" fill="#fff"/><path fill-rule="evenodd" clip-rule="evenodd" d="M460.908 273.325c-.142-7.373 5.008-10.576 11.514-7.011l80.715 44.595c6.776 3.554 11.874 12.563 12.02 19.935l.133 6.982-104.243-57.431-.13-7.071-.009.001z" fill="url(#paint30_linear_2566_24848)"/><path fill-rule="evenodd" clip-rule="evenodd" d="M470.791 273.72c1.404.337 2.685 1.957 2.869 3.624.183 1.663-.808 2.74-2.212 2.399-1.404-.337-2.685-1.957-2.868-3.624-.184-1.663.807-2.74 2.211-2.399zm7.915 4.568c1.404.336 2.686 1.961 2.869 3.623.183 1.663-.808 2.74-2.212 2.399-1.404-.337-2.685-1.962-2.868-3.624-.184-1.663.808-2.74 2.211-2.398zm7.911 4.565c1.404.337 2.685 1.957 2.869 3.624.183 1.662-.808 2.739-2.212 2.398-1.403-.337-2.685-1.961-2.868-3.624-.183-1.662.808-2.739 2.211-2.398z" fill="#fff"/><path opacity=".2" fill-rule="evenodd" clip-rule="evenodd" d="M477.858 295.531c7.798 1.879 14.935 10.895 15.943 20.145 1.008 9.25-4.493 15.223-12.291 13.344-7.798-1.879-14.935-10.895-15.943-20.145-1.008-9.25 4.493-15.223 12.291-13.344z" fill="#6D6AFD"/><path fill-rule="evenodd" clip-rule="evenodd" d="M478.7 303.246c4.202 1.011 8.051 5.876 8.596 10.863.545 4.988-2.424 8.21-6.626 7.195-4.202-1.01-8.051-5.876-8.596-10.863-.545-4.988 2.424-8.209 6.626-7.195z" fill="url(#paint31_linear_2566_24848)"/><path opacity=".2" fill-rule="evenodd" clip-rule="evenodd" d="M498.009 313.738c-.039-1.962 1.335-2.764 3.067-1.788l52.445 28.225c1.729.977 3.165 3.365 3.204 5.323l.086 3.881c.039 1.963-1.335 2.764-3.067 1.788l-52.446-28.225c-1.732-.977-3.164-3.365-3.203-5.323l-.086-3.881zm.317 14.279c-.025-1.156.788-1.631 1.812-1.055l30.971 16.668c1.023.576 1.87 1.984 1.891 3.145l.051 2.29c.026 1.157-.788 1.631-1.811 1.056l-30.971-16.669c-1.024-.576-1.87-1.984-1.892-3.145l-.051-2.29z" fill="#6D6AFD"/><path opacity=".5" fill-rule="evenodd" clip-rule="evenodd" d="M542.54 315.142c-.017-.731.495-1.04 1.141-.686l11.181 5.695c.642.354 1.175 1.233 1.192 1.964l.06 2.715c.016.731-.496 1.035-1.142.686l-11.18-5.695c-.646-.354-1.18-1.233-1.192-1.964l-.06-2.715z" fill="#fff"/><path fill-rule="evenodd" clip-rule="evenodd" d="M512.067 508.968l-50.679-29.077c-2.092-.957-5.163-1.857-7.214-.607l-5.247 3.199c-1.055.643-4.529 2.778-2.207 4.041 6.833 3.714 44.817 26.113 51.752 29.889 1.312.713 3.231.97 5.247.806 2.007-.168 4.09-.709 5.681-1.692l2.096-1.294c1.48-.913 2.304-1.915 2.379-2.872.075-.935-.523-1.803-1.808-2.388v-.005z" fill="#D851D7" opacity=".3"/><path fill-rule="evenodd" clip-rule="evenodd" d="M523.156 502.53l.057-28.898s.109.155-.25-9.288-46.649-32.938-54.537-33.64c-7.889-.701-.178 38.186-.178 38.186 0 .979.115 1.849.339 2.6.151.5.35.951.589 1.343.12.196.251.381.391.549.282.337.6.615.954.832 0 0 48.927 31.536 50.33 31.536 1.402 0 2.289-.609 2.305-3.22z" fill="#C5DBF1" opacity=".5"/><path fill-rule="evenodd" clip-rule="evenodd" d="M510.21 467.28c.005-1.453-.465-1.117-1.209-1.737a2.567 2.567 0 00-.337-.239l-11.14-6.195c-7.072-3.226-9.926 10.351-10.91 20.618l9.51 5.46 13.191-7.206.895-10.701z" fill="#D03286"/><path fill-rule="evenodd" clip-rule="evenodd" d="M498.885 508.251l.049-23.548-.213-7.568-46.355-27.411-.15 31.115c0 .798.097 1.507.288 2.119.128.407.297.775.501 1.094.102.16.212.31.332.448.239.274.509.5.811.678l46.355 27.411c-1.206-.713-1.636-2.211-1.622-4.338h.004z" fill="#E23B93"/><path fill-rule="evenodd" clip-rule="evenodd" d="M475.156 485.767l2.149-1.227-.062 7.86-2.149 1.228-.071-4.493.133-3.368z" fill="#F1920E"/><path fill-rule="evenodd" clip-rule="evenodd" d="M463.741 436.953c-.532-.328-1.44-.598-2.061-.638-2.206-.138-4.595 1.329-6.128 2.618-1.373 1.157-2.57 2.584-3.527 4.077-1.476 2.309-2.557 5.074-2.792 7.764-.026.305-.04.607-.044.908l-.062 9.274 20.977 23.322 4.121 2.437 21.27 1.631.244-.204.146-4.303c.013-2.526 1.108-10.072 2.406-12.425 1.799-3.261 7.919-9.199 11.809-7.054l-46.355-27.416-.004.009z" fill="url(#paint32_linear_2566_24848)"/><path fill-rule="evenodd" clip-rule="evenodd" d="M475.156 485.767l.793-.452-.057 7.861-.798.452-.071-4.493.133-3.368z" fill="#F1920E"/><path fill-rule="evenodd" clip-rule="evenodd" d="M469.245 482.212l3.55 2.384 2.361 1.17.793-.452-5.906-3.558-.798.456z" fill="#FFD463"/><path fill-rule="evenodd" clip-rule="evenodd" d="M469.244 482.214l5.911 3.553-.062 7.861-5.906-3.553.057-7.861z" fill="#FFC426"/><path fill-rule="evenodd" clip-rule="evenodd" d="M475.434 445.145c.014-.106.027-.212.049-.31 0-.013.005-.026.009-.04a2.585 2.585 0 01.19-.571c0-.005.005-.014.009-.023a2.067 2.067 0 01.372-.527c.023-.022.04-.04.063-.058.088-.079.181-.155.288-.212l-3.195 1.825a1.659 1.659 0 00-.284.213c-.022.018-.044.04-.062.058a1.7 1.7 0 00-.235.288l-.004.004a2.085 2.085 0 00-.129.231v.008a2.452 2.452 0 00-.08.182l-.026.08c-.004.018-.013.031-.018.049l-.013.044c-.018.053-.031.111-.044.168l-.014.062a.11.11 0 01-.009.04c0 .022-.008.04-.013.062l-.026.16c0 .031-.009.057-.009.088v.071a1.63 1.63 0 00-.009.155c0 .054-.005.107-.005.16v.009l-.017 1.701 3.195-1.825.017-1.702c0-.128.009-.248.022-.368v-.031l-.022.009z" fill="#F964B1"/><path fill-rule="evenodd" clip-rule="evenodd" d="M478.652 441.459a4.338 4.338 0 00-.213-.111l-.137-.066c-.009-.005-.022-.009-.031-.018l-.04-.018c-.071-.031-.137-.062-.208-.089l-.208-.079c-.014 0-.023-.009-.036-.014-.013 0-.022-.008-.031-.008-.044-.018-.093-.031-.137-.045a4.272 4.272 0 00-.213-.062.799.799 0 00-.106-.022c-.014 0-.031-.009-.045-.009-.022 0-.039-.009-.062-.013-.075-.018-.15-.027-.226-.04l-.141-.013c-.018 0-.031 0-.045-.005-.013 0-.026 0-.044-.004a4.098 4.098 0 00-.244-.009c-.035 0-.071 0-.106.004h-.16a3.305 3.305 0 00-.296.04h-.009c-.027.009-.049.018-.071.022-.098.023-.195.045-.284.076-.009 0-.013.009-.022.009-.137.048-.275.11-.399.181l-3.195 1.822c1.285-.284 2.632.088 3.754.748l.137-.097 6.31 3.709.022-.013c2.676 1.577 4.36 4.714 4.835 7.821 0 .004.27-.16.27-.156v1.179l-.018 1.702 3.195-1.826.018-1.701v-.435l-.005-.102v-.04c0-.057-.009-.115-.013-.172v-.036l-.027-.252a9.648 9.648 0 00-.128-.794.677.677 0 01-.022-.097l-.014-.058-.026-.115a11.363 11.363 0 00-.607-1.808c-.395-.864-.802-1.657-1.374-2.419-.013-.009-.199-.266-.23-.306-.036-.044-.16-.213-.195-.244-.257-.527-1.844-1.803-2.398-2.131-.017-.009-.035-.018-.048-.031l-6.643-3.904-.164-.093.08.142z" fill="#FB85B6"/><path fill-rule="evenodd" clip-rule="evenodd" d="M482.263 447.278l-6.643-3.904c-2.844-1.671-5.184-.359-5.219 2.92l-.018 1.701 1.817 1.068.017-1.701c.022-2.123 1.542-2.974 3.381-1.892l6.643 3.903c1.839 1.082 3.319 3.692 3.292 5.814l-.018 1.702 1.826 1.072.018-1.701c.035-3.28-2.251-7.312-5.096-8.982z" fill="url(#paint33_linear_2566_24848)"/><path fill-rule="evenodd" clip-rule="evenodd" d="M509.507 471.015l-10.781 6.115-.151 31.116c-.022 4.285 2.996 6.026 6.736 3.908l.137-.08c3.74-2.122 6.784-7.302 6.807-11.587l.093-19.462.053-.031.053-11.348c.018-4.028-2.18-6.213-5.282-5.801-3.213.426-6.332 2.362-8.26 4.95-2.211 2.964-3.288 6.815-3.367 10.302l-.063 9.257 2.938-1.67.062-9.253c.009-1.537.519-3.23 1.352-4.772 1.13-2.087 5.175-6.483 8.149-4.746.89.523 1.462 1.591 1.52 3.098l.004.004z" fill="url(#paint34_linear_2566_24848)"/><path fill-rule="evenodd" clip-rule="evenodd" d="M564.076 415.727l-98.84-52.021c-2.199-1.156-4.26-1.32-5.916-.653-2.122.852-3.565 3.063-3.752 6.29l-1.254 30.817c-.336 5.742 3.445 12.535 8.457 15.174l79.251 43.765c0-16.132 6.677-11.796 7.014-17.534l11.572-15.43c.336-5.738 8.48-7.769 3.469-10.404l-.001-.004z" fill="#C5DBF1" opacity=".5"/><path fill-rule="evenodd" clip-rule="evenodd" d="M564.134 422.049l-2.27 35.535.869.106 2.268-.909c2.489-1.011 3.603-3.686 3.749-6.281l1.257-30.817-.002-.027c.204-3.791-1.29-7.737-3.668-10.902-1.277-1.708-2.9-3.27-4.805-4.254l-98.84-52.021c-1.885-1.016-4.018-1.391-5.916-.654l-2.002.808c-1.007.388-1.302.702-1.292.768 1.787 9.084 111.193 59.33 110.647 68.648h.005z" fill="#D0E7FF"/><path fill-rule="evenodd" clip-rule="evenodd" d="M559.248 405.431l-98.84-52.021c-2.199-1.156-4.26-1.319-5.916-.653-2.122.852-3.565 3.063-3.753 6.29l-1.253 30.817c-.336 5.742 3.445 12.535 8.457 15.175l98.84 52.021c5.011 2.635 9.346.11 9.683-5.628l1.253-30.817c.336-5.738-3.459-12.544-8.47-15.179l-.001-.005z" fill="url(#paint35_linear_2566_24848)"/><path opacity=".5" fill-rule="evenodd" clip-rule="evenodd" d="M558.981 415.017l-68.19-35.624c-.525-.278-1.02-.313-1.414-.154-.505.203-.852.732-.899 1.505l-.166 2.163c-.082 1.372.825 2.997 2.019 3.628l68.19 35.623c1.2.632 2.236.027 2.313-1.346l.167-2.163c.082-1.372-.825-2.997-2.024-3.628l.004-.004zm-35.463 8.377c1.2.631 2.106 2.256 2.024 3.628l-.166 2.163c-.082 1.373-1.114 1.978-2.313 1.346L488.802 413c-1.199-.631-2.101-2.256-2.019-3.628l.166-2.163c.047-.773.39-1.302.899-1.505.393-.159.889-.119 1.414.154l34.26 17.532-.004.004zm34.698 4.855c1.2.632 2.106 2.256 2.024 3.629l-.166 2.162c-.078 1.373-1.114 1.978-2.313 1.347l-68.19-35.624c-1.2-.631-2.102-2.256-2.024-3.628l.166-2.163c.047-.772.39-1.302.899-1.505.394-.159.889-.119 1.414.154l68.19 35.624v.004zm-88.201-49.482c-3.226-1.699-6.284.591-5.855 5.023.217 2.295 1.407 4.656 3.08 6.135.438.388.886.697 1.328.931 3.222 1.695 6.262-.596 5.847-5.005-.208-2.3-1.394-4.67-3.058-6.144a7.071 7.071 0 00-1.338-.94h-.004zm-1.705 14.168a9.304 9.304 0 01-1.781-1.245c-2.255-1.986-3.836-5.164-4.142-8.253-.564-5.946 3.536-9.031 7.872-6.753a9.116 9.116 0 011.811 1.271c2.245 1.982 3.826 5.159 4.118 8.249.554 5.928-3.546 9.009-7.874 6.731h-.004zm13.629-5.049c.753.397 1.275 1.439 1.161 2.339l-.444 3.483c-.112.887-.817 1.284-1.574.887l-.386-.203c-.577-.305-1.147-.137-1.418.401-.177.349-.374.68-.581.989-.333.49-.321 1.271.025 1.973l.237.472c.452.901.321 1.925-.291 2.269l-2.409 1.364c-.307.176-.678.145-1.026-.036-.349-.185-.681-.525-.908-.984l-.236-.463c-.221-.446-.548-.786-.901-.971a1.239 1.239 0 00-.621-.155c-.359 0-.724-.013-1.085-.044-.581-.053-1.028.353-1.118 1.033l-.057.455c-.112.887-.817 1.284-1.574.887l-2.961-1.558c-.758-.398-1.276-1.439-1.165-2.331l.057-.454c.086-.68-.206-1.479-.727-2.004-.336-.336-.65-.676-.961-1.033a1.968 1.968 0 00-.578-.477c-.353-.185-.719-.207-1.018-.04l-.318.168c-.308.177-.678.15-1.031-.035-.349-.186-.68-.525-.907-.984l-1.784-3.571c-.448-.901-.318-1.925.29-2.269l.316-.181c.473-.265.665-.944.492-1.699a20.373 20.373 0 01-.275-1.439c-.11-.742-.567-1.448-1.148-1.748l-.385-.203c-.758-.397-1.276-1.439-1.164-2.326l.443-3.482c.115-.901.82-1.298 1.573-.901l.386.203c.581.305 1.147.141 1.418-.397.178-.349.374-.68.581-.989.33-.481.323-1.262-.028-1.964l-.237-.472c-.448-.909-.317-1.925.29-2.278l2.409-1.364c.308-.172.678-.145 1.026.036.349.185.681.529.908.984l.237.472c.221.446.548.786.901.971.2.106.413.164.621.155.358-.009.722 0 1.084.035.582.066 1.029-.344 1.115-1.024l.057-.454c.115-.896.819-1.298 1.573-.896l2.961 1.558c.753.397 1.276 1.438 1.16 2.334l-.057.455c-.086.68.207 1.479.722 1.991.331.331.655.684.966 1.046.178.212.379.371.579.476.353.186.718.208 1.018.04l.316-.181c.308-.176.678-.145 1.027.036.349.185.68.525.912.984l1.784 3.571c.448.909.317 1.924-.29 2.277l-.32.181c-.473.269-.665.945-.493 1.691.109.476.201.957.275 1.438.11.742.567 1.448 1.148 1.753l.386.203h.022z" fill="#FFFCF1"/><path opacity=".3" fill-rule="evenodd" clip-rule="evenodd" d="M21.312 455.497l56.176-32.107c6.121-2.808 14.89-5.042 21.128-1.782 5.683 2.972 15.053 9.045 19.194 11.413 3.143 1.8 14.066 8.366 7.261 12.077-20.006 10.915-39.803 23.196-60.119 34.288-3.843 2.099-9.463 2.855-15.362 2.362-5.877-.492-11.9-2.204-16.637-4.971-3.376-1.97-6.694-3.91-9.959-5.821-4.404-2.574-6.74-5.622-6.974-8.436-.228-2.749 1.536-5.299 5.292-7.023z" fill="#EA6E85"/><path fill-rule="evenodd" clip-rule="evenodd" d="M100.391 279.073c7.062-3.91 16.542-6.666 20.952-7.867.643-.176 5.275-1.349 5.9-1.565.345-.17 1.893-.815 2.167-.962.146 3.218 1.174 5.728 3.044 7.686-.322.128-2.01 1.02-2.36 1.172-.514.287-1.239 1.747-1.624 2.187-3.826 4.402-16.087 11.15-25.743 14.849a.08.08 0 00-.035.011c-2.377 1.167-5.9.592-7.617-1.571-1.098-.756-2.161-1.583-2.868-2.046-5.48-3.587-15.701-16.543-23.722-37.072 1.361-1.566 5.842-3.594 6.66-3.905 3.557-1.36 7.009.053 8.3 1.138 2.36 1.987 5.082 5.885 7.465 12.445 1.606 4.426 6.046 9.948 9.3 15.195.064.1.122.205.186.305h-.005z" fill="url(#paint36_linear_2566_24848)"/><path fill-rule="evenodd" clip-rule="evenodd" d="M95.07 293.013c-1.099-.756-2.162-1.582-2.869-2.046-5.48-3.587-15.701-16.543-23.721-37.072 8.107-9.316 19.3 1.84 22.296 10.094 3.884 10.699 7.453 19.785 9.504 31.176-2.068.264-3.826-.405-5.217-2.152h.006z" fill="#3469C0" opacity=".35"/><path fill-rule="evenodd" clip-rule="evenodd" d="M135.485 264.452l1.431-2.38c.333-.375.882-.709 1.408-.428 1.945 1.032 1.466 4.714-1.081 6.654 3.049.105 4.095.838 4.241 2.216.228 2.157-.187 10.206-1.565 10.781-1.14.474-6.73 1.008-7.793.105-.777-.662.059-1.202-.981-2.304-.345-.363-1.823-.375-2.927-1.26-1.437-1.149-1.758-5.112-.771-7.387.035-1.383.187-2.286.649-2.995 1.799-2.761 5.602-.018 7.389-3.002z" fill="#754C4C"/><path fill-rule="evenodd" clip-rule="evenodd" d="M134.79 270.262c.741.17.543.439 1.553.527-.245.358-1.156.663-2.138 1.009-1.144-.37-1.583-.428-2.015.269-1.261 2.029-.812 6.302-.712 7.51-.468-1.091-3.307-.868-3.984-2.621-.485-1.5-.911-5.188-.088-5.932.713.961 1.875 1.331 2.827 1.125 1.741-.369 4.078-1.987 4.557-1.876v-.011z" fill="url(#paint37_linear_2566_24848)"/><path fill-rule="evenodd" clip-rule="evenodd" d="M44.209 434.587c-.263.961-.117 1.764-.59 3.025-.473 1.26-1.034 2.667-1.548 4.859-.794 3.389.298 7.926-.771 12.716-.555 1.917-.508 3.452.76 5.141 1.243 1.659 3.58 4.32 6.635 4.215a4.564 4.564 0 003.219-1.565c1.156-1.331 2.097-3.272 1.921-5.681-.064-.914-.595-3.857-.502-6.536.076-2.345.508-3.641.456-6.214-.059-2.72-.263-6.466-.31-8.219l-9.258-1.747-.012.006zm26.945-13.941c-.882 2.41-1.466 3.441-1.507 6.806.544 1.777 1.788 2.498 3.178 3.723l.981.217c2.43 1.319 3.318 5.938 5.567 8.049 1.59 1.483 4.75 2.292 7.892 2.901 3.353.651 6.542-.31 5.672-2.96-2.173-6.577-11.549-14.011-11.765-21.362l-10.012 2.632-.005-.006z" fill="#0E2E63"/><path fill-rule="evenodd" clip-rule="evenodd" d="M85.232 373.754c-.24 12.604-2.979 36.194-2.558 48.616-3.207 3.23-9.632 2.227-11.724-1.073-1.302-11.431-2.821-27.664-2.973-33.937-.123-5.217.339-10.018 1.67-14.708-1.863-13.794-9.8-32.612-7.908-45.585.83-5.698 4.55-11.836 5.637-16.537 9.363 11.572 16.495 6.026 20.368 5.024-.023 3.998.28 3.464.152 7.668-.438 14.21-1.098 29.387-1.875 44.136.03 2.205-.17 4.626-.783 6.402l-.006-.006z" fill="url(#paint38_linear_2566_24848)"/><path fill-rule="evenodd" clip-rule="evenodd" d="M68.795 399.313c-.438-4.965-.754-9.285-.818-11.959-.123-5.217.339-10.018 1.67-14.708-1.863-13.794-9.8-32.612-7.908-45.585.83-5.698 4.55-11.836 5.637-16.537 9.363 11.572 16.495 6.026 20.368 5.024v1.178l-12.267 9.098 3.02-.686c-.117 16.38-2.132 31.311-2.436 47.461-3.165 9.157-5.029 16.983-7.214 26.421l-.052.288v.005z" fill="#1E2353" opacity=".3"/><path fill-rule="evenodd" clip-rule="evenodd" d="M64.385 382.923c-2.255 12.604-8.838 43.193-10.403 55.615-4.054 2.257-10.006 1.471-11.443-1.835-.047-11.431 0-31.984.853-38.257.706-5.217 2.552-13.272 4.626-17.962-.83-29.452-3.33-37.688.637-50.667 1.74-5.698 6.297-11.197 8.13-15.899 2.512 3.875 6.391 9.368 14.692 8.688.811-.064 7.733-5.03 10.023-5.598-2.897 17.522-11.244 40.402-15.31 59.513-.327 2.204-.911 4.625-1.81 6.402h.005z" fill="url(#paint39_linear_2566_24848)"/><path fill-rule="evenodd" clip-rule="evenodd" d="M77.33 248.607c.923.111 1.74.398 2.593.873 6.18 3.441 8.33 13.571 9.323 22.453.859 7.697.21 14.093-.035 21.133-.193 5.622.526 10.822.275 16.139-.076 1.577-.672 3.283-.83 4.959-.485 1.202-.42 2.392-.403 3.318-3.096 11.836-32.326 12.815-36.584 4.802.298-1.191.642-2.375.748-3.582-2.752-2.515-1.163-8.647-1.595-12.932-.327-3.219-.783-6.496-1.735-8.841-3.978-9.831-9.527-17.393-10.631-24.938-.76-5.194 5.859-11.666 14.586-16.906 8.394-5.042 19.79-7.797 24.288-6.478z" fill="url(#paint40_linear_2566_24848)"/><path fill-rule="evenodd" clip-rule="evenodd" d="M89.275 272.202c-3.108 3.16-22.232 21.503-43.413 16.79l.216-1.448c22.32 4.971 42.478-16.795 42.537-16.86l.543.522c.03.24.058.481.082.721.012.088.017.182.03.27l.005.005zm.345 11.385c-5.234 4.954-21.52 18.577-39.739 15.934a20.339 20.339 0 00-.42-1.548c19.405 3.166 36.794-13.131 40.212-16.561a141.6 141.6 0 01-.053 2.175z" fill="#59C2F1"/><path fill-rule="evenodd" clip-rule="evenodd" d="M48.976 296.666l3.761-7.862 5.047 8.542 4.346-10.4 5.97 8.02 3.09-11.168 6.309 6.835 2.874-12.709 4.708 7.128 3.948-14.913c.076.604.152 1.208.217 1.8l.07.633-3.861 14.591-4.656-7.047-2.786 12.329-6.367-6.894-3.149 11.378-6.116-8.213-4.427 10.599-5.1-8.629-3.434 7.175c-.106-.316-.21-.621-.333-.908-.036-.088-.076-.182-.111-.27v-.017z" fill="#59C2F1"/><path fill-rule="evenodd" clip-rule="evenodd" d="M53.087 295.288c.41.029.742.399.742.832 0 .434-.333.751-.742.722-.408-.03-.741-.399-.741-.833 0-.434.333-.75.742-.721zm4.487-4.567c.409.03.742.399.742.833 0 .434-.333.75-.742.721-.409-.029-.742-.399-.742-.833 0-.433.333-.75.742-.721zm5.239 3.383c.409.029.742.399.742.832 0 .434-.333.751-.742.721-.409-.029-.742-.398-.742-.832 0-.434.333-.75.742-.721zm4.44-5.892c.409.03.741.399.741.833 0 .434-.332.75-.741.721-.41-.029-.742-.399-.742-.833 0-.433.333-.75.742-.721zm5.555 2.21c.41.03.742.399.742.833 0 .434-.333.75-.742.721-.409-.03-.742-.399-.742-.833 0-.433.333-.75.742-.721zm3.318-6.519c.408.03.742.399.742.833 0 .434-.334.75-.742.721-.41-.029-.742-.399-.742-.832 0-.434.333-.751.742-.722zm5.608 1.384c.409.029.742.399.742.832 0 .434-.333.751-.742.722-.409-.03-.742-.399-.742-.833 0-.434.333-.75.742-.721zm2.973-7.076c.409.03.742.399.742.833 0 .434-.333.75-.742.721-.41-.029-.742-.399-.742-.833 0-.433.333-.75.742-.721zm4.778.745a.68.68 0 01.187.035c.006.504.006 1.003.006 1.501a.736.736 0 01-.193.012c-.409-.03-.742-.399-.742-.833 0-.434.333-.75.742-.721v.006zm-41.368 11.918c.409.029.742.398.742.832 0 .434-.333.751-.742.721-.409-.029-.742-.398-.742-.832 0-.434.333-.751.742-.721z" fill="#59C2F1"/><path fill-rule="evenodd" clip-rule="evenodd" d="M52.685 276.066c1.116 6.061-.292 16.332-3.27 21.754-1.455-3.71-2.694-6.507-4.674-9.965.17-.469 6.566-19.293 7.944-11.795v.006z" fill="#3469C0" opacity=".35"/><path fill-rule="evenodd" clip-rule="evenodd" d="M88.65 314.452c-.59 1.348-.409 2.18-.397 3.036-3.096 11.836-32.326 12.815-36.584 4.801.298-1.19.642-2.374.747-3.581-2.751-2.515-1.162-8.647-1.594-12.932-.328-3.219-.783-6.496-1.735-8.841-3.201-7.92-7.43-14.374-9.527-20.523l4.164-3.846 8.389-2.544c1.764 4.361 2.646 8.752 3.242 13.172.741 5.487 1.033 11.021 2.02 16.573 1.18 14.861 3.447 24.885 31.27 14.685h.005z" fill="#3469C0" opacity=".35"/><path fill-rule="evenodd" clip-rule="evenodd" d="M70.618 332.314c.128.099.876.762 1.577.949.257.071.555-.005.742-.076l21.654-14.556 3.563-3.195 25.328-20.969c.677-.598 2.109-1.477 2.214-1.841.035-.117-1.461-.861-1.513-.92-.181-.188-.888 0-2.366.897l-21.9 12.838c-1.418.85-1.827 1.055-2.306 1.583l-26.83 24.235c-.362.31-.502.808-.163 1.061v-.006z" fill="#D8FFF7"/><path fill-rule="evenodd" clip-rule="evenodd" d="M72.067 332.296c-.088.27-.602 1.466 1.285.792l22.705-13.572 3.564-3.194 24.778-21.89c1.63-1.436 2.197-2.949-1.115-.95l-21.899 12.839c-1.42.85-1.829 1.055-2.308 1.582l-27.01 24.399v-.006z" fill="#9FD2FB"/><path fill-rule="evenodd" clip-rule="evenodd" d="M65.676 315.249c.595.369 1.261.668 1.939.949.006-.058.012-.117.023-.175.181.164.392.304.614.428.391.152.776.293 1.15.445 1.075.293 2.226.358 2.868.457 1.134.182 3.827.575 4.971.856 1.496.37 2.682 1.724 4.761 2.908l-2.272 2.052c.49.234.975.357 1.472.305 2.068-.206 7.371-2.867 7.155-1.8-.151.756-1.583 3.435-2.22 4.25-1.308 1.677-2.657 2.708-4.672 3.992-2.016 1.284-4.206 2.58-5.561 2.996-1.496.457-6.478-3.095-7.413-4.215-2.973-3.564-1.781-5.388-4.766-6.818l1.945-6.636.006.006z" fill="url(#paint41_linear_2566_24848)"/><path fill-rule="evenodd" clip-rule="evenodd" d="M37.743 269.945c-2.056 9.028-.713 23.684-1.653 34.253-.07.774-.024 1.448.117 2.046 0 .147.017.288.035.434.18 2.327 1.957 3.74 4.118 5.147 5.543 3.605 10.129 8.196 20.07 11.355.742.235 2.273-.035 3.184-.158.62.188 1.431.651 2.085.844-.11-2.093 2.32-6.296 4.177-7.023-.648-.346-1.414-.932-2.109-1.354-.374-.733-.742-1.313-1.29-1.835-3.47-3.289-11.023-8.846-16.73-12.064.753-2.627 1.256-5.329 1.764-7.375 1.069-4.297 1.857-8.6 2.442-12.721.233-1.647.397-2.48.59-4.156C55.98 264.88 40.236 259 37.748 269.945h-.006z" fill="url(#paint42_linear_2566_24848)"/><path fill-rule="evenodd" clip-rule="evenodd" d="M73.105 254.352c.088-.475.205-.95.304-1.454.286-1.448-.088-4.262.298-7.58l-12.518-5.305c-.21 7.052-1.361 8.512-2.652 14.257.14 5.651 14.13 8.183 14.422 1.541.024-.486.059-.979.152-1.459h-.006z" fill="#754C4C"/><path fill-rule="evenodd" clip-rule="evenodd" d="M73.106 254.352c.087-.475.204-.95.304-1.454.286-1.448-.088-4.262.297-7.58l-12.517-5.305a46.523 46.523 0 01-.28 4.068c-.445 4.672 4.018 12.809 12.044 11.73.023-.486.058-.979.152-1.459z" fill="url(#paint43_linear_2566_24848)"/><path fill-rule="evenodd" clip-rule="evenodd" d="M73.824 254.035c-1.536-1.02-5.736-3.576-7.109-4.59-3.008-2.216-2.646-5.041-3.516-9.473-2.816-2.017-3.762-3.623-4.013-5.435-.596-4.297 1.84-8.928 5.11-11.46 2.857-2.21 6.146-2.832 9.843-2.017 7.185 1.577 10.141 7.035 10.52 13.266a4.03 4.03 0 01-.204 1.548c-.391 1.255-.485 1.436-.666 2.316-.38 1.852.865 2.52.368 4.818-.677 3.125-3.26 9.228-4.316 10.248-.812.785-4.44 1.037-6.029.779h.012z" fill="#754C4C"/><path fill-rule="evenodd" clip-rule="evenodd" d="M84.322 231.618c.175.879.291 1.794.344 2.72a4.033 4.033 0 01-.204 1.548c-.392 1.254-.485 1.436-.666 2.315-.38 1.853.864 2.521.368 4.819-.327 1.518-1.11 3.746-1.945 5.745-4.627 3.529-8.669-.78-9.288-1.583-2.897-3.752-3.12-9.362-.929-14.603 3.336 1.126 8.791.903 12.314-.961h.005z" fill="url(#paint44_linear_2566_24848)"/><path fill-rule="evenodd" clip-rule="evenodd" d="M57.176 232.509c.193 2.386 2.05 8.506 3.459 10.775 1.46 2.351.823-.534 1.588-2.14.59-1.237 2.5-1.383 3.085-2.655.28 1.084.66 2.139 1.355 2.52.444.241 1.343.575 1.378-.703.123-4.426 2.208-4.731 1.548-7.381-.49-1.987-.373-2.843.111-3.558 1.437.199 2.366 1.682 4.048 2.409 1.174.51 6.344 1.061 10.018-.955 3.552-1.947 3.885-6.29.9-9.081-1.66-1.553-3.523-1.946-6.128-3.699-4.97-3.341-11.186-2.151-14.539 1.548-6.536 1.325-7.249 7.591-6.823 12.92z" fill="#04040C"/><path fill-rule="evenodd" clip-rule="evenodd" d="M64.121 236.237c-2.71-1.231-3.043 2.011-2.803 4.028.169 1.383 1.29 1.389 1.588 2.497.357 1.319 1.286 2.011 2.127 2.069 1.711.124.905-2.526.8-3.558.362-1.635.006-4.256-1.712-5.036z" fill="#754C4C"/><path fill-rule="evenodd" clip-rule="evenodd" d="M71.552 227.227c-.263 1.847 2.103 4.022 5.438 4.203 3.09.17 7.273-.562 8.82-4.326.544-1.325-.11-3.675-1.623-4.649-1.034-.662-2.354-.574-3.703.018-2.284 1.008-4.189 3.564-5.818 4.197-1.554.598-3.085.364-3.114.557z" fill="url(#paint45_linear_2566_24848)"/><path fill-rule="evenodd" clip-rule="evenodd" d="M255.129 159.075l-32.015-16.472c-1.858-.964-3.588-1.101-4.957-.546-1.756.709-2.924 2.559-3.024 5.245l11.627 25.64c-.173 4.787 1.403 3.858.702 14.027l26.325 13.865c4.242 2.202 7.818.093 7.991-4.695l.71-24.398c.177-4.788-3.121-10.464-7.363-12.666h.004z" fill="#C5DBF1" opacity=".5"/><path fill-rule="evenodd" clip-rule="evenodd" d="M253.291 164.59l-1.473 28.336.732.088 1.883-.757c2.06-.846 2.946-3.074 3.02-5.241l.711-24.394-.003-.022c.101-3.163-1.222-6.457-3.266-9.099-1.102-1.423-2.484-2.731-4.099-3.55L218.78 133.48c-1.591-.846-3.385-1.159-4.961-.546l-1.658.673c-.837.326-1.078.586-1.063.639 1.657 7.575 42.477 22.571 42.192 30.34l.001.004z" fill="#D0E7FF"/><path fill-rule="evenodd" clip-rule="evenodd" d="M248.902 150.727l-32.016-16.472c-1.857-.964-3.587-1.101-4.957-.546-1.755.709-2.924 2.559-3.024 5.245l-.71 24.399c-.172 4.787 3.112 10.46 7.349 12.662l32.016 16.471c4.241 2.202 7.818.093 7.99-4.695l.71-24.398c.177-4.787-3.121-10.464-7.363-12.666h.005z" fill="#fff"/><path fill-rule="evenodd" clip-rule="evenodd" d="M235.943 152.417c.276.449.406.903.403 1.396 0 .352-.124.956-.35 1.788l-4.458 17.753c-.142.595-.282 1.044-.383 1.37-.119.33-.278.528-.512.621-.211.097-.528.031-.95-.216-1.032-.595-1.55-1.431-1.539-2.449.001-.268.106-.881.326-1.849l4.442-17.767c.223-.942.448-1.554.66-1.836.203-.291.61-.251 1.188.079.525.3.911.661 1.182 1.106l-.009.004zm2.227 4.611l-.04 4.937 10.721 10.953-10.801-1.339-.043 4.959 15.46 1.189.034-4.201-15.335-16.498h.004zm-27.209-3.765l15.341 16.515.043-4.959-10.681-11.023 10.763 1.431.042-5.003-15.467-1.216-.037 4.255h-.004z" fill="url(#paint46_linear_2566_24848)"/><path fill-rule="evenodd" clip-rule="evenodd" d="M141.581 537.231c22.467-13.005 58.806-13.005 81.13 0 22.348 13.018 22.23 34.123-.243 47.128-22.466 13.005-58.805 13.005-81.154-.013-22.324-13.005-22.206-34.11.267-47.115z" fill="#D851D7" opacity=".5"/><path fill-rule="evenodd" clip-rule="evenodd" d="M308.255 544.328l-59.092-33.742c-6.439-2.951-15.66-5.298-22.224-1.874-5.98 3.119-15.829 9.506-20.188 11.996-3.31 1.893-14.791 8.791-7.638 12.688 21.045 11.474 41.866 24.373 63.234 36.028 4.042 2.203 9.954 3 16.157 2.484 6.179-.517 12.519-2.316 17.499-5.224l10.476-6.113c4.632-2.708 7.091-5.908 7.334-8.865.235-2.889-1.615-5.566-5.571-7.378h.013z" fill="#EA6E85" opacity=".3"/><path fill-rule="evenodd" clip-rule="evenodd" d="M226.896 555.678l.087 4.445c.018 6.717-4.403 13.441-13.252 18.565-14.114 8.167-34.42 9.469-50.329 5.297-10.507-2.745-26.242-10.633-26.242-23.619l-.094-4.445 89.83-.243z" fill="#8141E7"/><path fill-rule="evenodd" clip-rule="evenodd" d="M150.324 537.35c17.586-10.186 46.033-10.186 63.513 0 17.493 10.191 17.4 26.707-.192 36.892-17.586 10.185-46.033 10.179-63.526-.012-17.474-10.185-17.38-26.702.205-36.88z" fill="url(#paint47_linear_2566_24848)"/><path fill-rule="evenodd" clip-rule="evenodd" d="M186.719 446.431l.013 106.072c0 .828-.541 1.649-1.627 2.278-1.733 1.002-4.229 1.164-6.185.648-1.292-.337-3.223-1.308-3.223-2.902l-.012-106.071 11.034-.031v.006z" fill="#8141E7"/><path fill-rule="evenodd" clip-rule="evenodd" d="M239.57 468.264c-5.415 13.964-8.396 33.656-11.681 49.014-.503 1.812-1.422 4.097-3.881 5.367-3.831 1.979-8.122 1.562-9.165-1.308.093-14.369-.789-24.965-.342-32.846.503-8.828 3.807-22.269 7.179-27.411 2.496-11.904 23.665-7.347 17.89 7.19v-.006z" fill="url(#paint48_linear_2566_24848)"/><path fill-rule="evenodd" clip-rule="evenodd" d="M240.116 466.614c-.18.617-.366 1.177-.553 1.656l-.223.592-.05.13c-.906 2.41-1.745 4.987-2.533 7.67l-.038.125-.186.641-.056.205-.13.461c-3.565 12.675-6.055 27.735-8.632 39.776-1.347-18.067 1.609-36.128 6.402-51.748a59.15 59.15 0 00-.298-11.318c4.453 1.389 7.999 5.535 6.291 11.816l.006-.006z" fill="#1E2353" opacity=".3"/><path fill-rule="evenodd" clip-rule="evenodd" d="M232.975 530.669c-2.491 2.441-3.993.872-5.024 5.292-2.701 4.14-5.185 5.41-7.439 4.943-2.857-.591-5.086-1.749-5.502-4.931-.484-5.316-.59-6.306.795-10.222l.385-.255c.298-.336.67-.455 1.142-.343 2.49.598 3.248 2.136 4.148 2.995 1.938 1.855 3.801.367 4.627-1.781v-.025l.024-.056v-.018l.032-.106v-.037l.043-.144v-.018l.031-.131.012-.044v-.012l.007-.037.012-.069.013-.075.037-.205.031-.205v-.032c.025-.124.037-.255.056-.379v-.044l.018-.156v-.031l.007-.031v-.087l.012-.037v-.1l.025-.243v-.056l.006-.056.012-.193v-.143l.019-.199a4.75 4.75 0 00-.05-.33c-.049-.878.007-1.476.118-1.874.007-.212.019-.417.025-.623 2.714-1.519 6.8-5.659 9.7-6.449 2.08-.567 3.247 2.396 3.322 3.785.192 3.324-3.993 9.842-6.663 12.768l.019-.006z" fill="#fff"/><path fill-rule="evenodd" clip-rule="evenodd" d="M225.933 519.588c-.124 3.013.112 6.325-2.105 8.087-1.932 1.531-5.272 2.123-7.303-.946-.857-1.295-.764-3.524-1.068-6.27-.006 2.018 10.606 1.227 10.476-.871z" fill="#FFA495"/><path fill-rule="evenodd" clip-rule="evenodd" d="M232.304 529.393c-2.49 2.441-3.993.872-5.023 5.292-2.702 4.14-5.185 5.41-7.44 4.943-2.856-.592-5.085-1.749-5.495-4.931-.485-5.316-.59-6.306.795-10.222l.385-.255c.298-.337.67-.455 1.142-.343 2.49.598 3.248 2.136 4.148 2.995 1.938 1.855 3.801.367 4.627-1.781v-.025l.024-.056v-.018l.031-.106v-.038l.044-.143v-.019l.037-.13.013-.044v-.012l.006-.038.012-.068.013-.075.037-.205.031-.206v-.031c.025-.124.037-.255.056-.38v-.043l.018-.15v-.149l.013-.037v-.1l.025-.243v-.056l.006-.056.012-.193v-.143l.019-.199c-.012-.112-.031-.218-.05-.33-.049-.878.007-1.476.118-1.874.007-.205.019-.417.025-.623 2.714-1.519 6.707-4.501 9.607-5.291 2.08-.567 3.334 1.239 3.415 2.627.192 3.324-3.987 9.849-6.663 12.769l.012-.013z" fill="#193161"/><path fill-rule="evenodd" clip-rule="evenodd" d="M236.26 514.744c.732.822 2.366.287 3.142 2.111.043-1.202-1.18-2.92-2.465-2.92-.249 0-1.037.479-.677.809z" fill="#fff"/><path fill-rule="evenodd" clip-rule="evenodd" d="M228.473 514.464c-.199.953-.392 1.893-.59 2.814-.503 1.806-1.422 4.09-3.881 5.367-3.832 1.979-8.123 1.556-9.166-1.308.006-1.245-.205-2.459-.211-3.648 2.124 2.627 9.358 4.209 13.841-3.231l.007.006z" fill="url(#paint49_linear_2566_24848)"/><path fill-rule="evenodd" clip-rule="evenodd" d="M186.253 450.303c-12.041-3.362-35.054 9.494-56.794 32.821-19.629 21.062 55.366 43.219 70.263 37.503 14.158-5.441 50.075-23.451 47.057-31.047-5.899-14.829-38.73-33.188-60.52-39.271l-.006-.006z" fill="#161D5C"/><path fill-rule="evenodd" clip-rule="evenodd" d="M195.935 452.382c-10.724.355-22.784-.037-32.359 3.493-8.942 3.293-7.52 16.236.615 23.676 7.135 6.524 19.206 8.436 37.003 1.114 5.533-2.278 10.824-4.382 19.108-5.335 7.973-.915 13.158.71 17.542-6.823 3.105-5.336 2.142-11.642-5.216-14.039-10.78-3.517-25.659-2.447-36.699-2.079l.006-.007z" fill="url(#paint50_linear_2566_24848)"/><path fill-rule="evenodd" clip-rule="evenodd" d="M292.079 516.562c2.987 5.379 4.434 7.483 5.204 8.616 1.739 2.559-1.931 6.755-4.384 8.1-2.478 1.357-6.365 1.382-8.06-2.484-.659-1.494-.888-3.511-1.59-5.398 1.236 2.005 6.688-3.928 8.83-8.834z" fill="#FFA495"/><path fill-rule="evenodd" clip-rule="evenodd" d="M288.391 532.967c1.254-.318 8.737 2.39 9.085-7.097 5.377 1.326 14.052-2.914 18.927-2.852.869.013 2.341-.965 2.788-.467 1.403 1.551 2.968 3.985.913 6.282-1.515 1.687-4.987 4.265-7.315 5.74-2.472 1.569-6.725 4.121-9.7 5.304-3.291 1.314-4.8 1.887-5.855 3.169-1.615 1.339-3.416 2.167-4.509 2.235-2.335.156-5.259-.566-7.042-2.87-.571-.735-1.397-4.327-1.484-6.755-.068-1.917.46-4.239.814-6.381l3.372 3.692h.006z" fill="#fff"/><path fill-rule="evenodd" clip-rule="evenodd" d="M298.63 524.662c2.956.174 10.489-2.111 15.413-2.82 2.117-.305 3.98-.747 5.384.927 1.291 1.538 1.161 3.138-.541 5.037-1.515 1.687-4.241 3.847-6.569 5.323-2.472 1.568-6.726 4.121-9.7 5.304-3.291 1.313-4.8 1.886-5.856 3.169-1.614 1.338-3.415 2.166-4.508 2.235-2.335.155-5.315-.841-7.104-3.138-.571-.735-1.335-4.059-1.422-6.487-.05-1.357-.23-3.368-.149-4.576.137-1.973.95-2.272 1.888-1.998 1.745.504 2.682 1.911 3.558 3.038.745.958 1.646 1.457 2.565 1.537 1.987.162 3.446-1.257 4.179-3.106.372-1.208.441-2.578.434-3.991a7.089 7.089 0 00-.08-.373c-.36-3.275 1.254-3.35 1.167-2.621-.074.666.342 2.085 1.329 2.54h.012z" fill="#193161"/><path fill-rule="evenodd" clip-rule="evenodd" d="M317.98 522.527c.242 1.245 1.907-.013 2.459 3.137 1.056-1.488-.639-3.48-1.838-3.835-.273-.081-.869-.224-.621.698z" fill="#fff"/><path fill-rule="evenodd" clip-rule="evenodd" d="M258.075 465.307c8.607 14.723 24.547 36.718 33.439 49.886 2.267 4.277-1.571 10.876-8.625 11.828-10.091-12.059-21.833-18.882-31.8-33.805-1.887-2.826-5.365-8.759-7.551-13.036-2.72.33-6.402.903-10.388 1.562-8.228 1.364-15.04 3.288-20.43 5.877-17.344 8.343-29.509 7.135-37.004 1.04-8.551-6.954-10.718-19.791-1.981-23.595 9.352-4.078 20.033-4.943 30.713-5.92 9.762-.891 29.273-2.783 41.202-1.19.931.125 1.819.274 2.651.442 3.18.561 5.341 1.345 7.706 3.829.95.947 1.627 1.986 2.068 3.076v.006z" fill="url(#paint51_linear_2566_24848)"/><path fill-rule="evenodd" clip-rule="evenodd" d="M290.39 512.615c.509.847 2.372 3.574 2.857 4.389 1.322 3.555-3.428 9.65-10.52 10.192-.534-.723-2.508-2.833-3.061-3.53 6.408-1.812 10.457-5.41 10.73-11.051h-.006z" fill="url(#paint52_linear_2566_24848)"/><path fill-rule="evenodd" clip-rule="evenodd" d="M184.223 392.822c1.863-3.212 3.738-5.92 5.793-8.809 1.683-2.366 2.254-2.303 4.862-3.044 2.869-.816 3.478-.61 6.036.155 2.223.667 4.092 2.248 4.645 3.25 1.764 3.188-5.589 3.885-6.222 4.165-1.198 2.329-1.528 4.146-3.664 5.46-3.545 2.173-4.98 2.254-6.296 4.85l-5.154-6.027z" fill="#ECAA5E"/><path fill-rule="evenodd" clip-rule="evenodd" d="M192.077 388.583c2.279-2.671 2.422-3.287 5.397-5.746.124-.05.242-.094.354-.131l2.546.143c1.26 1.32 3.477 2.633 4.918 1.145.062.088.124.175.18.268 1.049 1.669-.006 3.841-.975 3.991-2.335.355-4.167-.162-5.16.286-1.199 2.329-1.528 4.146-3.664 5.46-3.546 2.173-4.98 2.254-6.297 4.85l-3.26-3.817 5.961-6.449z" fill="#E19A48"/><path fill-rule="evenodd" clip-rule="evenodd" d="M169.835 424.934c2.304-3.256 14.667-16.336 17.71-21.696.447-.791.671-2.677.652-3.007l1.658-2.154c-.31-2.572-3.111-5.541-5.613-5.877l-1.795 1.469c-1.217-.069-3.161.355-4.21.971-8.321 4.881-23.293 18.702-23.218 28.638.05 6.879 11.612 4.557 14.816 1.656z" fill="url(#paint53_linear_2566_24848)"/><path fill-rule="evenodd" clip-rule="evenodd" d="M205.615 370.547l-21.709 34.677 35.253 8.715 21.703-34.682-35.247-8.71z" fill="url(#paint54_linear_2566_24848)"/><path fill-rule="evenodd" clip-rule="evenodd" d="M188.489 395.076c4.949.479 4.161-2.378 5.912-5.659.875-.411 1.54-1.152 2.372-1.886 3.384-.573 3.813-2.136 3.384-3.761-1.142.019-3.396.019-4.365.137-4.664 1.992-8.129 2.142-10.147 7.29-.733 1.874 1.379 1.563 2.844 3.885v-.006z" fill="#F3B165"/><path fill-rule="evenodd" clip-rule="evenodd" d="M212.819 410.385a.945.945 0 00.608 1.183.942.942 0 001.18-.61c.69-2.155 1.664-6.811 1.64-10.578-.019-2.739-.584-5.08-2.168-5.97-2.645-1.482-4.359-.374-6.085.747-.304.193-.615.392-.869.542-.715.417-1.311.61-1.795.641a1.482 1.482 0 01-1.236-.498c-.372-.411-.633-1.04-.801-1.768-.316-1.389-.267-3.063 0-4.414.143-.729.317-1.451.491-2.173.944-3.966 1.844-7.77-1.702-9.251a.942.942 0 00-.72 1.743c2.074.865 1.354 3.903.602 7.072-.18.754-.36 1.513-.503 2.241-.316 1.569-.366 3.549.013 5.199.23 1.021.633 1.942 1.242 2.615.677.747 1.577 1.176 2.732 1.108.764-.044 1.639-.324 2.614-.884.36-.206.652-.399.95-.592 1.248-.815 2.49-1.618 4.155-.685.881.492 1.198 2.235 1.211 4.34.018 3.542-.907 7.944-1.559 9.992z" fill="#fff"/><path fill-rule="evenodd" clip-rule="evenodd" d="M157.05 458.888l.689 2.976c5.688 9.158 27.111 15.247 42.319 2.055-.354-1.464-.565-2.466-.671-3.792.354-1.04.317-2.683.081-5.061-.584-5.852-2.745-16.087-2.77-16.579-.677-12.918 2.143-25.737-3.564-34.926-1.223-1.973-2.869-2.726-4.757-3.741-4.104-2.204-22.584-7.907-32.178-9.295-5.769-.834-12.103.261-14.165 6.935-2.819 9.108 3.049 22.599 7.881 35.337 6.315 16.659 3.409 19.212 7.128 26.091h.007z" fill="url(#paint55_linear_2566_24848)"/><path fill-rule="evenodd" clip-rule="evenodd" d="M199.561 456.074a32.662 32.662 0 00-.093-1.008c-.583-5.852-2.744-16.087-2.769-16.579-.677-12.918 2.533-25.992-3.565-34.926-3.57-5.229-11.314-4.32-14.071 2.142-2.086 4.893-.192 11.897 2.341 23.477 1.795 8.205 5.018 27.392 9.867 29.409 1.652.685 4.459-.205 8.284-2.515h.006z" fill="#3469C0" opacity=".35"/><path fill-rule="evenodd" clip-rule="evenodd" d="M171.487 382.12c.347 3.119 1.328 7.515 2.477 10.528-6.34.983-15.412.977-17.25-3.549l-.379-8.909c5.061-6.063 14.885 1.993 15.145 1.93h.007z" fill="url(#paint56_linear_2566_24848)"/><path fill-rule="evenodd" clip-rule="evenodd" d="M156.608 388.944c-1.758.927-3.142 3.181-2.565 4.345 3.285 7.259 17.654 6.836 25.963 3.374-1.143-1.905-4.216-4.339-5.974-4.569-5.34 1.562-14.897 1.021-17.418-3.156l-.006.006z" fill="#4A9FF8"/><path fill-rule="evenodd" clip-rule="evenodd" d="M170.635 388.128c-1.894-.448-2.98-2.752-3.663-6.674-.578-3.324-9.917.878-9.768.66-.845-3.026-3.776-5.31-4.44-9.513-.925-5.877.515-12.083 6.328-15.57 10.618-6.369 22.181.704 23.814 12.308.316 2.266-1.559 3.219-1.745 5.093-.037.367.397.815.677 1.674.391 1.196-.746 8.66-2.882 11.568-.888 1.207-6.911 1.033-8.333.46l.012-.006z" fill="#ECAA5E"/><path fill-rule="evenodd" clip-rule="evenodd" d="M178.969 387.667c-.36.523-3.092-.068-4.098-.529 4.266-5.385-.671-9.73 3.701-14.854 2.627-3.082-.081-6.506 2.844-8.125a18.664 18.664 0 011.497 5.18c.316 2.266-1.559 3.219-1.745 5.093-.038.367.397.815.677 1.674.391 1.196-.82 8.604-2.882 11.568l.006-.007z" fill="url(#paint57_linear_2566_24848)"/><path fill-rule="evenodd" clip-rule="evenodd" d="M172.965 380.595c.708-1.363.341-1.942-.311-1.868-.714.081-1.825.94-2.527 2.354-1.137 2.284-.36 5.459 2.099 4.588-2-.15-1.497-2.515-.708-3.916.534-.946 1.254-1.575 1.44-1.158h.007z" fill="#FFBC6C"/><path fill-rule="evenodd" clip-rule="evenodd" d="M171.965 381.124c.416 1.108.528 1.75.304 2.08-.155.23-.577.46-1.123-.231.074-.722.416-1.351.819-1.849z" fill="#E19A48"/><path fill-rule="evenodd" clip-rule="evenodd" d="M155.894 382.556c-.652-3.38-3.372-6.512-3.98-10.347-.596-3.779-.578-8.99 3.26-11.934 2.453-9.476 14.94-10.335 23.044-7.209 5.8 2.235 5.402 9.73.801 12.065.571 3.386-1.292 6.213-1.888 6.867-1.825 1.992-1.95 2.315-2.291 4.457-.267 1.693-.876 5.802-2.155 2.148-.826-2.366-3.813-.181-4.521 2.185-.322 1.077-.732 2.434-2.086 4.121-3.136 3.923-9.83-.473-10.19-2.353h.006z" fill="silver"/><path fill-rule="evenodd" clip-rule="evenodd" d="M159.807 358.208c3.092-8.722 15.555-6.269 19.535-3.879 4.03 2.416 3.024 10.926-3.067 10.16-4.155-.522-8.663-7.476-16.468-6.281z" fill="url(#paint58_linear_2566_24848)"/><path fill-rule="evenodd" clip-rule="evenodd" d="M222.648 405.217l3.757-.442 3.316-2.764.18-5.105-2.707-1.631c-2.844.342-4.508-.448-5.105.1-.658.603-.329 3.884.553 9.855l.006-.013z" fill="#E19A48"/><path fill-rule="evenodd" clip-rule="evenodd" d="M214.545 414.145c.665-.785 1.224-1.582 1.652-2.391-.13-3.063.695-4.993 2.031-6.823 2.185-2.988 2.496-3.374 2.962-5.597.192-.921.298-1.631.472-2.054.478-1.152 1.794-.828 2.247.348.354.922.28 2.192.112 2.976l-.583 1.55 3.992-4.557c.64-.996-7.054.037-5.334-2.316.981-.541 2.335-.635 3.95-.766a20.568 20.568 0 013.489.038c1.596.137 2.217 6.698 2.242 8.41.013.71-.012 1.937-.391 2.734-.944 1.992-2.186 3.891-3.533 5.098-2.596 2.322-4.918 2.03-6.906 6.407l-6.408-3.057h.006z" fill="#ECAA5E"/><path fill-rule="evenodd" clip-rule="evenodd" d="M234.696 392.1c-7.08 2.864-16.798 6.493-20.275 9.556 3.806-.037 13.922-4.594 21.026-7.551 1.757-.735.9-2.677-.751-2.005z" fill="#273087"/><path fill-rule="evenodd" clip-rule="evenodd" d="M218.228 404.931c2.185-2.989 2.496-3.375 2.962-5.597.192-.921.298-1.631.472-2.054.478-1.152 1.794-.828 2.247.348.354.922.28 2.192.112 2.976l-.708 2.49-5.085 1.831v.006z" fill="#F3B165"/><path fill-rule="evenodd" clip-rule="evenodd" d="M200.921 426.665c3.745-4.975 7.967-10.459 10.495-12.707.676-.604 2.471-1.208 2.8-1.258l1.758-2.073c2.577-.224 6.048 1.912 6.892 4.302l-1.062 2.061c.317 1.183.305 3.175-.08 4.333-3.012 9.046-13.177 26.228-22.777 28.588-1.006.28-2.23.311-3.714-.013-1.77-.379-2.546-2.726-3.266-4.227-5.713-11.884-8.495-16.149-12.184-28.102-2.434-7.882-1.614-12.377 1.162-15.078 3.483-3.387 8.693-3.406 11.488.211 4.216 5.454 6.824 15.763 8.482 23.975l.006-.012z" fill="url(#paint59_linear_2566_24848)"/><path fill-rule="evenodd" clip-rule="evenodd" d="M239.315 503.302l-26.702 17.699c-15.791 9.868-37.854 10.278-54.08 1.102l-30.129-17.127c-10.979-6.238-13.767-15.807-12.544-28.849.925-9.824 8.948-35.225 13.804-45.279 12.314-25.487 51.609.766 58.185 18.733 4.074 11.131 9.017 18.341 15.841 25.351 17.089 17.543 21.374 1.979 33.328-2.242 11.14-3.928 11.823 8.735 11.295 18.472-.311 5.752-3.36 8.467-8.998 12.146v-.006z" fill="url(#paint60_linear_2566_24848)"/><path style="mix-blend-mode:multiply" opacity=".5" fill-rule="evenodd" clip-rule="evenodd" d="M239.315 503.302l-26.702 17.699c-15.791 9.868-37.854 10.279-54.08 1.102l-30.129-17.127c-10.979-6.238-13.767-15.806-12.544-28.849.205-2.21.776-5.211 1.584-8.641 2.713 3.418 41.567 37.621 70.902 39.844 18.287 1.388 36.966-4.389 59.967-16.174-.311 5.752-3.36 8.466-8.998 12.146z" fill="url(#paint61_linear_2566_24848)"/><defs><linearGradient id="paint0_linear_2566_24848" x1="463.961" y1="252.562" x2="103.874" y2="145.964" gradientUnits="userSpaceOnUse"><stop stop-color="#FA5DB1"/><stop offset="1" stop-color="#FEBFBF"/></linearGradient><linearGradient id="paint1_linear_2566_24848" x1="411.947" y1="239.315" x2="371.111" y2="341.897" gradientUnits="userSpaceOnUse"><stop stop-color="#EAEFFF"/><stop offset="1" stop-color="#D1E8FF"/></linearGradient><linearGradient id="paint2_linear_2566_24848" x1="434.847" y1="201.496" x2="457.714" y2="168.299" gradientUnits="userSpaceOnUse"><stop stop-color="#6D6AFE"/><stop offset="1" stop-color="#3FB0F7"/></linearGradient><linearGradient id="paint3_linear_2566_24848" x1="368.106" y1="198.182" x2="438.738" y2="171.598" gradientUnits="userSpaceOnUse"><stop stop-color="#6D6AFE"/><stop offset="1" stop-color="#3FB0F7"/></linearGradient><linearGradient id="paint4_linear_2566_24848" x1="280.543" y1="301.8" x2="238.916" y2="252.065" gradientUnits="userSpaceOnUse"><stop stop-color="#FA5DB1"/><stop offset="1" stop-color="#FEBFBF"/></linearGradient><linearGradient id="paint5_linear_2566_24848" x1="286.363" y1="329.938" x2="203.619" y2="267.68" gradientUnits="userSpaceOnUse"><stop stop-color="#FA5DB1"/><stop offset="1" stop-color="#FEBFBF"/></linearGradient><linearGradient id="paint6_linear_2566_24848" x1="115.974" y1="189.567" x2="130.116" y2="216.628" gradientUnits="userSpaceOnUse"><stop stop-color="#5A2D69"/><stop offset="1" stop-color="#22043D"/></linearGradient><linearGradient id="paint7_linear_2566_24848" x1="192.48" y1="210.775" x2="191.876" y2="208.587" gradientUnits="userSpaceOnUse"><stop stop-color="#8C4744"/><stop offset="1" stop-color="#AE5C57"/></linearGradient><linearGradient id="paint8_linear_2566_24848" x1="173.762" y1="222.049" x2="152.355" y2="196.536" gradientUnits="userSpaceOnUse"><stop stop-color="#965CF2"/><stop offset="1" stop-color="#FF8ADC"/></linearGradient><linearGradient id="paint9_linear_2566_24848" x1="128.75" y1="270.918" x2="155.762" y2="330.895" gradientUnits="userSpaceOnUse"><stop stop-color="#3E4795"/><stop offset="1" stop-color="#273088"/></linearGradient><linearGradient id="paint10_linear_2566_24848" x1="114.099" y1="268.568" x2="146.899" y2="331.196" gradientUnits="userSpaceOnUse"><stop stop-color="#3E4795"/><stop offset="1" stop-color="#273088"/></linearGradient><linearGradient id="paint11_linear_2566_24848" x1="139.364" y1="244.639" x2="132.394" y2="203.502" gradientUnits="userSpaceOnUse"><stop stop-color="#965CF2"/><stop offset="1" stop-color="#FF8ADC"/></linearGradient><linearGradient id="paint12_linear_2566_24848" x1="143.924" y1="226.884" x2="141.156" y2="247.623" gradientUnits="userSpaceOnUse"><stop stop-color="#93E0F4"/><stop offset="1" stop-color="#92CEFC"/></linearGradient><linearGradient id="paint13_linear_2566_24848" x1="148.879" y1="242.862" x2="148.351" y2="249.461" gradientUnits="userSpaceOnUse"><stop stop-color="#AE5D57"/><stop offset="1" stop-color="#894542"/></linearGradient><linearGradient id="paint14_linear_2566_24848" x1="132.077" y1="251.805" x2="114.349" y2="214.105" gradientUnits="userSpaceOnUse"><stop stop-color="#965CF2"/><stop offset="1" stop-color="#FF8ADC"/></linearGradient><linearGradient id="paint15_linear_2566_24848" x1="135.262" y1="190.287" x2="134.593" y2="193.621" gradientUnits="userSpaceOnUse"><stop stop-color="#874340"/><stop offset="1" stop-color="#964743"/></linearGradient><linearGradient id="paint16_linear_2566_24848" x1="150.936" y1="166.127" x2="141.897" y2="185.576" gradientUnits="userSpaceOnUse"><stop stop-color="#BA6861"/><stop offset="1" stop-color="#A04F4B"/></linearGradient><linearGradient id="paint17_linear_2566_24848" x1="300.111" y1="302.374" x2="299.307" y2="310.88" gradientUnits="userSpaceOnUse"><stop stop-color="#FFA596"/><stop offset="1" stop-color="#FFC9C0"/></linearGradient><linearGradient id="paint18_linear_2566_24848" x1="299.442" y1="301.785" x2="298.777" y2="308.801" gradientUnits="userSpaceOnUse"><stop stop-color="#FFA697"/><stop offset="1" stop-color="#FFC9C0"/></linearGradient><linearGradient id="paint19_linear_2566_24848" x1="343.465" y1="285.916" x2="332.291" y2="316.081" gradientUnits="userSpaceOnUse"><stop stop-color="#6D6AFE"/><stop offset="1" stop-color="#3FB0F7"/></linearGradient><linearGradient id="paint20_linear_2566_24848" x1="353.573" y1="364.164" x2="371.865" y2="423.46" gradientUnits="userSpaceOnUse"><stop stop-color="#235DA3"/><stop offset="1" stop-color="#123A76"/></linearGradient><linearGradient id="paint21_linear_2566_24848" x1="364.226" y1="367.767" x2="398.179" y2="436.402" gradientUnits="userSpaceOnUse"><stop stop-color="#235DA3"/><stop offset="1" stop-color="#123A76"/></linearGradient><linearGradient id="paint22_linear_2566_24848" x1="374.378" y1="293.783" x2="363.763" y2="348.336" gradientUnits="userSpaceOnUse"><stop stop-color="#6D6AFE"/><stop offset="1" stop-color="#3FB0F7"/></linearGradient><linearGradient id="paint23_linear_2566_24848" x1="381.287" y1="361.525" x2="378.904" y2="357.355" gradientUnits="userSpaceOnUse"><stop stop-color="#FFA596"/><stop offset="1" stop-color="#FFC9C0"/></linearGradient><linearGradient id="paint24_linear_2566_24848" x1="399.225" y1="304.884" x2="392.946" y2="350.967" gradientUnits="userSpaceOnUse"><stop stop-color="#6D6AFE"/><stop offset="1" stop-color="#3FB0F7"/></linearGradient><linearGradient id="paint25_linear_2566_24848" x1="368.846" y1="277.886" x2="371.983" y2="281.409" gradientUnits="userSpaceOnUse"><stop stop-color="#FF9786"/><stop offset="1" stop-color="#FFC9C0"/></linearGradient><linearGradient id="paint26_linear_2566_24848" x1="358.267" y1="267.553" x2="362.141" y2="277.149" gradientUnits="userSpaceOnUse"><stop stop-color="#FFDDD1"/><stop offset="1" stop-color="#FFC9C0"/></linearGradient><linearGradient id="paint27_linear_2566_24848" x1="345.995" y1="116.372" x2="292.901" y2="144.661" gradientUnits="userSpaceOnUse"><stop stop-color="#FF66BC"/><stop offset="1" stop-color="#FFBBA8"/></linearGradient><linearGradient id="paint28_linear_2566_24848" x1="327.636" y1="130.932" x2="316.705" y2="148.744" gradientUnits="userSpaceOnUse"><stop stop-color="#FF66BC"/><stop offset=".56" stop-color="#FF8ADC"/><stop offset="1" stop-color="#FFBBA8"/></linearGradient><linearGradient id="paint29_linear_2566_24848" x1="328.958" y1="133.482" x2="299.296" y2="137.093" gradientUnits="userSpaceOnUse"><stop stop-color="#FF66BC"/><stop offset=".56" stop-color="#FF8ADC"/><stop offset="1" stop-color="#FFBBA8"/></linearGradient><linearGradient id="paint30_linear_2566_24848" x1="513.706" y1="313.066" x2="510.676" y2="275.215" gradientUnits="userSpaceOnUse"><stop stop-color="#6D6AFE"/><stop offset="1" stop-color="#3FB0F7"/></linearGradient><linearGradient id="paint31_linear_2566_24848" x1="479.693" y1="319.81" x2="479.67" y2="302.613" gradientUnits="userSpaceOnUse"><stop stop-color="#6D6AFE"/><stop offset="1" stop-color="#3FB0F7"/></linearGradient><linearGradient id="paint32_linear_2566_24848" x1="470.304" y1="470.621" x2="480.85" y2="455.714" gradientUnits="userSpaceOnUse"><stop stop-color="#FA5DB1"/><stop offset="1" stop-color="#FEBFBF"/></linearGradient><linearGradient id="paint33_linear_2566_24848" x1="478.027" y1="453.038" x2="478.979" y2="451.283" gradientUnits="userSpaceOnUse"><stop stop-color="#FA5DB1"/><stop offset="1" stop-color="#FEBFBF"/></linearGradient><linearGradient id="paint34_linear_2566_24848" x1="504.274" y1="488.629" x2="530.511" y2="471.937" gradientUnits="userSpaceOnUse"><stop stop-color="#FA5DB1"/><stop offset="1" stop-color="#FEBFBF"/></linearGradient><linearGradient id="paint35_linear_2566_24848" x1="511.335" y1="394.777" x2="504.23" y2="415.857" gradientUnits="userSpaceOnUse"><stop stop-color="#1C8EF4"/><stop offset="1" stop-color="#00CFDD"/></linearGradient><linearGradient id="paint36_linear_2566_24848" x1="102.937" y1="269.805" x2="111.219" y2="284.511" gradientUnits="userSpaceOnUse"><stop stop-color="#1C8EF4"/><stop offset="1" stop-color="#00CFDD"/></linearGradient><linearGradient id="paint37_linear_2566_24848" x1="132.622" y1="275.233" x2="129.715" y2="269.719" gradientUnits="userSpaceOnUse"><stop stop-color="#5E3B3B"/><stop offset="1" stop-color="#754C4C"/></linearGradient><linearGradient id="paint38_linear_2566_24848" x1="83.831" y1="336.605" x2="64.681" y2="398.237" gradientUnits="userSpaceOnUse"><stop stop-color="#235DA3"/><stop offset="1" stop-color="#123A76"/></linearGradient><linearGradient id="paint39_linear_2566_24848" x1="72.82" y1="340.404" x2="37.236" y2="411.751" gradientUnits="userSpaceOnUse"><stop stop-color="#235DA3"/><stop offset="1" stop-color="#123A76"/></linearGradient><linearGradient id="paint40_linear_2566_24848" x1="62.323" y1="263.362" x2="73.434" y2="320.105" gradientUnits="userSpaceOnUse"><stop stop-color="#1C8EF4"/><stop offset="1" stop-color="#00CFDD"/></linearGradient><linearGradient id="paint41_linear_2566_24848" x1="75.688" y1="323.04" x2="74.564" y2="326.913" gradientUnits="userSpaceOnUse"><stop stop-color="#845959"/><stop offset="1" stop-color="#754C4C"/></linearGradient><linearGradient id="paint42_linear_2566_24848" x1="43.578" y1="265.56" x2="56.241" y2="326.961" gradientUnits="userSpaceOnUse"><stop stop-color="#1C8EF4"/><stop offset="1" stop-color="#00CFDD"/></linearGradient><linearGradient id="paint43_linear_2566_24848" x1="68.036" y1="246.825" x2="64.775" y2="250.471" gradientUnits="userSpaceOnUse"><stop stop-color="#422727"/><stop offset="1" stop-color="#754C4C"/></linearGradient><linearGradient id="paint44_linear_2566_24848" x1="78.977" y1="236.067" x2="74.921" y2="246.041" gradientUnits="userSpaceOnUse"><stop stop-color="#845959"/><stop offset="1" stop-color="#754C4C"/></linearGradient><linearGradient id="paint45_linear_2566_24848" x1="80.98" y1="228.505" x2="77.997" y2="225.655" gradientUnits="userSpaceOnUse"><stop stop-color="#222C60"/><stop offset="1" stop-color="#04040C"/></linearGradient><linearGradient id="paint46_linear_2566_24848" x1="231.269" y1="165.744" x2="235.948" y2="156.071" gradientUnits="userSpaceOnUse"><stop stop-color="#965CF2"/><stop offset="1" stop-color="#FF8ADC"/></linearGradient><linearGradient id="paint47_linear_2566_24848" x1="166.327" y1="570.283" x2="203.511" y2="536.044" gradientUnits="userSpaceOnUse"><stop stop-color="#965CF2"/><stop offset="1" stop-color="#FF8ADC"/></linearGradient><linearGradient id="paint48_linear_2566_24848" x1="235.919" y1="471.582" x2="213.046" y2="507.414" gradientUnits="userSpaceOnUse"><stop stop-color="#235DA3"/><stop offset="1" stop-color="#123A76"/></linearGradient><linearGradient id="paint49_linear_2566_24848" x1="222.244" y1="517.459" x2="216.274" y2="523.426" gradientUnits="userSpaceOnUse"><stop stop-color="#235DA3"/><stop offset="1" stop-color="#123A76"/></linearGradient><linearGradient id="paint50_linear_2566_24848" x1="231.522" y1="455.576" x2="165.974" y2="473.514" gradientUnits="userSpaceOnUse"><stop stop-color="#235DA3"/><stop offset="1" stop-color="#123A76"/></linearGradient><linearGradient id="paint51_linear_2566_24848" x1="230.038" y1="475.654" x2="230.301" y2="520.715" gradientUnits="userSpaceOnUse"><stop stop-color="#235DA3"/><stop offset="1" stop-color="#123A76"/></linearGradient><linearGradient id="paint52_linear_2566_24848" x1="287.329" y1="518.094" x2="284.92" y2="528.033" gradientUnits="userSpaceOnUse"><stop stop-color="#235DA3"/><stop offset="1" stop-color="#123A76"/></linearGradient><linearGradient id="paint53_linear_2566_24848" x1="171.046" y1="407.988" x2="178.859" y2="424.389" gradientUnits="userSpaceOnUse"><stop stop-color="#6D6AFE"/><stop offset="1" stop-color="#3FB0F7"/></linearGradient><linearGradient id="paint54_linear_2566_24848" x1="204.883" y1="406.469" x2="220.986" y2="376.091" gradientUnits="userSpaceOnUse"><stop stop-color="#A77EF7"/><stop offset="1" stop-color="#5E65D6"/></linearGradient><linearGradient id="paint55_linear_2566_24848" x1="163.52" y1="401.333" x2="186.81" y2="461.413" gradientUnits="userSpaceOnUse"><stop stop-color="#6D6AFE"/><stop offset="1" stop-color="#3FB0F7"/></linearGradient><linearGradient id="paint56_linear_2566_24848" x1="166.28" y1="384.124" x2="162.54" y2="390.653" gradientUnits="userSpaceOnUse"><stop stop-color="#D8964A"/><stop offset="1" stop-color="#ECAA5E"/></linearGradient><linearGradient id="paint57_linear_2566_24848" x1="181.907" y1="374.923" x2="173.662" y2="379.73" gradientUnits="userSpaceOnUse"><stop stop-color="#FAC17E"/><stop offset="1" stop-color="#ECAA5E"/></linearGradient><linearGradient id="paint58_linear_2566_24848" x1="185.335" y1="358.799" x2="167.115" y2="358.037" gradientUnits="userSpaceOnUse"><stop stop-color="#D9D9D9"/><stop offset="1" stop-color="silver"/></linearGradient><linearGradient id="paint59_linear_2566_24848" x1="195.941" y1="405.771" x2="210.383" y2="436.958" gradientUnits="userSpaceOnUse"><stop stop-color="#6D6AFE"/><stop offset="1" stop-color="#3FB0F7"/></linearGradient><linearGradient id="paint60_linear_2566_24848" x1="170.4" y1="506.601" x2="197.231" y2="442.377" gradientUnits="userSpaceOnUse"><stop stop-color="#965CF2"/><stop offset="1" stop-color="#FF8ADC"/></linearGradient><linearGradient id="paint61_linear_2566_24848" x1="172.958" y1="532.624" x2="179.617" y2="497.039" gradientUnits="userSpaceOnUse"><stop stop-color="#965CF2"/><stop offset="1" stop-color="#FF8ADC"/></linearGradient></defs></svg>