<svg width="648" height="594" fill="none" xmlns="http://www.w3.org/2000/svg"><path opacity=".5" fill-rule="evenodd" clip-rule="evenodd" d="M648 495.464l-341.059 65.54c-67.846 13.04-136.774-16.907-157.028-81.683L0 0h647.992v495.464H648z" fill="url(#paint0_linear_963_3763)"/><path opacity=".5" fill-rule="evenodd" clip-rule="evenodd" d="M648 594l-496.838-3.471c-68.994-.481-123.447-59.224-121.088-126.506L46.29 0l601.702.287V594H648z" fill="url(#paint1_linear_963_3763)"/><path fill-rule="evenodd" clip-rule="evenodd" d="M397.385 491.044l-1.78 3.092-6.412-3.439 1.781-3.092 6.411 3.439zM345.536 95.092l4.237 2.273 1.781-3.092L347.317 92l-1.781 3.092zm7.439 3.993l1.78-3.092 6.412 3.439-1.781 3.092-6.411-3.44zm9.613 5.167l1.781-3.092 6.411 3.439-1.78 3.092-6.412-3.439zm9.613 5.166l1.781-3.091 6.411 3.439-1.78 3.091-6.412-3.439zm9.613 5.167l1.781-3.092 6.411 3.439-1.78 3.092-6.412-3.439zm9.613 5.167l1.781-3.092 6.411 3.439-1.78 3.092-6.412-3.439zm9.613 5.167l1.781-3.092 6.411 3.439-1.78 3.092-6.412-3.439zm9.613 5.167l1.781-3.092 6.411 3.439-1.78 3.092-6.412-3.439zm9.614 5.167l1.78-3.092 6.412 3.439-1.781 3.092-6.411-3.439zm9.613 5.166l1.78-3.091 6.412 3.439-1.781 3.091-6.411-3.439zm9.613 5.167l1.78-3.092 6.412 3.439-1.781 3.092-6.411-3.439zm9.613 5.167l1.78-3.092 6.412 3.439-1.781 3.092-6.411-3.439zm9.613 5.167l1.78-3.092 6.412 3.439-1.781 3.092-6.411-3.439zm9.613 5.167l1.78-3.092 6.412 3.439-1.78 3.092-6.412-3.439zm9.613 5.166l1.78-3.091 6.412 3.439-1.78 3.091-6.412-3.439zm9.416 5.134c1.841 1.24 3.322 2.827 4.571 4.613l3.048-1.967c-1.49-2.142-3.322-4.076-5.522-5.547l-2.097 2.901zm6.232 7.465a21.554 21.554 0 011.935 6.25l3.638-.479a24.757 24.757 0 00-2.252-7.275l-3.321 1.504zm2.114 9.474c-.077 2.224-.616 4.745-.933 6.837l3.63.512c.334-2.215.89-4.852.967-7.208l-3.664-.141zm-1.463 10.342l3.629.513-1.061 7.01-3.63-.513 1.062-7.01zm-1.593 10.516l3.63.512-1.062 7.01-3.629-.512 1.061-7.01zm-1.592 10.515l3.63.513-1.062 7.01-3.629-.513 1.061-7.01zm-1.592 10.516l3.629.512-1.061 7.01-3.629-.512 1.061-7.01zm-1.592 10.515l3.629.513-1.061 7.01-3.63-.513 1.062-7.01zm-1.592 10.516l3.629.512-1.061 7.011-3.63-.513 1.062-7.01zm-1.593 10.515l3.63.513-1.062 7.01-3.629-.513 1.061-7.01zm-1.592 10.516l3.63.512-1.062 7.011-3.629-.513 1.061-7.01zm-1.592 10.515l3.63.513-1.062 7.01-3.629-.512 1.061-7.011zm-1.592 10.516l3.629.512-1.061 7.011-3.63-.513 1.062-7.01zm-1.592 10.515l3.629.513-1.061 7.01-3.63-.512 1.062-7.011zm-1.593 10.516l3.63.512-1.062 7.011-3.629-.513 1.061-7.01zm-1.592 10.515l3.63.513-1.062 7.01-3.629-.512 1.061-7.011zm-1.592 10.516l3.63.512-1.062 7.011-3.629-.513 1.061-7.01zm-1.592 10.515l3.629.513-1.061 7.01-3.63-.512 1.062-7.011zm-1.592 10.516l3.629.512-1.061 7.011-3.63-.513 1.062-7.01zm-1.592 10.515l3.629.513-1.061 7.01-3.63-.512 1.062-7.011zm-1.593 10.516l3.63.512-1.062 7.011-3.629-.513 1.061-7.01zm-1.592 10.515l3.63.513-1.062 7.01-3.629-.512 1.061-7.011zm-1.592 10.516l3.629.512-1.061 7.011-3.63-.513 1.062-7.01zm-1.592 10.515l3.629.513-1.061 7.01-3.63-.512 1.062-7.011zm-1.592 10.516l3.629.512-1.061 7.011-3.63-.513 1.062-7.01zm-1.593 10.515l3.63.513-1.062 7.01-3.629-.512 1.061-7.011zm-1.592 10.516l3.63.512-1.062 7.011-3.629-.513 1.061-7.01zm-1.592 10.515l3.629.513-1.061 7.01-3.629-.512 1.061-7.011zm-1.592 10.516l3.629.513-1.061 7.01-3.63-.513 1.062-7.01zm-1.592 10.516l3.629.512-1.061 7.01-3.63-.512 1.062-7.01zm-1.593 10.515l3.63.513-1.062 7.01-3.629-.513 1.061-7.01zm-1.592 10.516l3.63.512-1.062 7.01-3.629-.512 1.061-7.01zm-1.592 10.515l3.629.513-.248 1.62c-.316 2.067-.958 3.993-2.08 5.787l-3.116-1.86c.848-1.331 1.336-2.902 1.575-4.44l.249-1.62h-.009zm-3.784 8.184c-1.609 1.149-3.552 1.497-5.504 1.092l-.745 3.472c3.005.587 5.941.066 8.424-1.712l-2.175-2.852zm-8.406.033l-1.78 3.1-6.412-3.447 1.781-3.092 6.411 3.439zm-9.613-5.166l-1.78 3.091-6.412-3.439 1.781-3.091 6.411 3.439zm-9.613-5.167l-1.78 3.092-6.412-3.439 1.781-3.092 6.411 3.439zm-9.613-5.167l-1.781 3.092-6.411-3.439 1.78-3.092 6.412 3.439z" fill="#fff"/><path fill-rule="evenodd" clip-rule="evenodd" d="M306.536 50.98c3.33 1.777 5.282 3.86 7.447 6.828-.025-.52-.051 1.38-.034-1.554.017-2.943-1.729-7.688.651-10.07.941-.942 5.538-2.678 6.642-2.95 2.123-.53 4.571-.174 7.199 1.215 3.989 2.108 7.602 6.208 10.221 11.135 2.628 4.944 4.263 13.17 4.255 16.146 0 2.976-.017 1.025-.043 1.529 2.217-.645 4.211-.637 7.644 1.199 3.433 1.827 7.747 6.349 10.426 11.367 2.688 5.034 4.375 10.928 4.383 16.418.009 4.29-1.001 7.688-2.722 10.052-1.738 2.373-5.093 3.778-7.473 4.539-6.822 2.29-19.962-11.061-26.905-14.856a30201.01 30201.01 0 00-21.974-12.003c-3.972-2.166-7.533-6.308-10.075-11.243-2.542-4.927-4.075-10.665-4.023-16.013.025-3.125-2.337-7.82.727-10.07 4.76-3.488 9.845-3.711 13.662-1.67h-.008z" fill="#8D6DFC"/><path fill-rule="evenodd" clip-rule="evenodd" d="M302.675 52.6c3.33 1.777 5.282 3.86 7.448 6.828-.026-.52-.052 1.38-.035-1.554.018-2.943 1.67-9.358 4.281-11.5 2.619-2.132 6.223-2.413 10.212-.305 3.989 2.108 7.601 6.209 10.221 11.136 2.628 4.943 4.263 13.169 4.254 16.145 0 2.976-.017 1.025-.043 1.53 2.217-.646 4.212-.637 7.645 1.198 3.424 1.827 7.746 6.349 10.426 11.367 2.688 5.035 4.374 10.904 4.383 16.418.008 5.514-1.652 9.623-4.34 11.789-2.68 2.157-6.395 2.356-10.469.124-7.456-4.076-14.904-8.143-22.291-12.178-7.362-4.025-14.689-8.027-21.974-12.003-3.972-2.166-7.533-6.308-10.075-11.243-2.543-4.927-4.075-10.664-4.024-16.013.052-5.349 1.678-9.333 4.272-11.45 2.602-2.124 6.779-2.067 10.118-.29h-.009z" fill="url(#paint2_linear_963_3763)"/><path fill-rule="evenodd" clip-rule="evenodd" d="M310.371 79.12l-6.831-3.81 10.743 17.971 10.82-5.952-6.831-3.81.017-16.923-7.901-4.398-.017 16.922z" fill="#fff"/><path fill-rule="evenodd" clip-rule="evenodd" d="M334.049 86.453l6.831 3.802-10.743-17.972-10.812 5.952 6.823 3.811-.017 16.923 7.901 4.406.017-16.922zm-203.87 14.029l1.558-2.704 5.59 3.001-1.558 2.704-5.59-3.001zm8.226 252.653l-4.203-2.257-1.558 2.704 4.203 2.256 1.558-2.703zm-6.993-3.761l-1.558 2.703-5.59-3.001 1.558-2.703 5.59 3.001zm-8.389-4.506l-1.558 2.704-5.59-3.001 1.558-2.704 5.59 3.001zm-8.381-4.505l-1.558 2.703-5.59-3.001 1.558-2.703 5.59 3.001zm-8.38-4.506l-1.558 2.704-5.59-3.001 1.558-2.704 5.59 3.001zm-8.38-4.505l-1.559 2.703-5.59-3.001 1.558-2.703 5.59 3.001zm-8.381-4.506l-1.558 2.704-2.876-1.546c-1.079-.587-1.926-1.232-2.808-2.059l2.251-2.199c.557.538 1.413 1.216 2.115 1.554l2.876 1.546zm-6.763-5.233a14.32 14.32 0 01-2.123-5.158l-3.141.562a17.403 17.403 0 002.568 6.25l2.696-1.654zm-2.345-7.894c.085-1.96.548-4.068.83-5.953l-3.167-.446c-.3 1.951-.788 4.224-.865 6.283l3.193.116h.009zm1.293-9.011l-3.168-.447.925-6.109 3.167.446-.924 6.11zm1.395-9.168l-3.168-.447.925-6.109 3.167.446-.924 6.11zm1.395-9.168l-3.167-.447.924-6.109 3.168.446-.925 6.11zm1.387-9.168l-3.167-.447.924-6.109 3.167.446-.924 6.11zm1.387-9.168l-3.168-.447.925-6.109 3.167.446-.924 6.11zm1.386-9.168l-3.167-.447.925-6.109 3.167.446-.925 6.11zm1.387-9.168l-3.167-.447.924-6.109 3.168.446-.925 6.11zm1.387-9.168l-3.167-.447.924-6.109 3.167.446-.924 6.11zm1.387-9.168l-3.168-.447.925-6.109 3.167.446-.924 6.11zm1.386-9.168l-3.167-.447.925-6.109 3.167.446-.925 6.11zm1.387-9.169l-3.167-.446.924-6.109 3.168.446-.925 6.109zm1.387-9.168l-3.167-.446.924-6.109 3.167.446-.924 6.109zm1.387-9.168l-3.168-.446.925-6.109 3.167.446-.924 6.109zm1.386-9.168l-3.167-.446.925-6.109 3.167.446-.925 6.109zm1.387-9.168l-3.167-.446.924-6.109 3.168.446-.925 6.109zm1.387-9.168l-3.167-.446.924-6.109 3.167.446-.924 6.109zm1.387-9.168l-3.168-.446.925-6.109 3.167.446-.924 6.109zm1.386-9.168l-3.167-.446.925-6.109 3.167.446-.925 6.109zm1.387-9.168l-3.167-.446.924-6.109 3.168.446-.925 6.109zm1.387-9.168l-3.167-.446.924-6.109 3.167.446-.924 6.109zm1.387-9.168l-3.168-.446.925-6.109 3.167.446-.924 6.109zm1.386-9.168l-3.167-.446.925-6.109 3.167.446-.925 6.109zm1.387-9.168l-3.167-.446c.291-1.926.488-4.505 1.335-6.415l2.945 1.198c-.693 1.546-.925 4.365-1.121 5.672l.008-.009zm2.525-7.63c1.224-1.05 2.885-1.248 4.409-.71l1.044-2.92c-2.636-.9-5.47-.47-7.584 1.332l2.131 2.306v-.008zm7.011.562l1.558-2.703 5.59 3-1.558 2.704-5.59-3z" fill="#fff"/><path opacity=".5" fill-rule="evenodd" clip-rule="evenodd" d="M378.878 527.022L185.23 423.602c-4.751-2.099-11.736-4.075-16.402-1.331l-11.932 7.019c-2.397 1.414-10.29 6.101-5.017 8.87 15.528 8.152 180.312 96.914 196.08 105.197 2.979 1.562 7.344 2.133 11.924 1.769 4.563-.364 9.296-1.554 12.917-3.712l4.768-2.835c3.365-2.009 5.231-4.2 5.411-6.3.171-2.05-1.19-3.96-4.109-5.241l.008-.016z" fill="#BB6CE9"/><path fill-rule="evenodd" clip-rule="evenodd" d="M233.621 62.909c-2.791-1.53-6.069-2.1-9.134-.984l-6.857 2.587c-2.491 12.442 141.937 468.412 145.121 471.578l6.121-2.232c4.015-1.529 6.12-5.563 6.711-9.49l51.652-340.498v-.041c.839-5.729-.942-11.69-4.203-16.468-1.755-2.579-4.066-4.943-6.899-6.423l-182.521-98.03h.009z" fill="url(#paint3_linear_963_3763)"/><path fill-rule="evenodd" clip-rule="evenodd" d="M409.378 163.451l-182.52-98.03c-7.447-3.984-14.535-.156-15.845 8.516l-51.652 340.497c-1.318 8.672 3.63 18.94 11.077 22.924l182.52 98.03c7.447 3.984 14.552.165 15.862-8.499l51.652-340.498c1.318-8.672-3.655-18.947-11.094-22.932v-.008z" fill="url(#paint4_linear_963_3763)"/><path fill-rule="evenodd" clip-rule="evenodd" d="M409.378 163.451l-182.52-98.03c-7.447-3.984-14.535-.156-15.845 8.516l-2.645 17.435 209.451 112.487 2.653-17.476c1.319-8.672-3.655-18.948-11.094-22.932z" fill="#4A9FF8"/><path fill-rule="evenodd" clip-rule="evenodd" d="M225.326 89.577c-2.354-1.868-3.758-5.753-3.142-8.68.616-2.926 3.022-3.778 5.367-1.91 2.346 1.869 3.758 5.763 3.142 8.68-.616 2.927-3.022 3.779-5.367 1.91zm14.928 8.763c-2.354-1.868-3.757-5.754-3.141-8.68.616-2.927 3.022-3.778 5.367-1.91 2.346 1.868 3.758 5.762 3.142 8.68-.617 2.927-3.022 3.778-5.368 1.91zm14.921 8.755c-2.354-1.868-3.758-5.754-3.141-8.68.616-2.927 3.021-3.778 5.367-1.91 2.345 1.868 3.758 5.762 3.142 8.68-.617 2.927-3.022 3.778-5.368 1.91z" fill="#4C68E5"/><path opacity=".5" fill-rule="evenodd" clip-rule="evenodd" d="M398.404 246.054c-.796-.43-1.592 0-1.729.934-.145.967.411 2.108 1.207 2.538.839.447 1.618.017 1.764-.942.145-.934-.394-2.067-1.242-2.522v-.008zm-207.601 46.245l1.412.761 14.912-98.31-1.412-.753-14.912 98.31v-.008zm16.341-102.824c-.796-.43-1.592 0-1.738.959-.145.951.411 2.092 1.207 2.522.839.446 1.627.024 1.772-.926.146-.967-.402-2.108-1.249-2.555h.008zm6.044 119.895l1.412.761 14.912-98.327-1.413-.76-14.911 98.326zm16.358-102.832c-.813-.438-1.601-.008-1.746.959-.146.951.411 2.092 1.224 2.53.83.446 1.618.016 1.763-.934.146-.968-.402-2.108-1.232-2.547l-.009-.008zm10.298 91.73l1.43.76 14.911-98.326-1.429-.761-14.912 98.327zm16.384-102.824c-.822-.438-1.618-.017-1.763.951-.146.95.411 2.091 1.232 2.538.797.43 1.584 0 1.73-.943.145-.967-.411-2.108-1.207-2.538l.008-.008zm10.315 91.738l1.387.744 14.912-98.327-1.387-.744-14.912 98.327zm16.342-102.84c-.831-.447-1.593 0-1.738.975-.146.934.385 2.058 1.207 2.505.839.446 1.601.008 1.746-.926.146-.975-.376-2.108-1.215-2.554zm7.464 110.495l1.413.761 14.911-98.31-1.412-.753-14.912 98.31v-.008zm16.359-102.824c-.814-.43-1.601-.008-1.755.951-.146.951.411 2.091 1.224 2.53.83.438 1.618.016 1.763-.926.146-.968-.402-2.108-1.232-2.555zm5.315 124.583l1.43.76 14.912-98.326-1.43-.761-14.92 98.327h.008zm16.359-102.816c-.796-.43-1.584-.017-1.738.959-.145.934.411 2.075 1.207 2.505.839.446 1.618.016 1.755-.91.154-.983-.394-2.099-1.233-2.546l.009-.008zm4.622 129.262l1.413.76 14.912-98.31-1.413-.752-14.912 98.31v-.008zm16.368-102.816c-.822-.438-1.618-.017-1.764.951-.145.95.411 2.091 1.233 2.538.813.438 1.601.008 1.746-.935.146-.967-.402-2.108-1.215-2.546v-.008zm6.035 119.754l1.403.753 14.912-98.327-1.404-.744-14.911 98.318zm16.349-102.815c-.813-.438-1.583-.017-1.729.934-.145.959.394 2.1 1.207 2.538.831.438 1.618.016 1.764-.951.145-.95-.411-2.075-1.242-2.521zm10.307 91.713l1.429.761 14.912-98.327-1.429-.761-14.912 98.327z" fill="#3856D8"/><path opacity=".5" fill-rule="evenodd" clip-rule="evenodd" d="M407.307 255.734c-.249-.438-.583-.768-.942-.959-.471-.248-.967-.264-1.353.009-3.466 2.579-6.634 4.811-9.604 6.737a103.127 103.127 0 01-8.235 4.919c-11.882 6.266-20.493 6.705-28.959 2.166-8.286-4.613-16.29-14.335-26.734-28.017-11.684-15.31-21.991-25.677-32.366-31.24a45.018 45.018 0 00-4.605-2.15c-11.959-4.761-24.123-3.108-38.683 4.795-1.516.777-2.971 1.621-4.426 2.439-11.205 6.266-21.7 12.128-33.034 6.06-5.889-3.158-12.01-9.54-18.567-20.767-.248-.43-.573-.76-.924-.951-.471-.248-.976-.256-1.37.033-.651.513-.736 1.761-.163 2.745 7.319 12.558 14.09 19.642 20.579 23.114 12.215 6.54 23.412.257 35.371-6.423 1.481-.794 2.936-1.604 4.417-2.406 13.893-7.556 25.406-9.176 36.612-4.737a39.93 39.93 0 014.151 1.943c9.793 5.241 19.68 15.203 30.963 29.984 10.837 14.161 19.157 24.272 28.154 29.282.171.099.342.19.514.281 8.928 4.778 18.267 4.373 30.902-2.265 2.619-1.373 5.427-3.051 8.449-5.018a212.319 212.319 0 009.69-6.829c.685-.512.762-1.711.163-2.761v.016z" fill="#3856D8"/><path fill-rule="evenodd" clip-rule="evenodd" d="M405.355 248.509c-.249-.438-.582-.76-.933-.942-.471-.24-.968-.248-1.353.025-3.467 2.629-6.634 4.902-9.604 6.861a107.025 107.025 0 01-8.235 5.035c-11.882 6.423-20.493 6.985-28.959 2.554-8.287-4.497-16.291-14.12-26.734-27.661-11.685-15.153-21.991-25.379-32.366-30.802a42.79 42.79 0 00-4.605-2.084c-11.959-4.596-24.123-2.777-38.684 5.316-1.515.802-2.97 1.662-4.425 2.497-11.206 6.415-21.7 12.416-33.034 6.506-5.89-3.076-12.01-9.375-18.567-20.519-.248-.43-.574-.752-.925-.934-.47-.248-.976-.248-1.369.058-.651.521-.737 1.769-.163 2.744 7.319 12.459 14.09 19.453 20.579 22.842 12.207 6.374 23.412-.058 35.37-6.903 1.481-.818 2.937-1.645 4.417-2.463 13.894-7.738 25.407-9.516 36.612-5.225a40.712 40.712 0 014.152 1.885c9.793 5.109 19.68 14.938 30.962 29.562 10.837 14.013 19.158 24.007 28.155 28.901l.513.273c8.928 4.663 18.268 4.125 30.902-2.678 2.611-1.414 5.428-3.125 8.449-5.134a214.861 214.861 0 009.691-6.961c.684-.521.761-1.719.162-2.761l-.008.008z" fill="#6BB6FF"/><path fill-rule="evenodd" clip-rule="evenodd" d="M403.069 247.6c-5.692 4.315-11.556 8.432-17.839 11.896-11.882 6.423-20.493 6.985-28.959 2.554-8.286-4.497-16.29-14.12-26.734-27.661-9.245-11.995-22.119-27.19-36.971-32.886-15.939-6.125-29.302-.074-43.109 7.813-11.205 6.415-21.7 12.417-33.034 6.506-5.889-3.076-12.01-9.375-18.567-20.519-.248-.43-.573-.752-.924-.934 1.857 4.613 10.203 18.311 18.258 22.519 12.207 6.374 22.711.786 34.669-6.059 13.337-7.333 27.119-13.93 42.519-8.028 13.987 5.39 27.452 21.164 36.158 32.465 10.837 14.012 18.635 23.585 27.632 28.479 7.499 4.059 13.791 3.844 20.408 1.455 6.925-2.497 22.975-12.276 26.493-17.608v.008z" fill="#0FF"/><path style="mix-blend-mode:multiply" opacity=".5" fill-rule="evenodd" clip-rule="evenodd" d="M296.906 272.359l-107.284-57.414-15.032 99.063 108.329 57.976c7.593 4.059 14.835.173 16.17-8.672l9.125-67.574c1.344-8.837-3.723-19.32-11.308-23.379z" fill="url(#paint5_linear_963_3763)"/><path fill-rule="evenodd" clip-rule="evenodd" d="M294.955 293.316l-10.409 68.326 1.249.149 3.407-1.282c3.741-1.422 5.701-5.183 6.249-8.837l8.329-61.688v-.033c.779-5.332-.873-10.879-3.912-15.335-1.635-2.397-3.783-4.596-6.42-5.977l-136.646-73.154c-2.602-1.422-5.65-1.959-8.5-.918l-3.005 1.133c-1.515.546-1.977.984-1.969 1.075 1.421 12.772 153.621 83.429 151.627 96.532v.009z" fill="#E5EDFF"/><path fill-rule="evenodd" clip-rule="evenodd" d="M290.015 269.945l-136.646-73.154c-3.039-1.629-6.009-1.852-8.492-.918-3.184 1.199-5.564 4.307-6.257 8.846l-8.329 61.688c-1.224 8.068 3.381 17.633 10.306 21.337l136.646 73.154c6.926 3.711 13.543.157 14.767-7.912l8.329-61.688c1.224-8.068-3.399-17.641-10.324-21.345v-.008z" fill="#D1E7FF"/><path opacity=".5" fill-rule="evenodd" clip-rule="evenodd" d="M292.558 295.663l-77.838-41.351c-.727-.388-1.438-.446-2.028-.215-.762.29-1.327 1.034-1.498 2.117l-.522 3.042c-.292 1.926.813 4.216 2.465 5.101l77.838 41.351c1.66.884 3.235.041 3.526-1.893l.523-3.043c.291-1.926-.814-4.216-2.466-5.1v-.009zm-2.825 18.618l-77.837-41.352c-.728-.388-1.439-.446-2.029-.215-.762.282-1.327 1.034-1.498 2.117l-.522 3.042c-.291 1.926.804 4.216 2.465 5.101l77.838 41.351c1.66.884 3.235.041 3.526-1.893l.523-3.043c.291-1.926-.814-4.216-2.466-5.1v-.008zm-49.692-6.829l-30.953-15.914c-.728-.388-1.438-.446-2.029-.223-.762.289-1.335 1.033-1.498 2.116l-.522 3.043c-.291 1.926.813 4.216 2.465 5.1l30.962 15.914c1.661.885 3.236.041 3.527-1.893l.522-3.042c.291-1.926-.813-4.216-2.465-5.101h-.009z" fill="#fff"/><path fill-rule="evenodd" clip-rule="evenodd" d="M140.794 235.241c-2.397 20.816 9.553 46.245 26.734 56.752 17.18 10.516 33.65-3.026 35.456-18.7 1.806-15.665-1.233-22.188-6.138-32.522a1303.087 1303.087 0 01-8.962 4.745c3.184 6.639 5.153 10.888 3.989 20.965-1.164 10.069-11.753 18.766-22.779 12.012-11.025-6.754-18.712-23.089-17.172-36.457-3.672-2.257-7.404-4.53-11.119-6.804l-.009.009z" fill="#22D2FB"/><path fill-rule="evenodd" clip-rule="evenodd" d="M153.001 214.144c-6.42 3.364-11.009 10.664-12.207 21.088 3.715 2.274 7.447 4.547 11.12 6.804.77-6.68 3.698-11.392 7.832-13.558-2.26-4.77-4.511-9.54-6.737-14.343l-.008.009z" fill="#12A3EB"/><path fill-rule="evenodd" clip-rule="evenodd" d="M176.25 216.533c-8.594-5.258-16.846-5.779-23.249-2.414 2.226 4.803 4.486 9.606 6.737 14.376 4.134-2.158 9.433-1.835 14.929 1.537 5.495 3.373 10.212 9.152 13.311 15.741 2.987-1.563 5.975-3.125 8.962-4.712-4.828-10.276-12.104-19.262-20.698-24.52l.008-.008z" fill="#1C8DF3"/><path style="mix-blend-mode:multiply" opacity=".5" fill-rule="evenodd" clip-rule="evenodd" d="M343.259 387.319c-15.742-12.119-25.158-37.3-21.032-56.256 4.126-18.948 20.228-24.495 35.97-12.368 15.733 12.111 25.15 37.309 21.024 56.257-4.126 18.956-20.237 24.486-35.97 12.367h.008z" fill="url(#paint6_linear_963_3763)"/><path fill-rule="evenodd" clip-rule="evenodd" d="M325.72 317.488c2.859-2.877 10.049-4.53 14.073-4.737 4.699-.24 9.938 1.596 15.134 5.729 13.636 10.855 21.803 33.432 18.225 50.412-1.062 5.043-2.979 9.077-5.65 11.846-2.5 2.588-10.529 5.853-14.236 6.134-22.23 2.993-35.961-60.91-27.546-69.384z" fill="#D0E7FF"/><path fill-rule="evenodd" clip-rule="evenodd" d="M336.557 381.3c-13.645-10.862-21.803-33.423-18.225-50.403 3.578-16.972 17.531-21.949 31.176-11.086 13.637 10.854 21.803 33.431 18.225 50.403-3.578 16.989-17.54 21.941-31.176 11.086z" fill="url(#paint7_linear_963_3763)"/><path fill-rule="evenodd" clip-rule="evenodd" d="M356.621 339.85l3.707 2.563-26.836 24.875-10.093-25.611 4.948 2.745 6.609 9.06 21.665-13.632z" fill="#fff"/><path style="mix-blend-mode:multiply" opacity=".5" fill-rule="evenodd" clip-rule="evenodd" d="M389.904 438.177l-162.028-86.629c-2.944-1.579-5.838-1.802-8.243-.893-3.09 1.166-5.401 4.183-6.069 8.581l-11.24 76.924c-1.19 7.837 3.287 17.112 10.007 20.708l149.101 79.718c1.627-.595 9.519-1.934 9.965-4.191l18.507-94.226v.008z" fill="url(#paint8_linear_963_3763)"/><path fill-rule="evenodd" clip-rule="evenodd" d="M400.57 460.994l-12.652 79.552 1.156.132 3.159-1.182c.162-.058.316-.124.462-.198l.043-.017c3.467-1.314 5.281-4.795 5.786-8.184l10.726-73.402v-.033c.728-4.935-.813-10.077-3.621-14.203-1.515-2.223-3.501-4.257-5.949-5.538l-163.662-87.497c-2.405-1.323-5.23-1.811-7.875-.852l-2.783 1.05c-.291.107-.539.207-.753.306-1.207.463-1.592.827-1.583.909 1.309 11.83 179.378 97.021 177.529 109.157h.017z" fill="#D0E7FF"/><path fill-rule="evenodd" clip-rule="evenodd" d="M395.99 439.343l-163.653-87.497c-2.817-1.505-5.565-1.72-7.867-.852-2.954 1.108-5.154 3.993-5.796 8.193l-10.717 73.402c-1.138 7.473 3.133 16.327 9.553 19.766l163.662 87.497c6.42 3.431 12.541.149 13.68-7.333l10.717-73.41c1.138-7.473-3.15-16.336-9.562-19.775l-.017.009z" fill="url(#paint9_linear_963_3763)"/><path fill-rule="evenodd" clip-rule="evenodd" d="M217.374 407.25c1.849-10.367 6.017-13.872 11.35-12.425.831.223 1.678.57 2.534 1.042 5.23 2.885 10.572 10.416 11.385 22.957.522 7.936 2.089 15.219 8.98 19.005 18.113 9.367 11.582-46.046 28.728-36.597 14.766 8.143 5.932 37.573 11.676 56.215 1.994 6.465 5.59 9.507 8.072 10.871 10.426 5.373 11.582-11.607 12.943-18.75 6.283-33.009 10.272-34.828 16.624-31.331 6.643 3.728 9.596 6.258 8.372 40.731-.505 14.095 0 26.727 10.272 32.671 11.471 6.324 12.481-6.63 17.574-12.938 3.03-3.745 6.951-4.514 10.546-2.538 3.878 2.133 7.362 7.473 8.869 15.716 2.533 13.83 1.369 32.951.616 39.623l-172.65-94.392c1.489-10.119 2.516-20.907 4.109-29.868v.008z" fill="#D0E7FF"/><path style="mix-blend-mode:multiply" opacity=".5" fill-rule="evenodd" clip-rule="evenodd" d="M198.403 348.638l-26.862-14.244-11.633 76.676 27.17 14.401c7.567 4.05 14.784.173 16.119-8.639l6.48-44.898c1.335-8.812-3.715-19.254-11.274-23.304v.008z" fill="url(#paint10_linear_963_3763)"/><path fill-rule="evenodd" clip-rule="evenodd" d="M196.632 369.33l-8.021 47.758 1.25.149 3.407-1.281c3.741-1.422 5.701-5.184 6.249-8.838l5.932-41.119v-.033c.779-5.333-.873-10.88-3.912-15.335-1.635-2.398-3.784-4.597-6.42-5.977l-52.363-27.761c-2.602-1.422-5.65-1.959-8.5-.917l-3.005 1.132c-1.515.546-1.977.992-1.969 1.083 1.421 12.773 69.329 38.036 67.335 51.139h.017z" fill="#D0E7FF"/><path fill-rule="evenodd" clip-rule="evenodd" d="M191.684 345.96l-52.354-27.761c-3.039-1.628-6.01-1.852-8.492-.917-3.184 1.198-5.564 4.307-6.258 8.845l-5.932 41.12c-1.224 8.068 3.381 17.633 10.307 21.337l52.362 27.76c6.934 3.704 13.542.157 14.767-7.911l5.932-41.12c1.224-8.069-3.399-17.642-10.324-21.345l-.008-.008z" fill="#fff"/><path fill-rule="evenodd" clip-rule="evenodd" d="M182.524 360.923c-.531 3.505-3.364 5.084-6.369 3.48-3.056-1.637-5.016-5.787-4.485-9.292.53-3.48 3.355-4.993 6.403-3.364 2.996 1.603 4.973 5.696 4.442 9.168l.009.008zm-16.453 31.1c.531-3.497 3.356-5.018 6.412-3.381 2.996 1.604 4.973 5.696 4.443 9.193-.531 3.497-3.373 5.084-6.369 3.48-3.056-1.637-5.017-5.787-4.486-9.292zm-18.729-29.934c-.531 3.48-3.407 4.968-6.412 3.364-2.979-1.595-4.974-5.696-4.443-9.168.531-3.505 3.39-5.076 6.36-3.48 2.997 1.604 5.017 5.787 4.486 9.284h.009zm31.415-14.798c-5.101-2.737-9.998-.182-10.897 5.778v.447l-17.788 2.703c-1.267-3.356-3.604-6.233-6.548-7.804-5.102-2.728-9.93-.116-10.829 5.837-.899 5.894 2.465 12.929 7.567 15.665 2.945 1.579 5.744 1.389 7.764-.215l14.339 19.965-.112.322c-.898 5.953 2.543 12.971 7.645 15.699 5.042 2.704 9.921.141 10.828-5.811.891-5.895-2.516-12.979-7.567-15.683-3.629-1.942-7.105-1.19-9.159 1.472l-13.585-19.122c.368-.677.556-1.537.693-2.43.146-.959.223-1.877.103-2.836l16.906-2.794c.993 4.316 3.741 8.375 7.37 10.317 5.042 2.704 9.922.116 10.829-5.836.899-5.952-2.525-12.963-7.567-15.658l.008-.016z" fill="url(#paint11_linear_963_3763)"/><path style="mix-blend-mode:multiply" opacity=".5" fill-rule="evenodd" clip-rule="evenodd" d="M434.613 168.75l-58.979-29.57-6.155 2.852-8.646 60.662c-1.284 8.433 3.535 18.419 10.769 22.296l39.796 21.056 6.78-2.53 16.427-74.766h.008z" fill="url(#paint12_linear_963_3763)"/><path fill-rule="evenodd" clip-rule="evenodd" d="M470.455 160.864l-15.28 97.822 1.31.157 3.561-1.339c3.903-1.488 5.958-5.415 6.531-9.234l13.106-90.887v-.041c.822-5.572-.916-11.367-4.083-16.021-1.704-2.505-3.955-4.803-6.712-6.25l-69.645-36.846c-2.714-1.488-5.898-2.042-8.877-.959l-3.142 1.182c-1.583.57-2.071 1.034-2.063 1.125 1.481 13.342 87.374 47.584 85.294 61.274v.017z" fill="#D0E7FF"/><path fill-rule="evenodd" clip-rule="evenodd" d="M465.293 136.451l-69.646-36.845c-3.176-1.695-6.283-1.935-8.877-.96-3.33 1.25-5.821 4.506-6.54 9.243l-13.105 90.895c-1.276 8.432 3.535 18.419 10.768 22.296l69.646 36.846c7.242 3.877 14.15.165 15.426-8.267l13.105-90.895c1.284-8.432-3.552-18.427-10.786-22.304l.009-.009z" fill="#fff"/><path fill-rule="evenodd" clip-rule="evenodd" d="M465.292 136.451l-69.645-36.845c-3.176-1.695-6.284-1.935-8.877-.96-3.33 1.25-5.821 4.506-6.54 9.243l-10.435 72.369 95.865 50.717 10.418-72.219c1.284-8.433-3.552-18.427-10.786-22.305z" fill="url(#paint13_linear_963_3763)"/><path opacity=".25" fill-rule="evenodd" clip-rule="evenodd" d="M377.397 192.418c.24-1.686 1.549-2.43 2.944-1.661l31.519 16.517c1.387.777 2.32 2.769 2.089 4.464l-.463 3.34c-.239 1.686-1.557 2.431-2.944 1.662l-31.519-16.518c-1.386-.777-2.32-2.769-2.088-4.464l.462-3.34zm-2.003 14.649c.205-1.488 1.369-2.141 2.593-1.463 17.874 9.367 47.167 24.644 65.041 34.002 1.224.678 2.046 2.439 1.84 3.927l-.402 2.943c-.206 1.488-1.37 2.141-2.594 1.463-17.874-9.366-47.166-24.644-65.04-34.002-1.224-.678-2.046-2.438-1.841-3.927l.403-2.943z" fill="#6D6AFD"/><path fill-rule="evenodd" clip-rule="evenodd" d="M454.473 155.779l-8.15 58.654 15.571 8.474 8.15-58.654-15.571-8.474zm-44.316-43.285l-10.932 78.511 15.571 8.473 10.932-78.511-15.571-8.473zm21.486 26.148l15.571 8.473-9.048 65.078-15.572-8.474 9.049-65.077zm-47.621-18.997l15.571 8.473-8.149 58.654-15.571-8.474 8.149-58.653z" fill="#4A9EF8"/><path fill-rule="evenodd" clip-rule="evenodd" d="M380.667 142.626c-.42-.405-.283-1.074.291-1.504.573-.43 1.378-.455 1.798-.05l13.995 13.541 7.311 2.704 17.069-4.407 11.565-11.441c.496-.496 1.318-.628 1.823-.306a.815.815 0 01.248.232l20.314 23.23 13.978 2.513c.711-.066 1.233.355 1.182.934-.052.587-.677 1.116-1.379 1.182l-14.595-2.455c-.411.049-.804-.066-1.035-.339l-19.843-22.676-10.717 10.598c-.197.19-.463.347-.762.421l-17.985 4.638a1.424 1.424 0 01-.856-.025l-7.833-2.893a1.042 1.042 0 01-.428-.24l-14.133-13.673-.008.016z" fill="#4164F3" opacity=".5"/><path fill-rule="evenodd" clip-rule="evenodd" d="M380.624 142.933c-.402-.48-.257-1.265.325-1.77.582-.496 1.387-.512 1.798-.041l13.653 16.079 7.234 3.266 17.146-4.977 11.821-13.31c.505-.57 1.327-.727 1.832-.339.103.075.18.174.24.273l18.601 26.777 15.948-1.629c.71-.074 1.224.43 1.155 1.116-.068.686-.702 1.298-1.403 1.372l-16.573 1.695c-.411.05-.805-.091-1.027-.413l-18.148-26.115-10.948 12.334a1.678 1.678 0 01-.771.488l-18.07 5.249a1.261 1.261 0 01-.856-.041l-7.747-3.497a.964.964 0 01-.42-.281l-13.782-16.236h-.008z" fill="#fff"/><path style="mix-blend-mode:multiply" opacity=".5" fill-rule="evenodd" clip-rule="evenodd" d="M204.456 110.237l29.481 13.078c7.037 3.935 9.143 16.65 7.987 25.131l-5.992 42.616c-1.156 8.491-7.807 12.186-14.844 8.251l-26.716-15.658 1.062-7.06 9.022-66.366v.008z" fill="url(#paint14_linear_963_3763)"/><path fill-rule="evenodd" clip-rule="evenodd" d="M130.307 78.872c.386-2.852-.419-4.58 1.053-6.2.933-1.025 3.887-2.356 5.119-2.803 2.389-.868 5.231-.595 8.15 1.034l84.275 47.576c6.788 3.794 11.393 13.525 10.289 21.717l-5.778 41.111c-.343 2.538-1.327 5.812-3.561 7.68-1.592 1.331-4.272 2.712-6.146 2.943-1.926.232-2.44-1.446-4.606-2.662l-84.275-47.576c-6.797-3.802-11.402-13.524-10.289-21.717l5.778-41.111-.009.008z" fill="#D0E7FF"/><path fill-rule="evenodd" clip-rule="evenodd" d="M128.031 80.178c1.112-8.184 7.524-11.764 14.312-7.96l84.275 47.575c6.788 3.795 11.394 13.525 10.29 21.718l-5.779 41.111c-1.112 8.184-7.533 11.755-14.321 7.961l-84.275-47.576c-6.797-3.803-11.402-13.525-10.289-21.717l5.778-41.112h.009z" fill="#fff"/><path fill-rule="evenodd" clip-rule="evenodd" d="M128.03 80.178c1.113-8.192 7.525-11.764 14.313-7.96l84.275 47.575c6.788 3.795 11.394 13.525 10.289 21.717l-.539 3.861a21.578 21.578 0 00-2.277-1.463l-106.566-60.15.505-3.563v-.017z" fill="url(#paint15_linear_963_3763)"/><path opacity=".2" fill-rule="evenodd" clip-rule="evenodd" d="M142.909 105.351c8.586 1.893 15.177 11.764 14.723 22.048-.453 10.276-7.772 17.071-16.358 15.178-8.586-1.893-15.177-11.764-14.724-22.048.454-10.276 7.773-17.071 16.359-15.178z" fill="#6D6AFD"/><path fill-rule="evenodd" clip-rule="evenodd" d="M142.532 113.932c4.631 1.025 8.184 6.341 7.936 11.888-.24 5.539-4.195 9.209-8.817 8.184-4.631-1.025-8.184-6.341-7.936-11.888.24-5.539 4.195-9.209 8.817-8.184zm-.205 4.704c-2.457-.546-4.554 1.405-4.682 4.348-.129 2.943 1.754 5.771 4.22 6.316 2.456.546 4.554-1.405 4.682-4.348.128-2.943-1.755-5.771-4.22-6.316z" fill="url(#paint16_linear_963_3763)"/><path opacity=".2" fill-rule="evenodd" clip-rule="evenodd" d="M162.777 125.134c.3-2.183 2.004-3.117 3.81-2.067L221.62 153.2c1.806 1.042 3.03 3.671 2.739 5.853l-.573 4.324c-.3 2.182-2.003 3.108-3.809 2.066l-55.034-30.133c-1.806-1.041-3.03-3.67-2.739-5.853l.573-4.323zm-2.114 15.897c.171-1.289 1.181-1.835 2.251-1.223l32.494 17.79c1.07.62 1.789 2.166 1.618 3.456l-.342 2.554c-.18 1.29-1.182 1.836-2.252 1.224l-32.494-17.791c-1.07-.62-1.789-2.166-1.618-3.455l.343-2.555z" fill="#6D6AFD"/><path fill-rule="evenodd" clip-rule="evenodd" d="M137.224 76.574c1.875.413 3.305 2.562 3.21 4.803-.094 2.24-1.694 3.72-3.569 3.306-1.875-.413-3.304-2.562-3.21-4.803.103-2.24 1.695-3.72 3.569-3.306zm8.518 4.72c1.875.413 3.304 2.563 3.21 4.803-.094 2.24-1.695 3.72-3.57 3.307-1.874-.414-3.304-2.563-3.21-4.803.103-2.24 1.695-3.72 3.57-3.307zm9.219 5.192c1.874.413 3.304 2.563 3.21 4.803-.094 2.24-1.695 3.72-3.57 3.307-1.874-.414-3.304-2.563-3.21-4.803.103-2.24 1.695-3.72 3.57-3.307z" fill="#fff"/><path opacity=".5" fill-rule="evenodd" clip-rule="evenodd" d="M5.765 479.999l60.992-33.547c6.65-2.935 16.161-5.266 22.94-1.868 6.173 3.1 16.342 9.449 20.836 11.929 3.416 1.885 15.272 8.738 7.884 12.615-21.717 11.409-43.212 24.231-65.271 35.821-4.169 2.191-10.272 2.984-16.675 2.472-6.378-.513-12.918-2.307-18.062-5.192l-10.812-6.076c-4.785-2.687-7.319-5.87-7.576-8.813-.248-2.877 1.67-5.539 5.744-7.332v-.009z" fill="#BB6CE9"/><path fill-rule="evenodd" clip-rule="evenodd" d="M151.015 267.069c-.497-.075-.976-.19-1.439-.331.523-.066.959-.14 1.259-.19 2.174-1.207 3.355-1.769 5.846-3.588-1.754-3.431-6.112.132-6.959.199-.334.024-2.611-.364-4.811-.463-3.133-.141-5.127.504-7.276 2.802a73.416 73.416 0 00-3.279 2.381c.274 2.869.651 5.266 2.466 7.754a5.866 5.866 0 011.703-.463c2.226-.223 4.366.265 9.288 1.844 4.991 1.604 5.872 1.546 13.585-3.803 5.641-3.927 8.723-6.117 7.756-9.003-2.26-6.737-11.163 1.91-18.122 2.853l-.017.008z" fill="#FFA698"/><path fill-rule="evenodd" clip-rule="evenodd" d="M150.381 274.104c-4.802-.736-8.149-4.572-12.087-2.331a45.032 45.032 0 00-2.739 1.686c.316.728.727 1.447 1.258 2.174a5.874 5.874 0 011.703-.463c2.226-.223 4.366.265 9.288 1.844 4.991 1.604 5.873 1.546 13.585-3.803 3.792-2.637 6.42-4.489 7.448-6.299.505-.885-.968-1.885-2.175-1.05-6.214 4.29-9.313 7.291-16.281 8.234v.008z" fill="url(#paint17_linear_963_3763)"/><path fill-rule="evenodd" clip-rule="evenodd" d="M167.484 264.25c-2.106 1.546-13.166 6.473-15.759 5.977-.694-.132-.591-1.438-.66-3.042-.53 1.066.129 3.455-.933 2.934-5.932-2.918-8.491-3.447-11.924-1.347 2.38-.513 4.588-.24 6.78.471 2.071.67 3.98 1.844 6.172 2.422 5.743-1.636 9.227-2.199 16.324-7.415z" fill="url(#paint18_linear_963_3763)"/><path fill-rule="evenodd" clip-rule="evenodd" d="M88.209 293.895c-1.199-1.125-2.338-2.332-3.116-3.026-6.018-5.398-15.94-22.924-21.52-49.015 2.02-1.587 7.986-3.083 9.065-3.29 4.69-.893 8.662 1.497 10.032 3.059 2.5 2.852 5.05 8.052 6.608 16.352 1.053 5.597 5.376 13.086 8.295 20.006.129.306.257.612.377.909 4.905-2.513 10.135-4.571 12.84-5.613 5.813-2.249 12.438-4.357 19.62-6.366.856-.239 1.652.306 2.491.067.471-.199 2.577-.918 2.953-1.083-.034 4.133 1.165 7.415 3.519 10.052-.437.141-2.748 1.174-3.219 1.339-.702.331-1.515 1.364-2.063 1.91-5.401 5.382-20.972 13.442-35.302 17.667-4.862 1.438-8.535.653-10.59-2.96l.01-.008z" fill="url(#paint19_linear_963_3763)"/><path fill-rule="evenodd" clip-rule="evenodd" d="M88.209 293.894c-1.199-1.124-2.337-2.331-3.116-3.025-6.018-5.399-15.94-22.924-21.52-49.015 12-9.432 23.497 6.143 25.457 16.592 2.551 13.533 5.042 25.09 5.17 39.078-2.61-.108-4.656-1.265-6-3.63h.008z" fill="#3469C0" opacity=".35"/><path fill-rule="evenodd" clip-rule="evenodd" d="M32.806 462.937c-.334 1.157-.145 2.132-.736 3.654-.59 1.529-1.301 3.224-1.943 5.877-.993 4.092.377 9.573-.967 15.368-.694 2.315-.642 4.167.95 6.217 1.558 2.001 4.502 5.217 8.329 5.093.873-.025 2.662-.364 4.04-1.894 1.447-1.603 2.637-3.951 2.414-6.861-.085-1.1-.745-4.663-.633-7.895.102-2.835.633-4.398.565-7.506-.069-3.291-.334-7.813-.386-9.929l-11.633-2.116v-.008zm33.83-16.84c-1.113 2.91-1.84 4.158-1.892 8.217.685 2.149 2.243 3.017 3.99 4.497l1.232.257c3.047 1.595 4.16 7.175 6.994 9.721 1.994 1.794 5.966 2.77 9.912 3.506 4.212.785 8.218-.381 7.122-3.58-2.722-7.953-14.5-16.931-14.775-25.818l-12.575 3.183-.008.017z" fill="#193161"/><path fill-rule="evenodd" clip-rule="evenodd" d="M84.32 389.427c-.299 15.228-3.74 43.74-3.218 58.745-4.032 3.902-12.095 2.695-14.723-1.298-1.635-13.814-3.544-33.431-3.733-41.012-.154-6.308.428-12.111 2.098-17.774-2.346-16.666-12.31-39.408-9.939-55.082 1.045-6.887 5.719-14.302 7.08-19.982 11.753 13.988 20.715 7.284 25.578 6.068-.026 4.836.35 4.192.188 9.268-.548 17.17-1.378 35.514-2.354 53.329.034 2.662-.214 5.589-.985 7.738h.009z" fill="url(#paint20_linear_963_3763)"/><path fill-rule="evenodd" clip-rule="evenodd" d="M63.674 420.312c-.548-5.993-.942-11.218-1.027-14.45-.154-6.308.428-12.111 2.097-17.774-2.346-16.666-12.31-39.408-9.939-55.082 1.045-6.887 5.719-14.302 7.08-19.982 11.753 13.988 20.715 7.284 25.578 6.068v1.43l-15.409 10.996 3.792-.827c-.145 19.791-2.679 37.829-3.064 57.347-3.98 11.07-6.318 20.519-9.065 31.927l-.06.347h.017z" fill="#1E2353" opacity=".3"/><path fill-rule="evenodd" clip-rule="evenodd" d="M58.136 400.513c-2.834 15.228-11.094 52.189-13.063 67.202-5.093 2.728-11.59 1.306-13.388-2.687-.06-13.814 0-38.648 1.07-46.229.89-6.307 3.201-16.037 5.812-21.7-1.044-35.589-5.161-45.072-.18-60.754 2.183-6.886 7.91-13.533 10.213-19.212 3.158 4.679 8.02 11.317 18.447 10.499 1.019-.083 9.716-6.076 12.583-6.771-3.638 21.172-14.124 48.825-19.226 71.914-.41 2.662-1.138 5.589-2.268 7.738z" fill="url(#paint21_linear_963_3763)"/><path fill-rule="evenodd" clip-rule="evenodd" d="M74.391 238.209c1.156.14 2.183.488 3.253 1.058 7.756 4.158 10.46 16.402 11.71 27.124 1.08 9.3.258 17.03-.042 25.536-.248 6.787.66 13.078.35 19.502-.093 1.901-.838 3.968-1.043 5.993 0 1.447-.523 2.894-.505 4.01-3.887 14.302-40.593 15.484-45.934 5.803.376-1.438.804-2.868.941-4.332-3.458-3.042-1.464-10.449-2.003-15.624-.41-3.886-.984-7.854-2.174-10.681-4.99-11.88-11.967-21.023-13.346-30.133-.95-6.283 7.354-14.095 18.31-20.427 10.547-6.093 24.851-9.416 30.5-7.829h-.017z" fill="url(#paint22_linear_963_3763)"/><path fill-rule="evenodd" clip-rule="evenodd" d="M89.398 266.721c-3.904 3.819-27.924 25.983-54.52 20.287l.274-1.744c28.026 6.001 53.338-20.296 53.415-20.37l.685.628.103.868c.008.108.026.215.034.331h.009zm.428 13.756c-6.574 5.985-27.024 22.453-49.906 19.254a24.705 24.705 0 00-.53-1.869c24.362 3.828 46.207-15.864 50.496-20.014-.008.885-.034 1.753-.06 2.629z" fill="#70B4F5"/><path fill-rule="evenodd" clip-rule="evenodd" d="M38.79 296.284l4.725-9.499 6.335 10.317 5.461-12.566 7.499 9.689 3.878-13.5 7.926 8.259 3.604-15.36 5.915 8.614 4.957-18.022c.094.728.188 1.455.274 2.175.034.256.06.512.085.768l-4.845 17.634-5.847-8.515-3.492 14.897-7.995-8.333-3.955 13.748-7.687-9.929-5.564 12.805-6.403-10.424-4.315 8.664a16.465 16.465 0 00-.41-1.1c-.043-.107-.095-.215-.137-.331l-.009.009z" fill="#70B4F5"/><path fill-rule="evenodd" clip-rule="evenodd" d="M43.952 294.622c.513.033.933.488.933 1a.87.87 0 01-.933.877 1.02 1.02 0 01-.933-1.001.87.87 0 01.933-.876zm5.632-5.522c.514.033.933.487.933 1a.87.87 0 01-.933.876 1.02 1.02 0 01-.933-1 .87.87 0 01.933-.876zm6.583 4.092c.514.033.933.488.933 1 0 .513-.419.91-.933.876a1.019 1.019 0 01-.933-1 .87.87 0 01.933-.876zm5.573-7.126c.513.033.933.488.933 1 0 .513-.42.91-.933.876a1.019 1.019 0 01-.933-1 .87.87 0 01.933-.876zm6.976 2.67c.514.033.933.488.933 1a.87.87 0 01-.933.876 1.019 1.019 0 01-.933-1 .87.87 0 01.933-.876zm4.169-7.87c.514.033.933.487.933 1s-.42.909-.933.876a1.019 1.019 0 01-.933-1 .87.87 0 01.933-.876zm7.036 1.67c.514.033.933.487.933 1a.87.87 0 01-.933.876 1.02 1.02 0 01-.933-1 .87.87 0 01.933-.876zm3.733-8.557c.513.034.933.488.933 1.001a.87.87 0 01-.933.876 1.02 1.02 0 01-.933-1c0-.513.42-.91.933-.877zm6 .901c.078 0 .163.025.232.05 0 .612.008 1.215 0 1.819-.077.016-.154.016-.24.016a1.02 1.02 0 01-.933-1 .87.87 0 01.933-.876l.008-.009zm-51.943 14.402c.514.033.933.487.933 1s-.419.909-.933.876a1.019 1.019 0 01-.933-1 .87.87 0 01.933-.876z" fill="#70B4F5"/><path fill-rule="evenodd" clip-rule="evenodd" d="M43.447 271.392c1.404 7.325-.368 19.733-4.109 26.289-1.823-4.489-3.381-7.862-5.872-12.037.214-.562 8.252-23.312 9.981-14.252z" fill="#3469C0" opacity=".35"/><path fill-rule="evenodd" clip-rule="evenodd" d="M40.973 326.632c1.695.851 4.734 1.595 5.975 2.215.642.323 5.265 2.712 7.867 4.175 2.79 1.571 3.707 4.018 5.487 6.696 1.293 2.199 1.892 3.803 2.132 4.927.248 1.158-2.68 3.605-4.015 3.406-3.022-.446-6.292-3.786-7.105-4.133-6.891-2.918-10.101-3.051-12.686-5.555-1.105-1.067-1.952-4.349-4.28-7.193l3.843-3.827 2.756-.711h.026z" fill="url(#paint23_linear_963_3763)"/><path fill-rule="evenodd" clip-rule="evenodd" d="M25.008 262.117c-6.137 9.49-10.554 26.76-16.007 38.449-.42.901-.642 1.72-.71 2.488-1.01 2.902.564 5.333 2.653 7.912 5.102 6.324 9.176 12.02 19.68 19.576.787.562 1.618.562 2.747.785.66.463 1.593 1.306 2.295 1.786-.9-.976 3.706-6.531 5.975-6.324a58.208 58.208 0 01-1.918-2.125c-.145-.984-.205-1.62-.65-2.439-1.832-3.406-8.004-11.796-13.902-17.782 2.44-3.067 4.503-6.638 6.206-9.159 3.03-4.481 5.727-9.078 8.115-13.55.95-1.786 1.49-2.67 2.405-4.514 6.814-13.657-9.45-26.619-16.897-15.112l.008.009z" fill="url(#paint24_linear_963_3763)"/><path fill-rule="evenodd" clip-rule="evenodd" d="M69.085 245.153c.111-.571.257-1.141.377-1.761.36-1.753-.112-5.151.376-9.16l-15.716-6.415c-.266 8.523-1.704 10.284-3.33 17.228.171 6.829 17.745 9.887 18.113 1.86.026-.587.077-1.182.189-1.761l-.009.009z" fill="#FFA698"/><path fill-rule="evenodd" clip-rule="evenodd" d="M69.085 245.153c.11-.571.256-1.141.376-1.761.36-1.753-.111-5.151.377-9.16l-15.717-6.415c-.06 1.934-.18 3.53-.35 4.919-.557 5.646 5.041 15.484 15.125 14.177a12.11 12.11 0 01.189-1.76z" fill="url(#paint25_linear_963_3763)"/><path fill-rule="evenodd" clip-rule="evenodd" d="M69.992 244.773c-1.926-1.232-7.2-4.324-8.929-5.547-3.783-2.679-3.32-6.093-4.416-11.45-3.536-2.439-4.726-4.373-5.042-6.564-.754-5.192 2.31-10.788 6.42-13.847 3.586-2.67 7.72-3.423 12.36-2.439 9.023 1.91 12.738 8.499 13.209 16.038.043.645-.051 1.232-.257 1.868-.488 1.513-.608 1.736-.83 2.803-.471 2.232 1.087 3.042.462 5.82-.847 3.778-4.092 11.144-5.419 12.375-1.018.951-5.58 1.257-7.567.943h.009z" fill="#FFA698"/><path fill-rule="evenodd" clip-rule="evenodd" d="M83.175 217.674c.222 1.066.36 2.166.436 3.282.043.645-.051 1.232-.257 1.868-.487 1.513-.607 1.736-.83 2.803-.48 2.232 1.087 3.042.462 5.819-.41 1.836-1.395 4.523-2.44 6.945-5.803 4.265-10.888-.943-11.658-1.91-3.638-4.53-3.92-11.309-1.165-17.642 4.195 1.356 11.043 1.092 15.46-1.157l-.008-.008z" fill="url(#paint26_linear_963_3763)"/><path fill-rule="evenodd" clip-rule="evenodd" d="M49.088 218.757c.24 2.876 2.577 10.275 4.34 13.02 1.832 2.844 1.036-.645 1.995-2.588.745-1.496 3.142-1.669 3.87-3.215.35 1.314.83 2.587 1.703 3.05.556.289 1.686.695 1.729-.851.154-5.349 2.773-5.713 1.943-8.92-.616-2.398-.47-3.431.137-4.299 1.806.248 2.97 2.033 5.085 2.91 1.472.612 7.96 1.281 12.575-1.158 4.46-2.356 4.879-7.597 1.13-10.97-2.09-1.876-4.426-2.348-7.696-4.464-6.24-4.034-14.047-2.604-18.259 1.868-8.21 1.604-9.108 9.168-8.569 15.608l.017.009z" fill="#562E65"/><path fill-rule="evenodd" clip-rule="evenodd" d="M57.812 223.262c-3.399-1.488-3.827 2.431-3.519 4.861.206 1.67 1.618 1.678 1.995 3.017.445 1.596 1.61 2.431 2.67 2.497 2.15.149 1.13-3.05 1.002-4.299.454-1.975.009-5.142-2.148-6.084v.008z" fill="#FFA698"/><path fill-rule="evenodd" clip-rule="evenodd" d="M67.142 212.374c-.334 2.232 2.645 4.861 6.822 5.076 3.878.207 9.134-.678 11.077-5.224.685-1.596-.137-4.448-2.037-5.614-1.301-.802-2.962-.694-4.648.025-2.868 1.215-5.256 4.307-7.31 5.068-1.953.719-3.87.438-3.913.678l.009-.009z" fill="url(#paint27_linear_963_3763)"/><path fill-rule="evenodd" clip-rule="evenodd" d="M444.056 266.085c-5.119-.769-9.168 2.637-11.214 7.175-2.397 5.316-2.277 12.186-1.25 15.798 3.339 11.731-2.542 16.84-4.708 22.305-.95 2.405-1.37 5.563-1.25 9.035.146 4.2 2.654 6.366 4.751 10.127.531 3.844 1.507 7.399 3.065 10.4 5.761 11.127 25.141 16.501 43.742 15.674 14.886-.661 29.276-5.745 35.79-11.59 7.148-6.415 8.073-22.709-3.937-24.363-2.8-.388-6.052-.975-8.441-3.769-1.643-1.918-.051-6.986.343-13.732.385-6.531-1.164-13.4-10.992-15.699-3.766-.876-7.438-1.24-10.58-3.232-6.865-4.348-4.357-12.434-11.796-17.195-4.494-2.877-11.736-3.497-19.637-1.381-1.275.141-2.568.298-3.878.438l-.008.009z" fill="url(#paint28_linear_963_3763)"/><path fill-rule="evenodd" clip-rule="evenodd" d="M439.613 272.235c-.428 3.191.779 5.969 2.748 8.639 4.58 6.242 6.985 5.746 9.485 13.69 4.117-2.653 6.942-3.059 8.132-.454 1.909 4.191.702 6.671 1.147 11.003.719 7.043 9.442-2.613 16.281 2.786 6.72 5.307 2.115 9.036 4.709 16.55.975 2.811 1.729 6.514 4.442 7.755 8.458 3.868 11.693 13.599-3.364 18.435-9.322 2.992-22.873 2.24-34.189-1.48-14.938-4.919-24.157-26.206-20.339-36.317 1.575-4.183 5.838-7.308 5.864-10.581.077-11.235-2.175-18.435 5.084-30.034v.008z" fill="#22043D"/><path fill-rule="evenodd" clip-rule="evenodd" d="M371.825 282.188c-2.277.711-1.07 3.266-.197 3.985 1.318 1.257 3.963 2.075 3.732 3.398-.256 1.488 8.304 4.348 8.278 4.224-1.267-4.018-3.475-6.398-3.946-6.696-4.597-2.951-4.066-1.058-7.876-4.919l.009.008z" fill="url(#paint29_linear_963_3763)"/><path fill-rule="evenodd" clip-rule="evenodd" d="M377.817 299.226c4.913 6.333 8.808 18.568 13.739 24.272 1.558 1.802 3.869 4.77 6.574 4.315 14.005-2.347 1.258-7.58 2.748-11.267-2.354-7.945-12.361-12.401-16.478-21.188a14.806 14.806 0 00-.754-1.778c-1.695-3.34-3.313-4.365-9.904-5.563-1.917-.348-2.559-.968-3.749-1.894l-4.315-4.125c-1.429-1.132-2.628-1.488-3.227-1.19-.659.33-2.448 3.637-2.499 5.423-.24.678.513 1.893 2.208 3.174l5.359 7.234.471.066c5.975.785 8.354 1.339 9.81 2.538l.017-.017z" fill="#FFA698"/><path fill-rule="evenodd" clip-rule="evenodd" d="M400.261 330.509c9.682-.926 23.549-2.406 31.04-6.135 4.87-2.422 13.653-12.838 8.705-18.617-1.044-2.711-10.383 2.976-14.989 4.671-8.303 3.051-13.807 4.481-22.41 6.605-2.346-6.332-8.526-11.35-13.414-17.244-.796-.959-1.669-1.654-2.714-2.125-.624-.67-1.104-1.471-1.54-2.257-.822-.322-6.078 1.786-7.448 4.299.377.488 1.19 1.587 1.558 2.125.522.768.403 1.727.813 2.612 1.413 3.017 8.098 16.153 12.541 21.287 1.695 1.951 4.169 5.407 7.105 4.919.257-.041.496-.083.736-.132l.017-.008z" fill="url(#paint30_linear_963_3763)"/><path opacity=".5" fill-rule="evenodd" clip-rule="evenodd" d="M400.262 330.509c9.681-.926 23.549-2.406 31.039-6.135 4.203-2.091 11.334-10.151 10.007-16.037-1.815-1.645-2.902-2.53-4.443-2.464-1.926.083-4.263 2.083-8.714 4.307-6.746 3.365-13.089 3.547-18.302 9.507-3.852 4.398-10.272 8.201-15.725 8.036 1.498 1.661 3.33 3.265 5.393 2.918.257-.042.496-.083.736-.132h.009z" fill="#7E41DF"/><path opacity=".5" fill-rule="evenodd" clip-rule="evenodd" d="M409.233 551.756l60.991-33.547c6.651-2.935 16.17-5.266 22.941-1.868 6.172 3.1 16.342 9.449 20.836 11.929 3.415 1.885 15.271 8.738 7.883 12.615-21.717 11.408-43.211 24.23-65.271 35.821-4.169 2.19-10.272 2.984-16.684 2.472-6.377-.513-12.917-2.307-18.062-5.192-3.663-2.059-7.267-4.084-10.82-6.076-4.785-2.687-7.319-5.87-7.575-8.813-.249-2.877 1.669-5.539 5.743-7.333l.018-.008z" fill="#BB6CE9"/><path fill-rule="evenodd" clip-rule="evenodd" d="M474.54 503.783c-.326 1.397.59 3.414.753 3.638 3.535 4.96-.676 4.538-.488 11.623.017.653-2.979 11.83-2.979 11.83s-7.054 1.653-7.576 1.562c-.522-.091-4.811-1.686-4.811-1.686.36-.604.839-2.083 1.139-2.637 2.029-3.82 3.107-8.457 3.886-13.112.514-3.075 1.49-7.853.831-11.086l9.245-.132z" fill="#FFA698"/><path fill-rule="evenodd" clip-rule="evenodd" d="M459.208 530.667c-.95 1.827-1.489 3.067-1.986 4.506-.248.727-.205 1.413.094 1.827 1.61 2.24 10.204-1.472 13.123-3.795 1.883-1.504 1.986-3.348 2.491-5.588.762-3.365.89-3.745 1.849-7.193l.625 9.474.787.496c.309-3.844.908-8.911 1.635-12.185.291-1.298.762-2.778.848-3.505.496-4.266-1.618-6.44-3.595-7.705.65 2.621-1.755 6.787-2.834 12.086-1.301 6.407-7.165 11.624-13.054 11.582h.017z" fill="#161F69"/><path fill-rule="evenodd" clip-rule="evenodd" d="M428.074 373.298c.668 2.91-2.405 12.955-1.618 16.815.754 12.715 3.065 23.478 11.933 48.907 0 .29 8.107 15.84 8.646 17.468 5.521 16.592 12.412 34.606 18.267 51.363 2.166 1.62 8.732 1.116 9.571-2.828-1.807-16.74.162-33.249-2.808-44.707-2.269-8.73-5.239-12.706-10.093-19.179-1.489-16.46-2.568-49.47-6.445-62.118l-27.453-5.729v.008z" fill="url(#paint31_linear_963_3763)"/><path fill-rule="evenodd" clip-rule="evenodd" d="M428.074 373.298c.668 2.91 2.654 8.3 3.441 12.161 2.474 5.852 7.687 13.863 11.206 20.601 1.053 8.159.762 19.005 6.035 34.134l4.776 34.969c3.929 10.953 8.055 22.081 11.77 32.704 2.166 1.62 8.732 1.116 9.571-2.828-1.806-16.74.162-33.249-2.808-44.707-2.268-8.73-5.239-12.706-10.092-19.179-1.49-16.46-2.568-49.47-6.446-62.118l-27.453-5.729v-.008z" fill="#1E2353" opacity=".3"/><path fill-rule="evenodd" clip-rule="evenodd" d="M467.588 520.756c-.163 1.545.574 3.108.762 4.654.282 2.323.616 4.985.522 8.234-.12 4.092-.505 8.928-1.9 14.797-.488 2.059-1.439 2.943-2.081 5.762l-12.566 1.985c1.233-4.597 2.936-13.897 4.22-21.676l2.397-14.55 8.637.802.009-.008z" fill="#FFA698"/><path fill-rule="evenodd" clip-rule="evenodd" d="M468.23 524.591c.727 2.439 1.558 3.737 1.669 7.06.111 3.324-1.481 8.515-1.344 12.632l.214 6.531c.12 3.803-.882 6.44-5.35 9.59-4.058 2.852-8.004 4.017-10.153 3.009-1.583-.744-2.85-3.439-.419-10.541 2.02-5.919 2.542-11.697 3.732-18.121-.419 6.308-.573 8.416-2.148 14.6-.437 1.728-.702 4.621 1.421 4.91 8.782 1.216 9.219-1.066 9.947-3.687 1.934-6.985 3.347-19.427 2.448-25.983h-.017z" fill="#161F69"/><path fill-rule="evenodd" clip-rule="evenodd" d="M471.466 383.351c9.758 11.797 10.006 18.336 7.883 32.514-1.412 9.482-4.297 20.981-5.016 37.639.848 8.589 2.44 18.212 1.224 31.563-.89 9.821-3.749 26.669-5.906 38.582-2.029 3.679-11.616 2.075-13.183.182.454-17.071.171-28.769-.668-42.558-.821-13.409-2.474-25.851-3.518-39.07-.864-10.945-4.297-25.826-4.759-37.647-1.824-5.572-19.107-24.032-15.503-23.792l39.437 2.604.009-.017z" fill="url(#paint32_linear_963_3763)"/><path fill-rule="evenodd" clip-rule="evenodd" d="M470.276 356.806c-4.383 9.788 3.064 15.211.385 21.957l.83 4.563c-7.995 5.547-36.594 5.961-43.768-5.034l-.145-5.481c-1.233-2.621-.42-9.259-.06-11.012 1.147-5.563.616-8.523 1.241-14.955.163-1.628.471-2.653.633-4.298-6.368-4.597-5.966-13.492-2.191-18.816 2.38-3.356 3.766-5.77 4.956-8.449.36-2.042.728-3.712 1.105-4.836.239-.959.761-1.86 1.335-2.645 1.815-2.505 4.76-2.811 10.76-1.48 11.899 2.637 24.148 8.597 29.61 14.227 3.98 4.092 3.818 8.631 1.541 18.444-1.464 6.307-3.998 12.838-6.215 17.807l-.017.008z" fill="url(#paint33_linear_963_3763)"/><path opacity=".5" fill-rule="evenodd" clip-rule="evenodd" d="M470.361 356.748c-4.382 9.788 2.885 15.385.206 22.131l.83 4.505c-7.995 6.01-36.595 5.729-43.768-5.266l.154-4.786c0-.19 14.039 12.028 30.029 5.233 3.476-1.48 6.617-8.813 2.123-22.825-.428-1.331-5.521-1.422-12.738-6.556 5.325 2.182 15.366 5.167 15.863-7.92.222-5.853 1.112-10.251 4.211-14.318 1.507-1.968 10.324 8.374 8.98 13.335-1.712 6.324-4.229 12.755-5.881 16.459l-.009.008z" fill="#7E41DF"/><path fill-rule="evenodd" clip-rule="evenodd" d="M474.153 378.44c-1.455.852-4.109 1.679-5.171 2.29-.547.314-4.502 2.695-6.728 4.142-2.38 1.546-3.047 3.77-4.468 6.242-1.019 2.017-1.456 3.48-1.601 4.489-.154 1.041 2.594 3.05 3.758 2.802 2.645-.562 5.35-3.704 6.052-4.059 5.932-2.968 8.774-3.265 10.923-5.63.916-1.008 1.472-3.96 3.364-6.613l-3.638-3.183-2.491-.48z" fill="url(#paint34_linear_963_3763)"/><path fill-rule="evenodd" clip-rule="evenodd" d="M474.88 319.828c8.817 5.365 18.55 20.155 27.282 33.316 1.729 2.141 1.284 4.96.368 6.539-.36.859-.916 1.843-1.712 2.984-4.152 5.886-8.201 11.136-17.061 18.419-.667.545-1.592.769-2.585 1.033-.556.447-1.335 1.248-1.926 1.711.736-.917-3.672-5.505-5.675-5.2a59.291 59.291 0 001.575-1.984c.068-.876.008-1.422.351-2.174 2.884-6.341 6.557-12.714 11.136-17.559-7.952-8.308-12.506-10.317-19.911-19.03-8.996-10.582 2.312-21.593 8.158-18.039v-.016z" fill="url(#paint35_linear_963_3763)"/><path fill-rule="evenodd" clip-rule="evenodd" d="M456.502 298.168c-.925 5.06-.437 9.846 1.19 14.757-4.289 3.836-11.916 2.207-13.688-1.273.377-2.249.813-4.316 1.061-6.622l11.437-6.87v.008z" fill="#FFA698"/><path fill-rule="evenodd" clip-rule="evenodd" d="M456.502 298.168a28.043 28.043 0 00-.385 7.143c-1.258 4.911-10.769 8.226-11.762 4.324.274-1.505.531-2.993.711-4.588l11.436-6.87v-.009z" fill="url(#paint36_linear_963_3763)"/><path fill-rule="evenodd" clip-rule="evenodd" d="M438.791 276.766c-2.14 3.282-3.278 6.572-2.782 11.234.129 1.183-.051 1.927-.402 2.687-2.003 4.357-1.823 5.713-.83 9.201.967 3.398.898 5.175 2.097 6.341 1.232 1.199 3.073 1.471 4.639 1.571 3.202.198 8.697-1.844 11.89-3.53 2.372-1.249 2.277-2.108 3.279-4.274 3.338-2.811 1.181-4.861.06-5.068-3.21-.603-3.732 2.968-5.633 3.762.317-6.283-12.07-16.882-12.309-21.916l-.009-.008z" fill="#FFA698"/><path fill-rule="evenodd" clip-rule="evenodd" d="M437.37 279.279c-1.19 2.521-1.729 5.241-1.361 8.721.129 1.183-.051 1.927-.402 2.687-2.003 4.357-1.823 5.713-.83 9.201.428 1.521.659 2.72.881 3.679a3.051 3.051 0 003.732 1.042c1.336-.571 2.654-2.1 2.979-4.646.232-1.811 4.066-3.001 4.863-4.837.659-1.521-1.113-3.224-2.183-4.1-3.758-3.067-6.095-7.242-7.679-11.755v.008z" fill="url(#paint37_linear_963_3763)"/><path fill-rule="evenodd" clip-rule="evenodd" d="M438.792 276.766c1.797 7.713 12.223 13.549 12.309 21.915-2.85-8.705-12.969-14.657-12.309-21.915z" fill="#FF8F7F"/><defs><linearGradient id="paint0_linear_963_3763" x1="500.323" y1="-32.614" x2="209.57" y2="448.817" gradientUnits="userSpaceOnUse"><stop stop-color="#965CF2"/><stop offset="1" stop-color="#FF8ADC"/></linearGradient><linearGradient id="paint1_linear_963_3763" x1="339" y1="0" x2="339" y2="594" gradientUnits="userSpaceOnUse"><stop stop-color="#D952D8"/><stop offset="1" stop-color="#B95ADE"/></linearGradient><linearGradient id="paint2_linear_963_3763" x1="305.543" y1="31.817" x2="330.441" y2="104.238" gradientUnits="userSpaceOnUse"><stop stop-color="#FD90DA"/><stop offset="1" stop-color="#8E6DFD"/></linearGradient><linearGradient id="paint3_linear_963_3763" x1="321.868" y1="203.016" x2="251.562" y2="476.547" gradientUnits="userSpaceOnUse"><stop stop-color="#D1E8FF"/><stop offset="1" stop-color="#EAEFFF"/></linearGradient><linearGradient id="paint4_linear_963_3763" x1="372.116" y1="344.529" x2="116.979" y2="197.693" gradientUnits="userSpaceOnUse"><stop stop-color="#6D6AFE"/><stop offset="1" stop-color="#3FB0F7"/></linearGradient><linearGradient id="paint5_linear_963_3763" x1="229.666" y1="319.323" x2="264.764" y2="244.234" gradientUnits="userSpaceOnUse"><stop stop-color="#965CF2"/><stop offset="1" stop-color="#FF8ADC"/></linearGradient><linearGradient id="paint6_linear_963_3763" x1="341.958" y1="365.643" x2="367.871" y2="325.589" gradientUnits="userSpaceOnUse"><stop stop-color="#965CF2"/><stop offset="1" stop-color="#FF8ADC"/></linearGradient><linearGradient id="paint7_linear_963_3763" x1="353.566" y1="328.4" x2="337.53" y2="364.57" gradientUnits="userSpaceOnUse"><stop stop-color="#FD90DA"/><stop offset="1" stop-color="#8E6DFD"/></linearGradient><linearGradient id="paint8_linear_963_3763" x1="280.333" y1="465.177" x2="319.328" y2="395.301" gradientUnits="userSpaceOnUse"><stop stop-color="#965CF2"/><stop offset="1" stop-color="#FF8ADC"/></linearGradient><linearGradient id="paint9_linear_963_3763" x1="315.875" y1="477.139" x2="283.814" y2="359.24" gradientUnits="userSpaceOnUse"><stop stop-color="#1C8EF4"/><stop offset="1" stop-color="#00CFDD"/></linearGradient><linearGradient id="paint10_linear_963_3763" x1="171.516" y1="323.325" x2="185.779" y2="398.288" gradientUnits="userSpaceOnUse"><stop stop-color="#FD70CB"/><stop offset="1" stop-color="#6E4DFD"/></linearGradient><linearGradient id="paint11_linear_963_3763" x1="154.635" y1="383.897" x2="163.078" y2="354.002" gradientUnits="userSpaceOnUse"><stop stop-color="#6D6AFE"/><stop offset="1" stop-color="#3FB0F7"/></linearGradient><linearGradient id="paint12_linear_963_3763" x1="386.163" y1="214.119" x2="407.715" y2="149.817" gradientUnits="userSpaceOnUse"><stop stop-color="#965CF2"/><stop offset="1" stop-color="#FF8ADC"/></linearGradient><linearGradient id="paint13_linear_963_3763" x1="431.968" y1="135.815" x2="414.641" y2="204.651" gradientUnits="userSpaceOnUse"><stop stop-color="#6D6AFE"/><stop offset="1" stop-color="#3FB0F7"/></linearGradient><linearGradient id="paint14_linear_963_3763" x1="220.412" y1="181.663" x2="212.79" y2="108.081" gradientUnits="userSpaceOnUse"><stop stop-color="#965CF2"/><stop offset="1" stop-color="#FF8ADC"/></linearGradient><linearGradient id="paint15_linear_963_3763" x1="181.634" y1="117.148" x2="185.087" y2="88.391" gradientUnits="userSpaceOnUse"><stop stop-color="#6D6AFE"/><stop offset="1" stop-color="#3FB0F7"/></linearGradient><linearGradient id="paint16_linear_963_3763" x1="140.255" y1="131.623" x2="144.157" y2="114.178" gradientUnits="userSpaceOnUse"><stop stop-color="#6D6AFE"/><stop offset="1" stop-color="#3FB0F7"/></linearGradient><linearGradient id="paint17_linear_963_3763" x1="151.939" y1="266.846" x2="152.913" y2="277.549" gradientUnits="userSpaceOnUse"><stop stop-color="#FF8A78"/><stop offset="1" stop-color="#FFA799"/></linearGradient><linearGradient id="paint18_linear_963_3763" x1="152.803" y1="266.102" x2="153.61" y2="274.928" gradientUnits="userSpaceOnUse"><stop stop-color="#FF8A78"/><stop offset="1" stop-color="#FFA799"/></linearGradient><linearGradient id="paint19_linear_963_3763" x1="95.664" y1="246.153" x2="109.381" y2="284.369" gradientUnits="userSpaceOnUse"><stop stop-color="#6D6AFE"/><stop offset="1" stop-color="#3FB0F7"/></linearGradient><linearGradient id="paint20_linear_963_3763" x1="82.549" y1="344.538" x2="60.142" y2="419.505" gradientUnits="userSpaceOnUse"><stop stop-color="#235DA3"/><stop offset="1" stop-color="#123A76"/></linearGradient><linearGradient id="paint21_linear_963_3763" x1="68.725" y1="349.076" x2="26.852" y2="436.43" gradientUnits="userSpaceOnUse"><stop stop-color="#235DA3"/><stop offset="1" stop-color="#123A76"/></linearGradient><linearGradient id="paint22_linear_963_3763" x1="55.551" y1="256.041" x2="68.508" y2="324.801" gradientUnits="userSpaceOnUse"><stop stop-color="#6D6AFE"/><stop offset="1" stop-color="#3FB0F7"/></linearGradient><linearGradient id="paint23_linear_963_3763" x1="47.607" y1="339.487" x2="49.329" y2="336.385" gradientUnits="userSpaceOnUse"><stop stop-color="#FF8A78"/><stop offset="1" stop-color="#FFA799"/></linearGradient><linearGradient id="paint24_linear_963_3763" x1="23.296" y1="270.003" x2="30.954" y2="328.018" gradientUnits="userSpaceOnUse"><stop stop-color="#6D6AFE"/><stop offset="1" stop-color="#3FB0F7"/></linearGradient><linearGradient id="paint25_linear_963_3763" x1="62.724" y1="236.051" x2="58.799" y2="240.61" gradientUnits="userSpaceOnUse"><stop stop-color="#FF8A78"/><stop offset="1" stop-color="#FFA799"/></linearGradient><linearGradient id="paint26_linear_963_3763" x1="76.455" y1="223.064" x2="71.691" y2="235.241" gradientUnits="userSpaceOnUse"><stop stop-color="#FFB89E"/><stop offset="1" stop-color="#FFA799"/></linearGradient><linearGradient id="paint27_linear_963_3763" x1="78.972" y1="213.92" x2="75.373" y2="210.339" gradientUnits="userSpaceOnUse"><stop stop-color="#8A4791"/><stop offset="1" stop-color="#562E65"/></linearGradient><linearGradient id="paint28_linear_963_3763" x1="475.951" y1="304.286" x2="458.552" y2="338.917" gradientUnits="userSpaceOnUse"><stop stop-color="#5A2D68"/><stop offset="1" stop-color="#22043D"/></linearGradient><linearGradient id="paint29_linear_963_3763" x1="376.268" y1="288.992" x2="377.485" y2="288.034" gradientUnits="userSpaceOnUse"><stop stop-color="#FF8A78"/><stop offset="1" stop-color="#FFA799"/></linearGradient><linearGradient id="paint30_linear_963_3763" x1="383.74" y1="315.661" x2="428.131" y2="305.256" gradientUnits="userSpaceOnUse"><stop stop-color="#965CF2"/><stop offset="1" stop-color="#FF8ADC"/></linearGradient><linearGradient id="paint31_linear_963_3763" x1="436.643" y1="398.678" x2="475.922" y2="478.003" gradientUnits="userSpaceOnUse"><stop stop-color="#3E4795"/><stop offset="1" stop-color="#273088"/></linearGradient><linearGradient id="paint32_linear_963_3763" x1="427.706" y1="414.22" x2="488.967" y2="485.519" gradientUnits="userSpaceOnUse"><stop stop-color="#3E4795"/><stop offset="1" stop-color="#273088"/></linearGradient><linearGradient id="paint33_linear_963_3763" x1="445.117" y1="373.621" x2="453.572" y2="321.724" gradientUnits="userSpaceOnUse"><stop stop-color="#965CF2"/><stop offset="1" stop-color="#FF8ADC"/></linearGradient><linearGradient id="paint34_linear_963_3763" x1="468.306" y1="389.146" x2="467.6" y2="387.827" gradientUnits="userSpaceOnUse"><stop stop-color="#FF8A78"/><stop offset="1" stop-color="#FFA799"/></linearGradient><linearGradient id="paint35_linear_963_3763" x1="488.448" y1="367.239" x2="478.401" y2="323.349" gradientUnits="userSpaceOnUse"><stop stop-color="#965CF2"/><stop offset="1" stop-color="#FF8ADC"/></linearGradient><linearGradient id="paint36_linear_963_3763" x1="450.699" y1="305.195" x2="451.515" y2="309.406" gradientUnits="userSpaceOnUse"><stop stop-color="#FF8A78"/><stop offset="1" stop-color="#FFA799"/></linearGradient><linearGradient id="paint37_linear_963_3763" x1="435.222" y1="288.819" x2="441.591" y2="299.5" gradientUnits="userSpaceOnUse"><stop stop-color="#FFB89E"/><stop offset="1" stop-color="#FFA799"/></linearGradient></defs></svg>