<svg width="648" height="594" fill="none" xmlns="http://www.w3.org/2000/svg"><path opacity=".5" fill-rule="evenodd" clip-rule="evenodd" d="M394.754 594c96.398 0 184.703-31.817 253.246-84.633h-.008V0H89.782C33.69 62.74 0 143.088 0 230.685 0 431.341 176.735 594 394.754 594z" fill="url(#paint0_linear_963_3951)"/><path fill-rule="evenodd" clip-rule="evenodd" d="M501.115 356.727c-1.979-.181-3.86-.853-5.593-1.816l-1.602 2.887c2.149 1.181 4.429 1.99 6.878 2.215l.312-3.286h.005zM377.059 155.579l1.602-2.887 5.773 3.198-1.602 2.887-5.773-3.198zm8.66 4.8l1.602-2.887 5.774 3.199-1.602 2.887-5.774-3.199zm8.661 4.801l1.601-2.887 5.774 3.198-1.602 2.887-5.773-3.198zm8.66 4.8l1.602-2.887 5.774 3.199-1.602 2.886-5.774-3.198zm8.66 4.8l1.602-2.886 5.774 3.198-1.602 2.887-5.774-3.199zm8.661 4.801l1.602-2.887 5.773 3.199-1.601 2.886-5.774-3.198zm8.66 4.8l1.602-2.887 5.774 3.199-1.602 2.887-5.774-3.199zm8.661 4.801l1.602-2.887 5.773 3.198-1.602 2.887-5.773-3.198zm8.66 4.8l1.602-2.887 5.774 3.199-1.602 2.887-5.774-3.199zm8.661 4.801l1.602-2.887 5.773 3.198-1.602 2.887-5.773-3.198zm8.66 4.8l1.602-2.887 5.774 3.199-1.602 2.886-5.774-3.198zm8.661 4.8l1.602-2.886 5.773 3.198-1.602 2.887-5.773-3.199zm8.66 4.801l1.602-2.887 5.774 3.199-1.602 2.886-5.774-3.198zm8.661 4.8l1.601-2.887 5.774 3.199-1.602 2.887-5.773-3.199zm8.66 4.801l1.602-2.887 5.774 3.198-1.602 2.887-5.774-3.198zm8.66 4.8l1.602-2.887c1.865 1.034 4.041 2.105 5.862 3.336l-1.843 2.739c-1.722-1.176-3.86-2.215-5.615-3.188h-.006zm8.038 5.069c1.563 1.399 2.881 2.952 4.084 4.663l2.712-1.881c-1.334-1.913-2.849-3.685-4.593-5.243l-2.203 2.455v.006zm5.735 7.326a33.08 33.08 0 012.488 5.752l3.143-1.006a35.517 35.517 0 00-2.739-6.343l-2.887 1.597h-.005zm3.302 8.786c.427 2.034.684 4.106.662 6.189l3.297.028c.022-2.324-.252-4.642-.733-6.911l-3.226.694zm.449 9.267c-.219 2.166-.574 4.391-.859 6.556l3.27.426c.279-2.154.64-4.384.853-6.533l-3.27-.449h.006zm-1.285 9.831l3.275.426-.853 6.545-3.27-.426.853-6.545h-.005zm-1.28 9.82l3.27.426-.853 6.545-3.275-.427.853-6.544h.005zm-1.279 9.819l3.27.427-.853 6.544-3.275-.426.853-6.545h.005zm-1.279 9.82l3.269.426-.853 6.545-3.275-.427.853-6.544h.006zm-1.28 9.819l3.27.427-.853 6.544-3.275-.426.853-6.545h.005zm-1.279 9.82l3.275.426-.853 6.545-3.275-.427.853-6.544zm-1.279 9.819l3.275.427-.853 6.544-3.275-.426.853-6.545zm-1.28 9.82l3.275.426-.853 6.545-3.275-.427.853-6.544zm-1.318 9.683c-.371 1.809-1.131 4.013-2.176 5.549l2.772 1.794c1.296-2.034 2.144-4.303 2.636-6.665l-3.232-.678zm-4.013 7.791l-.322.295c-1.394 1.197-2.821 1.897-4.62 2.258l.585 3.248c2.411-.448 4.554-1.531 6.375-3.171l.251-.235-2.269-2.401v.006zM117.704 165.989l1.602-2.887 5.774 3.199-1.602 2.887-5.774-3.199zm-19 123.138l-1.601 2.887-5.774-3.198 1.602-2.887 5.774 3.198zm-8.66-4.8l-1.602 2.887-5.773-3.199 1.602-2.887 5.773 3.199zm-8.66-4.801l-1.602 2.887-5.774-3.198 1.602-2.887 5.774 3.198zm-8.66-4.8l-1.603 2.887c-2.241-1.241-3.865-2.122-5.8-3.762l2.143-2.509c1.76 1.487 3.21 2.247 5.26 3.384zm-7.486-5.533c-1.46-1.624-2.536-3.171-3.657-5.041l-2.865 1.64a32.706 32.706 0 004.084 5.621l2.438-2.22zm-5.095-7.835a32.86 32.86 0 01-2.023-5.932l-3.215.743a36.95 36.95 0 002.23 6.545l3.008-1.361v.005zm-2.586-9.005c-.252-2.017-.328-4.172-.088-6.195l-3.28-.371c-.263 2.301-.197 4.68.087 6.971l3.275-.405h.006zm.333-9.442l-3.27-.427.854-6.544 3.275.426-.853 6.545h-.006zm1.28-9.82l-3.27-.426.853-6.545 3.275.427-.853 6.544h-.005zm1.279-9.819l-3.275-.427.853-6.544 3.275.426-.853 6.545zm1.28-9.82l-3.276-.426.853-6.545 3.275.427-.853 6.544zm1.279-9.819l-3.275-.427.853-6.544 3.27.426-.854 6.545h.006zm1.28-9.82l-3.276-.426.853-6.545 3.27.426-.853 6.545h.005zm1.279-9.82l-3.275-.426.852-6.545 3.275.427-.852 6.544zm1.279-9.819l-3.275-.427.853-6.544 3.27.426-.854 6.545h.006zm1.28-9.82l-3.276-.426c.285-2.187.487-4.451.892-6.621l3.247.59c-.437 2.067-.59 4.363-.864 6.463v-.006zm1.629-9.404l.043-.12c.678-1.875 1.564-3.45 2.93-4.915l-2.383-2.28c-1.706 1.799-2.887 3.898-3.701 6.233l3.116 1.088-.005-.006zm5.188-6.807c.448-.262.908-.486 1.394-.678 1.296-.514 2.63-.694 4.019-.65l.142-3.297a13.302 13.302 0 00-5.364.869 12.54 12.54 0 00-1.87.908l1.674 2.843.005.005zm8.273-.847c1.022.257 2.329.853 3.253 1.372l2.356 1.307 1.602-2.887-2.356-1.307c-1.149-.628-2.669-1.339-3.937-1.651l-.918 3.171v-.005zm8.496 4.275l1.602-2.886 5.774 3.198-1.602 2.887-5.774-3.199zm8.66 4.801l1.602-2.887 5.774 3.198-1.602 2.887-5.774-3.198zm8.661 4.8l1.602-2.887 5.773 3.199-1.602 2.887-5.773-3.199zm186.238-48.742l1.602-2.887 5.774 3.198-1.602 2.887-5.774-3.198zm-52.039 17.403l.771-5.933-3.27-.426-.776 5.932 3.275.427zm1.197-9.202l-3.275-.427.853-6.544 3.27.426-.853 6.545h.005zm1.28-9.82l-3.275-.426c.284-2.187.486-4.451.891-6.621l3.248.59c-.438 2.067-.591 4.363-.864 6.457zm1.629-9.404l.044-.12c.678-1.875 1.564-3.45 2.93-4.915l-2.383-2.28c-1.706 1.799-2.887 3.898-3.702 6.233l3.117 1.088-.006-.006zm5.189-6.807a9.915 9.915 0 011.394-.678c1.296-.514 2.63-.694 4.018-.65l.143-3.297a13.3 13.3 0 00-5.364.87 12.57 12.57 0 00-1.87.907l1.673 2.843.006.005zm8.272-.847c1.022.257 2.329.853 3.253 1.372l2.357 1.307 1.602-2.887-2.357-1.307c-1.148-.628-2.668-1.34-3.936-1.656l-.919 3.17zm8.496 4.275l1.602-2.886 5.774 3.198-1.602 2.887-5.774-3.199zm8.661 4.801l1.602-2.887 5.773 3.198-1.601 2.887-5.774-3.198zm8.66 4.8l1.602-2.887 5.774 3.199-1.602 2.887-5.774-3.199z" fill="#fff"/><path fill-rule="evenodd" clip-rule="evenodd" d="M452.028 550.078L143.106 376.535c-4.686-2.132-11.569-4.144-16.162-1.339l-11.755 7.178c-2.362 1.444-10.142 6.239-4.943 9.06 15.304 8.3 295.785 166.922 311.323 175.352 2.936 1.597 7.239 2.165 11.75 1.788 4.494-.377 9.158-1.602 12.728-3.805l4.696-2.903c3.319-2.051 5.156-4.292 5.337-6.436.175-2.094-1.176-4.04-4.052-5.347v-.005z" fill="#59CAAF" opacity=".35"/><path fill-rule="evenodd" clip-rule="evenodd" d="M169.537 81.282c-2.204-1.252-4.784-1.717-7.206-.804l-5.408 2.116c-1.962 10.164 278.502 476.451 281.011 479.031l4.828-1.82c3.171-1.247 4.833-4.549 5.298-7.753l40.755-278.201v-.022c.661-4.685-.744-9.557-3.314-13.466-1.383-2.105-3.204-4.035-5.445-5.249L169.537 81.282z" fill="#303A7D"/><path fill-rule="evenodd" clip-rule="evenodd" d="M474.724 257.17L164.2 83.343c-5.872-3.253-11.465-.131-12.504 6.955l-40.76 278.2c-1.039 7.086 2.865 15.473 8.742 18.732l310.525 173.827c5.872 3.253 11.481.137 12.515-6.944l40.754-278.206c1.039-7.086-2.881-15.478-8.753-18.737h.005z" fill="url(#paint1_linear_963_3951)"/><path fill-rule="evenodd" clip-rule="evenodd" d="M474.724 257.17L164.2 83.343c-5.872-3.253-11.466-.131-12.504 6.955l-1.373 9.382 331.766 185.713 1.389-9.492c1.038-7.085-2.882-15.478-8.754-18.737v.006z" fill="#3E4992"/><path fill-rule="evenodd" clip-rule="evenodd" d="M162.269 90.264c2.357.541 4.167 3.34 4.041 6.26-.126 2.92-2.132 4.85-4.489 4.314-2.356-.541-4.166-3.34-4.04-6.265.125-2.92 2.132-4.85 4.488-4.314v.005zm10.727 6.162c2.356.536 4.166 3.34 4.04 6.26-.125 2.92-2.132 4.85-4.488 4.314-2.357-.541-4.167-3.34-4.041-6.26.126-2.92 2.132-4.85 4.489-4.314zm11.602 6.763c2.357.541 4.167 3.341 4.041 6.26-.126 2.92-2.132 4.85-4.489 4.314-2.356-.541-4.166-3.341-4.04-6.266.125-2.919 2.132-4.849 4.488-4.313v.005z" fill="#303A7D"/><path style="mix-blend-mode:multiply" opacity=".5" fill-rule="evenodd" clip-rule="evenodd" d="M478.759 299.874l-161.854-89.721c-3.701-2.05-7.321-2.34-10.35-1.159-3.881 1.509-6.785 5.435-7.621 11.159l-10.148 77.835c-1.492 10.186 4.123 22.242 12.559 26.922l160.694 89.076 5.369-2.171 1.372-9.863 9.973-102.078h.006z" fill="url(#paint2_linear_963_3951)"/><path fill-rule="evenodd" clip-rule="evenodd" d="M489.562 326.84l-12.04 81.826 1.444.175 3.942-1.531c4.325-1.7 6.594-6.206 7.228-10.58l9.633-73.87s.006-.033.006-.044c.908-6.381-1.012-13.029-4.522-18.36-1.891-2.876-4.374-5.506-7.424-7.162l-158.043-87.605c-3.007-1.706-6.528-2.34-9.83-1.099l-3.478 1.356c-1.749.656-2.291 1.181-2.28 1.29 1.641 15.292 177.666 99.912 175.364 115.598v.006z" fill="#303A7D"/><path fill-rule="evenodd" clip-rule="evenodd" d="M483.848 298.852l-158.037-87.599c-3.51-1.947-6.949-2.22-9.825-1.105-3.685 1.433-6.441 5.161-7.233 10.591l-9.628 73.876c-1.417 9.666 3.909 21.115 11.924 25.555l158.037 87.599c8.015 4.44 15.664.186 17.08-9.475l9.629-73.876c1.416-9.666-3.932-21.121-11.947-25.56v-.006z" fill="url(#paint3_linear_963_3951)"/><path opacity=".5" fill-rule="evenodd" clip-rule="evenodd" d="M486.79 329.656l-90.016-49.525c-.842-.464-1.662-.53-2.351-.262-.88.339-1.537 1.235-1.728 2.531l-.601 3.642c-.339 2.307.935 5.046 2.848 6.107l90.017 49.524c1.919 1.061 3.745.044 4.084-2.264l.601-3.641c.339-2.307-.94-5.046-2.854-6.112zm-3.265 22.285l-90.016-49.524c-.842-.465-1.662-.53-2.351-.263-.88.339-1.536 1.236-1.728 2.532l-.601 3.641c-.339 2.307.935 5.047 2.849 6.107l90.016 49.525c1.919 1.06 3.745.043 4.084-2.264l.601-3.641c.339-2.313-.94-5.047-2.854-6.113zm-57.473-8.174l-35.801-19.059c-.842-.465-1.662-.53-2.351-.263-.88.339-1.536 1.236-1.727 2.532l-.602 3.641c-.339 2.308.935 5.047 2.849 6.107l35.806 19.06c1.919 1.061 3.745.044 4.084-2.264l.602-3.641c.339-2.313-.941-5.046-2.854-6.113h-.006z" fill="#0FF"/><path opacity=".5" fill-rule="evenodd" clip-rule="evenodd" d="M311.274 257.288c-2.778 24.926 11.044 55.38 30.913 67.966 19.869 12.592 38.912-3.625 41.006-22.389 2.088-18.764-1.422-26.572-7.102-38.945a1531.325 1531.325 0 01-10.367 5.686c3.685 7.955 5.96 13.04 4.615 25.107-1.345 12.061-13.592 22.471-26.348 14.385-12.755-8.087-21.64-27.655-19.858-43.658-4.242-2.706-8.562-5.429-12.859-8.152z" fill="#fff"/><path opacity=".3" fill-rule="evenodd" clip-rule="evenodd" d="M325.391 232.028c-7.424 4.024-12.728 12.778-14.117 25.26 4.292 2.723 8.617 5.446 12.86 8.152.891-8.004 4.275-13.647 9.054-16.233-2.608-5.713-5.216-11.421-7.797-17.173v-.006z" fill="#fff"/><path opacity=".2" fill-rule="evenodd" clip-rule="evenodd" d="M352.28 234.882c-9.94-6.293-19.486-6.921-26.884-2.892a2654.62 2654.62 0 007.792 17.212c4.778-2.586 10.913-2.193 17.266 1.842 6.353 4.035 11.815 10.957 15.396 18.847 3.456-1.87 6.906-3.74 10.367-5.648-5.577-12.313-13.997-23.067-23.937-29.361z" fill="#fff"/><path style="mix-blend-mode:multiply" opacity=".5" fill-rule="evenodd" clip-rule="evenodd" d="M256.507 188.204l-106.943-59.175c-1.132-.628-2.258-1.044-3.347-1.257l-15.33 104.664c1.082 1.088 2.28 2.017 3.554 2.722l106.943 59.175c6.545 3.625 12.788.153 13.948-7.742l10.935-77.512c1.159-7.895-3.21-17.25-9.754-20.875h-.006z" fill="url(#paint4_linear_963_3951)"/><path fill-rule="evenodd" clip-rule="evenodd" d="M253.1 201.676l-12.242 79.732 1.121.137 3.056-1.187c3.352-1.317 5.112-4.811 5.604-8.201l10.378-73.564v-.033c.7-4.948-.788-10.099-3.505-14.232-1.465-2.225-3.39-4.27-5.757-5.55l-122.51-67.916c-2.329-1.323-5.062-1.816-7.621-.853l-2.696 1.055c-1.356.508-1.777.919-1.766 1.001 1.274 11.853 137.72 77.452 135.938 89.611z" fill="#273087"/><path fill-rule="evenodd" clip-rule="evenodd" d="M248.672 179.981l-122.504-67.906c-2.723-1.509-5.391-1.722-7.616-.853-2.855 1.11-4.992 4.003-5.61 8.207l-10.377 73.57c-1.099 7.496 3.034 16.364 9.24 19.809l122.509 67.906c6.211 3.439 12.143.147 13.237-7.349l10.377-73.57c1.099-7.49-3.045-16.375-9.256-19.814z" fill="#fff"/><path opacity=".5" fill-rule="evenodd" clip-rule="evenodd" d="M242.581 225.033L116.84 155.279c-.651-.361-1.29-.41-1.821-.202-.683.262-1.192.956-1.339 1.963l-.465 2.821c-.262 1.788.727 3.914 2.209 4.735l125.746 69.753c1.487.821 2.903.033 3.166-1.755l.464-2.826c.263-1.788-.727-3.915-2.214-4.735h-.005zm-64.331 1.405c1.488.82 2.477 2.947 2.215 4.735l-.465 2.821c-.262 1.793-1.679 2.581-3.166 1.755l-66.468-36.605c-1.487-.82-2.471-2.947-2.208-4.734l.464-2.822c.148-1.006.656-1.7 1.34-1.962.53-.208 1.17-.159 1.821.202l66.467 36.605v.005zm61.805 15.872c1.487.82 2.476 2.947 2.214 4.735l-.465 2.821c-.262 1.793-1.678 2.581-3.165 1.755l-125.747-69.748c-1.487-.82-2.471-2.947-2.208-4.735l.464-2.821c.148-1.006.656-1.695 1.34-1.963.53-.208 1.17-.159 1.82.202l125.741 69.754h.006z" fill="url(#paint5_linear_963_3951)"/><path opacity=".5" fill-rule="evenodd" clip-rule="evenodd" d="M182.739 163c-2.258-1.252-4.412-.055-4.811 2.673-.399 2.718 1.104 5.943 3.368 7.195 2.258 1.252 4.412.055 4.811-2.662.399-2.734-1.104-5.954-3.362-7.206h-.006zm5.522 8.403c-.612 4.172-3.903 6.003-7.353 4.09-3.45-1.914-5.752-6.845-5.14-11.017.612-4.172 3.904-6.003 7.354-4.09 3.45 1.914 5.752 6.845 5.139 11.017zm5.287.492l2.247 1.247a22.197 22.197 0 01-.202 2.329 18.59 18.59 0 01-.454 2.176l-2.247-1.247c-.596 1.958-1.574 3.527-2.805 4.642l1.313 2.811c-.941.77-1.974 1.361-3.106 1.716l-1.301-2.794c-1.564.427-3.297.356-5.09-.251l-.399 2.706a13.524 13.524 0 01-1.892-.869 17.037 17.037 0 01-1.843-1.197l.394-2.707c-1.69-1.317-3.182-3.04-4.396-5.002l-1.864 1.038a27.545 27.545 0 01-2.176-4.642l1.875-1.044c-.744-2.214-1.154-4.549-1.126-6.823l-2.247-1.247a21.48 21.48 0 01.202-2.318c.115-.771.273-1.498.459-2.187l2.247 1.247c.596-1.958 1.575-3.527 2.805-4.648l-1.312-2.799a8.998 8.998 0 013.105-1.728l1.302 2.794c1.563-.426 3.296-.355 5.09.263l.399-2.718c.629.235 1.252.531 1.892.88.634.35 1.246.739 1.848 1.187l-.399 2.717c1.689 1.307 3.182 3.029 4.395 4.992l1.865-1.039a27.512 27.512 0 012.17 4.653l-1.875 1.033c.744 2.215 1.154 4.549 1.126 6.824v.005z" fill="url(#paint6_linear_963_3951)"/><path fill-rule="evenodd" clip-rule="evenodd" d="M314.873 90.752c3.843 2.094 6.096 4.56 8.589 8.086-.027-.617-.06 1.652-.038-1.859.022-3.51-1.996-9.168.754-12.034 1.088-1.137 6.392-3.253 7.666-3.592 2.444-.65 5.281-.251 8.305 1.378 4.603 2.477 8.77 7.338 11.793 13.199 3.029 5.877 4.915 15.691 4.91 19.245 0 3.554-.017 1.23-.055 1.826 2.564-.793 4.861-.803 8.814 1.351 3.953 2.154 8.939 7.507 12.028 13.477 3.1 5.981 5.047 13.013 5.057 19.568.011 5.123-1.159 9.202-3.143 12.034-2.001 2.854-5.872 4.565-8.617 5.5-7.868 2.805-23.034-13.018-31.039-17.474-8.491-4.735-16.949-9.437-25.347-14.117-4.582-2.553-8.688-7.457-11.629-13.329-2.936-5.856-4.708-12.701-4.648-19.093.033-3.734-2.695-9.316.837-12.034 5.495-4.22 11.361-4.532 15.763-2.138v.006z" fill="#6D6AFD"/><path fill-rule="evenodd" clip-rule="evenodd" d="M310.422 92.72c3.844 2.094 6.096 4.56 8.589 8.087-.032-.618-.06 1.651-.038-1.86.022-3.51 1.925-11.202 4.943-13.777 3.018-2.58 7.178-2.947 11.782-.47 4.604 2.477 8.77 7.337 11.793 13.198 3.029 5.878 4.916 15.692 4.91 19.246 0 3.553-.016 1.23-.055 1.826 2.559-.793 4.861-.804 8.814 1.35 3.953 2.154 8.939 7.507 12.028 13.478 3.1 5.981 5.047 12.979 5.058 19.568.016 6.588-1.908 11.514-5.003 14.122-3.089 2.603-7.375 2.881-12.083.262-8.606-4.794-17.19-9.573-25.713-14.324-8.491-4.735-16.95-9.437-25.348-14.117-4.581-2.554-8.687-7.458-11.629-13.33-2.936-5.856-4.707-12.701-4.647-19.092.06-6.392 1.935-11.165 4.926-13.724 3.002-2.564 7.824-2.542 11.673-.448v.005z" fill="url(#paint7_linear_963_3951)"/><path fill-rule="evenodd" clip-rule="evenodd" d="M319.301 124.323l-7.884-4.478 12.4 21.362 12.477-7.217-7.879-4.484.022-20.218-9.114-5.184-.022 20.219z" fill="#fff"/><path fill-rule="evenodd" clip-rule="evenodd" d="M346.615 132.842l7.884 4.483-12.395-21.367-12.482 7.223 7.884 4.483-.022 20.219 9.109 5.177.022-20.218z" fill="#fff"/><path style="mix-blend-mode:multiply" opacity=".5" fill-rule="evenodd" clip-rule="evenodd" d="M168.758 378.279l-54.625-31.744 14.527-96.686 61.842 35.943c.339.197.492.694.35 1.339l-18.119 86.085c-.312 1.493-.694 2.614-1.099 3.368-.41.788-.902 1.324-1.46 1.646-.541.312-1.011.312-1.416.049z" fill="url(#paint8_linear_963_3951)"/><path fill-rule="evenodd" clip-rule="evenodd" d="M164.417 363.134L94.8 322.675l16.162-76.709v-.043l.005-.017v-.098h.006v-.022l.01-.011v-.011l.011-.027.006-.033v-.011l.005-.016v-.022l.006-.006.011-.027.005-.028v-.016l.011-.011.011-.027.011-.033v-.011l.011-.016v-.028l.011-.005.011-.033.011-.033v-.022l.011-.011.011-.032.011-.033v-.017l.016-.016.011-.027.016-.039v-.01l.017-.022.011-.028.016-.038.011-.033.011-.016v-.017l.022-.032.016-.033v-.011l.017-.017.016-.027.016-.038.017-.033.011-.022v-.011l.027-.033.022-.032.011-.017.011-.016.022-.028.022-.032v-.011l.021-.022.022-.027.022-.028.022-.027.016-.017.011-.01.028-.028.027-.027.011-.011.016-.016.022-.022.028-.028h.005l.022-.022.016-.016h.011l.028-.027.027-.022.016-.011.017-.011.027-.016.027-.022h.011l.022-.017c.285-.164.629-.207 1.039-.049l69.612 40.454c-2.28-1.252-11.542 55.91-18.234 78.529h.049z" fill="url(#paint9_linear_963_3951)"/><path fill-rule="evenodd" clip-rule="evenodd" d="M110.967 245.966c29.24 33.505 64.112 54.199 60.7 83.275l-7.25 33.888-69.617-40.46 16.162-76.708.005.005z" fill="#59CAAF" opacity=".35"/><path fill-rule="evenodd" clip-rule="evenodd" d="M163.454 277.541l-1.574 77.802-73.013-42.149.219-77.124 74.368 41.471z" fill="#F2F4FF"/><path fill-rule="evenodd" clip-rule="evenodd" d="M162.098 278.219l1.525-.886-.219 77.13-1.525.88.219-77.124z" fill="#C5DBF1"/><path fill-rule="evenodd" clip-rule="evenodd" d="M89.086 236.07l1.53-.891 73.008 42.154-1.526.886-73.012-42.149z" fill="#DCE8F8"/><path fill-rule="evenodd" clip-rule="evenodd" d="M159.316 338.656l-.017 4.866-67.577-39.016.016-4.86 67.578 39.016v-.006zm.153-55.921v4.861L91.886 248.58l.016-4.861 67.572 39.016h-.005zm-.022 7.983l-67.572-39.016-.017 4.86 67.573 39.016.016-4.86zm-.022 7.993l-67.578-39.016v4.866l67.562 39.011.016-4.861zm-.022 7.988l-67.577-39.016-.017 4.861 67.578 39.015.016-4.866v.006zm-.022 7.988l-67.577-39.016-.017 4.866 67.578 39.016.016-4.861v-.005zm-.021 7.993l-67.578-39.015-.017 4.86 67.578 39.016.017-4.861zm-.022 7.994L91.76 291.658l-.016 4.861 67.577 39.015.017-4.86z" fill="#C5DBF1"/><path fill-rule="evenodd" clip-rule="evenodd" d="M145.588 307.383l16.593 58.359c.224.607.689 1.504 1.023 1.859l-69.612-40.448c-.612-.344-.935-1.29-1.022-1.853l-16.594-58.365.016.01-3.11-10.94c-.16-.836.431-1.804.6-1.979 2.893 2.635 18.328 12.078 21.17 13.756 4.768 3.734 4.932 8.349 12.149 16.003 1.384 1.466 1.859 1.854 3.571 2.86l35.21 20.743.006-.005z" fill="url(#paint10_linear_963_3951)"/><path fill-rule="evenodd" clip-rule="evenodd" d="M146.447 305.135c.114-.104.229-.186.339-.251.541-.312 1.033-.181 1.197.361l16.441 57.889 16.156-76.708c.142-.717.64-1.416 1.181-1.728.115-.066.23-.115.333-.142.667-.175 1.056.388.87 1.252l-16.255 77.222c-.279 1.34-.623 2.346-.984 3.024-.366.705-.809 1.192-1.307 1.476-.492.284-.924.279-1.29.033-.367-.279-.684-.88-.941-1.804l-16.599-58.366c-.18-.65.208-1.662.859-2.247v-.011z" fill="#59CAAF" opacity=".35"/><path fill-rule="evenodd" clip-rule="evenodd" d="M112.548 284.398l35.112 20.404c-.914-.448-2.313 1.608-2.073 2.581l-35.462-20.607c-1.181-.689-1.913-1.088-2.957-1.914-5.041-3.98-7.42-9.437-10.711-13.849a14.151 14.151 0 00-2.821-2.859c-.875-.476-1.34-.733-1.181-.656l-19.574-11.52c-.147-.831.438-1.788.602-1.963.371-.394.95-.88 1.476-.602l19.606 11.542c-.153-.076.306.181 1.181.656a14.03 14.03 0 012.821 2.86c3.483 4.669 5.976 9.918 11.629 14.374.804.634 1.471 1.044 2.352 1.553z" fill="#59CAAF" opacity=".35"/><path style="mix-blend-mode:multiply" opacity=".5" fill-rule="evenodd" clip-rule="evenodd" d="M375.216 379.92l-164.324-91.389c-6.703-3.712-13.084-.147-14.265 7.934l-14.406 99.048c-1.187 8.087 3.269 17.66 9.972 21.373l164.33 91.388c6.703 3.713 13.1.153 14.281-7.928l14.407-99.048c1.186-8.081-3.286-17.666-9.989-21.378h-.006z" fill="url(#paint11_linear_963_3951)"/><path fill-rule="evenodd" clip-rule="evenodd" d="M213.942 283.682c-2.384-1.351-5.172-1.854-7.785-.87l-5.845 2.286c-2.122 10.984 151.448 206.774 154.16 209.568l5.216-1.969c3.423-1.35 5.222-4.915 5.725-8.381l13.647-93.817v-.021c.716-5.069-.804-10.328-3.582-14.555-1.498-2.274-3.466-4.363-5.883-5.675l-155.653-86.561v-.005z" fill="#303A7D"/><path fill-rule="evenodd" clip-rule="evenodd" d="M363.827 372.468L208.18 285.907c-6.348-3.516-12.395-.142-13.516 7.518l-13.647 93.816c-1.121 7.66 3.1 16.725 9.448 20.24l155.653 86.561c6.348 3.516 12.406.148 13.527-7.507l13.646-93.821c1.127-7.655-3.116-16.731-9.458-20.252l-.006.006z" fill="url(#paint12_linear_963_3951)"/><path opacity=".5" fill-rule="evenodd" clip-rule="evenodd" d="M362.815 388.176c-.678-.377-1.356 0-1.476.82-.126.853.345 1.865 1.028 2.236.716.4 1.378.017 1.503-.836.121-.826-.338-1.826-1.055-2.225v.005zm-170.929 8.037l7.813-53.34-1.208-.667-7.813 53.34 1.208.673v-.006zm7.824-57.999c-.678-.377-1.356 0-1.482.853-.12.837.35 1.848 1.028 2.226.716.393 1.389.021 1.515-.815.125-.853-.345-1.864-1.061-2.258v-.006zm11.864 68.951l7.212-49.235-1.208-.667-7.212 49.229 1.208.673zm7.234-53.888c-.695-.382-1.367-.011-1.493.842-.12.837.35 1.848 1.039 2.231.705.394 1.378.016 1.504-.82.125-.853-.345-1.865-1.05-2.253zm12.466 64.844l10.251-69.994-1.219-.673-10.252 69.989 1.22.678zm10.289-74.636c-.705-.388-1.377-.016-1.503.837-.12.836.35 1.848 1.055 2.236.678.377 1.356 0 1.476-.837.126-.853-.344-1.859-1.028-2.241v.005zm9.629 85.713l13.067-90.874-1.181-.656-13.067 90.874 1.181.656zm13.1-95.522c-.706-.393-1.356 0-1.482.864-.12.826.328 1.821 1.028 2.209.716.394 1.367.011 1.487-.815.126-.863-.323-1.864-1.039-2.258h.006zm6.621 106.49l13.668-95.057-1.208-.667-13.669 95.052 1.203.672h.006zm13.69-99.71c-.694-.383-1.367-.005-1.492.842-.121.837.35 1.848 1.044 2.231.705.388 1.378.016 1.498-.82.126-.853-.344-1.865-1.05-2.253zm5.993 110.656l12.482-86.796-1.219-.672-12.483 86.796 1.22.677v-.005zm12.487-91.438c-.678-.377-1.356-.016-1.481.848-.121.825.349 1.831 1.027 2.209.717.399 1.378.016 1.499-.81.131-.864-.334-1.853-1.05-2.252l.005.005zm6.982 102.269l10.88-74.264-1.202-.667-10.881 74.264 1.203.673v-.006zm10.913-78.912c-.705-.388-1.378-.016-1.503.837-.121.836.35 1.848 1.055 2.236.694.383 1.367.005 1.487-.826.126-.853-.344-1.864-1.039-2.247zm8.765 89.858l10.295-70.273-1.192-.662-10.295 70.268 1.192.661v.006zm10.328-74.904c-.695-.383-1.356-.017-1.477.82-.125.853.334 1.853 1.028 2.236.706.388 1.378.016 1.504-.837.12-.836-.35-1.831-1.055-2.225v.006zm9.518 85.943l13.204-91.105-1.219-.672-13.204 91.104 1.214.678.005-.005z" fill="#3856D8"/><path opacity=".5" fill-rule="evenodd" clip-rule="evenodd" d="M368.02 412.228a2.058 2.058 0 00-.798-.842c-.399-.219-.826-.236-1.154.005-2.952 2.28-5.659 4.248-8.19 5.949a85.742 85.742 0 01-7.026 4.341c-10.131 5.533-17.474 5.921-24.696 1.913-7.07-4.073-13.893-12.662-22.794-24.74-9.962-13.521-18.754-22.679-27.605-27.583a37.368 37.368 0 00-3.932-1.897c-10.196-4.199-20.568-2.74-32.99 4.231-1.291.689-2.532 1.433-3.773 2.149-9.557 5.533-18.507 10.711-28.174 5.353-5.024-2.783-10.24-8.42-15.833-18.338a2.104 2.104 0 00-.793-.837c-.399-.224-.837-.229-1.17.033-.558.454-.629 1.553-.137 2.422 6.244 11.094 12.018 17.348 17.545 20.416 10.416 5.773 19.967.224 30.164-5.675 1.263-.7 2.504-1.422 3.773-2.122 11.842-6.67 21.667-8.103 31.224-4.177a33.997 33.997 0 013.543 1.717c8.349 4.631 16.785 13.422 26.403 26.479 9.24 12.504 16.336 21.432 24.013 25.855.147.082.295.17.443.246 7.61 4.221 15.582 3.86 26.353-2.001 2.231-1.214 4.625-2.695 7.206-4.434a180.972 180.972 0 008.267-6.03c.585-.454.65-1.515.136-2.433h-.005z" fill="#3856D8"/><path fill-rule="evenodd" clip-rule="evenodd" d="M366.359 405.847c-.213-.383-.498-.672-.798-.831-.4-.213-.826-.224-1.154.022-2.953 2.318-5.653 4.325-8.19 6.063a85.487 85.487 0 01-7.026 4.44c-10.131 5.675-17.474 6.167-24.697 2.258-7.069-3.975-13.892-12.466-22.793-24.423-9.962-13.379-18.748-22.417-27.606-27.201a37.4 37.4 0 00-3.931-1.842c-10.197-4.057-20.568-2.455-32.99 4.691-1.291.705-2.532 1.471-3.773 2.203-9.557 5.664-18.507 10.968-28.174 5.747-5.024-2.718-10.24-8.278-15.833-18.12a2.074 2.074 0 00-.793-.825c-.399-.213-.837-.219-1.17.049-.558.465-.629 1.564-.137 2.422 6.244 11.006 12.017 17.179 17.545 20.17 10.416 5.626 19.967-.055 30.164-6.097 1.263-.721 2.504-1.454 3.773-2.176 11.842-6.834 21.667-8.403 31.224-4.614a34.405 34.405 0 013.543 1.662c8.349 4.51 16.78 13.187 26.403 26.107 9.24 12.373 16.336 21.203 24.013 25.522.147.082.295.164.443.241 7.61 4.111 15.576 3.641 26.353-2.368 2.23-1.246 4.625-2.755 7.206-4.532a192.166 192.166 0 008.267-6.146c.585-.464.645-1.52.136-2.438l-.005.016z" fill="#0FF"/><path fill-rule="evenodd" clip-rule="evenodd" d="M290.164 511.013l-59.333-33.789c-6.468-2.958-15.724-5.309-22.318-1.881-6.003 3.127-15.894 9.519-20.268 12.012-3.324 1.897-14.855 8.803-7.671 12.706 21.127 11.488 42.04 24.413 63.494 36.08 4.057 2.209 9.994 3.007 16.222 2.488 6.205-.514 12.57-2.324 17.572-5.233 3.565-2.072 7.075-4.117 10.52-6.123 4.653-2.712 7.118-5.916 7.364-8.879.241-2.893-1.618-5.577-5.593-7.392l.011.011z" fill="#59CAAF" opacity=".35"/><path fill-rule="evenodd" clip-rule="evenodd" d="M216.829 461.505c-.415 4.068-1.148 7.852-2.575 10.635-.711.776-1.596 1.241-2.012 2.121-2.225 4.729-2.712 9.284-1.164 33.548l5.697.121.727-8.573c.705-3.472 2.657-8.557 3.444-11.706 1.717-6.856 1.887-10.295 2.936-15.347l-7.058-10.799h.005z" fill="#FFA698"/><path fill-rule="evenodd" clip-rule="evenodd" d="M204.878 490.729c-.618-.082-1.793-.132-1.93-.279-.295-.328-.847-1.936-.443-2.242.717-.476 2.182 2.056 2.373 2.521z" fill="#1F202B"/><path fill-rule="evenodd" clip-rule="evenodd" d="M208.042 481.029c.678 2.171-.289 4.26-.967 6.512-2.384 7.868-3.778 8.311-2.767 11.865.7 2.471 1.93 4.477 3.483 6.243 1.542 1.761 2.006 3.024 3.991 4.391 2.985 2.061 5.643 3.023 4.992-1.11-.23-1.465-.667-3.128-.973-3.838-2.116-4.91-4.577-7.064-3.242-13.193.989-4.549 2.564-7.545.519-10.613l-5.03-.262-.006.005z" fill="#161A40"/><path fill-rule="evenodd" clip-rule="evenodd" d="M208.519 476.125c-.896 4.106-2.236 7.556-6.008 12.083.475-.125 1.689 1.116 2.356 2.488 4.921-5.659 7.316-8.409 8.836-5.976-.148 2.045-.897 5.752-1.526 8.633-.208.946-.437 3.046.164 4.484 1.936 4.641 5.479 11.416 4.128 13.635.476-.596 1.012-2.23 1.006-4.428-.011-3.204-.552-7.54-.623-10.208-.093-3.603 1.268-6.73 1.487-11.635a39.69 39.69 0 00-.011-4.111c-.208-3.472-.585-8.076-3.029-9.377-.869-.465-3.127-.126-4.297.465-1.641.831-2.144 2.362-2.488 3.942l.005.005z" fill="#161F69"/><path fill-rule="evenodd" clip-rule="evenodd" d="M242.171 414.408l17.37-50.333.563-13.822c.093-2.236-1.099-3.871-1.804-5.621-9.158 2.696-14.275 5.604-24.117 5.26-2.952 4.39-6.993 12.597-7.146 18.803-.29 12.088.656 20.153-3.034 40.355-10.973 36.949-5.282 35.664-9.481 60.213-.355 2.619 7.709 4.702 10.454 3.067l17.19-57.916.005-.006z" fill="url(#paint13_linear_963_3951)"/><path fill-rule="evenodd" clip-rule="evenodd" d="M242.171 414.408l17.37-50.333.563-13.822c.093-2.236-1.099-3.871-1.804-5.621a142.793 142.793 0 00-5.129 1.635l-10.213 16.326c-3.92 7.999-4.915 18.316-7.747 20.705 3.226 7.819 1.831 23.532.678 32.165-3.303-1.104-6.337-1.569-9.59-2.783 2.231 1.859 6.337 3.713 8.622 6.053-4.161 14.931-6.162 30.18-7.556 45.571l14.806-49.88v-.016z" fill="#1E2353" opacity=".3"/><path fill-rule="evenodd" clip-rule="evenodd" d="M248.944 481.735c-.137 3.86-3.805 7.6-4.237 10.104-.984 5.757 3.187 2.761 7.906 10.164 1.891-.017 6.052 6.796 11.684 7.151 1.295.082 3.603-3.056 1.049-5.276-1.137-.661-2.154-.169-3.094-.99-1.952-1.727-4.254-15.91-3.8-19.994l-9.508-1.159z" fill="#FFA698"/><path fill-rule="evenodd" clip-rule="evenodd" d="M246.796 487.421c4.577.564 8.847 11.728 12.384 16.583 1.717 2.357 5.358-.071 3.882-.705.754.055 3.521-.273 5.56.055 2.871.459 1.865 3.335-.087 4.68-4.341 3.001-8.196 4.691-12.132 2.701-.656-.334-1.531-.946-2.412-1.608-.612-.459-1.317-.956-1.607-1.301-1.274-1.525-1.766-3.986-2.925-6.08-.388-.694-.7-.842-.946-.65-.481.667.016 10.71.252 12.717-.126.574-2.084 1.028-2.477.59l-3.636-17.834c-.416-1.449-.252-3.177.476-4.566 1.093-2.088 3.187-3.707 3.668-4.587v.005z" fill="#161F69"/><path fill-rule="evenodd" clip-rule="evenodd" d="M258.737 511.516a8.166 8.166 0 01-2.329-.776c-.656-.334-1.531-.946-2.411-1.608-.613-.459-1.318-.956-1.608-1.301-1.377-1.651-2.055-4.724-3.586-6.829.508-.317 1.848-.284 3.187 1.925 2.012 3.701 3.396 6.424 6.053 8.217a4.3 4.3 0 00.7.378l-.006-.006z" fill="#161A40"/><path fill-rule="evenodd" clip-rule="evenodd" d="M272.373 403.752c2.565-13.329 2.499-21.022 1.646-30.836-.328-5.621.257-8.376-1.596-13.822-.722-2.121-1.706-3.871-2.679-5.62-8.732 2.695-15.249 5.347-25.14 4.997-2.263 4.39-4.226 10.257-3.406 16.462 1.596 12.084 5.752 21.969 7.091 42.696-3.401 24.15-.902 40.448-.404 63.854.054 2.619 8.447 4.702 10.935 3.068 5.205-27.431 8.409-53.986 13.564-80.793l-.011-.006z" fill="url(#paint14_linear_963_3951)"/><path fill-rule="evenodd" clip-rule="evenodd" d="M226.473 320.117l17.441 3.98c3.5 1.569.848 8.994-2.613 9.863l-24.352-3.149c-6.206-1.318-7.567-5.407-6.217-8.595.028-.066.061-.131.093-.197.421-1.974 12.822-19.803 14.609-22.22 2.488-3.362 5.085-5.522 6.162-6.172 2.105-1.263 4.894-.935 6.72.186 2.509 1.536 3.346 4.089 2.367 6.435-1.788 4.281-8.562 12.673-14.215 19.869h.005z" fill="url(#paint15_linear_963_3951)"/><path fill-rule="evenodd" clip-rule="evenodd" d="M236.113 291.532c-10.225-1.153-10.252 15.698-6.693 23.636 9.251 20.645 3.27 23.838 4.117 33.253l-.191 3.789c8.792 13.089 34.275 12.072 37.365 2.608-.164-.59-.296-3.072-.514-3.69.601-8.3-3.379-14.839-2.608-20.492 1.295-9.497 6.462-12.838 3.679-20.963-2.039-2.793-7.545-7.277-13.269-10.415-8.054-4.412-17.059-7.179-21.886-7.726z" fill="url(#paint16_linear_963_3951)"/><path fill-rule="evenodd" clip-rule="evenodd" d="M305.652 267.776c2.794-4.018 5.998-10.71 9.317-12.744 1.728-2.116 4.215-5.44 5.839-7.491 1.187-1.498 3.024.886 2.083 2.351-.924 1.438-3.483 5.14-3.493 5.151a1.486 1.486 0 01-.126.125c1.476 1.045 2.52 2.953 2.881 4.451.476 1.996-2.564 6.156-4.368 8.994-1.602 2.52-4.828 2.581-5.829 4.461-3.122-.06-4.888-2.914-6.304-5.287v-.011z" fill="url(#paint17_linear_963_3951)"/><path fill-rule="evenodd" clip-rule="evenodd" d="M262.667 303.823c2.291-1.749 6.758-2.077 10.022-3.417 5.38-2.209 11.788-5.549 17.233-7.058.673-2.833 8.07-15.621 12.581-22.248.497-.732 1.542-1.175 1.941-1.744a38.12 38.12 0 011.192-1.629c1.897.159 5.166 2.433 7.091 4.511a60.81 60.81 0 00-1.028 2.307c-.257.612-.082 2.253-.328 2.887-2.679 6.861-5.325 13.827-8.551 19.125-.465.76-.99 3.029-2.236 4.729-1.198 1.63-5.812 4.795-7.644 5.927-4.029 2.488-13.362 8.857-20.683 11.744-5.375 2.122-7.677.902-9.65-1.039-4.593-4.521-4.495-10.612.065-14.095h-.005z" fill="url(#paint18_linear_963_3951)"/><path fill-rule="evenodd" clip-rule="evenodd" d="M236.113 291.532c-10.225-1.153-10.252 15.698-6.693 23.636 9.251 20.645 3.27 23.838 4.117 33.253l-.191 3.789c8.792 13.089 34.275 12.072 37.365 2.608-.153-.541-.274-2.673-.46-3.499-9.272 8.868-22.701 6.523-30.634 1.788-.732-3.477-.284-5.025.186-6.452 6.386-6.872 22.16-4.406 25.998-23.275 1.115-5.478-2.504-10.295-6.02-14.641-1.684-2.084-2.941-3.172-5.199-6.321-3.691.869-10.558-.35-11.384-1.859-.284-.525 1.17-5.134.935-5.697-6.32-2.783-4.303-2.909-8.02-3.33z" fill="#FF8FD5" opacity=".5"/><path fill-rule="evenodd" clip-rule="evenodd" d="M239.389 296.186c-.793 3.357 11.47 6.987 15.669 5.161l.088-.814c1.082-5.009 2.149-9.268 2.898-12.789 1.952.831 6.746 1.077 7.173.405-12.925-10.323-28.043-17.955-29.984-12.745 1.28 3.778 4.593 6.457 6.244 8.918.438.65.782 2.012.864 3.378-.476 2.663-1.487 5.211-2.958 8.48l.006.006z" fill="url(#paint19_linear_963_3951)"/><path fill-rule="evenodd" clip-rule="evenodd" d="M265.145 288.209c-1.115.727-9.026-1.902-9.666-1.875-6.156.306-12.783-.197-14.002-2.012-1.657-2.46-4.965-5.145-6.244-8.918-2.045-6.036-1.646-12.837 3.871-17.577 9.595-8.24 24.642-2.198 26.796 7.129.886 3.827-.213 4.144-.033 6.709.334 4.724.869 2.941.432 10.415-.164 2.849-.421 5.648-1.159 6.129h.005z" fill="#FFA698"/><path fill-rule="evenodd" clip-rule="evenodd" d="M241.16 291.681c.339 3.056 8.939 5.211 14.155 3.997.558-.131.908-.235 1.104-.591.766.421 2.854 3.439 3.095 4.938-4.511 4.346-18.759 1.798-20.487-3.292-.415-1.219-.792-3.515 2.133-5.052z" fill="#59CAAF" opacity=".35"/><path fill-rule="evenodd" clip-rule="evenodd" d="M217.414 281.555c-8.201 6.862-12.821 19.213-9.092 26.216 3.384 6.354 11.629 10.088 9.092 14.107-2.099 3.324-7.037 6.653-1.159 12.017 3.023 2.761 10.41 10.175 25.489 6.337 14.697-3.74 30.12-16.441 17.737-30.323-13.029-14.609-5.408-17.84 2.066-29.327 3.953-6.075 7.485-18.081 4.101-22.543-5.806-7.659-9.666-2.143-15.254-4.844-10.656-5.161-19.399-1.47-24.412 6.6-4.489 7.222-2.051 16.309-8.573 21.76h.005z" fill="url(#paint20_linear_963_3951)"/><path fill-rule="evenodd" clip-rule="evenodd" d="M394.328 474.99c.576-3.636 3.407-5.106 6.333-3.279l30.162 18.746c2.92 1.826 4.821 6.262 4.245 9.898l-5.433 35.975c-.576 3.636-3.413 5.105-6.332 3.279l-30.162-18.747c-2.919-1.831-4.822-6.261-4.245-9.897l5.432-35.975z" fill="url(#paint21_linear_963_3951)"/><path fill-rule="evenodd" clip-rule="evenodd" d="M391.593 468.429c.577-3.636 3.408-5.106 6.333-3.28l30.162 18.747c2.92 1.826 4.822 6.262 4.245 9.897l-5.432 35.976c-.576 3.636-3.413 5.105-6.333 3.279l-30.162-18.747c-2.919-1.831-4.821-6.261-4.245-9.897l5.432-35.975z" fill="url(#paint22_linear_963_3951)"/><path fill-rule="evenodd" clip-rule="evenodd" d="M408.128 501.573c-5.122-3.209-8.842-10.783-8.319-16.92.522-6.132 5.095-8.504 10.216-5.295 5.116 3.209 8.841 10.789 8.319 16.921-.522 6.137-5.1 8.504-10.216 5.294z" fill="#fff"/><path opacity=".8" fill-rule="evenodd" clip-rule="evenodd" d="M397.315 502.34c.133-.859.803-1.194 1.489-.751l15.601 9.541c.686.443 1.134 1.502.996 2.355l-.264 1.697c-.134.859-.804 1.194-1.49.751l-15.601-9.541c-.686-.443-1.133-1.502-.995-2.356l.264-1.696z" fill="#fff"/><path fill-rule="evenodd" clip-rule="evenodd" d="M118.896 427.793c.219-3.067-.492-7.141-2.974-10.815-3.887-5.752-10.35-10.147-16.588-13.045-12.964-6.031-30.071-9.836-33.587 7.753.12-.246.279-.47.421-.7 1.843-3.056 4.997-4.631 8.376-5.402 1.843-.416 3.63-.59 5.517-.585.186 0 .377 0 .563.005 5.539.11 11.208 1.717 16.206 4.035 6.211 2.887 12.553 7.474 16.424 13.21a22.965 22.965 0 011.596 2.723c1.334 2.684 1.892 5.237 1.728 7.539l2.313-4.718h.005z" fill="url(#paint23_linear_963_3951)"/><path fill-rule="evenodd" clip-rule="evenodd" d="M75.228 435.179c-.192-.125-.372-.262-.558-.388a58.956 58.956 0 01-2.504-1.81l-.613-.464a54.263 54.263 0 01-2.815-2.34 34.439 34.439 0 01-.815-.744c-.312-.29-.623-.579-.924-.869-.295-.285-.574-.574-.858-.859-.296-.3-.585-.596-.87-.902-.213-.229-.42-.465-.628-.694a47.455 47.455 0 01-1.39-1.624c-.18-.219-.36-.437-.535-.662a40.338 40.338 0 01-1.673-2.274c-5.008-7.408-5.91-14.385-3.33-19.65l-2.312 4.718c-2.581 5.266-1.673 12.242 3.33 19.65a40.359 40.359 0 002.208 2.936c.448.547.908 1.088 1.389 1.624.12.131.224.268.344.405.093.098.192.197.285.295.284.301.574.602.869.897.284.29.569.579.858.864.301.295.613.579.924.869.203.186.4.383.607.569.066.06.142.114.208.175a59.326 59.326 0 002.816 2.34c.076.06.147.125.224.185.126.099.262.186.388.279a64.635 64.635 0 002.504 1.81c.099.066.192.142.29.208.087.06.18.12.268.18l2.313-4.718v-.006z" fill="#1994F0"/><path fill-rule="evenodd" clip-rule="evenodd" d="M124.938 416.847c-9.945-14.724-32.318-25.626-49.972-24.33-17.633 1.295-23.877 14.302-13.931 29.026 3.466 5.134 8.436 9.793 14.188 13.636l5.456-4.527c-4.183-2.761-7.78-6.107-10.273-9.798-7.031-10.41-2.625-19.595 9.841-20.508 12.477-.919 28.278 6.78 35.309 17.19 2.482 3.679 3.543 7.195 3.33 10.262l10.765 3.319c.241-4.276-1.263-9.158-4.718-14.265l.005-.005z" fill="url(#paint24_linear_963_3951)"/><path fill-rule="evenodd" clip-rule="evenodd" d="M124.417 416.814c3.139 4.647 3.975 8.89 3.931 12.838-1.284-.241-5.702-1.132-9.453-1.854l10.766 3.319c.24-4.276-1.263-9.158-4.719-14.265-8.775-12.99-27.222-22.996-43.57-24.281 16.217 1.455 34.369 11.389 43.051 24.243h-.006z" fill="#00EDFF"/><path fill-rule="evenodd" clip-rule="evenodd" d="M80.251 400.346a30.346 30.346 0 014.407.028c-1.678-.154-3.324-.061-4.926-.061-13.106-.011-22.061 15.446-1.072 30.613 0 0-3.532 4.188-3.428 4.253l5.457-4.527c-4.183-2.761-7.78-6.107-10.273-9.797-7.032-10.41-2.625-19.596 9.84-20.509h-.005z" fill="#0D7AE9"/><path fill-rule="evenodd" clip-rule="evenodd" d="M118.897 427.792l-2.313 4.719a9.816 9.816 0 01-.962 3.625l2.313-4.719a9.691 9.691 0 00.962-3.625zm7.424 11.63c-3.171 3.641-7.955 5.435-12.635 6.145-.252.039-.498.077-.755.11-7.944 1.022-16.62-.7-23.953-3.456a67.567 67.567 0 01-13.75-7.042l-2.313 4.719a67.319 67.319 0 0013.75 7.042c.1.038.197.087.301.12 7.267 2.695 15.812 4.33 23.653 3.33 4.931-.64 10.038-2.411 13.389-6.255a14.033 14.033 0 001.958-2.925l2.313-4.719a13.998 13.998 0 01-1.958 2.925v.006z" fill="#494CEC"/><path fill-rule="evenodd" clip-rule="evenodd" d="M129.656 431.111l-10.765-3.319c-.41 5.61-5.096 9.656-13.171 10.252-8.043.59-17.48-2.4-25.036-7.392l-5.456 4.527c10.77 7.206 24.286 11.536 35.784 10.694 11.542-.847 18.19-6.703 18.644-14.762z" fill="url(#paint25_linear_963_3951)"/><path fill-rule="evenodd" clip-rule="evenodd" d="M129.656 431.111s-.503 12.745-19.01 14.221c-17.026 1.362-35.418-10.158-35.418-10.158 10.77 7.206 24.286 11.536 35.784 10.694 11.542-.847 18.19-6.703 18.644-14.762v.005z" fill="#AAB4FF"/><path fill-rule="evenodd" clip-rule="evenodd" d="M455.341 141.938c-.257.044-.514.104-.776.153-12.023 2.307-25.15 12.739-29.732 24.112l3.373 4.871c1.056-2.619 2.532-5.035 4.26-7.272.306-.393.628-.782.951-1.164 5.681-6.802 14.226-12.428 22.816-14.664.169-.044.339-.093.503-.131 6.069-1.482 14.27-1.58 18.13 3.997l-3.374-4.872c-3.422-4.943-10.716-5.938-16.156-5.03h.005zm26.145-1.023c.104.169.208.344.307.519.087.153.164.312.246.471a11.654 11.654 0 01.475 1.038c.077.186.148.367.213.558.061.169.121.344.175.519.061.192.121.383.175.58.05.175.093.355.137.536.049.213.093.426.137.639.033.181.065.361.093.547.033.219.06.443.087.667.022.181.038.361.055.547.022.273.038.552.044.831.005.17.016.339.016.509 0 .311-.005.634-.022.951-.005.142-.005.279-.016.421a23.284 23.284 0 01-.159 1.58c-.016.137-.044.279-.065.415a28.908 28.908 0 01-.356 1.832c-.06.246-.12.498-.186.744-.06.229-.12.453-.186.683-.071.252-.153.509-.235.76-.076.235-.147.465-.229.7-.088.257-.186.514-.285.776-.087.235-.18.476-.273.717a24.3 24.3 0 01-.334.792c-.142.328-.278.656-.431.99-.252.541-.52 1.088-.804 1.624a35.507 35.507 0 01-.88 1.602l3.373 4.871a41.534 41.534 0 001.919-3.745c.071-.159.131-.317.202-.476.115-.262.23-.53.334-.787.098-.241.186-.481.279-.716.098-.257.191-.514.279-.771.082-.235.158-.47.235-.705.082-.252.158-.509.235-.755.065-.23.131-.459.191-.689.066-.246.126-.497.186-.743.022-.099.055-.203.077-.307.021-.093.032-.18.049-.273.087-.421.164-.842.229-1.252.022-.137.05-.279.066-.416.071-.535.126-1.06.159-1.58 0-.022.005-.043.005-.065.005-.121 0-.235.006-.35.016-.323.021-.64.021-.957 0-.169-.011-.339-.016-.508-.011-.279-.022-.558-.044-.832-.005-.076 0-.153-.011-.229-.011-.109-.032-.213-.043-.323-.028-.224-.055-.448-.088-.667-.027-.186-.06-.366-.093-.546a11.38 11.38 0 00-.137-.646c-.021-.093-.038-.191-.06-.284-.022-.082-.049-.164-.071-.246a16.643 16.643 0 00-.35-1.104c-.065-.186-.142-.372-.213-.558-.038-.099-.076-.202-.115-.301-.027-.065-.065-.126-.093-.191-.082-.186-.175-.361-.262-.541-.082-.159-.159-.312-.246-.471-.099-.175-.202-.344-.306-.519-.06-.098-.115-.202-.181-.306-.065-.099-.131-.192-.197-.29l-3.373-4.872c.131.192.251.394.377.596l-.022.006z" fill="#59CAAF" opacity=".35"/><path fill-rule="evenodd" clip-rule="evenodd" d="M462.071 133.556c-17.955 1.525-38.655 15.938-46.233 32.192a36.237 36.237 0 00-1.4 3.461l10.4-3.001c.164-.41.339-.831.541-1.269 5.353-11.487 19.978-21.667 32.668-22.744 12.69-1.077 18.633 7.364 13.28 18.846a32.35 32.35 0 01-.65 1.323l8.507 1.099a41.192 41.192 0 001.684-3.231c7.578-16.255-.831-28.201-18.797-26.676z" fill="url(#paint26_linear_963_3951)"/><path fill-rule="evenodd" clip-rule="evenodd" d="M470.886 146.225c-4.353-6.392-16.392-5.501-24.774-1.526-10.355 4.915-18.25 12.953-22.05 20.7 0 0-9.387 3.122-9.623 3.805l10.4-3.001c.164-.41.339-.831.541-1.269 5.352-11.487 19.978-21.667 32.668-22.744 5.899-.503 10.312 1.071 12.838 4.035z" fill="#FDBEBE"/><path fill-rule="evenodd" clip-rule="evenodd" d="M478.66 162.469s-7.753-.536-7.982-.099l8.507 1.099a41.192 41.192 0 001.684-3.231c3.964-8.502 3.543-15.823-.323-20.656 6.042 9.53-1.273 21.832-1.886 22.887zm-50.453 8.615s-3.078-4.461-3.368-4.876c-3.696 8.583-2.001 12.061 3.75 17.67-.251-.366-.47-.749-.672-1.148a5.09 5.09 0 01-.098-.208c-1.706-3.597-1.045-7.873.393-11.438h-.005z" fill="#59CAAF" opacity=".35"/><path fill-rule="evenodd" clip-rule="evenodd" d="M482.553 168.334l-3.374-4.871c-7.856 13.532-49.147 38.015-63.586 22.198l3.373 4.871c3.379 4.888 10 7.529 19.038 6.764a40.173 40.173 0 003.149-.394c.366-.06.733-.153 1.099-.219a56.724 56.724 0 002.34-.486 55.814 55.814 0 008.617-2.893c.126-.054.251-.12.377-.175 10.284-4.472 20.131-12.023 26.698-21.295.202-.285.421-.569.612-.859a41.937 41.937 0 001.662-2.641h-.005z" fill="#59CAAF" opacity=".35"/><path fill-rule="evenodd" clip-rule="evenodd" d="M470.677 162.364c-5.812 10.929-19.808 20.388-32.017 21.421-12.209 1.034-18.18-6.752-13.822-17.583l-10.399 3.002c-4.899 14.456 3.537 24.625 20.197 23.214 16.763-1.421 35.899-14.067 44.549-28.961l-8.508-1.099v.006z" fill="url(#paint27_linear_963_3951)"/><path fill-rule="evenodd" clip-rule="evenodd" d="M434.827 191.691c-26.965 1.936-20.388-22.482-20.388-22.482-4.899 14.456 3.537 24.626 20.197 23.215 16.763-1.422 35.899-14.068 44.549-28.961 0 0-17.163 26.112-44.352 28.228h-.006z" fill="#59CAAF" opacity=".35"/><path style="mix-blend-mode:multiply" opacity=".5" fill-rule="evenodd" clip-rule="evenodd" d="M447.57 420.044l-41.372-22.712c-2.4-1.328-4.751-1.52-6.714-.754-2.515.978-4.402 3.526-4.943 7.233l-4.691 33.647c-.968 6.605 2.674 14.423 8.147 17.458l41.377 22.711c5.479 3.035 10.7.126 11.668-6.473l4.691-33.647c.968-6.605-2.684-14.434-8.157-17.468l-.006.005z" fill="url(#paint28_linear_963_3951)"/><path fill-rule="evenodd" clip-rule="evenodd" d="M445.383 435.719l-5.702 35.177.891.11 2.427-.941c2.657-1.05 4.057-3.816 4.445-6.506l4.221-30.284v-.028c.558-3.925-.623-8.015-2.783-11.295-1.164-1.766-2.69-3.39-4.571-4.407l-37.244-20.448c-1.848-1.05-4.018-1.438-6.047-.678l-2.138.836c-1.077.405-1.41.727-1.399.793 1.006 9.404 49.316 28.021 47.9 37.665v.006z" fill="#D0E7FF"/><path fill-rule="evenodd" clip-rule="evenodd" d="M441.868 418.507l-37.245-20.448c-2.159-1.198-4.275-1.367-6.041-.678-2.264.88-3.959 3.176-4.451 6.512l-4.221 30.289c-.869 5.943 2.406 12.986 7.332 15.719l37.245 20.449c4.931 2.733 9.633.114 10.502-5.829l4.221-30.289c.875-5.944-2.416-12.991-7.348-15.725h.006z" fill="#fff"/><path fill-rule="evenodd" clip-rule="evenodd" d="M425.645 420.606c.279.558.378 1.121.307 1.733-.05.438-.285 1.187-.678 2.22l-7.934 22.04c-.257.738-.492 1.295-.661 1.7-.192.41-.416.656-.716.771-.274.12-.657.038-1.143-.268-1.192-.738-1.717-1.777-1.564-3.04.038-.333.252-1.093.656-2.296l7.917-22.056c.405-1.17.766-1.93 1.066-2.28.29-.361.788-.312 1.455.099.607.371 1.033.82 1.306 1.372l-.011.005zm2.116 5.725l-.727 6.129 11.728 13.597-13.144-1.662-.733 6.157 18.912 1.476.618-5.216-16.659-20.481h.005zm-33.056-4.675l16.665 20.503.733-6.156-11.668-13.685 13.084 1.777.738-6.211-18.918-1.509-.628 5.281h-.006z" fill="url(#paint29_linear_963_3951)"/><defs><linearGradient id="paint0_linear_963_3951" x1="463.961" y1="252.562" x2="103.874" y2="145.964" gradientUnits="userSpaceOnUse"><stop stop-color="#FA5DB1"/><stop offset="1" stop-color="#FEBFBF"/></linearGradient><linearGradient id="paint1_linear_963_3951" x1="266.327" y1="398.826" x2="360.668" y2="164.77" gradientUnits="userSpaceOnUse"><stop stop-color="#965CF2"/><stop offset="1" stop-color="#FF8ADC"/></linearGradient><linearGradient id="paint2_linear_963_3951" x1="374.073" y1="332.657" x2="412.307" y2="257.934" gradientUnits="userSpaceOnUse"><stop stop-color="#965CF2"/><stop offset="1" stop-color="#FF8ADC"/></linearGradient><linearGradient id="paint3_linear_963_3951" x1="408.315" y1="284.577" x2="386.166" y2="335.44" gradientUnits="userSpaceOnUse"><stop stop-color="#1C8EF4"/><stop offset="1" stop-color="#00CFDD"/></linearGradient><linearGradient id="paint4_linear_963_3951" x1="187.48" y1="238.368" x2="221.023" y2="161.337" gradientUnits="userSpaceOnUse"><stop stop-color="#965CF2"/><stop offset="1" stop-color="#FF8ADC"/></linearGradient><linearGradient id="paint5_linear_963_3951" x1="166.102" y1="211.315" x2="202.242" y2="186.908" gradientUnits="userSpaceOnUse"><stop stop-color="#6D6AFE"/><stop offset="1" stop-color="#3FB0F7"/></linearGradient><linearGradient id="paint6_linear_963_3951" x1="179.606" y1="170.873" x2="187.84" y2="160.851" gradientUnits="userSpaceOnUse"><stop stop-color="#6D6AFE"/><stop offset="1" stop-color="#3FB0F7"/></linearGradient><linearGradient id="paint7_linear_963_3951" x1="335.425" y1="131.616" x2="349.017" y2="102.108" gradientUnits="userSpaceOnUse"><stop stop-color="#6D6AFE"/><stop offset="1" stop-color="#3FB0F7"/></linearGradient><linearGradient id="paint8_linear_963_3951" x1="141.29" y1="342.046" x2="166.445" y2="260.855" gradientUnits="userSpaceOnUse"><stop stop-color="#965CF2"/><stop offset="1" stop-color="#FF8ADC"/></linearGradient><linearGradient id="paint9_linear_963_3951" x1="149.611" y1="316.644" x2="110.054" y2="269.378" gradientUnits="userSpaceOnUse"><stop stop-color="#FA5DB1"/><stop offset="1" stop-color="#FEBFBF"/></linearGradient><linearGradient id="paint10_linear_963_3951" x1="155.145" y1="343.386" x2="76.517" y2="284.223" gradientUnits="userSpaceOnUse"><stop stop-color="#FA5DB1"/><stop offset="1" stop-color="#FEBFBF"/></linearGradient><linearGradient id="paint11_linear_963_3951" x1="270.618" y1="426.016" x2="311.974" y2="338.799" gradientUnits="userSpaceOnUse"><stop stop-color="#965CF2"/><stop offset="1" stop-color="#FF8ADC"/></linearGradient><linearGradient id="paint12_linear_963_3951" x1="286.796" y1="371.467" x2="267.485" y2="408.526" gradientUnits="userSpaceOnUse"><stop stop-color="#6D6AFE"/><stop offset="1" stop-color="#3FB0F7"/></linearGradient><linearGradient id="paint13_linear_963_3951" x1="252.084" y1="369.586" x2="211.92" y2="443.369" gradientUnits="userSpaceOnUse"><stop stop-color="#3E4795"/><stop offset="1" stop-color="#273088"/></linearGradient><linearGradient id="paint14_linear_963_3951" x1="268.251" y1="379.925" x2="238.738" y2="453.676" gradientUnits="userSpaceOnUse"><stop stop-color="#3E4795"/><stop offset="1" stop-color="#273088"/></linearGradient><linearGradient id="paint15_linear_963_3951" x1="216.615" y1="326.765" x2="232.87" y2="316.224" gradientUnits="userSpaceOnUse"><stop stop-color="#965CF2"/><stop offset="1" stop-color="#FF8ADC"/></linearGradient><linearGradient id="paint16_linear_963_3951" x1="250.044" y1="316.305" x2="257.977" y2="365.053" gradientUnits="userSpaceOnUse"><stop stop-color="#FF66BC"/><stop offset=".56" stop-color="#FF8ADC"/><stop offset="1" stop-color="#FFBBA8"/></linearGradient><linearGradient id="paint17_linear_963_3951" x1="319.097" y1="265.004" x2="315.494" y2="259.717" gradientUnits="userSpaceOnUse"><stop stop-color="#FF8A78"/><stop offset="1" stop-color="#FFA799"/></linearGradient><linearGradient id="paint18_linear_963_3951" x1="271.185" y1="313.687" x2="307.566" y2="274.605" gradientUnits="userSpaceOnUse"><stop stop-color="#FF66BC"/><stop offset=".56" stop-color="#FF8ADC"/><stop offset="1" stop-color="#FFBBA8"/></linearGradient><linearGradient id="paint19_linear_963_3951" x1="250.367" y1="286.755" x2="253.549" y2="296.186" gradientUnits="userSpaceOnUse"><stop stop-color="#FF8A78"/><stop offset="1" stop-color="#FFA799"/></linearGradient><linearGradient id="paint20_linear_963_3951" x1="250.935" y1="262.758" x2="230.837" y2="324.95" gradientUnits="userSpaceOnUse"><stop stop-color="#5A2D68"/><stop offset="1" stop-color="#22043D"/></linearGradient><linearGradient id="paint21_linear_963_3951" x1="421.178" y1="496.189" x2="404.054" y2="515.038" gradientUnits="userSpaceOnUse"><stop stop-color="#EEBAE6"/><stop offset="1" stop-color="#C3A7EF"/></linearGradient><linearGradient id="paint22_linear_963_3951" x1="418.443" y1="489.628" x2="401.319" y2="508.477" gradientUnits="userSpaceOnUse"><stop stop-color="#1C8EF4"/><stop offset="1" stop-color="#00CFDD"/></linearGradient><linearGradient id="paint23_linear_963_3951" x1="97.333" y1="408.586" x2="92.505" y2="418.504" gradientUnits="userSpaceOnUse"><stop stop-color="#3964AF"/><stop offset="1" stop-color="#00BCCE"/></linearGradient><linearGradient id="paint24_linear_963_3951" x1="97.251" y1="408.115" x2="87.53" y2="430.909" gradientUnits="userSpaceOnUse"><stop stop-color="#1C8EF4"/><stop offset="1" stop-color="#00CFDD"/></linearGradient><linearGradient id="paint25_linear_963_3951" x1="108.683" y1="442.516" x2="94.457" y2="421.15" gradientUnits="userSpaceOnUse"><stop stop-color="#6D6AFE"/><stop offset="1" stop-color="#3FB0F7"/></linearGradient><linearGradient id="paint26_linear_963_3951" x1="441.88" y1="143.665" x2="454.564" y2="167.35" gradientUnits="userSpaceOnUse"><stop stop-color="#FA5DB1"/><stop offset="1" stop-color="#FEBFBF"/></linearGradient><linearGradient id="paint27_linear_963_3951" x1="439.376" y1="192.911" x2="447.933" y2="162.216" gradientUnits="userSpaceOnUse"><stop stop-color="#965CF2"/><stop offset="1" stop-color="#FF8ADC"/></linearGradient><linearGradient id="paint28_linear_963_3951" x1="416.384" y1="450.952" x2="436.646" y2="408.338" gradientUnits="userSpaceOnUse"><stop stop-color="#965CF2"/><stop offset="1" stop-color="#FF8ADC"/></linearGradient><linearGradient id="paint29_linear_963_3951" x1="418.051" y1="437.151" x2="424.421" y2="424.767" gradientUnits="userSpaceOnUse"><stop stop-color="#965CF2"/><stop offset="1" stop-color="#FF8ADC"/></linearGradient></defs></svg>