<svg width="200" height="241" fill="none" xmlns="http://www.w3.org/2000/svg"><path opacity=".3" d="M139.67 49.25a20.642 20.642 0 01-20.62-20.62V0H26.91A26.91 26.91 0 000 26.91v162.22a26.908 26.908 0 0026.91 26.91h110.6a26.91 26.91 0 0026.92-26.91V49.25h-24.76z" fill="#FF3E4C"/><path d="M164.43 49.25h-24.76a20.642 20.642 0 01-20.62-20.62V0l45.38 49.25zm19.51 121.36H58.9c-8.87 0-16.06 7.19-16.06 16.06v37.28c0 8.87 7.19 16.06 16.06 16.06h125.04c8.87 0 16.06-7.19 16.06-16.06v-37.28c0-8.87-7.19-16.06-16.06-16.06z" fill="#FF3E4C"/><path d="M86.8 213.38v7.27h-7.53v-7.27h7.53zm11.06-3.28v10.55h-7.27v-30.07h11.78c3.573 0 6.293.887 8.16 2.66a9.401 9.401 0 012.81 7.17 9.908 9.908 0 01-1.25 5 8.734 8.734 0 01-3.73 3.45 12.993 12.993 0 01-6 1.25l-4.5-.01zm8.08-9.69c0-2.667-1.46-4-4.38-4h-3.7v7.83h3.7c2.92.027 4.38-1.25 4.38-3.83zm18.25 9.69v10.55h-7.28v-30.07h11.78c3.58 0 6.303.887 8.17 2.66a9.401 9.401 0 012.81 7.17 9.819 9.819 0 01-1.26 5 8.658 8.658 0 01-3.72 3.45 12.993 12.993 0 01-6 1.25l-4.5-.01zm8.08-9.69c0-2.667-1.46-4-4.38-4h-3.7v7.83h3.7c2.92.027 4.38-1.25 4.38-3.83zm32.58-9.83v5.79h-8.17v24.28h-7.31v-24.28h-8.09v-5.79h23.57z" fill="#fff"/><path d="M74.69 83.73H31a3.75 3.75 0 01-3.75-3.74A3.75 3.75 0 0131 76.24h43.65a3.75 3.75 0 013.75 3.75 3.75 3.75 0 01-3.71 3.74zm0 22.37H31a3.75 3.75 0 01-3.75-3.74A3.752 3.752 0 0131 98.61h43.65a3.75 3.75 0 013.75 3.75 3.75 3.75 0 01-3.71 3.74zm0 22.37H31a3.75 3.75 0 01-3.75-3.75A3.749 3.749 0 0131 121h43.65a3.75 3.75 0 013.75 3.74 3.751 3.751 0 01-3.71 3.73zm0 22.37H31a3.75 3.75 0 01-3.75-3.75 3.749 3.749 0 013.75-3.74h43.65a3.75 3.75 0 013.75 3.74 3.751 3.751 0 01-3.71 3.75zM117.25 118V84.76a31.671 31.671 0 00-27.593 43.737 31.648 31.648 0 0029.253 19.543 31.65 31.65 0 0031.61-30l-33.27-.04z" fill="#FF3E4C"/><path d="M123.31 82.23v30h30a31.66 31.66 0 00-30-30z" fill="#FF3E4C"/></svg>