<svg width="201" height="241" fill="none" xmlns="http://www.w3.org/2000/svg"><path opacity=".3" d="M139.81 49.25a20.648 20.648 0 01-20.62-20.63V0H27.06A26.91 26.91 0 00.14 26.91v162.22a26.905 26.905 0 007.885 19.032 26.915 26.915 0 0019.035 7.878h110.6a26.907 26.907 0 0026.91-26.91V49.25h-24.76z" fill="#A140FF"/><path d="M164.57 49.25h-24.76a20.648 20.648 0 01-20.62-20.63V0l45.38 49.25zm19.52 121.36H59.05c-8.87 0-16.06 7.19-16.06 16.06v37.28c0 8.87 7.19 16.06 16.06 16.06h125.04c8.87 0 16.06-7.19 16.06-16.06v-37.28c0-8.87-7.19-16.06-16.06-16.06z" fill="#A140FF"/><path d="M82.05 213.38v7.27h-7.53v-7.27h7.53zm19.23 7.27l-6.51-11.36h-1.66v11.36h-7.27v-30.07h12.42a13.449 13.449 0 016 1.23 8.58 8.58 0 013.7 3.38 9.74 9.74 0 011.23 4.92 8.703 8.703 0 01-1.81 5.57 9.169 9.169 0 01-5.25 3.14l7.15 11.83h-8zm-8.17-16.33h4.51a4.517 4.517 0 003.19-1 3.705 3.705 0 001-2.83 3.771 3.771 0 00-1-2.81 4.38 4.38 0 00-3.17-1h-4.51l-.02 7.64zm38.41 10.84h-11.27l-1.88 5.49h-7.65l11-29.86h8.37l11 29.86h-7.74l-1.83-5.49zm-1.87-5.53l-3.75-11.06-3.78 11.06h7.53zm29.73 11.02l-6.51-11.36h-1.66v11.36h-7.27v-30.07h12.42a13.449 13.449 0 016 1.23 8.575 8.575 0 013.7 3.38 9.74 9.74 0 011.23 4.92 8.697 8.697 0 01-1.81 5.57 9.169 9.169 0 01-5.25 3.14l7.15 11.83h-8zm-8.17-16.33h4.51a4.537 4.537 0 003.19-1 3.705 3.705 0 001-2.83 3.771 3.771 0 00-1-2.81 4.38 4.38 0 00-3.17-1h-4.51l-.02 7.64z" fill="#fff"/><path d="M95.11 150.84H32.59a3.751 3.751 0 01-3.74-3.75 3.742 3.742 0 013.74-3.74h62.52a3.734 3.734 0 012.651 1.092 3.73 3.73 0 011.099 2.648 3.751 3.751 0 01-3.75 3.75zm0-22.09H32.59a3.751 3.751 0 01-3.74-3.75 3.75 3.75 0 013.74-3.74h62.52a3.75 3.75 0 013.75 3.74 3.751 3.751 0 01-3.75 3.75zm0-22.09H32.59a3.741 3.741 0 01-2.645-6.388 3.75 3.75 0 012.645-1.102h62.52a3.75 3.75 0 013.464 5.184 3.737 3.737 0 01-3.464 2.306zm0-22.09H32.59a3.74 3.74 0 110-7.48h62.52a3.741 3.741 0 011.434 7.198 3.74 3.74 0 01-1.434.282zm28.04 67.95a12.697 12.697 0 01-12.69-12.69v-12.69h25.37v12.69a12.702 12.702 0 01-12.68 12.69zm-6.2-18.89v6.2a6.213 6.213 0 006.2 6.2 6.21 6.21 0 006.2-6.2v-6.2h-12.4z" fill="#A140FF"/><path d="M110.46 127.15h12.72v-12.72h-12.72v12.72z" fill="#A140FF"/><path d="M123.14 114.44h12.72v-12.72h-12.72v12.72z" fill="#A140FF"/><path d="M110.46 101.73h12.72V89.01h-12.72v12.72z" fill="#A140FF"/><path d="M123.14 89.02h12.72V76.3h-12.72v12.72z" fill="#A140FF"/></svg>