<svg width="201" height="241" fill="none" xmlns="http://www.w3.org/2000/svg"><path opacity=".3" d="M140.24 49.25a20.652 20.652 0 01-20.62-20.63V0H27.48A26.91 26.91 0 00.57 26.91v162.22A26.91 26.91 0 0027.48 216h110.61A26.911 26.911 0 00165 189.13V49.25h-24.76z" fill="#5659E9"/><path d="M165 49.25h-24.76a20.652 20.652 0 01-20.62-20.63V0L165 49.25zm19.51 121.36H59.47c-8.87 0-16.06 7.19-16.06 16.06v37.28c0 8.87 7.19 16.06 16.06 16.06h125.04c8.87 0 16.06-7.19 16.06-16.06v-37.28c0-8.87-7.19-16.06-16.06-16.06z" fill="#5659E9"/><path d="M92.92 213.38v7.27h-7.53v-7.27h7.53zm11.31 1.4h13.27v5.87H96.15v-5.53l13.06-18.71H96.32v-5.83h21.1v5.53l-13.19 18.67zm25.01-24.2v30.07H122v-30.07h7.24zm12.29 19.52v10.55h-7.27v-30.07H146c3.57 0 6.3.88 8.17 2.66a9.41 9.41 0 012.81 7.16 9.859 9.859 0 01-1.26 5 8.763 8.763 0 01-3.72 3.45 13.21 13.21 0 01-6 1.25h-4.47zm8.08-9.7c0-2.633-1.46-3.967-4.38-4h-3.7v7.82h3.7c2.92.033 4.38-1.24 4.38-3.82z" fill="#fff"/><path d="M82.77 152.52a12.698 12.698 0 01-12.68-12.69v-12.69h25.37v12.69a12.699 12.699 0 01-12.69 12.69zm-6.19-18.89v6.2a6.201 6.201 0 006.19 6.2 6.208 6.208 0 006.2-6.2v-6.2H76.58z" fill="#5659E9"/><path d="M70.08 127.15H82.8v-12.72H70.08v12.72z" fill="#5659E9"/><path d="M82.77 114.44h12.72v-12.72H82.77v12.72z" fill="#5659E9"/><path d="M70.08 101.73H82.8V89.01H70.08v12.72z" fill="#5659E9"/><path d="M82.77 89.02h12.72V76.3H82.77v12.72z" fill="#5659E9"/></svg>