<svg width="201" height="241" fill="none" xmlns="http://www.w3.org/2000/svg"><path opacity=".3" d="M140.1 49.25a20.637 20.637 0 01-20.62-20.63V0H27.34A26.91 26.91 0 00.43 26.91v162.22a26.908 26.908 0 0026.91 26.91h110.6a26.909 26.909 0 0026.91-26.91V49.25H140.1z" fill="#5B5B5B"/><path d="M164.85 49.25H140.1a20.637 20.637 0 01-20.62-20.63V0l45.37 49.25zm19.52 121.36H59.33c-8.87 0-16.06 7.19-16.06 16.06v37.28c0 8.87 7.19 16.06 16.06 16.06h125.04c8.87 0 16.06-7.19 16.06-16.06v-37.28c0-8.87-7.19-16.06-16.06-16.06z" fill="#5B5B5B"/><path d="M84.12 213.38v7.27h-7.53v-7.27h7.53zm11.06-3.28v10.55H87.9v-30.07h11.79c3.57 0 6.29.88 8.16 2.66a9.41 9.41 0 012.81 7.16 10.009 10.009 0 01-1.25 5 8.746 8.746 0 01-3.73 3.45 13.168 13.168 0 01-6 1.25h-4.5zm8.08-9.7c0-2.633-1.46-3.967-4.38-4h-3.7v7.82h3.7c2.92.033 4.38-1.24 4.38-3.82zm31.37 16.17a8.61 8.61 0 01-3.58 3.19 12.634 12.634 0 01-5.72 1.19 13.492 13.492 0 01-8.33-2.47 8.921 8.921 0 01-3.58-6.89h7.75a4 4 0 001.21 2.68 3.734 3.734 0 002.66 1 3.103 3.103 0 002.21-.77 2.673 2.673 0 00.81-2 2.617 2.617 0 00-.75-1.91 5.91 5.91 0 00-1.85-1.26c-.74-.32-1.76-.71-3.06-1.17a37.711 37.711 0 01-4.66-1.89 8.602 8.602 0 01-3.1-2.72 7.842 7.842 0 01-1.3-4.7 7.905 7.905 0 011.36-4.64 8.73 8.73 0 013.76-3 13.836 13.836 0 015.51-1c2.862-.16 5.69.681 8 2.38a9.1 9.1 0 013.34 6.55h-7.87a4.002 4.002 0 00-1.09-2.36 3.189 3.189 0 00-2.36-.87 2.997 2.997 0 00-2.06.68 2.472 2.472 0 00-.79 2c-.011.671.24 1.32.7 1.81a5.448 5.448 0 001.77 1.21c.71.31 1.73.71 3.06 1.19a32.969 32.969 0 014.72 1.94 8.932 8.932 0 013.15 2.78 8 8 0 011.32 4.76 8.326 8.326 0 01-1.23 4.29zM165 213.4a13.214 13.214 0 01-5.45 5.33 17.28 17.28 0 01-8.35 1.92h-11.36v-30.07h11.36a17.593 17.593 0 018.37 1.87 13.077 13.077 0 015.43 5.27 15.868 15.868 0 011.89 7.83c.051 2.735-.6 5.438-1.89 7.85zm-7.83-1.51a8.335 8.335 0 002.36-6.34 8.337 8.337 0 00-2.36-6.34 9.188 9.188 0 00-6.61-2.25h-3.45v17.18h3.45a9.191 9.191 0 006.65-2.25h-.04z" fill="#fff"/><path d="M50.48 130.81s-6.51-13.83 1.92-27.33c0 0 2.49 7.26 4.54 6.79 0 0-2.61-10.41-.69-13.49 0 0 8.32-11.93 17.5-18.38 0 0 .3 7.09 2.46 7.67 0 0-.34-4.38 2.71-11 0 0 14.8-11.4 39.5-10.36 0 0-9.75 15.1-15.23 25.28a177.362 177.362 0 01-9.54 16s-7.26 4.24-12 3.84c0 0 4 3.14 8.34 1.59 0 0-11.05 20-32.49 22.52 0 0-4 8.23-4.8 15.44 0 0-4 2.42-5.88 2 0 0 10.37-39.83 45.72-68.69.05 0-20.33 5.39-42.06 48.12z" fill="#5B5B5B"/></svg>