<svg width="201" height="241" fill="none" xmlns="http://www.w3.org/2000/svg"><path opacity=".3" d="M140.1 49.25a20.642 20.642 0 01-20.62-20.62V0H27.34A26.91 26.91 0 00.43 26.91v162.22a26.908 26.908 0 0026.91 26.91h110.6a26.907 26.907 0 0026.91-26.91V49.25H140.1z" fill="#00C650"/><path d="M164.85 49.25H140.1a20.642 20.642 0 01-20.62-20.62V0l45.37 49.25zm19.52 121.36H59.33c-8.87 0-16.06 7.19-16.06 16.06v37.28c0 8.87 7.19 16.06 16.06 16.06h125.04c8.87 0 16.06-7.19 16.06-16.06v-37.28c0-8.87-7.19-16.06-16.06-16.06z" fill="#00C650"/><path d="M87.86 213.38v7.27h-7.53v-7.27h7.53zm22.03 7.27l-6.33-9.36-5.45 9.36h-8.33l9.61-15.48-9.91-14.59h8.63l6.17 9.06 5.32-9.06h8.29l-9.48 15.14 10.12 14.93h-8.64zm31.84-4.08a8.572 8.572 0 01-3.57 3.19 12.66 12.66 0 01-5.72 1.19 13.426 13.426 0 01-8.34-2.47 8.942 8.942 0 01-3.57-6.89h7.74a4.069 4.069 0 001.21 2.68 3.73 3.73 0 002.66 1 3.043 3.043 0 002.21-.77 2.659 2.659 0 00.81-2 2.62 2.62 0 00-.75-1.91 5.81 5.81 0 00-1.85-1.26c-.727-.32-1.747-.71-3.06-1.17a37.774 37.774 0 01-4.66-1.89 8.522 8.522 0 01-3.1-2.72 7.827 7.827 0 01-1.3-4.7 8 8 0 011.36-4.64 8.62 8.62 0 013.77-3 13.644 13.644 0 015.51-1 12.326 12.326 0 018 2.39 9.09 9.09 0 013.34 6.55h-7.87a4.004 4.004 0 00-1.08-2.36 3.187 3.187 0 00-2.36-.88 3.071 3.071 0 00-2.07.68 2.522 2.522 0 00-.78 2 2.541 2.541 0 00.7 1.81 5.26 5.26 0 001.76 1.21c.71.31 1.73.71 3.06 1.19a34.441 34.441 0 014.73 1.94 9.195 9.195 0 013.14 2.78 8 8 0 011.32 4.77 8.253 8.253 0 01-1.24 4.28zm12.53-1.49H164v5.57h-17v-30.07h7.28l-.02 24.5z" fill="#fff"/><path d="M119.32 150.84H46c-6.35 0-11.52-6.32-11.52-14.1V83.55c0-7.77 5.17-14.09 11.52-14.09h73.35c6.34 0 11.51 6.32 11.51 14.09v53.19c-.03 7.78-5.2 14.1-11.54 14.1zM46 76.66c-3.11 0-5.63 3.09-5.63 6.89v53.19c0 3.8 2.52 6.89 5.63 6.89h73.35c3.1 0 5.62-3.09 5.62-6.89V83.55c0-3.8-2.52-6.89-5.62-6.89H46z" fill="#00C650"/><path d="M127.89 118.81H37.4v7.21h90.49v-7.21zm0-24.72H37.4v7.21h90.49v-7.21z" fill="#00C650"/><path d="M104.71 73.06H97.5v74.17h7.21V73.06zm-36.93 0h-7.21v74.17h7.21V73.06z" fill="#00C650"/></svg>