<svg width="201" height="240" fill="none" xmlns="http://www.w3.org/2000/svg"><path opacity=".3" d="M139.81 49.24a20.641 20.641 0 01-20.62-20.62V0H27.06A26.91 26.91 0 00.14 26.91v162.22A26.91 26.91 0 0027.06 216h110.6a26.907 26.907 0 0026.91-26.91V49.24h-24.76z" fill="#FF9908"/><path d="M164.57 49.24h-24.76a20.641 20.641 0 01-20.62-20.62V0l45.38 49.24zm19.52 121.36H59.05c-8.87 0-16.06 7.19-16.06 16.06v37.28c0 8.87 7.19 16.06 16.06 16.06h125.04c8.87 0 16.06-7.19 16.06-16.06v-37.28c0-8.87-7.19-16.06-16.06-16.06z" fill="#FF9908"/><path d="M90.6 213.37v7.27h-7.53v-7.27h7.53zM117.78 193a11.74 11.74 0 014.55 7.49h-7.7a5.942 5.942 0 00-2.34-2.58 7.115 7.115 0 00-3.78-1 7.074 7.074 0 00-5.53 2.31 9.049 9.049 0 00-2.09 6.28c0 2.86.73 5.057 2.19 6.59a8.209 8.209 0 006.24 2.3 7.545 7.545 0 004.55-1.43 7.61 7.61 0 002.76-4.06h-9.19v-5.23h15.27V211a14.634 14.634 0 01-2.72 4.89 14.125 14.125 0 01-4.78 3.66 15.255 15.255 0 01-6.66 1.4 15.787 15.787 0 01-8-1.94 13.27 13.27 0 01-5.26-5.42 16.74 16.74 0 01-1.85-7.95 16.778 16.778 0 011.85-8 13.338 13.338 0 015.24-5.42 15.594 15.594 0 017.89-1.93c3.335-.164 6.629.79 9.36 2.71zm16.29-2.43v30.07h-7.27v-30.07h7.27zm24.63 0v5.79h-12.34V203h9.53v5.53h-9.53v12.16h-7.27v-30.07l19.61-.05z" fill="#fff"/><path d="M77.78 154.43a41.2 41.2 0 01-41.15-41.15 41.2 41.2 0 0141.15-41.15 41.2 41.2 0 0141.15 41.15 41.2 41.2 0 01-41.15 41.15zm0-75.09a34 34 0 00-33.94 33.94 34 34 0 0033.94 33.94 34.004 34.004 0 0023.982-9.958 34.003 34.003 0 009.958-23.982 34.002 34.002 0 00-33.94-33.94z" fill="#FF9908"/><path d="M77.78 136.34A28.544 28.544 0 0154 123.65l6-4a21.343 21.343 0 0017.76 9.49 21.324 21.324 0 0017.76-9.5l6 4a28.534 28.534 0 01-23.74 12.7zm-11.41-29.37a4.79 4.79 0 100-9.58 4.79 4.79 0 000 9.58zm22.82 0a4.79 4.79 0 100-9.58 4.79 4.79 0 000 9.58z" fill="#FF9908"/></svg>