<svg width="201" height="241" fill="none" xmlns="http://www.w3.org/2000/svg"><path opacity=".3" d="M140.24 49.25a20.642 20.642 0 01-20.62-20.62V0H27.48A26.91 26.91 0 00.57 26.91v162.22A26.91 26.91 0 0027.48 216h110.61A26.91 26.91 0 00165 189.13V49.25h-24.76z" fill="#FF3E4C"/><path d="M165 49.25h-24.76a20.642 20.642 0 01-20.62-20.62V0L165 49.25zm-33.83 101.59H27.93a3.75 3.75 0 01-3.75-3.75 3.749 3.749 0 013.75-3.74h103.24c.992 0 1.943.394 2.645 1.095a3.743 3.743 0 011.095 2.645 3.73 3.73 0 01-1.092 2.651 3.733 3.733 0 01-2.648 1.099zm0-42.24H27.93a3.75 3.75 0 01-3.75-3.74 3.753 3.753 0 013.75-3.75h103.24a3.737 3.737 0 013.458 2.316c.188.455.283.942.282 1.434 0 .992-.394 1.943-1.095 2.645a3.743 3.743 0 01-2.645 1.095zm0 21.12H27.93a3.75 3.75 0 01-3.75-3.75 3.749 3.749 0 013.75-3.74h103.24c.992 0 1.943.394 2.645 1.095a3.743 3.743 0 011.095 2.645 3.733 3.733 0 01-1.092 2.651 3.733 3.733 0 01-2.648 1.099zM90.45 87.48H27.93a3.75 3.75 0 01-3.75-3.74 3.75 3.75 0 013.75-3.75h62.52a3.75 3.75 0 013.74 3.75 3.75 3.75 0 01-3.74 3.74zm0-21.12H27.93a3.75 3.75 0 01-3.75-3.74 3.75 3.75 0 013.75-3.75h62.52a3.75 3.75 0 013.74 3.75 3.75 3.75 0 01-3.74 3.74zm94.06 104.25H59.47c-8.87 0-16.06 7.19-16.06 16.06v37.28c0 8.87 7.19 16.06 16.06 16.06h125.04c8.87 0 16.06-7.19 16.06-16.06v-37.28c0-8.87-7.19-16.06-16.06-16.06z" fill="#FF3E4C"/><path d="M84.43 213.38v7.27h-7.52v-7.27h7.52zm11.06-3.28v10.55h-7.27v-30.07H100c3.57 0 6.3.89 8.17 2.66a9.409 9.409 0 012.8 7.17 9.815 9.815 0 01-1.25 5 8.77 8.77 0 01-3.72 3.45 13.097 13.097 0 01-6 1.25l-4.51-.01zm8.08-9.69c0-2.667-1.46-4-4.38-4h-3.7v7.83h3.7c2.92.027 4.38-1.25 4.38-3.83zm36.13 12.99a13.268 13.268 0 01-5.44 5.34 17.435 17.435 0 01-8.36 1.91h-11.35v-30.07h11.35a17.721 17.721 0 018.38 1.87 13 13 0 015.42 5.28 15.722 15.722 0 011.9 7.82c.054 2.737-.6 5.441-1.9 7.85zm-7.82-1.51a8.357 8.357 0 002.36-6.34 8.348 8.348 0 00-2.36-6.33 9.172 9.172 0 00-6.61-2.26h-3.45v17.18h3.45a9.212 9.212 0 006.61-2.25zm33.45-21.31v5.79H153v6.59h9.52v5.53H153v12.16h-7.28v-30.07h19.61z" fill="#fff"/><path d="M129.34 58.87h-17.68a5.58 5.58 0 00-5.58 5.58v17.68a5.58 5.58 0 005.58 5.58h17.68a5.58 5.58 0 005.58-5.58V64.45a5.58 5.58 0 00-5.58-5.58z" fill="#FF3E4C"/></svg>