<svg width="201" height="241" fill="none" xmlns="http://www.w3.org/2000/svg"><path opacity=".3" d="M140.53 49.25a20.649 20.649 0 01-20.63-20.62V0H27.77A26.91 26.91 0 00.86 26.91v162.22a26.908 26.908 0 0026.91 26.91h110.6a26.907 26.907 0 0026.91-26.91V49.25h-24.75z" fill="#0072FF"/><path d="M165.28 49.25h-24.75a20.649 20.649 0 01-20.63-20.62V0l45.38 49.25zm-33.82 34.48H28.21a3.75 3.75 0 01-3.74-3.74 3.75 3.75 0 013.74-3.75h103.25a3.749 3.749 0 013.74 3.75 3.752 3.752 0 01-3.74 3.74zm0 22.37H28.21a3.75 3.75 0 01-3.74-3.74 3.75 3.75 0 013.74-3.75h103.25a3.75 3.75 0 013.74 3.75 3.752 3.752 0 01-3.74 3.74zm0 22.37H28.21a3.752 3.752 0 01-3.74-3.75 3.75 3.75 0 013.74-3.74h103.25a3.756 3.756 0 012.642 1.098 3.756 3.756 0 011.098 2.642 3.75 3.75 0 01-3.74 3.75zm0 22.36H28.21a3.741 3.741 0 01-2.645-6.388 3.752 3.752 0 012.645-1.102h103.25a3.75 3.75 0 013.74 3.75 3.74 3.74 0 01-3.74 3.74zm53.34 19.78H59.76c-8.87 0-16.06 7.19-16.06 16.06v37.28c0 8.87 7.19 16.06 16.06 16.06H184.8c8.87 0 16.06-7.19 16.06-16.06v-37.28c0-8.87-7.19-16.06-16.06-16.06z" fill="#0072FF"/><path d="M86.42 213.38v7.27h-7.53v-7.27h7.53zm25.39-22.8v5.79h-8.17v24.28h-7.31v-24.28h-8.09v-5.79h23.57zm21.31 30.07l-6.34-9.36-5.45 9.36H113l9.61-15.48-9.91-14.59h8.63l6.17 9.06 5.32-9.06h8.29l-9.48 15.14 10.12 14.93h-8.63zm33.04-30.07v5.79H158v24.28h-7.32v-24.28h-8.08v-5.79h23.56z" fill="#fff"/></svg>