<svg width="540" height="500" fill="none" xmlns="http://www.w3.org/2000/svg"><path opacity=".5" fill-rule="evenodd" clip-rule="evenodd" d="M482.991 38.125H0v401.133h482.991c21.926 0 39.867-17.942 39.867-39.868V77.993c0-21.926-17.941-39.868-39.867-39.868z" fill="url(#paint0_linear_2162_23644)"/><path opacity=".5" d="M534.004 61.343h-38.6a3.66 3.66 0 00-3.66 3.66V94.54a3.66 3.66 0 003.66 3.66h38.6a3.66 3.66 0 003.66-3.66V65.002a3.66 3.66 0 00-3.66-3.66z" fill="url(#paint1_linear_2162_23644)"/><path opacity=".5" d="M528.499 402.859h-52.938a5.022 5.022 0 00-5.022 5.022v40.51a5.022 5.022 0 005.022 5.022h52.938a5.022 5.022 0 005.022-5.022v-40.51a5.022 5.022 0 00-5.022-5.022z" fill="url(#paint2_linear_2162_23644)"/><path opacity=".5" d="M116.126 15.962h-70.46a6.686 6.686 0 00-6.685 6.686v53.92a6.685 6.685 0 006.685 6.685h70.46a6.685 6.685 0 006.685-6.686v-53.92a6.685 6.685 0 00-6.685-6.685z" fill="url(#paint3_linear_2162_23644)"/><path fill-rule="evenodd" clip-rule="evenodd" d="M522.89 186.973a24.932 24.932 0 00-7.778-1.251v3.667c2.305.008 4.451.357 6.646 1.07l1.132-3.486zm-36.247 134.091v-3.667h7.335v3.667h-7.335zm18.337 0v-3.667h7.335v3.667h-7.335zm18.338 0v-3.667c2.353 0 4.317.047 6.543-.792l1.362 3.406c-2.574 1.045-5.172 1.061-7.905 1.061v-.008zm15.542-10.598c.625-2.496.879-5.046 1.013-7.613l-3.659-.182c-.127 2.329-.341 4.634-.911 6.907l3.557.896v-.008zm1.14-18.702h-3.667v-7.336H540v7.336zm0-18.338h-3.667v-7.335H540v7.335zm0-18.338h-3.667v-7.335H540v7.335zm0-18.338h-3.667v-7.335H540v7.335zm0-18.337h-3.667v-7.335H540v7.335zm-2.566-18.79a24.963 24.963 0 00-4.563-6.424l-2.606 2.575a21.71 21.71 0 013.897 5.481l3.28-1.639-.008.007z" fill="url(#paint4_linear_2162_23644)"/><path fill-rule="evenodd" clip-rule="evenodd" d="M158.132 105.702h3.667v7.335h-3.667v-7.335zm278.369 51.123h-3.668v-7.335h3.668v7.335zm0-18.337h-3.668v-7.335h3.668v7.335zm0-18.338h-3.668v-7.335h3.668v7.335zm0-18.338h-3.668v-7.335h3.668v7.335zm0-18.337h-3.668V76.14h3.668v7.335zm-.777-18.734c-.649-2.559-1.734-4.998-3.152-7.224l-3.082 1.98c1.204 1.901 2.131 3.976 2.686 6.163l3.548-.92zm-11.636-15.367a24.857 24.857 0 00-7.359-2.844l-.744 3.588a21.179 21.179 0 016.265 2.424l1.838-3.176v.008zm-18.694-3.375v3.668h-7.335v-3.668h7.335zm-18.338 0v3.668h-7.335v-3.668h7.335zm-18.337 0v3.668h-7.336v-3.668h7.336zm-18.338 0v3.668h-7.335v-3.668h7.335zm-18.338 0v3.668h-7.335v-3.668h7.335zm-18.338 0v3.668h-7.335v-3.668h7.335zm-18.337 0v3.668h-7.335v-3.668h7.335zm-18.338 0v3.668h-7.335v-3.668h7.335zm-18.338 0v3.668h-7.335v-3.668h7.335zm-18.337 0v3.668h-7.336v-3.668h7.336zm-18.338 0v3.668h-7.335v-3.668h7.335zm-18.338 0v3.668h-7.335v-3.668h7.335zm-18.338 0v3.668c-2.4 0-4.546-.064-6.891.499l-.808-3.58c2.725-.61 4.895-.587 7.699-.587zm-18.242 5.783c-2.028 1.663-3.779 3.723-5.189 5.933l3.105 1.948c1.181-1.877 2.717-3.66 4.428-5.07l-2.352-2.811h.008zm-8.896 17.11c-.19 2.455-.079 5.045-.079 7.47h3.667c0-2.337-.118-4.833.072-7.193l-3.66-.285v.008zm-.079 18.472h3.667v7.335h-3.667v-7.335z" fill="#fff"/><path fill-rule="evenodd" clip-rule="evenodd" d="M376.711 253.971h112.046c2.773 0 5.046 2.4 5.046 5.315v110.747c0 2.915-2.281 5.315-5.046 5.315H376.711c-2.765 0-5.046-2.392-5.046-5.315V259.286c0-2.923 2.273-5.315 5.046-5.315z" fill="url(#paint5_linear_2162_23644)"/><path fill-rule="evenodd" clip-rule="evenodd" d="M432.738 259.745c9.514 0 17.221 7.707 17.221 17.221 0 9.513-7.707 17.221-17.221 17.221-9.513 0-17.22-7.708-17.22-17.221 0-9.514 7.707-17.221 17.22-17.221zm0 3.961c-7.319 0-13.26 5.933-13.26 13.26s5.933 13.26 13.26 13.26c7.328 0 13.261-5.933 13.261-13.26s-5.933-13.26-13.261-13.26z" fill="#fff"/><path fill-rule="evenodd" clip-rule="evenodd" d="M432.738 266.502a5.98 5.98 0 110 11.961 5.98 5.98 0 110-11.961zm4.626 12.207c2.574.546 4.531 2.843 4.531 5.576v.079c-2.163 2.662-5.458 4.373-9.157 4.373a11.749 11.749 0 01-9.157-4.373v-.079c0-2.733 1.949-5.03 4.531-5.576a6.983 6.983 0 004.626 1.742c1.774 0 3.39-.657 4.626-1.742zm-53.175 21.957h97.091c3.549 0 6.448 2.725 6.448 6.044v5.537c0 3.319-2.907 6.044-6.448 6.044h-97.091c-3.541 0-6.448-2.717-6.448-6.044v-5.537c0-3.327 2.899-6.044 6.448-6.044z" fill="#fff"/><path fill-rule="evenodd" clip-rule="evenodd" d="M478.381 301.784c4.254 0 7.7 3.446 7.7 7.7a7.698 7.698 0 01-7.7 7.699 7.697 7.697 0 01-7.699-7.699c0-4.254 3.445-7.7 7.699-7.7z" fill="url(#paint6_linear_2162_23644)"/><path fill-rule="evenodd" clip-rule="evenodd" d="M474.587 305.104l5.086 5.022 3.089-3.319h.935l-4.737 7.057-5.894-8.76h1.521z" fill="#fff"/><path fill-rule="evenodd" clip-rule="evenodd" d="M384.886 313.919l-1.909-1.497a34.762 34.762 0 011.901-1.973c.262-.253.428-.412.491-.483-.205-.032-.815-.174-1.806-.412a18.774 18.774 0 01-1.417-.388l.768-2.234c1.093.444 2.075.943 2.939 1.482-.206-1.379-.301-2.504-.301-3.375h2.233c0 .618-.11 1.759-.34 3.406.166-.063.531-.23 1.085-.491a35.57 35.57 0 012.099-.887l.666 2.289a56.99 56.99 0 01-3.24.626l1.513 1.727c.301.348.538.633.721.855l-1.933 1.283-1.687-2.851a52.176 52.176 0 01-1.767 2.931l-.016-.008zm12.341 0l-1.909-1.497a34.762 34.762 0 011.901-1.973c.262-.253.428-.412.491-.483-.206-.032-.816-.174-1.806-.412a18.846 18.846 0 01-1.418-.388l.769-2.234c1.093.444 2.075.943 2.938 1.482-.205-1.379-.301-2.504-.301-3.375h2.234c0 .618-.111 1.759-.34 3.406.166-.063.53-.23 1.085-.491.76-.348 1.457-.642 2.099-.887l.665 2.289a56.94 56.94 0 01-3.239.626l1.513 1.727c.301.348.538.633.72.855l-1.932 1.283-1.688-2.851a58.121 58.121 0 01-1.766 2.931l-.016-.008zm12.333 0l-1.909-1.497a34.762 34.762 0 011.901-1.973c.262-.253.428-.412.491-.483-.206-.032-.816-.174-1.806-.412a18.846 18.846 0 01-1.418-.388l.769-2.234c1.093.444 2.075.943 2.938 1.482-.205-1.379-.301-2.504-.301-3.375h2.234c0 .618-.111 1.759-.34 3.406.166-.063.53-.23 1.085-.491.76-.348 1.457-.642 2.099-.887l.665 2.289a56.94 56.94 0 01-3.239.626l1.513 1.727c.301.348.538.633.72.855l-1.932 1.283-1.688-2.851a52.732 52.732 0 01-1.766 2.931l-.016-.008zm12.334 0l-1.909-1.497a34.762 34.762 0 011.901-1.973c.262-.253.428-.412.491-.483-.206-.032-.816-.174-1.806-.412a18.846 18.846 0 01-1.418-.388l.769-2.234c1.093.444 2.075.943 2.938 1.482-.205-1.379-.301-2.504-.301-3.375h2.234c0 .618-.111 1.759-.34 3.406.166-.063.53-.23 1.085-.491.76-.348 1.457-.642 2.099-.887l.665 2.289a56.94 56.94 0 01-3.239.626l1.513 1.727c.301.348.538.633.72.855l-1.932 1.283-1.688-2.851a58.121 58.121 0 01-1.766 2.931l-.016-.008zm12.342 0l-1.909-1.497a34.418 34.418 0 011.901-1.973c.261-.253.428-.412.491-.483-.206-.032-.816-.174-1.806-.412a18.846 18.846 0 01-1.418-.388l.769-2.234c1.093.444 2.075.943 2.938 1.482-.206-1.379-.301-2.504-.301-3.375h2.234c0 .618-.111 1.759-.341 3.406.167-.063.531-.23 1.086-.491.76-.348 1.457-.642 2.099-.887l.665 2.289c-.934.214-2.012.42-3.24.626l1.513 1.727c.301.348.539.633.721.855l-1.933 1.283-1.687-2.851a52.732 52.732 0 01-1.766 2.931l-.016-.008zm12.333 0l-1.909-1.497a34.762 34.762 0 011.901-1.973c.261-.253.428-.412.491-.483-.206-.032-.816-.174-1.806-.412a18.846 18.846 0 01-1.418-.388l.769-2.234c1.093.444 2.075.943 2.938 1.482-.206-1.379-.301-2.504-.301-3.375h2.234c0 .618-.111 1.759-.341 3.406.167-.063.531-.23 1.086-.491.76-.348 1.457-.642 2.099-.887l.665 2.289a56.99 56.99 0 01-3.24.626l1.513 1.727c.301.348.539.633.721.855l-1.933 1.283-1.687-2.851a58.121 58.121 0 01-1.766 2.931l-.016-.008z" fill="#48A1F6"/><path fill-rule="evenodd" clip-rule="evenodd" d="M384.189 327.29h97.091c3.549 0 6.448 2.725 6.448 6.044v5.537c0 3.319-2.907 6.044-6.448 6.044h-97.091c-3.541 0-6.448-2.717-6.448-6.044v-5.537c0-3.327 2.899-6.044 6.448-6.044z" fill="#fff"/><path fill-rule="evenodd" clip-rule="evenodd" d="M478.381 328.407c4.254 0 7.7 3.446 7.7 7.7a7.698 7.698 0 01-7.7 7.699 7.697 7.697 0 01-7.699-7.699c0-4.254 3.445-7.7 7.699-7.7z" fill="url(#paint7_linear_2162_23644)"/><path fill-rule="evenodd" clip-rule="evenodd" d="M474.587 331.719l5.086 5.03 3.089-3.319h.935l-4.737 7.05-5.894-8.761h1.521z" fill="#fff"/><path fill-rule="evenodd" clip-rule="evenodd" d="M384.886 340.542l-1.909-1.497a34.762 34.762 0 011.901-1.973c.262-.253.428-.412.491-.483-.205-.032-.815-.174-1.806-.412a18.774 18.774 0 01-1.417-.388l.768-2.234c1.093.444 2.075.943 2.939 1.482-.206-1.379-.301-2.504-.301-3.375h2.233c0 .618-.11 1.759-.34 3.406.166-.063.531-.229 1.085-.491.76-.348 1.458-.641 2.099-.887l.666 2.289a56.99 56.99 0 01-3.24.626l1.513 1.727c.301.348.538.634.721.855l-1.933 1.284-1.687-2.852a52.176 52.176 0 01-1.767 2.931l-.016-.008zm12.341 0l-1.909-1.497a34.762 34.762 0 011.901-1.973c.262-.253.428-.412.491-.483-.206-.032-.816-.174-1.806-.412a18.846 18.846 0 01-1.418-.388l.769-2.234c1.093.444 2.075.943 2.938 1.482-.205-1.379-.301-2.504-.301-3.375h2.234c0 .618-.111 1.759-.34 3.406.166-.063.53-.229 1.085-.491.76-.348 1.457-.641 2.099-.887l.665 2.289a56.94 56.94 0 01-3.239.626l1.513 1.727c.301.348.538.634.72.855l-1.932 1.284-1.688-2.852a58.121 58.121 0 01-1.766 2.931l-.016-.008zm12.333 0l-1.909-1.497a34.762 34.762 0 011.901-1.973c.262-.253.428-.412.491-.483-.206-.032-.816-.174-1.806-.412a18.846 18.846 0 01-1.418-.388l.769-2.234c1.093.444 2.075.943 2.938 1.482-.205-1.379-.301-2.504-.301-3.375h2.234c0 .618-.111 1.759-.34 3.406.166-.063.53-.229 1.085-.491.76-.348 1.457-.641 2.099-.887l.665 2.289a56.94 56.94 0 01-3.239.626l1.513 1.727c.301.348.538.634.72.855l-1.932 1.284-1.688-2.852a52.732 52.732 0 01-1.766 2.931l-.016-.008zm12.334 0l-1.909-1.497a34.762 34.762 0 011.901-1.973c.262-.253.428-.412.491-.483-.206-.032-.816-.174-1.806-.412a18.846 18.846 0 01-1.418-.388l.769-2.234c1.093.444 2.075.943 2.938 1.482-.205-1.379-.301-2.504-.301-3.375h2.234c0 .618-.111 1.759-.34 3.406.166-.063.53-.229 1.085-.491.76-.348 1.457-.641 2.099-.887l.665 2.289a56.94 56.94 0 01-3.239.626l1.513 1.727c.301.348.538.634.72.855l-1.932 1.284-1.688-2.852a58.121 58.121 0 01-1.766 2.931l-.016-.008zm12.342 0l-1.909-1.497a34.418 34.418 0 011.901-1.973c.261-.253.428-.412.491-.483-.206-.032-.816-.174-1.806-.412a18.846 18.846 0 01-1.418-.388l.769-2.234c1.093.444 2.075.943 2.938 1.482-.206-1.379-.301-2.504-.301-3.375h2.234c0 .618-.111 1.759-.341 3.406.167-.063.531-.229 1.086-.491.76-.348 1.457-.641 2.099-.887l.665 2.289c-.934.214-2.012.42-3.24.626l1.513 1.727c.301.348.539.634.721.855l-1.933 1.284-1.687-2.852a52.732 52.732 0 01-1.766 2.931l-.016-.008zm12.333 0l-1.909-1.497a34.762 34.762 0 011.901-1.973c.261-.253.428-.412.491-.483-.206-.032-.816-.174-1.806-.412a18.846 18.846 0 01-1.418-.388l.769-2.234c1.093.444 2.075.943 2.938 1.482-.206-1.379-.301-2.504-.301-3.375h2.234c0 .618-.111 1.759-.341 3.406.167-.063.531-.229 1.086-.491.76-.348 1.457-.641 2.099-.887l.665 2.289a56.99 56.99 0 01-3.24.626l1.513 1.727c.301.348.539.634.721.855l-1.933 1.284-1.687-2.852a58.121 58.121 0 01-1.766 2.931l-.016-.008z" fill="#48A1F6"/><path fill-rule="evenodd" clip-rule="evenodd" d="M405.664 354.072h54.149c3.549 0 6.448 2.733 6.448 6.044v5.537c0 3.311-2.915 6.044-6.448 6.044h-54.149c-3.533 0-6.448-2.717-6.448-6.044v-5.537c0-3.327 2.899-6.044 6.448-6.044z" fill="url(#paint8_linear_2162_23644)"/><path style="mix-blend-mode:multiply" opacity=".5" fill-rule="evenodd" clip-rule="evenodd" d="M376.711 253.971h49.072V375.34h-49.072c-2.765 0-5.046-2.392-5.046-5.315V259.278c0-2.923 2.273-5.315 5.046-5.315v.008z" fill="url(#paint9_linear_2162_23644)"/><path d="M384.07 76.963H200.788c-12.989 0-23.518 10.53-23.518 23.518v363.126c0 12.989 10.529 23.519 23.518 23.519H384.07c12.989 0 23.518-10.53 23.518-23.519V100.481c0-12.989-10.529-23.518-23.518-23.518z" fill="#D0E7FF"/><path d="M382.28 79.292H202.578c-12.73 0-23.051 10.32-23.051 23.051v359.395c0 12.731 10.321 23.051 23.051 23.051H382.28c12.73 0 23.051-10.32 23.051-23.051V102.343c0-12.73-10.321-23.051-23.051-23.051z" fill="url(#paint10_linear_2162_23644)"/><path d="M260.483 95.69h63.893c.95 0 1.726.776 1.726 1.726v2.987a1.73 1.73 0 01-1.726 1.726h-63.893a1.73 1.73 0 01-1.727-1.726v-2.987c0-.95.776-1.727 1.727-1.727z" fill="#485AF4"/><path fill-rule="evenodd" clip-rule="evenodd" d="M386.383 94.92a3.996 3.996 0 013.992 3.993 3.996 3.996 0 01-3.992 3.993 3.996 3.996 0 01-3.992-3.993 3.996 3.996 0 013.992-3.992z" fill="#485AF4"/><path fill-rule="evenodd" clip-rule="evenodd" d="M177.437 217.834h123.864c9.859 0 17.926 6.144 17.926 13.652v125.576c0 7.509-8.067 13.652-17.926 13.652H177.437v-152.88z" fill="url(#paint11_linear_2162_23644)" opacity=".5"/><path d="M295.246 207.537H170.52c-7.555 0-13.679 6.125-13.679 13.68v125.818c0 7.555 6.124 13.679 13.679 13.679h124.726c7.555 0 13.679-6.124 13.679-13.679V221.217c0-7.555-6.124-13.68-13.679-13.68z" fill="url(#paint12_linear_2162_23644)"/><path fill-rule="evenodd" clip-rule="evenodd" d="M308.925 319.143v27.901c0 7.524-6.155 13.679-13.679 13.679H170.52c-7.523 0-13.679-6.155-13.679-13.679v-27.901h152.084z" fill="#fff"/><path d="M192.049 247.416H165.24v71.042h26.809v-71.042z" fill="#F786DC"/><path d="M169.887 342.714H281.3c1.042 0 1.893.851 1.893 1.893v3.278a1.898 1.898 0 01-1.893 1.894H169.887a1.898 1.898 0 01-1.894-1.894v-3.278c0-1.042.851-1.893 1.894-1.893zm0-14.105h49.379c1.043 0 1.894.851 1.894 1.894v3.278a1.897 1.897 0 01-1.894 1.893h-49.379a1.897 1.897 0 01-1.894-1.893v-3.278c0-1.043.851-1.894 1.894-1.894z" fill="#FDE1F6"/><path d="M227.24 220.624h-26.808v97.834h26.808v-97.834zm35.2 24.981h-26.808v72.852h26.808v-72.852zm35.192 19.528h-26.809v53.325h26.809v-53.325z" fill="#F786DC"/><path fill-rule="evenodd" clip-rule="evenodd" d="M163.489 277.47c-1.318-.576-1.977-2.236-1.46-3.712.517-1.476 2.01-2.202 3.328-1.627l25.849 13.938 13.755 7.891 17.725-18.409c9.267-6.94 18.092-10.218 27.367-17.141l25.541 24.265 24.94-9.142c1.351-.492 2.803.333 3.236 1.835.443 1.501-.3 3.119-1.651 3.611l-28.235 10.344-24.823-23.297-23.014 13.888-20.143 21.311-17.008-10.009-25.424-13.755.017.009z" fill="#1C8DF3" opacity=".5"/><path fill-rule="evenodd" clip-rule="evenodd" d="M163.489 274.575a2.574 2.574 0 01-1.46-3.328 2.574 2.574 0 013.328-1.46l28.01 10.969 11.594 6.773 18.067-19.46c9.267-6.222 18.542-12.42 27.818-18.626l24.748 29.795 24.94-8.191a2.561 2.561 0 013.236 1.652 2.561 2.561 0 01-1.651 3.236l-28.235 9.275-24.031-28.927-23.464 15.707-20.485 22.054-14.848-8.667-27.584-10.802h.017zm128.94-160.96c15.161 0 27.447 12.286 27.447 27.447 0 15.162-12.286 27.448-27.447 27.448-15.162 0-27.448-12.286-27.448-27.448 0-15.161 12.286-27.447 27.448-27.447zm0 6.321c-11.668 0-21.134 9.458-21.134 21.134s9.458 21.134 21.134 21.134 21.134-9.458 21.134-21.134-9.458-21.134-21.134-21.134z" fill="#fff"/><path fill-rule="evenodd" clip-rule="evenodd" d="M292.429 124.396a9.537 9.537 0 019.537 9.537 9.537 9.537 0 01-9.537 9.537 9.537 9.537 0 01-9.537-9.537 9.536 9.536 0 019.537-9.537zm7.375 19.454c4.111.864 7.216 4.531 7.216 8.888v.127a18.734 18.734 0 01-14.591 6.962 18.732 18.732 0 01-14.591-6.962v-.127c0-4.357 3.105-8.024 7.216-8.888a11.148 11.148 0 007.375 2.773c2.828 0 5.402-1.046 7.375-2.773zm-27.559 33.112h40.359c.959 0 1.735.911 1.735 2.02v3.493c0 1.109-.784 2.02-1.735 2.02h-40.359c-.958 0-1.734-.911-1.734-2.02v-3.493c0-1.109.784-2.02 1.734-2.02z" fill="#fff"/><path fill-rule="evenodd" clip-rule="evenodd" d="M319.631 25.435a18.436 18.436 0 017.786-1.719c11.027 0 19.962 9.743 19.962 21.76 0 12.017-8.492 21.76-19.962 21.76h-69.968c-11.47 0-19.962-9.252-19.962-21.76 0-12.508 8.935-21.76 19.962-21.76 2.764 0 5.394.61 7.786 1.72C266.178 11.231 277.997 0 292.437 0c14.441 0 26.259 11.232 27.202 25.435h-.008z" fill="url(#paint13_linear_2162_23644)"/><path fill-rule="evenodd" clip-rule="evenodd" d="M285.49 37.633v21.998h-8.793V37.633h-7.968l12.365-19.17 12.365 19.17h-7.969z" fill="#fff"/><path fill-rule="evenodd" clip-rule="evenodd" d="M299.36 40.461V18.464h8.801V40.46h7.969l-12.365 19.17-12.366-19.17h7.961z" fill="#fff"/><path style="mix-blend-mode:multiply" opacity=".5" fill-rule="evenodd" clip-rule="evenodd" d="M177.263 102.24h61.279c5.727 0 10.408 4.69 10.408 10.409v80.044c0 5.719-4.689 10.409-10.408 10.409h-61.279V102.24z" fill="url(#paint14_linear_2162_23644)"/><path d="M156.215 102.24h71.87c5.085 0 9.22 4.135 9.22 9.221v70.903c0 5.085-4.135 9.22-9.22 9.22h-71.87c-5.085 0-9.22-4.135-9.22-9.22v-70.903c0-5.086 4.135-9.221 9.22-9.221z" fill="url(#paint15_linear_2162_23644)"/><path fill-rule="evenodd" clip-rule="evenodd" d="M223.642 129.188c3.43 23.423-16.452 49.468-31.495 56.328-15.042-6.86-34.925-32.905-31.495-56.328 9.799-3.351 24.35-13.03 31.519-20.88 6.384 7.541 22.425 17.783 31.471 20.88z" fill="#fff"/><path fill-rule="evenodd" clip-rule="evenodd" d="M219.991 131.249c3.034 20.698-14.544 43.717-27.836 49.785-13.291-6.068-30.869-29.087-27.835-49.785 8.658-2.963 21.522-11.518 27.859-18.457 5.648 6.662 19.819 15.724 27.82 18.457h-.008z" fill="url(#paint16_linear_2162_23644)"/><path fill-rule="evenodd" clip-rule="evenodd" d="M181.478 134.591l14.298 14.139 8.697-9.339h2.63l-13.339 19.843-16.564-24.643h4.278z" fill="#fff"/><path style="mix-blend-mode:multiply" opacity=".5" fill-rule="evenodd" clip-rule="evenodd" d="M177.437 384.181h140.327c4.728 0 8.592 3.836 8.592 8.531v66.902c0 4.688-3.864 8.532-8.592 8.532H177.437v-83.965z" fill="url(#paint17_linear_2162_23644)"/><path style="mix-blend-mode:multiply" opacity=".5" fill-rule="evenodd" clip-rule="evenodd" d="M349.897 149.387h57.691v104.22h-57.691c-11.216 0-20.413-9.807-20.413-21.792V171.17c0-11.985 9.189-21.791 20.413-21.791v.008z" fill="url(#paint18_linear_2162_23644)"/><path fill-rule="evenodd" clip-rule="evenodd" d="M525.448 168.604v53.477c0 10.559-8.658 19.217-19.217 19.217h-146.06c-10.559 0-19.217-8.65-19.217-19.217v-53.477h184.494z" fill="#fff"/><path fill-rule="evenodd" clip-rule="evenodd" d="M360.171 149.388h146.06c10.567 0 19.217 8.65 19.217 19.217v6.257H340.954v-6.257c0-10.567 8.65-19.217 19.217-19.217z" fill="url(#paint19_linear_2162_23644)"/><path opacity=".2" fill-rule="evenodd" clip-rule="evenodd" d="M411.881 187.71h76.67c1.917 0 3.485 1.703 3.485 3.77v8.413c0 2.067-1.568 3.77-3.485 3.77h-76.67c-1.909 0-3.485-1.695-3.485-3.77v-8.413c0-2.075 1.568-3.77 3.485-3.77z" fill="#3FAFF6"/><path opacity=".2" d="M410.455 211.537h104.949c1.132 0 2.051.919 2.051 2.052v4.586a2.052 2.052 0 01-2.051 2.052H410.455a2.052 2.052 0 01-2.052-2.052v-4.586c0-1.133.919-2.052 2.052-2.052z" fill="#3FAFF6"/><path fill-rule="evenodd" clip-rule="evenodd" d="M359.15 158.688a5.165 5.165 0 11-.001 10.331 5.165 5.165 0 01.001-10.331zm17.799 0a5.166 5.166 0 015.165 5.164 5.166 5.166 0 11-5.165-5.164zm17.791 0a5.165 5.165 0 11-.001 10.331 5.165 5.165 0 01.001-10.331z" fill="#fff"/><path opacity=".2" fill-rule="evenodd" clip-rule="evenodd" d="M375.332 178.229c16.548 0 29.966 13.418 29.966 29.966 0 16.547-13.418 29.966-29.966 29.966-16.547 0-29.966-13.419-29.966-29.966 0-16.548 13.419-29.966 29.966-29.966z" fill="url(#paint20_linear_2162_23644)"/><path d="M375.475 225.772c9.629 0 17.434-7.806 17.434-17.435 0-9.629-7.805-17.435-17.434-17.435-9.629 0-17.435 7.806-17.435 17.435 0 9.629 7.806 17.435 17.435 17.435z" fill="url(#paint21_linear_2162_23644)"/><path fill-rule="evenodd" clip-rule="evenodd" d="M377.428 199.805l-.318-2.566h-3.287l-.318 2.566a9.336 9.336 0 00-2.745 1.05l-1.971-1.53-2.322 2.324 1.42 1.834a8.602 8.602 0 00-1.311 2.922l-2.199.28v3.288l2.199.28a8.414 8.414 0 001.311 2.922l-1.42 1.834 2.322 2.324 1.971-1.53a9.2 9.2 0 002.745 1.05l.318 2.566h3.287l.318-2.566a9.336 9.336 0 002.745-1.05l1.971 1.53 2.323-2.324-1.42-1.834a8.526 8.526 0 001.311-2.922l2.198-.28v-3.288l-2.198-.28a8.433 8.433 0 00-1.311-2.922l1.42-1.834-2.323-2.324-1.971 1.53a9.2 9.2 0 00-2.745-1.05zm-1.961 2.946a5.581 5.581 0 015.58 5.583 5.582 5.582 0 11-11.161 0 5.581 5.581 0 015.581-5.583z" fill="#fff"/><path fill-rule="evenodd" clip-rule="evenodd" d="M122.906 374.675h185.152c3.992 0 7.256 3.818 7.256 8.491v66.586c0 4.666-3.264 8.492-7.256 8.492H122.906c-3.992 0-7.256-3.818-7.256-8.492v-66.586c0-4.665 3.264-8.491 7.256-8.491z" fill="url(#paint22_linear_2162_23644)"/><path fill-rule="evenodd" clip-rule="evenodd" d="M160.072 396.245l-.752-6.076h-7.787l-.753 6.076a22.004 22.004 0 00-6.503 2.487l-4.673-3.62-5.506 5.505 3.367 4.349a20.18 20.18 0 00-3.105 6.923l-5.213.665v7.787l5.213.665a20.043 20.043 0 003.105 6.924l-3.367 4.348 5.506 5.506 4.673-3.62a22.032 22.032 0 006.503 2.487l.753 6.075h7.787l.752-6.075a22.021 22.021 0 006.503-2.487l4.674 3.62 5.505-5.506-3.366-4.348a20.212 20.212 0 003.105-6.924l5.212-.665v-7.787l-5.212-.665a20.049 20.049 0 00-3.105-6.923l3.366-4.349-5.505-5.505-4.674 3.62a21.994 21.994 0 00-6.503-2.487zm-4.65 6.978c7.304 0 13.229 5.925 13.229 13.229 0 7.303-5.925 13.228-13.229 13.228-7.303 0-13.228-5.925-13.228-13.228 0-7.304 5.925-13.229 13.228-13.229z" fill="#fff"/><path opacity=".5" fill-rule="evenodd" clip-rule="evenodd" d="M191.036 400.546h109.092c.934 0 1.703.943 1.703 2.091v9.561c0 1.149-.769 2.091-1.703 2.091H191.036c-.935 0-1.703-.942-1.703-2.091v-9.561c0-1.148.768-2.091 1.703-2.091z" fill="#fff"/><path opacity=".5" d="M285.489 423.494h-94.065a2.09 2.09 0 00-2.091 2.091v4.674a2.09 2.09 0 002.091 2.091h94.065a2.09 2.09 0 002.091-2.091v-4.674a2.09 2.09 0 00-2.091-2.091z" fill="#fff"/><path fill-rule="evenodd" clip-rule="evenodd" d="M73.287 193.58c-4.317 3.977-8.721 7.755-11.787 11.724-25.791 33.372-6.654 64.178 52.669 52.312-6.622-41.516-14.266-31.686-40.882-64.036z" fill="url(#paint23_linear_2162_23644)"/><path style="mix-blend-mode:multiply" opacity=".5" fill-rule="evenodd" clip-rule="evenodd" d="M50.427 230.01c-2.115 21.76 19.771 36.406 63.742 27.614-5.077-31.812-10.749-33.475-25.094-47.068l-16.983 7.612c-1.418 10.211-2.868 20.001-3.882 30.275-10.1-4.254-15.351-8.705-17.775-18.433h-.008z" fill="url(#paint24_linear_2162_23644)"/><path fill-rule="evenodd" clip-rule="evenodd" d="M196.336 200.971c3.984-3.842 5.371-4.317 7.525-9.402 1.965-4.634 5.482-7.05 8.991-9.64 3.572-2.646 4.943-5.292 7.953-8.175 4-3.834 5.426-.285 2.63 3.541l-4.92 6.749c2.923 6.756 6.353 6.978 3.898 11.208-1.513 2.614-4.975 5.981-7.177 7.256-5.679 3.287-4.087-.848-11.811 6.345-4.356-2.963-4.681-3.216-7.089-7.89v.008z" fill="url(#paint25_linear_2162_23644)"/><path fill-rule="evenodd" clip-rule="evenodd" d="M95.601 176.914c.285 2.923.27 6.899-1.735 9.537 1.03 6.567 5.593 11.502 11.581 11.431 5.157-.056 7.787-7.7 6.575-12.152 0-1.354.055-2.566.142-3.826 2.424-.443 3.597-2.091 4.341-4.317 2.804-8.349.895-17.022-.253-25.546-6.163 1.719-10.963-.76-16.492-3.271-2.694-1.22-3.343.538-3.906 2.764-.578 2.282-1.053 3.129-3.651 5.371 3.366 13.498-.222 9.331-1.846 6.828-1.156-1.79-3.105-.214-2.836 2.487.301 2.939 3.343 4.001 5.244 5.973.737.76 1.26 1.434 1.608 2.036.468.831.523 1.758 1.22 2.677l.008.008z" fill="url(#paint26_linear_2162_23644)"/><path fill-rule="evenodd" clip-rule="evenodd" d="M93.526 172.391c-3.272.831-4.183-.23-5.094-2.393-.934-2.226-.831-1.6-2.344-3.263a9.16 9.16 0 01-1.608-2.416c-1.244-2.733-.745-4.476-.92-6.63-.221-2.678-1.449-3.62-2.035-5.323-2.852-8.246 3.905-16.017 12.024-12.659 2.52-5.299 7.027-5.687 11.296-3.58 4.618-3.208 9.244-3.176 12.745.349 6.773 6.844 1.315 14.424-2.907 16.642l-13.846 23.907-7.303-4.642-.008.008z" fill="url(#paint27_linear_2162_23644)"/><path fill-rule="evenodd" clip-rule="evenodd" d="M94.642 179.084c-2.788-2.844-5.6-7.652-6.202-9.086-.935-2.226-.832-1.6-2.345-3.263a9.157 9.157 0 01-1.608-2.416c7.153 4.951 15.748 15.327 16.825-3.335.182-3.169 1.315-7.913 4.729-9.268 3.644-1.442 8.001-.444 14.734-7.699-.151 2.4-1.268 4.594-2.702 6.289-3.627 4.293-5.434 9.395-6.693 14.219-1.592 6.099-2.321 11.747-4.753 14.781-2.844 3.541-8.92 2.891-11.977-.23l-.008.008z" fill="#22043D"/><path fill-rule="evenodd" clip-rule="evenodd" d="M32.295 482.975l27.352.435c1.362-1.513 1.727-6.725.293-8.959-2.02-3.144-3.24-6.503-3.374-9.632l-10.29.467-4.436-2.083c-1.988 2.614-6.21 7.43-9.18 11.668-1.466 2.091-1.007 5.878-.365 8.096v.008z" fill="#0F2F64"/><path fill-rule="evenodd" clip-rule="evenodd" d="M57.596 471.132c-.483-1.933-.927-3.992-1.03-6.305l-10.29.467-4.436-2.083c-.784 1.03-1.909 2.4-3.176 3.937 4.016 4.285 16.31 6.685 18.932 3.976v.008z" fill="#1E2353" opacity=".3"/><path fill-rule="evenodd" clip-rule="evenodd" d="M76.598 285.649c-2.511 7.604-5.814 13.339-9.276 28.888-3.763 16.897-4.832 32.818-7.652 49.247-5.529 32.192-12.436 64.788-22.068 99.641 5.568 4.634 16.46 4.634 20.436 3.224 11.89-27.043 19.202-53.428 29.673-80.852 14.346-37.57 29.99-75.204 42.403-110.905L76.59 285.649h.008z" fill="url(#paint28_linear_2162_23644)"/><path style="mix-blend-mode:multiply" opacity=".5" fill-rule="evenodd" clip-rule="evenodd" d="M99.372 285.134c-5.616 17.015-37.206 139.715-41.325 181.515 11.89-27.043 19.201-53.428 29.673-80.852 14.345-37.57 29.99-75.204 42.402-110.905l-30.75 10.242z" fill="url(#paint29_linear_2162_23644)"/><path fill-rule="evenodd" clip-rule="evenodd" d="M111.293 460.994c-.839 4.19-3.398 7.39-3.802 10.464-.697 5.299 2.361 10.63 8.634 10.686l41.024.364c-2.17-14.013-24.104-6.242-31.463-21.783l-9.545.538-4.84-.269h-.008z" fill="#0F2F64"/><path fill-rule="evenodd" clip-rule="evenodd" d="M111.293 460.994c-.277 1.37-.728 2.63-1.235 3.818 3.841 2.669 11.256 4.467 19.842 1.521-1.663-1.442-3.105-3.256-4.222-5.601l-9.545.539-4.84-.269v-.008z" fill="#1E2353" opacity=".3"/><path fill-rule="evenodd" clip-rule="evenodd" d="M139.398 282.155c1.679 10.052 2.226 19.637 2.083 32.137-.523 46.981-8.079 100.18-13.109 147.113-6.694 2.567-14.061 2.432-19.637.135-.808-27.178-1.283-56.067-4.072-82.809-4.634-44.43-22.86-75.545-12.198-101.693l31.732-1.077 15.193 6.186.008.008z" fill="url(#paint30_linear_2162_23644)"/><path fill-rule="evenodd" clip-rule="evenodd" d="M64.4 201.509c-10.964 14.828 6.724 15.351 8.134 26.568 2.733 25.577 4.008 43.099-.673 69.255 29 10.504 54.379 6.591 70.262.167-.705-23.851-2.725-40.137-3.462-63.37l-.063-2.131c11.089 7.723 25.942 15.795 37.309 9.672 11.755-6.329 23.811-23.78 31.724-35.092-1.489-4.119-6.638-10.044-9.283-10.313-14.29 10.535-21.213 19.217-29.8 20.936-8.856 1.766-28.049-31.891-46.545-33.38-1.553-.214-3.145-.27-4.729-.23-11.391.317-21.412.618-31.115 3.517-7.985 2.384-16.033 6.654-21.768 14.401h.008z" fill="url(#paint31_linear_2162_23644)"/><path style="mix-blend-mode:multiply" opacity=".5" fill-rule="evenodd" clip-rule="evenodd" d="M138.621 232.71l-.023-.72c11.089 7.723 25.942 15.795 37.309 9.671 11.755-6.329 23.811-23.779 31.724-35.091-15.509 12.468-38.006 52.471-74.23 7.573 2.377 7.739 2.583 10.947 5.213 18.56l.007.007z" fill="url(#paint32_linear_2162_23644)"/><path fill-rule="evenodd" clip-rule="evenodd" d="M231.585 499.42c118.019 0 213.7-5.474 213.7-12.231 0-6.756-95.673-12.23-213.7-12.23-118.026 0-213.691 5.474-213.691 12.23 0 6.757 95.672 12.231 213.691 12.231z" fill="#B6D1FF" opacity=".35"/><path fill-rule="evenodd" clip-rule="evenodd" d="M204.504 492.061c95.245 0 172.453-2.186 172.453-4.88 0-2.693-77.208-4.879-172.453-4.879-95.246 0-172.454 2.186-172.454 4.879 0 2.694 77.208 4.88 172.454 4.88z" fill="#B6D1FF" opacity=".35"/><path opacity=".5" fill-rule="evenodd" clip-rule="evenodd" d="M42.363 114.383l-.53-4.278H36.35l-.53 4.278c-1.64.348-3.185.943-4.58 1.751l-3.286-2.551-3.874 3.873 2.369 3.058a14.345 14.345 0 00-2.187 4.872l-3.667.467v5.481l3.667.468a14.041 14.041 0 002.186 4.871l-2.368 3.058 3.874 3.873 3.287-2.55a15.356 15.356 0 004.578 1.75l.531 4.278h5.482l.53-4.278a15.575 15.575 0 004.579-1.75l3.287 2.55 3.874-3.873-2.369-3.058a14.188 14.188 0 002.186-4.871l3.668-.468v-5.481l-3.668-.467a14.046 14.046 0 00-2.186-4.872l2.369-3.058-3.874-3.873-3.287 2.551a15.385 15.385 0 00-4.579-1.751zm-3.271 4.911a9.307 9.307 0 019.307 9.308 9.306 9.306 0 01-9.307 9.307 9.306 9.306 0 01-9.308-9.307 9.307 9.307 0 019.308-9.308z" fill="#fff"/><path style="mix-blend-mode:multiply" opacity=".5" d="M364.663 327.713c15.592 0 28.231-12.64 28.231-28.232 0-15.591-12.639-28.231-28.231-28.231-15.592 0-28.231 12.64-28.231 28.231 0 15.592 12.639 28.232 28.231 28.232z" fill="url(#paint33_linear_2162_23644)"/><path d="M343.817 312.996c-10.081-10.081-10.081-26.427 0-36.508 10.082-10.082 26.427-10.082 36.509 0 10.081 10.081 10.081 26.427 0 36.508-10.082 10.082-26.427 10.082-36.509 0z" fill="#D1E7FF"/><path fill-rule="evenodd" clip-rule="evenodd" d="M374.302 280.612l-16.389 16.215-9.973-10.709h-3.01l15.288 22.749 18.995-28.255h-4.911z" fill="#fff"/><path style="mix-blend-mode:multiply" opacity=".5" fill-rule="evenodd" clip-rule="evenodd" d="M343.909 400.214h63.584v63.821h-63.584c-4.863 0-8.84-3.976-8.84-8.84v-46.141c0-4.864 3.977-8.84 8.84-8.84z" fill="url(#paint34_linear_2162_23644)"/><path d="M432.009 388.142h-78.056a8.84 8.84 0 00-8.84 8.84v46.141a8.84 8.84 0 008.84 8.84h78.056a8.84 8.84 0 008.841-8.84v-46.141a8.84 8.84 0 00-8.841-8.84z" fill="url(#paint35_linear_2162_23644)"/><path fill-rule="evenodd" clip-rule="evenodd" d="M429.594 417.641L406.02 403.85l2.004-5.989 28.643 16.754-2.431 7.248-41.064 20.381v-.079l2.828-8.436 33.594-16.088zm-47.955 25.918l15.763-47.005 6.788-.008-15.763 47.013h-6.788zm-25.269-21.086l23.581 13.783-2.012 5.988-28.643-16.745 2.432-7.256 41.064-20.382v.087l-2.828 8.437-33.594 16.088z" fill="#fff"/><defs><linearGradient id="paint0_linear_2162_23644" x1="99.491" y1="25.324" x2="375.983" y2="412.808" gradientUnits="userSpaceOnUse"><stop stop-color="#965CF2"/><stop offset="1" stop-color="#FF8ADC"/></linearGradient><linearGradient id="paint1_linear_2162_23644" x1="511.238" y1="73.233" x2="522.724" y2="94.913" gradientUnits="userSpaceOnUse"><stop stop-color="#94E69A"/><stop offset="1" stop-color="#17ADC9"/></linearGradient><linearGradient id="paint2_linear_2162_23644" x1="506.961" y1="411.43" x2="495.459" y2="450.363" gradientUnits="userSpaceOnUse"><stop stop-color="#EE78AF"/><stop offset="1" stop-color="#FAB6A2"/></linearGradient><linearGradient id="paint3_linear_2162_23644" x1="72.883" y1="78.825" x2="89.859" y2="16.92" gradientUnits="userSpaceOnUse"><stop stop-color="#6D6AFE"/><stop offset="1" stop-color="#3FB0F7"/></linearGradient><linearGradient id="paint4_linear_2162_23644" x1="523.873" y1="308.24" x2="493.106" y2="183.781" gradientUnits="userSpaceOnUse"><stop stop-color="#6D6AFE"/><stop offset="1" stop-color="#3FB0F7"/></linearGradient><linearGradient id="paint5_linear_2162_23644" x1="427.074" y1="362.682" x2="442.988" y2="227.696" gradientUnits="userSpaceOnUse"><stop stop-color="#965CF2"/><stop offset="1" stop-color="#FF8ADC"/></linearGradient><linearGradient id="paint6_linear_2162_23644" x1="475.419" y1="314.268" x2="482.5" y2="302.83" gradientUnits="userSpaceOnUse"><stop stop-color="#6D6AFE"/><stop offset="1" stop-color="#3FB0F7"/></linearGradient><linearGradient id="paint7_linear_2162_23644" x1="475.419" y1="340.891" x2="482.5" y2="329.453" gradientUnits="userSpaceOnUse"><stop stop-color="#6D6AFE"/><stop offset="1" stop-color="#3FB0F7"/></linearGradient><linearGradient id="paint8_linear_2162_23644" x1="431.931" y1="368.457" x2="433.863" y2="355.126" gradientUnits="userSpaceOnUse"><stop stop-color="#1C8EF4"/><stop offset="1" stop-color="#00CFDD"/></linearGradient><linearGradient id="paint9_linear_2162_23644" x1="393.829" y1="358.682" x2="409.806" y2="223.189" gradientUnits="userSpaceOnUse"><stop stop-color="#965CF2"/><stop offset="1" stop-color="#FF8ADC"/></linearGradient><linearGradient id="paint10_linear_2162_23644" x1="348.052" y1="441.349" x2="212.187" y2="52.209" gradientUnits="userSpaceOnUse"><stop stop-color="#6D6AFE"/><stop offset="1" stop-color="#3FB0F7"/></linearGradient><linearGradient id="paint11_linear_2162_23644" x1="248.332" y1="217.834" x2="248.332" y2="370.714" gradientUnits="userSpaceOnUse"><stop stop-color="#3180F6"/><stop offset="1" stop-color="#554CFD"/></linearGradient><linearGradient id="paint12_linear_2162_23644" x1="200.298" y1="209.848" x2="250.829" y2="325.047" gradientUnits="userSpaceOnUse"><stop stop-color="#965CF2"/><stop offset="1" stop-color="#FF8ADC"/></linearGradient><linearGradient id="paint13_linear_2162_23644" x1="292.215" y1="-15.375" x2="292.469" y2="57.572" gradientUnits="userSpaceOnUse"><stop stop-color="#FD90DA"/><stop offset="1" stop-color="#8E6DFD"/></linearGradient><linearGradient id="paint14_linear_2162_23644" x1="220.489" y1="99.642" x2="216.069" y2="128.547" gradientUnits="userSpaceOnUse"><stop stop-color="#6D6AFE"/><stop offset="1" stop-color="#3FB0F7"/></linearGradient><linearGradient id="paint15_linear_2162_23644" x1="176.209" y1="177.302" x2="208.678" y2="115.39" gradientUnits="userSpaceOnUse"><stop stop-color="#1C8EF4"/><stop offset="1" stop-color="#00CFDD"/></linearGradient><linearGradient id="paint16_linear_2162_23644" x1="180.939" y1="164.415" x2="196.758" y2="127.51" gradientUnits="userSpaceOnUse"><stop stop-color="#1C8EF4"/><stop offset="1" stop-color="#00CFDD"/></linearGradient><linearGradient id="paint17_linear_2162_23644" x1="241.921" y1="447.445" x2="280.277" y2="315.336" gradientUnits="userSpaceOnUse"><stop stop-color="#554CFD"/><stop offset="1" stop-color="#FF8ADC"/></linearGradient><linearGradient id="paint18_linear_2162_23644" x1="375.729" y1="148.405" x2="372.354" y2="178.078" gradientUnits="userSpaceOnUse"><stop stop-color="#6D6AFE"/><stop offset="1" stop-color="#3FB0F7"/></linearGradient><linearGradient id="paint19_linear_2162_23644" x1="435.114" y1="155.384" x2="432.025" y2="180.843" gradientUnits="userSpaceOnUse"><stop stop-color="#6D6AFE"/><stop offset="1" stop-color="#3FB0F7"/></linearGradient><linearGradient id="paint20_linear_2162_23644" x1="380.267" y1="201.161" x2="373.439" y2="210.904" gradientUnits="userSpaceOnUse"><stop stop-color="#6D6AFE"/><stop offset="1" stop-color="#3FB0F7"/></linearGradient><linearGradient id="paint21_linear_2162_23644" x1="381.471" y1="198.8" x2="372.393" y2="213.24" gradientUnits="userSpaceOnUse"><stop stop-color="#6D6AFE"/><stop offset="1" stop-color="#3FB0F7"/></linearGradient><linearGradient id="paint22_linear_2162_23644" x1="225.304" y1="371.031" x2="209.652" y2="443.447" gradientUnits="userSpaceOnUse"><stop stop-color="#1C8EF4"/><stop offset="1" stop-color="#00CFDD"/></linearGradient><linearGradient id="paint23_linear_2162_23644" x1="74.349" y1="197.303" x2="88.385" y2="284.627" gradientUnits="userSpaceOnUse"><stop stop-color="#6D6AFE"/><stop offset="1" stop-color="#3FB0F7"/></linearGradient><linearGradient id="paint24_linear_2162_23644" x1="75.094" y1="201.914" x2="88.14" y2="283.067" gradientUnits="userSpaceOnUse"><stop stop-color="#6D6AFE"/><stop offset="1" stop-color="#3FB0F7"/></linearGradient><linearGradient id="paint25_linear_2162_23644" x1="224.068" y1="182.721" x2="207.069" y2="198.634" gradientUnits="userSpaceOnUse"><stop stop-color="#FFB89E"/><stop offset="1" stop-color="#FFA799"/></linearGradient><linearGradient id="paint26_linear_2162_23644" x1="99.966" y1="174.403" x2="111.816" y2="167.741" gradientUnits="userSpaceOnUse"><stop stop-color="#FF8A78"/><stop offset="1" stop-color="#FFA799"/></linearGradient><linearGradient id="paint27_linear_2162_23644" x1="98.294" y1="144.904" x2="103.522" y2="154.457" gradientUnits="userSpaceOnUse"><stop stop-color="#5A2D68"/><stop offset="1" stop-color="#22043D"/></linearGradient><linearGradient id="paint28_linear_2162_23644" x1="115.602" y1="308.272" x2="36.295" y2="419.771" gradientUnits="userSpaceOnUse"><stop stop-color="#235DA3"/><stop offset="1" stop-color="#123A76"/></linearGradient><linearGradient id="paint29_linear_2162_23644" x1="115.658" y1="309.484" x2="52.906" y2="422.259" gradientUnits="userSpaceOnUse"><stop stop-color="#235DA3"/><stop offset="1" stop-color="#123A76"/></linearGradient><linearGradient id="paint30_linear_2162_23644" x1="132.221" y1="316.502" x2="90.35" y2="417.767" gradientUnits="userSpaceOnUse"><stop stop-color="#235DA3"/><stop offset="1" stop-color="#123A76"/></linearGradient><linearGradient id="paint31_linear_2162_23644" x1="132.395" y1="189.231" x2="141.727" y2="286.71" gradientUnits="userSpaceOnUse"><stop stop-color="#6D6AFE"/><stop offset="1" stop-color="#3FB0F7"/></linearGradient><linearGradient id="paint32_linear_2162_23644" x1="169.087" y1="195.275" x2="176.723" y2="275.731" gradientUnits="userSpaceOnUse"><stop stop-color="#6D6AFE"/><stop offset="1" stop-color="#3FB0F7"/></linearGradient><linearGradient id="paint33_linear_2162_23644" x1="362.469" y1="309.114" x2="379.135" y2="235.818" gradientUnits="userSpaceOnUse"><stop stop-color="#965CF2"/><stop offset="1" stop-color="#FF8ADC"/></linearGradient><linearGradient id="paint34_linear_2162_23644" x1="377.836" y1="379.642" x2="371.111" y2="437.769" gradientUnits="userSpaceOnUse"><stop stop-color="#FD90DA"/><stop offset="1" stop-color="#8E6DFD"/></linearGradient><linearGradient id="paint35_linear_2162_23644" x1="398.716" y1="370.002" x2="392.142" y2="427.407" gradientUnits="userSpaceOnUse"><stop stop-color="#FD90DA"/><stop offset="1" stop-color="#8E6DFD"/></linearGradient></defs></svg>