<svg width="355" height="272" fill="none" xmlns="http://www.w3.org/2000/svg"><path opacity=".5" fill-rule="evenodd" clip-rule="evenodd" d="M51.773 30.973a9.212 9.212 0 00-9.214 9.213 9.212 9.212 0 009.214 9.214 9.212 9.212 0 009.214-9.214 9.212 9.212 0 00-9.214-9.213z" fill="url(#paint0_linear_2518_24783)"/><path opacity=".5" fill-rule="evenodd" clip-rule="evenodd" d="M336.163 32.727c-4.79 0-8.67 3.88-8.67 8.67s3.88 8.669 8.67 8.669 8.67-3.88 8.67-8.67-3.88-8.67-8.67-8.67z" fill="url(#paint1_linear_2518_24783)"/><path opacity=".5" fill-rule="evenodd" clip-rule="evenodd" d="M343.045 122.482c-6.566 0-11.889 5.323-11.889 11.889 0 6.566 5.323 11.889 11.889 11.889 6.566 0 11.889-5.323 11.889-11.889 0-6.566-5.323-11.889-11.889-11.889z" fill="url(#paint2_linear_2518_24783)"/><path opacity=".5" fill-rule="evenodd" clip-rule="evenodd" d="M10.117 194.848c-5.55 0-10.051 4.501-10.051 10.051 0 5.551 4.501 10.052 10.051 10.052s10.052-4.501 10.052-10.052c0-5.55-4.501-10.051-10.052-10.051z" fill="url(#paint3_linear_2518_24783)"/><path opacity=".5" d="M203.491 26.625c4.827-4.827 4.827-12.653 0-17.48-4.828-4.828-12.654-4.828-17.481 0-4.827 4.827-4.827 12.653 0 17.48s12.653 4.827 17.481 0z" fill="url(#paint4_linear_2518_24783)"/><path fill-rule="evenodd" clip-rule="evenodd" d="M73.683 55.264h229.92c7.018 0 12.759 4.881 12.759 10.848v168.595c0 5.967-5.741 10.848-12.759 10.848H73.683c-7.018 0-12.758-4.881-12.758-10.848V66.112c0-5.967 5.74-10.848 12.758-10.848z" fill="url(#paint5_linear_2518_24783)"/><path fill-rule="evenodd" clip-rule="evenodd" d="M73.683 55.264h229.92c7.018 0 12.759 4.97 12.759 11.047v3.525H60.925V66.31c0-6.077 5.74-11.047 12.758-11.047z" fill="#3E4992"/><path fill-rule="evenodd" clip-rule="evenodd" d="M72.957 59.94a2.604 2.604 0 110 5.207 2.604 2.604 0 010-5.208zm8.968 0a2.604 2.604 0 110 5.207 2.604 2.604 0 010-5.208zm8.968 0a2.604 2.604 0 110 5.207 2.604 2.604 0 010-5.208z" fill="#5462BE"/><path fill-rule="evenodd" clip-rule="evenodd" d="M283.925 154.946l-36.807-.013c-4.41.105-5.621.412-6.19-8.722l39.372-42.945 8.225.026c3.626.268 4.319.432 4.201 5.627l4.227-.065c3.266.039 4.987 1.053 3.796 6.792l-8.363 34.151c-.72 4.115-1.597 5.156-8.467 5.149h.006z" fill="#CDE7FF" opacity=".5"/><path fill-rule="evenodd" clip-rule="evenodd" d="M251.933 111.869h39.148c1.346 0 2.194 1.1 1.892 2.439l-7.323 32.637c-.301 1.345-1.647 2.439-2.986 2.439h-39.148c-1.345 0-2.194-1.101-1.892-2.439l7.323-32.637c.302-1.345 1.647-2.439 2.986-2.439z" fill="#6166D7"/><path d="M283.029 103.264h-37.52a4.168 4.168 0 00-4.168 4.167v36.848a4.168 4.168 0 004.168 4.168h37.52a4.168 4.168 0 004.168-4.168v-36.848a4.168 4.168 0 00-4.168-4.167z" fill="#F2F4FF"/><path d="M283.507 107.242h-38.476c-.58 0-1.05.47-1.05 1.05v2.345c0 .579.47 1.049 1.05 1.049h38.476c.58 0 1.05-.47 1.05-1.049v-2.345c0-.58-.47-1.05-1.05-1.05zm-38.822 9.529h39.168c.39 0 .704.315.704.705v1.577c0 .39-.314.704-.704.704h-39.168a.703.703 0 01-.704-.704v-1.577c0-.39.315-.705.704-.705zm39.168 7.688h-39.168a.704.704 0 00-.704.704v1.578c0 .389.315.704.704.704h39.168a.704.704 0 00.704-.704v-1.578a.704.704 0 00-.704-.704zm-39.168 7.695h39.168c.39 0 .704.315.704.704v1.578c0 .39-.314.704-.704.704h-39.168a.703.703 0 01-.704-.704v-1.578c0-.389.315-.704.704-.704z" fill="#DCE8F8"/><path fill-rule="evenodd" clip-rule="evenodd" d="M266.227 115.749h12.515c1.201 0 2.307.987 2.458 2.188l3.64 29.261c.15 1.2-.711 2.187-1.918 2.187h-39.657c-1.201 0-2.307-.987-2.458-2.187l-.805-6.487-2.828-22.774-.503-4.023c-.233-1.88 1.112-3.42 2.992-3.42h16.519c1.88 0 2.816.685 4.042 2.257 2.093 2.684 2.514 2.998 6.003 2.998z" fill="url(#paint6_linear_2518_24783)"/><path fill-rule="evenodd" clip-rule="evenodd" d="M131.305 88.693h-32.96c-2.662 0-4.848 2.31-4.848 5.104v32.718c0 2.794 2.192 5.104 4.849 5.104h32.959c2.657 0 4.849-2.297 4.849-5.104V93.797c0-2.807-2.179-5.104-4.849-5.104z" fill="#CDE7FF" opacity=".5"/><path fill-rule="evenodd" clip-rule="evenodd" d="M126.215 88.693H97.692c-2.31 0-4.195 1.996-4.195 4.417v28.314c0 2.421 1.898 4.417 4.195 4.417h28.523c2.296 0 4.194-1.989 4.194-4.417V93.11c0-2.427-1.891-4.417-4.194-4.417z" fill="url(#paint7_linear_2518_24783)"/><path fill-rule="evenodd" clip-rule="evenodd" d="M111.95 92.522c6.223 0 11.268 5.044 11.268 11.267s-5.045 11.268-11.268 11.268c-6.223 0-11.268-5.045-11.268-11.268 0-6.222 5.045-11.267 11.268-11.267zm0 2.918a8.348 8.348 0 00-8.35 8.349 8.348 8.348 0 008.35 8.35 8.347 8.347 0 008.349-8.35 8.347 8.347 0 00-8.349-8.35zm-9.528 23.013h19.062c.451 0 .818.432.818.955v1.649c0 .524-.367.956-.818.956h-19.062c-.451 0-.818-.432-.818-.956v-1.649c0-.523.367-.955.818-.955z" fill="#fff"/><path fill-rule="evenodd" clip-rule="evenodd" d="M188.215 271.595c-87.816 0-159.006-4.293-159.006-9.59 0-5.298 71.19-9.591 159.006-9.591 87.815 0 159.005 4.293 159.005 9.591 0 5.297-71.19 9.59-159.005 9.59z" fill="#9871D0" opacity=".35"/><path d="M236.098 268.109c59.802 0 108.282-2.733 108.282-6.104 0-3.37-48.48-6.103-108.282-6.103-59.803 0-108.283 2.733-108.283 6.103 0 3.371 48.48 6.104 108.283 6.104z" fill="#9871D0" opacity=".35"/><rect x="235.048" y="185.088" width="43.055" height="43.055" rx="6" fill="#CDE7FF" opacity=".5"/><rect x="231.501" y="181.541" width="43.055" height="43.055" rx="6" fill="#fff"/><path fill-rule="evenodd" clip-rule="evenodd" d="M235.986 181.541h34.086c2.466 0 4.484 2.408 4.484 5.349v1.742h-43.055v-1.742c0-2.941 2.019-5.349 4.485-5.349z" fill="url(#paint8_linear_2518_24783)"/><rect x="237.073" y="192.18" width="8.104" height="8.104" rx="2" fill="url(#paint9_linear_2518_24783)"/><rect x="249.23" y="192.18" width="8.104" height="8.104" rx="2" fill="url(#paint10_linear_2518_24783)"/><rect x="261.387" y="192.18" width="8.104" height="8.104" rx="2" fill="url(#paint11_linear_2518_24783)"/><rect x="237.073" y="202.309" width="8.104" height="8.611" rx="2" fill="url(#paint12_linear_2518_24783)"/><rect x="249.23" y="202.309" width="8.104" height="8.611" rx="2" fill="url(#paint13_linear_2518_24783)"/><rect x="261.387" y="202.309" width="8.104" height="8.611" rx="2" fill="url(#paint14_linear_2518_24783)"/><rect x="237.073" y="212.947" width="8.104" height="8.611" rx="2" fill="url(#paint15_linear_2518_24783)"/><rect x="249.23" y="212.947" width="8.104" height="8.611" rx="2" fill="url(#paint16_linear_2518_24783)"/><rect x="261.387" y="212.947" width="8.104" height="8.611" rx="2" fill="url(#paint17_linear_2518_24783)"/><circle cx="240.619" cy="185.594" r="1.52" fill="#0A3C5F"/><circle cx="253.282" cy="185.594" r="1.52" fill="#0A3C5F"/><circle cx="265.439" cy="185.594" r="1.52" fill="#0A3C5F"/><path stroke="#AAB5C0" stroke-width="2" stroke-linecap="round" d="M241.112 177.982v7.118m12.663-7.118v7.118m12.156-7.118v7.118"/><path fill-rule="evenodd" clip-rule="evenodd" d="M302.909 259.824c.35 1.734 1.407 3.062 1.576 4.333.288 2.197-.977 4.401-3.576 4.423l-16.987.153c.899-5.802 9.982-2.588 13.033-9.022l3.954.22 2.006-.113-.006.006z" fill="url(#paint18_linear_2518_24783)"/><path fill-rule="evenodd" clip-rule="evenodd" d="M291.328 175.493c-.983 4.734-1.808 5.994-1.282 11.858l6.547 73.145c.045.537 1.384 1.435 2.825 1.571 1.689.158 3.519-.571 3.553-1.769.39-12.676 1.893-28.144 2.559-38.171.678-10.191 2.605-20.744 4.181-31.28.824-5.519.474-10.253 1.638-17.083l-13.993-.508-6.028 2.231v.006z" fill="url(#paint19_linear_2518_24783)"/><path fill-rule="evenodd" clip-rule="evenodd" d="M291.328 175.493c-.983 4.734-1.807 5.993-1.282 11.857l3.158 35.127c2.723 1.876 3.779 2.44 6.819 3.638.83 16.021 2.898 36.081 2.954 34.178.384-12.677 1.892-28.145 2.559-38.172.678-10.191 2.604-20.744 4.181-31.279.824-5.52.474-10.254 1.638-17.084l-13.993-.508-6.028 2.231-.006.012z" fill="url(#paint20_linear_2518_24783)"/><path fill-rule="evenodd" clip-rule="evenodd" d="M336.358 268.872c-1.757 1.774-2.356 2.514-4.587 2.57-1.825.051-2.435-.525-3.469-1.553-1.141-1.136-1.497-1.847-1.474-2.853.045-1.921.876-3.661 1.006-6.067l3.66.277 1.593-.853c.689 1.124 2.164 3.203 3.198 5.033.508.898.322 2.503.079 3.446h-.006z" fill="url(#paint21_linear_2518_24783)"/><path fill-rule="evenodd" clip-rule="evenodd" d="M316.693 175.718c1.384 2.926 3.938 5.327 5.463 12.564.316 1.514.525 2.79.672 3.977.887 7.056 1.254 13.778 2.395 20.885 2.526 15.676 5.152 31.952 7.949 47.329.44 2.423-4.666 2.254-5.158 1.073-5.175-12.473-8.909-25.241-13.479-37.883-6.321-17.496-14.321-34.285-19.795-50.905l21.948 2.96h.005z" fill="url(#paint22_linear_2518_24783)"/><path fill-rule="evenodd" clip-rule="evenodd" d="M316.693 175.718c1.384 2.926 3.938 5.327 5.463 12.564.316 1.514.525 2.79.672 3.977.887 7.056 1.254 13.778 2.396 20.885 2.525 15.676 5.152 31.952 7.948 47.329.441 2.423-10.841-34.963-11.332-36.144-4.09.322-5.344.407-7.169-.294-6.045-17.371-14.196-33.872-19.925-51.277l21.947 2.96z" fill="url(#paint23_linear_2518_24783)"/><path fill-rule="evenodd" clip-rule="evenodd" d="M289.594 171.781c-1.022 4.915-1.791 6.214-1.333 12.31l2.83 37.861c4.593 2.581 24.744 4.954 35.72-1.509-1.441-7.632-3.26-23.873-4.175-31.195a47.82 47.82 0 00-.7-4.129c-1.582-7.513-4.576-10.061-6.011-13.101l-5.751-.773c.062-.413.13-.831.204-1.255l-12.977-.468-4.253-.577c.146.452.299.904.451 1.356l-3.999 1.48h-.006z" fill="url(#paint24_linear_2518_24783)"/><path fill-rule="evenodd" clip-rule="evenodd" d="M267.161 127.505c-.141-1.887-.717-2.006-3.175-3.582-.508-.328-.999-.768-2.124-2.068-.785.65-.197 1.339.339 2.3.26.463.537 1.101.65 1.593-2.209-.136-2.96-.548-3.474-1.13-2.582-2.881-3.051-3.412-6.446-3.401 1.587 2.062 2.779 3.389 3.61 5.553.508 1.328.401 1.226 1.322 1.644 1.248.571 2.304 1.164 3.48 1.74 2.615 1.277 2.547 1.926 4.242 4.327l3.237-1.847c-1.141-2.424-1.457-2.446-1.655-5.129h-.006z" fill="url(#paint25_linear_2518_24783)"/><path fill-rule="evenodd" clip-rule="evenodd" d="M265.709 129.465c-1.243-2.949-2.293-3.135-5.982-4.192l-2.04 1.232 1.735-.655c2.536 1.209 4.988 1.062 6.282 3.621l.005-.006z" fill="#FF8F7F"/><path fill-rule="evenodd" clip-rule="evenodd" d="M299.644 130.232c-5.508 1.78-9.474 8.525-13.021 13.135-4.424 6.553-6.022 2.593-9.361-1.35-3.305-3.904-6.174-7.164-8.937-11.141-1.209-.05-3.169.735-4.141 2.656 3.356 5.869 10.146 22.732 17.722 22.986 3.92.13 9.434-2.774 13.078-7.513 6.197-8.062 7.66-10.615 4.654-18.773h.006z" fill="url(#paint26_linear_2518_24783)"/><path style="mix-blend-mode:multiply" opacity=".5" fill-rule="evenodd" clip-rule="evenodd" d="M299.712 130.182c-5.802 1.768-6.774 8.355-9.519 15.026-1.361 3.311-3.277 7.649-7.045 8.706-4.09 1.147-7.976-2.808-10.959-5.638 2.898 4.474 6.225 8.123 9.722 8.242 3.921.13 9.434-2.774 13.078-7.513 6.197-8.062 7.723-10.666 4.723-18.818v-.005z" fill="url(#paint27_linear_2518_24783)"/><path fill-rule="evenodd" clip-rule="evenodd" d="M310.406 106.517c5.276-2.243 7.971.068 10.038 3.83 2.164 3.949 2.401 5.96 3.87 7.434 2.491 2.497 5.745 1.989 12.4 2.429 11.728.774 12.349 11.819 8.971 19.699-4.006 9.35-15.473 15.62-24.557 16.863-11.236 1.531-14.637-3.819-14.925-10.293-.192-4.271 1.237-7.078.898-8.75-1.39-6.779-7.48-4.723-7.892-12.372-.232-4.26 3.796-7.248 3.344-12.62-4.858-9.717 4.373-9.621 7.864-6.215l-.011-.005z" fill="url(#paint28_linear_2518_24783)"/><path fill-rule="evenodd" clip-rule="evenodd" d="M346.159 138.707c-.146.406-.305.807-.474 1.203-4.005 9.349-15.473 15.62-24.557 16.863-11.236 1.531-14.637-3.819-14.925-10.293-.192-4.271 1.237-7.078.898-8.751-1.39-6.779-7.48-4.722-7.892-12.371-.232-4.26 3.796-7.248 3.344-12.621a20.65 20.65 0 01-.265-.553c2.593.712 6.05.147 9.869-1.729.926 2.265.864 4.762 1.079 7.225 2.474-1.423 3.197.396 3.372 3.045.255 3.842.39 4.734 1.661 5.356 7.943 3.869 8.615 4.626 14.982 12.095 4.576 5.366 7.254 4.18 12.914.531h-.006z" fill="#22043D"/><path fill-rule="evenodd" clip-rule="evenodd" d="M318.834 146.285c-.542 9.621-.745 19.891-.192 29.291-10.462 2.243-19.625 2.491-29.737-.955.508-10.033 1.96-23.189 3.858-33.59.848-4.655 2.989-9.716 6.695-10.795 2.649-.768 5.57-1.09 8.53-.972 6.491.26 12.857 2.181 17.495 7.824l-6.654 9.192.005.005z" fill="url(#paint29_linear_2518_24783)"/><path fill-rule="evenodd" clip-rule="evenodd" d="M311.575 123.824c0 2.785.028 3.554.729 6.248-.734 2.751-5.615 4.378-6.819.034.407-1.311.396-2.22.351-3.299l2.248-2.028 3.486-.949.005-.006z" fill="#FFA698"/><path fill-rule="evenodd" clip-rule="evenodd" d="M311.575 123.824c0 .814 0 1.458.023 2.028-.819 1.554-3.65 3.627-5.864 3.254.147-.819.13-1.514.102-2.299l2.248-2.028 3.486-.949.005-.006z" fill="url(#paint30_linear_2518_24783)"/><path fill-rule="evenodd" clip-rule="evenodd" d="M301.638 113.668c-.322 4.418-.938 8.022.65 11.406 1.361 2.898 3.434 2.599 5.57 1.542 2.18-1.079 3.333-1.762 4.813-3.626.537-.294 1.147-.328 1.751-.949.893-.921 1.475-2.565.74-3.627-.327-.475-1.107-.13-1.627.768-.649 1.119-1.034.028-1.045-.774-.045-2.209-.644-3.587-1.084-5.881-2.932 1.492-6.825 3.412-9.762 1.141h-.006z" fill="url(#paint31_linear_2518_24783)"/><path fill-rule="evenodd" clip-rule="evenodd" d="M301.638 113.668c-.051.689-.107 1.367-.164 2.017 3.011 1.107 6.186.463 9.468-2.022.712 2.022.328 3.626.763 5.067.35 1.175.859 1.7 1.565 1.446 1-.356.853-1.034 2.096-1.373a1.74 1.74 0 00-.204-.395c-.327-.475-1.107-.13-1.627.768-.649 1.119-1.033.028-1.045-.774-.045-2.209-.644-3.587-1.084-5.881-2.932 1.492-6.825 3.413-9.762 1.142l-.006.005z" fill="#FFA698"/><path fill-rule="evenodd" clip-rule="evenodd" d="M303.582 114.714c3.367.554 8.637-1.582 8.756-4.87.113-3.016-3.339-5.044-6.282-5.581-8.078-1.469-9.858 9.237-2.474 10.445v.006z" fill="#5A2D68"/><path fill-rule="evenodd" clip-rule="evenodd" d="M303.582 114.715c3.095.508 7.801-1.26 8.632-4.102l-.068-.169c-5.87 2.875-10.869 2.677-13.219-.514.147 2.192 1.627 4.287 4.655 4.785z" fill="#22043D"/><path fill-rule="evenodd" clip-rule="evenodd" d="M321.738 179.671c-.966 2.723-1.034 5.446-2.401 8.005-.972-1.712-2.118-3.982-3.237-5.609l-2.209 1.197c-2.226 1.311-3.338.932-.655-1.542 1.644-1.514 3.921-2.734 5.694-4.22l2.802 2.169h.006z" fill="url(#paint32_linear_2518_24783)"/><path fill-rule="evenodd" clip-rule="evenodd" d="M321.54 180.372c-.463 1.305-.796 3.485-1.13 4.474-1.237-1.655-2.186-5.491-2.282-6.683.237-.203.87-.717 1.113-.921l2.299 3.124v.006z" fill="url(#paint33_linear_2518_24783)"/><path fill-rule="evenodd" clip-rule="evenodd" d="M316.123 182.072c1.18 1.949 3.101 4.333 4.705 5.452l.249 2.954c-2.548-1.497-5.452-4.853-6.598-7.485l1.649-.927-.005.006z" fill="#2E378B"/><path fill-rule="evenodd" clip-rule="evenodd" d="M321.235 183.173c-1.039-1.457-2.084-3.83-2.316-5.824 3.412-5.909 7.762-12.829 7.378-16.275-.413-3.746-3.661-10.83-9.474-15.53-.169-1.751-1.666-15.185 1.661-13.874 2.808 1.107 5.841 3.717 8.033 6.383 4.48 5.452 8.254 15.705 8.225 23.349-.011 3.587-2.412 9.123-13.513 21.771h.006z" fill="url(#paint34_linear_2518_24783)"/><path style="mix-blend-mode:multiply" opacity=".5" fill-rule="evenodd" clip-rule="evenodd" d="M321.235 183.174c-1.039-1.458-2.084-3.83-2.316-5.824 3.412-5.909 7.762-12.83 7.378-16.276 1.259 6.316-4.124 14.389-2.763 19.433a208.05 208.05 0 01-2.299 2.667z" fill="url(#paint35_linear_2518_24783)"/><path style="mix-blend-mode:multiply" opacity=".5" fill-rule="evenodd" clip-rule="evenodd" d="M117.301 166.768v23.553c0 5.689-4.379 10.36-9.711 10.36H46.244v-44.273h61.346c5.344 0 9.711 4.659 9.711 10.36z" fill="#CDE7FF"/><path d="M33.18 156.414h69.283c5.034 0 9.113 4.086 9.113 9.113v20.732c0 5.034-4.085 9.113-9.113 9.113H33.179c-5.033 0-9.113-4.085-9.113-9.113v-20.732c0-5.033 4.085-9.113 9.113-9.113z" fill="url(#paint36_linear_2518_24783)"/><path opacity=".2" fill-rule="evenodd" clip-rule="evenodd" d="M54.151 169.07h52.702c.801 0 1.463.714 1.463 1.581v3.529c0 .866-.662 1.58-1.463 1.58H54.151c-.802 0-1.463-.714-1.463-1.58v-3.529c0-.872.655-1.581 1.463-1.581z" fill="#fff"/><path opacity=".2" d="M97.599 179.066h-44.05a.861.861 0 00-.861.861v1.925a.86.86 0 00.86.861h44.05a.86.86 0 00.861-.861v-1.925a.861.861 0 00-.86-.861z" fill="#fff"/><path opacity=".2" fill-rule="evenodd" clip-rule="evenodd" d="M38.816 166.428a9.464 9.464 0 019.465 9.464 9.465 9.465 0 01-18.929 0 9.464 9.464 0 019.464-9.464z" fill="#fff"/><path fill-rule="evenodd" clip-rule="evenodd" d="M38.816 169.857a6.034 6.034 0 016.035 6.035 6.03 6.03 0 01-6.035 6.035 6.03 6.03 0 01-6.035-6.035 6.03 6.03 0 016.035-6.035zm0 2.388a3.647 3.647 0 100 7.292 3.647 3.647 0 000-7.292z" fill="#fff"/><path fill-rule="evenodd" clip-rule="evenodd" d="M119.059 143.643c-.227.343-1.927.803-2.371 1.072l-.28 4.937c.317-.053 2.044-.443 2.35-.332 3.301 1.204 4.494-.074 6.501.359.465.417 2.598.401 3.189.317.919-.132 1.284-.967 1.363-2.044.185-2.493.486-4.362.185-5.64-.233-.987-.328-1.077-2.012-1.135-.967-.032-1.959-.095-2.324.428-1.632.406-2.429-.47-3.939-.233-1.257.201-1.648.745-2.662 2.271z" fill="#FFA698"/><path fill-rule="evenodd" clip-rule="evenodd" d="M125.797 141.525c-.285.18-.417.513-.485 1.078-.185 1.499-.328 3.601-.428 5.127-.069 1.025.026 1.875.649 1.98-2.07-.285-1.103-3.142-3.321-3.738-.967-.264-3.206.237-4.41.792 2.657-1.88 2.757-1.268 4.922-2.25.607-.274 1.964-2.709 3.073-2.989z" fill="url(#paint37_linear_2518_24783)"/><path fill-rule="evenodd" clip-rule="evenodd" d="M124.504 136.482c-.465.544-1.796 1.975-2.229 2.535-.971 1.262-2.202 2.065-2.598 3.744-.406 1.711 5.107 1.241 3.844-.956-.015-.364.143-1.325.597-1.753 1.088-1.019.945-2.471.386-3.57z" fill="#FFA698"/><path fill-rule="evenodd" clip-rule="evenodd" d="M81.028 126.719c7.097 18.936 16.629 17.748 37.007 16.898.734-.032.924 4.948.169 6.237-5.133 3.041-20.579 5.956-29.968 3.448-11.93-3.184-17.51-14.596-22.66-27.095-1.056-3.665-2.656-12.067 1.157-11.956 11.343.333 11.39 4.71 14.3 12.473l-.005-.005z" fill="url(#paint38_linear_2518_24783)"/><path style="mix-blend-mode:multiply" opacity=".4" fill-rule="evenodd" clip-rule="evenodd" d="M79.681 133.143c8.17 24.613 25.232 18.07 38.523 16.708-5.133 3.042-20.579 5.956-29.968 3.448-11.929-3.184-17.51-14.596-22.66-27.095-1.055-3.665-1.541-11.633 2.108-10.53 10.783 3.264 9.389 9.601 11.997 17.469z" fill="url(#paint39_linear_2518_24783)"/><path fill-rule="evenodd" clip-rule="evenodd" d="M45.489 176.945l2.751-8.74-4.821-6.822-5.761 6.469c2.16 2.587 4.747 5.587 7.83 9.098v-.005z" fill="#4B4ECA"/><path fill-rule="evenodd" clip-rule="evenodd" d="M25.238 266.681c2.487 2.181 3.326 3.084 6.537 3.216 2.62.105 3.512-.576 5.017-1.78 1.668-1.341 2.191-2.186 2.18-3.395-.02-2.318-1.182-4.425-1.314-7.33l-5.265.243-2.27-1.067c-1.02 1.336-3.18 3.802-4.7 5.973-.75 1.072-.518 3.01-.185 4.145v-.005z" fill="#16193B"/><path fill-rule="evenodd" clip-rule="evenodd" d="M38.186 260.613c-.248-.988-.475-2.044-.528-3.227l-5.265.243-2.27-1.067a70.52 70.52 0 01-1.627 2.018c2.054 2.191 8.349 3.422 9.69 2.038v-.005z" fill="#16193B" opacity=".5"/><path fill-rule="evenodd" clip-rule="evenodd" d="M65.677 255.426c-.433 2.144-1.737 3.781-1.943 5.36-.354 2.714 1.21 5.439 4.42 5.471l21.001.185c-1.114-7.177-12.336-3.195-16.106-11.153l-4.89.275-2.477-.138h-.005z" fill="#16193B"/><path fill-rule="evenodd" clip-rule="evenodd" d="M65.677 255.426a10.058 10.058 0 01-.634 1.954c1.965 1.363 5.762 2.287 10.16.776a8.663 8.663 0 01-2.16-2.867l-4.89.275-2.476-.138z" fill="#16193B" opacity=".5"/><path fill-rule="evenodd" clip-rule="evenodd" d="M80.062 163.877c.855 5.148 1.135 10.049 1.066 16.449-.269 24.048-4.135 51.281-6.712 75.303-3.427 1.315-7.197 1.246-10.049.068-.417-13.909-.565-28.246-1.288-41.992-.914-17.31-3.095-30.855-7.04-52.453l16.244-.549 7.779 3.169v.005z" fill="url(#paint40_linear_2518_24783)"/><path fill-rule="evenodd" clip-rule="evenodd" d="M69.738 163.876c.855 5.149.86 19.961.792 26.362-.238 21.439-3.522 44.236-6.163 65.459-.417-13.909-.565-28.246-1.288-41.992-.803-15.161-2.572-27.433-5.65-44.754l12.309-5.08v.005z" fill="#1E2353" opacity=".3"/><path fill-rule="evenodd" clip-rule="evenodd" d="M47.918 165.666c-1.283 3.892-2.978 6.828-4.747 14.786-1.928 8.65-2.472 16.798-3.919 25.205-2.83 16.481-6.368 33.162-11.295 51.006 2.846 2.371 8.428 2.371 10.461 1.653 6.084-13.846 9.828-27.349 15.187-41.39 7.34-19.233 15.351-38.497 21.71-56.768l-27.397 5.508z" fill="url(#paint41_linear_2518_24783)"/><path fill-rule="evenodd" clip-rule="evenodd" d="M44.11 175.086l.893-10.741c-7.763-14.352-7.377-12.668 1.516-26.709-.1 10.44.702 20.832.105 31.045 11.359 2.434 23.541 3.327 34.52-.412-.137-6.775-1.727-16.877-3.343-26.229-1.109-6.411.106-12.478-1.193-18.155-1.146-5.006-3.934-8.074-7.953-9.241-2.878-.835-6.046-1.189-9.262-1.057-7.05.286-15.06 2.234-20.099 8.355-5.344 6.495-12.425 21.524-11.564 30.078.427 4.257 3.152 7.979 16.38 23.061v.005z" fill="url(#paint42_linear_2518_24783)"/><path style="mix-blend-mode:multiply" opacity=".4" fill-rule="evenodd" clip-rule="evenodd" d="M44.11 175.087l.893-10.741c-5.65-10.446-7.124-12.505-3.686-18.287-3.813 4.763-2.366 7.604-1.516 13.154.55 3.575 1.125 7.277-.591 10.25a808.452 808.452 0 004.895 5.624h.006z" fill="url(#paint43_linear_2518_24783)"/><path fill-rule="evenodd" clip-rule="evenodd" d="M54.608 108.698c-.11 2.159-.232 3.828-.617 5.956.934 3.274 3.987 5.423 7.023 5.012 2.614-.354 3.3-3.892 2.408-6.079a32.223 32.223 0 01-.206-3.031l-6.606-1.927-1.996.069h-.005z" fill="#FFA698"/><path fill-rule="evenodd" clip-rule="evenodd" d="M54.608 108.698c-.031.628-.068 1.219-.105 1.79 2.825 3.152 6.564 3.659 8.92 3.099a32.156 32.156 0 01-.207-3.031l-6.606-1.927-1.996.069h-.005z" fill="url(#paint44_linear_2518_24783)"/><path fill-rule="evenodd" clip-rule="evenodd" d="M53.574 106.131c-1.696.322-2.129-.254-2.525-1.384-.406-1.167-.375-.845-1.093-1.742a4.634 4.634 0 01-.744-1.289c-.55-1.436-.233-2.313-.254-3.416-.026-1.373-.623-1.896-.866-2.783-1.188-4.304 2.514-8.059 6.553-6.078 1.458-2.625 3.776-2.678 5.888-1.463 2.461-1.49 4.827-1.326 6.5.591 3.243 3.713.207 7.414-2.022 8.407l-7.091 5.043-4.336 4.114h-.01z" fill="url(#paint45_linear_2518_24783)"/><path fill-rule="evenodd" clip-rule="evenodd" d="M53.574 106.132c-1.695.322-2.128-.254-2.524-1.384-.407-1.167-.375-.845-1.093-1.742a4.634 4.634 0 01-.745-1.289c-.55-1.436-.232-2.313-.254-3.417v-.042c1.051 1.811 3.29 2.16 3.502-.385 1.114-.877 1.827-1.965 1.985-3.243.196-1.61.877-2.503 2.683-1.996 4.182 1.183 7.604 3.375 11.28-.11-.265 2.112-1.997 3.817-3.407 4.451l-7.092 5.043-4.335 4.114z" fill="#22043D"/><path fill-rule="evenodd" clip-rule="evenodd" d="M65.846 96.48c.312 4.387 1.004 8.881-.697 13.058-.618 1.516-1.605 2.461-3.971 1.954-1.637-.354-3.348-1.098-4.869-1.716-2.302-.935-1.97-1.859-2.36-2.667-.154-.322-.402-.681-.755-1.093-.909-1.067-2.43-1.711-2.482-3.221-.053-1.389.992-2.128 1.526-1.178.75 1.331 2.45 3.575 1.162-3.432 1.399-1.061 1.668-1.479 2.038-2.625.359-1.12.75-1.996 2.086-1.283 2.74 1.463 5.111 2.883 8.317 2.207l.005-.005z" fill="url(#paint46_linear_2518_24783)"/><path fill-rule="evenodd" clip-rule="evenodd" d="M65.846 96.48c.032.427.064.855.1 1.288-4.261.734-6.394-1.14-9.114-2.873-.977 1.669-1.225 2.16-2.614 3.512.037.486.544 3.184.195 4.509-.28 1.078-.855.925-1.478.27-.417-.439-1.336-2.414-2.123-1.162.264-.85 1.009-1.162 1.431-.407.75 1.331 2.45 3.575 1.162-3.432 1.4-1.061 1.669-1.479 2.038-2.625.36-1.12.75-1.996 2.086-1.283 2.74 1.463 5.112 2.883 8.317 2.207v-.005z" fill="#FFA698"/><path fill-rule="evenodd" clip-rule="evenodd" d="M60.386 123.568l1.15 27.122 4.77 6.004 3.12-7.229-7.256-26.404c.75-2.217.502-2.724.075-3.052-.502-.385-.017-.428-1.685-.227-1.099.132-2.229.248-2.065 1.436.127.914.914 1.574 1.89 2.35z" fill="url(#paint47_linear_2518_24783)"/><path fill-rule="evenodd" clip-rule="evenodd" d="M54.197 113.143c-.95.316-1.664.639-1.828 1.246-.575 2.102 3.058 8.037 5.424 8.597.797-1.484 1.484-2.318 2.888-3.306-3.913-1.151-6.056-3.073-6.49-6.537h.006z" fill="#B18EF6"/><path fill-rule="evenodd" clip-rule="evenodd" d="M63.417 113.417c.707.027 1.336.259 1.457.391 1.004 1.114 1.046 5.841-.554 8.528-1.368-1.336-2.535-2.059-3.75-2.629 3.502-2.097 3.2-4.13 2.852-6.295l-.005.005z" fill="#B18EF6"/><path fill-rule="evenodd" clip-rule="evenodd" d="M202.138 131.894l-36.807-.014c-4.411.105-5.621.413-6.191-8.722l39.373-42.945 8.225.026c3.625.268 4.319.432 4.201 5.627l4.227-.065c3.265.04 4.986 1.054 3.795 6.792l-8.363 34.151c-.719 4.116-1.596 5.156-8.467 5.15h.007z" fill="#CDE7FF" opacity=".5"/><path fill-rule="evenodd" clip-rule="evenodd" d="M171.135 89.08h40.753c1.4 0 2.283 1.145 1.969 2.539l-7.623 33.974c-.314 1.4-1.714 2.539-3.108 2.539h-40.753c-1.4 0-2.284-1.145-1.97-2.539l7.624-33.974c.314-1.4 1.714-2.539 3.108-2.539z" fill="#147CF0"/><path d="M203.505 80.121h-39.058a4.338 4.338 0 00-4.338 4.338v38.359a4.338 4.338 0 004.338 4.338h39.058a4.339 4.339 0 004.339-4.338V84.459a4.339 4.339 0 00-4.339-4.338z" fill="#F2F4FF"/><path d="M204.003 84.262H163.95c-.603 0-1.093.489-1.093 1.092v2.441c0 .604.49 1.093 1.093 1.093h40.053c.603 0 1.093-.49 1.093-1.093v-2.44c0-.604-.49-1.093-1.093-1.093z" fill="url(#paint48_linear_2518_24783)"/><path d="M163.59 94.182h40.773c.405 0 .733.327.733.733v1.642a.732.732 0 01-.733.733H163.59a.732.732 0 01-.733-.733v-1.642c0-.406.327-.733.733-.733z" fill="url(#paint49_linear_2518_24783)"/><path d="M163.59 102.186h40.773c.405 0 .733.327.733.732v1.643a.732.732 0 01-.733.733H163.59a.732.732 0 01-.733-.733v-1.643c0-.405.327-.732.733-.732z" fill="url(#paint50_linear_2518_24783)"/><path d="M163.59 110.193h40.773c.405 0 .733.328.733.733v1.643a.733.733 0 01-.733.733H163.59a.732.732 0 01-.733-.733v-1.643c0-.405.327-.733.733-.733z" fill="url(#paint51_linear_2518_24783)"/><path fill-rule="evenodd" clip-rule="evenodd" d="M186.008 93.123h13.028c1.25 0 2.402 1.027 2.559 2.277l3.788 30.46c.157 1.25-.739 2.277-1.995 2.277h-41.283c-1.25 0-2.402-1.027-2.559-2.277l-.837-6.753-2.945-23.707-.523-4.188c-.243-1.957 1.158-3.56 3.114-3.56h17.197c1.956 0 2.931.714 4.207 2.35 2.179 2.794 2.618 3.12 6.249 3.12z" fill="url(#paint52_linear_2518_24783)"/><path d="M206.525 136.847c5.833 0 10.562-4.729 10.562-10.562 0-5.834-4.729-10.562-10.562-10.562-5.834 0-10.562 4.728-10.562 10.562 0 5.833 4.728 10.562 10.562 10.562z" fill="#CDE7FF" opacity=".5"/><path d="M214.232 126.409a9.178 9.178 0 10-18.117-2.94 9.178 9.178 0 0018.117 2.94z" fill="url(#paint53_linear_2518_24783)"/><path fill-rule="evenodd" clip-rule="evenodd" d="M209.487 119.879l-5.828 5.762-3.544-3.804h-1.07l5.432 8.084 6.755-10.042h-1.745z" fill="#fff"/><path style="mix-blend-mode:multiply" opacity=".5" fill-rule="evenodd" clip-rule="evenodd" d="M238.314 55.264h44.618v31.113c0 1.228-1.52 2.234-3.383 2.234h-41.235c-1.863 0-3.384-1.006-3.384-2.234V57.498c0-1.23 1.525-2.234 3.384-2.234z" fill="#CDE7FF"/><path d="M232.88 38.121h42.414a3.096 3.096 0 013.093 3.093v39.987a3.096 3.096 0 01-3.093 3.092H232.88a3.097 3.097 0 01-3.093-3.093V41.215a3.097 3.097 0 013.093-3.093z" fill="#fff"/><path opacity=".3" fill-rule="evenodd" clip-rule="evenodd" d="M236.417 41.213a4.306 4.306 0 110 8.613 4.306 4.306 0 110-8.613z" fill="#FF84D6"/><path fill-rule="evenodd" clip-rule="evenodd" d="M236.417 43.203a2.32 2.32 0 010 4.637 2.322 2.322 0 01-2.319-2.318 2.322 2.322 0 012.319-2.319z" fill="url(#paint54_linear_2518_24783)"/><path opacity=".3" d="M255.692 42.236h-12.371a.802.802 0 00-.803.803v.826c0 .444.359.803.803.803h12.371c.443 0 .803-.36.803-.803v-.826a.803.803 0 00-.803-.803zm10.017 4.143h-22.388a.802.802 0 00-.803.802v.827c0 .443.359.802.803.802h22.388a.803.803 0 00.803-.802v-.827a.803.803 0 00-.803-.802z" fill="#FF84D6"/><path opacity=".2" d="M235.062 52.182h38.051a2.774 2.774 0 012.774 2.774v24.183a2.774 2.774 0 01-2.774 2.774h-38.051a2.774 2.774 0 01-2.774-2.774V54.956a2.774 2.774 0 012.774-2.774z" fill="url(#paint55_linear_2518_24783)"/><path fill-rule="evenodd" clip-rule="evenodd" d="M244.756 56.178l12.481 16.678 7.714-6.621 9.186 13.803h-40.095l10.714-23.86z" fill="url(#paint56_linear_2518_24783)"/><path fill-rule="evenodd" clip-rule="evenodd" d="M258.672 56.178a2.764 2.764 0 012.762 2.762 2.764 2.764 0 01-2.762 2.762 2.764 2.764 0 01-2.762-2.762 2.764 2.764 0 012.762-2.762z" fill="#FFC770"/><path style="mix-blend-mode:multiply" opacity=".5" fill-rule="evenodd" clip-rule="evenodd" d="M113.384 213.104c.63-2.522 3.027-4.407 5.883-4.407h12.748c2.851 0 5.253 1.885 5.883 4.407h5.792c4.932 0 8.952 3.811 8.952 8.476v23.976h-49.251c-1.708 0-3.326-.4-4.75-1.097V221.58c0-4.67 4.019-8.476 8.951-8.476h5.792z" fill="#CDE7FF"/><path d="M107.631 217.881h36.252a5.34 5.34 0 015.34 5.34v25.567a5.344 5.344 0 01-5.34 5.34h-36.252a5.34 5.34 0 01-5.34-5.34v-25.567a5.344 5.344 0 015.34-5.34z" fill="#E23B93"/><path fill-rule="evenodd" clip-rule="evenodd" d="M107.631 220.211h36.252c2.938 0 5.34 2.391 5.34 5.318v9.066l-13.928 7.65h-5.222v1.024c0 .746-.579 1.357-1.281 1.357h-5.673c-.702 0-1.281-.611-1.281-1.357v-1.024h-5.624l-13.928-7.65v-9.066c0-2.927 2.402-5.318 5.34-5.318h.005z" fill="#E23B93" opacity=".5"/><path fill-rule="evenodd" clip-rule="evenodd" d="M119.356 213.205h12.802a2.425 2.425 0 012.418 2.418v4.123c-8.953 4.937-8.685 4.937-17.633 0v-4.123a2.425 2.425 0 012.418-2.418h-.005zm1.903 2.338c-1.024 0-1.855.788-1.855 1.747v2.976c6.841 3.549 5.87 3.549 12.711 0v-2.976c0-.959-.836-1.747-1.855-1.747h-9.001z" fill="url(#paint57_linear_2518_24783)"/><path fill-rule="evenodd" clip-rule="evenodd" d="M134.571 216.551v3.19c-8.953 4.937-8.685 4.937-17.633 0v-3.19h2.638a1.621 1.621 0 00-.172.734v2.976c6.841 3.549 5.87 3.549 12.711 0v-2.976c0-.262-.064-.509-.171-.734h2.637-.01z" fill="#E23B93" opacity=".5"/><path fill-rule="evenodd" clip-rule="evenodd" d="M107.631 217.881h36.252c2.938 0 5.34 2.402 5.34 5.34v9.103l-13.928 7.682h-19.081l-13.928-7.682v-9.103c0-2.938 2.402-5.34 5.34-5.34h.005z" fill="url(#paint58_linear_2518_24783)"/><path d="M128.116 237.002h-4.327a.975.975 0 00-.975.976v3.978c0 .539.436.975.975.975h4.327a.975.975 0 00.976-.975v-3.978a.976.976 0 00-.976-.976z" fill="url(#paint59_linear_2518_24783)"/><path fill-rule="evenodd" clip-rule="evenodd" d="M123.972 237.248h3.967a.9.9 0 01.895.895v3.645c-.906-2.889-2.123-3.543-4.868-4.546l.006.006z" fill="#FFD85E"/><path d="M187.357 149.309h-37.965c-3.532 0-6.396 3.656-6.396 8.166v72.201c0 4.51 2.864 8.167 6.396 8.167h57.592c3.533 0 6.396-3.657 6.396-8.167v-53.549c-4.165-9.429-8.022-10.286-26.023-26.818z" fill="#CDE7FF" opacity=".5"/><path d="M183.5 143.555h-40.748c-3.533 0-6.396 3.656-6.396 8.166v72.201c0 4.511 2.863 8.167 6.396 8.167h57.592c3.533 0 6.396-3.656 6.396-8.167V166.27c-12.097-1.715-16.811-11.572-23.24-22.715z" fill="#fff"/><rect x="140.642" y="190.699" width="60.859" height="5.143" rx="2" fill="url(#paint60_linear_2518_24783)"/><rect x="140.642" y="176.984" width="60.859" height="9.429" rx="2" fill="url(#paint61_linear_2518_24783)"/><rect x="140.642" y="200.129" width="60.859" height="5.143" rx="2" fill="url(#paint62_linear_2518_24783)"/><rect x="140.642" y="209.557" width="60.859" height="5.143" rx="2" fill="url(#paint63_linear_2518_24783)"/><rect x="140.642" y="218.986" width="32.514" height="5.143" rx="2" fill="url(#paint64_linear_2518_24783)"/><path style="mix-blend-mode:multiply" opacity=".5" fill-rule="evenodd" clip-rule="evenodd" d="M206.738 172.527h-20.915c-4.106 0-7.466-3.36-7.466-7.466v-21.489l5.537-.017 22.792 23.289.052 5.692v-.009z" fill="url(#paint65_linear_2518_24783)"/><path fill-rule="evenodd" clip-rule="evenodd" d="M206.738 168.696h-18.146c-3.566 0-6.481-2.915-6.481-6.481v-18.66h1.766l22.861 22.86v2.281z" fill="#fff"/><defs><linearGradient id="paint0_linear_2518_24783" x1="51.168" y1="31.772" x2="52.295" y2="47.424" gradientUnits="userSpaceOnUse"><stop stop-color="#6D6AFE"/><stop offset="1" stop-color="#3FB0F7"/></linearGradient><linearGradient id="paint1_linear_2518_24783" x1="336.135" y1="34.364" x2="336.191" y2="49.167" gradientUnits="userSpaceOnUse"><stop stop-color="#FA5DB1"/><stop offset="1" stop-color="#FEBFBF"/></linearGradient><linearGradient id="paint2_linear_2518_24783" x1="339.721" y1="124.175" x2="344.372" y2="138.434" gradientUnits="userSpaceOnUse"><stop stop-color="#1C8EF4"/><stop offset="1" stop-color="#00CFDD"/></linearGradient><linearGradient id="paint3_linear_2518_24783" x1="10.09" y1="196.746" x2="10.151" y2="213.908" gradientUnits="userSpaceOnUse"><stop stop-color="#FA5DB1"/><stop offset="1" stop-color="#FEBFBF"/></linearGradient><linearGradient id="paint4_linear_2518_24783" x1="193.673" y1="11.952" x2="196.226" y2="26.033" gradientUnits="userSpaceOnUse"><stop stop-color="#A77EF7"/><stop offset="1" stop-color="#5E65D6"/></linearGradient><linearGradient id="paint5_linear_2518_24783" x1="174.176" y1="219.138" x2="194.101" y2="76.147" gradientUnits="userSpaceOnUse"><stop stop-color="#D1E8FF"/><stop offset="1" stop-color="#EAEFFF"/></linearGradient><linearGradient id="paint6_linear_2518_24783" x1="263.574" y1="142.307" x2="254.013" y2="106.188" gradientUnits="userSpaceOnUse"><stop stop-color="#5E65D6"/><stop offset="1" stop-color="#A47DF6"/></linearGradient><linearGradient id="paint7_linear_2518_24783" x1="103.842" y1="96.722" x2="122.138" y2="120.508" gradientUnits="userSpaceOnUse"><stop stop-color="#94E69A"/><stop offset="1" stop-color="#17ADC9"/></linearGradient><linearGradient id="paint8_linear_2518_24783" x1="253.475" y1="183.21" x2="252.456" y2="190.256" gradientUnits="userSpaceOnUse"><stop stop-color="#6D6AFE"/><stop offset="1" stop-color="#3FB0F7"/></linearGradient><linearGradient id="paint9_linear_2518_24783" x1="241.125" y1="192.18" x2="241.125" y2="200.284" gradientUnits="userSpaceOnUse"><stop stop-color="#46A6F8"/><stop offset="1" stop-color="#5293FA"/></linearGradient><linearGradient id="paint10_linear_2518_24783" x1="253.283" y1="192.18" x2="253.283" y2="200.284" gradientUnits="userSpaceOnUse"><stop stop-color="#43ABF8"/><stop offset="1" stop-color="#4E9AF9"/></linearGradient><linearGradient id="paint11_linear_2518_24783" x1="265.439" y1="192.18" x2="265.439" y2="200.284" gradientUnits="userSpaceOnUse"><stop stop-color="#3FB0F7"/><stop offset="1" stop-color="#58A1FA"/></linearGradient><linearGradient id="paint12_linear_2518_24783" x1="241.125" y1="202.309" x2="241.125" y2="210.92" gradientUnits="userSpaceOnUse"><stop stop-color="#5195FA"/><stop offset="1" stop-color="#5D83FC"/></linearGradient><linearGradient id="paint13_linear_2518_24783" x1="253.283" y1="202.309" x2="253.283" y2="210.92" gradientUnits="userSpaceOnUse"><stop stop-color="#4D9AF9"/><stop offset="1" stop-color="#5A87FB"/></linearGradient><linearGradient id="paint14_linear_2518_24783" x1="265.439" y1="202.309" x2="265.439" y2="210.92" gradientUnits="userSpaceOnUse"><stop stop-color="#4A9FF9"/><stop offset="1" stop-color="#568DFB"/></linearGradient><linearGradient id="paint15_linear_2518_24783" x1="241.125" y1="212.947" x2="241.125" y2="221.558" gradientUnits="userSpaceOnUse"><stop stop-color="#5D83FC"/><stop offset="1" stop-color="#6970FE"/></linearGradient><linearGradient id="paint16_linear_2518_24783" x1="253.283" y1="212.947" x2="253.283" y2="221.558" gradientUnits="userSpaceOnUse"><stop stop-color="#588AFB"/><stop offset="1" stop-color="#6479FD"/></linearGradient><linearGradient id="paint17_linear_2518_24783" x1="265.439" y1="212.947" x2="265.439" y2="221.558" gradientUnits="userSpaceOnUse"><stop stop-color="#558EFB"/><stop offset="1" stop-color="#617DFC"/></linearGradient><linearGradient id="paint18_linear_2518_24783" x1="293.125" y1="263.631" x2="295.306" y2="268.529" gradientUnits="userSpaceOnUse"><stop stop-color="#3E4795"/><stop offset="1" stop-color="#273088"/></linearGradient><linearGradient id="paint19_linear_2518_24783" x1="281.25" y1="234.883" x2="301.418" y2="213.619" gradientUnits="userSpaceOnUse"><stop stop-color="#FFB89E"/><stop offset="1" stop-color="#FFA799"/></linearGradient><linearGradient id="paint20_linear_2518_24783" x1="311.197" y1="191.994" x2="284.95" y2="240.481" gradientUnits="userSpaceOnUse"><stop stop-color="#FF8A78"/><stop offset="1" stop-color="#FFA799"/></linearGradient><linearGradient id="paint21_linear_2518_24783" x1="330.342" y1="262.483" x2="332.195" y2="268.527" gradientUnits="userSpaceOnUse"><stop stop-color="#3E4795"/><stop offset="1" stop-color="#273088"/></linearGradient><linearGradient id="paint22_linear_2518_24783" x1="302.175" y1="239.006" x2="315.473" y2="214.11" gradientUnits="userSpaceOnUse"><stop stop-color="#FFB89E"/><stop offset="1" stop-color="#FFA799"/></linearGradient><linearGradient id="paint23_linear_2518_24783" x1="321.145" y1="193.106" x2="305.847" y2="243.333" gradientUnits="userSpaceOnUse"><stop stop-color="#FF8A78"/><stop offset="1" stop-color="#FFA799"/></linearGradient><linearGradient id="paint24_linear_2518_24783" x1="289.227" y1="183.3" x2="318.93" y2="211.76" gradientUnits="userSpaceOnUse"><stop stop-color="#3E4795"/><stop offset="1" stop-color="#273088"/></linearGradient><linearGradient id="paint25_linear_2518_24783" x1="260.597" y1="122.211" x2="261.077" y2="130.397" gradientUnits="userSpaceOnUse"><stop stop-color="#FFB89E"/><stop offset="1" stop-color="#FFA799"/></linearGradient><linearGradient id="paint26_linear_2518_24783" x1="285.448" y1="132.628" x2="273.183" y2="151.191" gradientUnits="userSpaceOnUse"><stop stop-color="#FA5DB1"/><stop offset="1" stop-color="#FEBFBF"/></linearGradient><linearGradient id="paint27_linear_2518_24783" x1="292.984" y1="137.52" x2="278.46" y2="154.733" gradientUnits="userSpaceOnUse"><stop stop-color="#FA5DB1"/><stop offset="1" stop-color="#FEBFBF"/></linearGradient><linearGradient id="paint28_linear_2518_24783" x1="324.466" y1="120.9" x2="318.36" y2="136.441" gradientUnits="userSpaceOnUse"><stop stop-color="#5A2D68"/><stop offset="1" stop-color="#22043D"/></linearGradient><linearGradient id="paint29_linear_2518_24783" x1="314.355" y1="148.274" x2="286.866" y2="170.82" gradientUnits="userSpaceOnUse"><stop stop-color="#FA5DB1"/><stop offset="1" stop-color="#FEBFBF"/></linearGradient><linearGradient id="paint30_linear_2518_24783" x1="308.559" y1="126.27" x2="309.067" y2="127.276" gradientUnits="userSpaceOnUse"><stop stop-color="#FF8A78"/><stop offset="1" stop-color="#FFA799"/></linearGradient><linearGradient id="paint31_linear_2518_24783" x1="308.185" y1="117.403" x2="308.796" y2="125.803" gradientUnits="userSpaceOnUse"><stop stop-color="#FFB89E"/><stop offset="1" stop-color="#FFA799"/></linearGradient><linearGradient id="paint32_linear_2518_24783" x1="316.185" y1="184.778" x2="319.546" y2="181.18" gradientUnits="userSpaceOnUse"><stop stop-color="#FFB89E"/><stop offset="1" stop-color="#FFA799"/></linearGradient><linearGradient id="paint33_linear_2518_24783" x1="319.066" y1="189.1" x2="320.083" y2="176.073" gradientUnits="userSpaceOnUse"><stop stop-color="#FF8A78"/><stop offset="1" stop-color="#FFA799"/></linearGradient><linearGradient id="paint34_linear_2518_24783" x1="322.427" y1="155.148" x2="306.107" y2="167.576" gradientUnits="userSpaceOnUse"><stop stop-color="#FA5DB1"/><stop offset="1" stop-color="#FEBFBF"/></linearGradient><linearGradient id="paint35_linear_2518_24783" x1="325.952" y1="171.322" x2="317.727" y2="174.355" gradientUnits="userSpaceOnUse"><stop stop-color="#FA5DB1"/><stop offset="1" stop-color="#FEBFBF"/></linearGradient><linearGradient id="paint36_linear_2518_24783" x1="68.251" y1="162.665" x2="67.344" y2="190.784" gradientUnits="userSpaceOnUse"><stop stop-color="#1C8EF4"/><stop offset="1" stop-color="#00CFDD"/></linearGradient><linearGradient id="paint37_linear_2518_24783" x1="123.59" y1="145" x2="121.341" y2="143.928" gradientUnits="userSpaceOnUse"><stop stop-color="#FF8A78"/><stop offset="1" stop-color="#FFA799"/></linearGradient><linearGradient id="paint38_linear_2518_24783" x1="90.887" y1="133.726" x2="80.568" y2="151.401" gradientUnits="userSpaceOnUse"><stop stop-color="#A77EF7"/><stop offset="1" stop-color="#5E65D6"/></linearGradient><linearGradient id="paint39_linear_2518_24783" x1="83.278" y1="123.199" x2="98.713" y2="151.403" gradientUnits="userSpaceOnUse"><stop stop-color="#A77EF7"/><stop offset="1" stop-color="#5E65D6"/></linearGradient><linearGradient id="paint40_linear_2518_24783" x1="76.149" y1="182.09" x2="54.529" y2="234.263" gradientUnits="userSpaceOnUse"><stop stop-color="#40457F"/><stop offset="1" stop-color="#1E2353"/></linearGradient><linearGradient id="paint41_linear_2518_24783" x1="67.921" y1="179.443" x2="24.509" y2="236.533" gradientUnits="userSpaceOnUse"><stop stop-color="#40457F"/><stop offset="1" stop-color="#1E2353"/></linearGradient><linearGradient id="paint42_linear_2518_24783" x1="48.884" y1="128.685" x2="62.313" y2="167.635" gradientUnits="userSpaceOnUse"><stop stop-color="#A77EF7"/><stop offset="1" stop-color="#5E65D6"/></linearGradient><linearGradient id="paint43_linear_2518_24783" x1="40.704" y1="150.257" x2="42.632" y2="173.022" gradientUnits="userSpaceOnUse"><stop stop-color="#A77EF7"/><stop offset="1" stop-color="#5E65D6"/></linearGradient><linearGradient id="paint44_linear_2518_24783" x1="59.023" y1="111.1" x2="58.727" y2="112.336" gradientUnits="userSpaceOnUse"><stop stop-color="#FF8A78"/><stop offset="1" stop-color="#FFA799"/></linearGradient><linearGradient id="paint45_linear_2518_24783" x1="57.861" y1="89.835" x2="58.463" y2="96.293" gradientUnits="userSpaceOnUse"><stop stop-color="#5A2D68"/><stop offset="1" stop-color="#22043D"/></linearGradient><linearGradient id="paint46_linear_2518_24783" x1="60.127" y1="99.685" x2="57.27" y2="107.812" gradientUnits="userSpaceOnUse"><stop stop-color="#FFB89E"/><stop offset="1" stop-color="#FFA799"/></linearGradient><linearGradient id="paint47_linear_2518_24783" x1="57.772" y1="128.506" x2="69.141" y2="147.184" gradientUnits="userSpaceOnUse"><stop stop-color="#40457F"/><stop offset="1" stop-color="#1E2353"/></linearGradient><linearGradient id="paint48_linear_2518_24783" x1="183.976" y1="84.262" x2="183.976" y2="88.888" gradientUnits="userSpaceOnUse"><stop stop-color="#8CC9F9"/><stop offset="1" stop-color="#80E7EE"/></linearGradient><linearGradient id="paint49_linear_2518_24783" x1="183.976" y1="94.182" x2="183.976" y2="97.29" gradientUnits="userSpaceOnUse"><stop stop-color="#8CC9F9"/><stop offset="1" stop-color="#80E7EE"/></linearGradient><linearGradient id="paint50_linear_2518_24783" x1="183.976" y1="102.186" x2="183.976" y2="105.294" gradientUnits="userSpaceOnUse"><stop stop-color="#8CC9F9"/><stop offset="1" stop-color="#80E7EE"/></linearGradient><linearGradient id="paint51_linear_2518_24783" x1="183.976" y1="110.193" x2="183.976" y2="113.302" gradientUnits="userSpaceOnUse"><stop stop-color="#8CC9F9"/><stop offset="1" stop-color="#80E7EE"/></linearGradient><linearGradient id="paint52_linear_2518_24783" x1="183.253" y1="120.763" x2="173.301" y2="83.17" gradientUnits="userSpaceOnUse"><stop stop-color="#1C8EF4"/><stop offset="1" stop-color="#01CFDD"/></linearGradient><linearGradient id="paint53_linear_2518_24783" x1="205.288" y1="116.663" x2="205.137" y2="130.997" gradientUnits="userSpaceOnUse"><stop stop-color="#A77EF7"/><stop offset="1" stop-color="#5E65D6"/></linearGradient><linearGradient id="paint54_linear_2518_24783" x1="236.086" y1="43.852" x2="236.796" y2="47.462" gradientUnits="userSpaceOnUse"><stop stop-color="#FF66BC"/><stop offset=".56" stop-color="#FF8ADC"/><stop offset="1" stop-color="#FFBBA8"/></linearGradient><linearGradient id="paint55_linear_2518_24783" x1="243.264" y1="62.981" x2="268.705" y2="72.542" gradientUnits="userSpaceOnUse"><stop stop-color="#FF66BC"/><stop offset=".56" stop-color="#FF8ADC"/><stop offset="1" stop-color="#FFBBA8"/></linearGradient><linearGradient id="paint56_linear_2518_24783" x1="251.631" y1="59.009" x2="254.127" y2="80.369" gradientUnits="userSpaceOnUse"><stop stop-color="#FF66BC"/><stop offset=".56" stop-color="#FF8ADC"/><stop offset="1" stop-color="#FFBBA8"/></linearGradient><linearGradient id="paint57_linear_2518_24783" x1="124.701" y1="219.628" x2="127.29" y2="214.186" gradientUnits="userSpaceOnUse"><stop stop-color="#FA5DB1"/><stop offset="1" stop-color="#FEBFBF"/></linearGradient><linearGradient id="paint58_linear_2518_24783" x1="125.259" y1="235.846" x2="126.213" y2="220.165" gradientUnits="userSpaceOnUse"><stop stop-color="#FA5DB1"/><stop offset="1" stop-color="#FEBFBF"/></linearGradient><linearGradient id="paint59_linear_2518_24783" x1="125.929" y1="237.753" x2="125.971" y2="241.543" gradientUnits="userSpaceOnUse"><stop stop-color="#FDD248"/><stop offset="1" stop-color="#FABD23"/></linearGradient><linearGradient id="paint60_linear_2518_24783" x1="152.313" y1="189.203" x2="153.054" y2="199.216" gradientUnits="userSpaceOnUse"><stop stop-color="#20E6F8"/><stop offset="1" stop-color="#0275F5"/></linearGradient><linearGradient id="paint61_linear_2518_24783" x1="152.313" y1="174.241" x2="154.773" y2="192.366" gradientUnits="userSpaceOnUse"><stop stop-color="#20E6F8"/><stop offset="1" stop-color="#0275F5"/></linearGradient><linearGradient id="paint62_linear_2518_24783" x1="152.313" y1="198.633" x2="153.054" y2="208.646" gradientUnits="userSpaceOnUse"><stop stop-color="#20E6F8"/><stop offset="1" stop-color="#0275F5"/></linearGradient><linearGradient id="paint63_linear_2518_24783" x1="152.313" y1="208.06" x2="153.054" y2="218.074" gradientUnits="userSpaceOnUse"><stop stop-color="#20E6F8"/><stop offset="1" stop-color="#0275F5"/></linearGradient><linearGradient id="paint64_linear_2518_24783" x1="146.877" y1="217.49" x2="148.246" y2="227.369" gradientUnits="userSpaceOnUse"><stop stop-color="#20E6F8"/><stop offset="1" stop-color="#0275F5"/></linearGradient><linearGradient id="paint65_linear_2518_24783" x1="198.072" y1="153.412" x2="173.214" y2="174.841" gradientUnits="userSpaceOnUse"><stop stop-color="#D3D3D3"/><stop offset="1" stop-color="#D9D9D9" stop-opacity="0"/></linearGradient></defs></svg>