<svg xmlns="http://www.w3.org/2000/svg" viewBox="0 0 677.34 407.86"><defs><style>.cls-1{fill:#e0e0e0}.cls-2{fill:#fafafa}.cls-3{fill:#ebebeb}.cls-4{fill:#03516f}.cls-5{fill:#f5f5f5}.cls-6{fill:#a2c3f4}.cls-7{fill:#e3edfe}.cls-8{fill:#df1c7d}.cls-9{fill:#263238}.cls-10{fill:#f5f8fc}.cls-11{fill:#167ca4}.cls-12{fill:#e8505b}.cls-13{fill:#f959a8}.cls-14{fill:#fff}.cls-15{fill:#455a64}.cls-16{fill:#ffbe9d}.cls-17{fill:#eb996e}.cls-18{fill:#0e2638}.cls-19{opacity:.6}.cls-22{fill:#b78876}.cls-23{fill:#aa6550}.cls-24{opacity:.4}</style></defs><g id="Layer_2" data-name="Layer 2"><g id="Background_Complete" data-name="Background Complete"><path class="cls-1" transform="rotate(-90 451.605 254.605)" d="M448.8 233.58h5.62v42.05h-5.62z"/><path class="cls-2" d="M436.31 252a12.94 12.94 0 010 5.26 13.43 13.43 0 010-5.26zm-.91-.09a13.48 13.48 0 010 5.27 13 13 0 010-5.27zm33.98.09a13.43 13.43 0 010 5.26 12.94 12.94 0 010-5.26z"/><ellipse class="cls-2" cx="468.46" cy="254.54" rx=".26" ry="2.63"/><path class="cls-2" d="M463 254.77a107 107 0 01-10.75.27 107 107 0 01-10.76-.27c0-.14 4.81-.26 10.76-.26s10.75.12 10.75.26z"/><path class="cls-1" transform="rotate(-90 451.42 282.7)" d="M445.81 261.68h11.23v42.05h-11.23z"/><path class="cls-2" d="M473 285.16l-.23.13c-.16.08-.39.19-.7.32a12.18 12.18 0 01-2.85.81 7.47 7.47 0 01-4.63-.65 6.27 6.27 0 01-2.2-2 4.65 4.65 0 01-.76-3.24 3.37 3.37 0 01.77-1.67 2.21 2.21 0 011.78-.81 2.56 2.56 0 011.78 1 3.52 3.52 0 01.81 1.92 5.08 5.08 0 01-1.45 4 6.41 6.41 0 01-4 2 10.82 10.82 0 01-4.69-.59 8.62 8.62 0 01-4.1-2.75 4.48 4.48 0 01-1-2.43 3.16 3.16 0 01.89-2.52 2.06 2.06 0 011.32-.58 2.43 2.43 0 011.37.39 3.67 3.67 0 011.55 2.27 5.31 5.31 0 01-1.66 4.95 8.26 8.26 0 01-4.73 1.92 11.57 11.57 0 01-4.91-.48 6.78 6.78 0 01-3.73-2.9 5 5 0 01-.47-4.47 2.37 2.37 0 011.71-1.45 2.73 2.73 0 012.12.51 3.5 3.5 0 011 3.79 6.45 6.45 0 01-2.11 3 9.51 9.51 0 01-5.77 2.24 9.2 9.2 0 01-4.57-1 9.08 9.08 0 01-2.38-1.77 7.14 7.14 0 01-.5-.58.86.86 0 01-.15-.22 10.44 10.44 0 003.12 2.38 9.08 9.08 0 0010-1.3 6.13 6.13 0 002-2.82 3.1 3.1 0 00-.87-3.32 2.32 2.32 0 00-1.77-.41 1.87 1.87 0 00-1.37 1.19 4.51 4.51 0 00.46 4 6.24 6.24 0 003.47 2.67 11.34 11.34 0 004.69.45 7.87 7.87 0 004.44-1.8 4.78 4.78 0 001.49-4.44 3.11 3.11 0 00-1.31-1.94 1.61 1.61 0 00-2.05.12 2.66 2.66 0 00-.73 2.11 4 4 0 00.85 2.15 8.22 8.22 0 003.84 2.59 10.33 10.33 0 004.47.57 5.91 5.91 0 003.76-1.9 4.64 4.64 0 001.36-3.61 2.7 2.7 0 00-2.19-2.52 1.78 1.78 0 00-1.45.66 3 3 0 00-.7 1.47 4.22 4.22 0 00.68 3 5.84 5.84 0 002.05 1.92 7.32 7.32 0 004.46.71 13.26 13.26 0 002.84-.71c.6-.24.95-.38.95-.36z"/><path class="cls-3" transform="rotate(-90 453.3 267.32)" d="M443.56 248.17h19.49v38.29h-19.49z"/><path class="cls-1" d="M440.52 258.24a86.94 86.94 0 01.26 9.43 86.9 86.9 0 01-.26 9.44 82.41 82.41 0 01-.27-9.44 82.45 82.45 0 01.27-9.43zm2.9-.24a80.28 80.28 0 01.27 9.31 80.14 80.14 0 01-.27 9.31 84.5 84.5 0 01-.26-9.31 84.65 84.65 0 01.26-9.31zm24.7-.63a94.06 94.06 0 01.26 9.81 93.9 93.9 0 01-.26 9.81 89 89 0 01-.27-9.81 89.2 89.2 0 01.27-9.81zm-3.41.27a89.1 89.1 0 01.26 9.55 89.22 89.22 0 01-.26 9.56 84.61 84.61 0 01-.27-9.56 84.5 84.5 0 01.27-9.55z"/><path class="cls-4" d="M206.18 35.66h258.14v171.23H206.18z"/><path class="cls-5" d="M0 48.17A43.74 43.74 0 1144.44 91.4 43.9 43.9 0 010 48.17zm64.64-1a20.91 20.91 0 10-20.57 21.31 21 21 0 0020.58-21.35z"/><path class="cls-6" d="M0 48.17A43.9 43.9 0 0143 3.53l.36 22.93a21 21 0 00.67 42l.37 22.93A43.87 43.87 0 010 48.17z"/><path class="cls-7" d="M39.11 0c28.21-.45 50.72 21.45 51.17 49.79l-26.7.43c-.22-13.55-10.53-22.08-24-21.87zm577.68 62.35h11.33v45.24h-11.33zm16.66 9.87h11.33v35.37h-11.33zm16.91 8.08h11.33v27.29h-11.33zm15.66 11.09h11.33v16.21h-11.33z"/><path class="cls-5" d="M659.12 163.85a39.19 39.19 0 00-55.1 1.87 38.62 38.62 0 001.88 54.76 39.19 39.19 0 0055.1-1.86 38.63 38.63 0 00-1.88-54.77zm-13 41a18.74 18.74 0 01-26.34.89 18.47 18.47 0 01-.9-26.19 18.74 18.74 0 0126.34-.89 18.47 18.47 0 01.91 26.16z"/><path class="cls-6" d="M604 165.72a39.2 39.2 0 0155.1-1.87l-13.89 14.78a18.74 18.74 0 00-26.34.89 18.47 18.47 0 00.9 26.19l-13.87 14.77a38.62 38.62 0 01-1.9-54.76z"/><path class="cls-7" d="M657.53 157.52c19.24 17.87 21.54 46.91 3.57 66l-19.52-16.91c8.59-9.15 10.46-21.36 1.26-29.9z"/><rect class="cls-7" x="129.18" y="227.95" width="110.45" height="31.11" rx="3.23"/><ellipse class="cls-8" cx="147.21" cy="244.46" rx="6.73" ry="6.76"/><path class="cls-1" d="M151 242.17a27.84 27.84 0 01-3.62 3.91l-.89.86-.18.18-.18-.18a18.72 18.72 0 01-2.7-3.08 19.46 19.46 0 013.06 2.72h-.36l.88-.87a27.38 27.38 0 013.99-3.54z"/><path class="cls-2" d="M228.76 241.12c0 .15-14.82.26-33.1.26s-33.12-.11-33.12-.26 14.83-.26 33.12-.26 33.1.14 33.1.26zm.3 5.64c0 .14-14.83.26-33.11.26s-33.11-.12-33.11-.26 14.82-.26 33.11-.26 33.11.11 33.11.26z"/><path class="cls-7" d="M577.86 250.86l-2.02 157h90.33V253l-88.31-2.14z"/><path class="cls-6" d="M626.52 252.04l-.8 155.82h40.45V253l-39.65-.96zm-45.82 1.65v32.11h42.79v-30.6l-42.79-1.51z"/><path class="cls-7" d="M595.45 262.52v4.74h13.09v-5.17l-13.09.43zm0 8.73h13.52v1.94h-13.52z"/><path class="cls-6" d="M580.7 366.21v32.12h42.79v-30.6l-42.79-1.52z"/><path class="cls-5" d="M595.45 375.05v4.74h13.09v-5.17l-13.09.43zm0 8.73h13.52v1.94h-13.52z"/><path class="cls-6" d="M580.7 289.88V322h42.79v-30.6l-42.79-1.52z"/><path class="cls-7" d="M595.45 298.72v4.74h13.09v-5.17l-13.09.43zm0 8.73h13.52v1.94h-13.52z"/><path class="cls-6" d="M580.14 328.34h42.79v32.11h-42.79z"/><path class="cls-7" d="M595.18 342.81v4.46h12.3v-4.87l-12.3.41zm0 8.21h12.71v1.82h-12.71z"/></g><path class="cls-9" d="M669.56 406.5c0 .14-148.1.26-330.76.26S8 406.64 8 406.5s148.07-.26 330.79-.26 330.77.12 330.77.26z" id="Floor"/><g id="Screens"><path class="cls-10" d="M190.71 39.96h267.33v175.35H190.71z"/><path class="cls-9" d="M458 215.31c0-1.69-.08-68.4-.2-175.35l.2.21H190.7l.3-.17v175.35l-.23-.24 267.32.24-267.32.24h-.24V39.7h267.8v.3c-.21 106.91-.33 173.62-.33 175.31z"/><path class="cls-4" d="M272.4 136.79l26.3.36c-.2 14-12 25.44-26.3 25.44h-.15z"/><path class="cls-9" d="M315.88 172.39a2.44 2.44 0 01-.56.05h-1.61l-5.87.07h-.08v-.06L299 161.56l-7-8.91.13.06-7.73-.07h-2.17a4.48 4.48 0 01-.76-.05 3.44 3.44 0 01.76 0l2.17-.05 7.73-.07h.09l.05.06 7 8.88 8.6 11-.12-.06 5.87.07h1.61a3 3 0 01.65-.03zm9.43 3.04c0 .11-3.81.2-8.5.2s-8.51-.09-8.51-.2a84.93 84.93 0 018.51-.21 84.8 84.8 0 018.5.21zm0 3.15c0 .11-3.81.2-8.5.2s-8.51-.09-8.51-.2a84.93 84.93 0 018.51-.21 84.8 84.8 0 018.5.21z"/><path class="cls-11" d="M268.25 133.05l-.37 25.79c-14.29-.19-25.93-11.78-25.93-25.79s11.87-25.8 26.3-25.8 26.29 11.65 26.29 25.8z"/><path class="cls-9" d="M258 124.61a1.44 1.44 0 01-.46.11l-1.31.21-4.72.66h-.08l-6.31-6.13c-3-3-5.75-5.67-7.7-7.65l-2.42-2.39a7.13 7.13 0 01-.8-.9 7.92 7.92 0 01.91.79l2.4 2.26c2 1.92 4.76 4.59 7.79 7.56l6.25 6.18h-.14l4.74-.53 1.32-.12a2.41 2.41 0 01.53-.05zm-30.42-17.22c0 .11-3.81.2-8.51.2s-8.51-.09-8.51-.2 3.81-.2 8.51-.2 8.51.09 8.51.2zm0 3.15c0 .11-3.81.2-8.51.2s-8.51-.09-8.51-.2 3.81-.2 8.51-.2 8.51.09 8.51.2z"/><path class="cls-11" d="M360.24 82.09l-.11-16a20.47 20.47 0 00-13.22 5.16 19 19 0 00-6.37 16.6 22.05 22.05 0 00.37 2.33l19.32-4.34z"/><path class="cls-4" d="M380.14 77.16a19 19 0 00-15.58-10.92h-2.27l.1 16v3.77l19.31 4.22a19.82 19.82 0 00.43-4.15 20.84 20.84 0 00-1.99-8.92z"/><path class="cls-8" d="M361.27 87.86L342 92.2a19.8 19.8 0 0038.66-.13l-19.36-4.21"/><path class="cls-9" d="M436.45 85c0 .15-10 .26-22.3.26s-22.3-.11-22.3-.26 10-.26 22.3-.26 22.3.09 22.3.26zm0-5.11c0 .14-10 .26-22.3.26s-22.3-.12-22.3-.26 10-.26 22.3-.26 22.3.11 22.3.26zm0-5.09c0 .15-10 .26-22.3.26s-22.3-.11-22.3-.26 10-.26 22.3-.26 22.3.12 22.3.26zm0 14.9c0 .15-10 .26-22.3.26s-22.3-.11-22.3-.26 10-.26 22.3-.26 22.3.12 22.3.26zm-13.81 5.15c0 .14-6.86.26-15.32.26S392 95 392 94.85s6.85-.26 15.31-.26 15.33.12 15.33.26z"/><path class="cls-8" d="M345.07 131.65h4.59v51.31h-4.59z"/><path class="cls-12" d="M353.94 149.08h4.59v33.88h-4.59z"/><path class="cls-8" d="M362.81 138.03h4.59v45.19h-4.59z"/><path class="cls-12" d="M371.68 133.63h4.59v49.33h-4.59z"/><path class="cls-8" d="M380.55 150.12h4.59v32.84h-4.59z"/><path class="cls-12" d="M389.42 156.56h4.59v26.4h-4.59z"/><path class="cls-8" d="M398.29 136.92h4.59v46.04h-4.59z"/><path class="cls-12" d="M407.16 145.22h4.59v37.74h-4.59z"/><path class="cls-8" d="M416.03 138.59h4.59v44.37h-4.59z"/><path class="cls-12" d="M424.9 152.73h4.59v30.23h-4.59z"/><path class="cls-8" d="M433.77 146.98h4.59v35.98h-4.59z"/><path class="cls-9" d="M440.24 186.53c0 .11-21.79.19-48.67.19s-48.67-.08-48.67-.19 21.78-.18 48.67-.18 48.67.08 48.67.18zm-88.61 4.04a30.7 30.7 0 01-6.82 0 30.7 30.7 0 016.82 0zm11.3.21a43.69 43.69 0 01-8.14 0 43.69 43.69 0 018.14 0zm9.65 0a43.79 43.79 0 01-8.15 0 43.79 43.79 0 018.15 0zm9.65 0a43.79 43.79 0 01-8.15 0 43.79 43.79 0 018.15 0zm9.64 0a43.79 43.79 0 01-8.15 0 43.79 43.79 0 018.15 0zm9.65 0a43.79 43.79 0 01-8.15 0 43.79 43.79 0 018.15 0zm9.65 0a43.79 43.79 0 01-8.15 0 43.79 43.79 0 018.15 0zm9.64 0a43.79 43.79 0 01-8.15 0 43.79 43.79 0 018.15 0zm9.65 0a43.79 43.79 0 01-8.15 0 43.79 43.79 0 018.15 0zm9.64 0a43.79 43.79 0 01-8.15 0 43.79 43.79 0 018.15 0z"/><path class="cls-13" d="M353.94 149.08h4.59v33.88h-4.59zm17.74-15.45h4.59v49.33h-4.59zm17.74 22.93h4.59v26.4h-4.59zm17.74-11.34h4.59v37.74h-4.59zm17.74 7.51h4.59v30.23h-4.59z"/><path class="cls-8" d="M223.18 72.92a4.42 4.42 0 11-4.42-4.42 4.42 4.42 0 014.42 4.42zm76.03-3.49c0 .14-14.91.26-33.3.26s-33.3-.12-33.3-.26 14.91-.26 33.3-.26 33.3.12 33.3.26zm-39.86 5.35a4.35 4.35 0 01-1 .1c-.67 0-1.63.06-2.82.08-2.37.05-5.65.08-9.28.08s-6.9 0-9.28-.08c-1.19 0-2.15 0-2.81-.08a4.25 4.25 0 01-1-.1 3.69 3.69 0 011-.1l2.81-.09c2.38 0 5.66-.07 9.28-.07s6.91 0 9.28.07l2.82.09a3.77 3.77 0 011 .1z"/><path class="cls-10" d="M45.35 55.83h139.91v159.68H45.35z"/><path class="cls-9" d="M185.26 215.51v-11.59c0-7.54 0-18.57-.06-32.58 0-28-.07-67.89-.12-115.51l.23.23H45.41l.26-.26v159.68l-.22-.22 101.48.12 28.37.05h10.06-9.97l-28.32.06-101.62.11h-.22V55.44h140.4v.23l-.12 115.65c0 14 0 25-.06 32.53v10.77c0 .5-.19.89-.19.89z"/><path class="cls-13" d="M173.23 137.37c0 .09-1.55-.78-4.5-1.71a28.81 28.81 0 00-12.9-1 27.89 27.89 0 00-8.51 2.74 40.13 40.13 0 00-8.36 6c-2.75 2.42-5.47 5.17-8.61 7.71a29.63 29.63 0 01-11 6 16.8 16.8 0 01-6.42.39 20.76 20.76 0 01-5.94-1.84 102.33 102.33 0 01-10-5.92 31.07 31.07 0 00-9.37-4.2 27.94 27.94 0 00-8.91-.68 28.7 28.7 0 00-12.29 4c-2.64 1.62-3.89 2.83-4 2.74a7 7 0 01.9-.87 19.72 19.72 0 012.86-2.18 28.1 28.1 0 0121.59-3.78A31.62 31.62 0 0197.5 149a106.79 106.79 0 009.89 5.82 16.92 16.92 0 0011.73 1.38 29.08 29.08 0 0010.64-5.76c3.09-2.48 5.83-5.21 8.61-7.64a40.46 40.46 0 018.59-6.06 28.51 28.51 0 0121.89-1.43 23.79 23.79 0 013.31 1.43 5.55 5.55 0 011.07.63z"/><path class="cls-8" d="M83.86 158.81h11.89v32.17H83.86zm50.47 0h11.89v32.17h-11.89zm16.83-18.89h11.89v51.06h-11.89zm-82.69 40.94h11.89v10.83H68.47zm32.21-7.52h11.9v17.64h-11.9zm16.83-4.05h11.89v21.69h-11.89z"/><path class="cls-9" d="M96.23 194.78c0 .26-2.87.47-6.42.47s-6.43-.21-6.43-.47 2.88-.48 6.43-.48 6.42.21 6.42.48zm-14.8 0c0 .26-2.88.47-6.42.47s-6.43-.21-6.43-.47 2.88-.48 6.43-.48 6.42.21 6.42.48zm83.97 0c0 .26-3.26.47-7.27.47s-7.26-.21-7.26-.47 3.25-.48 7.26-.48 7.27.21 7.27.48z"/><ellipse class="cls-9" cx="140.46" cy="194.78" rx="7.26" ry=".48"/><path class="cls-9" d="M129.4 194.78c0 .26-2.88.47-6.42.47s-6.43-.21-6.43-.47 2.88-.48 6.43-.48 6.42.21 6.42.48zm-17.4 0c0 .26-2.88.47-6.43.47s-6.42-.21-6.42-.47 2.87-.48 6.42-.48 6.43.21 6.43.48z"/><path class="cls-7" d="M68.19 79.11h97.21v40.37H68.19z"/><path class="cls-9" d="M88.38 91.87a4.53 4.53 0 11-4.53-4.53 4.53 4.53 0 014.53 4.53zm4.53-3.13h31.58v1.75H92.91z"/><path class="cls-14" d="M92.91 92.73h61.43v1.75H92.91z"/><path class="cls-13" d="M88.38 105.8a4.53 4.53 0 11-4.53-4.53 4.53 4.53 0 014.53 4.53zm4.53-3.13h16.12v1.75H92.91z"/><path class="cls-14" d="M92.91 106.66h61.43v1.75H92.91z"/><path class="cls-10" d="M471.15 27.17h153.64v175.35H471.15z"/><path class="cls-9" d="M624.79 202.52v-12.73c0-8.28 0-20.39-.06-35.78 0-30.74-.07-74.55-.12-126.84l.23.23H471.22l.26-.26v175.35l-.22-.22 111.45.11 31.15.06h11.04-10.95l-31.11.05-111.58.12h-.22V26.78H625v.23c0 52.35-.09 96.21-.11 127 0 15.36 0 27.46-.07 35.72v11.83c-.02.69-.03.96-.03.96z"/><path class="cls-7" d="M483.44 41.19H607.9v99.85H483.44z"/><path class="cls-9" d="M492.14 123.28h4.08v1.18h-4.08zm9.24 6.3h5.22v1.18h-5.22zm18.19 0h5.22v1.18h-5.22zm18.18 0h5.22v1.18h-5.22zm18.19 0h5.22v1.18h-5.22zm18.18 0h5.22v1.18h-5.22zm18.19 0h5.22v1.18h-5.22zm-100.17-22.02h4.08v1.18h-4.08zm0-29.59h4.08v1.18h-4.08zm0-14.87h4.08v1.18h-4.08zm.21 29.67h4.08v1.18h-4.08zm105.03 31.69a2.3 2.3 0 01-.43 0h-6.23l-18.18.08-60 .08H498.1v-.26c0-20 .06-37.69.09-50.35 0-6.3.06-11.36.07-14.87 0-1.72 0-3.07.05-4v-1a1.6 1.6 0 010-.35v1.35c0 .93 0 2.28.05 4 0 3.51 0 8.57.07 14.87 0 12.66.06 30.3.09 50.35l-.25-.26h14.21l60 .08 18.18.08h6.23a2.3 2.3 0 01.49.2z"/><path class="cls-9" d="M598.54 93.36c0 .14-21.55.26-48.12.26s-48.11-.12-48.11-.26 21.54-.26 48.11-.26 48.12.11 48.12.26zm0-14.8c0 .15-21.55.26-48.12.26s-48.11-.11-48.11-.26 21.54-.26 48.11-.26 48.12.12 48.12.26zm0-14.87c0 .15-21.55.26-48.12.26s-48.11-.11-48.11-.26 21.54-.26 48.11-.26 48.12.12 48.12.26zm0 44.46c0 .14-21.55.26-48.12.26s-48.11-.12-48.11-.26 21.54-.26 48.11-.26 48.12.11 48.12.26z"/><path class="cls-15" d="M503.3 121.28v-13.13l8.18-12.7 5.52 4.26L528.43 82l6.72 4.73 9.35-16.33 7.6 6.19 11.39-21.66 12.27 24.21L585.7 67l11.68-3.35v57.59z"/><path class="cls-12" d="M598.54 59h-3.19l-9 .07.11-.06-9.56 12.68-.06.08h-24.17l.22-.13-10.12 16.9-9.93 16.46-.2.33-.22-.31c-4.75-6.53-9.14-12.58-13-17.93h.35c-5 7.7-9.05 14.06-11.91 18.52-1.43 2.18-2.55 3.91-3.33 5.11l-.89 1.33a5.06 5.06 0 01-.32.44s.08-.16.27-.47l.83-1.37 3.23-5.18 11.76-18.61.16-.26.19.25c3.9 5.34 8.31 11.37 13.09 17.89h-.42c3.14-5.24 6.48-10.79 9.92-16.52s7-11.56 10.13-16.83l.07-.13h24.2l-.16.08 9.7-12.5h.07l9 .06h2.98z"/><path class="cls-12" d="M523.51 91.22a.93.93 0 01-1.85 0 .93.93 0 011.85 0zm27.76-15.78a.93.93 0 11-.93-.89.91.91 0 01.93.89zm21.57-3.87a.93.93 0 01-1.85 0 .93.93 0 011.85 0z"/><path class="cls-9" d="M602.3 155.88c0 .14-26.27.26-58.66.26S485 156 485 155.88s26.26-.26 58.66-.26 58.64.12 58.64.26zm0 6.34c0 .14-26.27.26-58.66.26s-58.66-.12-58.66-.26 26.26-.26 58.66-.26 58.66.12 58.66.26zm0 6.34c0 .15-26.27.26-58.66.26s-58.66-.11-58.66-.26 26.26-.26 58.66-.26 58.66.12 58.66.26zm0 6.35c0 .14-26.27.26-58.66.26s-58.66-.12-58.66-.26 26.26-.26 58.66-.26 58.66.11 58.66.26z"/></g><g id="Character_2" data-name="Character 2"><path class="cls-9" d="M556 172.42c3.21-5.39 4.15-12.58 5-18.79.39-2.93 1.07-7.1-1-8.93-2.2-2-2.41-5-4.93-6.52a7.8 7.8 0 00-8.36.07"/><path class="cls-16" d="M547.07 191.51a8.67 8.67 0 01-9.32-8.31c-.18-4.71-.34-9.48-.34-9.48s-7.14-.67-7.66-7.74-.28-23.39-.28-23.39a24.66 24.66 0 0124.89 1.6l-.44 24.89v13.38c-.04 4.54-2.38 8.7-6.85 9.05z"/><path class="cls-9" d="M536.79 157.35a3.63 3.63 0 014.84-1 4.11 4.11 0 011.36 5.14 5.39 5.39 0 01-3.46 2.62 2.71 2.71 0 00-2.13 2.89c.2 1.78 3.16 2.44 4.49 3.91 2.07 2.29 6.62 3.25 9.68 3.62s2.65.38 4.4-2.09a9.5 9.5 0 001.72-5.74l.32-15.64a22.39 22.39 0 00-.35-5.61 7.52 7.52 0 00-3-4.64c-1.72-1.13-3.9-1.23-5.86-1.86-2.45-.8-4.53-2.42-6.82-3.59s-5.1-1.87-7.4-.72c-1.65.83-2.75 2.48-4.36 3.39-2.29 1.3-5.4 1-6.51 4.37a5.72 5.72 0 000 3.59c1.55 4.57 7.22 6.42 11.3 4.44.08.78-.69 2.5.13 5 .26.78.35 2 1.57 2"/><path class="cls-17" d="M538.06 161.77c.05-.05.29.37.88.33a1.62 1.62 0 001.32-1.61 1.77 1.77 0 00-1.21-1.76c-.58-.21-1-.1-1-.19s.39-.31 1.12-.16a2 2 0 011.63 2.14 1.94 1.94 0 01-1.84 1.95 1.07 1.07 0 01-.79-.4c-.17-.17-.17-.29-.11-.3z"/><path class="cls-15" d="M545.42 140.45s.15-.27.59-.6a4.69 4.69 0 012.15-.83 6.19 6.19 0 013.38.51 7.81 7.81 0 013.12 2.79 16 16 0 012.2 7.16 18.05 18.05 0 01.18 3.09 18 18 0 01-.55-3 17.15 17.15 0 00-2.26-6.92 7.52 7.52 0 00-2.89-2.64 6.11 6.11 0 00-3.14-.59 6 6 0 00-2.78 1.03zm-19.91 7.23h-.27a2.08 2.08 0 01-.7-.31 2.54 2.54 0 01-.82-.93 2.31 2.31 0 01-.23-1.63 2.7 2.7 0 011.15-1.65 3.82 3.82 0 012.24-.44 3.06 3.06 0 002.13-.54 15.11 15.11 0 001.73-1.87 8.88 8.88 0 014.4-2.54 9.46 9.46 0 014.15-.09 8.11 8.11 0 012.61 1 3.12 3.12 0 01.8.63 12 12 0 00-3.48-1.27 9.38 9.38 0 00-4 .2 8.53 8.53 0 00-4.14 2.43 15.46 15.46 0 01-1.8 1.92 2.85 2.85 0 01-1.22.54 6.53 6.53 0 01-1.23.07 3.45 3.45 0 00-2 .32 2.39 2.39 0 00-1 1.37 2.27 2.27 0 00.81 2.31 5.3 5.3 0 00.87.48zm18.91 19.67s.36-.17.94-.56a5.84 5.84 0 001.92-2.15 5.37 5.37 0 00.33-4.15 5.44 5.44 0 00-1.28-2.12 10.87 10.87 0 00-2.21-1.62c-.83-.48-1.67-.92-2.44-1.44a8.46 8.46 0 01-2-1.85 8.56 8.56 0 01-1.65-4.18 7.65 7.65 0 01.23-3 5.32 5.32 0 01.28-.78c.08-.17.13-.25.15-.25a10.26 10.26 0 00-.29 4 8.38 8.38 0 001.67 3.94 7.66 7.66 0 001.86 1.71c.74.5 1.57.94 2.41 1.42a10.65 10.65 0 012.31 1.71 5.78 5.78 0 01.92 6.8 5.58 5.58 0 01-2.15 2.15 2.33 2.33 0 01-1 .37z"/><path class="cls-15" d="M556.68 157a3.69 3.69 0 01-.91.2 12.82 12.82 0 01-2.54.08 15.8 15.8 0 01-7.89-2.71 12.48 12.48 0 01-5.17-6.51 5.45 5.45 0 01-.11-2.56 2.11 2.11 0 01.35-.87 6.31 6.31 0 00.11 3.33 12.86 12.86 0 005.12 6.18 16.55 16.55 0 007.62 2.77c2.1.21 3.41-.04 3.42.09z"/><path class="cls-9" d="M557.81 152.14a12.47 12.47 0 019.74-4.42c3.69.21 7.28 2.75 8.18 6.33.68 2.7-.15 5.5-.5 8.26s0 6 2.24 7.61c1.35 1 3.11 1.16 4.73 1.56s3.37 1.21 3.93 2.79c.64 1.81-.68 3.86-2.44 4.63a8.94 8.94 0 01-5.69.1 4.75 4.75 0 01-2.1 5.67 6.25 6.25 0 01-6.28-.26 9.43 9.43 0 01-3.84-5.2c-1.2 2.13-4.39 2.58-6.43 1.22a6.77 6.77 0 01-2.6-6.46 12.58 12.58 0 013.26-6.46 16.27 16.27 0 002.28-2.9 3.7 3.7 0 00.14-3.53 2.14 2.14 0 00-3.15-.64"/><path class="cls-12" d="M562.06 159.55a2.43 2.43 0 01-2.12 0 5.12 5.12 0 01-3.09-4 5.26 5.26 0 01.34-2.87 5.5 5.5 0 011.35-1.91 3.46 3.46 0 011.86-1 14.49 14.49 0 00-1.6 1.3 5.22 5.22 0 00-1.43 4.44 5 5 0 002.71 3.77 4.76 4.76 0 001.98.27z"/><path class="cls-17" d="M537.17 173.61a3.45 3.45 0 01-1.61-.16 8.72 8.72 0 01-5.73-5.06 3.45 3.45 0 01-.36-1.58 9.36 9.36 0 01.7 1.43 10.05 10.05 0 002.29 2.95 10.26 10.26 0 003.21 1.91 8.56 8.56 0 011.5.51z"/><path class="cls-15" d="M564.39 179.4s-.12 0-.34-.05a3.25 3.25 0 01-.93-.41 5.07 5.07 0 01-2-3.05 6.27 6.27 0 01-.09-2.57 10.64 10.64 0 01.93-2.79c.89-1.86 2.3-3.63 3.34-5.69a10.23 10.23 0 001-3.15 5.91 5.91 0 00-.34-3 6.06 6.06 0 00-3.58-3.55 6.5 6.5 0 00-3.5-.22c-.83.18-1.25.41-1.27.36s.09-.08.29-.19a4.63 4.63 0 01.93-.36 6.25 6.25 0 017.58 3.78 6.44 6.44 0 01.4 3.25 10.2 10.2 0 01-1.09 3.32c-1.07 2.12-2.48 3.87-3.37 5.67a7.53 7.53 0 00-.91 5.05 5 5 0 001.76 3 9 9 0 001.19.6z"/><path class="cls-15" d="M575.06 184.57a1.29 1.29 0 01-.45 0 4.76 4.76 0 01-1.26-.23 7.06 7.06 0 01-3.68-2.87 10.87 10.87 0 01-1.59-6.73 71 71 0 011.36-8.38 19.15 19.15 0 00.3-4.3 11 11 0 00-.9-3.87 7.09 7.09 0 00-5-4.14 10.34 10.34 0 00-4.55 0c-1.06.24-1.63.47-1.65.43a1.44 1.44 0 01.4-.21 9.16 9.16 0 011.2-.42 10.07 10.07 0 014.69-.18 7.52 7.52 0 013 1.35 7.6 7.6 0 012.32 3 11.31 11.31 0 011 4 19.53 19.53 0 01-.29 4.42 74.73 74.73 0 00-1.4 8.31 10.66 10.66 0 001.44 6.55 7.06 7.06 0 003.44 2.88 10 10 0 001.62.39z"/><path class="cls-16" d="M577.19 216.77l-15.06 11.75 6.32 10.37 18.13-13.36-9.39-8.76zm-40.28-39.46s.07-1.26-3.21-1.44a33.63 33.63 0 00-3.65-.12 8.32 8.32 0 01-1.57-3.05 9.2 9.2 0 01.7-3.09l3.32-.31-.9-2.25-2.34.16-6.62.8-2.64 11.58-18 33.7a8.7 8.7 0 003.41 12.71c4.66 2.25 10.92-2.54 12.65-7.42l10-37.49 3.51-2.74 5-.93m-40.82 224.2l24.58-141.42.15-.62c4.18-16.59 10.63-21.91 10.63-21.91l37.6 2.33c3.2 5.75 3.6 19.55 3.6 19.55.44 1.69-7.94 138.71-7.94 138.71l-12.58-.34L545 268.29l-36.65 133.87z"/><path class="cls-18" d="M495.46 402.89l.05-1.28 12.94.38-.11 4.21h-.81c-3.56.08-18.11.21-20.46-.52-2.63-.79 8.39-2.79 8.39-2.79z"/><g class="cls-19"><path class="cls-14" d="M503.67 406a4.11 4.11 0 011.72-2.51 4.58 4.58 0 013-.79l-.1 3.35z"/></g><g class="cls-19"><path class="cls-14" d="M490.07 404s-3.87.93-3.41 1.53 15.17 1 21.68.63v-.27l-17.16-.31s-.36-1.49-1.11-1.58z"/></g><path class="cls-9" d="M508.53 405.93h-3.21c-2 0-4.71 0-7.73-.08s-5.76-.2-7.73-.32l-2.34-.15-.64-.05h-.22.86l2.34.11c2 .09 4.71.2 7.73.27s5.75.11 7.73.12h3.21z"/><path class="cls-9" d="M491.16 405.8a5 5 0 00-.41-1.05 4.46 4.46 0 00-.77-.85 1.66 1.66 0 01.91.78 1.5 1.5 0 01.27 1.12zm3.84-1.69s-.22-.19-.4-.47a1.34 1.34 0 01-.26-.55s.22.19.4.47a1.34 1.34 0 01.26.55zm1.07-.49s-.23-.1-.44-.29-.37-.37-.34-.4.23.1.45.29.36.37.33.4zm.7-1.11a1.61 1.61 0 01-.68.06 1.54 1.54 0 01-.67-.08 1.57 1.57 0 01.68-.06 1.54 1.54 0 01.67.08zm.23-.79a1.4 1.4 0 01-.76.18 1.49 1.49 0 01-.77-.11 3.58 3.58 0 01.76 0 4.31 4.31 0 01.77-.07z"/><path class="cls-9" d="M494.61 403.05a2.35 2.35 0 01-.83 0 5.16 5.16 0 01-.87-.21 2.9 2.9 0 01-.5-.2.46.46 0 01-.2-.25.3.3 0 01.13-.3 1.59 1.59 0 011.87.46 1.26 1.26 0 01.25.52v.21a2.17 2.17 0 00-.36-.67 1.45 1.45 0 00-.69-.44 1.41 1.41 0 00-1 0c-.13.09-.09.23.06.32a2.77 2.77 0 00.46.2 8.47 8.47 0 00.84.23c.52.08.84.08.84.13z"/><path class="cls-9" d="M494.39 403.09a.82.82 0 01-.08-.54 1.25 1.25 0 01.25-.56.81.81 0 01.7-.37.3.3 0 01.24.36.75.75 0 01-.15.34 2.69 2.69 0 01-.4.46 1.18 1.18 0 01-.49.29s.17-.13.41-.37a3 3 0 00.36-.45c.12-.16.2-.45 0-.49a.76.76 0 00-.56.31 1.38 1.38 0 00-.25.5 3.24 3.24 0 00-.03.52zm13.97-.45h-.95a4.37 4.37 0 00-2.1.74 4 4 0 00-1.35 1.67c-.21.51-.24.86-.27.85a.64.64 0 010-.24 2.35 2.35 0 01.16-.64 3.63 3.63 0 011.36-1.75 4.17 4.17 0 012.18-.73 4.6 4.6 0 01.71 0 1.57 1.57 0 01.26.1zm-6.28 2.13a7.75 7.75 0 01-1.88.12 7.24 7.24 0 01-1.88-.19s.84 0 1.88.05 1.88-.02 1.88.02z"/><path class="cls-9" d="M504.61 404.83s-.08.17-.17.34-.14.34-.19.33-.06-.19.05-.39.28-.31.31-.28zm.98-1.07s-.06.15-.19.27-.28.2-.31.17.06-.15.2-.28.27-.19.3-.16zm1.41-.47s-.18 0-.37.09-.33.15-.37.12.08-.19.32-.26.42.01.42.05zm.94-.21s-.06.09-.16.13-.21 0-.23 0 .06-.1.17-.14.21-.07.22.01z"/><path class="cls-18" d="M558.66 181.29a24.73 24.73 0 0110 3.92c11.9 7.71 31.79 24 30.14 31.56-1.46 6.43-16.97 14.23-16.97 14.23l-10.08-12.11 6.18-3.54-15.18-10.1z"/><path class="cls-18" d="M565.44 205.83l-.5 1.81-1.74 8.36-.44 12.25c9 11.61 9.16 21.39 9.16 21.39L526.35 255c0-9 3.29-20.34 3.29-20.34 2.64-4.47 2.51-17.85 2-18.34-2.85-2.82-3.54-4.89-1.26-8.51 0 0-14.13 14.84-15.59 16.18-5 4.57-9.79 3.3-12 1.31-6.24-5.57.17-12.75.17-12.75l23.79-27.27a11.77 11.77 0 016.19-3.77c2.53-.6 5.09-.91 5.09-.91l15.89.14a26 26 0 014.74.58 11.35 11.35 0 016.93 8.6c1.41 6.8-.15 15.91-.15 15.91z"/><path class="cls-15" d="M565.94 194.91a6.64 6.64 0 01.09 1.32c0 .85 0 2.08-.08 3.6a96.42 96.42 0 01-1.57 11.79c-.3 1.55-.61 3-.94 4.44V216c-.14 3.54-.28 6.6-.4 8.77-.07 1-.12 1.86-.17 2.55a3.83 3.83 0 01-.12.92 5.2 5.2 0 010-.92v-2.56c0-2.18.11-5.24.22-8.78v-.05c.31-1.38.62-2.87.92-4.42.87-4.55 1.44-8.7 1.71-11.71.14-1.51.21-2.74.25-3.58a6.4 6.4 0 01.09-1.31zm.15 12.25a95.07 95.07 0 018.32 5.44 92.26 92.26 0 018 5.87 96.85 96.85 0 01-8.32-5.44 94.19 94.19 0 01-8-5.87zm-29.46-17.86s.09 0 .23.18a4.11 4.11 0 01.57.62 6.78 6.78 0 011.23 2.82 9.32 9.32 0 01-.26 4.57 18.93 18.93 0 01-2.55 5 18.42 18.42 0 01-1.88 2.2c-.66.68-1.37 1.23-2 1.8-1.26 1.13-2.35 2.2-3.25 3.11s-1.6 1.68-2.09 2.2a5.32 5.32 0 01-.8.79 4.5 4.5 0 01.64-.92c.45-.57 1.12-1.37 2-2.32s1.94-2.06 3.19-3.22c.63-.59 1.33-1.14 2-1.79a17.53 17.53 0 001.81-2.16 18.76 18.76 0 002.53-4.81 9.29 9.29 0 00.35-4.35 8.23 8.23 0 00-1.72-3.72z"/><path class="cls-15" d="M531.33 229.59l.52-6.13h31.08l-.17 4.79-31.43 1.34zm-26.52-18.28c.06.08-.78.59-1.72 1.8a8.28 8.28 0 00.44 10.86c1 1.13 1.91 1.57 1.86 1.66a2 2 0 01-.63-.27 7.08 7.08 0 01-1.49-1.13 8.22 8.22 0 01-.47-11.35 7.13 7.13 0 011.4-1.25 1.63 1.63 0 01.61-.32z"/><path class="cls-18" d="M564.37 398.27l3.52 8.2-15.77-.18-.34-8.36 12.59.34z"/><path class="cls-9" d="M552 404.87a14.57 14.57 0 002.21.11h5.33l5.33-.11a16.35 16.35 0 002.2-.11 14.36 14.36 0 00-2.2-.11h-5.34l-5.32.11a14.72 14.72 0 00-2.21.11z"/><path class="cls-9" d="M558.58 398.09a11.15 11.15 0 00-.07 3.33 11.55 11.55 0 00.43 3.3 11.15 11.15 0 00.07-3.33 11.63 11.63 0 00-.43-3.3z"/><path opacity=".6" fill="#fff" d="M567.87 406.64l-15.77-.52-.1-1.5 15.07.13.8 1.72"/><path class="cls-4" d="M570.92 241.75c11.86 37.45-3.43 82.91.23 126.55.36 4.28 2.1 9.41-1.9 11.85a6.54 6.54 0 01-3.62.89c-3.21-.11-5.88-1.77-8.74-2.91a26 26 0 00-17.2-.67c-3.79 1.18-7.54 3.27-11.46 2.67-5.21-.78-8.58-5.93-13.38-8.11-4.49-2-9.67-1.28-14.6-1.41h-.15a11.06 11.06 0 01-10.21-14c7.16-26.23 30.92-111.46 41.44-127l31.43-1.34c2.9 3.48 6.63 8.73 8.16 13.48z"/><path class="cls-9" d="M559.9 259.38a13.24 13.24 0 01-1.71 2.15 47.35 47.35 0 01-4.64 4.74 31.18 31.18 0 01-5.48 3.77 11.76 11.76 0 01-2.49 1.15c-.11-.18 3.73-2 7.63-5.31 1.93-1.69 3.53-3.4 4.71-4.6a14.76 14.76 0 011.98-1.9z"/><path d="M546 273.51a134 134 0 00-5.27 80.16c.57 2.29 1.14 4.89-.16 6.86-1.69 2.54-5.77 2.36-8.08.37s-3.24-5.14-3.82-8.13c-4.31-22.35 3.51-44.8 11.95-65.93" opacity=".1"/></g><g id="Character_1" data-name="Character 1"><path class="cls-9" d="M308.11 286.13h59.59v2.9h-59.59z"/><path class="cls-9" d="M298.88 289.03l-11.18-41.88h46.53l10.12 41.88h-45.47z"/><path class="cls-5" d="M341.56 285.86H300l-9.68-36.78h41.78l9.46 36.78z"/><path class="cls-3" d="M291 251.72h41.8l-.7-2.64h-41.78z"/><path class="cls-2" d="M295.53 250.4a.46.46 0 00.46.46.46.46 0 000-.91.46.46 0 00-.46.45zm-1.53 0a.46.46 0 10.46-.45.45.45 0 00-.46.45zm-1.61 0a.45.45 0 00.45.46.46.46 0 100-.91.45.45 0 00-.45.45z"/><path class="cls-8" d="M322.42 267.84l4.57 5.23a6.43 6.43 0 002.81-5.26c0-3.66-3.36-6.66-7.41-6.64s-7.37 3-7.36 6.7z"/><path class="cls-9" d="M321.84 268.68a9.89 9.89 0 011.3 1.31c.82.87 2 2.15 3.39 3.72l.15.17-.19.15a7.94 7.94 0 01-7.72.76 7.58 7.58 0 01-3.17-2.55 6.62 6.62 0 01-1.18-3.44v-.23h5.49a11.11 11.11 0 011.94.1 15 15 0 01-2 .15c-1.26.06-3 .13-5.17.18l.22-.23A6.13 6.13 0 00316 272a7.2 7.2 0 003 2.36 7.55 7.55 0 007.25-.64v.33c-1.33-1.55-2.42-2.86-3.19-3.79a12.37 12.37 0 01-1.22-1.58zm-2.99-4.79a.42.42 0 00.83 0 .42.42 0 00-.42-.42.41.41 0 00-.41.42z"/><path class="cls-9" d="M310.62 260.89a23.91 23.91 0 014.94-.28h.77l.07.08a18.77 18.77 0 012.86 3.2 19.68 19.68 0 01-3.22-2.84l.18.08h-.66a23.23 23.23 0 01-4.94-.24z"/><path class="cls-9" d="M301.26 266.13a15.28 15.28 0 01-.47-1.93c-.28-1.27-.68-3.13-1.13-5.4l-.05-.25h.25l10.35-.09c-.06 0 .48.4.25.21v.19l.05.25.09.49.18 1 .36 1.89c.22 1.23.44 2.41.65 3.53l.05.28h-.29c-3.1 0-5.72-.05-7.53-.09l-2.1-.05a3 3 0 01-.71-.06 4.79 4.79 0 01.8-.06l2.15-.07c1.82-.06 4.38-.11 7.39-.15l-.23.28c-.22-1.11-.44-2.29-.68-3.52-.12-.62-.24-1.25-.37-1.89l-.18-1-.09-.49v-.42l.26.21h-10.39l.2-.25c.4 2.2.7 4 .9 5.33a18.26 18.26 0 01.29 2.06zm16.97 6.09a.42.42 0 00.42.41.41.41 0 00.41-.42.41.41 0 00-.41-.41.42.42 0 00-.42.42z"/><path class="cls-9" d="M311.14 272.24a14.16 14.16 0 013.75-.27 13.3 13.3 0 013.76.25 14.2 14.2 0 01-3.76.27 13.25 13.25 0 01-3.75-.25z"/><path class="cls-9" d="M301.3 275.51a9.76 9.76 0 01-.46-1.38c-.27-.93-.66-2.29-1.12-4l-.06-.24h.25c2.81 0 6.56-.09 10.66-.1-.22-.18.31.23.26.19v.16l.05.18.09.35.18.71c.12.46.23.92.35 1.38.23.9.45 1.78.66 2.62l.08.3H312c-3.16 0-5.85 0-7.74-.08l-2.18-.06a3.19 3.19 0 01-.74-.06 4.41 4.41 0 01.83-.07l2.23-.08c1.89-.05 4.53-.11 7.6-.14l-.23.31-.69-2.62c-.11-.45-.23-.91-.35-1.37l-.18-.71-.1-.35v-.27c-.05 0 .48.37.25.2h-10.66l.19-.24c.39 1.63.7 3 .91 3.93a14.31 14.31 0 01.16 1.44zm.78-14.51a12.18 12.18 0 013.54-.27 12.48 12.48 0 013.54.24 12 12 0 01-3.54.28 11.85 11.85 0 01-3.54-.25zm.09 1.18a12.32 12.32 0 013.56-.27 12.68 12.68 0 013.56.24 12.16 12.16 0 01-3.56.28 12.78 12.78 0 01-3.56-.25zm.21 1.12a11.3 11.3 0 013.43-.28 11.18 11.18 0 013.44.25 11.5 11.5 0 01-3.43.27 11.77 11.77 0 01-3.44-.24z"/><path class="cls-9" d="M302.29 272.15a11.09 11.09 0 013.37-.27 11.46 11.46 0 013.38.24 10.93 10.93 0 01-3.38.28 11.11 11.11 0 01-3.37-.25zm.42 1.28a8.41 8.41 0 012.87-.27 8.17 8.17 0 012.88.25 8.41 8.41 0 01-2.87.27 7.9 7.9 0 01-2.88-.25z"/><path class="cls-18" d="M237.55 288.89v5.49h3.6V405.6h7.38V294.38h39.17V405.6h7.38V294.38h169.93v111.19h7.38V294.38h3.19v-5.49H237.55z"/><path class="cls-9" d="M397.59 330.33a57.58 57.58 0 009.59 0 57.58 57.58 0 00-9.59 0z"/><ellipse class="cls-15" cx="327.68" cy="331.34" rx=".26" ry=".13"/><path class="cls-22" d="M374.71 232.48l-27.57-28-.59-3c-.12-.56-.23-1.18-.34-1.88a7.31 7.31 0 010-2.47 11.31 11.31 0 01.85-2.93c.47-.81-.28-1.79-1.05-1.46s-2.1 2.54-2.38 5.57-2.87-1-3.84-2.44-4.16-5.78-4.82-5.83c-1-.07-1.23 1-.23 2.41s3.7 5.89 2.93 6.37a3.6 3.6 0 00-3.81 1.89c-.69 1.33-1.47 3.23-.83 4.1a50 50 0 004.39 4.66l.93.79s23.85 34.56 29.05 35.68c3.23.7 53.21 4.85 53.21 4.85l3.78-13.79z"/><path class="cls-22" d="M332.83 204.19l2.55 2.45a2.77 2.77 0 001 .7.91.91 0 001.26-1.2 3 3 0 00-.59-.91c-.82-1-1.65-2-2.47-3"/><path class="cls-23" d="M334.54 202.25a6.52 6.52 0 011.26 1.23l1.26 1.43a4.59 4.59 0 01.7 1 1.33 1.33 0 01-.07 1.42 1.23 1.23 0 01-1.39.32 2.83 2.83 0 01-1-.7l-1.3-1.41a5.92 5.92 0 01-1.13-1.35 6.43 6.43 0 011.39 1.08l1.41 1.28a2.47 2.47 0 00.83.57.76.76 0 00.82-.16.84.84 0 000-.88 4.84 4.84 0 00-.61-.86l-1.17-1.5a5.55 5.55 0 01-1-1.47z"/><path class="cls-22" d="M334.64 202.41l2.55 2.45a2.9 2.9 0 001 .7 1 1 0 001.11-.18 1 1 0 00.15-1 3 3 0 00-.59-.91l-2.47-3"/><path class="cls-23" d="M336.35 200.47a6.52 6.52 0 011.26 1.23l1.26 1.43a4.59 4.59 0 01.7 1 1.33 1.33 0 01-.07 1.42 1.25 1.25 0 01-1.39.32 2.83 2.83 0 01-1-.7l-1.34-1.36a5.92 5.92 0 01-1.13-1.35 6 6 0 011.39 1.08l1.41 1.28a2.8 2.8 0 00.83.57.76.76 0 00.82-.16.84.84 0 000-.88 4.84 4.84 0 00-.61-.86l-1.17-1.5a5.73 5.73 0 01-.96-1.52z"/><path class="cls-22" d="M336.62 201l2.55 2.45a3.12 3.12 0 001 .7 1.05 1.05 0 001.12-.18 1 1 0 00.15-1 3 3 0 00-.59-.91l-2.48-3"/><path class="cls-23" d="M338.33 199c.06 0 .54.43 1.27 1.23l1.26 1.43a5 5 0 01.7 1 1.38 1.38 0 01-.07 1.42 1.26 1.26 0 01-1.4.32 2.81 2.81 0 01-1-.71l-1.33-1.36a6 6 0 01-1.14-1.34c.05-.06.58.36 1.39 1.08l1.42 1.28a2.39 2.39 0 00.83.56.73.73 0 00.82-.16.87.87 0 000-.87 4.84 4.84 0 00-.61-.86l-1.18-1.5a6.51 6.51 0 01-.96-1.52z"/><path class="cls-23" d="M340.65 205.18c0-.08.64-.21 1.56.08l-.3.25a4.38 4.38 0 01-.06-1.75 4.44 4.44 0 01.95-2.13c.4-.46.73-.64.77-.6a9.34 9.34 0 00-1.21 2.81 5.24 5.24 0 000 1.58v.4l-.35-.15c-.76-.34-1.36-.38-1.36-.49z"/><path class="cls-22" d="M410.82 190.49l.12 38.36-15 .72-.61-9.2s-7.21 1.1-8.72-4.33c-1-3.47-.72-30.27-.72-30.27z"/><path class="cls-9" d="M382.21 189.55c1.11 2.29 6.39 6.49 6.39 6.49l2.38 6.39c2.07-1.62 4.85-1.53 5.38 2.11.38 2.63-2.89 3.16-2.89 3.16 1.91 3.24 3.2 5.87 6 9 3 3.33 4.68 3.67 7.93 3.72h3.6s7.34-6.13 5.89-22.29-16-11.45-19.44-15.48c-5.69-6.65-18.94-.75-15.24 6.9z"/><path class="cls-15" d="M416 211.59a5.16 5.16 0 01-1.78-.08 9.18 9.18 0 01-4.22-2.21 23.38 23.38 0 01-4.33-5.73c-1.4-2.28-2.92-4.94-5.49-6.72s-5.67-2.1-8.29-2.63a15.64 15.64 0 01-6.69-2.55 7.2 7.2 0 01-2.69-4 4.21 4.21 0 01-.07-1.78 6.46 6.46 0 00.15 1.76 7.24 7.24 0 002.69 3.87 15.65 15.65 0 006.64 2.48c2.62.53 5.71.87 8.37 2.65s4.16 4.51 5.55 6.79a23.32 23.32 0 004.26 5.72 9.44 9.44 0 004.21 2.24 6.94 6.94 0 001.3.15z"/><path class="cls-15" d="M416.88 198.45l-.77-.24a11.74 11.74 0 00-2.25-.5 5.07 5.07 0 00-3.47.78 2.83 2.83 0 00-1.2 1.82 2.51 2.51 0 00.7 2.28 1.89 1.89 0 001.21.48 2.59 2.59 0 001.33-.36 4.07 4.07 0 001.81-2.31 5.74 5.74 0 00-1.6-6.07 5.8 5.8 0 00-3.23-1.44 10 10 0 00-3.72.49 26.38 26.38 0 01-3.85.93 15.91 15.91 0 01-4.08 0 13.49 13.49 0 01-3.93-1.09 4.81 4.81 0 01-2.7-2.84 3.73 3.73 0 01.92-3.63 3.19 3.19 0 013.51-.52 2.75 2.75 0 011.31 1.23 2.94 2.94 0 01.27 1.72 3.9 3.9 0 01-1.75 2.74 5.52 5.52 0 01-2.95.82 8.57 8.57 0 01-2.81-.43 10 10 0 01-4.12-2.54 10.53 10.53 0 01-2.84-5.19c-.09-.53-.13-.8-.13-.8s.07.27.17.79a11.61 11.61 0 00.77 2.17 10.66 10.66 0 002.12 2.95 9.87 9.87 0 004.08 2.48 8.52 8.52 0 002.75.41 5.44 5.44 0 002.87-.8 3.73 3.73 0 001.66-2.62 2.57 2.57 0 00-1.48-2.75 3 3 0 00-3.29.49 3.49 3.49 0 00-.86 3.42 4.58 4.58 0 002.59 2.71 13.53 13.53 0 003.87 1.07 15.53 15.53 0 004 0 25.63 25.63 0 003.82-.92 10.45 10.45 0 013.79-.49 5.91 5.91 0 015 7.77 4.24 4.24 0 01-1.89 2.39 2.78 2.78 0 01-1.42.38 2.1 2.1 0 01-1.3-.53 2.64 2.64 0 01-.73-2.42 3 3 0 011.27-1.89 5.14 5.14 0 013.54-.76 11.23 11.23 0 012.25.54c.51.17.76.28.76.28z"/><path class="cls-18" d="M397.87 396.23L393 390l11.69-9.24 7.25 9.1-.68.62c-3.09 2.73-15.88 13.65-18.56 14.7-3 1.13 5.17-8.95 5.17-8.95z"/><g class="cls-24"><path class="cls-14" d="M394 401.33s-2.69 3.75-1.8 4 14.23-10.32 19.7-15.49l-.22-.24-15.44 12.4s-1.52-1.18-2.24-.67z"/></g><path class="cls-9" d="M411.88 389.43l-.19.18-.55.49-2.05 1.77c-1.74 1.48-4.18 3.5-6.91 5.67s-5.26 4.07-7.11 5.43l-2.19 1.59c-.23.16-.42.3-.61.42a.82.82 0 01-.21.14l.19-.16.59-.45c.58-.45 1.3-1 2.16-1.64 1.82-1.38 4.33-3.31 7.06-5.47s5.19-4.17 6.95-5.63l2.09-1.77.57-.46q.2-.12.21-.11z"/><path class="cls-9" d="M396.39 402.2a6.5 6.5 0 00-1.2-.7 5.24 5.24 0 00-1.37-.24 2 2 0 011.43.07 2 2 0 011.14.87zm2.06-4.48s-.34 0-.72-.16a1.81 1.81 0 01-.67-.32c0-.05.35 0 .73.15s.68.28.66.33zm.55-1.25s-.28.07-.63 0-.62-.08-.62-.13.29-.07.63-.05.62.13.62.18zm-.27-1.57s-.22.29-.55.56-.63.45-.66.41.21-.28.55-.55.63-.46.66-.42zm-.41-.9a1.51 1.51 0 01-.53.73c-.37.35-.75.51-.77.46s.3-.26.65-.59.61-.67.65-.6z"/><path class="cls-9" d="M397.25 397a2.74 2.74 0 01-.76.59 5.37 5.37 0 01-.93.46 2.72 2.72 0 01-.61.17.51.51 0 01-.37-.08.4.4 0 01-.13-.39 1.77 1.77 0 012-.95 1.9 1.9 0 01.64.31.57.57 0 01.18.19 2.66 2.66 0 00-.85-.37 1.66 1.66 0 00-1 .09 1.5 1.5 0 00-.85.77c-.05.18.11.28.3.26a2.84 2.84 0 00.57-.16 5.86 5.86 0 00.93-.41c.57-.26.86-.48.88-.48z"/><path class="cls-9" d="M397.08 397.21a1 1 0 01-.5-.46 1.57 1.57 0 01-.22-.71 1 1 0 01.32-.88.38.38 0 01.5.17 1.08 1.08 0 01.14.43 3.09 3.09 0 010 .74 1.39 1.39 0 01-.19.64s0-.25.06-.65a3.52 3.52 0 000-.7c0-.24-.18-.58-.4-.47s-.24.47-.24.71a1.56 1.56 0 00.18.66 4.1 4.1 0 00.35.52zm12.03-10.79s-.36.23-.84.71a4.67 4.67 0 00-1.13 4.86c.22.64.47 1 .44 1s-.08-.07-.19-.24a3.71 3.71 0 01-.39-.75 4.53 4.53 0 01-.19-2.68 4.59 4.59 0 011.35-2.31 3.31 3.31 0 01.66-.49c.18-.07.28-.11.29-.1z"/><path class="cls-9" d="M404.05 382.51a25.4 25.4 0 012 2.32 23.13 23.13 0 011.86 2.44 27.38 27.38 0 01-2-2.32 28.06 28.06 0 01-1.86-2.44zm1.19 10.59a12.26 12.26 0 01-3.39 2.74s.77-.6 1.71-1.36 1.64-1.41 1.68-1.38zm2.29-1.81c.05 0 .06.21.12.45s.15.42.1.45-.2-.13-.27-.41 0-.5.05-.49zm.01-1.76s.07.19 0 .41-.09.39-.13.38-.08-.18 0-.4.08-.39.13-.39zm.85-1.46s-.13.16-.26.36-.17.38-.22.38-.09-.24.07-.48.39-.33.41-.26zm.7-.93v.25c0 .11-.16.19-.2.16s0-.14.05-.25.06-.19.15-.16z"/><path d="M408.85 386.12l-11.83 9.03-1.1-1.42 12.43-8.43.5.82z"/><path class="cls-18" d="M344.1 402.53v-8l14.9-.05.09 11.64-.92.06c-4.11.24-20.92.95-23.67.12-3.05-.87 9.6-3.77 9.6-3.77z"/><g class="cls-24"><path class="cls-14" d="M337.92 404.16s-4.43 1.3-3.87 2 17.56.66 25.06 0v-.34l-19.84.26s-.48-1.88-1.35-1.92z"/></g><path class="cls-9" d="M359.32 405.81h-.25l-.74.05-2.71.13c-2.28.09-5.44.18-8.94.19s-6.65 0-8.94-.1L335 406h-.99 3.71c2.29 0 5.45.07 8.94 0s6.65-.08 8.94-.14l2.71-.07h1z"/><path class="cls-9" d="M339.25 406.31a5.85 5.85 0 00-.51-1.29 5.6 5.6 0 00-.93-1 2.4 2.4 0 011.44 2.32zm4.39-2.25s-.25-.23-.47-.57-.37-.64-.32-.67.25.23.47.57.36.61.32.67zm1.2-.64s-.27-.12-.52-.35-.44-.45-.41-.48.27.11.53.34.44.45.4.49zm.76-1.42a1.86 1.86 0 01-.78.1 1.68 1.68 0 01-.82-.1 1.86 1.86 0 01.78-.1 1.68 1.68 0 01.82.1zm.26-1a1.52 1.52 0 01-.87.26 1.65 1.65 0 01-.9-.11 4 4 0 01.89-.07 5.79 5.79 0 01.88-.08z"/><path class="cls-9" d="M343.13 402.76a2.71 2.71 0 01-1 0 5.24 5.24 0 01-1-.22 2.55 2.55 0 01-.58-.24.47.47 0 01-.24-.29.38.38 0 01.14-.39 1.75 1.75 0 012.17.51 1.69 1.69 0 01.32.63v.26a2.63 2.63 0 00-.43-.81 1.72 1.72 0 00-.82-.53 1.53 1.53 0 00-1.15.08c-.15.12-.09.29.08.39a2.14 2.14 0 00.54.23 5.74 5.74 0 001 .25c.6.1.97.1.97.13z"/><path class="cls-9" d="M342.88 402.81a.92.92 0 01-.11-.66 1.61 1.61 0 01.25-.7 1 1 0 01.8-.5.39.39 0 01.3.45 1.05 1.05 0 01-.16.42 3.92 3.92 0 01-.45.59 1.32 1.32 0 01-.55.38s.19-.17.45-.47a3.08 3.08 0 00.4-.58c.13-.2.22-.56 0-.61s-.48.22-.63.41a1.62 1.62 0 00-.27.63 3.22 3.22 0 00-.03.64zm16.12-1.07h-1.1a4.91 4.91 0 00-2.4 1 4.84 4.84 0 00-1.49 2.13c-.22.64-.24 1.07-.28 1.06a1.13 1.13 0 010-.3 4.28 4.28 0 01.16-.8 4.61 4.61 0 011.5-2.23 4.67 4.67 0 012.5-1 5.05 5.05 0 01.82 0 .92.92 0 01.29.14z"/><path class="cls-9" d="M357.43 395.55a26.24 26.24 0 01.14 3.05 25.49 25.49 0 010 3.07 26.71 26.71 0 01-.14-3.06 25.37 25.37 0 010-3.06zm-5.6 9.06a7.84 7.84 0 01-2.17.23 8 8 0 01-2.18-.17c0-.05 1 0 2.17 0s2.17-.11 2.18-.06zm2.92-.01s-.08.2-.18.43-.15.42-.2.42-.08-.24 0-.5.35-.39.38-.35zm1.09-1.38s-.06.19-.21.35-.31.26-.34.22.06-.19.21-.35.31-.25.34-.22zm1.58-.63c0 .05-.21.05-.43.13s-.38.19-.42.16.09-.24.36-.33.5 0 .49.04zm1.12-.3s-.07.12-.19.17-.24.05-.26 0 .07-.13.19-.17.24-.04.26 0z"/><path d="M359.11 401.14l-15.02.01.02-1.79 14.95-.1.05 1.88z"/><path class="cls-22" d="M380.88 265.24l-6 18c-1.61 4.85-5.85 5.68-11 5.68h-33.12v-7.44l30.32-4.33 7.23-18.46zm-53.77 14.66l-2.63-1.25s-2.83-5.48-3.49-5.26-.84 1.83.3 4.35l-3.5-1s-7.58 3.51-7.25 4a1.75 1.75 0 002.61.74c1.65-.84 3.82-1.83 3.82-1.83l4.08 1.17-5.27.66-4.95 4.52a2.43 2.43 0 003-.07l12.87 2.76 4 .23v-7.44z"/><path class="cls-23" d="M313.86 285.9c.05 0 .29-.35.76-.85a3.2 3.2 0 012.32-1.09 19 19 0 003.87-.66 19.66 19.66 0 00-3.92.26 3.88 3.88 0 00-1.52.44 3.62 3.62 0 00-1 .86 2.24 2.24 0 00-.51 1.04zm2.01.52c.05 0 .09-.27.45-.35s1-.13 1.57-.2a11.72 11.72 0 002.26-.23 4.62 4.62 0 00-2.3-.17 6.87 6.87 0 00-1.62.33.62.62 0 00-.39.41c-.04.14.01.21.03.21z"/><path d="M383.69 261.33l-2.55 8.67-16.2-7.33c.58-1.81 3.26-9.87 8.39-22.67a22 22 0 0116.79-13.53 96.14 96.14 0 0115.51-1.52c9.08.1 22.45 5.78 24.25 14.68 1.37 6.8.05 18.8.05 33.37l-1.19 27.86-46.54 1.58z" fill="#6c98e3"/><path d="M429.88 266.53c-5.66 1.16-11.48 0-17.25-.35-3.5-.21-7.38-.59-10.15 1.56-2.19 1.71-3.08 4.57-3.71 7.28-2.42 10.32-2.85 17.23-3.4 27.81l28 1.7z"/><path class="cls-9" d="M382.5 231.09s.46.07 1.23.38a6.36 6.36 0 012.68 2.17 9.05 9.05 0 011.61 4.85 31.41 31.41 0 01-.49 6.38 108.67 108.67 0 01-2.6 11.41c-.39 1.39-.7 2.55-.94 3.42a7.61 7.61 0 00-.3 1.27 9.4 9.4 0 00.45-1.22c.26-.8.63-2 1.06-3.4a90.15 90.15 0 002.73-11.42 29.87 29.87 0 00.46-6.47 9.16 9.16 0 00-1.75-5 6.34 6.34 0 00-2.85-2.14 4.81 4.81 0 00-1-.22 1.24 1.24 0 00-.29-.01zm-17.05 29.34a14.48 14.48 0 002.28 1.31c1.44.76 3.45 1.75 5.71 2.77s4.34 1.87 5.85 2.45a15.43 15.43 0 002.49.84 19.14 19.14 0 00-2.38-1.11c-1.49-.64-3.54-1.53-5.8-2.55s-4.28-2-5.75-2.65a19 19 0 00-2.4-1.06z"/><path d="M358 304.53a16.59 16.59 0 00-6.77 22.22l40.51 69.55 18.71-11.3L379 322.21l22.8-14.88" fill="#04495e"/><path class="cls-4" d="M407.35 301.08l-55.61 2a16.58 16.58 0 00-16 16.83l2.31 79.43 23.39-.05-.78-75.1 46.69-1.23z"/><path class="cls-15" d="M360.66 326.88a4.63 4.63 0 01.06.73c0 .53.06 1.24.09 2.11.07 1.83.14 4.48.21 7.76.14 6.54.24 15.59.29 25.59s.09 19 .13 25.59v9.87a4.55 4.55 0 010 .73 3.81 3.81 0 01-.07-.73c0-.53-.05-1.23-.09-2.11-.07-1.83-.14-4.48-.21-7.75-.14-6.55-.23-15.6-.28-25.6s-.1-19-.14-25.59v-9.87a3.74 3.74 0 01.01-.73z"/><path class="cls-15" d="M431.44 250.67h-16.82a12.27 12.27 0 00-12.27 12.27v58.7h-33.61a8.49 8.49 0 00-8.49 8.49H437v-.05a7 7 0 006.71-7v-60.14a12.27 12.27 0 00-12.27-12.27z"/><path class="cls-9" d="M407.25 252.61c.14 0 .26 17.25.26 38.53s-.12 38.53-.26 38.53-.26-17.25-.26-38.53.11-38.53.26-38.53z"/><path class="cls-15" d="M405.12 391.74v-61.58h-5.47v61.58c-3.34 6.59-11.19 11-20.75 14.69h48.76c-9.9-4.03-18.84-7.12-22.54-14.69z"/></g></g></svg>