<svg enable-background="new 0 0 128 128" viewBox="0 0 128 128" xmlns="http://www.w3.org/2000/svg"><g id="Layer_1"/><g id="Generate_Text"/><g id="Generate_Image"/><g id="View"/><g id="Robot_Arm"/><g id="Chat_Bot"/><g id="Generate_Video"/><g id="Network"/><g id="Protection"/><g id="Smartwatch"/><g id="Smarthome"/><g id="Smart_car"/><g id="VR"/><g id="Eye"/><g id="Smart_Eyeglass"/><g id="Brain"/><g id="Robot"/><g id="Holographic"/><g id="Ai"/><g id="Chip"/><g id="Brain_AI"><g><path d="m124 73c0 9.29-6.37 17.24-15.17 19.41-.58 4.05-2.6 7.69-5.57 10.31-1.53 1.36-3.3 2.45-5.26 3.19v.09c0 6.04-4.48 11.05-10.29 11.88-.97 2.09-2.42 3.87-4.21 5.24-2.39 1.82-5.35 2.88-8.5 2.88-4.46 0-8.43-2.11-11-5.37-.26.33-.53.64-.82.94-.14.16-.29.3-.44.45-.14.14-.3.28-.45.42-.16.14-.32.27-.48.4-.47.39-.98.74-1.5 1.06-.01.01-.02.01-.03.02-2.13 1.32-4.62 2.08-7.28 2.08-5.5 0-10.45-3.25-12.71-8.12-5.81-.83-10.29-5.84-10.29-11.88v-.09c-5.77-2.18-9.95-7.37-10.83-13.5-8.8-2.17-15.17-10.12-15.17-19.41 0-4.79 1.71-9.38 4.78-12.97-2.43-3.13-3.78-7.01-3.78-11.03 0-7.44 4.46-13.93 11.14-16.65-.09-.77-.14-1.56-.14-2.35 0-9.56 7.08-17.48 16.28-18.8.89-.13 1.8-.2 2.72-.2 1.61 0 3.18.2 4.7.58 1.84-5.6 7.09-9.58 13.3-9.58 4.46 0 8.43 2.11 11 5.37 2.57-3.26 6.54-5.37 11-5.37 4.05 0 7.69 1.69 10.23 4.42 1.38 1.46 2.43 3.21 3.07 5.16 1.52-.38 3.09-.58 4.7-.58 10.48 0 19 8.52 19 19 0 .79-.05 1.58-.14 2.35 6.68 2.72 11.14 9.21 11.14 16.65 0 4.02-1.35 7.9-3.78 11.03 3.07 3.59 4.78 8.18 4.78 12.97z" fill="#fef156"/><path d="m109 33c-1.657 0-3-1.343-3-3 0-7.168-5.832-13-13-13-1.657 0-3-1.343-3-3s1.343-3 3-3c10.477 0 19 8.523 19 19 0 1.657-1.343 3-3 3z" fill="#fffbb3"/><path d="m115.071 63.11c-.819 0-1.634-.333-2.226-.988-1.111-1.229-1.016-3.126.213-4.237 2.505-2.265 3.942-5.504 3.942-8.885 0-2.272-.639-4.485-1.848-6.397-.885-1.4-.468-3.253.933-4.139 1.401-.887 3.253-.468 4.139.933 1.816 2.873 2.776 6.194 2.776 9.603 0 5.074-2.157 9.935-5.918 13.335-.574.519-1.294.775-2.011.775z" fill="#fffbb3"/><path d="m86.432 90.288c-.91 2.1-2.56 3.75-4.66 4.66-7 3.05-14.52 4.57-22.03 4.57-7.52 0-15.03-1.52-22.03-4.57-2.1-.91-3.75-2.56-4.66-4.66-6.09-14-6.09-30.06 0-44.06.91-2.1 2.56-3.75 4.66-4.66 14-6.09 30.06-6.09 44.06 0 2.1.91 3.75 2.56 4.66 4.66 6.091 13.999 6.091 30.06 0 44.06z" fill="#ffc242"/><path d="m64 7.37v113.26c-.26.33-.53.64-.82.94-.14.16-.29.3-.44.45-.14.14-.3.28-.45.42-.16.14-.32.27-.48.4-.47.39-.98.74-1.5 1.06-.01.01-.02.01-.03.02-2.13 1.32-4.62 2.08-7.28 2.08-5.5 0-10.45-3.25-12.71-8.12-5.81-.83-10.29-5.84-10.29-11.88v-.09c-5.77-2.18-9.95-7.37-10.83-13.5-8.8-2.17-15.17-10.12-15.17-19.41 0-4.79 1.71-9.38 4.78-12.97-2.43-3.13-3.78-7.01-3.78-11.03 0-7.44 4.46-13.93 11.14-16.65-.09-.77-.14-1.56-.14-2.35 0-9.56 7.08-17.48 16.28-18.8.89-.13 1.8-.2 2.72-.2 1.61 0 3.18.2 4.7.58 1.84-5.6 7.09-9.58 13.3-9.58 4.46 0 8.43 2.11 11 5.37z" fill="#27a6ff"/><path d="m33.05 46.23c-6.09 14-6.09 30.06 0 44.06.91 2.1 2.56 3.75 4.66 4.66 7 3.05 14.51 4.57 22.03 4.57 1.42 0 2.85-.05 4.26-.16v21.27c-.26.33-.53.64-.82.94-.14.16-.29.3-.44.45-.14.14-.3.28-.45.42-.16.14-.32.27-.48.4-.49.39-1 .75-1.53 1.08-.42.04-.85.08-1.28.08-3.15 0-6.11-1.06-8.5-2.88.86-.32 1.68-.74 2.46-1.26 1.38-.92 1.74-2.79.82-4.17-.92-1.37-2.78-1.74-4.16-.82-.98.66-2.14 1.01-3.33 1.01-5.81-.83-10.29-5.84-10.29-11.88.22-.98.7-1.9 1.38-2.66 1.1-1.24 1-3.13-.24-4.24-1.23-1.1-3.13-1-4.23.23-.91 1.01-1.63 2.17-2.14 3.42-2.99-2.63-5.02-6.28-5.6-10.34-8.8-2.17-15.17-10.12-15.17-19.41 0-4.79 1.71-9.38 4.78-12.97-2.43-3.13-3.78-7.01-3.78-11.03 0-7.44 4.46-13.93 11.14-16.65-.09-.77-.14-1.56-.14-2.35 0-7.24 4.07-13.54 10.03-16.74.08-.01.17-.03.25-.06.89-.13 1.8-.2 2.72-.2 1.61 0 3.18.2 4.7.58 3.02 1.47 5.33 4.02 6.5 7.16.45 1.21 1.6 1.96 2.82 1.96.34 0 .7-.06 1.04-.19 1.55-.58 2.34-2.31 1.77-3.86-1.65-4.45-4.87-8.06-9.06-10.23 2.54-2.73 6.18-4.42 10.23-4.42 4.46 0 8.43 2.11 11 5.37v29.79c-8.92-.68-17.97.79-26.29 4.41-2.1.91-3.75 2.56-4.66 4.66z" fill="#02c0fc"/><g fill="#ffc242"><path d="m88.3 11.58c-3.02 1.47-5.33 4.02-6.5 7.16-.45 1.21-1.6 1.96-2.82 1.96-.34 0-.7-.06-1.04-.19-1.55-.58-2.34-2.31-1.77-3.86 1.65-4.45 4.87-8.06 9.06-10.23 1.38 1.46 2.43 3.21 3.07 5.16z"/><path d="m103.26 102.72c-1.53 1.36-3.3 2.45-5.26 3.19-.22-.98-.7-1.9-1.38-2.66-1.1-1.24-1-3.13.24-4.24 1.23-1.1 3.13-1 4.23.23.92 1.03 1.66 2.21 2.17 3.48z"/><path d="m87.71 117.88c-.97 2.09-2.42 3.87-4.21 5.24-.86-.32-1.68-.74-2.46-1.26-1.38-.92-1.74-2.79-.82-4.17.92-1.37 2.78-1.74 4.16-.82.98.66 2.14 1.01 3.33 1.01z"/></g><path d="m90.69 86.03c-.91 2.1-2.56 3.75-4.66 4.66-7 3.05-14.52 4.57-22.03 4.57-7.52 0-15.03-1.52-22.03-4.57-2.1-.91-3.75-2.56-4.66-4.66-6.09-14-6.09-30.06 0-44.06.91-2.1 2.56-3.75 4.66-4.66 14-6.09 30.06-6.09 44.06 0 2.1.91 3.75 2.56 4.66 4.66 6.09 14 6.09 30.06 0 44.06z" fill="#6936ba"/><path d="m90.69 41.97c-.91-2.1-2.56-3.75-4.66-4.66-13.271-5.773-28.39-6.064-41.854-.892-.335.484-.627 1.001-.866 1.552-6.09 14-6.09 30.06 0 44.06.91 2.1 2.56 3.75 4.66 4.66 7 3.05 14.51 4.57 22.03 4.57 6.728 0 13.46-1.23 19.823-3.677.336-.484.628-1.002.867-1.553 6.09-14 6.09-30.06 0-44.06z" fill="#8954dd"/><path d="m92.275 67c-1.657 0-3-1.343-3-3 0-6.796-1.374-13.403-4.084-19.636-.304-.699-.855-1.251-1.554-1.555-3.864-1.681-7.934-2.859-12.096-3.503-1.637-.254-2.759-1.787-2.506-3.424.254-1.638 1.79-2.761 3.424-2.506 4.669.723 9.235 2.045 13.57 3.931 2.097.911 3.753 2.568 4.665 4.665 3.04 6.992 4.582 14.404 4.582 22.028-.001 1.657-1.344 3-3.001 3z" fill="#a47af4"/><path d="m90.366 81.001c-.267 0-.538-.036-.807-.111-1.596-.444-2.529-2.099-2.084-3.695.174-.626.335-1.254.484-1.885.381-1.613 1.999-2.614 3.609-2.229 1.612.381 2.611 1.997 2.229 3.609-.167.708-.348 1.413-.544 2.115-.368 1.327-1.574 2.196-2.887 2.196z" fill="#a47af4"/><path d="m59.819 51.975c-.431-1.186-1.557-1.975-2.819-1.975s-2.388.789-2.819 1.975l-8 22c-.566 1.557.237 3.278 1.794 3.845 1.554.565 3.278-.237 3.845-1.794l.736-2.026h8.888l.737 2.025c.443 1.219 1.594 1.976 2.819 1.976.34 0 .687-.059 1.025-.182 1.557-.566 2.36-2.288 1.794-3.845zm-5.081 16.025 2.262-6.222 2.262 6.222z" fill="#fff"/><path d="m77 50c-1.657 0-3 1.343-3 3v22c0 1.657 1.343 3 3 3s3-1.343 3-3v-22c0-1.657-1.343-3-3-3z" fill="#fff"/></g></g><g id="Layer_22" display="none"/></svg>