<svg id="Capa_1" enable-background="new 0 0 512 512" viewBox="0 0 512 512" xmlns="http://www.w3.org/2000/svg"><g><path d="m305.766 0c11.492 29.957 22.984 59.915 34.477 89.872-11.492 35.44-22.984 70.88-34.477 106.32-68.73-30.397-137.46-60.795-206.19-91.192v-90c0-8.28 6.71-15 15-15z" fill="#f3f5fc"/><path d="m305.766 196.192c23.748 42.77 47.495 136.357 71.243 179.127-23.747 45.56-47.495 91.121-71.243 136.681-63.73 0-127.46 0-191.19 0-8.29 0-15-6.72-15-15v-153.4c8.279-17.512 16.558-35.024 24.837-52.536 60.451-31.624 120.902-63.248 181.353-94.872z" fill="#f3f5fc"/><path d="m511.966 107.33v389.67c0 8.28-6.72 15-15 15h-191.2c0-170.667 0-341.333 0-512h99.01c9.893 22.468 19.786 44.936 29.679 67.404 25.838 13.309 51.674 26.617 77.511 39.926z" fill="#dce0ea"/><path d="m511.966 107.33h-92.19c-8.284 0-15-6.716-15-15v-92.33c.83 0 1.66.07 2.47.21 3.06.51 5.92 1.96 8.14 4.19l92.19 92.33c2.23 2.23 3.68 5.09 4.18 8.16.14.8.21 1.62.21 2.44z" fill="#bec2d0"/><path d="m305.766 228.97c3.145 4.55 6.29 9.099 9.436 13.649-3.145 5.45-6.29 10.901-9.436 16.351h-17.274c-3.985-5-7.971-10-11.956-15 8.242-5 16.484-10 24.725-15z" fill="#80d4ff"/><path d="m305.766 410c3.979 4.113 7.958 8.226 11.937 12.338-3.979 5.887-7.958 11.774-11.937 17.662h-131.28c-8.229 0-15-6.771-15-15s6.771-15 15-15z" fill="#80d4ff"/><path d="m275.814 380h-101.331c-8.284 0-15-6.716-15-15s6.716-15 15-15h101.331c8.284 0 15 6.716 15 15s-6.716 15-15 15z" fill="#80d4ff"/><g fill="#4dc3ff"><path d="m437.055 198.969h-71.375c-8.284 0-15-6.716-15-15s6.716-15 15-15h71.375c8.284 0 15 6.716 15 15s-6.716 15-15 15z"/><path d="m437.055 318.969h-101.33c-8.284 0-15-6.716-15-15s6.716-15 15-15h101.33c8.284 0 15 6.716 15 15s-6.716 15-15 15z"/><path d="m437.055 380h-101.33c-8.284 0-15-6.716-15-15s6.716-15 15-15h101.33c8.284 0 15 6.716 15 15s-6.716 15-15 15z"/><path d="m452.056 425c0 8.229-6.771 15-15 15h-131.29v-30h131.29c8.229 0 15 6.771 15 15z"/><path d="m452.056 243.97c0 8.229-6.771 15-15 15h-131.29v-30h131.29c8.229 0 15 6.771 15 15z"/></g><path d="m134.281 308.838c-19.188 19.217-38.377 38.435-57.565 57.652-17.447 17.445-46.157 17.443-63.6 0-17.447-17.447-17.444-46.165.01-63.61l57.637-57.725c12.805 6.282 25.61 12.563 38.416 18.845 8.367 14.946 16.735 29.892 25.102 44.838z" fill="#b95d4c"/><path d="m183.216 92.15c11.236 31.326 22.472 62.652 33.707 93.978-11.236 38.034-22.472 76.068-33.707 114.102-56.942-.192-103.69-47.097-103.69-104.04 0-56.942 46.748-103.848 103.69-104.04z" fill="#80d4ff"/><path d="m286.936 196.19c0 56.954-46.766 103.865-103.72 104.04v-208.08c56.954.175 103.72 47.086 103.72 104.04z" fill="#4dc3ff"/><path d="m183.206 101.86h.01c4.569-4.791 9.138-9.583 13.707-14.374-4.569-4.692-9.138-9.384-13.707-14.076h-.01c-67.34.01-122.54 55.63-122.54 122.78 0 67.16 55.2 122.78 122.54 122.78h.01l13.707-15.018c-4.569-4.477-9.138-8.955-13.707-13.432-22.068.002-43.681-7.836-60.556-22.07-14.229-12.002-24.74-28.104-29.887-46-4.807-16.715-4.911-34.684-.3-51.455 4.853-17.653 14.905-33.633 28.639-45.73 15.18-13.37 34.492-21.552 54.663-23.119 2.472-.191 4.952-.286 7.431-.286z" fill="#43555c"/><path d="m305.766 196.19c0 67.16-55.2 122.77-122.55 122.78v-28.45c25.15 0 48.79-9.81 66.58-27.62 36.72-36.78 36.72-96.64 0-133.42-17.79-17.81-41.43-27.62-66.58-27.62v-28.45c67.35.01 122.55 55.62 122.55 122.78z" fill="#344147"/><path d="m183.216 187.96c4.002 3.156 8.004 6.311 12.005 9.467-4.002 10.984-8.004 21.969-12.005 32.953-.64.697-4.64 4.912-11.12 4.91-6.033-.002-9.871-3.658-10.61-4.39l-25.97-25.97c-5.82-5.82-5.82-15.4 0-21.22s15.39-5.82 21.21 0l15.37 15.37z" fill="#f3f5fc"/><path d="m230.896 182.7-47.68 47.68v-42.42l26.47-26.47c5.86-5.86 15.36-5.86 21.21 0 5.86 5.85 5.86 15.35 0 21.21z" fill="#dce0ea"/></g><g/><g/><g/><g/><g/><g/><g/><g/><g/><g/><g/><g/><g/><g/><g/></svg>