<svg xmlns="http://www.w3.org/2000/svg" xmlns:xlink="http://www.w3.org/1999/xlink" viewBox="0 0 450 380"><defs><linearGradient id="b" data-name="11" x1="211.59" y1="138.94" x2="204.84" y2="129.69" gradientUnits="userSpaceOnUse"><stop offset="0" stop-color="#4a67fb"/><stop offset="1" stop-color="#24d8ed"/></linearGradient><linearGradient id="c" x1="197.92" y1="152.14" x2="209.7" y2="152.14" gradientUnits="userSpaceOnUse"><stop offset="0" stop-color="#4ac2fb"/><stop offset="1" stop-color="#24ed9a"/></linearGradient><linearGradient id="d" x1="192.58" y1="168.92" x2="204.46" y2="168.92" gradientUnits="userSpaceOnUse"><stop offset="0" stop-color="#f5fb4a"/><stop offset="1" stop-color="#ed6124"/></linearGradient><linearGradient id="e" x1="330.65" y1="78.49" x2="326.4" y2="47.74" xlink:href="#b"/><linearGradient id="f" x1="348.76" y1="77.72" x2="342.51" y2="56.97" xlink:href="#c"/><linearGradient id="g" x1="358.85" y1="64.63" x2="369.85" y2="78.88" xlink:href="#d"/><linearGradient id="h" x1="331.66" y1="196.69" x2="297.16" y2="137.19" xlink:href="#b"/><linearGradient id="i" x1="358.49" y1="125.45" x2="313.49" y2="146.95" xlink:href="#c"/><linearGradient id="j" x1="232.68" y1="100.49" x2="232.68" y2="69.34" xlink:href="#c"/><linearGradient id="k" x1="231.99" y1="100.3" x2="231.99" y2="80.8" xlink:href="#b"/><linearGradient id="l" x1="294.89" y1="73.53" x2="279.76" y2="53.78" xlink:href="#b"/><linearGradient id="m" x1="294.9" y1="73.53" x2="279.77" y2="53.78" xlink:href="#b"/><linearGradient id="n" x1="135.37" y1="112.92" x2="150.37" y2="97.42" gradientUnits="userSpaceOnUse"><stop offset="0" stop-color="#db9669"/><stop offset=".06" stop-color="#df9c6f"/><stop offset=".27" stop-color="#e9a87d"/><stop offset=".53" stop-color="#efb085"/><stop offset="1" stop-color="#f1b287"/></linearGradient><linearGradient id="o" x1="131.65" y1="119.49" x2="200.15" y2="39.99" xlink:href="#n"/><linearGradient id="p" x1="121.78" y1="100.33" x2="137.11" y2="47.66" gradientUnits="userSpaceOnUse"><stop offset="0" stop-color="#483f65"/><stop offset="1" stop-color="#5e5384"/></linearGradient><linearGradient id="q" x1="281.64" y1="103.8" x2="283.14" y2="85.8" xlink:href="#n"/><linearGradient id="r" x1="292.36" y1="117.19" x2="261.03" y2="97.19" gradientUnits="userSpaceOnUse"><stop offset="0" stop-color="#e7e9ef"/><stop offset=".14" stop-color="#eeeff3"/><stop offset=".44" stop-color="#f6f6f7"/><stop offset="1" stop-color="#f8f8f8"/></linearGradient><linearGradient id="s" x1="207.63" y1="268.32" x2="177.63" y2="148.99" gradientUnits="userSpaceOnUse"><stop offset="0" stop-color="#003f7d"/><stop offset=".22" stop-color="#064281"/><stop offset=".51" stop-color="#18498c"/><stop offset=".85" stop-color="#34549d"/><stop offset="1" stop-color="#435aa6"/></linearGradient><linearGradient id="t" x1="109.67" y1="138.51" x2="168" y2="126.18" gradientUnits="userSpaceOnUse"><stop offset="0" stop-color="#e7e9ef"/><stop offset=".78" stop-color="#f3f4f6"/><stop offset="1" stop-color="#f8f8f8"/></linearGradient><linearGradient id="u" x1="129.21" y1="149.74" x2="161.55" y2="106.41" gradientUnits="userSpaceOnUse"><stop offset="0" stop-color="#ddd"/><stop offset=".54" stop-color="#e9e9e9"/><stop offset="1" stop-color="#f8f8f8"/></linearGradient><radialGradient id="a" cx="-2914.15" cy="270.65" r="241.21" gradientTransform="matrix(.73 -.69 -.48 -.5 2362.09 -1598.56)" gradientUnits="userSpaceOnUse"><stop offset="0" stop-color="#99f"/><stop offset="0" stop-color="#99f" stop-opacity=".98"/><stop offset=".01" stop-color="#99f" stop-opacity=".89"/><stop offset=".03" stop-color="#99f" stop-opacity=".83"/><stop offset=".04" stop-color="#99f" stop-opacity=".78"/><stop offset=".07" stop-color="#99f" stop-opacity=".75"/><stop offset=".13" stop-color="#99f" stop-opacity=".75"/><stop offset="1" stop-color="#99f" stop-opacity="0"/></radialGradient><style>.f{fill:#c2bece}.l{fill:#e9edf0}.m{fill:#918fc0}.v{fill:#483f65}</style></defs><path d="M128.75 276.73c-120-30.16-113.52-124.5-113.52-124.5l-.39-1V15.51h420.32v349H258.34c-1.94-7.85-18.84-59.94-129.59-87.78z" opacity=".5" fill="url(#a)"/><path d="M143.77 194.16c-5.94-.3-8.53-6-6.42-12.19l47.44-138.26c1.86-5.43 7.8-10.23 13.38-10.49l201.9-9.49c7-.32 11.55 4.51 10.13 10.75l-35.82 158.2c-1.66 7.36-9.2 13.16-16.66 12.76l-213.95-11.28zM405.93 15.53l-208.5 10.69c-7.64.39-16 6.94-18.61 14.6l-50.1 144.48c-3 8.79.69 16.68 8.86 17.16l222.19 12.92c10.5.61 21.17-7.5 23.49-18l37-166.93c1.84-8.29-4.06-15.46-14.32-14.94z" fill="#6bbcdd" opacity=".2"/><path fill="url(#b)" d="M214.9 130.92l-8.77-.1-2.92 9.19 8.8.16 2.89-9.25z"/><path fill="url(#c)" opacity=".8" d="M209.7 147.54l-8.82-.2-2.96 9.35 8.84.25 2.94-9.4z"/><path fill="url(#d)" d="M204.46 164.28l-8.86-.28-3.02 9.5 8.89.34 2.99-9.56z"/><path class="f" d="M270.67 132.61L220.9 132c-.79 0-1.17 1.23-.38 1.25l49.78.68c.88 0 1.2-1.28.37-1.29zm-1.82 6.39l-49.85-.84c-.8 0-1.18 1.24-.39 1.26l49.89.87c.87 0 1.2-1.3.37-1.3zm-3.08 10.83l-50-1.15c-.82 0-1.17 1.24-.39 1.27l50.06 1.19c.84 0 1.23-1.28.38-1.31zm-1.86 6.5L213.77 155c-.82 0-1.18 1.25-.39 1.28l50.16 1.38c.84 0 1.22-1.29.37-1.31zm-3.07 10.78l-50.31-1.67c-.8 0-1.2 1.26-.4 1.29l50.33 1.71c.88 0 1.22-1.32.38-1.33zm-1.84 6.6l-50.41-1.87c-.81 0-1.21 1.27-.41 1.3l50.44 1.91c.85 0 1.23-1.31.38-1.34z"/><path fill="url(#e)" d="M339.82 47.28l-12.56.48-10.09 30.72 12.69-.25 9.96-30.95z"/><path fill="url(#f)" opacity=".8" d="M355.44 57.65l-12.89.4-6.39 20.06 12.98-.25 6.3-20.21z"/><path fill="url(#g)" d="M372.71 65.57l-13.24.35-3.65 11.81 13.3-.26 3.59-11.9z"/><path d="M330 180.15l-7.2-10.35a30.49 30.49 0 0010.51-15.8l-23.5-.57 6-22.89c-12.53-.07-25.19 9.76-28.61 22.2-5.5 20.11 15.62 31.21 33.86 18.36l7.31 10.26c-4.86 4.38-4.43 10.89-.06 13.2 3.87 2.06 9.35.17 12.18-4 5.31-7.76-2.32-15.43-10.49-10.41z" fill="url(#h)"/><path d="M357.14 127.79a5.41 5.41 0 00-5.34 5l-18.12 7.77c-3.22-9.35-12.82-9.18-14.54-9.72l-5 19.27 19.79.44a18.64 18.64 0 00.21-8.42l18.15-7.73a3.76 3.76 0 004.62 1.23c4.64-1.63 4.86-7.8.23-7.84z" fill="url(#i)" opacity=".8"/><path class="f" d="M367 85l-52.19.77c-1.21 0-1.83 1.91-.62 1.89l52.18-.66c1.28 0 1.88-2 .59-1.94zm-2.12 6.93l-52.31.56c-1.23 0-1.81 1.92-.62 1.9l52.34-.51c1.28 0 1.88-2 .59-1.95zm-2.05 6.78l-52.42.36c-1.2 0-1.84 1.91-.62 1.91l52.45-.3c1.3 0 1.88-2 .59-2zm-2.11 6.99l-52.53.14c-1.21 0-1.86 1.93-.63 1.93l52.56-.08c1.31 0 1.89-2 .6-2z"/><path class="l" d="M276 61.93l-76 3c-.4 0-.15-.74.25-.76l76-3zm-1.14 9.24s-48.48 1.71-77.77 2.83c-.39 0-.14-.74.25-.75 29.3-1.1 77.79-2.83 77.79-2.83zm6.85 8.83l-87.61 3c-.39 0-.15-.73.25-.75L282 79.17zm-3.24 9.2L191.1 92c-.39 0-.14-.74.25-.75l87.39-2.83z"/><path class="m" d="M227.58 65.76c.23-.68 0-1.21-.55-1.19a1.81 1.81 0 00-1.38 1.26c-.23.68 0 1.21.55 1.19a1.79 1.79 0 001.38-1.26zm24.03 8.46c.23-.69 0-1.22-.54-1.2a1.85 1.85 0 00-1.39 1.27c-.23.68 0 1.22.54 1.2a1.85 1.85 0 001.39-1.27zm18.74 5.84c.24-.69 0-1.23-.52-1.21a1.85 1.85 0 00-1.4 1.28c-.24.69 0 1.23.53 1.21a1.84 1.84 0 001.39-1.28zm-62.68 5.56c.23-.68 0-1.21-.55-1.19a1.8 1.8 0 00-1.37 1.25c-.23.68 0 1.21.55 1.19a1.78 1.78 0 001.37-1.25z"/><path d="M196.64 100.3c3.52-5.48 6.55-9.78 9-9.52 2.61.28 3.16 6 4.39 5.4 6.5-3.27 8.84-24.34 15.44-26.9 1.7-.66-1.05 10.13 1.4 10.32 3.26.26 3.77-4.72 6.16-4.72 3.16 0-2 12.5.3 12.33 1.47-.11 4.22-6.51 6.11-6.48s.15 5.59 1.43 5.85c2.26.46 6.25-8.93 8.81-8.88 2.8 0-1.37 18.73.95 18.48 1.51-.17 4.75-6.52 6.1-6.63 2-.16.87 4 2.82 4.06 2.57.11 6.58-8.74 8.31-8.52 1.3.17 1.11 2.71-.52 13.11z" fill="url(#j)" opacity=".8"/><path d="M196.64 100.3c6.53-9.73 6.54-4.5 7.86-4.34 1.57.2 3.91-4.25 5.53-4.29 2.64-.07 3.33-4.2 4.54-4.26 1.53-.08 0 5.91 1.32 6 2.36.23 6.8-12.5 10.76-12.65 2.21-.08.45 5.88 2.33 6.17 1.25.19 2.1-1.14 3.27-1.15 1.45 0-.05 3.65 1.24 3.61 1.1 0 2-1.81 2.88-1.86 1.73-.08-.71 6.35.73 6.38 1.6 0 2.59-2.64 4.23-2.71s.11 5.23 1.18 5.24c2.86 0 8.05-14.28 11.14-14.32 1.86 0-.24 6.14 2 6.12 1.75 0 2.72-2.85 4-2.91 1.71-.07-1 5.58 1.35 5.69 1.62.08 2.66-.83 4.27-.48 1.35.3 2.1 2.1 2.11 7.62z" fill="url(#k)" opacity=".8"/><path class="l" d="M275.23 98.45L188.11 101c-.39 0-.14-.74.25-.75l87.14-2.59z"/><path class="m" d="M187.54 109.39l-2.68.07c-1.14 0-.41-2.22.75-2.25l2.68-.08c1.14-.03.41 2.23-.75 2.26zm14.36-.39l-2.67.07c-1.15 0-.41-2.23.76-2.26l2.67-.07c1.15-.04.41 2.26-.76 2.26zm14.37-.39l-2.68.07c-1.14 0-.39-2.24.77-2.27l2.68-.07c1.14-.03.39 2.24-.77 2.27zm14.36-.39l-2.67.08c-1.14 0-.39-2.25.78-2.29l2.67-.07c1.15-.03.39 2.25-.78 2.28zm14.37-.39l-2.67.08c-1.15 0-.38-2.26.79-2.3l2.67-.07c1.14-.03.38 2.26-.79 2.29zm14.36-.38l-2.67.07c-1.14 0-.37-2.27.8-2.3l2.68-.08c1.14-.03.36 2.27-.81 2.31zm14.37-.39l-2.67.07c-1.15 0-.36-2.28.81-2.31l2.67-.08c1.12-.03.36 2.26-.81 2.32z"/><path d="M289.51 56.41a10.67 10.67 0 00-7.95 4.67c-2.44 3.5-2.4 7.94 1.06 9.56s8.3-.73 10.7-4.18c3.4-4.91 1.41-10.21-3.81-10z" fill="url(#l)"/><path d="M284.1 75.29c-6.17.13-9.74-4.89-7.88-11.23s8.32-11.5 14.45-11.7 9.85 4.74 8.07 11.09-8.45 11.72-14.64 11.84zm7.2-25.1c-7.44.26-15.15 6.5-17.32 13.93s2 13.54 9.48 13.4 15.54-6.61 17.59-14.13-2.25-13.46-9.75-13.2z" fill="url(#m)"/><path d="M110.29 180.16l-16.69-.43a54.21 54.21 0 00-9.25 14.37c-.46 1.08-.86 2.16-1.21 3.25-6.52 20.2-2.13 43.49 13.65 58.41a45 45 0 0010.29 7.45c.69-14.28 2.6-39.43 4.52-50.07 2.62-14.57-1.31-32.98-1.31-32.98z" fill="#7dc5c1"/><path d="M163.79 141.07l-1.54-.07 1.54.07z" fill="#fff"/><path fill="#bdaad3" d="M82.13 189.92l-61.92 19.05 19.98 57.05 56.88-26.73-14.94-49.37z"/><path fill="#ebe6f2" d="M89.55 187.21l-53.23-.72 1.29 61.47 52.17-6.08-.23-54.67z"/><path class="v" d="M173.81 89.35a1.43 1.43 0 01-1.95-.67l-6.75-15.46a1.56 1.56 0 01.8-2 1.41 1.41 0 012 .66l6.75 15.47a1.56 1.56 0 01-.85 2z"/><path d="M173.42 99.25A24.46 24.46 0 00165.74 83a59.24 59.24 0 00-8-18.28l-.6-.9-23.5 5.76S147.27 91.87 146.91 93s-6.41 2.87-6.41 2.87-8.77-9.2-13.16-4.22 4.21 12.66 4.21 12.66l.54 9.21-4.93 1.92.54 8.06c4.39 3.45 28.72 3.06 29.26 3.06s.19-5.18.19-5.18 11.85 1 14.44-1c4.8-3.53 2.41-10.96 1.83-21.13z" fill="url(#n)"/><path d="M171.59 120.45a6.44 6.44 0 001.91-2.27c-20 3.42-23-23.41-23-23.41s-7.08-15-7.08-19.29c0-3.88 12.27-8.82 14.86-9.82l-.57-.9-.6-.9-23.5 5.76s13.66 22.25 13.3 23.38-6.41 2.87-6.41 2.87-8.77-9.2-13.16-4.22 4.21 12.66 4.21 12.66l.54 9.21-4.93 1.92.54 8.06a10 10 0 003.59 1.4l14.53.69c1.68-5.26 8.86-5 8.86-5l3.11.89c2.49.14 11.57.64 13.8-1.03z" fill="url(#o)"/><path d="M133.3 105.49s-10.35-8.83-6-13.82 13.16 4.22 13.16 4.22 6-1.72 6.41-2.87-7.64-14.91-5.63-19.76c1.65-4 15.77-9.91 16.15-9.33 9.43-8 5.11-27.75 5.11-27.75-4.89 11.31-31.61 13.87-46.04 18.82-17.08 5.83-12.79 21.57-12.79 21.57-2.56 1.53-8.58 10.42 7 21.08a54.52 54.52 0 0116.46 17.84s5.56-1.18 6.28-2.34c1.23-1.96-.11-7.66-.11-7.66z" fill="url(#p)"/><path class="v" d="M138.75 93.09l-.86-1.35c.58-.41 20.1-7.82 31.69-12.21l.57 1.51c-12.15 4.59-30.49 11.58-31.4 12.05z"/><path d="M266.27 111.15s0-11.47.77-17a6.47 6.47 0 015.81-5.79s8.71-25.38 12-23.56-3.88 17.68-3.1 20.31 16.07 7.11 15.49 16.86-11.24 16.9-11.24 16.9z" fill="url(#q)"/><path d="M291.16 120.16l3.52-5.41c-4.64-11-28.41-13.52-28.41-13.52l-.86 5.35z" fill="url(#r)"/><path d="M177.61 242.5c1.46-12.27 8.1-33.69 7.21-46.38 21.11 0 47.71-.32 55.43-2.34 13.37-3.51 52.67-72.63 52.67-72.63-6.83-13.44-26-14.49-28.47-15.09l-35.55 47s-37.4-8.77-57.66-11.62C160.53 140 131 143 113.2 136c0 0-51.6 3.69-48.34 50.82l19.89.41c2.6 68.56 3 66.63 2 74.15 32.46 16.41 51.83 14.7 92.15 31.92l.3-.07c-.96-14.99-2.62-42.07-1.59-50.73z" fill="url(#s)"/><path d="M158.49 125.34L117 121.82c-4 8.32-3.69 14.89-3.69 14.89 14.08 5.11 43.71 4.51 55.29 4.48z" fill="url(#t)"/><path d="M117 121.81c-4 8.33-3.69 14.89-3.69 14.89 14.21 5.13 43.81 4.51 55.3 4.48-38.46-3.64-50.95-19.05-51.61-19.37z" fill="url(#u)"/><path d="M184.64 196.13c-.6 0-30.46-2.2-39.43-5.88 0 0 26.85 14.25 39.26 13.4a46.05 46.05 0 00.17-7.52z" fill="#2d1e4d" opacity=".4"/></svg>