<svg id="Capa_1" enable-background="new 0 0 512 512" height="512" viewBox="0 0 512 512" width="512" xmlns="http://www.w3.org/2000/svg"><g><path d="m306.185 165.571-47.051-13.729-7.666.783-16.028 10.069-29.681 59.751-3.801 37.087 3.801 42.753 38.039 55.977h19.843 7.794c49.79-7.452 87.975-50.396 87.975-102.262-.001-38.899-21.482-72.775-53.225-90.429z" fill="#ffe02f"/><path d="m208.221 256.27c0-42.359 19.829-80.081 50.706-104.407l-18.361 1.875c-49.791 7.452-87.976 50.396-87.976 102.262 0 38.899 21.482 72.775 53.225 90.429l15.281 11.833h34.873c-29.176-24.368-47.748-61.005-47.748-101.992z" fill="#fbc700"/><path d="m290.902 278.399c0-15.287-8.448-24.944-25.826-29.523-15.689-4.133-23.897-10.996-23.897-15.638 0-6.056 6.684-12.804 16.275-12.804 10.244 0 18.48 8.19 18.66 8.371 2.963 3.048 7.836 3.131 10.9.18 3.074-2.96 3.166-7.851.206-10.925-.448-.466-9.841-10.062-23.494-12.512v-8.91c0-4.267-3.459-7.726-7.726-7.726s-7.726 3.459-7.726 7.726v9.603c-12.888 3.603-22.548 14.509-22.548 26.997 0 13.505 12.908 24.652 35.413 30.581 13.205 3.479 14.311 9.111 14.311 14.58 0 5.293-5.127 13.168-19.251 13.168-14.114 0-20.57-9.733-20.794-10.077-2.236-3.634-6.995-4.769-10.629-2.531-3.634 2.236-4.767 6.996-2.531 10.629.384.624 8.546 13.552 26.03 16.729v9.045c0 4.267 3.459 7.726 7.726 7.726s7.726-3.459 7.726-7.726v-8.938c17.705-2.875 27.175-15.786 27.175-28.025z" fill="#eab900"/><path d="m455.53 382.105c-10.098-21.088-33.341-11.12-35.292-10.389l-98.678 29.193s6.755-19.847-13.701-28.012c-56.694-22.633-63.455-26.46-77.804-26.688l-.002-.002c-17.503.058-29.339.153-38.623.849l-9.904 3.819-15.796 22.665-6.601 29.532 10.378 28.159 14.57 17.513 16.121 6.693c11.02-.467 21.626 1.023 30.969 4.751l36.587 14.606c7.997 2.757 26.369 7.048 45.433-2.723.009-.004.016-.007.016-.007 1.908-.844 122.057-53.991 127.727-56.499 3.867-1.984 23.313-13.651 14.6-33.46z" fill="#ffcebe"/><g><path d="m167.075 398.235c0-20.653 9.496-39.082 24.354-51.179-14.243 1.068-22.466 3.554-35.81 9.527-11.532 5.161-22.484 11.414-32.745 18.626-5.316 3.737-11.099 6.742-17.203 8.917l-2.522 6.645 35.88 79.969h6.367l26.51-10.064c9.392-3.061 18.989-4.846 28.291-5.24-19.788-11.388-33.122-32.731-33.122-57.201z" fill="#ffb1a0"/></g><path d="m234.815 397.846c-.999 4.148 1.554 8.322 5.703 9.321.402.097 48.151 11.348 64.944 15.461 17.612 4.315 28.237-8.176 31.152-17.736l3.255-9.401-18.299 5.414c-.993 2.433-1.544 3.093-2.61 4.257-2.516 2.748-5.544 3.506-9.82 2.457-16.823-4.121-64.601-15.378-65.004-15.475-4.149-.999-8.321 1.554-9.321 5.702z" fill="#ffb1a0"/><path d="m78.657 450.937 1.018 1.382 2.49 1.202 7.083 1.502 34.232-16.14 3.348-8.048-.657-2.58-22.663-49.412c-3.109-6.778-11.123-9.752-17.901-6.643l-23.802 10.917c-6.504 2.983-9.358 10.674-6.375 17.178z" fill="#bf7fe3"/><path d="m150.82 482-24.65-53.745c-.175 5.253-3.231 10.216-8.334 12.556l-25.256 11.583c-4.72 2.165-10.027 1.429-13.924-1.458l24.54 53.506c2.983 6.504 10.674 9.358 17.178 6.375l23.802-10.917c6.779-3.108 9.753-11.122 6.644-17.9z" fill="#b166db"/><path d="m372.97 41.259h-6.367l-26.51 10.064c-10.554 3.44-21.366 5.275-31.726 5.325l-6.995 3.713-5.494 23.694v29.532l9.452 21.634 23.514 20.26 21.521 2.524c1.906-.781 3.895-1.641 6.015-2.59 11.532-5.161 22.484-11.414 32.745-18.626 5.316-3.737 11.099-6.742 17.203-8.917l2.522-6.645z" fill="#ffdecf"/><path d="m297.251 93.298c0-13.563 4.098-26.166 11.116-36.65-9.784.047-19.165-1.496-27.533-4.835l-36.587-14.606c-7.997-2.757-26.369-7.048-45.433 2.723-.009.004-.016.007-.016.007-1.908.845-122.058 53.992-127.727 56.499-3.867 1.983-23.313 13.65-14.6 33.459 10.098 21.088 33.341 11.12 35.292 10.39l98.678-29.193s-6.755 19.847 13.701 28.012c56.694 22.633 63.455 26.46 77.804 26.688l.002.002c40.088-.134 50.51-.444 68.418-7.786-30.28-5.984-53.115-32.676-53.115-64.71z" fill="#ffcebe"/><path d="m277.185 114.153c.999-4.148-1.554-8.322-5.703-9.321-.402-.097-48.151-11.348-64.944-15.461-17.612-4.315-28.237 8.176-31.152 17.736l-3.255 9.401 18.299-5.414c.993-2.433 1.544-3.093 2.61-4.257 2.516-2.748 5.544-3.506 9.82-2.457 16.823 4.121 64.601 15.378 65.004 15.476 4.149.999 8.321-1.554 9.321-5.703z" fill="#ffb1a0"/><path d="m384.357 79.969 1.018 1.382 2.49 1.202 7.083 1.502 34.232-16.14 3.348-8.048-.657-2.58-22.664-49.411c-3.109-6.778-11.123-9.752-17.901-6.643l-23.802 10.917c-6.504 2.983-9.358 10.674-6.375 17.178z" fill="#ff72c7"/><path d="m456.52 111.033-24.65-53.745c-.175 5.253-3.231 10.216-8.334 12.556l-25.256 11.583c-4.72 2.165-10.027 1.429-13.924-1.458l24.54 53.506c2.983 6.504 10.674 9.358 17.178 6.375l23.802-10.917c6.778-3.108 9.753-11.123 6.644-17.9z" fill="#ff4fb9"/></g></svg>