<svg id="Capa_1" enable-background="new 0 0 512 512" height="512" viewBox="0 0 512 512" width="512" xmlns="http://www.w3.org/2000/svg"><g><path d="m433.765 147.64-45 76c-4.609 7.784-12.88 7.333-12.98 7.36-5.33-.03-10.24-2.88-12.91-7.48l-44-76c-5.783-9.975 1.422-22.52 12.98-22.52h29v-95h-210v37.52c-9.841-1.189-20.016-1.269-30-.14v-52.38c0-8.28 6.72-15 15-15h240c8.28 0 15 6.72 15 15v110h30c11.594 0 18.822 12.648 12.91 22.64z" fill="#cee8ff"/><path d="m433.765 147.64-45 76c-4.61 7.78-12.88 7.33-12.98 7.36-5.33-.03-10.24-2.88-12.91-7.48l-44-76c-5.78-9.97 1.42-22.52 12.98-22.52h29v-95h-105v-30h120c8.28 0 15 6.72 15 15v110h30c11.59 0 18.82 12.65 12.91 22.64z" fill="#aedaff"/><path d="m90.393 452.538v14.231c0 24.98 20.25 45.231 45.231 45.231 24.98 0 45.231-20.25 45.231-45.231v-14.231z" fill="#004692"/><path d="m180.855 452.54v14.23c0 25.093-20.334 45.111-45 45.23v-59.46z" fill="#00204d"/><path d="m210.854 346.85-.236-23.678c.017-8.758 3.414-16.708 9.097-21.276 32.083-25.791 50.483-64.167 50.483-105.289 0-75.139-61.13-135.571-135.996-135.022-73.08.514-134.066 61.69-134.056 135.04.005 40.657 18.072 78.756 49.567 104.528 6.977 5.709 11.142 13.956 11.142 22.061v23.786l75.001 15.925z" fill="#ffda2d"/><path d="m270.195 196.61c0 41.12-18.4 79.49-50.48 105.29-5.68 4.56-9.08 12.51-9.1 21.27l.24 23.68-75 16.08v-301.35c74.1.35 134.34 60.44 134.34 135.03z" fill="#ffaa17"/><path d="m180.855 181h-90c-9.982 0-17.116 9.537-14.44 19.06l42.73 151.94h33.42l42.73-151.94c2.678-9.533-4.471-19.06-14.44-19.06zm-45 119.6-25.2-89.6h50.4z" fill="#ff7900"/><path d="m180.855 181h-45v30h25.2l-25.2 89.6v51.4h16.71l42.73-151.94c2.68-9.53-4.47-19.06-14.44-19.06z" fill="#ff4800"/><path d="m496.855 333.075h-25.13c-2.373-4.997-5.171-9.884-8.464-14.66l12.564-21.763c4.143-7.174 1.685-16.348-5.49-20.49l-51.961-30c-7.175-4.144-16.348-1.685-20.49 5.49l-12.563 21.758c-5.646-.464-11.303-.467-16.94-.011l-12.556-21.747c-4.139-7.169-13.317-9.633-20.49-5.49l-51.961 30c-7.175 4.142-9.633 13.316-5.49 20.49l12.555 21.747c-3.214 4.654-6.039 9.555-8.461 14.677h-25.123c-8.284 0-15 6.716-15 15v60c0 8.284 6.716 15 15 15h25.13c2.43 5.114 5.248 9.997 8.464 14.66l-12.564 21.763c-4.143 7.174-1.685 16.348 5.49 20.49l51.961 30c7.142 4.124 16.33 1.716 20.49-5.49l12.563-21.758c5.646.464 11.303.468 16.94.011l12.556 21.747c4.143 7.175 13.316 9.631 20.49 5.49l51.961-30c7.17-4.14 9.632-13.317 5.49-20.49l-12.556-21.746c3.214-4.654 6.04-9.556 8.462-14.677h25.123c8.284 0 15-6.716 15-15v-60c0-8.285-6.716-15.001-15-15.001zm-97.5 83.973c-21.582 12.461-49.123 4.917-61.471-16.471-12.406-21.489-5.018-49.065 16.471-61.471 21.544-12.436 49.036-5.067 61.471 16.471 12.406 21.489 5.017 49.065-16.471 61.471z" fill="#4ec9ff"/><path d="m496.855 333.08h-25.13c-2.37-5-5.17-9.89-8.46-14.67l12.56-21.76c4.14-7.17 1.69-16.35-5.49-20.49l-51.96-30c-7.18-4.14-16.35-1.68-20.49 5.49l-12.56 21.76c-2.83-.23-5.64-.35-8.47-.35v60c15.53.01 30.63 8.09 38.97 22.52 12.41 21.49 5.02 49.06-16.47 61.47-7.11 4.1-14.86 6.04-22.5 6.02v60.02c2.83 0 5.65-.11 8.47-.34l12.56 21.75c4.14 7.17 13.32 9.63 20.49 5.49l51.96-30c7.17-4.14 9.63-13.32 5.49-20.49l-12.55-21.75c3.21-4.65 6.04-9.55 8.46-14.67h25.12c8.28 0 15-6.72 15-15v-60c0-8.29-6.72-15-15-15z" fill="#0095ff"/><path d="m60.855 347v30l75.384 8.154 74.615-8.154v-30z" fill="#edf5ff"/><path d="m210.855 347v30l-74.62 8.15-.38-.04v-38.11z" fill="#cee8ff"/><path d="m60.855 377v69c0 8.284 6.716 15 15 15h120c8.284 0 15-6.716 15-15v-69z" fill="#cee8ff"/><path d="m210.855 377v69c0 8.28-6.72 15-15 15h-60v-84z" fill="#aedaff"/></g></svg>