<svg width="140" height="38" fill="none" xmlns="http://www.w3.org/2000/svg"><path d="M26.9 36.95h-4.35v-2.8c-2.35 2.05-5.35 3.3-8.75 3.3-7.15 0-13-5.8-13-13s5.85-13.05 13-13.05c7.25 0 13.1 5.85 13.1 13.05v12.5zM5.05 24.45c0 4.8 3.95 8.75 8.75 8.75 4.95 0 8.75-3.95 8.75-8.75 0-4.85-3.8-8.75-8.75-8.75-4.8 0-8.75 3.9-8.75 8.75zM35.963 37h-4.3V12h4.3v25zm0-30.8h-4.3V.4h4.3v5.8zm30.3-5.85v24.1c0 7.2-5.8 13-13 13-7.15 0-13-5.8-13-13s5.85-13.05 13-13.05c3.4 0 6.4 1.3 8.75 3.35V.35h4.25zm-21.75 24.1c0 4.8 3.95 8.75 8.75 8.75 4.85 0 8.75-3.95 8.75-8.75 0-4.85-3.9-8.75-8.75-8.75-4.8 0-8.75 3.9-8.75 8.75z" fill="#525A98"/><path d="M79.32 24.6c0 2.75 2.2 4.95 4.9 4.95s4.95-2.2 4.95-4.95-2.25-4.95-4.95-4.95-4.9 2.2-4.9 4.95zm10.3 8.85l1.9 1.95c-2.1 1.5-4.7 2.25-7.3 2.25-7.15 0-13-5.8-13-13.05 0-7.2 5.65-13.1 13-13.1 7.2 0 13 5.8 13 13.1 0 2.6-.75 5.1-2.15 7.25L93.12 30c1-1.65 1.5-3.45 1.5-5.4 0-5.75-4.55-10.45-10.4-10.45-2.8 0-5.4 1-7.35 3.05-2 1.9-3.05 4.65-3.05 7.4 0 5.75 4.55 10.45 10.4 10.45 1.9 0 3.85-.45 5.4-1.6zm-6.85-6.3c-.1-.25-.05-.5.15-.65l3.15-1.9c.25-.15.5-.05.65.15.1.2.05.5-.15.6l-3.15 1.95c-.1.05-.15.05-.25.05-.15 0-.3-.1-.4-.2zm5.8-1.85c-.4 2.1-2.15 3.7-4.35 3.7-.5 0-1-.1-1.45-.25-.2-.1-.35-.35-.25-.55a.4.4 0 01.55-.3c.4.15.75.2 1.15.2 1.7 0 3.15-1.25 3.45-2.9.05-.25.25-.45.5-.4.25.05.4.3.4.5zm1.2 3.45l7 7.05c.4.4.4 1.05 0 1.4-.2.2-.45.3-.7.3-.25 0-.5-.1-.7-.3l-7-7.05c-1.15.9-2.6 1.4-4.15 1.4-3.8 0-6.9-3.1-6.9-6.95s3.1-6.95 6.9-6.95c3.8 0 6.9 3.1 6.9 6.95 0 1.55-.5 3-1.35 4.15z" fill="#555A62"/><path d="M119.143 30.8l3 3c-2.2 2.2-4.95 3.55-7.75 3.55-7.15 0-13-5.8-13-13s5.85-13.05 13-13.05c2.8 0 5.55 1.4 7.75 3.6l-3 3c-1.45-1.4-3.1-2.3-4.75-2.3-4.8 0-8.75 3.9-8.75 8.75 0 4.8 3.95 8.75 8.75 8.75 1.65 0 3.3-.85 4.75-2.3zm10.914 6.2h-4.3V24.5c0-7.25 6.25-13.05 13.95-13.05v4.3c-5.35 0-9.65 3.9-9.65 8.75V37z" fill="#B1C1FB"/></svg>