<svg id="Layer_1" enable-background="new 0 0 52 52" height="512" viewBox="0 0 52 52" width="512" xmlns="http://www.w3.org/2000/svg"><g id="_x32_1"><g><g><g><g><g><g><g><path d="m36.0941696 5.6506104v40.5599976c0 2.0599976-1.6599731 3.7199707-3.7199707 3.7199707h-25.9899883c-2.0599976 0-3.720032-1.6599731-3.720032-3.7199707v-40.5599976c0-2.0500486 1.6600344-3.7200317 3.720032-3.7200317h25.9899883c2.0599976.0000001 3.7199707 1.6699832 3.7199707 3.7200317z" fill="#5b5e8b"/><path d="m9.9641666 49.9305801h-3.579956c-2.0599976 0-3.720032-1.6599731-3.720032-3.7199707v-40.559999c0-2.0500486 1.6600344-3.7200317 3.720032-3.7200317h3.5799561c-2.0499878 0-3.7199707 1.669983-3.7199707 3.7200317v40.5599976c-.0000001 2.059999 1.6699828 3.7199721 3.7199706 3.7199721z" fill="#312e4b"/><path d="m34.0941696 5.6506104v37.8999634c0 .9500122-.7700195 1.7200317-1.7199707 1.7200317h-25.9899883c-.9500122 0-1.7200317-.7700195-1.7200317-1.7200317v-37.8999634c0-.9500122.7700195-1.7200315 1.7200317-1.7200315h25.9899883c.9499512 0 1.7199707.7700193 1.7199707 1.7200315z" fill="#deddff"/></g></g></g></g></g><path d="m24.638485 47.7109871c0 .4799805-.3899536.8699951-.8699951.8699951h-8.789978c-.4700317 0-.8599854-.3900146-.8599854-.8699951s.3899536-.8599854.8599854-.8599854h8.789978c.4800414 0 .8699951.3800049.8699951.8599854z" fill="#312e4b"/></g></g><g><g><circle cx="12.313" cy="37.49" fill="#e83d62" r="5.348"/><g><path d="m12.9952383 42.7859726c-.2230892.0351868-.4461775.0469398-.6810198.0469398-2.958849 0-5.354063-2.383461-5.354063-5.3423119 0-2.958847 2.3952141-5.3540611 5.354063-5.3540611.2348423 0 .4579306.0117531.6810198.0469398-2.6301279.3287926-4.6731148 2.5831146-4.6731148 5.3071213 0 2.7240106 2.0429869 4.9665795 4.6731148 5.2953721z" fill="#ce2955"/><g><g fill="#ce2955"><circle cx="9.99" cy="36.091" r=".848"/><circle cx="14.636" cy="36.091" r=".848"/></g><g><path d="m9.5768604 39.7741966c.4869661-1.0238113 1.5232744-1.7292633 2.7281532-1.7292633s2.2412252.705452 2.7344017 1.7292633c.0374565.0811615.0562038.1623192.0562038.2434807 0 .312149-.2684793.5993347-.6180811.5993347-.2309856 0-.4369745-.131115-.5368824-.3371429-.2996483-.605545-.9176912-1.0238075-1.6356421-1.0238075s-1.3359938.4182625-1.6356421 1.0238075c-.0998697.206028-.3058968.3371429-.5368824.3371429-.4370115 0-.7429083-.4495086-.5556286-.8428154z" fill="#ce2955"/></g></g></g></g></g><g><path d="m31.276619 7.4595461v6.9756622c0 .6348648-.5079098 1.1427755-1.1427746 1.1427755h-7.2931194c-.6269207 0-1.1427746-.5079107-1.1427746-1.1427755v-6.9756622c0-.6348643.5158539-1.1427755 1.1427746-1.1427755h7.2931194c.6348648 0 1.1427746.5079112 1.1427746 1.1427755z" fill="#c6c6f7"/><path d="m24.4302597 15.5779839h-1.5871849c-.6269207 0-1.1427765-.5079107-1.1427765-1.1427755v-6.9756623c0-.6348643.5158558-1.1427755 1.1427765-1.1427755h1.5871849c-.6269207 0-1.1427746.5079112-1.1427746 1.1427755v6.9756622c0 .6348648.5158539 1.1427756 1.1427746 1.1427756z" fill="#b5b5ea"/></g><g><path d="m31.276619 21.0839653v6.9756622c0 .6348648-.5079098 1.1427765-1.1427746 1.1427765h-7.2931194c-.6269207 0-1.1427746-.5079117-1.1427746-1.1427765v-6.9756622c0-.6348648.5158539-1.1427765 1.1427746-1.1427765h7.2931194c.6348648 0 1.1427746.5079117 1.1427746 1.1427765z" fill="#c6c6f7"/><path d="m24.4302597 29.202404h-1.5871849c-.6269207 0-1.1427765-.5079117-1.1427765-1.1427765v-6.9756622c0-.6348648.5158558-1.1427765 1.1427765-1.1427765h1.5871849c-.6269207 0-1.1427746.5079117-1.1427746 1.1427765v6.9756622c0 .6348648.5158539 1.1427765 1.1427746 1.1427765z" fill="#b5b5ea"/></g><g><path d="m31.276619 33.9994736v6.9756622c0 .6348648-.5079098 1.1427765-1.1427746 1.1427765h-7.2931194c-.6269207 0-1.1427746-.5079117-1.1427746-1.1427765v-6.9756622c0-.6348648.5158539-1.1427727 1.1427746-1.1427727h7.2931194c.6348648 0 1.1427746.5079079 1.1427746 1.1427727z" fill="#c6c6f7"/><path d="m24.4302597 42.1179123h-1.5871849c-.6269207 0-1.1427765-.5079117-1.1427765-1.1427765v-6.9756622c0-.6348648.5158558-1.1427727 1.1427765-1.1427727h1.5871849c-.6269207 0-1.1427746.5079079-1.1427746 1.1427727v6.9756622c0 .6348648.5158539 1.1427765 1.1427746 1.1427765z" fill="#b5b5ea"/></g><g><circle cx="12.313" cy="11.659" fill="#fcb73e" r="5.348"/><g><path d="m12.9952383 16.9549541c-.2230892.0351868-.4461775.0469398-.6810198.0469398-2.958849 0-5.354063-2.383462-5.354063-5.3423109s2.3952141-5.3540626 5.354063-5.3540626c.2348423 0 .4579306.0117526.6810198.0469394-2.6301279.328793-4.6731148 2.5831165-4.6731148 5.3071232s2.0429869 4.9665786 4.6731148 5.2953711z" fill="#fd982e"/><g><g fill="#fd982e"><circle cx="9.99" cy="10.259" r=".848"/><circle cx="14.636" cy="10.259" r=".848"/></g><g><path d="m15.0394993 13.5268326c-.4869661 1.0238094-1.5232735 1.7292624-2.7281532 1.7292624s-2.2412243-.7054529-2.7344017-1.7292624c-.0374556-.0811615-.0562029-.162322-.0562029-.2434835 0-.3121462.2684793-.5993338.6180811-.5993338.2309847 0 .4369736.131115.5368814.337142.2996483.605545.9176912 1.0238104 1.6356421 1.0238104.7179518 0 1.3359947-.4182653 1.6356421-1.0238104.0998707-.206027.3058977-.337142.5368824-.337142.4370116 0 .7429093.4495096.5556287.8428173z" fill="#fd982e"/></g></g></g></g><g><circle cx="12.313" cy="24.575" fill="#46cc6b" r="5.348"/><g><path d="m12.9952383 29.8704624c-.2230892.0351887-.4461775.0469398-.6810198.0469398-2.958849 0-5.354063-2.383461-5.354063-5.34231s2.3952141-5.354063 5.354063-5.354063c.2348423 0 .4579306.0117531.6810198.0469398-2.6301279.3287926-4.6731148 2.5831165-4.6731148 5.3071232s2.0429869 4.9665776 4.6731148 5.2953702z" fill="#179c5f"/><g><g fill="#179c5f"><circle cx="9.99" cy="23.175" r=".848"/><circle cx="14.636" cy="23.175" r=".848"/></g><g><path d="m15.0394993 26.4423409c-.4869661 1.0238113-1.5232735 1.7292633-2.7281532 1.7292633s-2.2412243-.705452-2.7344017-1.7292633c-.0374556-.0811596-.0562029-.1623211-.0562029-.2434826 0-.3121452.2684793-.5993328.6180811-.5993328.2309847 0 .4369736.131115.5368814.337141.2996483.605545.9176912 1.0238094 1.6356421 1.0238094.7179518 0 1.3359947-.4182644 1.6356421-1.0238094.0998707-.2060261.3058977-.337141.5368824-.337141.4370116 0 .7429093.4495086.5556287.8428154z" fill="#179c5f"/></g></g></g></g><path d="m25.7395725 12.4581223c.1336346.1347971.3160763.2091684.5054893.2091684.189415 0 .3706951-.0743713.5043297-.2091684l2.2160244-2.2160254c.2788925-.2788916.2788925-.7309284 0-1.0086575-.2788906-.2788916-.7297649-.2788916-1.0086575 0l-1.7116966 1.7105341-.4218216-.4229851c-.2788925-.2788916-.7309284-.2800541-1.0098209-.0011625-.2788906.2788916-.2788906.7309284-.0011616 1.00982z" fill="#5b5e8b"/><path d="m25.7395725 26.2706223c.1336346.134798.3160763.2091675.5054893.2091675.189415 0 .3706951-.0743694.5043297-.2091675l2.2160244-2.2160263c.2788925-.2788906.2788925-.7309265 0-1.0086575-.2788906-.2788906-.7297649-.2788906-1.0086575 0l-1.7116966 1.710535-.4218216-.4229851c-.2788925-.2788925-.7309284-.2800541-1.0098209-.0011616-.2788906.2788906-.2788906.7309265-.0011616 1.009819z" fill="#5b5e8b"/><g><g><path d="m43.4481773 27.7072201 3.2230911 7.1535587c.5450897 1.2098083.6934128 2.5620918.4210205 3.8657036l-.5293427 2.5380592-9.3123093 4.1957359-2.4724503-1.0043755c-1.4951096-.6055031-2.7016029-1.7659035-3.3650398-3.2383766l-1.6227798-3.6017075c-.3181019-.7060204-.3897591-1.4972801-.2031708-2.2441826l.5260391-1.3039665.2419472-.601017.0023689-.0062523-2.3378162-5.2728596c-.4267406-.9471378-.0203362-2.1142559.9500828-2.489399.4273071-.1666069.8770676-.1569462 1.2724743-.0035553.4308987.1631927.7940655.4863834.9977512.9384594l2.3338852 5.2641354c-.4053841-.8997345-.0013199-1.9570541.8984947-2.3624725.4477386-.2017326.9382019-.205225 1.3647881-.0400906.4290047.1589909.7921486.482193.9957848.9341621l-.1532021-.3400269c-.4267387-.9471397-.0203552-2.1143742.9500847-2.4894009.42733-.1666183.8770943-.1569576 1.2724533-.0036736.4290009.1589909.7921448.482193.9957809.9341621l.290966.645792c-.4053802-.8997345-.0012894-1.9570656.8985252-2.362484.4477386-.2017326.9381981-.205225 1.3647881-.0400906.4290048.1589894.792145.4821934.9957849.9341626z" fill="#ffaf93"/><g fill="#ee8778"><path d="m38.0514984 45.0981636-.7979088.3589973-2.4730034-.9962578c-1.4960861-.6090889-2.7033997-1.7682152-3.3649826-3.2455559l-1.6308536-3.5981101c-.3127766-.7103119-.3837852-1.4923134-.1974907-2.2482758l.5264683-1.3058968.2477703-.5963783-.0102921-.0051613-2.3333225-5.2760811c-.4256706-.9471436-.0228271-2.1091919.9500237-2.4833965.190403-.071701.3808327-.1177807.5711269-.1123981-.7105904.4929066-.9588623 1.4750996-.5947666 2.288372l2.3436146 5.2812424-.2477093.5964088-.5265617 1.3059273c-.181036.7456398-.1152859 1.5379677.2077827 2.2534409l1.6206551 3.5929146c.6615219 1.4773102 1.8688354 2.6364365 3.3649826 3.2455559z"/><path d="m37.7605705 27.5560188c-.3771324.2320061-.6428871.5847855-.7669601.9876575-.1240005.4029655-.1102753.8473091.0759354 1.2605991.4093132.9084587.7626572 1.8421364 1.0604095 2.7903633l-1.4909363-2.596386c-.0872307-.1936111-.1362267-.3943348-.1492081-.5956059-.0593452-.7294121.3416595-1.4487514 1.0477295-1.7668781.073185-.0329721.1483078-.0616358.2230301-.0797499z"/><path d="m34.6954536 29.454958c-.7499847.4620819-1.0634193 1.4216652-.6909981 2.2482452l.0815048.1808929c.4228554.9385204.791687 1.9065685 1.0963974 2.893259l-1.608429-2.8801746c-.1919899-.4261131-.203022-.887352-.0640793-1.2917385.1496162-.4610386.4889793-.8573513.962574-1.070734.0731851-.0329723.144024-.0597057.2230302-.07975z"/><path d="m30.3551826 33.4666519c.3788624.8753929.7124367 1.7766304.990345 2.6923256l.6007862 1.9771538-1.8330784-4.0684624z"/><path d="m41.4020882 31.4579601c-.1503334-.8395519-.4102936-1.6548023-.7608643-2.4323311-.0017815-.0039482-.0035629-.0078964-.0053406-.0118446l-.0152245-.0337906c-.372467-.826683-.0590057-1.7862206.6909943-2.2483215-.074707.018158-.1498413.0468426-.2230034.0798073-.7060928.3181362-1.1071014 1.0374031-1.0477638 1.7667923.0129967.2013474.0619698.4019852.14925.5956974l1.2820206 2.675293z"/></g><path d="m48.107502 41.8188362 1.1274261 2.502285c.2585983.5739555.0029526 1.2488785-.571003 1.5074768l-9.1884422 4.1399269c-.5739555.2586021-1.2488747.0029564-1.507473-.5709991l-1.1274261-2.5022888c-.2586021-.5739555-.0029564-1.2488747.5709991-1.507473l9.1884422-4.1399307c.5739556-.2585984 1.2488747-.0029526 1.5074769.5710029z" fill="#65b9ff"/><path d="m41.3433952 49.1306381-1.8633766.8410873c-.5765648.2512932-1.2500839.0033875-1.5116386-.5782471l-1.1282539-2.4965057c-.2513275-.5765038-.0034828-1.2500534.5782433-1.5116425l9.1779175-4.1335258c.0308495-.0102882.0617256-.0204811.0926361-.030735l-7.3814583 3.3232765c-.5662422.2563972-.8295441.9350739-.5628242 1.5064163l1.1231537 2.5068321c.2512701.5507852.9144934.819214 1.475601.5730439z" fill="#3e7fff"/></g></g></g></svg>