<svg id="Capa_1" enable-background="new 0 0 512 512" height="512" viewBox="0 0 512 512" width="512" xmlns="http://www.w3.org/2000/svg"><g><path d="m418.769 512h-325.538c-6.827 0-12.362-5.535-12.362-12.362v-451.219c0-6.827 5.535-12.362 12.362-12.362h325.537c6.827 0 12.362 5.535 12.362 12.362v451.219c.001 6.827-5.534 12.362-12.361 12.362z" fill="#e49280"/><path d="m418.769 36.056h-30.905c6.827 0 12.362 5.535 12.362 12.362v451.219c0 6.827-5.535 12.362-12.362 12.362h30.905c6.827 0 12.362-5.535 12.362-12.362v-451.218c0-6.828-5.535-12.363-12.362-12.363z" fill="#dd7f66"/><path d="m111.775 476.201v-404.346c0-2.703 2.191-4.893 4.893-4.893h278.664c2.703 0 4.893 2.191 4.893 4.893v404.346c0 2.703-2.191 4.893-4.893 4.893h-278.664c-2.703.001-4.893-2.19-4.893-4.893z" fill="#f9f3f1"/><path d="m395.332 66.962h-30.905c2.702 0 4.893 2.191 4.893 4.893v404.346c0 2.702-2.191 4.893-4.893 4.893h30.905c2.702 0 4.893-2.191 4.893-4.893v-404.346c0-2.702-2.191-4.893-4.893-4.893z" fill="#f3eae6"/><path d="m326.567 83.411h-141.134c-12.232 0-22.149-9.916-22.149-22.149v-49.21c0-6.656 5.396-12.052 12.052-12.052h161.328c6.656 0 12.052 5.396 12.052 12.052v49.21c0 12.233-9.916 22.149-22.149 22.149z" fill="#d9e7ec"/><path d="m336.664 0h-30.905c6.656 0 12.052 5.396 12.052 12.052v49.21c0 12.233-9.916 22.149-22.149 22.149h30.905c12.233 0 22.149-9.916 22.149-22.149v-49.21c0-6.656-5.396-12.052-12.052-12.052z" fill="#c5d3dd"/><path d="m194.189 33.333v-33.333h123.622v33.333c0 10.589-8.584 19.173-19.173 19.173h-85.276c-10.589 0-19.173-8.584-19.173-19.173z" fill="#fea95c"/><path d="m286.905 0v33.333c0 10.589-8.584 19.173-19.173 19.173h30.905c10.589 0 19.173-8.584 19.173-19.173v-33.333z" fill="#fe9738"/><g fill="#fe646f"><path d="m347.47 197.849-29.363-77.809c-.026-.069-.054-.139-.082-.208-1.439-3.495-4.81-5.751-8.589-5.751h-.011c-3.784.004-7.154 2.271-8.586 5.772-.023.056-.045.112-.067.17l-29.633 77.805c-1.474 3.87.468 8.203 4.339 9.678 3.873 1.477 8.204-.468 9.678-4.34l5.54-14.547h37.258l5.482 14.526c1.134 3.003 3.987 4.854 7.019 4.854.879 0 1.775-.156 2.646-.485 3.876-1.462 5.832-5.789 4.369-9.665zm-51.061-24.23 13.002-34.138 12.883 34.138z"/><path d="m249.325 188.129c5.432-7.661 8.638-17.005 8.638-27.09 0-25.894-21.065-46.959-46.958-46.959s-46.958 21.065-46.958 46.959c0 25.893 21.065 46.958 46.958 46.958 10.405 0 20.026-3.407 27.818-9.156l6.641 6.642c1.464 1.464 3.384 2.196 5.303 2.196s3.839-.732 5.303-2.196c2.929-2.93 2.929-7.678 0-10.607zm-38.32 4.868c-17.622 0-31.958-14.336-31.958-31.958s14.336-31.959 31.958-31.959 31.958 14.337 31.958 31.959c0 5.936-1.632 11.496-4.464 16.264l-7.675-7.675c-2.928-2.927-7.677-2.929-10.606 0-2.929 2.93-2.929 7.678 0 10.607l7.823 7.823c-4.936 3.123-10.776 4.939-17.036 4.939z"/></g><path d="m231.259 433.878h-74.285c-2.079 0-3.764-1.685-3.764-3.764v-88.666c0-2.079 1.685-3.764 3.764-3.764h74.285c2.079 0 3.764 1.685 3.764 3.764v88.666c.001 2.079-1.685 3.764-3.764 3.764z" fill="#fe646f"/><path d="m231.259 337.683h-30.905c2.079 0 3.764 1.685 3.764 3.764v88.667c0 2.079-1.685 3.764-3.764 3.764h30.905c2.079 0 3.764-1.685 3.764-3.764v-88.667c.001-2.079-1.685-3.764-3.764-3.764z" fill="#fd4755"/><path d="m356.611 433.878h-74.285c-2.079 0-3.764-1.685-3.764-3.764v-88.666c0-2.079 1.685-3.764 3.764-3.764h74.285c2.079 0 3.764 1.685 3.764 3.764v88.666c0 2.079-1.686 3.764-3.764 3.764z" fill="#ade194"/><path d="m356.61 337.683h-30.905c2.079 0 3.764 1.685 3.764 3.764v88.667c0 2.079-1.685 3.764-3.764 3.764h30.905c2.079 0 3.764-1.685 3.764-3.764v-88.667c.001-2.079-1.685-3.764-3.764-3.764z" fill="#97da7b"/><g fill="#7ca1b1"><path d="m151.625 246.166h84.458c4.142 0 7.5-3.357 7.5-7.5s-3.358-7.5-7.5-7.5h-84.458c-4.142 0-7.5 3.357-7.5 7.5s3.358 7.5 7.5 7.5z"/><path d="m151.625 274.096h208.75c4.142 0 7.5-3.357 7.5-7.5s-3.358-7.5-7.5-7.5h-208.75c-4.142 0-7.5 3.357-7.5 7.5s3.358 7.5 7.5 7.5z"/><path d="m360.375 287.025h-208.75c-4.142 0-7.5 3.357-7.5 7.5s3.358 7.5 7.5 7.5h208.75c4.142 0 7.5-3.357 7.5-7.5s-3.358-7.5-7.5-7.5z"/></g></g></svg>