<svg height="512" viewBox="0 0 64 64" width="512" xmlns="http://www.w3.org/2000/svg"><g id="Icons"><g><path d="m44.667 10c-3.029 0-5.977-.982-8.4-2.8l-4.267-3.2-4.267 3.2c-2.423 1.818-5.371 2.8-8.4 2.8h-7.333v20.397c0 4.068.954 7.976 2.678 11.476.768-.279 1.322-1.009 1.322-1.873v-2c0-2.206 1.794-4 4-4s4 1.794 4 4v4h3.893c2.001 0 3.744 1.437 4.054 3.343.064.393.07.788.02 1.173.406.229.772.53 1.082.894.762.896 1.089 2.079.898 3.248-.078.479-.246.929-.487 1.333.463.796.64 1.736.487 2.667-.036.222-.11.429-.183.637l1.893-.757c9.87-3.949 16.343-13.509 16.343-24.141v-20.397z" fill="#3cc8b4"/></g><g><g><path d="m33.812 55.125c-.017.057-.029.115-.049.17l.237-.095z" fill="#1eaa96"/></g><g><path d="m16 40v-2c0-.766.227-1.475.602-2.083-.389-1.791-.602-3.637-.602-5.52v-20.397h-4v20.397c0 4.068.954 7.976 2.678 11.477.768-.279 1.322-1.01 1.322-1.874z" fill="#1eaa96"/></g></g><g><path d="m30 52h-.107c.996 0 1.92-.681 2.08-1.664.203-1.253-.758-2.336-1.973-2.336h-2c1.215 0 2.176-1.083 1.973-2.336-.16-.983-1.084-1.664-2.08-1.664h-5.793-.1v-6c0-1.105-.895-2-2-2-1.105 0-2 .895-2 2v2c0 2.209-1.791 4-4 4h-4v16h17.893c.996 0 1.92-.681 2.08-1.664.203-1.253-.758-2.336-1.973-2.336h1.893c.996 0 1.92-.681 2.08-1.664.204-1.253-.758-2.336-1.973-2.336z" fill="#f0c8a0"/></g><g><path d="m19 40v-2c0-.76.293-1.447.76-1.976-.99.12-1.76.953-1.76 1.976v2c0 1.141-.484 2.165-1.251 2.894 1.291-.335 2.251-1.5 2.251-2.894z" fill="#d2aa82"/></g><g><path d="m4 42h6v18h-6z" fill="#505050"/></g><g><path d="m4 42h2v18h-2z" fill="#3c3c3c"/></g><g><path d="m29.723 45c-.346-.595-.984-1-1.723-1h-6v1z" fill="#d2aa82"/></g><g><path d="m22 49h9.727c-.346-.596-.987-1-1.727-1h-8z" fill="#d2aa82"/></g><g><path d="m31.727 53c-.346-.596-.987-1-1.727-1h-8v1z" fill="#d2aa82"/></g><g><path d="m29.723 57c-.346-.595-.984-1-1.723-1h-6v1z" fill="#d2aa82"/></g><g><path d="m44 28c0-6.627-5.373-12-12-12s-12 5.373-12 12c0 2.406.715 4.643 1.935 6.521.857.479 1.514 1.255 1.835 2.196 2.149 2.03 5.04 3.283 8.23 3.283 6.627 0 12-5.373 12-12z" fill="#008c78"/></g><g><path d="m39.5 25-9 9-6-6 3-3 3 3 6-6z" fill="#fab400"/></g></g></svg>