<svg id="Layer_1" enable-background="new 0 0 512 512" viewBox="0 0 512 512" xmlns="http://www.w3.org/2000/svg"><g><path clip-rule="evenodd" d="m494.654 439.382c14.801-7.171 21.054-25.185 13.854-40.014-7.171-14.801-25.156-21.054-39.986-13.854l-85.679 41.534c6.598-12.621 3.414-28.627-8.232-37.605-26.532-20.48-53.094-40.961-79.627-61.47-4.646-3.557-9.667-5.278-15.547-5.278h-62.961-31.438v113.216h31.438c154.952 80.86 123.141 78.623 278.178 3.471z" fill="#ffbfa8" fill-rule="evenodd"/></g><g><path d="m356.293 450.119c-7.899 0-15.852-2.508-22.571-7.692l-56.452-43.572c-3.091-2.385-3.663-6.826-1.277-9.917 2.385-3.091 6.826-3.662 9.918-1.277l56.45 43.571c9.979 7.696 24.369 5.85 32.08-4.121 1.274-1.65 2.326-3.508 3.125-5.516 1.445-3.629 5.558-5.401 9.183-3.958 3.629 1.443 5.4 5.555 3.958 9.183-1.286 3.232-2.993 6.238-5.075 8.936-7.287 9.422-18.258 14.363-29.339 14.363z" fill="#faa07f"/></g><path d="m185.039 302.775h-98.372v-30.936c0-3.905-3.166-7.07-7.071-7.07s-7.07 3.165-7.07 7.07v38.007c0 3.905 3.165 7.07 7.07 7.07h98.373v35.367h-146.805v-50.097c0-3.905-3.165-7.07-7.07-7.07-3.906 0-7.071 3.165-7.071 7.07v57.168c0 3.905 3.165 7.071 7.071 7.071h153.875v18.1h-120c-3.905 0-7.07 3.165-7.07 7.07v57.167c0 3.905 3.165 7.071 7.07 7.071s7.071-3.165 7.071-7.071v-50.096h112.929v40.76h-50.096c-3.905 0-7.07 3.165-7.07 7.071 0 3.905 3.165 7.071 7.07 7.071h57.167c3.905 0 7.07-3.165 7.07-7.071v-136.65c-.001-3.907-3.166-7.072-7.071-7.072z" fill="#a1a1f8"/><g><path d="m289.019 120.229h-76.902c-3.905 0-7.071-3.165-7.071-7.071v-57.168c0-3.905 3.165-7.071 7.071-7.071s7.071 3.165 7.071 7.071v50.097h69.832c3.905 0 7.07 3.165 7.07 7.071s-3.166 7.071-7.071 7.071z" fill="#ff5ba8"/></g><path d="m212.116 15.848c-13.024 0-23.621 10.584-23.621 23.592 0 13.024 10.596 23.621 23.621 23.621 13.01 0 23.593-10.596 23.593-23.621.001-13.008-10.583-23.592-23.593-23.592z" fill="#ed4593"/><g><path d="m280.356 174.786h-116.859c-3.905 0-7.071-3.165-7.071-7.071s3.165-7.071 7.071-7.071h116.859c3.905 0 7.071 3.165 7.071 7.071s-3.166 7.071-7.071 7.071z" fill="#ff5ba8"/></g><path d="m146.975 144.122c-13.009 0-23.592 10.584-23.592 23.593s10.584 23.592 23.592 23.592c13.01 0 23.593-10.584 23.593-23.592 0-13.009-10.584-23.593-23.593-23.593z" fill="#ed4593"/><g><path d="m297.624 273.43h-81.463c-3.905 0-7.071-3.165-7.071-7.07s3.165-7.071 7.071-7.071h81.463c3.905 0 7.071 3.165 7.071 7.071-.001 3.905-3.166 7.07-7.071 7.07z" fill="#ff5ba8"/></g><path d="m199.639 242.768c-13.009 0-23.592 10.584-23.592 23.592 0 13.009 10.584 23.592 23.592 23.592 13.01 0 23.593-10.584 23.593-23.592 0-13.009-10.584-23.592-23.593-23.592z" fill="#ed4593"/><g><path clip-rule="evenodd" d="m411.327 95.546c5.22 1.664 10.24 3.758 15.059 6.224l31.351-19.792 31.151 31.18-19.792 31.352c2.496 4.79 4.59 9.81 6.253 15.031l36.142 8.175v44.087l-36.142 8.175c-1.664 5.22-3.758 10.24-6.253 15.03l19.792 31.352-31.151 31.18-31.351-19.792c-4.819 2.467-9.839 4.561-15.059 6.224l-8.175 36.171h-44.059l-8.175-36.171c-5.221-1.664-10.24-3.758-15.059-6.224l-31.352 19.792-31.151-31.18 19.792-31.352c-2.496-4.79-4.59-9.81-6.253-15.03l-36.142-8.175v-44.087l36.142-8.175c1.664-5.22 3.758-10.24 6.253-15.031l-19.792-31.352 31.151-31.18 31.352 19.792c4.819-2.467 9.838-4.561 15.059-6.224l8.175-36.171h44.059z" fill="#ff5ba8" fill-rule="evenodd"/></g><g><path clip-rule="evenodd" d="m407.684 300.178-4.532 19.964h-44.059l-8.175-36.171c-5.221-1.664-10.24-3.758-15.059-6.224l-31.352 19.792-31.151-31.18 19.792-31.352c-2.496-4.79-4.59-9.81-6.253-15.03l-36.142-8.175v-44.087l36.142-8.175c1.664-5.22 3.758-10.24 6.253-15.031l-19.792-31.352 31.151-31.18 31.352 19.792c4.819-2.467 9.838-4.561 15.059-6.224l8.175-36.171h44.059l4.532 19.964c-50.312 11.56-87.831 56.622-87.831 110.433.001 53.814 37.52 98.847 87.831 110.407z" fill="#ed4593" fill-rule="evenodd"/></g><g><path clip-rule="evenodd" d="m381.123 256.435c36.716 0 66.691-29.946 66.691-66.662 0-36.744-29.975-66.69-66.691-66.69-36.715 0-66.69 29.946-66.69 66.69 0 36.716 29.974 66.662 66.69 66.662z" fill="#f1f0ff" fill-rule="evenodd"/></g><g><path clip-rule="evenodd" d="m329.692 189.773c0-34.249 25.816-62.474 59.06-66.26-2.495-.287-5.048-.43-7.63-.43-22.632 0-42.596 11.244-54.672 28.483-7.573 10.814-12.018 23.98-12.018 38.207 0 14.199 4.446 27.365 12.018 38.178 12.076 17.239 32.04 28.483 54.672 28.483 2.582 0 5.135-.143 7.63-.43-33.244-3.786-59.06-31.982-59.06-66.231z" fill="#d0d0f7" fill-rule="evenodd"/></g><g fill="#8787ed"><path d="m111.349 422.903c-13.009 0-23.592 10.584-23.592 23.592 0 13.009 10.584 23.592 23.592 23.592 13.01 0 23.593-10.584 23.593-23.592.001-13.008-10.583-23.592-23.593-23.592z"/><path d="m79.596 231.724c-13.009 0-23.592 10.584-23.592 23.593s10.584 23.592 23.592 23.592c13.01 0 23.593-10.584 23.593-23.592 0-13.01-10.584-23.593-23.593-23.593z"/><path d="m24.093 262.071c-13.01 0-23.593 10.584-23.593 23.593s10.584 23.592 23.593 23.592 23.592-10.584 23.592-23.592c0-13.009-10.583-23.593-23.592-23.593z"/><path d="m57.968 441.691c-13.009 0-23.592 10.584-23.592 23.593s10.584 23.592 23.592 23.592c13.01 0 23.593-10.584 23.593-23.592 0-13.01-10.583-23.593-23.593-23.593z"/></g></svg>