<svg height="512" viewBox="0 0 64 64" width="512" xmlns="http://www.w3.org/2000/svg"><g id="_07-Vision" data-name="07-Vision"><path d="m47 63h-30a3.85 3.85 0 0 1 2.91-3.73l4.5-.94a1.993 1.993 0 0 0 1.59-1.96v-5.37h12v5.37a1.993 1.993 0 0 0 1.59 1.96l4.5.94a3.85 3.85 0 0 1 2.91 3.73z" fill="#393d48"/><path d="m63 13v32h-62v-32a4 4 0 0 1 4-4h54a4 4 0 0 1 4 4z" fill="#fbfbfb"/><path d="m63 45v2a4 4 0 0 1 -4 4h-54a4 4 0 0 1 -4-4v-2z" fill="#8394b2"/><path d="m59 49h-54a4 4 0 0 1 -4-4v2a4 4 0 0 0 4 4h54a4 4 0 0 0 4-4v-2a4 4 0 0 1 -4 4z" fill="#5c6979"/><path d="m7 18v-9h-2a4 4 0 0 0 -4 4v32h62v-5h-34a22 22 0 0 1 -22-22z" fill="#edf4fa"/><path d="m59 9h-54a4 4 0 0 0 -4 4v32h1v-32a3 3 0 0 1 3-3h54a3 3 0 0 1 3 3v32h1v-32a4 4 0 0 0 -4-4z" fill="#a8b7d4"/><path d="m5 9a4 4 0 0 0 -4 4v32h1v-32a3 3 0 0 1 3-3h2v-1z" fill="#8394b2"/><path d="m62 40h1v5h-1z" fill="#8394b2"/><path d="m26.851 61a1 1 0 0 1 -.625-1.781l1.579-.694a2 2 0 0 0 1.195-1.831v-1.694a2 2 0 0 1 2-2h7v-2h-12v5.37a1.993 1.993 0 0 1 -1.59 1.96l-4.5.94a3.85 3.85 0 0 0 -2.91 3.73h30a3.82 3.82 0 0 0 -.575-2z" fill="#2b2b37"/><path d="m41 25a1 1 0 0 1 -.707-1.707l7-7a1 1 0 0 1 1.414 1.414l-7 7a1 1 0 0 1 -.707.293z" fill="#f7594e"/><path d="m38 32a1 1 0 0 1 -.707-1.707l5-5a1 1 0 0 1 1.414 1.414l-5 5a1 1 0 0 1 -.707.293z" fill="#f7594e"/><path d="m35 35a1 1 0 0 1 -.707-1.707l1-1a1 1 0 0 1 1.414 1.414l-1 1a1 1 0 0 1 -.707.293z" fill="#f7594e"/><path d="m22 7a1 1 0 0 1 -.707-1.707l4-4a1 1 0 0 1 1.414 1.414l-4 4a1 1 0 0 1 -.707.293z" fill="#f7594e"/><path d="m19 10a1 1 0 0 1 -.707-1.707l1-1a1 1 0 1 1 1.414 1.414l-1 1a1 1 0 0 1 -.707.293z" fill="#f7594e"/><path d="m28.659 22.081.8 2.09.01.01.1.25c-.02.42-.55 1.42-2.959 3.829l-.69-2.059a10.492 10.492 0 0 1 -6.86 2.739 10.492 10.492 0 0 1 2.74-6.859l-2.059-.69c2.409-2.409 3.409-2.939 3.829-2.959l.25.1.01.01 2.09.8z" fill="#a81e29"/><path d="m46.506 1.494c.65.65.68 2.829-.04 5.529a3.882 3.882 0 0 1 -5.489-5.489c2.7-.72 4.879-.69 5.529-.04z" fill="#f7594e"/><circle cx="35.998" cy="12.002" fill="#fbfbfb" r="4.002"/><path d="m28.9 10.033c-2.31 3.389-3.33 7.029-2.98 9.308l-2.09-.8-.01-.01a.269.269 0 0 0 -.25-.1l-6.57-2.531 5.489-5.479a4.825 4.825 0 0 1 6.411-.388z" fill="#ff7376"/><path d="m28.659 22.081c2.269.35 5.909-.67 9.308-2.98a4.825 4.825 0 0 1 -.39 6.41l-5.477 5.489-2.53-6.569a.269.269 0 0 0 -.1-.25l-.01-.01z" fill="#ff7376"/><path d="m37.967 19.1c-3.4 2.31-7.039 3.33-9.308 2.98l-2.74-2.74c-.35-2.279.67-5.919 2.98-9.308a20.245 20.245 0 0 1 2.509-3.05 21.918 21.918 0 0 1 9.569-5.449 3.882 3.882 0 0 0 5.489 5.489 21.918 21.918 0 0 1 -5.449 9.569 20.245 20.245 0 0 1 -3.05 2.509zm-4.8-9.928a4 4 0 1 0 5.659 0 4.006 4.006 0 0 0 -5.658.001z" fill="#ffad39"/><path d="m28.9 10.033a4.725 4.725 0 0 0 -1.1-.633l-3.421 3.992a4 4 0 0 1 -3.479 1.374l-2.484-.276-1.416 1.41 6.569 2.53a.269.269 0 0 1 .25.1l.01.01 2.09.8c-.35-2.278.67-5.918 2.981-9.307z" fill="#e03e3e"/><path d="m34.979 22.587 3.555-2.54a4.737 4.737 0 0 0 -.567-.945c-3.4 2.309-7.039 3.329-9.308 2.979l.8 2.09.01.01a.269.269 0 0 1 .1.25l2.531 6.569 1.664-1.667-.418-2.926a4 4 0 0 1 1.633-3.82z" fill="#e03e3e"/><path d="m46.889 2.336a.931.931 0 0 1 -.026.223 21.38 21.38 0 0 1 -2.283 5.468 3.857 3.857 0 0 0 1.886-1 10.966 10.966 0 0 0 .423-4.691z" fill="#cb3541"/><path d="m39.135 14.455a3.929 3.929 0 0 1 -.308.377 3.931 3.931 0 0 1 -1.086.753c-.579.443-1.152.853-1.708 1.225a7.533 7.533 0 0 1 -9.762-1.177 9.4 9.4 0 0 0 -.352 3.708l2.74 2.74c2.269.35 5.909-.67 9.308-2.979a20.313 20.313 0 0 0 3.05-2.51 21.918 21.918 0 0 0 5.449-9.569 3.857 3.857 0 0 1 -1.886 1 25.791 25.791 0 0 1 -5.445 6.432z" fill="#e68c15"/><path d="m39.533 8.467a5 5 0 1 0 0 7.071 5 5 0 0 0 0-7.071zm-.706 6.365a4 4 0 1 1 0-5.659 4.006 4.006 0 0 1 0 5.659z" fill="#cb3541"/><path d="m39.827 12.832a4 4 0 0 1 -6.762-3.532 4 4 0 1 0 6.865 3.408c-.037.039-.064.085-.103.124z" fill="#c1cfe8"/><path d="m25.919 19.341-.237-.09c-.933.769-3.622 3.282-3.622 6.689 3.407 0 5.92-2.689 6.689-3.622l-.09-.237z" fill="#800000"/><g fill="#d6e0eb"><path d="m19.569 19.432.25.1a.269.269 0 0 0 -.25-.1z"/><path d="m23.569 18.432.25.1a.269.269 0 0 0 -.25-.1z"/><path d="m21.8 22.081-2.059-.69c2.409-2.409 3.409-2.939 3.829-2.959l-6.57-2.532 5.489-5.479a4.754 4.754 0 0 1 .374-.312 4.8 4.8 0 0 0 -4.374 1.312l-5.489 5.479 6.569 2.53a.269.269 0 0 1 .25.1l-.25-.1c-.42.02-1.42.55-3.829 2.959l2.059.69a10.492 10.492 0 0 0 -2.739 6.861 9.853 9.853 0 0 0 4.284-1.011c-.1 0-.187.011-.284.011a10.492 10.492 0 0 1 2.74-6.859z"/><path d="m22.609 29.26c.77-.77 1.332-1.383 1.762-1.892a10.95 10.95 0 0 1 -2.063.994z"/><path d="m29.568 24.431a.269.269 0 0 0 -.1-.25z"/><path d="m26.644 28.224 1.456 3.776 3.164-3.17-1.694-4.4c-.021.419-.549 1.413-2.926 3.794z"/></g></g></svg>