<svg width="133" height="133" fill="none" xmlns="http://www.w3.org/2000/svg"><g clip-path="url(#clip0_173_27)"><path d="M68.7 21.082L65.519 0H18.844c-7.029 0-12.61 5.726-12.61 12.754v88.262c0 7.027 5.581 12.637 12.61 12.637h44.275l31.898-48.296V30.915L68.7 21.082z" fill="#00ACEA"/><path d="M65.519.03l29.41 30.885H75.352a9.824 9.824 0 01-9.832-9.833V.03z" fill="#00EFD1"/><path d="M64.39 66.225H26.71a2.901 2.901 0 00-2.893 2.892 2.9 2.9 0 002.892 2.892h37.682a2.9 2.9 0 002.892-2.892 2.882 2.882 0 00-2.892-2.892zM26.71 57.55h29.294a2.901 2.901 0 002.893-2.893 2.9 2.9 0 00-2.892-2.891H26.709a2.9 2.9 0 00-2.892 2.891 2.901 2.901 0 002.892 2.893zm28.166 23.424H26.71a2.901 2.901 0 00-2.893 2.891 2.901 2.901 0 002.892 2.893h28.167a2.9 2.9 0 002.893-2.893 2.9 2.9 0 00-2.893-2.891z" fill="#083863"/><path d="M94.93 59.603c17.93 2.515 31.724 17.9 31.724 36.524 0 20.359-16.513 36.873-36.872 36.873-13.996 0-26.2-7.808-32.418-19.318a36.824 36.824 0 01-4.454-17.583c0-20.36 16.513-36.872 36.872-36.872a43.63 43.63 0 015.148.376z" fill="#FEDB41"/><path d="M91.835 74.785a2.911 2.911 0 00-2.11-.925c-.81 0-1.562.347-2.112.925l-16.947 18.19c-1.098 1.158-1.011 3.008.145 4.078a2.875 2.875 0 001.967.781c.78 0 1.59-.319 2.169-.925l11.972-12.812v31.581a2.9 2.9 0 002.892 2.892 2.9 2.9 0 002.892-2.892V84.097l11.886 12.812c1.099 1.157 2.892 1.243 4.078.143a2.909 2.909 0 00.144-4.076L91.835 74.785z" fill="#083863"/></g><defs><clipPath id="clip0_173_27"><path fill="#fff" d="M0 0h133v133H0z"/></clipPath></defs></svg>