<svg height="800" width="800" xmlns="http://www.w3.org/2000/svg" viewBox="0 0 48.669 48.669"><path d="M24.335 0C10.917 0 0 10.915 0 24.333c0 13.378 10.853 24.268 24.217 24.332.005 0 .009.003.014.003l.013-.002.091.002c13.418 0 24.334-10.917 24.334-24.334C48.67 10.916 37.753 0 24.335 0zm-1.632 1.314c-1.97 1.958-5.879 6.229-8.603 11.678-5.335-.644-7.644-1.627-8.503-2.117 3.896-5.407 10.069-9.066 17.106-9.561zM4.895 11.909c1.014.6 3.407 1.604 8.636 2.272-1.325 2.932-2.255 6.163-2.36 9.527H1.266a22.921 22.921 0 013.629-11.799zm-3.629 13.05h9.904c.104 3.332 1.018 6.531 2.322 9.44-5.275.677-7.655 1.698-8.641 2.292a22.927 22.927 0 01-3.585-11.732zm4.281 12.763c.809-.476 3.084-1.481 8.506-2.136 2.726 5.493 6.668 9.799 8.649 11.769-7.066-.498-13.262-4.187-17.155-9.633zm18.163 8.859c-1.781-1.777-5.582-5.914-8.286-11.148 2.255-.225 4.991-.388 8.286-.442v11.59zm0-12.839c-3.55.059-6.474.243-8.869.499-1.343-2.872-2.296-6.024-2.407-9.281H23.71v8.782zm0-10.033H12.434c.112-3.289 1.085-6.473 2.45-9.368 2.387.253 5.297.435 8.826.494v8.874zm0-10.125c-3.27-.055-5.99-.216-8.236-.439C18.175 7.958 21.94 3.857 23.71 2.09v11.494zm23.694 10.125H37.396c-.103-3.295-.999-6.461-2.281-9.344 5.188-.624 7.639-1.704 8.71-2.378a22.94 22.94 0 013.579 11.722zm-4.277-12.758c-.894.553-3.24 1.622-8.568 2.221-2.731-5.544-6.715-9.89-8.704-11.866 7.115.465 13.358 4.167 17.272 9.645zM24.96 2.195c1.856 1.867 5.58 5.964 8.227 11.116-2.248.198-4.966.312-8.227.288V2.195zm0 12.654c.274.002.554.005.821.005 3.156 0 5.789-.133 7.994-.345 1.323 2.849 2.26 5.977 2.37 9.2H24.96v-8.86zm0 10.11h11.185c-.109 3.188-1.033 6.289-2.34 9.119-2.396-.233-5.313-.37-8.844-.351v-8.768h-.001zm0 10.017c.258-.002.52-.005.772-.005 2.94 0 5.409.117 7.487.302-2.648 5.182-6.396 9.315-8.259 11.197V34.976zm.895 12.386c1.999-1.986 6.011-6.366 8.743-11.95 5.392.612 7.72 1.703 8.574 2.24-3.91 5.515-10.173 9.244-17.317 9.71zm18.011-10.744c-1.045-.666-3.48-1.756-8.718-2.392 1.264-2.862 2.146-6 2.248-9.267h10.008a22.938 22.938 0 01-3.538 11.659z" fill="#010002"/></svg>