<svg width="127" height="165" fill="none" xmlns="http://www.w3.org/2000/svg"><path d="M126.921 25.675v132.922a5.744 5.744 0 01-5.739 5.737H15.734a5.744 5.744 0 01-5.739-5.737V6.355A5.744 5.744 0 0115.734.617h86.123l25.064 25.058z" fill="#F6D372"/><path d="M126.921 25.675v132.922a5.744 5.744 0 01-5.739 5.737h-8.186a5.744 5.744 0 005.739-5.737V25.675L93.67.617h8.187l25.064 25.058z" fill="#F6C752"/><path d="M126.921 25.675h-19.326a5.744 5.744 0 01-5.739-5.737V.618l25.065 25.057z" fill="#F7BB38"/><path d="M53.5 56.47H10.037v-6.877h47.724v2.658c-.042 2.32-1.94 4.218-4.261 4.218z" fill="#F6C752"/><path d="M57.846 49.593H.416V26.35a3.16 3.16 0 013.165-3.164h54.265a3.16 3.16 0 013.164 3.164v20.08c0 1.73-1.434 3.163-3.164 3.163z" fill="#fff"/><path d="M61.01 46.008v.38a3.16 3.16 0 01-3.164 3.163H.416V26.308a3.16 3.16 0 013.165-3.164h1.646v8.268c0 8.057 6.54 14.596 14.6 14.596H61.01z" fill="#E2E2E2"/><path d="M.417 49.593l9.62 10.968V49.593H.417z" fill="#C6C6C6"/><path d="M45.862 83.552H24.047a1.36 1.36 0 01-1.35-1.35V71.656c0-.718.59-1.35 1.35-1.35h21.815c.717 0 1.35.59 1.35 1.35v10.546c0 .717-.59 1.35-1.35 1.35zm0 60.323H24.047a1.36 1.36 0 01-1.35-1.35V88.108c0-.718.59-1.35 1.35-1.35h21.815c.717 0 1.35.59 1.35 1.35v54.417c0 .717-.59 1.35-1.35 1.35zm63.126-60.323H55.314a1.36 1.36 0 01-1.35-1.35V71.656c0-.718.59-1.35 1.35-1.35h53.674c.717 0 1.35.59 1.35 1.35v10.546c-.042.717-.633 1.35-1.35 1.35zm-40.34 12.275H55.272a1.36 1.36 0 01-1.35-1.35v-6.412c0-.717.59-1.35 1.35-1.35h13.376c.717 0 1.35.591 1.35 1.35v6.412c0 .76-.59 1.35-1.35 1.35zm20.17 0H75.442a1.36 1.36 0 01-1.35-1.35v-6.412c0-.717.59-1.35 1.35-1.35h13.376c.717 0 1.35.591 1.35 1.35v6.412c0 .76-.633 1.35-1.35 1.35zm20.17 0H95.612a1.36 1.36 0 01-1.35-1.35v-6.412c0-.717.59-1.35 1.35-1.35h13.376c.717 0 1.35.591 1.35 1.35v6.412c-.042.76-.633 1.35-1.35 1.35zm-40.34 12.149H55.272c-.718 0-1.35-.59-1.35-1.35v-6.412c0-.717.59-1.35 1.35-1.35h13.376c.717 0 1.35.591 1.35 1.35v6.412c0 .76-.59 1.35-1.35 1.35zm20.17 0H75.442a1.36 1.36 0 01-1.35-1.35v-6.412c0-.717.59-1.35 1.35-1.35h13.376c.717 0 1.35.591 1.35 1.35v6.412c0 .76-.633 1.35-1.35 1.35zm20.17 0H95.612a1.36 1.36 0 01-1.35-1.35v-6.412c0-.717.59-1.35 1.35-1.35h13.376c.717 0 1.35.591 1.35 1.35v6.412c-.042.76-.633 1.35-1.35 1.35zm-40.34 11.981H55.272a1.36 1.36 0 01-1.35-1.35v-6.412c0-.717.59-1.35 1.35-1.35h13.376c.717 0 1.35.59 1.35 1.35v6.412c0 .717-.59 1.35-1.35 1.35zm20.17 0H75.442a1.36 1.36 0 01-1.35-1.35v-6.412c0-.717.59-1.35 1.35-1.35h13.376c.717 0 1.35.59 1.35 1.35v6.412c0 .717-.633 1.35-1.35 1.35zm20.17 0H95.612a1.36 1.36 0 01-1.35-1.35v-6.412c0-.717.59-1.35 1.35-1.35h13.376c.717 0 1.35.59 1.35 1.35v6.412c-.042.717-.633 1.35-1.35 1.35zm-40.34 11.938H55.272a1.36 1.36 0 01-1.35-1.35v-6.412c0-.717.59-1.35 1.35-1.35h13.376c.717 0 1.35.591 1.35 1.35v6.412c0 .759-.59 1.35-1.35 1.35zm20.17 0H75.442a1.36 1.36 0 01-1.35-1.35v-6.412c0-.717.59-1.35 1.35-1.35h13.376c.717 0 1.35.591 1.35 1.35v6.412a1.36 1.36 0 01-1.35 1.35zm20.17 0H95.612a1.36 1.36 0 01-1.35-1.35v-6.412c0-.717.59-1.35 1.35-1.35h13.376c.717 0 1.35.591 1.35 1.35v6.412c-.042.759-.633 1.35-1.35 1.35zm-40.34 11.98H55.272a1.36 1.36 0 01-1.35-1.35v-6.412c0-.717.59-1.35 1.35-1.35h13.376c.717 0 1.35.591 1.35 1.35v6.412c0 .717-.59 1.35-1.35 1.35zm20.17 0H75.442a1.36 1.36 0 01-1.35-1.35v-6.412c0-.717.59-1.35 1.35-1.35h13.376c.717 0 1.35.591 1.35 1.35v6.412c0 .717-.633 1.35-1.35 1.35zm20.17 0H95.612a1.36 1.36 0 01-1.35-1.35v-6.412c0-.717.59-1.35 1.35-1.35h13.376c.717 0 1.35.591 1.35 1.35v6.412c-.042.717-.633 1.35-1.35 1.35z" fill="#fff"/><path d="M19.32 27.869h2.997v6.243H19.32c-.843-2.236-2.32-3.375-4.43-3.375-1.73 0-3.038.59-3.924 1.772-.886 1.18-1.35 2.615-1.35 4.26 0 1.73.463 3.122 1.392 4.219.928 1.054 2.152 1.603 3.587 1.603 1.181 0 2.236-.422 3.122-1.224.886-.801 1.52-1.94 1.815-3.374l3.502 1.687c-1.35 4.134-4.262 6.201-8.777 6.201-3.207 0-5.612-.844-7.216-2.573-1.603-1.73-2.447-3.881-2.447-6.539 0-1.856.422-3.501 1.266-4.935.844-1.434 1.983-2.447 3.418-3.164 1.434-.717 2.996-1.055 4.684-1.055 2.11 0 3.882.549 5.316 1.646v-1.392h.043zm5.697 17.759v-6.075h2.996c.042 1.097.337 1.941.886 2.447.549.506 1.181.802 1.857.802.548 0 1.012-.17 1.392-.549.38-.38.549-.843.549-1.35 0-.548-.17-1.012-.549-1.392-.38-.38-1.055-.801-2.025-1.265-2.068-.97-3.46-1.856-4.178-2.616-.717-.759-1.097-1.771-1.097-3.08 0-1.56.507-2.741 1.477-3.627.97-.844 2.068-1.265 3.291-1.265 1.435 0 2.49.548 3.292 1.645v-1.477h2.996v5.4h-2.996c-.085-.844-.38-1.477-.844-1.94-.465-.465-1.055-.676-1.688-.676-.507 0-.928.127-1.266.38-.338.253-.506.59-.506 1.055 0 .38.126.717.422 1.054.295.338 1.097.802 2.49 1.392 1.307.591 2.32 1.097 3.037 1.603A4.659 4.659 0 0136.2 37.95c.422.76.633 1.646.633 2.616 0 1.772-.507 3.08-1.52 3.965-1.012.886-2.236 1.35-3.628 1.35-1.561 0-2.743-.59-3.587-1.73v1.52h-3.08v-.043zm20.001.127l-5.274-14.892h-2.11V27.87h9.072v2.994h-2.32l2.995 8.901 2.996-8.9h-2.279V27.87h7.891v2.994h-2.152l-5.106 14.892h-3.713z" fill="#E88032"/></svg>