<svg width="127" height="165" fill="none" xmlns="http://www.w3.org/2000/svg"><path d="M126.684 25.512v132.923a5.744 5.744 0 01-5.739 5.737H15.497a5.744 5.744 0 01-5.739-5.737V6.192A5.744 5.744 0 0115.497.455h86.122l25.065 25.058z" fill="#fff"/><path d="M126.684 25.512v132.923a5.744 5.744 0 01-5.739 5.737h-8.186a5.744 5.744 0 005.739-5.737V25.512L93.433.455h8.186l25.065 25.058z" fill="#E2E1DE"/><path d="M126.684 25.512h-19.326a5.744 5.744 0 01-5.739-5.736V.456l25.065 25.056z" fill="#C9C9C9"/><path d="M53.263 56.307H9.8v-6.876h47.724v2.658c-.042 2.32-1.898 4.218-4.261 4.218z" fill="#E2E1DE"/><path d="M57.609 49.431H.179V26.188a3.16 3.16 0 013.165-3.164H57.61a3.16 3.16 0 013.164 3.163v20.08c0 1.73-1.434 3.164-3.164 3.164z" fill="#3586CB"/><path d="M60.773 45.845v.38a3.16 3.16 0 01-3.164 3.164H.179V26.145a3.16 3.16 0 013.165-3.164H4.99v8.268c0 8.058 6.54 14.596 14.6 14.596h41.183z" fill="#366FCA"/><path d="M.18 49.431L9.8 60.357V49.43H.18z" fill="#2B62B2"/><path d="M7.1 44.706v-2.953h2.616V30.196H7.1v4.05H4.104v-7.003h15.823v7.003h-2.953v-4.05H14.23v11.559h2.616v2.952H7.1zm13.545 0v-2.953h2.574l4.262-5.99-4.262-5.568h-2.405v-2.953h9.114v2.953H28.24l2.448 3.08 2.236-3.08h-1.561v-2.953h7.848v2.953h-2.405l-4.135 5.737 4.557 5.822h2.49v2.952H30.35v-2.953h1.73l-2.616-3.459-2.49 3.46h1.773v2.952h-8.102zm22.828 0v-2.953h2.616V30.196h-2.616v4.05h-2.996v-7.003h15.824v7.003h-2.954v-4.05h-2.7v11.559h2.616v2.952h-9.79z" fill="#fff"/><path d="M109.932 51.54h-37.47a4.231 4.231 0 01-4.22-4.218 4.231 4.231 0 014.22-4.219h37.47a4.232 4.232 0 014.22 4.219 4.205 4.205 0 01-4.22 4.218zm0 18.814H26.721a4.231 4.231 0 01-4.22-4.218 4.231 4.231 0 014.22-4.218h83.211a4.232 4.232 0 014.22 4.218 4.232 4.232 0 01-4.22 4.218zm0 18.772H26.721a4.231 4.231 0 01-4.22-4.218 4.231 4.231 0 014.22-4.219h83.211a4.232 4.232 0 014.22 4.219 4.232 4.232 0 01-4.22 4.218zm0 18.772H26.721a4.231 4.231 0 01-4.22-4.218 4.232 4.232 0 014.22-4.219h83.211a4.232 4.232 0 014.22 4.219 4.231 4.231 0 01-4.22 4.218zm0 18.772H26.721a4.231 4.231 0 01-4.22-4.218 4.232 4.232 0 014.22-4.219h83.211a4.232 4.232 0 014.22 4.219 4.231 4.231 0 01-4.22 4.218zm0 18.772H26.721a4.231 4.231 0 01-4.22-4.218 4.232 4.232 0 014.22-4.219h83.211a4.232 4.232 0 014.22 4.219 4.204 4.204 0 01-4.22 4.218z" fill="#366FCA"/></svg>