<svg width="128" height="165" fill="none" xmlns="http://www.w3.org/2000/svg"><path d="M127.246 25.64v132.922a5.744 5.744 0 01-5.739 5.737H16.059a5.744 5.744 0 01-5.739-5.737V6.319A5.744 5.744 0 0116.06.582h86.123l25.064 25.057z" fill="#fff"/><path d="M109.566 154.849H24.709a3.385 3.385 0 01-3.376-3.374v-46.276c0-19.447 15.782-35.224 35.234-35.224h52.999a3.386 3.386 0 013.376 3.375v78.125a3.358 3.358 0 01-3.376 3.374z" fill="#F9CDAF"/><path d="M127.246 25.64v132.922a5.744 5.744 0 01-5.739 5.737h-8.186a5.744 5.744 0 005.739-5.737V25.639L93.995.582h8.186l25.065 25.057z" fill="#E2E1DE"/><path d="M127.246 25.64H107.92a5.744 5.744 0 01-5.739-5.738V.582l25.065 25.057z" fill="#C9C9C9"/><path d="M58.128 51.751H.7V28.508a3.16 3.16 0 013.165-3.164h54.264a3.16 3.16 0 013.165 3.164v20.08c.042 1.729-1.392 3.163-3.165 3.163z" fill="#E88032"/><path d="M61.335 48.166v.38a3.16 3.16 0 01-3.164 3.163H.74V28.465a3.16 3.16 0 013.165-3.163h1.646v8.268c0 8.057 6.54 14.596 14.6 14.596h41.183z" fill="#CE6B29"/><path d="M.741 51.751l9.579 10.926V51.75H.741z" fill="#B75F23"/><path d="M53.824 58.627H10.362v-6.876h47.724v2.658c-.042 2.32-1.94 4.218-4.262 4.218z" fill="#E2E1DE"/><path d="M98.426 114.353c0 18.392-14.895 33.283-33.293 33.283S31.84 132.745 31.84 114.353c0-18.393 14.895-33.284 33.293-33.284v33.284h33.293z" fill="#E88032"/><path d="M102.603 109.881H69.311V76.598c18.397 0 33.292 14.89 33.292 33.283z" fill="#E88032"/><path d="M15.51 43.778v2.953H6.311v-2.953h2.237V32.22H6.31v-2.953h9.2c2.151 0 3.797.506 4.978 1.519 1.182 1.012 1.773 2.362 1.773 4.05 0 .97-.212 1.855-.633 2.657-.422.801-.929 1.392-1.562 1.814-.633.422-1.392.717-2.194.886-.844.168-1.857.253-3.08.253h-1.688v3.375h2.405v-.043zm-2.447-6.327h.675c1.561 0 2.574-.253 2.996-.76.464-.506.675-1.139.675-1.898a3.01 3.01 0 00-.464-1.645 1.971 1.971 0 00-1.055-.844c-.422-.084-1.055-.169-1.983-.169h-.844v5.316zm19.621 6.327v2.953h-9.199v-2.953h2.236V32.22h-2.236v-2.953h9.199c2.152 0 3.798.506 4.98 1.519 1.18 1.012 1.771 2.362 1.771 4.05 0 .97-.21 1.855-.633 2.657-.422.801-.928 1.392-1.56 1.814-.634.422-1.393.717-2.195.886-.844.168-1.857.253-3.08.253h-1.688v3.375h2.405v-.043zm-2.447-6.327h.675c1.56 0 2.574-.253 2.996-.76.464-.506.675-1.139.675-1.898a3.01 3.01 0 00-.464-1.645 1.971 1.971 0 00-1.055-.844c-.422-.084-1.055-.169-1.984-.169h-.843v5.316zm13.418 9.28v-2.953h2.616V32.22h-2.616v4.05H40.66v-7.003h15.866v7.003h-2.954v-4.05h-2.7v11.558h2.616v2.953h-9.832z" fill="#fff"/></svg>