<svg width="119" height="166" fill="none" xmlns="http://www.w3.org/2000/svg"><path d="M117.335 25.368v132.205a5.699 5.699 0 01-5.697 5.695H6.738c-3.122 0-5.696-2.531-5.696-5.695V6.132A5.699 5.699 0 016.738.437h85.659l24.938 24.93z" fill="#fff"/><path d="M117.335 25.368v132.205a5.699 5.699 0 01-5.696 5.695h-8.102a5.698 5.698 0 005.696-5.695V25.368L84.295.437h8.102l24.938 24.93z" fill="#DDDBDB"/><path d="M117.335 25.368H98.094c-3.123 0-5.697-2.531-5.697-5.695V.437l24.938 24.93z" fill="#C6C6C6"/><path d="M113.411 165.504H5.304a5.141 5.141 0 01-5.148-5.147v-43.07h118.403v43.07c.042 2.826-2.279 5.147-5.148 5.147zM42.015.479h-9.832l-7.849 12.866L16.486.48H6.654l12.743 21.008L6.654 42.494h9.832l7.848-12.908 7.849 12.908h9.832L29.27 21.487 42.015.479z" fill="#00B564"/><path d="M44.504 32.075V69.83H6.823v40.708H104V32.075H44.504zm40.635 2.953h15.908V50.93H85.139V35.028zM63.324 72.783v15.861H47.416V72.783h15.908zm18.861 15.861H66.277V72.783h15.908v15.861zM66.277 69.83V53.969h15.908v15.86H66.277zm0-34.802h15.908V50.93H66.277V35.028zm-18.82 0h15.909V50.93H47.458V35.028zm0 18.898h15.909v15.862H47.458V53.926zm-18.86 18.857h15.907v15.861H28.596V72.783zm-18.863 0h15.908v15.903H9.734V72.783zm15.908 34.802H9.734V91.681h15.908v15.904zm18.862 0H28.596V91.681h15.908v15.904zm18.82 0H47.416V91.681h15.908v15.904zm18.861 0H66.277V91.681h15.908v15.904zm18.862 0H85.139V91.681h15.908v15.904zm0-18.941H85.139V72.783h15.908v15.861zM85.139 69.83V53.969h15.908v15.86H85.139z" fill="#DDDBDB"/><path d="M25.6 153.312v-3.923h3.418l5.654-7.973-5.654-7.382h-3.165v-3.923h12.11v3.923h-2.236l3.25 4.092 2.953-4.092h-2.11v-3.923h10.423v3.923h-3.207l-5.486 7.593 6.077 7.72h3.333v3.923H38.512v-3.923h2.321l-3.502-4.556-3.334 4.556h2.363v3.923H25.6v.042zm26.246 0v-3.923h3.334v-15.313h-3.334v-3.923h12.701v3.923h-3.375v15.313h6.835v-7.171h4.515v11.052H51.846v.042zm22.66 0v-7.888h3.924c.042 1.434.422 2.489 1.14 3.206.717.675 1.518 1.012 2.447 1.012.717 0 1.308-.253 1.814-.759s.718-1.055.718-1.73c0-.717-.254-1.307-.718-1.771-.464-.464-1.35-1.013-2.616-1.646-2.7-1.307-4.515-2.446-5.443-3.416-.97-.971-1.435-2.321-1.435-4.008 0-2.025.633-3.586 1.899-4.682 1.266-1.097 2.7-1.688 4.304-1.688 1.856 0 3.249.717 4.262 2.152v-1.941h3.924v7.045h-3.924c-.127-1.097-.507-1.941-1.14-2.531-.633-.591-1.35-.886-2.194-.886-.633 0-1.181.169-1.646.506-.464.338-.675.802-.675 1.35 0 .464.17.928.549 1.35.38.422 1.434 1.012 3.207 1.814 1.73.759 3.038 1.434 3.924 2.067a6.537 6.537 0 012.152 2.404c.549.971.802 2.11.802 3.417 0 2.278-.675 4.008-1.983 5.147-1.35 1.139-2.912 1.729-4.726 1.729-2.026 0-3.587-.759-4.684-2.235v1.982h-3.882z" fill="#fff"/></svg>