<svg width="128" height="165" fill="none" xmlns="http://www.w3.org/2000/svg"><path d="M127.23 25.584v132.923a5.744 5.744 0 01-5.739 5.737H16.042a5.744 5.744 0 01-5.738-5.737V6.264A5.744 5.744 0 0116.042.527h86.123l25.065 25.057z" fill="#fff"/><path d="M127.229 25.584v132.923a5.744 5.744 0 01-5.738 5.737h-8.144a5.744 5.744 0 005.739-5.737V25.584L94.021.527h8.186l25.022 25.057z" fill="#DBDCDD"/><path d="M127.23 25.584h-19.326a5.744 5.744 0 01-5.739-5.737V.527l25.065 25.057z" fill="#BFC0C1"/><path d="M53.808 56.379H10.346v-6.876H58.07v2.657c-.042 2.32-1.941 4.219-4.262 4.219z" fill="#DBDCDD"/><path d="M58.154 49.46H.725V26.217a3.16 3.16 0 013.165-3.164h54.264a3.16 3.16 0 013.165 3.164v20.08a3.16 3.16 0 01-3.165 3.163z" fill="#7CC8FB"/><path d="M61.319 45.917v.38a3.16 3.16 0 01-3.165 3.163H.725V26.217a3.16 3.16 0 013.165-3.164h1.645v8.268c0 8.057 6.54 14.596 14.6 14.596H61.32z" fill="#41C0E3"/><path d="M.725 49.46l9.62 10.968V49.46H.726z" fill="#3586CB"/><path d="M23.047 41.952v3.121h-5.612l-4.177-8.057h-2.11v4.936h2.32v3.121h-9.62v-3.121h2.531V29.76H3.848v-3.12h11.097c2.11 0 3.587.506 4.515 1.56.929 1.055 1.393 2.236 1.393 3.586 0 2.11-1.055 3.628-3.207 4.598l2.996 5.569h2.405zm-11.9-7.889h1.646c2.026 0 3.038-.717 3.038-2.151 0-.717-.21-1.266-.675-1.603-.464-.338-1.097-.549-1.899-.549H11.19v4.303h-.042zM26.296 45.03v-3.12h2.785V29.76h-2.785v4.303h-3.165v-7.382h16.71v7.382h-3.123V29.76h-2.827v12.192h2.785v3.121h-10.38v-.042zm15.106 0v-3.12h2.617V29.76h-2.617v-3.12h16.5v5.695h-3.503V29.76H48.87v4.26h3.967v3.122H48.87v4.81h2.827v3.121H41.402v-.042z" fill="#fff"/><path d="M59.04 75.404H26.971a2.224 2.224 0 01-2.236-2.236v-6.454a2.224 2.224 0 012.236-2.236h32.07a2.224 2.224 0 012.236 2.236v6.454c.042 1.223-.97 2.236-2.236 2.236z" fill="#7CC8FB"/><path d="M107.397 91.729H27.984a3.25 3.25 0 01-3.25-3.248 3.25 3.25 0 013.25-3.248h79.413a3.25 3.25 0 013.25 3.248c-.043 1.814-1.477 3.248-3.25 3.248zm0 17.717H27.984a3.25 3.25 0 01-3.25-3.248 3.25 3.25 0 013.25-3.248h79.413a3.25 3.25 0 013.25 3.248c-.043 1.814-1.477 3.248-3.25 3.248zm0 17.718H27.984a3.25 3.25 0 01-3.25-3.249 3.25 3.25 0 013.25-3.248h79.413a3.25 3.25 0 013.25 3.248c-.043 1.814-1.477 3.249-3.25 3.249zm0 17.717H27.984a3.25 3.25 0 01-3.25-3.248 3.25 3.25 0 013.25-3.248h79.413a3.25 3.25 0 013.25 3.248c-.043 1.814-1.477 3.248-3.25 3.248z" fill="#BFC0C1"/></svg>